<svg width="68" height="81" viewBox="0 0 68 81" fill="none" xmlns="http://www.w3.org/2000/svg">
<g clip-path="url(#clip0)">
<path d="M56.2267 54.9333V46.9799H44.6649C39.2154 44.9023 33.2779 44.4613 27.5813 45.7112V44.7904C27.5679 44.4397 27.6319 44.0903 27.7689 43.7672C27.7689 43.7672 27.8576 43.5966 28.2941 43.3784C29.0856 43.0331 29.9273 42.8166 30.7872 42.7372C32.477 42.5378 34.1779 42.449 35.8792 42.4712C40.2584 42.4712 43.7747 42.0312 46.6294 41.107C49.6068 40.1589 52.001 38.7639 53.7472 36.9597C55.4903 35.1651 56.7403 32.9506 57.3761 30.5309C57.9914 28.1382 58.2929 25.6756 58.273 23.2051C58.2965 20.6948 57.9752 18.1931 57.3181 15.7702C56.6448 13.3418 55.3328 11.1383 53.5187 9.38909C51.7316 7.65995 49.3271 6.31964 46.3565 5.40562C43.5462 4.53594 39.9685 4.09595 35.7257 4.09595C33.7851 4.09595 31.8582 4.18463 30.0028 4.35856C28.1475 4.5325 26.4149 4.76101 24.7915 5.04067C23.168 5.32033 21.7458 5.58291 20.4532 5.85575C19.1606 6.12859 18.134 6.35712 17.3052 6.55834L15.2794 7.04943V23.1233L18.3898 22.5673C18.9241 22.4718 19.7574 22.3286 20.8898 22.1376C21.9845 21.9534 23.3147 21.7659 24.8426 21.5783C26.3706 21.3907 28.0997 21.2373 29.9585 21.0838C31.8172 20.9303 33.7817 20.8757 35.8281 20.8757C37.5952 20.853 39.362 20.9418 41.1179 21.1418C41.9775 21.2161 42.8195 21.4292 43.611 21.7727C43.7582 21.8427 43.8939 21.9347 44.0134 22.0455C44.1361 22.3969 44.1905 22.7686 44.1737 23.1404C44.1859 23.4736 44.1205 23.8052 43.9827 24.1089C43.8455 24.2807 43.6656 24.4137 43.4609 24.4943C42.6485 24.852 41.7857 25.0821 40.903 25.1764C39.2364 25.3942 37.5564 25.4922 35.8758 25.4697C31.5 25.4697 27.9837 25.9131 25.1257 26.8339C22.1585 27.7786 19.7609 29.1531 18.0078 30.9265C16.2284 32.7154 14.9581 34.9463 14.3278 37.3895C13.7151 39.7919 13.4136 42.2632 13.4308 44.7426V53.2484C10.4788 56.0388 8.12763 59.4025 6.52133 63.1335C4.91503 66.8645 4.08744 70.8842 4.08927 74.9462V76.9312H63.9073V74.9462C63.919 67.5533 61.1815 60.4202 56.2267 54.9333Z" fill="#EA5B0D"/>
<path d="M35.7223 4.09386C39.9651 4.09386 43.5428 4.53385 46.3531 5.40353C49.3135 6.31755 51.7179 7.65786 53.5153 9.387C55.3306 11.1358 56.6438 13.3393 57.3181 15.7681C57.9752 18.191 58.2965 20.6927 58.273 23.2031C58.2929 25.6735 57.9914 28.1361 57.3761 30.5289C56.7403 32.9486 55.4903 35.163 53.7472 36.9576C52.001 38.7618 49.6068 40.1568 46.6293 41.1049C43.7747 42.0155 40.2584 42.4691 35.8792 42.4691C34.1779 42.4469 32.477 42.5358 30.7872 42.7351C29.9273 42.8146 29.0856 43.031 28.2941 43.3763C27.8576 43.5946 27.7723 43.7583 27.7689 43.7651C27.6319 44.0883 27.5679 44.4376 27.5813 44.7883V45.7091C33.2779 44.4592 39.2154 44.9002 44.6649 46.9778H56.2267V54.9312C61.1759 60.412 63.9131 67.5356 63.9073 74.9202V76.9052H4.09268V74.9202C4.09085 70.8582 4.91844 66.8385 6.52474 63.1076C8.13104 59.3766 10.4822 56.0129 13.4342 53.2225V44.7166C13.417 42.2373 13.7185 39.7661 14.3312 37.3636C14.9615 34.9204 16.2318 32.6895 18.0112 30.9006C19.7643 29.134 22.1619 27.7595 25.1291 26.808C27.9872 25.8974 31.5035 25.4438 35.8792 25.4438C37.5598 25.4663 39.2398 25.3682 40.9064 25.1504C41.7891 25.0561 42.6519 24.826 43.4643 24.4683C43.669 24.3877 43.8489 24.2548 43.9862 24.0829C44.1239 23.7792 44.1893 23.4477 44.1771 23.1144C44.1939 22.7426 44.1395 22.371 44.0168 22.0196C43.8973 21.9088 43.7616 21.8167 43.6144 21.7467C42.8229 21.4032 41.9809 21.1901 41.1213 21.1158C39.3654 20.9159 37.5986 20.827 35.8315 20.8497C33.7851 20.8497 31.8104 20.9214 29.9619 21.0578C28.1133 21.1942 26.3876 21.3647 24.846 21.5523C23.3044 21.7399 21.988 21.9275 20.8932 22.1117C19.7984 22.2959 18.9287 22.4528 18.3932 22.5414L15.2828 23.0973V7.02353L17.3052 6.55966C18.134 6.35844 19.1947 6.12309 20.4532 5.85707C21.7117 5.59105 23.2055 5.31143 24.7914 5.04199C26.3774 4.77256 28.1679 4.54406 30.0028 4.35989C31.8377 4.17572 33.7851 4.09727 35.7257 4.09727L35.7223 4.09386ZM35.7257 0.00463867C33.6555 0.00463867 31.6024 0.10016 29.6174 0.287739C27.6836 0.471908 25.8317 0.710591 24.1127 1.00049C22.4688 1.27674 20.9546 1.56322 19.6074 1.84629C18.2602 2.12936 17.22 2.36474 16.3435 2.57619L14.3176 3.06387L11.1867 3.82441V28.0017L15.999 27.1456H16.0467C15.7057 27.4321 15.4021 27.7288 15.0986 28.0323C12.8092 30.3296 11.1749 33.1966 10.3647 36.337C9.66386 39.0802 9.31997 41.9024 9.34155 44.7337V51.5547C3.33962 57.8623 -0.00530801 66.2374 -8.97234e-06 74.9441V81.0217H68V74.9441C67.9989 67.1098 65.285 59.5176 60.3194 53.4578V42.9261H52.707C54.1695 42.0854 55.5089 41.0468 56.6871 39.8396C58.9176 37.5462 60.5167 34.7146 61.3289 31.6202C62.0323 28.8832 62.3763 26.0663 62.3521 23.2405C62.3759 20.3543 62.0029 17.4785 61.2436 14.6938C60.3753 11.57 58.6866 8.7355 56.3529 6.48464C54.0985 4.30531 51.1415 2.63756 47.5638 1.52913C44.3579 0.540081 40.3744 0.038694 35.7223 0.038694L35.7257 0.00463867Z" fill="white"/>
<path d="M6.07764 74.9601C6.07764 67.5547 9.01946 60.4527 14.2559 55.2163C19.4924 49.9799 26.5945 47.0381 34 47.0381C41.4055 47.0381 48.5076 49.9799 53.7441 55.2163C58.9805 60.4527 61.9224 67.5547 61.9224 74.9601H6.07764Z" fill="white"/>
<path d="M63.9687 77.0063H4.0313V74.96C4.0313 71.0245 4.80646 67.1276 6.31253 63.4916C7.8186 59.8557 10.0261 56.552 12.8089 53.7692C15.5918 50.9864 18.8955 48.779 22.5315 47.2729C26.1674 45.7669 30.0645 44.9917 34 44.9917C37.9355 44.9917 41.8326 45.7669 45.4685 47.2729C49.1045 48.779 52.4082 50.9864 55.1911 53.7692C57.9739 56.552 60.1814 59.8557 61.6875 63.4916C63.1935 67.1276 63.9687 71.0245 63.9687 74.96V77.0063ZM8.20242 72.9137H59.7976C59.2804 66.4268 56.3382 60.3727 51.5573 55.9578C46.7764 51.5429 40.5076 49.0912 34 49.0912C27.4924 49.0912 21.2236 51.5429 16.4427 55.9578C11.6617 60.3727 8.7196 66.4268 8.20242 72.9137Z" fill="#EA5B0D"/>
<path d="M16.0809 44.7564C16.0611 42.5036 16.334 40.2577 16.8926 38.0752C17.4029 36.0824 18.4381 34.2628 19.8905 32.8059C21.3456 31.3394 23.3602 30.1957 25.934 29.3749C28.5078 28.5541 31.8229 28.1449 35.8792 28.1472C37.6927 28.1666 39.5052 28.0526 41.302 27.8061C42.4624 27.6684 43.5944 27.352 44.658 26.8682C45.3729 26.5458 45.9649 26.0016 46.3463 25.3164C46.6748 24.6426 46.8385 23.9002 46.8238 23.1507C46.8444 22.396 46.7061 21.6453 46.4179 20.9475C46.0766 20.2741 45.5143 19.7383 44.8252 19.4298C43.7634 18.9477 42.6296 18.6435 41.4692 18.5295C39.5981 18.3121 37.715 18.2152 35.8315 18.2396C33.7033 18.2396 31.6808 18.3112 29.7641 18.4544C27.8473 18.5976 26.1022 18.7671 24.5288 18.9626C22.96 19.1536 21.6037 19.3457 20.46 19.539L17.9362 19.9721V9.14031C18.732 8.94932 19.7552 8.72195 21.0057 8.45821C22.2563 8.19446 23.6682 7.92955 25.2417 7.66353C26.8128 7.39978 28.4862 7.18381 30.262 7.01556C32.0378 6.84731 33.8568 6.76318 35.7189 6.76318C39.7161 6.76318 42.9994 7.15994 45.5687 7.95345C48.138 8.74697 50.1684 9.86671 51.66 11.3128C53.1397 12.7357 54.2083 14.5312 54.7533 16.5104C55.3469 18.6987 55.635 20.9586 55.6094 23.2258C55.6301 25.4661 55.3583 27.6995 54.8011 29.8695C54.2824 31.8537 53.2576 33.6692 51.8271 35.1387C50.3855 36.6326 48.379 37.7876 45.8074 38.6038C43.2358 39.4201 39.9208 39.8294 35.8622 39.8316C34.0388 39.8098 32.216 39.9066 30.4053 40.1215C29.2536 40.2417 28.1286 40.5457 27.0731 41.0219C26.3516 41.3424 25.7533 41.8881 25.3678 42.5771C25.0352 43.2749 24.8728 44.0416 24.8938 44.8144V49.6506H53.5426V60.6256H16.0263L16.0809 44.7564Z" fill="white"/>
<path d="M35.7223 6.77664C39.7195 6.77664 43.0028 7.1734 45.5721 7.96691C48.1414 8.76043 50.1718 9.88025 51.6633 11.3263C53.1431 12.7492 54.2117 14.5448 54.7567 16.524C55.3503 18.7122 55.6384 20.9721 55.6128 23.2393C55.6335 25.4796 55.3617 27.713 54.8045 29.883C54.2858 31.8671 53.261 33.6828 51.8305 35.1523C50.3889 36.6461 48.3824 37.8011 45.8108 38.6174C43.2392 39.4336 39.9242 39.8429 35.8656 39.8452C34.0422 39.8233 32.2194 39.9201 30.4087 40.135C29.257 40.2552 28.132 40.5593 27.0765 41.0354C26.355 41.3559 25.7567 41.9015 25.3712 42.5906C25.0386 43.2884 24.8762 44.0552 24.8972 44.8279V49.664H53.546V60.6391H16.0297V44.7563C16.01 42.5035 16.2828 40.2576 16.8414 38.0751C17.3517 36.0822 18.387 34.2627 19.8393 32.8058C21.2945 31.3393 23.309 30.1956 25.8828 29.3748C28.4567 28.554 31.7718 28.1448 35.8281 28.1471C37.6416 28.1665 39.4541 28.0525 41.2509 27.806C42.4112 27.6682 43.5432 27.3519 44.6069 26.8681C45.3217 26.5457 45.9137 26.0015 46.2951 25.3163C46.6236 24.6424 46.7873 23.9001 46.7726 23.1506C46.7932 22.3959 46.655 21.6452 46.3667 20.9474C46.0254 20.2739 45.4631 19.7382 44.774 19.4297C43.7123 18.9476 42.5785 18.6434 41.418 18.5294C39.5469 18.3119 37.6638 18.2151 35.7803 18.2395C33.6521 18.2395 31.6297 18.311 29.7129 18.4543C27.7962 18.5975 26.0511 18.767 24.4777 18.9625C22.9088 19.1535 21.5525 19.3456 20.4089 19.5389L17.885 19.972V9.1402C18.6808 8.94921 19.704 8.72184 20.9546 8.45809C22.2051 8.19434 23.6171 7.92943 25.1905 7.66341C26.7616 7.39966 28.4351 7.1837 30.2109 7.01544C31.9866 6.84719 33.8056 6.76307 35.6678 6.76307L35.7223 6.77664ZM35.6678 4.03465C33.7237 4.03465 31.7968 4.12333 29.938 4.29726C28.0792 4.4712 26.3467 4.69971 24.7198 4.97937C23.093 5.25903 21.6708 5.5216 20.3782 5.79104C19.0856 6.06047 18.0556 6.29582 17.2268 6.49704L15.1395 7.00179V23.2358L18.3489 22.6663C18.8809 22.5708 19.7131 22.4276 20.8454 22.2366C21.9777 22.0456 23.2703 21.8649 24.7949 21.6773C26.3194 21.4897 28.0451 21.3362 29.9107 21.1827C31.7763 21.0292 33.7306 20.9747 35.7735 20.9747C37.5372 20.9519 39.3006 21.0408 41.0531 21.2407C41.9037 21.3123 42.7367 21.5231 43.5189 21.8648C43.6542 21.9261 43.7787 22.0091 43.8872 22.1104C44.0017 22.4471 44.0526 22.8021 44.0373 23.1574C44.0491 23.4775 43.9872 23.796 43.8566 24.0885C43.7242 24.2387 43.5583 24.3555 43.3722 24.4295C42.5658 24.7839 41.7102 25.0139 40.8348 25.1116C39.1728 25.3296 37.4973 25.4276 35.8212 25.405C31.4387 25.405 27.9155 25.8483 25.0472 26.7692C22.0664 27.7207 19.6585 29.102 17.885 30.8618C16.0956 32.6612 14.8183 34.9051 14.1846 37.3623C13.5688 39.7712 13.2662 42.2495 13.2842 44.7358V63.3471H56.2574V46.9152H27.6086V44.8074C27.5925 44.4638 27.6543 44.1211 27.7893 43.8048C27.9223 43.6537 28.0896 43.5368 28.2771 43.4637C29.0617 43.1239 29.895 42.9099 30.7463 42.8294C32.4317 42.633 34.128 42.5452 35.8247 42.5668C40.2107 42.5668 43.7338 42.1234 46.5987 41.2026C49.5897 40.251 51.9976 38.8493 53.7609 37.0349C55.5171 35.2268 56.7745 32.9941 57.4102 30.5549C58.0267 28.1554 58.3293 25.686 58.3106 23.2086C58.3346 20.6902 58.0121 18.1803 57.3522 15.7498C56.6754 13.3083 55.3563 11.0929 53.5323 9.33454C51.735 7.59517 49.3203 6.24801 46.3497 5.33058C43.4882 4.44725 40.0026 4.01758 35.6916 4.01758L35.6678 4.03465Z" fill="#EA5B0D"/>
<path d="M7.34978 74.353C7.34978 70.8533 8.03911 67.3879 9.37841 64.1546C10.7177 60.9213 12.6807 57.9834 15.1554 55.5087C17.6302 53.034 20.5681 51.0711 23.8014 49.7318C27.0348 48.3925 30.5002 47.7031 34 47.7031C37.4998 47.7031 40.9652 48.3925 44.1986 49.7318C47.4319 51.0711 50.3698 53.034 52.8445 55.5087C55.3192 57.9834 57.2823 60.9213 58.6216 64.1546C59.9609 67.3879 60.6502 70.8533 60.6502 74.353H7.34978Z" fill="#0E4D9F"/>
<path d="M60.6502 74.9123H7.34978L6.79045 74.353C6.79045 67.1367 9.65716 60.2159 14.7599 55.1132C19.8627 50.0104 26.7836 47.1438 34 47.1438C41.2164 47.1438 48.1373 50.0104 53.2401 55.1132C58.3428 60.2159 61.2095 67.1367 61.2095 74.353L60.6502 74.9123ZM7.91594 73.7902H60.0977C60.0977 66.8706 57.3488 60.2344 52.4559 55.3415C47.5629 50.4485 40.9266 47.6997 34.0068 47.6997C27.0871 47.6997 20.4508 50.4485 15.5578 55.3415C10.6648 60.2344 7.91594 66.8706 7.91594 73.7902Z" fill="white"/>
<path d="M33.6146 67.0577L38.5599 62.1158C38.6702 62.006 38.8136 61.9355 38.9679 61.9152C39.1223 61.8949 39.279 61.9259 39.414 62.0035C39.5489 62.0811 39.6546 62.2008 39.7148 62.3444C39.7749 62.488 39.7862 62.6473 39.7468 62.7979L37.8744 69.9123C37.8452 70.023 37.7897 70.1251 37.7126 70.2097C37.6354 70.2943 37.5389 70.3589 37.4313 70.3981C37.3238 70.4373 37.2083 70.4499 37.0948 70.4348C36.9813 70.4197 36.8732 70.3773 36.7796 70.3113L33.7101 68.1423C33.6259 68.0822 33.5556 68.0045 33.5043 67.9147C33.4529 67.8249 33.4216 67.725 33.4125 67.622C33.4034 67.5189 33.4168 67.4151 33.4517 67.3177C33.4866 67.2203 33.5422 67.1316 33.6146 67.0577Z" fill="white"/>
<path d="M33.9454 76.3411C36.4996 76.3411 38.5702 74.2706 38.5702 71.7165C38.5702 69.1623 36.4996 67.0918 33.9454 67.0918C31.3913 67.0918 29.3207 69.1623 29.3207 71.7165C29.3207 74.2706 31.3913 76.3411 33.9454 76.3411Z" fill="#0E4D9F"/>
<path d="M33.9454 76.9005C32.92 76.9011 31.9174 76.5977 31.0644 76.0284C30.2114 75.4592 29.5464 74.6499 29.1535 73.7027C28.7607 72.7555 28.6575 71.7131 28.8571 70.7072C29.0568 69.7014 29.5503 68.7773 30.2751 68.052C31 67.3267 31.9237 66.8326 32.9294 66.6323C33.9351 66.432 34.9776 66.5345 35.9251 66.9268C36.8726 67.319 37.6824 67.9834 38.2522 68.836C38.822 69.6886 39.1261 70.691 39.1261 71.7165C39.1252 73.0905 38.5792 74.408 37.6079 75.3799C36.6367 76.3518 35.3195 76.8987 33.9454 76.9005ZM33.9454 67.6545C33.1411 67.6538 32.3546 67.8918 31.6855 68.3383C31.0165 68.7847 30.4949 69.4196 30.1867 70.1626C29.8786 70.9056 29.7978 71.7232 29.9546 72.5122C30.1113 73.3011 30.4986 74.0258 31.0673 74.5945C31.6361 75.1633 32.3608 75.5505 33.1497 75.7073C33.9387 75.864 34.7564 75.7833 35.4994 75.4751C36.2424 75.167 36.8772 74.6454 37.3237 73.9764C37.7702 73.3073 38.0081 72.5208 38.0074 71.7165C38.0065 70.6395 37.5783 69.6068 36.8167 68.8453C36.0551 68.0837 35.0225 67.6554 33.9454 67.6545Z" fill="white"/>
<path d="M34.017 54.0911C33.9433 54.0911 33.8703 54.0764 33.8022 54.0481C33.7341 54.0198 33.6723 53.9783 33.6203 53.926C33.5683 53.8737 33.5272 53.8116 33.4993 53.7434C33.4714 53.6751 33.4573 53.602 33.4577 53.5283V47.6997C33.4577 47.5513 33.5166 47.4091 33.6215 47.3042C33.7264 47.1994 33.8687 47.1404 34.017 47.1404C34.1654 47.1404 34.3077 47.1994 34.4126 47.3042C34.5175 47.4091 34.5764 47.5513 34.5764 47.6997V53.5283C34.5768 53.602 34.5627 53.6751 34.5348 53.7434C34.5069 53.8116 34.4658 53.8737 34.4138 53.926C34.3618 53.9783 34.3 54.0198 34.2319 54.0481C34.1638 54.0764 34.0908 54.0911 34.017 54.0911Z" fill="white"/>
<path d="M26.906 55.3291C26.7911 55.3295 26.679 55.2943 26.5849 55.2283C26.4909 55.1624 26.4195 55.0689 26.3808 54.9607L24.389 49.4835C24.3452 49.3459 24.3563 49.1966 24.42 49.067C24.4837 48.9374 24.5951 48.8374 24.7308 48.7881C24.8666 48.7387 25.0161 48.7438 25.1482 48.8022C25.2803 48.8606 25.3847 48.9678 25.4395 49.1015L27.4346 54.5788C27.4595 54.6482 27.4704 54.7218 27.4667 54.7954C27.463 54.8691 27.4448 54.9412 27.4131 55.0078C27.3814 55.0743 27.3368 55.134 27.282 55.1833C27.2272 55.2326 27.1631 55.2705 27.0936 55.295C27.0337 55.3177 26.9701 55.3293 26.906 55.3291Z" fill="white"/>
<path d="M20.6715 58.9407C20.5894 58.9409 20.5084 58.923 20.4341 58.8882C20.3598 58.8534 20.2941 58.8026 20.2418 58.7394L16.4901 54.275C16.4429 54.2186 16.4072 54.1534 16.3851 54.0832C16.3631 54.0129 16.3551 53.9391 16.3616 53.8658C16.3681 53.7924 16.3889 53.7212 16.423 53.6559C16.457 53.5907 16.5036 53.5327 16.56 53.4855C16.6165 53.4382 16.6817 53.4025 16.7519 53.3805C16.8221 53.3584 16.896 53.3504 16.9693 53.3569C17.0426 53.3634 17.1139 53.3843 17.1792 53.4184C17.2444 53.4524 17.3023 53.499 17.3496 53.5554L21.1012 58.0232C21.1966 58.1367 21.243 58.2835 21.2302 58.4313C21.2174 58.579 21.1465 58.7156 21.033 58.811C20.9319 58.8961 20.8036 58.9421 20.6715 58.9407Z" fill="white"/>
<path d="M16.0399 64.4589C15.9417 64.459 15.8452 64.4332 15.7603 64.3839L10.7126 61.4679C10.6477 61.4318 10.5905 61.3832 10.5446 61.3249C10.4986 61.2666 10.4647 61.1997 10.4449 61.1282C10.4251 61.0566 10.4197 60.9818 10.4291 60.9081C10.4385 60.8344 10.4624 60.7634 10.4995 60.6991C10.5367 60.6348 10.5863 60.5785 10.6454 60.5336C10.7045 60.4886 10.772 60.4558 10.8439 60.4372C10.9158 60.4186 10.9907 60.4146 11.0641 60.4252C11.1376 60.4359 11.2083 60.461 11.2719 60.4993L16.3196 63.4153C16.4262 63.4769 16.5095 63.5719 16.5566 63.6856C16.6036 63.7994 16.6119 63.9254 16.58 64.0443C16.5482 64.1632 16.478 64.2683 16.3803 64.3433C16.2827 64.4182 16.163 64.4589 16.0399 64.4589Z" fill="white"/>
<path d="M13.5775 71.2254H13.4786L7.73859 70.2022C7.59341 70.1755 7.46469 70.0924 7.38049 69.9712C7.29629 69.8499 7.26343 69.7003 7.28908 69.5549C7.31474 69.4096 7.39682 69.2803 7.51744 69.1952C7.63806 69.1101 7.78743 69.076 7.933 69.1006L13.673 70.1237C13.8129 70.1457 13.9392 70.2199 14.0266 70.3313C14.1139 70.4427 14.1557 70.5832 14.1436 70.7242C14.1315 70.8653 14.0664 70.9965 13.9613 71.0914C13.8562 71.1863 13.7191 71.2378 13.5775 71.2356V71.2254Z" fill="white"/>
<path d="M41.1417 55.3291C41.0766 55.3291 41.0119 55.3175 40.9507 55.2949C40.8812 55.2705 40.8172 55.2326 40.7623 55.1833C40.7075 55.134 40.663 55.0743 40.6313 55.0078C40.5996 54.9412 40.5814 54.8691 40.5777 54.7954C40.574 54.7218 40.5848 54.6482 40.6097 54.5788L42.6049 49.1015C42.6597 48.9678 42.764 48.8606 42.8961 48.8022C43.0282 48.7438 43.1778 48.7387 43.3135 48.7881C43.4492 48.8374 43.5606 48.9374 43.6243 49.067C43.688 49.1966 43.6992 49.3459 43.6553 49.4835L41.6704 54.988C41.6262 55.0911 41.5524 55.1786 41.4582 55.2393C41.364 55.3001 41.2538 55.3313 41.1417 55.3291Z" fill="white"/>
<path d="M47.3797 58.9407C47.273 58.9414 47.1684 58.9115 47.0783 58.8545C46.9882 58.7974 46.9164 58.7157 46.8715 58.619C46.8266 58.5223 46.8104 58.4147 46.8249 58.3091C46.8394 58.2034 46.884 58.1042 46.9534 58.0232L50.705 53.5554C50.8004 53.4415 50.9372 53.37 51.0853 53.3569C51.2333 53.3438 51.3806 53.3901 51.4945 53.4855C51.6085 53.5809 51.6799 53.7177 51.693 53.8658C51.7061 54.0138 51.6599 54.161 51.5645 54.275L47.8128 58.7394C47.7601 58.803 47.6939 58.8541 47.619 58.8889C47.544 58.9237 47.4623 58.9414 47.3797 58.9407Z" fill="white"/>
<path d="M52.0112 64.4591C51.8881 64.459 51.7685 64.4183 51.6708 64.3434C51.5732 64.2684 51.503 64.1634 51.4711 64.0445C51.4393 63.9256 51.4475 63.7995 51.4946 63.6858C51.5417 63.572 51.625 63.477 51.7316 63.4154L56.7792 60.4994C56.9075 60.4282 57.0586 60.4103 57.1999 60.4495C57.3412 60.4887 57.4616 60.5818 57.5349 60.7088C57.6082 60.8358 57.6288 60.9866 57.592 61.1286C57.5553 61.2706 57.4643 61.3925 57.3385 61.468L52.2909 64.384C52.2059 64.4333 52.1095 64.4592 52.0112 64.4591Z" fill="white"/>
<path d="M54.4805 71.2253C54.3386 71.2286 54.2007 71.1777 54.0949 71.083C53.9891 70.9884 53.9232 70.8571 53.9106 70.7157C53.898 70.5743 53.9397 70.4334 54.0272 70.3216C54.1146 70.2097 54.2413 70.1354 54.3816 70.1135L60.125 69.0903C60.1976 69.077 60.2721 69.078 60.3442 69.0936C60.4164 69.1091 60.4847 69.1388 60.5453 69.1809C60.606 69.223 60.6577 69.2767 60.6974 69.3389C60.7372 69.401 60.7643 69.4705 60.7771 69.5432C60.7899 69.6159 60.7883 69.6903 60.7722 69.7624C60.7561 69.8344 60.7259 69.9026 60.6833 69.9629C60.6408 70.0232 60.5867 70.0744 60.5243 70.1137C60.4618 70.1531 60.3922 70.1796 60.3194 70.1919L54.576 71.2151L54.4805 71.2253Z" fill="white"/>
</g>
<defs>
<clipPath id="clip0">
<rect width="68" height="81" fill="white"/>
</clipPath>
</defs>
</svg>
