<svg width="57" height="81" viewBox="0 0 57 81" fill="none" xmlns="http://www.w3.org/2000/svg">
<g clip-path="url(#clip0)">
<path d="M50.2566 58.9047C48.0798 57.117 46.0614 55.1447 44.2238 53.01L44.1092 52.8855C45.1933 51.8295 46.0435 50.5577 46.6048 49.1522C47.441 47.1196 47.7991 44.5358 47.6791 41.4007C47.6525 39.427 47.2812 37.473 46.5819 35.6271C46.0416 34.2487 45.3355 32.9412 44.4793 31.7333C43.6642 30.6327 42.6674 29.6791 41.5317 28.9137C42.0393 28.3074 42.4533 27.6286 42.7598 26.8997C43.1355 26.0692 43.4284 25.2037 43.6343 24.3158C43.9221 23.0495 44.0552 21.7531 44.0306 20.4548C44.0306 15.8002 42.6266 12.3211 39.8188 10.0178C37.0109 7.71453 32.8308 6.56176 27.2784 6.55958C25.5064 6.55851 23.7355 6.64817 21.9727 6.82814C20.2478 7.00935 18.6397 7.2222 17.1485 7.46672C15.6572 7.71124 14.3341 7.95685 13.179 8.20356C12.0229 8.44917 11.1092 8.66531 10.4378 8.85853V18.9287C10.7303 18.8413 11.3854 18.6842 12.4028 18.4571C13.4203 18.2301 14.6769 17.9954 16.1725 17.7531C17.679 17.5085 19.3897 17.2847 21.3046 17.0817C23.3231 16.8762 25.351 16.7756 27.3799 16.7804C28.1954 16.7804 29.0895 16.8131 30.0524 16.8819C30.9751 16.9384 31.8844 17.1304 32.7511 17.4517C33.5488 17.7436 34.2691 18.214 34.857 18.8271C35.4269 19.4297 35.738 20.2943 35.8002 21.411C35.8854 23.2471 35.4607 24.5003 34.5262 25.1705C33.5917 25.8408 32.3788 26.177 30.8876 26.1792H17.5087V35.8433H33.6452C35.6627 35.8433 37.1834 36.269 38.2074 37.1204C39.2314 37.9719 39.6845 39.4041 39.5666 41.417C39.5439 42.2889 39.2785 43.1373 38.8002 43.8667C38.3372 44.5232 37.7385 45.0727 37.0448 45.4779C36.7735 45.6353 36.4936 45.7775 36.2063 45.9036C34.2849 44.6249 32.237 43.5472 30.095 42.6877C29.9904 42.6495 29.8766 42.6448 29.7692 42.6741C29.6619 42.7034 29.5663 42.7654 29.4956 42.8514L26.0764 46.945C25.5917 46.945 25.1168 46.922 24.6452 46.9056L29.119 41.5906C29.2754 41.405 29.3937 41.1906 29.4672 40.9593C29.5407 40.728 29.5678 40.4845 29.5472 40.2427C29.5265 40.001 29.4584 39.7656 29.3467 39.5501C29.235 39.3347 29.0819 39.1434 28.8963 38.9871C28.5208 38.6729 28.0363 38.5199 27.5485 38.5617C27.0607 38.6034 26.6092 38.8363 26.2926 39.2098L20.1092 46.5553C18.3242 46.349 16.7227 46.1296 15.3111 45.9003C13.6104 45.6129 11.9266 45.2324 10.2675 44.7607V54.8276C10.8275 54.9913 11.6234 55.1943 12.6452 55.4301L8.83297 59.9592C8.3399 60.0148 7.87345 60.2119 7.48992 60.5267C7.1064 60.8415 6.82217 61.2606 6.67154 61.7334C6.52091 62.2061 6.51031 62.7123 6.64103 63.191C6.77175 63.6696 7.0382 64.1002 7.40823 64.4308C7.77825 64.7614 8.23604 64.9778 8.72636 65.054C9.21667 65.1302 9.71856 65.0629 10.1715 64.8602C10.6244 64.6575 11.0089 64.3281 11.2788 63.9117C11.5486 63.4953 11.6922 63.0098 11.6921 62.5136C11.6921 62.4448 11.6921 62.376 11.6921 62.3105L16.8013 56.2455L16.9651 56.2717C17.3712 56.3372 17.7871 56.4028 18.2096 56.4617L17.4072 57.4442C17.352 57.5102 17.3135 57.5884 17.2949 57.6724C17.2763 57.7564 17.2782 57.8437 17.3003 57.9268C17.3225 58.01 17.3643 58.0865 17.4222 58.1501C17.4801 58.2137 17.5525 58.2625 17.6332 58.2923C20.8853 59.6266 23.9182 61.4427 26.6299 63.6795C28.319 65.0891 29.8867 66.6381 31.3166 68.3101C33.1901 70.4884 35.2479 72.5012 37.4673 74.326C37.5595 74.4029 37.6748 74.4467 37.7948 74.4504H37.8668C37.9372 74.4439 38.0055 74.4234 38.068 74.3903C38.1304 74.3571 38.1856 74.3118 38.2303 74.2571L50.3122 59.6612C50.3573 59.6069 50.3911 59.5442 50.4119 59.4768C50.4327 59.4093 50.44 59.3384 50.4334 59.2682C50.4247 59.1284 50.3612 58.9978 50.2566 58.9047Z" fill="#EA5B0D"/>
<path d="M27.2882 6.54984C32.8428 6.54984 37.0229 7.7026 39.8286 10.0081C42.6343 12.3136 44.0382 15.7926 44.0404 20.4451C44.065 21.7434 43.932 23.0398 43.6441 24.306C43.4382 25.1939 43.1453 26.0595 42.7696 26.8899C42.4631 27.6188 42.0491 28.2977 41.5415 28.9039C42.6772 29.6694 43.674 30.623 44.4891 31.7236C45.3454 32.9314 46.0514 34.2389 46.5917 35.6174C47.2921 37.4631 47.6646 39.417 47.6921 41.3909C47.81 44.5217 47.452 47.1055 46.6179 49.1425C46.0566 50.5479 45.2064 51.8199 44.1223 52.8759L44.2369 53.0003C46.0745 55.135 48.0929 57.1072 50.2697 58.895C50.3239 58.9399 50.3686 58.9952 50.4012 59.0576C50.4338 59.12 50.4537 59.1884 50.4596 59.2585C50.4662 59.3288 50.4589 59.3996 50.4381 59.467C50.4173 59.5345 50.3835 59.5972 50.3384 59.6515L38.2435 74.2442C38.1987 74.2989 38.1435 74.3441 38.0811 74.3773C38.0187 74.4104 37.9503 74.4308 37.8799 74.4374H37.8275C37.7075 74.4337 37.5922 74.3899 37.5 74.313C35.2699 72.4938 33.2011 70.4854 31.3166 68.3102C29.8837 66.6285 28.3115 65.0708 26.6168 63.6533C23.9051 61.4166 20.8722 59.6006 17.6201 58.2662C17.5394 58.2364 17.467 58.1876 17.4091 58.124C17.3512 58.0604 17.3094 57.9838 17.2872 57.9007C17.2651 57.8176 17.2632 57.7304 17.2818 57.6464C17.3004 57.5624 17.3389 57.484 17.3941 57.418L18.1965 56.4356C17.774 56.3766 17.3581 56.3111 16.952 56.2456L16.7882 56.2195L11.679 62.2845C11.679 62.35 11.679 62.4187 11.679 62.4875C11.6798 62.9846 11.5365 63.4712 11.2666 63.8887C10.9967 64.3062 10.6117 64.6366 10.1581 64.84C9.70448 65.0434 9.20166 65.1111 8.71039 65.0349C8.21911 64.9587 7.7604 64.742 7.38967 64.4108C7.01894 64.0796 6.75206 63.6481 6.62126 63.1685C6.49047 62.6889 6.50135 62.1817 6.6526 61.7082C6.80385 61.2346 7.089 60.815 7.4736 60.5C7.85819 60.185 8.32578 59.9881 8.81987 59.9331L12.6485 55.4171C11.6266 55.1813 10.8308 54.9783 10.2707 54.8145V44.7477C11.9299 45.2194 13.6136 45.5998 15.3144 45.8873C16.726 46.1296 18.3275 46.3491 20.1124 46.5423L26.2959 39.1968C26.4516 39.0098 26.643 38.8555 26.8589 38.7431C27.0748 38.6307 27.3109 38.5623 27.5535 38.5419H27.7074C28.1437 38.539 28.5665 38.6923 28.8996 38.9741C29.0852 39.1303 29.2383 39.3217 29.35 39.5372C29.4616 39.7526 29.5298 39.9879 29.5504 40.2297C29.5711 40.4715 29.544 40.715 29.4705 40.9463C29.397 41.1775 29.2787 41.3921 29.1223 41.5776L24.6485 46.8927C25.1201 46.9091 25.595 46.9254 26.0797 46.932L29.4956 42.8122C29.5457 42.7511 29.6087 42.7018 29.68 42.6679C29.7513 42.6339 29.8293 42.6161 29.9083 42.6157C29.972 42.6149 30.0353 42.626 30.095 42.6484C32.237 43.5079 34.2849 44.5856 36.2063 45.8644C36.4936 45.7382 36.7735 45.5961 37.0448 45.4386C37.7385 45.0334 38.3372 44.484 38.8002 43.8274C39.2785 43.098 39.5439 42.2497 39.5666 41.3778C39.6845 39.3627 39.2314 37.9305 38.2074 37.0812C37.1834 36.2319 35.6627 35.8062 33.6452 35.804H17.5087V26.14H30.8843C32.3734 26.14 33.5862 25.8037 34.5229 25.1313C35.4596 24.4589 35.8832 23.2057 35.7937 21.3718C35.7347 20.2551 35.4236 19.3905 34.8537 18.788C34.2659 18.1749 33.5455 17.7044 32.7478 17.4125C31.8811 17.0912 30.9718 16.8992 30.0491 16.8427C29.0862 16.774 28.1921 16.7412 27.3766 16.7412C25.3477 16.7364 23.3198 16.837 21.3013 17.0425C19.3843 17.2411 17.6736 17.4649 16.1692 17.7138C14.6648 17.9627 13.4083 18.1974 12.3996 18.4179C11.3908 18.6362 10.7358 18.7934 10.4345 18.8895V8.81936C11.1059 8.64252 12.0196 8.42638 13.1758 8.16439C14.3319 7.90241 15.6518 7.67317 17.1452 7.42755C18.6387 7.18194 20.2434 6.96901 21.9694 6.7889C23.7322 6.60892 25.5031 6.51935 27.2751 6.52042L27.2882 6.54984ZM27.2751 -0.0292732C25.2777 -0.0310803 23.2816 0.0705537 21.2948 0.275265C19.4541 0.465206 17.6921 0.697752 16.0808 0.963014C14.4694 1.22828 13.071 1.49024 11.8231 1.75878C10.5753 2.02732 9.55678 2.26308 8.7642 2.47267L3.89738 3.79572V27.7545L10.9585 25.5964V38.1292L3.72052 36.0398V55.1519C2.56964 55.9972 1.63325 57.1008 0.986684 58.3739C0.340117 59.6471 0.00142003 61.0542 -0.00214592 62.4821C-0.00571188 63.91 0.325954 65.3188 0.966154 66.5952C1.60635 67.8716 2.53722 68.9799 3.68387 69.8309C4.83052 70.682 6.16093 71.2521 7.56808 71.4953C8.97523 71.7385 10.4198 71.6481 11.7857 71.2313C13.1515 70.8145 14.4004 70.0829 15.432 69.0955C16.4635 68.1081 17.2489 66.8924 17.7249 65.5462C19.3964 66.4405 20.9761 67.4967 22.441 68.6998C23.8807 69.9053 25.2142 71.2322 26.4269 72.6657C28.5246 75.0928 30.8255 77.3366 33.3046 79.3726C34.5746 80.4277 36.173 81.0068 37.8242 81.01C38.0404 81.01 38.2598 81.01 38.4793 80.9805C40.3561 80.8008 42.0856 79.886 43.2904 78.436L55.3788 63.8498C55.9763 63.1339 56.4253 62.3063 56.6997 61.4152C56.9741 60.524 57.0684 59.5871 56.9771 58.6592C56.7969 56.7871 55.8833 55.0623 54.4356 53.8615C53.6823 53.2393 53.0339 52.6695 52.4705 52.1357C52.5426 51.972 52.6146 51.8082 52.6834 51.6314C53.8854 48.7004 54.3963 45.2716 54.2424 41.1519C54.1864 38.4089 53.651 35.6969 52.6605 33.1384C51.9174 31.2606 50.945 29.4819 49.7653 27.8429L49.7456 27.8135L49.726 27.7872C49.667 27.7086 49.6081 27.6301 49.5458 27.5547C49.7118 27.0373 49.869 26.486 50.0175 25.9009C50.4364 24.1155 50.6344 22.2853 50.607 20.4516C50.607 12.1237 47.0044 7.42753 44.0044 4.95175C40.0055 1.67691 34.3886 0.00670532 27.3013 0.00670532L27.2751 -0.0292732Z" fill="white"/>
<path d="M28.8766 41.5903C29.0331 41.4048 29.1514 41.1903 29.2249 40.959C29.2983 40.7278 29.3255 40.4843 29.3048 40.2425C29.2841 40.0007 29.216 39.7653 29.1043 39.5499C28.9926 39.3344 28.8396 39.1431 28.6539 38.9869C28.2785 38.6726 27.794 38.5197 27.3062 38.5614C26.8183 38.6032 26.3669 38.8361 26.0502 39.2095L8.59061 59.9459C8.09754 60.0015 7.6311 60.1986 7.24757 60.5134C6.86404 60.8283 6.57982 61.2473 6.42919 61.72C6.27856 62.1928 6.26797 62.6991 6.39869 63.1777C6.5294 63.6563 6.79585 64.0869 7.16587 64.4174C7.53589 64.748 7.99368 64.9645 8.484 65.0407C8.97432 65.1169 9.47621 65.0496 9.92912 64.8469C10.382 64.6442 10.7666 64.3148 11.0364 63.8984C11.3063 63.482 11.4498 62.9964 11.4498 62.5003C11.4498 62.4315 11.4498 62.3627 11.4498 62.2972L28.8766 41.5903Z" fill="white"/>
<path d="M27.4618 38.5546C27.898 38.5518 28.3209 38.7052 28.6539 38.9869C28.8396 39.1432 28.9926 39.3345 29.1043 39.55C29.216 39.7654 29.2841 40.0008 29.3048 40.2426C29.3255 40.4844 29.2983 40.7278 29.2249 40.9591C29.1514 41.1904 29.0331 41.4049 28.8766 41.5904L11.44 62.2973C11.44 62.3628 11.44 62.4316 11.44 62.5003C11.4407 62.9974 11.2975 63.4841 11.0276 63.9016C10.7577 64.3191 10.3727 64.6495 9.91903 64.8529C9.4654 65.0563 8.96258 65.124 8.4713 65.0478C7.98003 64.9716 7.52132 64.7549 7.1506 64.4237C6.77987 64.0925 6.51298 63.661 6.38218 63.1814C6.25139 62.7018 6.26228 62.1946 6.41353 61.7211C6.56478 61.2475 6.84993 60.8279 7.23452 60.5129C7.61912 60.1979 8.0867 60.001 8.58079 59.9459L26.0404 39.2096C26.1962 39.0226 26.3876 38.8684 26.6035 38.756C26.8194 38.6435 27.0555 38.5751 27.298 38.5546H27.452H27.4618ZM27.452 35.9348C27.3308 35.9348 27.2096 35.9348 27.0917 35.9348H27.0721C26.4876 35.9826 25.9184 36.1462 25.3977 36.4161C24.8771 36.6859 24.4153 37.0567 24.0393 37.5067L7.12009 57.5946C6.25816 57.9037 5.49331 58.4352 4.90317 59.1353C4.31302 59.8354 3.91857 60.6791 3.75984 61.5808C3.6011 62.4826 3.68374 63.4102 3.99935 64.2697C4.31497 65.1292 4.85233 65.8899 5.55693 66.4747C6.26152 67.0595 7.10827 67.4475 8.01126 67.5994C8.91425 67.7512 9.84135 67.6616 10.6985 67.3395C11.5556 67.0173 12.3123 66.4742 12.8918 65.7653C13.4712 65.0563 13.8528 64.2067 13.9978 63.3027L30.8745 43.2606C31.6207 42.3759 31.9942 41.2359 31.9159 40.0812C31.8377 38.9264 31.314 37.8472 30.4552 37.0712L30.4356 37.0515L30.3373 36.9664C29.5293 36.2899 28.5091 35.919 27.4552 35.9185L27.452 35.9348Z" fill="#EA5B0D"/>
<path d="M50.0109 58.9046C47.8342 57.1168 45.8158 55.1446 43.9782 53.0099C42.514 51.2848 40.908 49.6855 39.1769 48.2285C36.377 45.9081 33.2379 44.0305 29.869 42.6613C29.764 42.6229 29.6496 42.618 29.5416 42.6473C29.4337 42.6767 29.3375 42.7388 29.2664 42.8251L17.1714 57.4178C17.117 57.4841 17.0791 57.5624 17.0609 57.6462C17.0427 57.73 17.0447 57.8169 17.0668 57.8998C17.0889 57.9827 17.1304 58.0591 17.1879 58.1228C17.2454 58.1865 17.3172 58.2356 17.3974 58.266C20.6495 59.6003 23.6824 61.4164 26.3941 63.6531C28.0832 65.0712 29.6498 66.629 31.0775 68.3099C32.951 70.4882 35.0088 72.501 37.2282 74.3258C37.3204 74.4028 37.4357 74.4465 37.5557 74.4502H37.6081C37.6785 74.4437 37.7468 74.4233 37.8092 74.3901C37.8716 74.357 37.9268 74.3117 37.9716 74.257L50.0666 59.6644C50.1123 59.6104 50.1465 59.5478 50.1673 59.4802C50.1882 59.4127 50.1951 59.3416 50.1878 59.2713C50.1839 59.2015 50.1663 59.1333 50.1359 59.0703C50.1056 59.0074 50.0631 58.951 50.0109 58.9046Z" fill="white"/>
<path d="M29.679 42.6287C29.7427 42.6284 29.806 42.6394 29.8657 42.6614C33.2346 44.0306 36.3737 45.9081 39.1736 48.2286C40.91 49.6817 42.5215 51.2778 43.9913 53.0001C45.8289 55.1348 47.8473 57.107 50.024 58.8948C50.0782 58.9398 50.1229 58.995 50.1556 59.0574C50.1882 59.1198 50.208 59.1882 50.214 59.2583C50.2213 59.3286 50.2144 59.3996 50.1936 59.4672C50.1727 59.5347 50.1385 59.5974 50.0928 59.6513L37.9978 74.244C37.953 74.2987 37.8978 74.3439 37.8354 74.3771C37.773 74.4102 37.7046 74.4307 37.6343 74.4372H37.5819C37.4619 74.4335 37.3466 74.3897 37.2544 74.3128C35.0265 72.4933 32.9599 70.4849 31.0775 68.31C29.6446 66.6284 28.0725 65.0706 26.3777 63.6532C23.666 61.4164 20.6332 59.6004 17.381 58.2661C17.3008 58.2356 17.229 58.1865 17.1715 58.1229C17.114 58.0592 17.0725 57.9828 17.0505 57.8999C17.0284 57.817 17.0263 57.7301 17.0445 57.6463C17.0627 57.5624 17.1006 57.4841 17.155 57.4178L29.25 42.8251C29.3005 42.7636 29.3639 42.7141 29.4359 42.6801C29.5078 42.6461 29.5864 42.6286 29.6659 42.6287H29.679ZM29.6659 40.0088C29.2011 40.008 28.7419 40.1101 28.3212 40.3077C27.9005 40.5053 27.5287 40.7935 27.2325 41.1517L15.1376 55.7476C14.8164 56.1359 14.5928 56.5954 14.4853 57.0877C14.3778 57.58 14.3896 58.0909 14.5198 58.5777C14.6499 59.0645 14.8945 59.5132 15.2333 59.8862C15.5721 60.2592 15.9952 60.5459 16.4673 60.7222C19.4416 61.9571 22.2171 63.6245 24.7042 65.6704C26.2985 67.0019 27.7756 68.4679 29.119 70.0522C31.0804 72.3293 33.2335 74.434 35.5546 76.3432C36.1209 76.8125 36.8332 77.0696 37.5688 77.0702C37.667 77.0702 37.7653 77.0702 37.8668 77.0538C38.7009 76.9743 39.4697 76.5681 40.0055 75.924L52.0972 61.3313C52.3633 61.0123 52.5635 60.6438 52.686 60.2469C52.8086 59.85 52.8511 59.4327 52.8111 59.0192C52.7303 58.1858 52.3229 57.4182 51.6779 56.8841C49.6048 55.1797 47.6838 53.2983 45.9367 51.2611C44.379 49.438 42.671 47.7488 40.8308 46.2113C37.8084 43.6953 34.4101 41.6686 30.7598 40.2052C30.41 40.0743 30.0394 40.0078 29.6659 40.0088Z" fill="#EA5B0D"/>
<path d="M47.4334 41.3911C47.5513 44.5218 47.1932 47.1056 46.3592 49.1426C45.5899 51.0993 44.2547 52.7822 42.524 53.9763C40.7991 55.1618 38.643 55.9903 36.0557 56.4619C33.0837 56.9646 30.073 57.2035 27.059 57.1758C25.2162 57.1758 23.4105 57.0863 21.6419 56.9072C19.8734 56.7282 18.2358 56.5099 16.7293 56.2523C15.2249 56.0077 13.8876 55.7502 12.7172 55.4794C11.5469 55.2087 10.655 54.9849 10.0415 54.8081V44.7412C11.7006 45.2129 13.3844 45.5934 15.0852 45.8809C16.6638 46.1494 18.4771 46.3961 20.5251 46.621C22.725 46.8494 24.9357 46.9587 27.1474 46.9485H29.25C30.1076 46.9475 30.9646 46.9027 31.8177 46.8142C32.6995 46.7253 33.5747 46.5798 34.4378 46.3786C35.2705 46.1881 36.069 45.8711 36.8057 45.4387C37.4995 45.0335 38.0981 44.4841 38.5611 43.8275C39.0394 43.0981 39.3048 42.2498 39.3275 41.3779C39.4454 39.3628 38.9924 37.9306 37.9683 37.0813C36.9443 36.232 35.4236 35.8063 33.4061 35.8041H17.2631V26.1401H30.6386C32.1277 26.1401 33.3406 25.8038 34.2773 25.1314C35.214 24.459 35.6386 23.2058 35.5513 21.3719C35.4924 20.2552 35.1779 19.3906 34.6081 18.7881C34.0202 18.175 33.2999 17.7045 32.5022 17.4127C31.6356 17.091 30.7262 16.899 29.8035 16.8428C28.8406 16.7741 27.9465 16.7413 27.131 16.7413C25.102 16.7365 23.0742 16.8371 21.0557 17.0426C19.1387 17.2412 17.4279 17.465 15.9236 17.7139C14.4192 17.9628 13.1627 18.1975 12.1539 18.418C11.1452 18.6363 10.4902 18.7935 10.1889 18.8896V8.81946C10.8603 8.64262 11.774 8.42648 12.9301 8.1645C14.0862 7.90251 15.4061 7.67327 16.8996 7.42766C18.393 7.18204 19.9978 6.96911 21.7238 6.789C23.4866 6.60902 25.2575 6.51945 27.0295 6.52052C32.5841 6.52052 36.7642 7.6732 39.5699 9.97869C42.3756 12.2842 43.7795 15.7632 43.7817 20.4157C43.8063 21.714 43.6732 23.0105 43.3854 24.2767C43.1795 25.1646 42.8866 26.0301 42.5109 26.8605C42.2044 27.5894 41.7904 28.2683 41.2828 28.8746C42.4185 29.64 43.4153 30.5936 44.2304 31.6942C45.0866 32.9026 45.7937 34.21 46.3362 35.588C47.0389 37.4432 47.4103 39.4074 47.4334 41.3911Z" fill="white"/>
<path d="M27.059 6.5497C32.6135 6.5497 36.7937 7.70246 39.5993 10.008C42.405 12.3134 43.809 15.7925 43.8111 20.4449C43.8358 21.7432 43.7027 23.0396 43.4149 24.3059C43.209 25.1938 42.9161 26.0593 42.5404 26.8898C42.2339 27.6187 41.8199 28.2975 41.3122 28.9038C42.448 29.6692 43.4448 30.6228 44.2598 31.7235C45.1161 32.9319 45.8231 34.2392 46.3657 35.6172C47.0639 37.4633 47.4341 39.4173 47.4596 41.3908C47.5775 44.5216 47.2194 47.1054 46.3854 49.1423C45.6162 51.0991 44.2809 52.782 42.5502 53.976C40.8253 55.1615 38.6692 55.9901 36.0819 56.4616C33.1013 56.9659 30.0818 57.2048 27.059 57.1755C25.2162 57.1755 23.4105 57.086 21.6419 56.907C19.8734 56.728 18.2358 56.5096 16.7293 56.252C15.2249 56.0075 13.8876 55.7499 12.7172 55.4792C11.5469 55.2085 10.655 54.9847 10.0415 54.8078V44.741C11.7006 45.2127 13.3844 45.5931 15.0852 45.8806C16.6638 46.1491 18.4771 46.3959 20.5251 46.6207C22.725 46.8492 24.9357 46.9585 27.1474 46.9482H29.25C30.1076 46.9473 30.9646 46.9025 31.8177 46.814C32.6995 46.7251 33.5747 46.5796 34.4378 46.3784C35.2705 46.1879 36.069 45.8709 36.8057 45.4385C37.4995 45.0333 38.0981 44.4838 38.5611 43.8273C39.0394 43.0979 39.3048 42.2496 39.3275 41.3777C39.4454 39.3626 38.9924 37.9303 37.9683 37.0811C36.9443 36.2318 35.4236 35.8061 33.4061 35.8039H17.2631V26.1398H30.6386C32.1277 26.1398 33.3406 25.8036 34.2773 25.1312C35.214 24.4587 35.6386 23.2056 35.5513 21.3716C35.4924 20.2549 35.1779 19.3904 34.6081 18.7878C34.0202 18.1747 33.2999 17.7043 32.5022 17.4124C31.6356 17.0907 30.7262 16.8987 29.8035 16.8426C28.8406 16.7738 27.9465 16.741 27.131 16.741C25.102 16.7363 23.0742 16.8368 21.0557 17.0423C19.1387 17.241 17.4279 17.4648 15.9236 17.7137C14.4192 17.9626 13.1627 18.1972 12.1539 18.4177C11.1452 18.6361 10.4902 18.7933 10.1889 18.8894V8.81922C10.8603 8.64238 11.774 8.42624 12.9301 8.16425C14.0862 7.90226 15.4061 7.67302 16.8996 7.42741C18.393 7.1818 19.9978 6.96887 21.7238 6.78875C23.4866 6.60878 25.2575 6.51921 27.0295 6.52027L27.059 6.5497ZM27.0295 3.9004C25.17 3.89947 23.3117 3.99342 21.4618 4.18199C19.6998 4.36538 18.0262 4.58807 16.4836 4.83696C14.941 5.08585 13.5917 5.34458 12.3963 5.60002C11.2009 5.85546 10.2478 6.07487 9.52729 6.25499L7.56223 6.77244V22.3967L10.9487 21.3618C11.0469 21.3323 11.4138 21.2309 12.7042 20.9427C13.6638 20.7298 14.8854 20.5039 16.3297 20.2681C17.774 20.0323 19.4705 19.8096 21.3111 19.6131C23.2381 19.4153 25.1742 19.3191 27.1114 19.3249C27.8581 19.3249 28.6965 19.3576 29.6037 19.4198C30.275 19.4609 30.9369 19.5988 31.5688 19.8292C31.9927 19.9797 32.3761 20.2263 32.6889 20.5497C32.853 20.829 32.9337 21.1495 32.9214 21.4732C32.9673 22.4556 32.7937 22.901 32.7282 22.9764C32.2598 23.3039 31.5491 23.484 30.6256 23.484H14.643V38.3877H33.3996C34.7424 38.3877 35.7675 38.6268 36.2882 39.0624C36.6157 39.3276 36.7664 40.1234 36.7042 41.191C36.6991 41.577 36.5965 41.9556 36.4061 42.2914C36.1581 42.6428 35.8361 42.9356 35.4629 43.1494C34.9551 43.4528 34.4024 43.6739 33.8253 43.8043C33.07 43.9798 32.3043 44.1068 31.5328 44.1843C30.7711 44.2634 30.0059 44.3038 29.2402 44.3054H27.1376C25.0207 44.3113 22.9052 44.2019 20.8002 43.9779C18.8352 43.7618 17.0437 43.5227 15.5175 43.264C13.914 42.9912 12.3265 42.6315 10.762 42.1866L7.41158 41.2041V56.7204L9.29803 57.2705C9.95305 57.467 10.8897 57.6995 12.1212 57.9811C13.3526 58.2628 14.7413 58.5313 16.3002 58.7867C17.8592 59.0422 19.5393 59.2583 21.3668 59.4417C23.1943 59.6251 25.1332 59.7234 27.0491 59.7234C30.2254 59.7545 33.3983 59.5046 36.5306 58.9767C39.4782 58.4396 41.9902 57.4637 44.0142 56.0719C46.1666 54.59 47.8299 52.5018 48.7926 50.0724C49.7751 47.7014 50.1878 44.7246 50.06 41.2303C50.0206 38.9487 49.5839 36.6913 48.7697 34.5594C48.1452 32.9828 47.3326 31.4874 46.3494 30.1057C45.8593 29.4832 45.3228 28.8986 44.7445 28.3569C44.8002 28.239 44.8559 28.1178 44.9083 27.9934C45.3524 27.0177 45.7001 26.001 45.9465 24.9577C46.2864 23.4837 46.4448 21.9736 46.4181 20.4612C46.4181 15.0086 44.6791 10.8169 41.25 8.00051C37.9749 5.30859 33.1965 3.94621 27.0459 3.94621L27.0295 3.9004Z" fill="#EA5B0D"/>
<path d="M28.4672 39.3768C28.3357 39.2658 28.1835 39.1817 28.0195 39.1295C27.8554 39.0773 27.6826 39.058 27.5111 39.0726C27.3395 39.0872 27.1725 39.1354 27.0196 39.2146C26.8668 39.2938 26.731 39.4023 26.6201 39.534L9.01309 60.4505C8.61184 60.455 8.2209 60.5781 7.88946 60.8043C7.55803 61.0305 7.30092 61.3496 7.15049 61.7216C7.00007 62.0936 6.96304 62.5018 7.04409 62.8948C7.12514 63.2877 7.32063 63.6479 7.60596 63.9301C7.89129 64.2122 8.2537 64.4037 8.64759 64.4803C9.04148 64.5569 9.44923 64.5153 9.81954 64.3607C10.1898 64.2061 10.5061 63.9455 10.7286 63.6115C10.9511 63.2776 11.0698 62.8854 11.0699 62.4841C11.0689 62.3601 11.0579 62.2364 11.0371 62.1141L28.6245 41.2304C28.7365 41.0987 28.8214 40.9461 28.8742 40.7814C28.927 40.6167 28.9466 40.4432 28.932 40.2708C28.9174 40.0985 28.8688 39.9308 28.789 39.7774C28.7093 39.6239 28.5999 39.4878 28.4672 39.3768Z" fill="#0E4D9F"/>
<path d="M9.04585 65.0351C8.38924 65.0347 7.75765 64.7831 7.28063 64.3319C6.80361 63.8808 6.51731 63.2642 6.48044 62.6087C6.44358 61.9532 6.65895 61.3084 7.08238 60.8066C7.50581 60.3048 8.10521 59.984 8.75764 59.91L26.2205 39.1769C26.3756 38.9899 26.5664 38.8356 26.7817 38.7231C26.9971 38.6107 27.2328 38.5423 27.4749 38.522C27.9633 38.4799 28.4484 38.633 28.8242 38.9477C29.1982 39.2633 29.4317 39.7143 29.4735 40.2018C29.5152 40.6893 29.3618 41.1734 29.0469 41.5479L11.6103 62.2548C11.6103 62.3235 11.6103 62.389 11.6103 62.4578C11.6111 63.1393 11.3417 63.7935 10.8609 64.2766C10.3802 64.7598 9.72744 65.0325 9.04585 65.0351ZM27.6354 39.5929H27.5666C27.4656 39.6011 27.3672 39.6293 27.2772 39.676C27.1873 39.7227 27.1075 39.7868 27.0426 39.8646L9.42249 60.7778L9.01638 60.9678C8.72122 60.9717 8.4338 61.0627 8.19026 61.2295C7.94673 61.3962 7.75795 61.6314 7.64767 61.9051C7.5374 62.1789 7.51054 62.4792 7.57049 62.7682C7.63044 63.0572 7.77453 63.322 7.98461 63.5294C8.19469 63.7367 8.4614 63.8773 8.75118 63.9334C9.04097 63.9896 9.3409 63.9589 9.61325 63.845C9.8856 63.7312 10.1182 63.5394 10.2818 63.2938C10.4454 63.0481 10.5327 62.7595 10.5328 62.4643C10.5332 62.3731 10.5244 62.2821 10.5065 62.1926L10.6245 61.7504L28.2151 40.8635C28.2805 40.786 28.3298 40.6963 28.3602 40.5996C28.3905 40.5029 28.4013 40.4011 28.3919 40.3002C28.3848 40.1989 28.357 40.1002 28.3102 40.0101C28.2635 39.9199 28.1988 39.8404 28.1201 39.7763C27.9809 39.6623 27.8054 39.6019 27.6255 39.606L27.6354 39.5929Z" fill="white"/>
<path d="M50.5153 60.2965C50.7558 60.0082 50.8743 59.6374 50.8455 59.2631C50.8168 58.8888 50.6431 58.5404 50.3614 58.2923C44.9542 53.5503 44.0961 51.1269 39.2882 47.0923C36.4714 44.7458 33.349 42.7925 30.0066 41.286C29.7223 41.1589 29.4043 41.1282 29.101 41.1985C28.7977 41.2689 28.5257 41.4365 28.3264 41.6757L23.869 46.9842L23.3941 47.5476L16.3821 55.8951C16.2413 56.0632 16.1407 56.2611 16.0882 56.474C16.0356 56.6868 16.0325 56.9089 16.0789 57.1232C16.1254 57.3375 16.2202 57.5382 16.3562 57.7102C16.4922 57.8822 16.6657 58.0209 16.8635 58.1155C19.9334 59.578 22.8083 61.4185 25.4214 63.5943C30.2129 67.6191 31.0808 70.0391 36.4454 74.7516C36.5894 74.8777 36.757 74.9739 36.9386 75.0345C37.1201 75.0951 37.3119 75.119 37.5028 75.1046C37.6937 75.0903 37.8798 75.0381 38.0502 74.951C38.2207 74.864 38.3721 74.7439 38.4956 74.5977L50.5153 60.2965Z" fill="#0E4D9F"/>
<path d="M37.4017 75.6458C36.9196 75.6483 36.4533 75.4735 36.0917 75.1546C34.0377 73.3431 32.1188 71.3839 30.3504 69.2926C28.7514 67.3848 26.9929 65.6166 25.0939 64.0071C22.5155 61.8582 19.6765 60.0427 16.6441 58.6036C16.3711 58.4746 16.1315 58.2843 15.9439 58.0478C15.7563 57.8112 15.6258 57.5345 15.5624 57.2393C15.499 56.9441 15.5046 56.6382 15.5786 56.3455C15.6526 56.0528 15.793 55.7811 15.9891 55.5514L27.9301 41.3288C28.2047 40.9999 28.5791 40.7698 28.9966 40.6734C29.414 40.577 29.8514 40.6197 30.2424 40.7949C33.6315 42.3243 36.797 44.3073 39.6517 46.6897C41.597 48.3367 43.3983 50.1466 45.036 52.0997C46.7887 54.1699 48.6924 56.1073 50.7314 57.8962C51.1178 58.2376 51.356 58.7161 51.3957 59.2302C51.4355 59.7442 51.2736 60.2536 50.9443 60.6504L38.9345 74.9516C38.7656 75.1531 38.558 75.3186 38.324 75.4384C38.09 75.5582 37.8343 75.6299 37.572 75.6491C37.5153 75.6519 37.4584 75.6508 37.4017 75.6458ZM29.4269 41.6988C29.2948 41.7002 29.1647 41.7302 29.0454 41.7867C28.9261 41.8433 28.8205 41.925 28.7358 42.0263L16.7948 56.2489C16.7056 56.3537 16.642 56.4778 16.6091 56.6113C16.5761 56.7449 16.5746 56.8843 16.6048 57.0185C16.6322 57.1526 16.6907 57.2784 16.7754 57.3858C16.8601 57.4933 16.9688 57.5795 17.0928 57.6374C20.21 59.1198 23.1273 60.9904 25.7751 63.2047C27.7196 64.8526 29.5208 66.6624 31.1594 68.6147C32.9001 70.6675 34.7884 72.5906 36.809 74.3686C36.8989 74.4479 37.0038 74.5084 37.1175 74.5466C37.2311 74.5848 37.3513 74.5999 37.4708 74.5911C37.5904 74.5822 37.707 74.5496 37.8138 74.4951C37.9206 74.4406 38.0155 74.3653 38.0928 74.2737L50.1026 59.9724C50.2528 59.792 50.3269 59.5601 50.3091 59.326C50.2914 59.0919 50.1833 58.8739 50.0076 58.7182C47.9331 56.8983 45.9956 54.928 44.2107 52.8234C42.6064 50.9142 40.8447 49.1429 38.9443 47.528C36.1619 45.2121 33.0767 43.2863 29.774 41.8036C29.667 41.7444 29.5487 41.7087 29.4269 41.6988Z" fill="white"/>
<path d="M31.2052 49.1458L28.1987 52.7219C26.825 51.9981 25.3918 51.3933 23.9148 50.9141L27.1015 47.1187C28.5146 47.6989 29.8858 48.3762 31.2052 49.1458Z" fill="white"/>
<path d="M34.4902 51.3102C33.4426 50.5241 32.3489 49.8012 31.2151 49.1455L34.1397 45.6611C35.2663 46.3189 36.3543 47.0405 37.3985 47.8225L34.4902 51.3102Z" fill="white"/>
<path d="M34.1299 45.661L31.2052 49.1454C29.8858 48.3758 28.5146 47.6985 27.1015 47.1183L30.0491 43.6143C31.4598 44.1911 32.8241 44.8753 34.1299 45.661Z" fill="#0E4D9F"/>
<path d="M31.5819 54.8077C30.5068 54.0304 29.376 53.3331 28.1987 52.7216L31.2052 49.1455C32.3391 49.8012 33.4327 50.5241 34.4803 51.3102L31.5819 54.8077Z" fill="#0E4D9F"/>
<path d="M25.2806 56.193L22.464 59.5464C21.1568 58.762 19.7914 58.0788 18.3799 57.5029L20.9771 54.4082C22.4617 54.8743 23.9018 55.4716 25.2806 56.193Z" fill="white"/>
<path d="M28.1987 52.7219L25.2806 56.1933C23.902 55.4708 22.4618 54.8724 20.9771 54.4052L23.9247 50.9077C25.3985 51.3895 26.8284 51.9964 28.1987 52.7219Z" fill="#0E4D9F"/>
<path d="M40.2085 56.7268C39.3668 55.7771 38.5284 54.8471 37.4869 53.8549L40.3952 50.354C41.4661 51.3692 42.2915 52.2862 43.1201 53.226L40.2085 56.7268Z" fill="white"/>
<path d="M40.3952 50.3542L37.4869 53.8551C36.9891 53.3737 36.4389 52.8726 35.8166 52.3584C35.3777 51.9884 34.9323 51.6413 34.5065 51.3105L37.405 47.8228C37.8799 48.1764 38.3613 48.5563 38.8428 48.9591C39.4094 49.4503 39.9236 49.9121 40.3952 50.3542Z" fill="#0E4D9F"/>
<path d="M49.2249 59.3108L46.2969 62.7952C44.905 61.6228 43.8177 60.5946 42.8908 59.6481L45.7926 56.1538C46.7096 57.0871 47.7969 58.1122 49.2249 59.3108Z" fill="white"/>
<path d="M42.8908 59.6481C41.8625 58.5969 41.0339 57.6504 40.2085 56.7269L43.1201 53.2261C43.929 54.1463 44.7577 55.0862 45.7926 56.1538L42.8908 59.6481Z" fill="#0E4D9F"/>
<path d="M37.1725 60.3883C36.3604 59.3303 35.4854 58.322 34.5524 57.3689L37.4705 53.855C38.512 54.8374 39.3504 55.7772 40.1921 56.7269L37.1725 60.3883Z" fill="#0E4D9F"/>
<path d="M28.798 64.3145C28.31 63.8527 27.7729 63.3681 27.1605 62.8539C26.7063 62.4697 26.2522 62.1083 25.798 61.7699L28.6867 58.292C29.1234 58.6064 29.56 58.9437 29.9967 59.3039C30.6321 59.8345 31.1856 60.3519 31.6834 60.8595L28.798 64.3145Z" fill="white"/>
<path d="M25.2806 56.1929C26.4667 56.8042 27.6053 57.5037 28.6867 58.2855L25.798 61.7601C24.7287 60.9597 23.6157 60.2195 22.464 59.543L25.2806 56.1929Z" fill="#0E4D9F"/>
<path d="M34.5688 57.3686L31.6703 60.8595C31.1725 60.3519 30.619 59.8345 29.9836 59.304C29.5469 58.9437 29.1103 58.6064 28.6736 58.292L31.5688 54.8076C32.0109 55.1351 32.4531 55.4625 32.8788 55.8293C33.5273 56.3566 34.0742 56.8675 34.5688 57.3686Z" fill="#0E4D9F"/>
<path d="M34.1954 70.1176C33.1408 69.0468 32.3253 68.1135 31.5164 67.1965L34.2675 63.8823C35.0404 64.8648 35.8166 65.8734 36.809 66.9738L34.1954 70.1176Z" fill="white"/>
<path d="M31.6703 60.8599C32.5957 61.8146 33.463 62.8239 34.2675 63.8825L31.5164 67.1967C30.6845 66.2503 29.8624 65.33 28.798 64.3148L31.6703 60.8599Z" fill="#0E4D9F"/>
<path d="M43.0382 66.6725L40.1168 70.1505C38.9419 69.1671 37.8367 68.1035 36.809 66.9672L39.714 63.4697C40.7487 64.6109 41.8593 65.681 43.0382 66.6725Z" fill="white"/>
<path d="M37.1725 60.3882C37.9454 61.3706 38.7249 62.3793 39.714 63.4763L36.809 66.9739C35.8264 65.8735 35.0404 64.8649 34.2675 63.8824L37.1725 60.3882Z" fill="#0E4D9F"/>
<path d="M43.0382 66.6727C41.8593 65.6811 40.7487 64.6111 39.714 63.4699L42.8908 59.6416C43.8177 60.588 44.905 61.6065 46.2969 62.7887L43.0382 66.6727Z" fill="#0E4D9F"/>
<path d="M34.1954 70.1175L36.8155 66.9736C37.8432 68.1099 38.9485 69.1734 40.1234 70.1568L37.5655 73.2024C36.1703 72.0333 35.0961 71.0279 34.1954 70.1175Z" fill="#0E4D9F"/>
<path d="M34.5688 57.3685C34.0742 56.8675 33.5273 56.3565 32.9017 55.8293C32.4662 55.4658 32.024 55.1252 31.5917 54.8076L34.5 51.3101C34.9421 51.6375 35.3875 51.9879 35.81 52.358C36.4323 52.8787 36.9825 53.3732 37.4804 53.8546L34.5688 57.3685Z" fill="white"/>
<path d="M34.5721 57.4308L34.5393 57.398C34.0251 56.874 33.4814 56.373 32.8723 55.8621C32.4498 55.5084 32.0076 55.1646 31.5622 54.8404L31.5262 54.8142L31.5557 54.7814L34.4869 51.2544L34.5197 51.2773C34.9847 51.6245 35.4301 51.9781 35.8461 52.3253C36.4585 52.8394 37.0055 53.3307 37.5197 53.8252L37.5459 53.8514L37.5229 53.8808L34.5721 57.4308ZM31.6441 54.8109C32.083 55.1384 32.512 55.4659 32.928 55.813C33.524 56.3141 34.0611 56.7954 34.5655 57.3227L37.4312 53.871C36.9269 53.3863 36.3897 52.9049 35.7937 52.4039C35.3876 52.0764 34.952 51.7195 34.5 51.3789L31.6441 54.8109Z" fill="white"/>
<path d="M34.2642 63.8823C33.4597 62.8237 32.5924 61.8143 31.667 60.8596L34.5655 57.3687C35.4985 58.3218 36.3735 59.33 37.1856 60.3881L34.2642 63.8823Z" fill="white"/>
<path d="M34.2642 63.9477L34.2347 63.9051C33.4307 62.8492 32.5646 61.842 31.6408 60.889L31.6146 60.8628L34.5622 57.3096L34.595 57.3424C35.5282 58.2953 36.4031 59.3036 37.2151 60.3617L37.2347 60.388L37.2118 60.4141L34.2642 63.9477ZM31.726 60.8562C32.6301 61.7881 33.4787 62.7723 34.2675 63.8036L37.1201 60.3749C36.328 59.3444 35.4772 58.3603 34.5721 57.4275L31.726 60.8562Z" fill="white"/>
<path d="M28.6965 58.2922C27.6151 57.5104 26.4765 56.8109 25.2904 56.1996L28.2085 52.7217C29.3858 53.3332 30.5166 54.0305 31.5917 54.8078L28.6965 58.2922Z" fill="white"/>
<path d="M28.6965 58.3477L28.6638 58.328C27.5839 57.5473 26.4476 56.8478 25.2642 56.2354L25.2183 56.2125L28.1889 52.6724H28.2183C29.3982 53.2843 30.5313 53.9826 31.6081 54.7617L31.6441 54.7879L28.6965 58.3477ZM25.3461 56.1863C26.506 56.7873 27.6204 57.4724 28.6801 58.2363L31.5229 54.8141C30.4687 54.0552 29.361 53.3733 28.2085 52.7739L25.3461 56.1863Z" fill="white"/>
<path d="M39.714 63.4765C38.7314 62.3795 37.9454 61.3708 37.1725 60.3884L40.2085 56.7271C41.0339 57.6506 41.8625 58.597 42.8908 59.6483L39.714 63.4765Z" fill="white"/>
<path d="M39.7173 63.5384L39.6845 63.5025C38.8035 62.52 38.0895 61.6194 37.3919 60.7384L37.1135 60.3881L37.1332 60.3619L40.202 56.6646L40.5033 56.992C41.2402 57.8173 42 58.672 42.9138 59.6119L42.94 59.6381L42.917 59.6644L39.7173 63.5384ZM37.2249 60.3881L37.4607 60.6893C38.1452 61.5572 38.8494 62.4545 39.714 63.414L42.8352 59.6512C41.9312 58.7245 41.178 57.8762 40.4509 57.0575L40.2118 56.789L37.2249 60.3881Z" fill="white"/>
</g>
<defs>
<clipPath id="clip0">
<rect width="57" height="81" fill="white"/>
</clipPath>
</defs>
</svg>
