<svg width="75" height="81" viewBox="0 0 75 81" fill="none" xmlns="http://www.w3.org/2000/svg">
<path d="M17.673 77.5517C13.904 77.5471 10.2906 76.0514 7.62547 73.3925C4.96034 70.7336 3.46106 67.1286 3.45649 63.3683C3.45689 62.134 3.61959 60.9051 3.9404 59.713C4.71111 56.6486 6.48628 53.929 8.98384 51.9865C11.4814 50.044 14.558 48.9899 17.7249 48.9918H28.7511V23.7011H15.8757V11.404L41.8754 3.47266H49.2654V48.9918H56.3235C60.1196 48.9987 63.7576 50.5097 66.437 53.1926C69.1164 55.8754 70.6178 59.5104 70.6109 63.2977C70.604 67.0849 69.0894 70.7143 66.4003 73.3875C63.7112 76.0606 60.0678 77.5586 56.2717 77.5517H17.673Z" fill="#EA5B0D"/>
<path d="M45.8089 6.89684V52.4402H56.3235C59.1747 52.4484 61.9068 53.582 63.9229 55.5934C65.9391 57.6048 67.0753 60.3305 67.0836 63.1751C67.0749 66.0463 65.9374 68.7996 63.9157 70.8431C61.8939 72.8866 59.1493 74.0571 56.2717 74.1032H17.673C14.8218 74.095 12.0897 72.9614 10.0736 70.9499C8.05747 68.9385 6.92119 66.2128 6.91298 63.3682C6.91381 62.4273 7.03815 61.4906 7.28282 60.5819C7.87005 58.2607 9.21508 56.2005 11.1058 54.7264C12.9965 53.2522 15.3253 52.4478 17.7249 52.4402H32.2076V20.2526H19.3321V13.9386L42.3904 6.89684H45.8089ZM52.7218 0H41.3569L40.3683 0.303505L17.3101 7.3417L12.4192 8.8349V27.1494H25.2946V45.5433H17.7249C13.7928 45.5412 9.97254 46.8484 6.86948 49.2577C3.76641 51.667 1.5581 55.0407 0.594517 58.8439C0.200598 60.3199 0.000750067 61.8408 0 63.3682C0.00457551 68.043 1.86802 72.5252 5.18137 75.8308C8.49471 79.1364 12.9873 80.9955 17.673 81H56.2717C60.9845 81.0069 65.5071 79.1457 68.8444 75.8258C72.1818 72.5059 74.0605 67.9994 74.0674 63.2976C74.0743 58.5957 72.2087 54.0837 68.8811 50.7541C65.5534 47.4245 61.0364 45.5502 56.3235 45.5433H52.7218V0Z" fill="white"/>
<path d="M17.3343 75.6341C14.023 75.6314 10.8482 74.3178 8.50677 71.9819C6.16536 69.6459 4.84875 66.4785 4.846 63.1749C4.84966 59.8717 6.16656 56.7048 8.50778 54.3691C10.849 52.0333 14.0233 50.7195 17.3343 50.7158H55.9329C59.245 50.7158 62.4215 52.0285 64.7635 54.365C67.1055 56.7016 68.4212 59.8706 68.4212 63.1749C68.4212 66.4793 67.1055 69.6484 64.7635 71.9849C62.4215 74.3215 59.245 75.6341 55.9329 75.6341H17.3343Z" fill="white"/>
<path d="M55.9329 52.4401C58.7867 52.4401 61.5235 53.5711 63.5414 55.5843C65.5593 57.5975 66.693 60.3279 66.693 63.175C66.693 66.0221 65.5593 68.7527 63.5414 70.7659C61.5235 72.779 58.7867 73.91 55.9329 73.91H17.3343C14.4831 73.9018 11.751 72.7682 9.73486 70.7568C7.71873 68.7453 6.58245 66.0196 6.57424 63.175C6.58245 60.3305 7.71873 57.6048 9.73486 55.5934C11.751 53.582 14.4831 52.4483 17.3343 52.4401H55.9329ZM55.9329 48.9917H17.3343C13.5652 48.9963 9.95186 50.492 7.28673 53.1509C4.6216 55.8098 3.12233 59.4148 3.11775 63.175C3.12233 66.9353 4.6216 70.5403 7.28673 73.1992C9.95186 75.8581 13.5652 77.3539 17.3343 77.3584H55.9329C59.7034 77.3584 63.3194 75.8641 65.9855 73.2042C68.6517 70.5443 70.1495 66.9367 70.1495 63.175C70.1495 59.4134 68.6517 55.8058 65.9855 53.1459C63.3194 50.486 59.7034 48.9917 55.9329 48.9917Z" fill="#EA5B0D"/>
<path d="M30.4344 61.8372V21.6286H17.559V12.9144L41.7959 5.51758H46.8043V61.8372H30.4344Z" fill="white"/>
<path d="M45.4183 6.89692V60.4578H31.817V20.2527H18.9416V13.9387L41.9998 6.89692H45.4183ZM48.1835 4.13818H41.5885L41.191 4.25891L18.1327 11.3006L16.1764 11.8971V23.0114H29.0518V63.2166H48.1835V4.13818Z" fill="#EA5B0D"/>
<path d="M17.2825 74.6721C14.2789 74.6684 11.3994 73.4762 9.27593 71.357C7.15242 69.2378 5.95828 66.3647 5.95554 63.3681C5.95919 60.3722 7.15374 57.5 9.27715 55.3815C11.4006 53.2631 14.2795 52.0713 17.2825 52.0676H55.8845C58.8548 52.1194 61.6859 53.3329 63.7681 55.4468C65.8503 57.5608 67.017 60.4061 67.017 63.3699C67.017 66.3337 65.8503 69.1789 63.7681 71.2928C61.6859 73.4068 58.8548 74.6203 55.8845 74.6721H17.2825Z" fill="#0E4D9F"/>
<path d="M55.8845 52.6333C58.7383 52.6333 61.4751 53.7643 63.493 55.7775C65.5109 57.7906 66.6446 60.5211 66.6446 63.3682C66.6446 66.2153 65.5109 68.9457 63.493 70.9589C61.4751 72.9721 58.7383 74.1032 55.8845 74.1032H17.2825C14.4312 74.095 11.6991 72.9613 9.68301 70.9499C7.66689 68.9385 6.53061 66.2128 6.5224 63.3682C6.53061 60.5236 7.66689 57.798 9.68301 55.7865C11.6991 53.7751 14.4312 52.6415 17.2825 52.6333H55.8845ZM55.8845 51.5022H17.2825C14.1291 51.5058 11.106 52.7572 8.87632 54.9817C6.6466 57.2062 5.39233 60.2222 5.38867 63.3682C5.39142 66.5147 6.64528 69.5317 8.8751 71.757C11.1049 73.9822 14.1285 75.2341 17.2825 75.2377H55.8845C59.0043 75.1847 61.9783 73.9109 64.1658 71.691C66.3532 69.4712 67.579 66.4829 67.579 63.37C67.579 60.257 66.3532 57.2686 64.1658 55.0488C61.9783 52.8289 59.0043 51.5553 55.8845 51.5022Z" fill="white"/>
<path d="M16.9956 69.9445C20.5806 69.9445 23.4869 67.045 23.4869 63.4683C23.4869 59.8917 20.5806 56.9922 16.9956 56.9922C13.4105 56.9922 10.5043 59.8917 10.5043 63.4683C10.5043 67.045 13.4105 69.9445 16.9956 69.9445Z" fill="white"/>
<path d="M36.5835 69.9445C40.1685 69.9445 43.0748 67.045 43.0748 63.4683C43.0748 59.8917 40.1685 56.9922 36.5835 56.9922C32.9985 56.9922 30.0922 59.8917 30.0922 63.4683C30.0922 67.045 32.9985 69.9445 36.5835 69.9445Z" fill="white"/>
<path d="M56.1714 69.272C55.0206 69.272 53.8956 68.9314 52.9388 68.2933C51.982 67.6553 51.2364 66.7485 50.7963 65.6877C50.3562 64.6268 50.2414 63.4594 50.4664 62.3334C50.6915 61.2075 51.2462 60.1734 52.0604 59.362C52.8747 58.5506 53.9119 57.9984 55.0408 57.7752C56.1697 57.5521 57.3396 57.668 58.4024 58.1083C59.4652 58.5486 60.3733 59.2936 61.0117 60.2489C61.6501 61.2042 61.9901 62.327 61.9887 63.4751C61.985 65.0126 61.3708 66.486 60.2804 67.5725C59.1901 68.659 57.7125 69.2701 56.1714 69.272Z" fill="#0E4D9F"/>
<path d="M56.1714 58.3371C57.1884 58.3371 58.1825 58.6378 59.0281 59.2013C59.8738 59.7649 60.533 60.5658 60.9225 61.503C61.312 62.4402 61.4143 63.4716 61.2164 64.4668C61.0185 65.4619 60.5293 66.3763 59.8107 67.0942C59.0921 67.8121 58.1763 68.3013 57.1791 68.5001C56.1818 68.6988 55.1479 68.5983 54.208 68.2109C53.268 67.8236 52.4643 67.167 51.8983 66.3241C51.3323 65.4812 51.0295 64.4897 51.0282 63.4752C51.0291 62.1146 51.5713 60.8099 52.5356 59.8478C53.5 58.8857 54.8076 58.3449 56.1714 58.344V58.3371ZM56.1714 56.999C54.8876 56.999 53.6325 57.3789 52.5651 58.0905C51.4976 58.8021 50.6656 59.8135 50.1743 60.9969C49.6829 62.1802 49.5544 63.4824 49.8049 64.7386C50.0553 65.9949 50.6736 67.1488 51.5814 68.0545C52.4892 68.9602 53.6459 69.577 54.905 69.8269C56.1642 70.0768 57.4694 69.9485 58.6555 69.4583C59.8417 68.9681 60.8555 68.1381 61.5687 67.0731C62.282 66.0081 62.6627 64.756 62.6627 63.4752C62.6627 61.7576 61.9788 60.1103 60.7615 58.8958C59.5441 57.6813 57.893 56.999 56.1714 56.999Z" fill="white"/>
</svg>
