<?xml version="1.0" encoding="UTF-8"?>
<svg width="997" height="205" fill="none" version="1.1" viewBox="0 0 997 205" xmlns="http://www.w3.org/2000/svg" xmlns:cc="http://creativecommons.org/ns#" xmlns:dc="http://purl.org/dc/elements/1.1/" xmlns:rdf="http://www.w3.org/1999/02/22-rdf-syntax-ns#">
 <metadata>
  <rdf:RDF>
   <cc:Work rdf:about="">
    <dc:format>image/svg+xml</dc:format>
    <dc:type rdf:resource="http://purl.org/dc/dcmitype/StillImage"/>
    <dc:title/>
   </cc:Work>
  </rdf:RDF>
 </metadata>
 <rect width="997" height="205" rx="100" fill="url(#paint0_linear)"/>
 <path d="m239.86 61.734h7.336l-11.648 34.266h-7.922l-11.625-34.266h7.336l6.445 20.391c0.36 1.203 0.727 2.609 1.102 4.219 0.39 1.594 0.633 2.703 0.726 3.328 0.172-1.438 0.758-3.953 1.758-7.547zm16.805 21.118c0 2.593 0.422 4.554 1.266 5.882 0.859 1.328 2.25 1.993 4.172 1.993 1.906 0 3.273-0.657 4.101-1.969 0.844-1.328 1.266-3.297 1.266-5.906 0-2.594-0.422-4.54-1.266-5.836-0.844-1.297-2.226-1.946-4.148-1.946-1.907 0-3.282 0.649-4.125 1.946-0.844 1.281-1.266 3.226-1.266 5.836zm18.117 0c0 4.265-1.125 7.601-3.375 10.007-2.25 2.407-5.383 3.61-9.398 3.61-2.516 0-4.735-0.547-6.656-1.641-1.922-1.109-3.399-2.695-4.43-4.758-1.031-2.062-1.547-4.468-1.547-7.218 0-4.282 1.117-7.61 3.352-9.985 2.234-2.375 5.375-3.562 9.421-3.562 2.516 0 4.735 0.547 6.657 1.64 1.922 1.094 3.398 2.664 4.429 4.711 1.032 2.047 1.547 4.446 1.547 7.196zm24.188 5.367c0 2.687-0.938 4.734-2.813 6.14-1.859 1.407-4.648 2.11-8.367 2.11-1.906 0-3.531-0.133-4.875-0.399-1.344-0.25-2.602-0.625-3.773-1.125v-5.906c1.328 0.625 2.82 1.149 4.476 1.57 1.672 0.422 3.141 0.633 4.406 0.633 2.594 0 3.891-0.75 3.891-2.25 0-0.562-0.172-1.015-0.516-1.359-0.343-0.36-0.937-0.758-1.781-1.195-0.844-0.454-1.969-0.977-3.375-1.571-2.015-0.844-3.5-1.625-4.453-2.344-0.937-0.718-1.625-1.539-2.062-2.461-0.422-0.937-0.633-2.085-0.633-3.445 0-2.328 0.898-4.125 2.695-5.39 1.813-1.282 4.375-1.922 7.688-1.922 3.156 0 6.226 0.687 9.211 2.062l-2.157 5.156c-1.312-0.562-2.539-1.023-3.679-1.382-1.141-0.36-2.305-0.539-3.493-0.539-2.109 0-3.164 0.57-3.164 1.71 0 0.641 0.336 1.196 1.008 1.665 0.688 0.468 2.18 1.164 4.477 2.085 2.047 0.829 3.547 1.602 4.5 2.321s1.656 1.547 2.109 2.484c0.453 0.938 0.68 2.055 0.68 3.352zm26.343 8.25c-3.078 0-5.5-1.196-7.265-3.586-1.75-2.391-2.625-5.703-2.625-9.938 0-4.297 0.89-7.64 2.672-10.031 1.797-2.406 4.265-3.609 7.406-3.609 3.297 0 5.812 1.281 7.547 3.843h0.234c-0.359-1.953-0.539-3.695-0.539-5.226v-8.3908h7.172v36.469h-5.484l-1.383-3.398h-0.305c-1.625 2.578-4.101 3.867-7.43 3.867zm2.508-5.696c1.828 0 3.164-0.531 4.008-1.593 0.86-1.063 1.328-2.868 1.406-5.414v-0.774c0-2.812-0.437-4.828-1.312-6.047-0.86-1.218-2.266-1.828-4.219-1.828-1.594 0-2.836 0.68-3.726 2.039-0.875 1.344-1.313 3.305-1.313 5.883s0.445 4.516 1.336 5.813c0.891 1.281 2.164 1.921 3.82 1.921zm30.422-16.382c-1.515 0-2.703 0.484-3.562 1.453-0.86 0.953-1.352 2.312-1.477 4.078h10.031c-0.031-1.766-0.492-3.125-1.382-4.078-0.891-0.969-2.094-1.453-3.61-1.453zm1.008 22.078c-4.219 0-7.516-1.164-9.891-3.492-2.375-2.329-3.562-5.625-3.562-9.891 0-4.391 1.094-7.781 3.281-10.172 2.203-2.406 5.242-3.609 9.117-3.609 3.703 0 6.586 1.054 8.649 3.164 2.062 2.109 3.094 5.023 3.094 8.742v3.469h-16.899c0.078 2.031 0.68 3.617 1.805 4.758 1.125 1.14 2.703 1.71 4.734 1.71 1.578 0 3.07-0.164 4.477-0.492 1.406-0.328 2.875-0.851 4.406-1.57v5.531c-1.25 0.625-2.586 1.086-4.008 1.383-1.422 0.312-3.156 0.469-5.203 0.469zm-5.133-29.555v-0.633c2.688-3.1248 4.524-5.4763 5.508-7.0544h8.016v0.4922c-0.813 0.8124-2.203 2.0234-4.172 3.6328-1.953 1.5937-3.485 2.7814-4.594 3.5624zm45.094 29.086h-7.149v-15.305c0-1.89-0.32-3.304-0.96-4.242-0.625-0.953-1.618-1.43-2.977-1.43-1.828 0-3.156 0.672-3.984 2.016-0.829 1.344-1.243 3.555-1.243 6.633v12.328h-7.148v-26.203h5.461l0.961 3.351h0.398c0.703-1.203 1.719-2.14 3.047-2.812 1.328-0.688 2.852-1.031 4.571-1.031 3.921 0 6.578 1.281 7.968 3.843h0.633c0.703-1.218 1.734-2.164 3.094-2.836 1.375-0.671 2.922-1.007 4.64-1.007 2.969 0 5.211 0.765 6.727 2.297 1.531 1.515 2.297 3.953 2.297 7.312v17.086h-7.172v-15.305c0-1.89-0.32-3.304-0.961-4.242-0.625-0.953-1.617-1.43-2.976-1.43-1.75 0-3.063 0.625-3.938 1.875-0.859 1.25-1.289 3.235-1.289 5.954zm40.336 0-1.383-3.562h-0.187c-1.204 1.515-2.446 2.57-3.727 3.164-1.266 0.578-2.922 0.867-4.969 0.867-2.515 0-4.5-0.719-5.953-2.157-1.437-1.437-2.156-3.484-2.156-6.14 0-2.781 0.969-4.828 2.906-6.141 1.953-1.328 4.891-2.062 8.813-2.203l4.547-0.14v-1.149c0-2.656-1.36-3.984-4.079-3.984-2.093 0-4.554 0.633-7.382 1.898l-2.368-4.828c3.016-1.578 6.36-2.367 10.032-2.367 3.515 0 6.211 0.765 8.086 2.297 1.875 1.531 2.812 3.859 2.812 6.984v17.461zm-2.109-12.141-2.766 0.094c-2.078 0.063-3.625 0.438-4.641 1.125-1.015 0.688-1.523 1.734-1.523 3.141 0 2.015 1.156 3.023 3.469 3.023 1.656 0 2.976-0.476 3.961-1.43 1-0.953 1.5-2.218 1.5-3.796zm29.109-14.554c0.969 0 1.773 0.07 2.414 0.211l-0.539 6.703c-0.578-0.157-1.281-0.235-2.11-0.235-2.281 0-4.062 0.586-5.343 1.758-1.266 1.172-1.899 2.813-1.899 4.922v13.336h-7.148v-26.203h5.414l1.055 4.406h0.351c0.813-1.469 1.906-2.648 3.281-3.539 1.391-0.906 2.899-1.359 4.524-1.359zm17.812 27.164c-8.156 0-12.234-4.477-12.234-13.43 0-4.453 1.109-7.851 3.328-10.195 2.219-2.36 5.399-3.539 9.539-3.539 3.031 0 5.75 0.593 8.156 1.781l-2.109 5.531c-1.125-0.453-2.172-0.82-3.141-1.101-0.968-0.297-1.937-0.446-2.906-0.446-3.719 0-5.578 2.641-5.578 7.922 0 5.125 1.859 7.688 5.578 7.688 1.375 0 2.649-0.18 3.82-0.539 1.172-0.375 2.344-0.953 3.516-1.735v6.117c-1.156 0.735-2.328 1.243-3.516 1.524-1.171 0.281-2.656 0.422-4.453 0.422zm38.25-0.469h-7.148v-15.305c0-3.781-1.406-5.672-4.219-5.672-2 0-3.445 0.68-4.336 2.039-0.89 1.36-1.336 3.563-1.336 6.61v12.328h-7.148v-36.469h7.148v7.4298c0 0.578-0.054 1.937-0.164 4.078l-0.164 2.109h0.375c1.594-2.562 4.125-3.843 7.594-3.843 3.078 0 5.414 0.828 7.008 2.484 1.593 1.656 2.39 4.031 2.39 7.125zm18.211-21.609c-1.515 0-2.703 0.484-3.562 1.453-0.86 0.953-1.352 2.312-1.477 4.078h10.031c-0.031-1.766-0.492-3.125-1.382-4.078-0.891-0.969-2.094-1.453-3.61-1.453zm1.008 22.078c-4.219 0-7.516-1.164-9.89-3.492-2.376-2.329-3.563-5.625-3.563-9.891 0-4.391 1.094-7.781 3.281-10.172 2.203-2.406 5.242-3.609 9.117-3.609 3.704 0 6.586 1.054 8.649 3.164 2.062 2.109 3.094 5.023 3.094 8.742v3.469h-16.899c0.078 2.031 0.68 3.617 1.805 4.758 1.125 1.14 2.703 1.71 4.734 1.71 1.578 0 3.071-0.164 4.477-0.492s2.875-0.851 4.406-1.57v5.531c-1.25 0.625-2.586 1.086-4.008 1.383-1.422 0.312-3.156 0.469-5.203 0.469zm34.781-8.25c0 2.687-0.937 4.734-2.812 6.14-1.859 1.407-4.649 2.11-8.367 2.11-1.907 0-3.532-0.133-4.875-0.399-1.344-0.25-2.602-0.625-3.774-1.125v-5.906c1.328 0.625 2.821 1.149 4.477 1.57 1.672 0.422 3.14 0.633 4.406 0.633 2.594 0 3.891-0.75 3.891-2.25 0-0.562-0.172-1.015-0.516-1.359-0.344-0.36-0.937-0.758-1.781-1.195-0.844-0.454-1.969-0.977-3.375-1.571-2.016-0.844-3.5-1.625-4.453-2.344-0.938-0.718-1.625-1.539-2.063-2.461-0.422-0.937-0.633-2.085-0.633-3.445 0-2.328 0.899-4.125 2.696-5.39 1.812-1.282 4.375-1.922 7.687-1.922 3.156 0 6.227 0.687 9.211 2.062l-2.156 5.156c-1.313-0.562-2.539-1.023-3.68-1.382-1.14-0.36-2.304-0.539-3.492-0.539-2.109 0-3.164 0.57-3.164 1.71 0 0.641 0.336 1.196 1.008 1.665 0.687 0.468 2.179 1.164 4.476 2.085 2.047 0.829 3.547 1.602 4.5 2.321s1.657 1.547 2.11 2.484c0.453 0.938 0.679 2.055 0.679 3.352zm26.344 8.25c-3.078 0-5.5-1.196-7.265-3.586-1.75-2.391-2.626-5.703-2.626-9.938 0-4.297 0.891-7.64 2.672-10.031 1.797-2.406 4.266-3.609 7.407-3.609 3.297 0 5.812 1.281 7.547 3.843h0.234c-0.36-1.953-0.539-3.695-0.539-5.226v-8.3908h7.172v36.469h-5.485l-1.382-3.398h-0.305c-1.625 2.578-4.102 3.867-7.43 3.867zm2.508-5.696c1.828 0 3.164-0.531 4.008-1.593 0.859-1.063 1.328-2.868 1.406-5.414v-0.774c0-2.812-0.437-4.828-1.313-6.047-0.859-1.218-2.265-1.828-4.218-1.828-1.594 0-2.836 0.68-3.727 2.039-0.875 1.344-1.312 3.305-1.312 5.883s0.445 4.516 1.336 5.813c0.89 1.281 2.164 1.921 3.82 1.921zm30.422-16.382c-1.516 0-2.703 0.484-3.563 1.453-0.859 0.953-1.351 2.312-1.476 4.078h10.031c-0.031-1.766-0.492-3.125-1.383-4.078-0.89-0.969-2.094-1.453-3.609-1.453zm1.008 22.078c-4.219 0-7.516-1.164-9.891-3.492-2.375-2.329-3.562-5.625-3.562-9.891 0-4.391 1.093-7.781 3.281-10.172 2.203-2.406 5.242-3.609 9.117-3.609 3.703 0 6.586 1.054 8.648 3.164 2.063 2.109 3.094 5.023 3.094 8.742v3.469h-16.898c0.078 2.031 0.679 3.617 1.804 4.758 1.125 1.14 2.704 1.71 4.735 1.71 1.578 0 3.07-0.164 4.476-0.492 1.407-0.328 2.875-0.851 4.407-1.57v5.531c-1.25 0.625-2.586 1.086-4.008 1.383-1.422 0.312-3.156 0.469-5.203 0.469zm39.609 0c-8.156 0-12.234-4.477-12.234-13.43 0-4.453 1.109-7.851 3.328-10.195 2.218-2.36 5.398-3.539 9.539-3.539 3.031 0 5.75 0.593 8.156 1.781l-2.109 5.531c-1.125-0.453-2.172-0.82-3.141-1.101-0.969-0.297-1.937-0.446-2.906-0.446-3.719 0-5.578 2.641-5.578 7.922 0 5.125 1.859 7.688 5.578 7.688 1.375 0 2.648-0.18 3.82-0.539 1.172-0.375 2.344-0.953 3.516-1.735v6.117c-1.157 0.735-2.328 1.243-3.516 1.524-1.172 0.281-2.656 0.422-4.453 0.422zm30.703-0.469-1.383-3.562h-0.187c-1.203 1.515-2.445 2.57-3.727 3.164-1.265 0.578-2.922 0.867-4.968 0.867-2.516 0-4.5-0.719-5.954-2.157-1.437-1.437-2.156-3.484-2.156-6.14 0-2.781 0.969-4.828 2.906-6.141 1.954-1.328 4.891-2.062 8.813-2.203l4.547-0.14v-1.149c0-2.656-1.36-3.984-4.078-3.984-2.094 0-4.555 0.633-7.383 1.898l-2.367-4.828c3.015-1.578 6.359-2.367 10.031-2.367 3.515 0 6.211 0.765 8.086 2.297 1.875 1.531 2.812 3.859 2.812 6.984v17.461zm-2.109-12.141-2.766 0.094c-2.078 0.063-3.625 0.438-4.64 1.125-1.016 0.688-1.524 1.734-1.524 3.141 0 2.015 1.156 3.023 3.469 3.023 1.656 0 2.976-0.476 3.961-1.43 1-0.953 1.5-2.218 1.5-3.796zm29.109-14.554c0.969 0 1.774 0.07 2.414 0.211l-0.539 6.703c-0.578-0.157-1.281-0.235-2.109-0.235-2.281 0-4.063 0.586-5.344 1.758-1.266 1.172-1.898 2.813-1.898 4.922v13.336h-7.149v-26.203h5.414l1.055 4.406h0.351c0.813-1.469 1.907-2.648 3.282-3.539 1.39-0.906 2.898-1.359 4.523-1.359zm18.211 21.468c1.25 0 2.75-0.273 4.5-0.82v5.32c-1.781 0.797-3.969 1.196-6.562 1.196-2.86 0-4.946-0.719-6.258-2.157-1.297-1.453-1.946-3.624-1.946-6.515v-12.633h-3.421v-3.023l3.937-2.391 2.063-5.5312h4.57v5.5782h7.336v5.367h-7.336v12.633c0 1.015 0.281 1.765 0.844 2.25 0.578 0.484 1.336 0.726 2.273 0.726zm20.672-16.382c-1.516 0-2.703 0.484-3.563 1.453-0.859 0.953-1.351 2.312-1.476 4.078h10.031c-0.031-1.766-0.492-3.125-1.383-4.078-0.89-0.969-2.093-1.453-3.609-1.453zm1.008 22.078c-4.219 0-7.516-1.164-9.891-3.492-2.375-2.329-3.562-5.625-3.562-9.891 0-4.391 1.093-7.781 3.281-10.172 2.203-2.406 5.242-3.609 9.117-3.609 3.703 0 6.586 1.054 8.649 3.164 2.062 2.109 3.093 5.023 3.093 8.742v3.469h-16.898c0.078 2.031 0.679 3.617 1.805 4.758 1.124 1.14 2.703 1.71 4.734 1.71 1.578 0 3.07-0.164 4.476-0.492 1.407-0.328 2.875-0.851 4.407-1.57v5.531c-1.25 0.625-2.586 1.086-4.008 1.383-1.422 0.312-3.156 0.469-5.203 0.469zm51.773-26.672v3.633l-4.101 1.054c0.75 1.172 1.125 2.485 1.125 3.938 0 2.812-0.985 5.008-2.953 6.586-1.954 1.562-4.672 2.344-8.157 2.344l-1.289-0.071-1.054-0.117c-0.735 0.563-1.102 1.188-1.102 1.875 0 1.031 1.312 1.547 3.937 1.547h4.454c2.875 0 5.062 0.617 6.562 1.852 1.516 1.234 2.273 3.046 2.273 5.437 0 3.063-1.281 5.437-3.843 7.125-2.547 1.688-6.211 2.531-10.992 2.531-3.657 0-6.454-0.64-8.391-1.922-1.922-1.265-2.883-3.047-2.883-5.343 0-1.578 0.492-2.899 1.477-3.961 0.984-1.063 2.429-1.821 4.336-2.274-0.735-0.312-1.375-0.82-1.922-1.523-0.547-0.719-0.821-1.477-0.821-2.274 0-1 0.289-1.828 0.868-2.484 0.578-0.672 1.414-1.328 2.507-1.969-1.375-0.593-2.468-1.547-3.281-2.859-0.797-1.313-1.195-2.86-1.195-4.641 0-2.859 0.93-5.07 2.789-6.633 1.859-1.562 4.516-2.343 7.969-2.343 0.734 0 1.601 0.07 2.601 0.211 1.016 0.125 1.664 0.218 1.946 0.281zm-20.226 29.906c0 0.985 0.468 1.758 1.406 2.32 0.953 0.563 2.281 0.844 3.984 0.844 2.563 0 4.571-0.351 6.024-1.055 1.453-0.703 2.179-1.664 2.179-2.882 0-0.985-0.429-1.664-1.289-2.039-0.859-0.375-2.187-0.563-3.984-0.563h-3.703c-1.313 0-2.414 0.305-3.305 0.914-0.875 0.625-1.312 1.446-1.312 2.461zm2.601-21.328c0 1.422 0.32 2.547 0.961 3.375 0.656 0.828 1.649 1.242 2.977 1.242 1.343 0 2.328-0.414 2.953-1.242s0.937-1.953 0.937-3.375c0-3.156-1.297-4.734-3.89-4.734-2.625 0-3.938 1.578-3.938 4.734zm36.586-9.07c0.969 0 1.774 0.07 2.414 0.211l-0.539 6.703c-0.578-0.157-1.281-0.235-2.109-0.235-2.282 0-4.063 0.586-5.344 1.758-1.266 1.172-1.898 2.813-1.898 4.922v13.336h-7.149v-26.203h5.414l1.055 4.406h0.351c0.813-1.469 1.907-2.648 3.282-3.539 1.39-0.906 2.898-1.359 4.523-1.359zm6.867-6.2816c0-2.3281 1.297-3.4922 3.891-3.4922s3.891 1.1641 3.891 3.4922c0 1.1094-0.329 1.9766-0.985 2.6016-0.64 0.609-1.609 0.914-2.906 0.914-2.594 0-3.891-1.1718-3.891-3.5156zm7.453 32.977h-7.148v-26.203h7.148zm25.805-7.781c0 2.687-0.937 4.734-2.812 6.14-1.86 1.407-4.649 2.11-8.368 2.11-1.906 0-3.531-0.133-4.875-0.399-1.343-0.25-2.601-0.625-3.773-1.125v-5.906c1.328 0.625 2.82 1.149 4.477 1.57 1.671 0.422 3.14 0.633 4.406 0.633 2.594 0 3.89-0.75 3.89-2.25 0-0.562-0.171-1.015-0.515-1.359-0.344-0.36-0.938-0.758-1.781-1.195-0.844-0.454-1.969-0.977-3.375-1.571-2.016-0.844-3.5-1.625-4.454-2.344-0.937-0.718-1.625-1.539-2.062-2.461-0.422-0.937-0.633-2.085-0.633-3.445 0-2.328 0.899-4.125 2.695-5.39 1.813-1.282 4.375-1.922 7.688-1.922 3.156 0 6.227 0.687 9.211 2.062l-2.156 5.156c-1.313-0.562-2.539-1.023-3.68-1.382-1.141-0.36-2.305-0.539-3.492-0.539-2.11 0-3.164 0.57-3.164 1.71 0 0.641 0.336 1.196 1.008 1.665 0.687 0.468 2.179 1.164 4.476 2.085 2.047 0.829 3.547 1.602 4.5 2.321s1.656 1.547 2.109 2.484c0.454 0.938 0.68 2.055 0.68 3.352zm16.43-13.828c-1.516 0-2.703 0.484-3.563 1.453-0.859 0.953-1.351 2.312-1.476 4.078h10.031c-0.031-1.766-0.492-3.125-1.383-4.078-0.89-0.969-2.094-1.453-3.609-1.453zm1.008 22.078c-4.219 0-7.516-1.164-9.891-3.492-2.375-2.329-3.562-5.625-3.562-9.891 0-4.391 1.093-7.781 3.281-10.172 2.203-2.406 5.242-3.609 9.117-3.609 3.703 0 6.586 1.054 8.648 3.164 2.063 2.109 3.094 5.023 3.094 8.742v3.469h-16.898c0.078 2.031 0.679 3.617 1.804 4.758 1.125 1.14 2.704 1.71 4.735 1.71 1.578 0 3.07-0.164 4.476-0.492 1.407-0.328 2.875-0.851 4.407-1.57v5.531c-1.25 0.625-2.586 1.086-4.008 1.383-1.422 0.312-3.156 0.469-5.203 0.469zm-671.79 42.922c-1.516 0-2.704 0.484-3.563 1.453-0.859 0.953-1.351 2.312-1.477 4.078h10.032c-0.032-1.766-0.492-3.125-1.383-4.078-0.891-0.969-2.094-1.453-3.609-1.453zm1.007 22.078c-4.218 0-7.515-1.164-9.89-3.492-2.375-2.329-3.563-5.625-3.563-9.891 0-4.391 1.094-7.781 3.282-10.172 2.203-2.406 5.242-3.609 9.117-3.609 3.703 0 6.586 1.054 8.648 3.164 2.063 2.109 3.094 5.023 3.094 8.742v3.469h-16.899c0.079 2.031 0.68 3.617 1.805 4.758 1.125 1.14 2.703 1.71 4.735 1.71 1.578 0 3.07-0.164 4.476-0.492s2.875-0.851 4.406-1.57v5.531c-1.25 0.625-2.586 1.086-4.008 1.383-1.421 0.312-3.156 0.469-5.203 0.469zm40.688-0.469h-7.149v-15.305c0-1.89-0.336-3.304-1.007-4.242-0.672-0.953-1.743-1.43-3.211-1.43-2 0-3.446 0.672-4.336 2.016-0.891 1.328-1.336 3.539-1.336 6.633v12.328h-7.149v-26.203h5.461l0.961 3.351h0.399c0.797-1.265 1.89-2.218 3.281-2.859 1.406-0.656 3-0.984 4.781-0.984 3.047 0 5.36 0.828 6.938 2.484 1.578 1.641 2.367 4.016 2.367 7.125zm26.976 0h-7.148v-36.469h7.148zm7.219-32.977c0-2.328 1.297-3.492 3.891-3.492s3.89 1.164 3.89 3.492c0 1.11-0.328 1.977-0.984 2.602-0.641 0.609-1.609 0.914-2.906 0.914-2.594 0-3.891-1.172-3.891-3.516zm7.453 32.977h-7.148v-26.203h7.148zm30.328-26.203v3.633l-4.101 1.054c0.75 1.172 1.125 2.485 1.125 3.938 0 2.812-0.985 5.008-2.953 6.586-1.953 1.562-4.672 2.344-8.156 2.344l-1.29-0.071-1.054-0.117c-0.735 0.563-1.102 1.188-1.102 1.875 0 1.031 1.313 1.547 3.938 1.547h4.453c2.875 0 5.062 0.617 6.562 1.852 1.516 1.234 2.274 3.046 2.274 5.437 0 3.063-1.281 5.437-3.844 7.125-2.547 1.688-6.211 2.531-10.992 2.531-3.656 0-6.453-0.64-8.391-1.922-1.922-1.265-2.883-3.047-2.883-5.343 0-1.578 0.493-2.899 1.477-3.961 0.984-1.063 2.43-1.821 4.336-2.274-0.734-0.312-1.375-0.82-1.922-1.523-0.547-0.719-0.82-1.477-0.82-2.274 0-1 0.289-1.828 0.867-2.484 0.578-0.672 1.414-1.328 2.508-1.969-1.375-0.593-2.469-1.547-3.282-2.859-0.796-1.313-1.195-2.86-1.195-4.641 0-2.859 0.93-5.07 2.789-6.633 1.86-1.562 4.516-2.343 7.969-2.343 0.734 0 1.602 0.07 2.602 0.211 1.015 0.125 1.664 0.218 1.945 0.281zm-20.226 29.906c0 0.985 0.469 1.758 1.406 2.32 0.953 0.563 2.281 0.844 3.985 0.844 2.562 0 4.57-0.351 6.023-1.055 1.453-0.703 2.18-1.664 2.18-2.882 0-0.985-0.43-1.664-1.289-2.039-0.86-0.375-2.188-0.563-3.985-0.563h-3.703c-1.312 0-2.414 0.305-3.305 0.914-0.875 0.625-1.312 1.446-1.312 2.461zm2.601-21.328c0 1.422 0.321 2.547 0.961 3.375 0.657 0.828 1.649 1.242 2.977 1.242 1.344 0 2.328-0.414 2.953-1.242s0.938-1.953 0.938-3.375c0-3.156-1.297-4.734-3.891-4.734-2.625 0-3.938 1.578-3.938 4.734zm46.149 17.625h-7.149v-15.305c0-1.89-0.336-3.304-1.007-4.242-0.672-0.953-1.743-1.43-3.211-1.43-2 0-3.446 0.672-4.336 2.016-0.891 1.328-1.336 3.539-1.336 6.633v12.328h-7.149v-26.203h5.461l0.961 3.351h0.399c0.797-1.265 1.89-2.218 3.281-2.859 1.406-0.656 3-0.984 4.781-0.984 3.047 0 5.36 0.828 6.938 2.484 1.578 1.641 2.367 4.016 2.367 7.125zm18.211-21.609c-1.516 0-2.703 0.484-3.563 1.453-0.859 0.953-1.351 2.312-1.476 4.078h10.031c-0.031-1.766-0.492-3.125-1.383-4.078-0.89-0.969-2.094-1.453-3.609-1.453zm1.008 22.078c-4.219 0-7.516-1.164-9.891-3.492-2.375-2.329-3.563-5.625-3.563-9.891 0-4.391 1.094-7.781 3.282-10.172 2.203-2.406 5.242-3.609 9.117-3.609 3.703 0 6.586 1.054 8.648 3.164 2.063 2.109 3.094 5.023 3.094 8.742v3.469h-16.898c0.078 2.031 0.679 3.617 1.804 4.758 1.125 1.14 2.703 1.71 4.735 1.71 1.578 0 3.07-0.164 4.476-0.492 1.407-0.328 2.875-0.851 4.407-1.57v5.531c-1.25 0.625-2.586 1.086-4.008 1.383-1.422 0.312-3.157 0.469-5.203 0.469zm39.82-22.078c-1.516 0-2.703 0.484-3.563 1.453-0.859 0.953-1.351 2.312-1.476 4.078h10.031c-0.031-1.766-0.492-3.125-1.383-4.078-0.89-0.969-2.093-1.453-3.609-1.453zm1.008 22.078c-4.219 0-7.516-1.164-9.891-3.492-2.375-2.329-3.562-5.625-3.562-9.891 0-4.391 1.093-7.781 3.281-10.172 2.203-2.406 5.242-3.609 9.117-3.609 3.703 0 6.586 1.054 8.649 3.164 2.062 2.109 3.093 5.023 3.093 8.742v3.469h-16.898c0.078 2.031 0.679 3.617 1.805 4.758 1.124 1.14 2.703 1.71 4.734 1.71 1.578 0 3.07-0.164 4.476-0.492 1.407-0.328 2.875-0.851 4.407-1.57v5.531c-1.25 0.625-2.586 1.086-4.008 1.383-1.422 0.312-3.156 0.469-5.203 0.469zm40.687-0.469h-7.148v-15.305c0-1.89-0.336-3.304-1.008-4.242-0.672-0.953-1.742-1.43-3.211-1.43-2 0-3.445 0.672-4.336 2.016-0.89 1.328-1.336 3.539-1.336 6.633v12.328h-7.148v-26.203h5.461l0.961 3.351h0.398c0.797-1.265 1.891-2.218 3.281-2.859 1.407-0.656 3-0.984 4.782-0.984 3.046 0 5.359 0.828 6.937 2.484 1.578 1.641 2.367 4.016 2.367 7.125zm41.953 0h-23.953v-5.039l8.602-8.695c2.547-2.61 4.211-4.414 4.992-5.414 0.781-1.016 1.344-1.954 1.687-2.813 0.344-0.859 0.516-1.75 0.516-2.672 0-1.375-0.383-2.398-1.148-3.07-0.75-0.672-1.758-1.008-3.024-1.008-1.328 0-2.617 0.305-3.867 0.914s-2.555 1.477-3.914 2.602l-3.937-4.664c1.687-1.438 3.085-2.453 4.195-3.047 1.109-0.594 2.32-1.047 3.633-1.36 1.312-0.328 2.781-0.492 4.406-0.492 2.14 0 4.031 0.391 5.672 1.172 1.64 0.781 2.914 1.875 3.82 3.281 0.906 1.407 1.359 3.016 1.359 4.828 0 1.579-0.281 3.063-0.843 4.454-0.547 1.375-1.407 2.789-2.578 4.242-1.157 1.453-3.204 3.523-6.141 6.211l-4.406 4.148v0.328h14.929zm41.227 0h-7.149v-15.305c0-1.89-0.32-3.304-0.96-4.242-0.625-0.953-1.618-1.43-2.977-1.43-1.828 0-3.156 0.672-3.984 2.016-0.829 1.344-1.243 3.555-1.243 6.633v12.328h-7.148v-26.203h5.461l0.961 3.351h0.398c0.703-1.203 1.719-2.14 3.047-2.812 1.328-0.688 2.852-1.031 4.571-1.031 3.921 0 6.578 1.281 7.968 3.843h0.633c0.703-1.218 1.734-2.164 3.094-2.836 1.375-0.671 2.922-1.007 4.64-1.007 2.969 0 5.211 0.765 6.727 2.297 1.531 1.515 2.297 3.953 2.297 7.312v17.086h-7.172v-15.305c0-1.89-0.32-3.304-0.961-4.242-0.625-0.953-1.617-1.43-2.976-1.43-1.75 0-3.063 0.625-3.938 1.875-0.859 1.25-1.289 3.235-1.289 5.954zm23.391-32.977c0-2.328 1.296-3.492 3.89-3.492s3.891 1.164 3.891 3.492c0 1.11-0.328 1.977-0.985 2.602-0.64 0.609-1.609 0.914-2.906 0.914-2.594 0-3.89-1.172-3.89-3.516zm7.453 32.977h-7.149v-26.203h7.149zm31.711 0h-7.149v-15.305c0-1.89-0.336-3.304-1.008-4.242-0.671-0.953-1.742-1.43-3.211-1.43-2 0-3.445 0.672-4.336 2.016-0.89 1.328-1.335 3.539-1.335 6.633v12.328h-7.149v-26.203h5.461l0.961 3.351h0.398c0.797-1.265 1.891-2.218 3.282-2.859 1.406-0.656 3-0.984 4.781-0.984 3.047 0 5.359 0.828 6.937 2.484 1.579 1.641 2.368 4.016 2.368 7.125zm25.64-7.781c0 2.687-0.937 4.734-2.812 6.14-1.86 1.407-4.649 2.11-8.367 2.11-1.907 0-3.532-0.133-4.875-0.399-1.344-0.25-2.602-0.625-3.774-1.125v-5.906c1.328 0.625 2.82 1.149 4.477 1.57 1.672 0.422 3.14 0.633 4.406 0.633 2.594 0 3.891-0.75 3.891-2.25 0-0.562-0.172-1.015-0.516-1.359-0.344-0.36-0.938-0.758-1.781-1.195-0.844-0.454-1.969-0.977-3.375-1.571-2.016-0.844-3.5-1.625-4.453-2.344-0.938-0.718-1.625-1.539-2.063-2.461-0.422-0.937-0.633-2.085-0.633-3.445 0-2.328 0.899-4.125 2.696-5.39 1.812-1.282 4.375-1.922 7.687-1.922 3.156 0 6.227 0.687 9.211 2.062l-2.156 5.156c-1.313-0.562-2.539-1.023-3.68-1.382-1.141-0.36-2.305-0.539-3.492-0.539-2.109 0-3.164 0.57-3.164 1.71 0 0.641 0.336 1.196 1.008 1.665 0.687 0.468 2.179 1.164 4.476 2.085 2.047 0.829 3.547 1.602 4.5 2.321s1.656 1.547 2.11 2.484c0.453 0.938 0.679 2.055 0.679 3.352z" fill="#fff"/>
 <path d="m106 185.4c-18.989 0-37.094-7.151-50.979-20.138l-0.4671-0.436 0.0047 0.017-10.431-10.058 1.9563 0.49-0.288-0.393c-9.4584-12.876-14.458-28.139-14.458-44.138 0-41.172 33.493-74.668 74.661-74.668 15.141 0 29.734 4.5238 42.201 13.082l0.12 0.0831 0.554-0.5549 8.257 7.6555 0.266 0.2693c1.783 1.6917 3.365 3.3331 4.835 5.0154 11.883 13.59 18.428 31.033 18.428 49.115 1e-3 41.167-33.492 74.658-74.66 74.658z" fill="#fff"/>
 <path d="m106 36.246c15.107 0 29.665 4.5133 42.102 13.052l0.241 0.1663 0.206-0.2073 0.331-0.3325 7.622 7.0667 0.062 0.0573-0.012-0.0011 0.725 0.6884c1.779 1.687 3.357 3.3249 4.824 5.0026 11.855 13.558 18.385 30.959 18.385 49 0 41.07-33.415 74.482-74.486 74.482-18.945 0-37.006-7.136-50.858-20.091l-0.4484-0.409-9.9689-9.61 0.8465 0.212 0.9448 0.236-0.5772-0.785c-9.4362-12.846-14.424-28.074-14.424-44.035 0-41.074 33.414-74.492 74.485-74.492zm0-0.3512c-41.33 0-74.836 33.506-74.836 74.843 0 16.556 5.3878 31.849 14.492 44.243l-2.1214-0.53 11.378 10.969-0.0106-0.035c13.378 12.513 31.338 20.186 51.098 20.186 41.331 0 74.837-33.505 74.837-74.833 0-18.853-6.969-36.075-18.471-49.231-1.533-1.7538-3.155-3.4232-4.847-5.0272l0.027 0.0024-0.453-0.4215c-0.12-0.1089-0.237-0.2201-0.353-0.3266l-7.87-7.2961-0.571 0.5713c-12.035-8.2643-26.595-13.115-42.299-13.115z" fill="#315ca8"/>
 <path d="m170.11 100.12c0 41.466-33.618 75.091-75.082 75.091-41.472 0-75.096-33.625-75.096-75.091 0-41.469 33.625-75.087 75.096-75.087 41.464 0 75.082 33.619 75.082 75.087z" fill="#4995d1"/>
 <path d="m170.11 99.67c0-1.093-0.026-2.174-0.07-3.256l-12.203-10.458-14.405-4.834-12.068 0.806-12.51 1.027 0.393 3.179-6.909-5.951-25.006 2.2-8.7196 10.73-20.203-17.327-14.75 8.306-2.8003 26.434-10.571 13.026 60.157 51.498c1.5934 0.104 3.2106 0.164 4.8366 0.164 41.323 0 74.828-33.828 74.828-75.544z" fill="url(#paint1_linear)"/>
 <g fill="#fff">
  <path d="m160.54 98.287v3.651c0 6.757-2.16 12.232-6.489 16.421-4.324 4.19-9.914 6.284-16.763 6.284-7.297 0-13.35-2.374-18.147-7.13-4.799-4.753-7.2-10.552-7.2-17.406 0-6.895 2.374-12.731 7.129-17.508 4.756-4.776 10.647-7.167 17.681-7.167 4.415 0 8.449 1.007 12.1 3.01 3.651 2.009 6.489 4.68 8.513 8.014l-7.975 4.593c-1.125-1.933-2.827-3.511-5.104-4.728-2.273-1.217-4.809-1.826-7.604-1.826-4.508 0-8.212 1.476-11.12 4.426-2.907 2.952-4.356 6.683-4.356 11.186 0 4.463 1.475 8.147 4.425 11.055 2.951 2.904 6.861 4.359 11.73 4.359 3.602 0 6.591-0.803 8.955-2.399 2.363-1.599 3.979-3.797 4.835-6.593h-14.33v-8.243h23.72z"/>
  <path d="m107.12 111.28c-0.895 0.951-1.955 1.778-3.193 2.448-2.181 1.195-4.626 1.792-7.33 1.792-4.5986 0-8.3029-1.442-11.12-4.326-2.8156-2.881-4.2275-6.603-4.2275-11.152 0-4.6 1.4119-8.336 4.2275-11.223 2.8168-2.88 6.5211-4.324 11.12-4.324 2.704 0 5.133 0.599 7.297 1.788 1.242 0.69 2.32 1.535 3.235 2.53 1.109-2.934 2.682-5.628 4.733-8.076-1.044-0.846-2.174-1.617-3.402-2.294-3.63-2.004-7.586-3.01-11.863-3.01-7.1239 0-13.003 2.359-17.648 7.07-4.642 4.707-6.9625 10.555-6.9625 17.539 0 6.941 2.3205 12.774 6.9625 17.503 4.6443 4.735 10.524 7.098 17.648 7.098 4.325 0 8.287-1.001 11.895-3.005 1.222-0.684 2.347-1.454 3.391-2.299-2.067-2.451-3.655-5.138-4.763-8.059z"/>
  <path d="m73.79 121.88c-4.8469-5.648-8.2503-12.733-8.5523-21.257-0.0375-1.185-0.0316-2.343 0.0175-3.479l-7.3241-20.765h-11.561l-16.559 47.322h10.07l2.8379-8.518h19.439l3.0041 8.518h10.297l-0.0223-0.06c-0.5584-0.55-1.1133-1.137-1.646-1.761zm-28.03-15.415 6.4883-19.338 6.8289 19.338z"/>
 </g>
 <defs>
  <linearGradient id="paint0_linear" x1="30.981" x2="1704.2" y1="34" y2="253.81" gradientTransform="translate(-7,-34)" gradientUnits="userSpaceOnUse">
   <stop stop-color="#4284EF" offset=".42965"/>
   <stop stop-color="#4284EF" stop-opacity="0" offset="1"/>
  </linearGradient>
  <linearGradient id="paint1_linear" x1="73.563" x2="136.74" y1="89.271" y2="190.23" gradientTransform="translate(-7,-34)" gradientUnits="userSpaceOnUse">
   <stop stop-color="#27348B" offset="0"/>
   <stop stop-color="#3E86C6" offset="1"/>
  </linearGradient>
 </defs>
</svg>
