<svg width="32" height="35" viewBox="0 0 32 35" fill="none" xmlns="http://www.w3.org/2000/svg">
<path d="M27.847 29.2416C27.8171 29.2416 27.7871 29.2566 27.7571 29.2866C27.7271 29.3166 27.7121 29.3466 27.7121 29.3766V33.2455C27.7121 33.2755 27.7271 33.3055 27.7571 33.3355C27.7871 33.3655 27.8171 33.3805 27.847 33.3805C28.4169 33.3805 28.9042 33.178 29.3091 32.7731C29.714 32.3683 29.9165 31.8809 29.9165 31.3111C29.9165 30.7412 29.714 30.2539 29.3091 29.849C28.9042 29.4441 28.4169 29.2416 27.847 29.2416ZM26.0925 35V27.6221H27.847C28.8668 27.6221 29.7365 27.982 30.4563 28.7018C31.1761 29.4216 31.536 30.2913 31.536 31.3111C31.536 32.3308 31.1761 33.2005 30.4563 33.9203C29.7365 34.6401 28.8668 35 27.847 35H26.0925ZM30.7262 22.7185C30.6063 22.7185 30.4863 22.681 30.3663 22.606C30.2464 22.5311 30.1414 22.4486 30.0514 22.3586L27.982 19.2095C27.982 19.2095 27.967 19.202 27.937 19.187C27.907 19.172 27.877 19.1645 27.847 19.1645C27.847 19.1645 27.8395 19.1645 27.8246 19.1645C27.8096 19.1645 27.8021 19.1645 27.8021 19.1645C27.7721 19.1645 27.7496 19.1795 27.7346 19.2095C27.7196 19.2395 27.7121 19.2695 27.7121 19.2995V22.7185H26.0925V16.1504C26.0925 15.9704 26.145 15.8055 26.25 15.6555C26.355 15.5056 26.4974 15.4156 26.6774 15.3856C26.7074 15.3556 26.7449 15.3406 26.7898 15.3406C26.8348 15.3406 26.8723 15.3406 26.9023 15.3406C27.0223 15.3406 27.1422 15.3706 27.2622 15.4306C27.3822 15.4906 27.4871 15.5805 27.5771 15.7005L29.6465 18.8046C29.6765 18.8346 29.699 18.8571 29.714 18.8721C29.729 18.8871 29.7515 18.8946 29.7815 18.8946C29.7815 18.8946 29.789 18.8946 29.804 18.8946C29.819 18.8946 29.8265 18.8946 29.8265 18.8946C29.8565 18.8646 29.879 18.8346 29.894 18.8046C29.909 18.7746 29.9165 18.7446 29.9165 18.7147V15.3406H31.536V21.9087C31.536 22.0887 31.4835 22.2461 31.3785 22.3811C31.2736 22.5161 31.1311 22.6135 30.9512 22.6735C30.9212 22.6735 30.8912 22.681 30.8612 22.696C30.8312 22.711 30.7862 22.7185 30.7262 22.7185ZM27.847 4.67866C27.8171 4.67866 27.7871 4.69366 27.7571 4.72365C27.7271 4.75364 27.7121 4.78363 27.7121 4.81362V6.74807C27.7121 6.77806 27.7271 6.80805 27.7571 6.83805C27.7871 6.86804 27.8171 6.88303 27.847 6.88303H28.8368C29.1367 6.88303 29.3916 6.77806 29.6015 6.56812C29.8115 6.35818 29.9165 6.08826 29.9165 5.75835C29.9165 5.45844 29.8115 5.20351 29.6015 4.99357C29.3916 4.78363 29.1367 4.67866 28.8368 4.67866H27.847ZM26.0925 10.437V3.05913H28.8368C29.5865 3.05913 30.2239 3.32155 30.7487 3.8464C31.2736 4.37125 31.536 5.00857 31.536 5.75835C31.536 6.50814 31.2736 7.15296 30.7487 7.6928C30.2239 8.23265 29.5865 8.50257 28.8368 8.50257H27.847C27.8171 8.50257 27.7871 8.51757 27.7571 8.54756C27.7271 8.57755 27.7121 8.60754 27.7121 8.63753V10.437H26.0925ZM5.98329 2.74422C5.08355 2.74422 4.31877 3.05913 3.68895 3.68895C3.05913 4.31877 2.74422 5.08355 2.74422 5.98329C2.74422 6.85304 3.05913 7.60283 3.68895 8.23265C4.31877 8.86247 5.08355 9.17738 5.98329 9.17738C6.85304 9.17738 7.60283 8.86247 8.23265 8.23265C8.86247 7.60283 9.17738 6.85304 9.17738 5.98329C9.17738 5.08355 8.86247 4.31877 8.23265 3.68895C7.60283 3.05913 6.85304 2.74422 5.98329 2.74422ZM13.8111 33.4704V21.3239C13.8111 21.2939 13.7961 21.2639 13.7661 21.2339C13.7361 21.2039 13.6911 21.1889 13.6311 21.1889H4.58869V11.8766C4.58869 11.8466 4.58119 11.8166 4.5662 11.7866C4.5512 11.7566 4.52871 11.7416 4.49871 11.7416C3.1491 11.4117 2.06191 10.7069 1.23715 9.62725C0.412382 8.54756 0 7.3329 0 5.98329C0 4.33376 0.584833 2.92416 1.7545 1.7545C2.92416 0.584833 4.33376 0 5.98329 0C7.63282 0 9.04242 0.584833 10.2121 1.7545C11.3817 2.92416 11.9666 4.33376 11.9666 5.98329C11.9666 7.3329 11.5467 8.54756 10.7069 9.62725C9.86718 10.7069 8.78749 11.4117 7.46787 11.7416C7.43787 11.7416 7.41538 11.7566 7.40039 11.7866C7.38539 11.8166 7.37789 11.8466 7.37789 11.8766V18.2648C7.37789 18.2948 7.38539 18.3248 7.40039 18.3548C7.41538 18.3847 7.45287 18.3997 7.51285 18.3997H16.5553V30.5463C16.5553 30.5763 16.5703 30.6063 16.6003 30.6362C16.6302 30.6662 16.6752 30.6812 16.7352 30.6812H24.2481V33.4704H13.8111Z" fill="black" fill-opacity="0.6"/>
</svg>
