<svg width="27" height="35" viewBox="0 0 27 35" fill="none" xmlns="http://www.w3.org/2000/svg">
<path d="M25.4138 6.67796L23.9373 6.54373V0.794308C23.931 0.679424 23.9021 0.566912 23.8522 0.463248C23.8023 0.359584 23.7324 0.266815 23.6464 0.190283C23.5494 0.114301 23.4377 0.059184 23.3184 0.0283871C23.199 -0.00240986 23.0746 -0.00822284 22.9529 0.0113125L0.581653 4.48557C0.434605 4.51073 0.296181 4.57225 0.17897 4.66454C0.0644806 4.79435 0.000900607 4.96125 0 5.13434V31.9799C0.00286403 32.1809 0.0829674 32.3732 0.223713 32.5168C0.35595 32.6511 0.529079 32.7377 0.71588 32.7629L25.3243 35C25.5314 34.9942 25.7296 34.9149 25.8836 34.7763C25.9714 34.6978 26.0409 34.6011 26.0873 34.4929C26.1337 34.3847 26.1558 34.2676 26.152 34.1499V7.30435C26.1103 7.13566 26.0165 6.98439 25.884 6.87196C25.7515 6.75953 25.587 6.69166 25.4138 6.67796ZM22.2594 6.38713L6.59953 4.95537L22.2594 1.82339V6.38713ZM24.4966 33.434L1.56599 31.3535V6.18579L24.4966 8.26632V33.434Z" fill="black" fill-opacity="0.6"/>
<path d="M5.1006 15.0448L20.7605 17.282H20.8724C21.0759 17.2784 21.2713 17.2019 21.4232 17.0664C21.5751 16.9309 21.6733 16.7455 21.7001 16.5437V16.4542C21.6973 16.254 21.624 16.0613 21.4931 15.9098C21.3621 15.7584 21.1819 15.6581 20.9842 15.6265L5.32432 13.3893C5.21506 13.3703 5.10306 13.3741 4.99533 13.4004C4.8876 13.4267 4.78647 13.475 4.69826 13.5422C4.61005 13.6094 4.53667 13.6941 4.48272 13.791C4.42877 13.8879 4.39541 13.9949 4.38472 14.1052C4.369 14.2141 4.37513 14.325 4.40274 14.4314C4.43035 14.5379 4.4789 14.6377 4.54555 14.7252C4.6122 14.8127 4.69561 14.886 4.79091 14.9409C4.88621 14.9958 4.99149 15.0311 5.1006 15.0448ZM20.9842 19.4743L5.32432 17.2372C5.21562 17.2225 5.10509 17.2294 4.99904 17.2574C4.89299 17.2854 4.79351 17.3341 4.70626 17.4006C4.53005 17.5348 4.41439 17.7336 4.38472 17.9531C4.35506 18.1726 4.41381 18.3949 4.54807 18.5712C4.68232 18.7474 4.88107 18.863 5.1006 18.8927L20.7605 21.1298H20.8724C21.0759 21.1262 21.2713 21.0497 21.4232 20.9143C21.5751 20.7788 21.6733 20.5933 21.7001 20.3916C21.7254 20.1752 21.6645 19.9576 21.5305 19.7859C21.3965 19.6142 21.2002 19.5023 20.9842 19.4743Z" fill="black" fill-opacity="0.6"/>
</svg>
