<svg width="18" height="18" viewBox="0 0 18 18" fill="none" xmlns="http://www.w3.org/2000/svg">
<path d="M7.98047 6.29297L9.24609 5.02734L13.5 9.28125L9.28125 13.5L7.98047 12.2344L10.0547 10.1602L4.21875 10.1602V8.36719H10.0547L7.98047 6.29297ZM9 1.79297C9.98438 1.79297 10.9219 1.98047 11.8125 2.35547C12.6797 2.73047 13.4414 3.24609 14.0977 3.90234C14.7539 4.55859 15.2695 5.32031 15.6445 6.1875C16.0195 7.07812 16.207 8.01562 16.207 9C16.207 9.98438 16.0195 10.9219 15.6445 11.8125C15.2695 12.6797 14.7539 13.4414 14.0977 14.0977C13.4414 14.7539 12.6797 15.2695 11.8125 15.6445C10.9219 16.0195 9.98438 16.207 9 16.207C8.01562 16.207 7.07812 16.0195 6.1875 15.6445C5.32031 15.2695 4.55859 14.7539 3.90234 14.0977C3.24609 13.4414 2.73047 12.6797 2.35547 11.8125C1.98047 10.9219 1.79297 9.98437 1.79297 9C1.79297 8.01562 1.98047 7.07812 2.35547 6.1875C2.73047 5.32031 3.24609 4.55859 3.90234 3.90234C4.55859 3.24609 5.32031 2.73047 6.1875 2.35547C7.07813 1.98047 8.01563 1.79297 9 1.79297ZM9 18C10.2422 18 11.4141 17.7656 12.5156 17.2969C13.5938 16.8281 14.543 16.1836 15.3633 15.3633C16.1836 14.543 16.8281 13.5938 17.2969 12.5156C17.7656 11.4141 18 10.2422 18 9C18 7.75781 17.7656 6.58594 17.2969 5.48438C16.8281 4.40625 16.1836 3.45703 15.3633 2.63672C14.543 1.81641 13.5938 1.17188 12.5156 0.703125C11.4141 0.234375 10.2422 0 9 0C7.75781 0 6.58594 0.234375 5.48438 0.703125C4.40625 1.17188 3.45703 1.81641 2.63672 2.63672C1.81641 3.45703 1.17188 4.40625 0.703125 5.48437C0.234375 6.58594 0 7.75781 0 9C0 10.2422 0.234375 11.4141 0.703125 12.5156C1.17188 13.5937 1.81641 14.543 2.63672 15.3633C3.45703 16.1836 4.40625 16.8281 5.48438 17.2969C6.58594 17.7656 7.75781 18 9 18Z" fill="white"/>
</svg>
