<svg width="49" height="49" viewBox="0 0 49 49" fill="none" xmlns="http://www.w3.org/2000/svg">
<path d="M37.3936 26.1619C37.1577 25.9257 36.8776 25.7382 36.5693 25.6104C36.2609 25.4825 35.9304 25.4167 35.5966 25.4167C35.2628 25.4167 34.9323 25.4825 34.6239 25.6104C34.3156 25.7382 34.0355 25.9257 33.7996 26.1619L29.7482 30.2133C27.8699 29.6541 24.365 28.3833 22.1436 26.1619C19.9221 23.9405 18.6513 20.4355 18.0921 18.5572L22.1436 14.5058C22.3798 14.27 22.5672 13.9899 22.6951 13.6815C22.823 13.3732 22.8888 13.0427 22.8888 12.7088C22.8888 12.375 22.823 12.0445 22.6951 11.7362C22.5672 11.4278 22.3798 11.1477 22.1436 10.9119L11.9769 0.745219C11.741 0.508982 11.4609 0.321565 11.1526 0.193692C10.8443 0.0658192 10.5137 0 10.1799 0C9.84612 0 9.51559 0.0658192 9.20725 0.193692C8.8989 0.321565 8.6188 0.508982 8.38297 0.745219L1.48997 7.63822C0.524134 8.60405 -0.019783 9.9308 0.000550385 11.2855C0.0590087 14.9048 1.01722 27.4759 10.9246 37.3833C20.8321 47.2908 33.4031 48.2464 37.025 48.3074H37.0962C38.4382 48.3074 39.7065 47.7788 40.6672 46.818L47.5602 39.925C47.7965 39.6892 47.9839 39.4091 48.1117 39.1007C48.2396 38.7924 48.3054 38.4619 48.3054 38.1281C48.3054 37.7942 48.2396 37.4637 48.1117 37.1554C47.9839 36.847 47.7965 36.5669 47.5602 36.3311L37.3936 26.1619ZM37.0708 43.2215C33.8988 43.1682 23.0458 42.3167 14.5186 33.7869C5.9633 25.2316 5.13472 14.3406 5.08388 11.2321L10.1799 6.1361L16.7527 12.7088L13.4663 15.9952C13.1676 16.2937 12.9479 16.662 12.8272 17.0667C12.7065 17.4714 12.6885 17.8998 12.775 18.3132C12.836 18.6055 14.3279 25.5366 18.5471 29.7558C22.7663 33.975 29.6974 35.4669 29.9897 35.5279C30.4028 35.6168 30.8317 35.6003 31.2367 35.4799C31.6418 35.3595 32.0101 35.1392 32.3077 34.8391L35.5966 31.5528L42.1693 38.1255L37.0708 43.2215Z" fill="white"/>
</svg>
