<svg width="35" height="35" viewBox="0 0 35 35" fill="none" xmlns="http://www.w3.org/2000/svg">
<path d="M20.1577 8.44913L17.5001 11.3324L16.6978 19.4305C15.0682 19.8567 13.8647 21.361 13.8647 23.116C13.8647 24.6203 14.7423 25.9241 15.9958 26.5508L15.72 29.4592L17.9013 29.7851L18.5531 26.8517C20.258 26.4756 21.5617 24.9463 21.5617 23.116C21.5617 21.8875 20.9851 20.8094 20.0825 20.1074L21.9127 11.9341L20.1577 8.44913Z" fill="black" fill-opacity="0.6"/>
<path d="M17.5 0C7.84742 0 0 7.84742 0 17.5C0 27.1526 7.84742 35 17.5 35C27.1526 35 35 27.1526 35 17.5C35 7.84742 27.1526 0 17.5 0ZM17.5 33.245C8.82522 33.245 1.75502 26.1748 1.75502 17.5C1.75502 8.82522 8.82522 1.75501 17.5 1.75501C26.1748 1.75501 33.245 8.82522 33.245 17.5C33.245 26.1748 26.1748 33.245 17.5 33.245Z" fill="black" fill-opacity="0.6"/>
<path d="M6.54374 16.2966H3.836C3.35964 16.2966 2.9585 16.6977 2.9585 17.1741C2.9585 17.6504 3.35964 18.0516 3.836 18.0516H6.54374C7.0201 18.0516 7.42125 17.6504 7.42125 17.1741C7.42125 16.6977 7.0201 16.2966 6.54374 16.2966ZM9.0509 6.8195C8.75004 6.44342 8.1734 6.39328 7.82239 6.71921C7.44632 7.02007 7.39617 7.59672 7.72211 7.94772L9.35176 9.90331C9.52726 10.1039 9.77798 10.2042 10.0287 10.2042C10.2293 10.2042 10.4298 10.129 10.6053 10.0036C10.9814 9.70274 11.0316 9.12609 10.7056 8.77509L9.0509 6.8195ZM30.9384 16.2966H27.9298C27.4535 16.2966 27.0523 16.6977 27.0523 17.1741C27.0523 17.6504 27.4535 18.0516 27.9298 18.0516H30.9384C31.4148 18.0516 31.8159 17.6504 31.8159 17.1741C31.8159 16.6977 31.4148 16.2966 30.9384 16.2966ZM26.9019 6.69414C26.5258 6.39328 25.9743 6.49357 25.6734 6.86964L24.144 8.90044C23.8432 9.27652 23.9435 9.82809 24.3195 10.129C24.47 10.2543 24.6705 10.3045 24.846 10.3045C25.1218 10.3045 25.3725 10.1791 25.548 9.95345L27.0774 7.92265C27.3783 7.5215 27.3031 6.96993 26.9019 6.69414ZM17.7006 7.42122C18.177 7.42122 18.5781 7.02007 18.5781 6.54371V3.56019C18.5781 3.08382 18.177 2.68268 17.7006 2.68268C17.2243 2.68268 16.8231 3.05875 16.8231 3.56019V6.54371C16.8231 7.02007 17.2243 7.42122 17.7006 7.42122Z" fill="black" fill-opacity="0.6"/>
</svg>
