<svg width="35" height="34" viewBox="0 0 35 34" fill="none" xmlns="http://www.w3.org/2000/svg">
<path d="M6.55252 12.5343H21.3014C21.8037 12.5343 22.1918 12.1233 22.1918 11.6438V4.68037C22.1918 4.17809 21.7808 3.78996 21.3014 3.78996H6.55252C6.05024 3.78996 5.66211 4.20092 5.66211 4.68037V11.6667C5.66211 12.1461 6.07307 12.5343 6.55252 12.5343ZM7.46576 5.57079H20.411V10.7534H7.46576V5.57079Z" fill="black" fill-opacity="0.6"/>
<path d="M35 9.88585C35 9.61187 34.9772 9.36073 34.9087 9.08676C35.0457 8.78996 35.0228 8.40183 34.7945 8.12785L28.8584 0.821918C28.5388 0.43379 27.9909 0.388128 27.6027 0.684932C27.2146 1.00457 27.1689 1.55251 27.4658 1.94064L31.0046 6.27854C29.2237 6.48402 27.831 7.99087 27.831 9.84018C27.831 11.5068 28.9726 12.8995 30.5251 13.3105V17.6941C30.5251 23.6073 30.4795 29.4292 30.0457 30.5023C30 30.5023 29.9543 30.5023 29.9087 30.4795C29.7717 30.4566 29.6119 30.4566 29.4292 30.4566C28.9726 29.9087 29.0411 26.895 29.0868 24.6804C29.1096 23.7443 29.1324 22.7626 29.1324 21.7352C29.1324 16.9635 28.3562 14.1096 26.7352 13.0594C26.4155 12.8539 26.1187 12.7397 25.8219 12.6941V3.9726C25.8219 1.78082 24.0411 0 21.8493 0H6.14155C3.94977 0 2.16895 1.78082 2.16895 3.9726V28.8128C2.16895 29.7717 2.51142 30.6393 3.05936 31.3242H0.890411C0.388128 31.3242 0 31.7352 0 32.2146C0 32.7169 0.410959 33.105 0.890411 33.105H26.9178C27.4201 33.105 27.8082 32.6941 27.8082 32.2146C27.8082 31.7123 27.3973 31.3242 26.9178 31.3242H24.9087C25.4795 30.6393 25.7991 29.7717 25.7991 28.8128V14.6575C26.2329 15.0228 27.3059 16.4612 27.3059 21.7808C27.3059 22.7626 27.2831 23.7443 27.2603 24.6804C27.1689 28.653 27.1689 30.7763 28.1507 31.7808C28.4703 32.1005 28.8813 32.2831 29.3379 32.2831C29.4521 32.2831 29.5662 32.2831 29.6804 32.3059C29.7945 32.3288 29.9315 32.3288 30.0913 32.3288C30.4338 32.3288 30.8219 32.2603 31.1644 31.9406C32.0548 31.1416 32.2831 29.6347 32.2831 17.7169V13.3562C33.8584 12.9452 35 11.5525 35 9.88585ZM3.9726 3.9726C3.9726 2.76256 4.95434 1.80365 6.14155 1.80365H21.8493C23.0594 1.80365 24.0183 2.78539 24.0183 3.9726V28.8128C24.0183 30.0228 23.0365 30.9817 21.8493 30.9817H6.14155C4.93151 30.9817 3.9726 30 3.9726 28.8128V3.9726ZM31.4155 11.6667C30.4338 11.6667 29.6347 10.8676 29.6347 9.88585C29.6347 8.90411 30.4338 8.10502 31.4155 8.10502C32.3973 8.10502 33.1963 8.90411 33.1963 9.88585C33.2192 10.8676 32.3973 11.6667 31.4155 11.6667Z" fill="black" fill-opacity="0.6"/>
<path d="M16.9178 13.516H10.9361C10.4338 13.516 10.0457 13.927 10.0457 14.4064V16.8493C10.0457 17.3516 10.4566 17.7397 10.9361 17.7397H16.9178C17.4201 17.7397 17.8082 17.3288 17.8082 16.8493V14.4292C17.8082 13.927 17.4201 13.516 16.9178 13.516ZM16.0274 15.9589H11.8265V15.3196H16.0046V15.9589H16.0274Z" fill="black" fill-opacity="0.6"/>
</svg>
