<svg width="35" height="23" viewBox="0 0 35 23" fill="none" xmlns="http://www.w3.org/2000/svg">
<path d="M34.3067 9.53782H31.5546C31.3708 9.53782 31.1944 9.61086 31.0644 9.74087C30.9344 9.87089 30.8613 10.0472 30.8613 10.2311V11.8277H30.105L28.5924 9.91597C28.5405 9.80352 28.4576 9.70822 28.3534 9.64124C28.2492 9.57426 28.1281 9.53839 28.0042 9.53782H25.3782V7.01681C25.3782 6.83652 25.3081 6.66329 25.1826 6.53387C25.0571 6.40444 24.8861 6.32899 24.7059 6.32353H17.1639V4.53781H18.6345C18.7255 4.53781 18.8156 4.51988 18.8998 4.48504C18.9839 4.4502 19.0603 4.39914 19.1247 4.33476C19.1891 4.27038 19.2401 4.19396 19.275 4.10984C19.3098 4.02573 19.3277 3.93558 19.3277 3.84454V0.693277C19.3277 0.509409 19.2547 0.333071 19.1247 0.203056C18.9947 0.0730418 18.8183 0 18.6345 0H10.7353C10.5514 0 10.3751 0.0730418 10.2451 0.203056C10.1151 0.333071 10.042 0.509409 10.042 0.693277V3.86555C10.042 4.04942 10.1151 4.22575 10.2451 4.35577C10.3751 4.48578 10.5514 4.55882 10.7353 4.55882H12.437V6.34454H9.30672C9.12652 6.35 8.95553 6.42545 8.83003 6.55487C8.70452 6.6843 8.63437 6.85753 8.63445 7.03782V9.53782H4.89496C4.71475 9.54328 4.54377 9.61872 4.41826 9.74815C4.29276 9.87758 4.22261 10.0508 4.22269 10.2311V13.2353H1.86975V12.521C1.86428 12.3408 1.78884 12.1698 1.65941 12.0443C1.52998 11.9188 1.35676 11.8487 1.17647 11.8487H0.693277C0.512992 11.8487 0.339764 11.9188 0.210337 12.0443C0.0809097 12.1698 0.00546319 12.3408 0 12.521V15.7983C0 15.9822 0.0730415 16.1585 0.203056 16.2885C0.333071 16.4186 0.509409 16.4916 0.693277 16.4916H1.15546C1.2465 16.4916 1.33666 16.4737 1.42077 16.4388C1.50488 16.404 1.58131 16.3529 1.64568 16.2885C1.71006 16.2242 1.76113 16.1477 1.79597 16.0636C1.83081 15.9795 1.84874 15.8894 1.84874 15.7983V15H4.2437V18.5084C4.24337 18.6852 4.31062 18.8555 4.43168 18.9843C4.55274 19.1132 4.71847 19.191 4.89496 19.2017H9.09664L12.0798 22.3109C12.1404 22.3787 12.215 22.4326 12.2984 22.4689C12.3818 22.5051 12.4721 22.5229 12.563 22.521H24.6429C24.7857 22.5211 24.9251 22.4771 25.042 22.395L29.8109 18.9076H30.8613V20.3151C30.8613 20.499 30.9344 20.6753 31.0644 20.8053C31.1944 20.9354 31.3708 21.0084 31.5546 21.0084H34.3067C34.4906 21.0084 34.6669 20.9354 34.7969 20.8053C34.927 20.6753 35 20.499 35 20.3151V10.2311C35 10.0472 34.927 9.87089 34.7969 9.74087C34.6669 9.61086 34.4906 9.53782 34.3067 9.53782ZM11.4286 1.38655H17.9412V3.23529H11.4286V1.38655ZM13.8235 4.55882H15.7983V6.34454H13.8235V4.55882ZM8.55042 17.8151H5.60924V10.8193H8.55042V17.8151ZM24.4118 21.1555H12.7731L10 18.2353V7.73109H23.9496V10.3781C23.9586 10.5554 24.0249 10.725 24.1387 10.8613C24.2006 10.9332 24.2784 10.9896 24.3659 11.0261C24.4534 11.0625 24.5483 11.0781 24.6429 11.0714H27.605L28.9706 12.8151V17.8361L24.4118 21.1555ZM30.3361 17.521V13.3193H30.8613V17.521H30.3361ZM33.6134 19.6218H32.2059V10.9244H33.5924L33.6134 19.6218Z" fill="black" fill-opacity="0.6"/>
</svg>
