<svg width="35" height="35" viewBox="0 0 35 35" fill="none" xmlns="http://www.w3.org/2000/svg">
<path d="M17.5 35C7.84483 35 0 27.1552 0 17.5C0 7.84483 7.84483 0 17.5 0C27.1552 0 35 7.84483 35 17.5C35 27.1552 27.1552 35 17.5 35ZM17.5 2.41379C9.17241 2.41379 2.41379 9.17241 2.41379 17.5C2.41379 25.8276 9.17241 32.5862 17.5 32.5862C25.8276 32.5862 32.5862 25.8276 32.5862 17.5C32.5862 9.17241 25.8276 2.41379 17.5 2.41379Z" fill="#9362A6"/>
<path d="M17.4998 30.8966C24.8985 30.8966 30.8964 24.8987 30.8964 17.5C30.8964 10.1013 24.8985 4.10345 17.4998 4.10345C10.1011 4.10345 4.10327 10.1013 4.10327 17.5C4.10327 24.8987 10.1011 30.8966 17.4998 30.8966Z" fill="#9362A6"/>
<path d="M20.0345 23.5345H16.6552V17.1379V14.9655L15.9311 15.6896L14.6035 16.7759L12.9138 14.7241L17.0173 11.3448H19.9138V23.5345H20.0345Z" fill="white"/>
</svg>
