<svg width="19" height="32" viewBox="0 0 19 32" fill="none" xmlns="http://www.w3.org/2000/svg">
<path d="M1.5 32H17.5C18.327 32 19 31.327 19 30.5V1.5C19 0.673 18.327 0 17.5 0H1.5C0.673 0 0 0.673 0 1.5V30.5C0 31.327 0.673 32 1.5 32ZM1 1.5C1 1.36739 1.05268 1.24021 1.14645 1.14645C1.24021 1.05268 1.36739 1 1.5 1H17.5C17.6326 1 17.7598 1.05268 17.8536 1.14645C17.9473 1.24021 18 1.36739 18 1.5V30.5C18 30.6326 17.9473 30.7598 17.8536 30.8536C17.7598 30.9473 17.6326 31 17.5 31H1.5C1.36739 31 1.24021 30.9473 1.14645 30.8536C1.05268 30.7598 1 30.6326 1 30.5V1.5Z" fill="white"/>
<path d="M2.5 27H16.5C16.6326 27 16.7598 26.9473 16.8536 26.8536C16.9473 26.7598 17 26.6326 17 26.5V5.5C17 5.36739 16.9473 5.24021 16.8536 5.14645C16.7598 5.05268 16.6326 5 16.5 5H2.5C2.36739 5 2.24021 5.05268 2.14645 5.14645C2.05268 5.24021 2 5.36739 2 5.5V26.5C2 26.6326 2.05268 26.7598 2.14645 26.8536C2.24021 26.9473 2.36739 27 2.5 27ZM3 6H16V26H3V6Z" fill="white"/>
<path d="M10 30C10.5523 30 11 29.5523 11 29C11 28.4477 10.5523 28 10 28C9.44772 28 9 28.4477 9 29C9 29.5523 9.44772 30 10 30Z" fill="white"/>
<path d="M7.5 4H11.5C11.6326 4 11.7598 3.94732 11.8536 3.85355C11.9473 3.75979 12 3.63261 12 3.5C12 3.36739 11.9473 3.24021 11.8536 3.14645C11.7598 3.05268 11.6326 3 11.5 3H7.5C7.36739 3 7.24021 3.05268 7.14645 3.14645C7.05268 3.24021 7 3.36739 7 3.5C7 3.63261 7.05268 3.75979 7.14645 3.85355C7.24021 3.94732 7.36739 4 7.5 4Z" fill="white"/>
</svg>
