<svg width="12" height="12" viewBox="0 0 12 12" fill="none" xmlns="http://www.w3.org/2000/svg">
<path d="M0.492188 12H3C3.32812 12 3.49219 11.8359 3.49219 11.5078C3.49219 11.1641 3.32812 10.9922 3 10.9922H1.71094L4.85156 7.85156C5.05469 7.61719 5.05469 7.38281 4.85156 7.14844C4.61719 6.94531 4.38281 6.94531 4.14844 7.14844L1.00781 10.2891V9C1.00781 8.67188 0.835938 8.50781 0.492188 8.50781C0.164062 8.50781 0 8.67188 0 9V11.5078C0 11.6484 0.046875 11.7656 0.140625 11.8594C0.234375 11.9531 0.351562 12 0.492188 12ZM11.5078 8.50781C11.1641 8.50781 10.9922 8.67188 10.9922 9V10.2891L7.85156 7.14844C7.61719 6.94531 7.38281 6.94531 7.14844 7.14844C6.94531 7.38281 6.94531 7.61719 7.14844 7.85156L10.2891 10.9922H9C8.67188 10.9922 8.50781 11.1641 8.50781 11.5078C8.50781 11.8359 8.67188 12 9 12H11.5078C11.6484 12 11.7656 11.9531 11.8594 11.8594C11.9531 11.7656 12 11.6484 12 11.5078V9C12 8.67188 11.8359 8.50781 11.5078 8.50781ZM11.5078 0H9C8.67188 0 8.50781 0.164062 8.50781 0.492188C8.50781 0.835938 8.67188 1.00781 9 1.00781H10.2891L7.14844 4.14844C6.94531 4.38281 6.94531 4.61719 7.14844 4.85156C7.24219 4.94531 7.35938 4.99219 7.5 4.99219C7.64062 4.99219 7.75781 4.94531 7.85156 4.85156L10.9922 1.71094V3C10.9922 3.32812 11.1641 3.49219 11.5078 3.49219C11.8359 3.49219 12 3.32812 12 3V0.492188C12 0.351562 11.9531 0.234375 11.8594 0.140625C11.7656 0.046875 11.6484 0 11.5078 0ZM0.492188 3.49219C0.835938 3.49219 1.00781 3.32812 1.00781 3V1.71094L4.14844 4.85156C4.24219 4.94531 4.35938 4.99219 4.5 4.99219C4.64062 4.99219 4.75781 4.94531 4.85156 4.85156C5.05469 4.61719 5.05469 4.38281 4.85156 4.14844L1.71094 1.00781H3C3.32812 1.00781 3.49219 0.835938 3.49219 0.492188C3.49219 0.164062 3.32812 0 3 0H0.492188C0.351562 0 0.234375 0.046875 0.140625 0.140625C0.046875 0.234375 0 0.351562 0 0.492188V3C0 3.32812 0.164062 3.49219 0.492188 3.49219Z" fill="black"/>
</svg>
