<svg width="32" height="35" viewBox="0 0 32 35" fill="none" xmlns="http://www.w3.org/2000/svg">
<path d="M14.4422 23.7567V19.0995C14.4422 19.0367 14.4265 18.9897 14.3952 18.9583C14.3638 18.927 14.3168 18.9113 14.254 18.9113H7.85618C7.82482 18.9113 7.79346 18.927 7.7621 18.9583C7.73073 18.9897 7.71505 19.0367 7.71505 19.0995V23.7567H4.79839V19.0995C4.79839 19.0367 4.78271 18.9897 4.75134 18.9583C4.71998 18.927 4.68862 18.9113 4.65726 18.9113H0V16.0417H4.65726C4.68862 16.0417 4.71998 16.026 4.75134 15.9946C4.78271 15.9633 4.79839 15.9319 4.79839 15.9005V11.2433H7.71505V15.9005C7.71505 15.9319 7.73073 15.9633 7.7621 15.9946C7.79346 16.026 7.82482 16.0417 7.85618 16.0417H14.254C14.3168 16.0417 14.3638 16.026 14.3952 15.9946C14.4265 15.9633 14.4422 15.9319 14.4422 15.9005V11.2433H17.3118V15.9005C17.3118 15.9319 17.3275 15.9633 17.3589 15.9946C17.3902 16.026 17.4373 16.0417 17.5 16.0417H23.8979C23.9606 16.0417 24.0076 16.026 24.039 15.9946C24.0703 15.9633 24.086 15.9319 24.086 15.9005V11.2433H26.9556V15.9005C26.9556 15.9319 26.9713 15.9633 27.0027 15.9946C27.034 16.026 27.0811 16.0417 27.1438 16.0417H31.8011V18.9113H17.5C17.4373 18.9113 17.3902 18.927 17.3589 18.9583C17.3275 18.9897 17.3118 19.0367 17.3118 19.0995V23.7567H14.4422ZM24.6035 28.1317C24.5408 28.1317 24.4937 28.1474 24.4624 28.1788C24.431 28.2101 24.4153 28.2415 24.4153 28.2729V30.578C24.4153 30.6093 24.431 30.6407 24.4624 30.672C24.4937 30.7034 24.5408 30.7191 24.6035 30.7191H25.7325C26.1089 30.7191 26.4225 30.5936 26.6734 30.3427C26.9243 30.0918 27.0497 29.7782 27.0497 29.4019C27.0497 29.0569 26.9243 28.759 26.6734 28.5081C26.4225 28.2572 26.1089 28.1317 25.7325 28.1317H24.6035ZM26.5323 35L25.3091 32.789L24.6035 32.6949C24.5408 32.6949 24.4937 32.7106 24.4624 32.7419C24.431 32.7733 24.4153 32.8203 24.4153 32.8831V35H22.4866V26.1559H25.7325C26.642 26.1559 27.4182 26.4774 28.0612 27.1203C28.7041 27.7632 29.0255 28.5237 29.0255 29.4019C29.0255 29.9664 28.8844 30.4996 28.6021 31.0013C28.3199 31.5031 27.9435 31.9108 27.4731 32.2245C27.4418 32.2245 27.4182 32.248 27.4026 32.295C27.3869 32.3421 27.3947 32.3813 27.4261 32.4126L28.9315 35H26.5323ZM5.3629 9.31452V3.10484C5.3629 3.07348 5.35506 3.04211 5.33938 3.01075C5.3237 2.97939 5.30018 2.96371 5.26882 2.96371C5.26882 2.96371 5.26098 2.96371 5.2453 2.96371C5.22961 2.96371 5.22177 2.96371 5.22177 2.96371C5.19041 2.96371 5.16689 2.96371 5.15121 2.96371C5.13553 2.96371 5.11201 2.97939 5.08065 3.01075L4.23387 3.85753L3.10484 2.72849L5.59812 0.235215C5.6922 0.141129 5.78629 0.078405 5.88038 0.047043C5.97446 0.015681 6.06855 0 6.16263 0C6.22536 0 6.28024 0 6.32728 0C6.37433 0 6.42921 0.015681 6.49194 0.047043C6.64875 0.109767 6.76635 0.211694 6.84476 0.352823C6.92316 0.493952 6.96237 0.642921 6.96237 0.799731V9.31452H5.3629ZM3.99866 35C3.84185 35 3.69288 34.953 3.55175 34.8589C3.41062 34.7648 3.30869 34.6393 3.24597 34.4825C3.18324 34.3571 3.16756 34.2081 3.19892 34.0356C3.23029 33.8631 3.30869 33.7298 3.43414 33.6358C4.18683 32.8831 4.97872 31.9579 5.80981 30.8602C6.6409 29.7625 7.05645 28.9471 7.05645 28.414C7.05645 28.1004 6.94668 27.8338 6.72715 27.6142C6.50762 27.3947 6.24104 27.2849 5.92742 27.2849C5.6138 27.2849 5.34722 27.3947 5.12769 27.6142C4.90815 27.8338 4.79839 28.1004 4.79839 28.414V29.2137H3.19892V28.414C3.19892 27.6613 3.4655 27.0184 3.99866 26.4852C4.53181 25.9521 5.17473 25.6855 5.92742 25.6855C6.68011 25.6855 7.32303 25.9521 7.85618 26.4852C8.38934 27.0184 8.65591 27.6613 8.65591 28.414C8.65591 29.1039 8.37366 29.888 7.80914 30.7661C7.24462 31.6443 6.66443 32.4283 6.06855 33.1183C6.03719 33.1496 6.02151 33.181 6.02151 33.2124C6.02151 33.2437 6.03719 33.2751 6.06855 33.3064C6.06855 33.3378 6.08423 33.3613 6.11559 33.377C6.14695 33.3927 6.17832 33.4005 6.20968 33.4005H8.65591V35H3.99866ZM16.1828 29.496C16.1828 29.496 16.1671 29.5038 16.1358 29.5195C16.1044 29.5352 16.0887 29.5587 16.0887 29.5901L14.9597 31.1895C14.9597 31.2209 14.9597 31.2522 14.9597 31.2836C14.9597 31.315 14.9597 31.3463 14.9597 31.3777C14.991 31.409 15.0146 31.4326 15.0302 31.4483C15.0459 31.4639 15.0694 31.4718 15.1008 31.4718H16.1828C16.2455 31.4718 16.2926 31.4561 16.3239 31.4247C16.3553 31.3934 16.371 31.3463 16.371 31.2836V29.6841C16.371 29.6214 16.3553 29.5822 16.3239 29.5665C16.2926 29.5509 16.2612 29.5273 16.2298 29.496C16.2298 29.496 16.2142 29.496 16.1828 29.496ZM16.371 35V33.2124C16.371 33.181 16.3553 33.1496 16.3239 33.1183C16.2926 33.0869 16.2455 33.0712 16.1828 33.0712H13.3132C13.1564 33.0712 13.0152 33.032 12.8898 32.9536C12.7643 32.8752 12.6703 32.7733 12.6075 32.6479C12.5448 32.5224 12.5134 32.3813 12.5134 32.2245C12.5134 32.0677 12.5605 31.9265 12.6546 31.8011L16.5121 26.0148C16.5748 25.9207 16.6689 25.8423 16.7944 25.7796C16.9198 25.7168 17.0452 25.6855 17.1707 25.6855C17.2021 25.6855 17.2413 25.6855 17.2883 25.6855C17.3354 25.6855 17.3746 25.7012 17.4059 25.7325C17.5627 25.7639 17.696 25.8501 17.8058 25.9913C17.9155 26.1324 17.9704 26.297 17.9704 26.4852V31.2836C17.9704 31.3463 17.9861 31.3934 18.0175 31.4247C18.0488 31.4561 18.0802 31.4718 18.1116 31.4718H18.9113V33.0712H18.1116C18.0802 33.0712 18.0488 33.0869 18.0175 33.1183C17.9861 33.1496 17.9704 33.181 17.9704 33.2124V35H16.371ZM23.0981 9.31452V7.71505H25.8266C26.1402 7.71505 26.4068 7.60529 26.6263 7.38575C26.8459 7.16622 26.9556 6.89964 26.9556 6.58602C26.9556 6.2724 26.8459 6.00582 26.6263 5.78629C26.4068 5.56676 26.1402 5.45699 25.8266 5.45699H23.0981V0H28.5551V1.59946H24.8858C24.823 1.59946 24.776 1.61514 24.7446 1.64651C24.7133 1.67787 24.6976 1.70923 24.6976 1.74059V3.66935C24.6976 3.73208 24.7133 3.77912 24.7446 3.81048C24.776 3.84185 24.823 3.85753 24.8858 3.85753H25.8266C26.5793 3.85753 27.2222 4.1241 27.7554 4.65726C28.2885 5.19041 28.5551 5.83333 28.5551 6.58602C28.5551 7.33871 28.2885 7.98163 27.7554 8.51478C27.2222 9.04794 26.5793 9.31452 25.8266 9.31452H23.0981ZM13.4543 7.71505H16.1828C16.4964 7.71505 16.763 7.60529 16.9825 7.38575C17.2021 7.16622 17.3118 6.89964 17.3118 6.58602C17.3118 6.2724 17.2021 6.00582 16.9825 5.78629C16.763 5.56676 16.4964 5.45699 16.1828 5.45699H15.3831V3.85753H16.1828C16.4964 3.85753 16.763 3.74776 16.9825 3.52823C17.2021 3.30869 17.3118 3.04211 17.3118 2.72849C17.3118 2.41487 17.2021 2.1483 16.9825 1.92876C16.763 1.70923 16.4964 1.59946 16.1828 1.59946H13.4543V0H16.1828C16.9355 0 17.5784 0.266577 18.1116 0.799731C18.6447 1.33289 18.9113 1.97581 18.9113 2.72849C18.9113 3.04211 18.8564 3.35573 18.7466 3.66935C18.6369 3.98298 18.4722 4.26523 18.2527 4.51613C18.2213 4.54749 18.2056 4.58669 18.2056 4.63374C18.2056 4.68078 18.2213 4.71998 18.2527 4.75134C18.4722 5.00224 18.6369 5.2845 18.7466 5.59812C18.8564 5.91174 18.9113 6.24104 18.9113 6.58602C18.9113 7.33871 18.6447 7.98163 18.1116 8.51478C17.5784 9.04794 16.9355 9.31452 16.1828 9.31452H13.4543V7.71505Z" fill="black" fill-opacity="0.6"/>
</svg>
