<svg width="30" height="29" viewBox="0 0 30 29" fill="none" xmlns="http://www.w3.org/2000/svg">
<path d="M14.564 29C6.56396 29 0.0639648 22.5 0.0639648 14.5C0.0639648 6.5 6.56396 0 14.564 0C22.564 0 29.064 6.5 29.064 14.5C29.064 22.5 22.564 29 14.564 29ZM14.564 2C7.66396 2 2.06396 7.6 2.06396 14.5C2.06396 21.4 7.66396 27 14.564 27C21.464 27 27.064 21.4 27.064 14.5C27.064 7.6 21.464 2 14.564 2V2Z" fill="#387742"/>
<path d="M14.5639 25.6C20.6942 25.6 25.6639 20.6304 25.6639 14.5C25.6639 8.36966 20.6942 3.40002 14.5639 3.40002C8.43351 3.40002 3.46387 8.36966 3.46387 14.5C3.46387 20.6304 8.43351 25.6 14.5639 25.6Z" fill="#387742"/>
<path d="M18.1639 14.5C18.1639 16.3 17.8639 17.6 17.2639 18.4C16.6639 19.2 15.7639 19.6 14.5639 19.6C13.3639 19.6 12.4639 19.2 11.8639 18.3C11.2639 17.4 10.9639 16.2 10.9639 14.5C10.9639 12.7 11.2639 11.4 11.8639 10.6C12.4639 9.80002 13.3639 9.40002 14.5639 9.40002C15.7639 9.40002 16.6639 9.80002 17.2639 10.7C17.8639 11.5 18.1639 12.8 18.1639 14.5V14.5ZM13.6639 14.5C13.6639 15.6 13.7639 16.4 13.8639 16.8C13.9639 17.2 14.2639 17.4 14.5639 17.4C14.8639 17.4 15.1639 17.2 15.2639 16.7C15.4639 16.4 15.4639 15.6 15.4639 14.5C15.4639 13.4 15.3639 12.6 15.2639 12.2C15.1639 11.8 14.8639 11.5 14.5639 11.5C14.2639 11.5 13.9639 11.7 13.8639 12.1C13.6639 12.6 13.6639 13.4 13.6639 14.5V14.5Z" fill="white"/>
</svg>
