<svg width="30" height="30" viewBox="0 0 30 30" fill="none" xmlns="http://www.w3.org/2000/svg">
<path d="M15.4805 29.271C7.48047 29.271 0.980469 22.771 0.980469 14.771C0.980469 6.771 7.48047 0.270996 15.4805 0.270996C23.4805 0.270996 29.9805 6.771 29.9805 14.771C29.9805 22.771 23.4805 29.271 15.4805 29.271ZM15.4805 2.271C8.58047 2.271 2.98047 7.871 2.98047 14.771C2.98047 21.671 8.58047 27.271 15.4805 27.271C22.3805 27.271 27.9805 21.671 27.9805 14.771C27.9805 7.871 22.3805 2.271 15.4805 2.271V2.271Z" fill="#FCCC02"/>
<path d="M15.4804 25.871C21.6107 25.871 26.5804 20.9014 26.5804 14.771C26.5804 8.64066 21.6107 3.67102 15.4804 3.67102C9.35001 3.67102 4.38037 8.64066 4.38037 14.771C4.38037 20.9014 9.35001 25.871 15.4804 25.871Z" fill="#FCCC02"/>
<path d="M19.1803 19.871H11.8803V18.071L14.3803 15.571C15.0803 14.871 15.5803 14.371 15.7803 14.071C15.9803 13.771 16.1803 13.571 16.2803 13.371C16.3803 13.171 16.3803 12.971 16.3803 12.771C16.3803 12.471 16.2803 12.271 16.0803 12.171C15.8803 11.971 15.6803 11.971 15.3803 11.971C15.0803 11.971 14.7803 12.071 14.3803 12.271C14.0803 12.471 13.6803 12.671 13.2803 13.071L11.7803 11.371C12.2803 10.871 12.7803 10.571 13.0803 10.371C13.4803 10.171 13.7803 9.97102 14.2803 9.87102C14.6803 9.77102 15.1803 9.67102 15.6803 9.67102C16.3803 9.67102 16.8803 9.77102 17.3803 9.97102C17.8803 10.171 18.2803 10.571 18.5803 10.971C18.8803 11.371 18.9803 11.871 18.9803 12.371C18.9803 12.771 18.9803 13.171 18.8803 13.471C18.7803 13.771 18.5803 14.171 18.3803 14.471C18.1803 14.771 17.8803 15.171 17.5803 15.471C17.2803 15.871 16.4803 16.471 15.3803 17.471V17.671H19.1803V19.871Z" fill="white"/>
<path d="M15.4805 29.271C7.48047 29.271 0.980469 22.771 0.980469 14.771C0.980469 6.771 7.48047 0.270996 15.4805 0.270996C23.4805 0.270996 29.9805 6.771 29.9805 14.771C29.9805 22.771 23.4805 29.271 15.4805 29.271ZM15.4805 2.271C8.58047 2.271 2.98047 7.871 2.98047 14.771C2.98047 21.671 8.58047 27.271 15.4805 27.271C22.3805 27.271 27.9805 21.671 27.9805 14.771C27.9805 7.871 22.3805 2.271 15.4805 2.271V2.271Z" fill="#FCCC02"/>
<path d="M15.4804 25.871C21.6107 25.871 26.5804 20.9014 26.5804 14.771C26.5804 8.64066 21.6107 3.67102 15.4804 3.67102C9.35001 3.67102 4.38037 8.64066 4.38037 14.771C4.38037 20.9014 9.35001 25.871 15.4804 25.871Z" fill="#FCCC02"/>
<path d="M19.1803 19.871H11.8803V18.071L14.3803 15.571C15.0803 14.871 15.5803 14.371 15.7803 14.071C15.9803 13.771 16.1803 13.571 16.2803 13.371C16.3803 13.171 16.3803 12.971 16.3803 12.771C16.3803 12.471 16.2803 12.271 16.0803 12.171C15.8803 11.971 15.6803 11.971 15.3803 11.971C15.0803 11.971 14.7803 12.071 14.3803 12.271C14.0803 12.471 13.6803 12.671 13.2803 13.071L11.7803 11.371C12.2803 10.871 12.7803 10.571 13.0803 10.371C13.4803 10.171 13.7803 9.97102 14.2803 9.87102C14.6803 9.77102 15.1803 9.67102 15.6803 9.67102C16.3803 9.67102 16.8803 9.77102 17.3803 9.97102C17.8803 10.171 18.2803 10.571 18.5803 10.971C18.8803 11.371 18.9803 11.871 18.9803 12.371C18.9803 12.771 18.9803 13.171 18.8803 13.471C18.7803 13.771 18.5803 14.171 18.3803 14.471C18.1803 14.771 17.8803 15.171 17.5803 15.471C17.2803 15.871 16.4803 16.471 15.3803 17.471V17.671H19.1803V19.871Z" fill="white"/>
</svg>
