<svg width="16" height="16" xmlns="http://www.w3.org/2000/svg"><path fill="white" d="M10.667 13v-1.667q0-.146-.094-.24-.094-.093-.24-.093h-1V5.667q0-.146-.094-.24T9 5.333H5.668q-.146 0-.24.094t-.094.24v1.666q0 .146.094.24t.24.094h1V11h-1q-.146 0-.24.094-.094.093-.094.24V13q0 .146.094.24.094.093.24.093h4.666q.146 0 .24-.093.094-.094.094-.24zM9.334 3.667V2q0-.146-.094-.24-.094-.093-.24-.093H7q-.146 0-.24.093-.094.094-.094.24v1.667q0 .146.094.24Q6.854 4 7 4h2q.146 0 .24-.094.094-.093.094-.24zM16 8q0 2.177-1.073 4.016-1.073 1.838-2.911 2.911Q10.177 16 8 16t-4.015-1.073q-1.839-1.073-2.912-2.911Q0 10.177 0 8t1.073-4.016q1.073-1.838 2.912-2.911Q5.823 0 8 0t4.016 1.073q1.838 1.073 2.911 2.911Q16 5.823 16 8z"/></svg>