<svg width="29" height="30" viewBox="0 0 29 30" fill="none" xmlns="http://www.w3.org/2000/svg">
<path d="M14.5 29.9097C6.5 29.9097 0 23.4097 0 15.4097C0 7.40967 6.5 0.909668 14.5 0.909668C22.5 0.909668 29 7.40967 29 15.4097C29 23.4097 22.5 29.9097 14.5 29.9097ZM14.5 2.90967C7.6 2.90967 2 8.50967 2 15.4097C2 22.3097 7.6 27.9097 14.5 27.9097C21.4 27.9097 27 22.3097 27 15.4097C27 8.50967 21.4 2.90967 14.5 2.90967V2.90967Z" fill="#F4973B"/>
<path d="M14.4999 26.5097C20.6303 26.5097 25.5999 21.5401 25.5999 15.4097C25.5999 9.27933 20.6303 4.30969 14.4999 4.30969C8.36954 4.30969 3.3999 9.27933 3.3999 15.4097C3.3999 21.5401 8.36954 26.5097 14.4999 26.5097Z" fill="#F4973B"/>
<path d="M17.7999 12.6097C17.7999 13.2097 17.5999 13.8097 17.1999 14.2097C16.7999 14.6097 16.2999 15.0097 15.5999 15.2097C17.2999 15.4097 18.0999 16.2097 18.0999 17.6097C18.0999 18.5097 17.6999 19.3097 16.9999 19.8097C16.2999 20.3097 15.1999 20.6097 13.8999 20.6097C13.3999 20.6097 12.8999 20.6097 12.3999 20.5097C11.8999 20.4097 11.3999 20.3097 10.8999 20.1097V17.8097C11.2999 18.0097 11.7999 18.2097 12.1999 18.3097C12.6999 18.4097 13.0999 18.5097 13.4999 18.5097C14.0999 18.5097 14.4999 18.4097 14.7999 18.2097C15.0999 18.0097 15.1999 17.8097 15.1999 17.4097C15.1999 17.1097 15.0999 16.9097 14.9999 16.8097C14.8999 16.7097 14.5999 16.5097 14.2999 16.5097C13.9999 16.5097 13.5999 16.3097 13.0999 16.3097H12.4999V14.3097H13.0999C14.4999 14.3097 15.1999 13.9097 15.1999 13.2097C15.1999 12.9097 15.0999 12.7097 14.8999 12.6097C14.6999 12.5097 14.3999 12.4097 14.0999 12.4097C13.4999 12.4097 12.7999 12.6097 12.0999 13.0097L10.8999 11.3097C11.3999 10.9097 11.9999 10.7097 12.4999 10.5097C13.0999 10.3097 13.6999 10.3097 14.3999 10.3097C15.3999 10.3097 16.2999 10.5097 16.7999 10.9097C17.4999 11.3097 17.7999 11.8097 17.7999 12.6097V12.6097Z" fill="white"/>
</svg>
