<?xml version="1.0" encoding="utf-8"?>
<!-- Generator: Adobe Illustrator 24.1.1, SVG Export Plug-In . SVG Version: 6.00 Build 0)  -->
<svg version="1.1" id="Calque_1" xmlns="http://www.w3.org/2000/svg" xmlns:xlink="http://www.w3.org/1999/xlink" x="0px" y="0px"
	 viewBox="0 0 214.5 21.61" style="enable-background:new 0 0 214.5 21.61;" xml:space="preserve">
<style type="text/css">
	.st0{fill:#FFFFFF;}
	.st1{fill:#FFC300;}
    .st2{fill:transparent;}
</style>
<path class="st0" d="M177.55,4.97v-3.5h-2v3.5H177.55z M179.86,3.97h-3.31v2h3.31V3.97z M180.86,20.14V4.97h-2v15.17H180.86z
	 M183.47,19.14h-3.61v2h3.61V19.14z M182.47,4.97v15.17h2V4.97H182.47z M186.87,3.97h-3.4v2h3.4V3.97z M185.87,1.47v3.5h2v-3.5
	H185.87z M176.55,2.47h10.32v-2h-10.32V2.47z M176.55,4.97h-1v1h1V4.97z M179.86,4.97h1v-1h-1V4.97z M179.86,20.14h-1v1h1V20.14z
	 M183.47,20.14v1h1v-1H183.47z M183.47,4.97v-1h-1v1H183.47z M186.87,4.97v1h1v-1H186.87z M186.87,1.47h1v-1h-1V1.47z M176.55,1.47
	v-1h-1v1H176.55z M160.16,20.14V1.47h-2v18.67H160.16z M162.71,19.14h-3.55v2h3.55V19.14z M161.71,7.89v12.25h2V7.89H161.71z
	 M171.55,19.6l-8-12.25l-1.67,1.09l8,12.25L171.55,19.6z M174.13,19.14h-3.42v2h3.42V19.14z M173.13,1.47v18.67h2V1.47H173.13z
	 M170.57,2.47h3.55v-2h-3.55V2.47z M171.57,13.76V1.47h-2v12.29H171.57z M161.72,2.02l8.01,12.29l1.68-1.09L163.4,0.92L161.72,2.02z
	 M159.16,2.47h3.4v-2h-3.4V2.47z M159.16,20.14h-1v1h1V20.14z M162.71,20.14v1h1v-1H162.71z M162.71,7.89l0.84-0.55l-1.84-2.81v3.36
	H162.71z M170.71,20.14l-0.84,0.55l0.3,0.45h0.54V20.14z M174.13,20.14v1h1v-1H174.13z M174.13,1.47h1v-1h-1V1.47z M170.57,1.47v-1
	h-1v1H170.57z M170.57,13.76l-0.84,0.55l1.84,2.82v-3.37H170.57z M162.56,1.47l0.84-0.55l-0.3-0.45h-0.54V1.47z M159.16,1.47v-1h-1
	v1H159.16z M146.63,20.14V1.47h-2v18.67H146.63z M155.82,19.14h-10.19v2h10.19V19.14z M154.82,16.65v3.49h2v-3.49H154.82z
	 M149.15,17.65h6.67v-2h-6.67V17.65z M148.15,11.74v4.91h2v-4.91H148.15z M155.82,10.74h-6.67v2h6.67V10.74z M154.82,8.33v3.42h2
	V8.33H154.82z M149.15,9.33h6.67v-2h-6.67V9.33z M148.15,4.95v3.38h2V4.95H148.15z M155.82,3.95h-6.67v2h6.67V3.95z M154.82,1.47
	v3.48h2V1.47H154.82z M145.63,2.47h10.19v-2h-10.19V2.47z M145.63,20.14h-1v1h1V20.14z M155.82,20.14v1h1v-1H155.82z M155.82,16.65
	h1v-1h-1V16.65z M149.15,16.65h-1v1h1V16.65z M149.15,11.74v-1h-1v1H149.15z M155.82,11.74v1h1v-1H155.82z M155.82,8.33h1v-1h-1
	V8.33z M149.15,8.33h-1v1h1V8.33z M149.15,4.95v-1h-1v1H149.15z M155.82,4.95v1h1v-1H155.82z M155.82,1.47h1v-1h-1V1.47z
	 M145.63,1.47v-1h-1v1H145.63z M121.77,20.31l3.22-18.67l-1.97-0.34l-3.22,18.67L121.77,20.31z M124.25,19.14h-3.47v2h3.47V19.14z
	 M125.3,8.18l-2.04,11.79l1.97,0.34l2.04-11.79L125.3,8.18z M131.16,19.83l-3.92-11.79l-1.9,0.63l3.92,11.79L131.16,19.83z
	 M133.35,19.14h-3.14v2h3.14V19.14z M136.37,8.03l-3.97,11.79l1.9,0.64l3.97-11.79L136.37,8.03z M140.31,19.98l-2.01-11.79
	l-1.97,0.34l2.01,11.79L140.31,19.98z M142.76,19.14h-3.43v2h3.43V19.14z M138.62,1.64l3.15,18.67l1.97-0.33L140.59,1.3L138.62,1.64
	z M136.18,2.47h3.43v-2h-3.43V2.47z M132.75,14.81l4.38-13.03l-1.9-0.64l-4.38,13.03L132.75,14.81z M126.53,1.78l4.32,13.03
	l1.9-0.63l-4.32-13.03L126.53,1.78z M124,2.47h3.48v-2H124V2.47z M120.78,20.14l-0.99-0.17l-0.2,1.17h1.19V20.14z M124.25,20.14v1
	h0.84l0.14-0.83L124.25,20.14z M126.29,8.35l0.95-0.32l-1.93,0.14L126.29,8.35z M130.21,20.14l-0.95,0.32l0.23,0.68h0.72V20.14z
	 M133.35,20.14v1h0.72l0.23-0.68L133.35,20.14z M137.32,8.35l0.99-0.17l-1.93-0.15L137.32,8.35z M139.33,20.14l-0.99,0.17l0.14,0.83
	h0.84V20.14z M142.76,20.14v1h1.18l-0.2-1.17L142.76,20.14z M139.61,1.47l0.99-0.17l-0.14-0.83h-0.85V1.47z M136.18,1.47v-1h-0.72
	l-0.23,0.68L136.18,1.47z M131.8,14.5l-0.95,0.31l0.94,2.84l0.95-2.84L131.8,14.5z M127.48,1.47l0.95-0.31l-0.23-0.69h-0.72V1.47z
	 M124,1.47v-1h-0.84l-0.14,0.83L124,1.47z M109.68,20.14V1.47h-2v18.67H109.68z M118.88,19.14h-10.19v2h10.19V19.14z M117.88,16.65
	v3.49h2v-3.49H117.88z M112.21,17.65h6.67v-2h-6.67V17.65z M111.21,11.74v4.91h2v-4.91H111.21z M118.88,10.74h-6.67v2h6.67V10.74z
	 M117.88,8.33v3.42h2V8.33H117.88z M112.21,9.33h6.67v-2h-6.67V9.33z M111.21,4.95v3.38h2V4.95H111.21z M118.88,3.95h-6.67v2h6.67
	V3.95z M117.88,1.47v3.48h2V1.47H117.88z M108.68,2.47h10.19v-2h-10.19V2.47z M108.68,20.14h-1v1h1V20.14z M118.88,20.14v1h1v-1
	H118.88z M118.88,16.65h1v-1h-1V16.65z M112.21,16.65h-1v1h1V16.65z M112.21,11.74v-1h-1v1H112.21z M118.88,11.74v1h1v-1H118.88z
	 M118.88,8.33h1v-1h-1V8.33z M112.21,8.33h-1v1h1V8.33z M112.21,4.95v-1h-1v1H112.21z M118.88,4.95v1h1v-1H118.88z M118.88,1.47h1
	v-1h-1V1.47z M108.68,1.47v-1h-1v1H108.68z M91.96,20.14V1.47h-2v18.67H91.96z M94.56,19.14h-3.61v2h3.61V19.14z M93.56,11.96v8.19
	h2v-8.19H93.56z M100.81,10.96h-6.25v2h6.25V10.96z M101.81,20.14v-8.19h-2v8.19H101.81z M104.4,19.14h-3.59v2h3.59V19.14z
	 M103.4,1.47v18.67h2V1.47H103.4z M100.81,2.47h3.59v-2h-3.59V2.47z M101.81,8.52V1.47h-2v7.05H101.81z M94.56,9.52h6.25v-2h-6.25
	V9.52z M93.56,1.47v7.05h2V1.47H93.56z M90.96,2.47h3.61v-2h-3.61V2.47z M90.96,20.14h-1v1h1V20.14z M94.56,20.14v1h1v-1H94.56z
	 M94.56,11.96v-1h-1v1H94.56z M100.81,11.96h1v-1h-1V11.96z M100.81,20.14h-1v1h1V20.14z M104.4,20.14v1h1v-1H104.4z M104.4,1.47h1
	v-1h-1V1.47z M100.81,1.47v-1h-1v1H100.81z M100.81,8.52v1h1v-1H100.81z M94.56,8.52h-1v1h1V8.52z M94.56,1.47h1v-1h-1V1.47z
	 M90.96,1.47v-1h-1v1H90.96z M83.74,2.89c1.3,0.59,2.41,1.43,3.35,2.52l1.52-1.3c-1.13-1.31-2.47-2.33-4.04-3.04L83.74,2.89z
	 M79.71,2c1.39,0,2.73,0.29,4.03,0.89l0.83-1.82C83.02,0.36,81.4,0,79.71,0V2z M75.12,3.19C76.55,2.4,78.07,2,79.71,2V0
	c-1.98,0-3.84,0.48-5.57,1.45L75.12,3.19z M71.88,6.32c0.75-1.28,1.82-2.32,3.24-3.12l-0.98-1.74c-1.71,0.96-3.05,2.25-3.99,3.86
	L71.88,6.32z M70.76,10.78c0-1.71,0.38-3.18,1.12-4.46l-1.73-1c-0.94,1.62-1.39,3.45-1.39,5.46H70.76z M73.23,17.15
	c-1.64-1.64-2.47-3.73-2.47-6.38h-2c0,3.11,1.01,5.74,3.06,7.79L73.23,17.15z M79.66,19.61c-2.67,0-4.79-0.84-6.43-2.47l-1.41,1.42
	c2.06,2.04,4.7,3.04,7.84,3.04V19.61z M83.47,18.92c-1.08,0.46-2.35,0.7-3.81,0.7v2c1.68,0,3.22-0.28,4.59-0.85L83.47,18.92z
	 M87.07,16.32c-1.33,1.29-2.53,2.14-3.61,2.6l0.79,1.84c1.38-0.59,2.78-1.61,4.22-3.01L87.07,16.32z M84.64,15.21l2.41,2.51
	l1.44-1.38l-2.41-2.51L84.64,15.21z M82.96,17.54c1-0.46,2.04-1.25,3.11-2.31l-1.41-1.42c-0.98,0.97-1.82,1.59-2.53,1.91
	L82.96,17.54z M79.71,18.2c1.16,0,2.24-0.21,3.24-0.66l-0.81-1.83c-0.71,0.32-1.52,0.48-2.42,0.48V18.2z M75.92,17.25
	c1.15,0.64,2.42,0.95,3.79,0.95v-2c-1.05,0-1.98-0.24-2.82-0.7L75.92,17.25z M73.24,14.59c0.63,1.13,1.54,2.02,2.68,2.66l0.97-1.75
	c-0.83-0.46-1.46-1.09-1.91-1.89L73.24,14.59z M72.3,10.79c0,1.39,0.3,2.67,0.94,3.8l1.74-0.98c-0.45-0.8-0.68-1.73-0.68-2.82H72.3z
	 M74.42,5.57c-1.41,1.41-2.12,3.17-2.12,5.21h2c0-1.53,0.51-2.78,1.54-3.8L74.42,5.57z M79.65,3.45c-2.04,0-3.8,0.71-5.22,2.12
	l1.41,1.42c1.03-1.03,2.28-1.54,3.81-1.54V3.45z M86.09,6.44c-1.85-1.95-4-2.99-6.44-2.99v2c1.8,0,3.45,0.74,4.99,2.37L86.09,6.44z
	 M87.16,4.03l-2.49,2.37l1.38,1.45l2.49-2.37L87.16,4.03z M84.15,1.98l-0.42,0.91l0,0L84.15,1.98z M74.63,2.32l-0.49-0.87l0,0
	L74.63,2.32z M71.01,5.81l-0.86-0.5l0,0L71.01,5.81z M72.53,17.86l-0.71,0.71l0,0L72.53,17.86z M83.86,19.84l0.39,0.92l0.01,0
	L83.86,19.84z M87.77,17.03l0.7,0.72l0.71-0.69l-0.69-0.72L87.77,17.03z M85.36,14.52l0.72-0.69l-0.7-0.73l-0.72,0.72L85.36,14.52z
	 M82.54,16.63l0.41,0.91l0.01,0L82.54,16.63z M75.13,6.28l-0.7-0.71l0,0L75.13,6.28z M85.36,7.13l-0.73,0.69l0.69,0.73l0.73-0.69
	L85.36,7.13z M87.85,4.76l0.69,0.72l0.69-0.66l-0.62-0.72L87.85,4.76z M62.71,5.64c-1.38-1.43-3.09-2.16-5.07-2.16v2
	c1.44,0,2.63,0.51,3.64,1.55L62.71,5.64z M64.78,10.84c0-2.03-0.69-3.78-2.07-5.2l-1.43,1.39c1,1.03,1.51,2.28,1.51,3.81H64.78z
	 M62.72,16.04c1.38-1.42,2.06-3.17,2.06-5.2h-2c0,1.54-0.5,2.79-1.49,3.81L62.72,16.04z M57.7,18.17c1.96,0,3.65-0.72,5.02-2.13
	l-1.43-1.39c-1,1.03-2.18,1.53-3.59,1.53V18.17z M53.1,16.54c1.33,1.09,2.87,1.63,4.59,1.63v-2c-1.26,0-2.36-0.39-3.33-1.18
	L53.1,16.54z M50.51,10.86c0,2.34,0.86,4.27,2.59,5.68l1.26-1.55c-1.23-0.99-1.85-2.33-1.85-4.12H50.51z M52.56,5.58
	c-1.38,1.41-2.05,3.2-2.05,5.28h2c0-1.62,0.51-2.89,1.48-3.88L52.56,5.58z M57.63,3.48c-1.99,0-3.7,0.7-5.07,2.1l1.43,1.4
	c0.98-1,2.17-1.5,3.64-1.5V3.48z M53.29,3.18C54.65,2.39,56.11,2,57.67,2V0c-1.92,0-3.72,0.49-5.39,1.46L53.29,3.18z M50.1,6.37
	c0.78-1.34,1.83-2.4,3.19-3.19l-1-1.73c-1.66,0.96-2.97,2.27-3.92,3.92L50.1,6.37z M48.93,10.8c0-1.62,0.39-3.09,1.16-4.43l-1.73-1
	c-0.95,1.66-1.43,3.47-1.43,5.43H48.93z M51.44,17.02c-1.68-1.75-2.5-3.81-2.5-6.22h-2c0,2.93,1.03,5.47,3.06,7.6L51.44,17.02z
	 M57.7,19.61c-2.54,0-4.6-0.87-6.26-2.6l-1.45,1.38c2.05,2.15,4.64,3.22,7.71,3.22V19.61z M63.8,17.08c-1.68,1.7-3.7,2.53-6.11,2.53
	v2c2.94,0,5.47-1.05,7.53-3.13L63.8,17.08z M66.33,10.86c0,2.47-0.84,4.52-2.53,6.21l1.42,1.41c2.07-2.08,3.11-4.64,3.11-7.62H66.33
	z M63.77,4.57c1.71,1.72,2.57,3.8,2.57,6.29h2c0-3.01-1.05-5.6-3.15-7.7L63.77,4.57z M57.67,2c2.37,0,4.38,0.85,6.09,2.57l1.42-1.41
	C63.11,1.07,60.59,0,57.67,0V2z M61.99,6.33l-0.72,0.69l0,0L61.99,6.33z M53.74,15.76l0.63-0.77l0,0L53.74,15.76z M53.28,6.28
	l0.71,0.7L53.28,6.28z M52.78,2.32l0.5,0.87l0,0L52.78,2.32z M64.51,17.78l-0.71-0.71l0,0L64.51,17.78z M64.48,3.87l-0.71,0.7l0,0
	L64.48,3.87z M36.56,4.95v3.82h2V4.95H36.56z M38.54,3.95h-0.98v2h0.98V3.95z M40.85,4.22c-0.55-0.21-1.37-0.27-2.31-0.27v2
	c0.96,0,1.44,0.08,1.6,0.14L40.85,4.22z M42.17,5.23c-0.33-0.48-0.79-0.82-1.34-1.02l-0.67,1.88c0.16,0.06,0.28,0.15,0.37,0.28
	L42.17,5.23z M42.66,6.85c0-0.59-0.16-1.15-0.5-1.63l-1.63,1.16c0.08,0.11,0.13,0.25,0.13,0.47H42.66z M41.58,9.15
	c0.78-0.54,1.08-1.4,1.08-2.3h-2c0,0.47-0.14,0.59-0.21,0.65L41.58,9.15z M38.68,9.77c0.61,0,1.15-0.04,1.62-0.13
	c0.46-0.09,0.92-0.24,1.29-0.5l-1.15-1.64c-0.05,0.04-0.2,0.11-0.51,0.17c-0.31,0.06-0.72,0.09-1.25,0.09V9.77z M37.56,9.77h1.12v-2
	h-1.12V9.77z M35.01,20.14V1.47h-2v18.67H35.01z M37.56,19.14h-3.55v2h3.55V19.14z M36.56,12.24v7.91h2v-7.91H36.56z M37.89,11.24
	h-0.33v2h0.33V11.24z M42.98,19.68l-4.2-7.91l-1.77,0.94l4.2,7.91L42.98,19.68z M45.98,19.14h-3.88v2h3.88V19.14z M40.68,12.31
	l4.42,8.3l1.77-0.94l-4.42-8.3L40.68,12.31z M43.4,9.4c-0.44,0.62-1.13,1.13-2.17,1.5l0.67,1.88c1.33-0.47,2.4-1.2,3.13-2.23
	L43.4,9.4z M44.1,6.89c0,1.06-0.25,1.88-0.7,2.5l1.63,1.16c0.74-1.03,1.07-2.27,1.07-3.67H44.1z M43.46,4.39
	c0.42,0.67,0.65,1.49,0.65,2.5h2c0-1.32-0.3-2.53-0.95-3.56L43.46,4.39z M41.8,2.95c0.68,0.28,1.22,0.74,1.65,1.43l1.7-1.06
	c-0.64-1.02-1.5-1.77-2.59-2.22L41.8,2.95z M37.78,2.47c2.05,0,3.34,0.19,4.01,0.48l0.79-1.84c-1.07-0.46-2.72-0.64-4.8-0.64V2.47z
	 M34.01,2.47h3.77v-2h-3.77V2.47z M37.56,4.95v-1h-1v1H37.56z M40.5,5.15l-0.36,0.93l0.01,0l0.01,0L40.5,5.15z M41.35,5.8
	l-0.82,0.57l0.01,0.01L41.35,5.8z M41.02,8.33L40.45,7.5l-0.01,0.01L41.02,8.33z M37.56,8.77h-1v1h1V8.77z M34.01,20.14h-1v1h1
	V20.14z M37.56,20.14v1h1v-1H37.56z M37.56,12.24v-1h-1v1H37.56z M37.89,12.24l0.88-0.47l-0.28-0.53h-0.6V12.24z M42.09,20.14
	l-0.88,0.47l0.28,0.53h0.6V20.14z M45.98,20.14v1h1.66l-0.78-1.47L45.98,20.14z M41.56,11.84l-0.34-0.94l-1.09,0.39l0.54,1.02
	L41.56,11.84z M44.21,9.98L43.4,9.39l0,0L44.21,9.98z M42.18,2.03l-0.39,0.92l0.01,0L42.18,2.03z M34.01,1.47v-1h-1v1H34.01z
	 M15.53,20.14V1.47h-2v18.67H15.53z M18.09,19.14h-3.55v2h3.55V19.14z M17.09,7.89v12.25h2V7.89H17.09z M26.92,19.6l-8-12.25
	l-1.67,1.09l8,12.25L26.92,19.6z M29.5,19.14h-3.42v2h3.42V19.14z M28.5,1.47v18.67h2V1.47H28.5z M25.95,2.47h3.55v-2h-3.55V2.47z
	 M26.95,13.76V1.47h-2v12.29H26.95z M17.1,2.02l8.01,12.29l1.68-1.09L18.77,0.92L17.1,2.02z M14.53,2.47h3.4v-2h-3.4V2.47z
	 M14.53,20.14h-1v1h1V20.14z M18.09,20.14v1h1v-1H18.09z M18.09,7.89l0.84-0.55l-1.84-2.81v3.36H18.09z M26.09,20.14l-0.84,0.55
	l0.3,0.45h0.54V20.14z M29.5,20.14v1h1v-1H29.5z M29.5,1.47h1v-1h-1V1.47z M25.95,1.47v-1h-1v1H25.95z M25.95,13.76l-0.84,0.55
	l1.84,2.82v-3.37H25.95z M17.94,1.47l0.84-0.55l-0.3-0.45h-0.54V1.47z M14.53,1.47v-1h-1v1H14.53z M2,20.14V1.47H0v18.67H2z
	 M11.19,19.14H1v2h10.19V19.14z M10.19,16.65v3.49h2v-3.49H10.19z M4.53,17.65h6.67v-2H4.53V17.65z M3.53,11.74v4.91h2v-4.91H3.53z
	 M11.19,10.74H4.53v2h6.67V10.74z M10.19,8.33v3.42h2V8.33H10.19z M4.53,9.33h6.67v-2H4.53V9.33z M3.53,4.95v3.38h2V4.95H3.53z
	 M11.19,3.95H4.53v2h6.67V3.95z M10.19,1.47v3.48h2V1.47H10.19z M1,2.47h10.19v-2H1V2.47z M1,20.14H0v1h1V20.14z M11.19,20.14v1h1
	v-1H11.19z M11.19,16.65h1v-1h-1V16.65z M4.53,16.65h-1v1h1V16.65z M4.53,11.74v-1h-1v1H4.53z M11.19,11.74v1h1v-1H11.19z
	 M11.19,8.33h1v-1h-1V8.33z M4.53,8.33h-1v1h1V8.33z M4.53,4.95v-1h-1v1H4.53z M11.19,4.95v1h1v-1H11.19z M11.19,1.47h1v-1h-1V1.47z
	 M1,1.47v-1H0v1H1z"/>
<path class="st2" d="M176.55,1.47h10.32v3.5h-3.4v15.17h-3.61V4.97h-3.31V1.47z M159.16,1.47h3.4l8.01,12.29V1.47h3.55v18.67h-3.42l-8-12.25
	v12.25h-3.55V1.47z M145.63,1.47h10.19v3.48h-6.67v3.38h6.67v3.42h-6.67v4.91h6.67v3.49h-10.19V1.47z M124,1.47h3.48l4.32,13.03
	l4.38-13.03h3.43l3.15,18.67h-3.43l-2.01-11.79l-3.97,11.79h-3.14l-3.92-11.79l-2.04,11.79h-3.47L124,1.47z M108.68,1.47h10.19v3.48
	h-6.67v3.38h6.67v3.42h-6.67v4.91h6.67v3.49h-10.19V1.47z M90.96,1.47h3.61v7.05h6.25V1.47h3.59v18.67h-3.59v-8.19h-6.25v8.19h-3.61
	V1.47z M87.85,4.76l-2.49,2.37c-1.69-1.79-3.6-2.68-5.71-2.68c-1.79,0-3.29,0.61-4.52,1.83C73.91,7.5,73.3,9,73.3,10.79
	c0,1.24,0.27,2.35,0.81,3.31s1.31,1.72,2.3,2.27s2.09,0.83,3.3,0.83c1.03,0,1.98-0.19,2.83-0.57c0.85-0.39,1.79-1.09,2.82-2.11
	l2.41,2.51c-1.38,1.35-2.68,2.28-3.91,2.81c-1.23,0.52-2.63,0.77-4.2,0.77c-2.9,0-5.28-0.92-7.13-2.75
	c-1.85-1.85-2.77-4.21-2.77-7.08c0-1.86,0.42-3.52,1.26-4.96c0.85-1.45,2.05-2.61,3.62-3.49C76.21,1.44,77.9,1,79.71,1
	c1.54,0,3.02,0.33,4.44,0.98C85.58,2.63,86.82,3.56,87.85,4.76z M57.63,4.48c-1.73,0-3.18,0.6-4.35,1.8
	c-1.18,1.2-1.76,2.73-1.76,4.58c0,2.07,0.74,3.7,2.22,4.9c1.15,0.94,2.47,1.41,3.96,1.41c1.68,0,3.12-0.61,4.3-1.83
	c1.18-1.22,1.78-2.72,1.78-4.51c0-1.78-0.6-3.28-1.79-4.51C60.79,5.1,59.34,4.48,57.63,4.48z M57.67,1c2.64,0,4.91,0.96,6.8,2.87
	c1.9,1.91,2.86,4.24,2.86,7c0,2.73-0.94,5.03-2.82,6.92c-1.87,1.89-4.14,2.83-6.82,2.83c-2.8,0-5.13-0.97-6.98-2.91
	s-2.78-4.24-2.78-6.91c0-1.79,0.43-3.43,1.29-4.93s2.05-2.68,3.55-3.55C54.3,1.44,55.93,1,57.67,1z M37.56,8.77h1.12
	c1.13,0,1.91-0.15,2.34-0.44c0.43-0.3,0.65-0.79,0.65-1.47c0-0.41-0.11-0.76-0.32-1.05c-0.21-0.3-0.5-0.52-0.85-0.65
	c-0.36-0.14-1.01-0.2-1.96-0.2h-0.98V8.77z M34.01,1.47h3.77c2.07,0,3.53,0.19,4.41,0.56C43.06,2.39,43.77,3,44.3,3.86
	c0.53,0.85,0.8,1.87,0.8,3.03c0,1.23-0.3,2.26-0.89,3.08c-0.58,0.82-1.47,1.44-2.65,1.87l4.42,8.3h-3.88l-4.2-7.91h-0.33v7.91h-3.55
	V1.47z M14.53,1.47h3.4l8.01,12.29V1.47h3.55v18.67h-3.42l-8-12.25v12.25h-3.55V1.47z M1,1.47h10.19v3.48H4.53v3.38h6.67v3.42H4.53
	v4.91h6.67v3.49H1V1.47z"/>
<path class="st1" d="M208.77,1.03h5.73v20.11h-3.8V4.63h-4.14L208.77,1.03z M193.34,7.51h-3.73c0.1-2.17,0.78-3.87,2.04-5.11
	c1.27-1.25,2.89-1.87,4.87-1.87c1.22,0,2.3,0.26,3.23,0.78c0.94,0.51,1.69,1.25,2.24,2.23c0.57,0.97,0.85,1.95,0.85,2.95
	c0,1.19-0.34,2.48-1.03,3.86c-0.67,1.38-1.91,3-3.72,4.88l-2.26,2.38H203v3.54h-13.93v-1.83l6.22-6.34c1.5-1.52,2.5-2.74,2.99-3.66
	c0.5-0.93,0.75-1.77,0.75-2.52c0-0.77-0.26-1.41-0.78-1.91c-0.51-0.51-1.17-0.77-1.98-0.77c-0.82,0-1.5,0.31-2.05,0.92
	C193.67,5.64,193.38,6.47,193.34,7.51z"/>
</svg>
