<svg width="238" height="60" viewBox="0 0 238 60" fill="none" xmlns="http://www.w3.org/2000/svg">
<path d="M2.14551 21.3252H12.3398V24.8037H5.6748V28.1807H12.3398V31.5957H5.6748V36.5088H12.3398V40H2.14551V21.3252ZM15.6787 21.3252H19.0811L27.0918 33.6143V21.3252H30.6465V40H27.2314L19.2334 27.749V40H15.6787V21.3252ZM35.1533 21.3252H38.9238C40.9889 21.3252 42.4574 21.5114 43.3291 21.8838C44.2093 22.2477 44.916 22.8571 45.4492 23.7119C45.9824 24.5667 46.249 25.5781 46.249 26.7461C46.249 27.9733 45.9528 29.0016 45.3604 29.8311C44.7764 30.652 43.8919 31.2741 42.707 31.6973L47.125 40H43.2402L39.0381 32.0908H38.708V40H35.1533V21.3252ZM38.708 28.625H39.8252C40.9593 28.625 41.738 28.4769 42.1611 28.1807C42.5928 27.8844 42.8086 27.3936 42.8086 26.708C42.8086 26.3018 42.7028 25.9505 42.4912 25.6543C42.2796 25.3496 41.9961 25.1338 41.6406 25.0068C41.2852 24.8714 40.6335 24.8037 39.6855 24.8037H38.708V28.625ZM58.8174 20.8555C61.458 20.8555 63.7262 21.8118 65.6221 23.7246C67.5264 25.6374 68.4785 27.9691 68.4785 30.7197C68.4785 33.445 67.5391 35.7513 65.6602 37.6387C63.7897 39.526 61.5173 40.4697 58.8428 40.4697C56.0413 40.4697 53.7139 39.5007 51.8604 37.5625C50.0068 35.6243 49.0801 33.3223 49.0801 30.6562C49.0801 28.8704 49.5117 27.2285 50.375 25.7305C51.2383 24.2324 52.4232 23.0475 53.9297 22.1758C55.4447 21.2956 57.0739 20.8555 58.8174 20.8555ZM58.7793 24.334C57.0527 24.334 55.6012 24.9349 54.4248 26.1367C53.2484 27.3385 52.6602 28.8662 52.6602 30.7197C52.6602 32.7848 53.4007 34.4183 54.8818 35.6201C56.0329 36.5596 57.3532 37.0293 58.8428 37.0293C60.527 37.0293 61.9616 36.4199 63.1465 35.2012C64.3314 33.9824 64.9238 32.4801 64.9238 30.6943C64.9238 28.917 64.3271 27.4147 63.1338 26.1875C61.9404 24.9518 60.4889 24.334 58.7793 24.334ZM88.9941 24.6133L86.5059 26.9873C84.8132 25.2015 82.9089 24.3086 80.793 24.3086C79.0072 24.3086 77.5007 24.918 76.2734 26.1367C75.0547 27.3555 74.4453 28.8577 74.4453 30.6436C74.4453 31.8877 74.7161 32.9922 75.2578 33.957C75.7995 34.9219 76.5654 35.6794 77.5557 36.2295C78.5459 36.7796 79.6462 37.0547 80.8564 37.0547C81.889 37.0547 82.8327 36.8643 83.6875 36.4834C84.5423 36.0941 85.4818 35.3916 86.5059 34.376L88.918 36.8896C87.5384 38.2354 86.235 39.1706 85.0078 39.6953C83.7806 40.2116 82.3799 40.4697 80.8057 40.4697C77.9027 40.4697 75.5244 39.5514 73.6709 37.7148C71.8258 35.8698 70.9033 33.5085 70.9033 30.6309C70.9033 28.7689 71.3223 27.1143 72.1602 25.667C73.0065 24.2197 74.2126 23.056 75.7783 22.1758C77.3525 21.2956 79.0452 20.8555 80.8564 20.8555C82.3968 20.8555 83.8779 21.1813 85.2998 21.833C86.7301 22.4847 87.9616 23.4115 88.9941 24.6133ZM92.1045 21.3252H95.71V28.3711H101.956V21.3252H105.549V40H101.956V31.8115H95.71V40H92.1045V21.3252ZM109.827 21.3252H120.021V24.8037H113.356V28.1807H120.021V31.5957H113.356V36.5088H120.021V40H109.827V21.3252ZM125.15 21.3252H128.629L132.945 34.3506L137.325 21.3252H140.753L143.901 40H140.474L138.468 28.2061L134.494 40H131.358L127.436 28.2061L125.392 40H121.926L125.15 21.3252ZM146.771 21.3252H156.965V24.8037H150.3V28.1807H156.965V31.5957H150.3V36.5088H156.965V40H146.771V21.3252ZM160.304 21.3252H163.706L171.717 33.6143V21.3252H175.271V40H171.856L163.858 27.749V40H160.304V21.3252ZM177.696 21.3252H188.018V24.8291H184.615V40H181.01V24.8291H177.696V21.3252Z" fill="black"/>
<path d="M2.14551 21.3252V20.3252H1.14551V21.3252H2.14551ZM12.3398 21.3252H13.3398V20.3252H12.3398V21.3252ZM12.3398 24.8037V25.8037H13.3398V24.8037H12.3398ZM5.6748 24.8037V23.8037H4.6748V24.8037H5.6748ZM5.6748 28.1807H4.6748V29.1807H5.6748V28.1807ZM12.3398 28.1807H13.3398V27.1807H12.3398V28.1807ZM12.3398 31.5957V32.5957H13.3398V31.5957H12.3398ZM5.6748 31.5957V30.5957H4.6748V31.5957H5.6748ZM5.6748 36.5088H4.6748V37.5088H5.6748V36.5088ZM12.3398 36.5088H13.3398V35.5088H12.3398V36.5088ZM12.3398 40V41H13.3398V40H12.3398ZM2.14551 40H1.14551V41H2.14551V40ZM2.14551 22.3252H12.3398V20.3252H2.14551V22.3252ZM11.3398 21.3252V24.8037H13.3398V21.3252H11.3398ZM12.3398 23.8037H5.6748V25.8037H12.3398V23.8037ZM4.6748 24.8037V28.1807H6.6748V24.8037H4.6748ZM5.6748 29.1807H12.3398V27.1807H5.6748V29.1807ZM11.3398 28.1807V31.5957H13.3398V28.1807H11.3398ZM12.3398 30.5957H5.6748V32.5957H12.3398V30.5957ZM4.6748 31.5957V36.5088H6.6748V31.5957H4.6748ZM5.6748 37.5088H12.3398V35.5088H5.6748V37.5088ZM11.3398 36.5088V40H13.3398V36.5088H11.3398ZM12.3398 39H2.14551V41H12.3398V39ZM3.14551 40V21.3252H1.14551V40H3.14551ZM15.6787 21.3252V20.3252H14.6787V21.3252H15.6787ZM19.0811 21.3252L19.9188 20.7791L19.6229 20.3252H19.0811V21.3252ZM27.0918 33.6143L26.2541 34.1603L28.0918 36.9796V33.6143H27.0918ZM27.0918 21.3252V20.3252H26.0918V21.3252H27.0918ZM30.6465 21.3252H31.6465V20.3252H30.6465V21.3252ZM30.6465 40V41H31.6465V40H30.6465ZM27.2314 40L26.3941 40.5467L26.6901 41H27.2314V40ZM19.2334 27.749L20.0708 27.2024L18.2334 24.388V27.749H19.2334ZM19.2334 40V41H20.2334V40H19.2334ZM15.6787 40H14.6787V41H15.6787V40ZM15.6787 22.3252H19.0811V20.3252H15.6787V22.3252ZM18.2433 21.8713L26.2541 34.1603L27.9295 33.0682L19.9188 20.7791L18.2433 21.8713ZM28.0918 33.6143V21.3252H26.0918V33.6143H28.0918ZM27.0918 22.3252H30.6465V20.3252H27.0918V22.3252ZM29.6465 21.3252V40H31.6465V21.3252H29.6465ZM30.6465 39H27.2314V41H30.6465V39ZM28.0688 39.4533L20.0708 27.2024L18.396 28.2957L26.3941 40.5467L28.0688 39.4533ZM18.2334 27.749V40H20.2334V27.749H18.2334ZM19.2334 39H15.6787V41H19.2334V39ZM16.6787 40V21.3252H14.6787V40H16.6787ZM35.1533 21.3252V20.3252H34.1533V21.3252H35.1533ZM43.3291 21.8838L42.9362 22.8035L42.947 22.8079L43.3291 21.8838ZM45.3604 29.8311L44.5466 29.2498L44.5455 29.2514L45.3604 29.8311ZM42.707 31.6973L42.3707 30.7555L41.2804 31.1449L41.8242 32.167L42.707 31.6973ZM47.125 40V41H48.7899L48.0078 39.5303L47.125 40ZM43.2402 40L42.3571 40.4692L42.6392 41H43.2402V40ZM39.0381 32.0908L39.9212 31.6216L39.6392 31.0908H39.0381V32.0908ZM38.708 32.0908V31.0908H37.708V32.0908H38.708ZM38.708 40V41H39.708V40H38.708ZM35.1533 40H34.1533V41H35.1533V40ZM38.708 28.625H37.708V29.625H38.708V28.625ZM42.1611 28.1807L41.5953 27.3561L41.5877 27.3614L42.1611 28.1807ZM42.4912 25.6543L41.6698 26.2247L41.6775 26.2355L42.4912 25.6543ZM41.6406 25.0068L41.2846 25.9413L41.2944 25.9451L41.3043 25.9486L41.6406 25.0068ZM38.708 24.8037V23.8037H37.708V24.8037H38.708ZM35.1533 22.3252H38.9238V20.3252H35.1533V22.3252ZM38.9238 22.3252C40.9759 22.3252 42.2659 22.517 42.9363 22.8034L43.7219 20.9642C42.6489 20.5058 41.0019 20.3252 38.9238 20.3252V22.3252ZM42.947 22.8079C43.6229 23.0874 44.1712 23.5526 44.6007 24.2412L46.2977 23.1827C45.6608 22.1616 44.7957 21.4081 43.7112 20.9597L42.947 22.8079ZM44.6007 24.2412C45.02 24.9133 45.249 25.7349 45.249 26.7461H47.249C47.249 25.4214 46.9449 24.2202 46.2977 23.1827L44.6007 24.2412ZM45.249 26.7461C45.249 27.8083 44.9949 28.6222 44.5466 29.2498L46.1741 30.4123C46.9107 29.381 47.249 28.1383 47.249 26.7461H45.249ZM44.5455 29.2514C44.1068 29.8681 43.4111 30.384 42.3707 30.7555L43.0434 32.639C44.3728 32.1642 45.4459 31.4359 46.1752 30.4107L44.5455 29.2514ZM41.8242 32.167L46.2422 40.4697L48.0078 39.5303L43.5898 31.2275L41.8242 32.167ZM47.125 39H43.2402V41H47.125V39ZM44.1233 39.5308L39.9212 31.6216L38.155 32.56L42.3571 40.4692L44.1233 39.5308ZM39.0381 31.0908H38.708V33.0908H39.0381V31.0908ZM37.708 32.0908V40H39.708V32.0908H37.708ZM38.708 39H35.1533V41H38.708V39ZM36.1533 40V21.3252H34.1533V40H36.1533ZM38.708 29.625H39.8252V27.625H38.708V29.625ZM39.8252 29.625C40.4306 29.625 40.9757 29.5859 41.4466 29.4963C41.908 29.4085 42.362 29.2607 42.7346 28.9999L41.5877 27.3614C41.5371 27.3968 41.3902 27.4712 41.0729 27.5315C40.7652 27.5901 40.3539 27.625 39.8252 27.625V29.625ZM42.727 29.0052C43.512 28.4665 43.8086 27.61 43.8086 26.708H41.8086C41.8086 27.1771 41.6736 27.3024 41.5953 27.3562L42.727 29.0052ZM43.8086 26.708C43.8086 26.1186 43.6516 25.5583 43.3049 25.0731L41.6775 26.2355C41.754 26.3427 41.8086 26.4849 41.8086 26.708H43.8086ZM43.3126 25.0839C42.9798 24.6047 42.5252 24.2609 41.977 24.0651L41.3043 25.9486C41.467 26.0067 41.5795 26.0945 41.6698 26.2247L43.3126 25.0839ZM41.9966 24.0723C41.4493 23.8639 40.6262 23.8037 39.6855 23.8037V25.8037C40.6407 25.8037 41.121 25.879 41.2846 25.9413L41.9966 24.0723ZM39.6855 23.8037H38.708V25.8037H39.6855V23.8037ZM37.708 24.8037V28.625H39.708V24.8037H37.708ZM65.6221 23.7246L64.9118 24.4286L64.9134 24.4301L65.6221 23.7246ZM65.6602 37.6387L64.9515 36.9332L64.9499 36.9348L65.6602 37.6387ZM53.9297 22.1758L54.4305 23.0413L54.4321 23.0404L53.9297 22.1758ZM54.4248 26.1367L55.1394 26.8362L54.4248 26.1367ZM54.8818 35.6201L55.5141 34.8454L55.5119 34.8436L54.8818 35.6201ZM63.1338 26.1875L62.4145 26.8822L62.4169 26.8846L63.1338 26.1875ZM58.8174 21.8555C61.1854 21.8555 63.1996 22.701 64.9118 24.4286L66.3323 23.0207C64.2529 20.9227 61.7307 19.8555 58.8174 19.8555V21.8555ZM64.9134 24.4301C66.6272 26.1515 67.4785 28.2279 67.4785 30.7197H69.4785C69.4785 27.7103 68.4256 25.1232 66.3307 23.0191L64.9134 24.4301ZM67.4785 30.7197C67.4785 33.1875 66.639 35.238 64.9515 36.9332L66.3689 38.3442C68.4391 36.2646 69.4785 33.7025 69.4785 30.7197H67.4785ZM64.9499 36.9348C63.2686 38.6313 61.2524 39.4697 58.8428 39.4697V41.4697C61.7821 41.4697 64.3108 40.4208 66.3704 38.3426L64.9499 36.9348ZM58.8428 39.4697C56.3006 39.4697 54.2387 38.6026 52.5831 36.8713L51.1376 38.2537C53.1891 40.3987 55.7821 41.4697 58.8428 41.4697V39.4697ZM52.5831 36.8713C50.9063 35.1181 50.0801 33.0631 50.0801 30.6562H48.0801C48.0801 33.5815 49.1073 36.1306 51.1376 38.2537L52.5831 36.8713ZM50.0801 30.6562C50.0801 29.0397 50.4686 27.5708 51.2414 26.2298L49.5086 25.2312C48.5548 26.8862 48.0801 28.7012 48.0801 30.6562H50.0801ZM51.2414 26.2298C52.0165 24.8848 53.0748 23.8258 54.4305 23.0413L53.4288 21.3102C51.7715 22.2693 50.4601 23.58 49.5086 25.2312L51.2414 26.2298ZM54.4321 23.0404C55.7952 22.2484 57.2513 21.8555 58.8174 21.8555V19.8555C56.8965 19.8555 55.0941 20.3427 53.4273 21.3111L54.4321 23.0404ZM58.7793 23.334C56.7919 23.334 55.0803 24.0375 53.7102 25.4372L55.1394 26.8362C56.1222 25.8323 57.3136 25.334 58.7793 25.334V23.334ZM53.7102 25.4372C52.3313 26.8458 51.6602 28.6339 51.6602 30.7197H53.6602C53.6602 29.0985 54.1654 27.8313 55.1394 26.8362L53.7102 25.4372ZM51.6602 30.7197C51.6602 33.0577 52.5154 34.9877 54.2517 36.3966L55.5119 34.8436C54.2861 33.8489 53.6602 32.512 53.6602 30.7197H51.6602ZM54.2495 36.3948C55.5796 37.4804 57.1234 38.0293 58.8428 38.0293V36.0293C57.583 36.0293 56.4862 35.6387 55.5141 34.8454L54.2495 36.3948ZM58.8428 38.0293C60.7999 38.0293 62.4923 37.3086 63.8635 35.8983L62.4295 34.5041C61.4309 35.5312 60.2541 36.0293 58.8428 36.0293V38.0293ZM63.8635 35.8983C65.2398 34.4826 65.9238 32.7259 65.9238 30.6943H63.9238C63.9238 32.2344 63.423 33.4822 62.4295 34.5041L63.8635 35.8983ZM65.9238 30.6943C65.9238 28.6677 65.2332 26.912 63.8507 25.4904L62.4169 26.8846C63.4211 27.9174 63.9238 29.1663 63.9238 30.6943H65.9238ZM63.8531 25.4928C62.4723 24.0631 60.7617 23.334 58.7793 23.334V25.334C60.2162 25.334 61.4085 25.8406 62.4145 26.8822L63.8531 25.4928ZM88.9941 24.6133L89.6844 25.3368L90.3712 24.6816L89.7526 23.9616L88.9941 24.6133ZM86.5059 26.9873L85.7801 27.6752L86.4703 28.4034L87.1962 27.7108L86.5059 26.9873ZM76.2734 26.1367L75.5688 25.4272L75.5663 25.4296L76.2734 26.1367ZM83.6875 36.4834L84.0945 37.3969L84.102 37.3935L83.6875 36.4834ZM86.5059 34.376L87.2274 33.6836L86.5235 32.9501L85.8017 33.6659L86.5059 34.376ZM88.918 36.8896L89.6162 37.6055L90.3262 36.9129L89.6395 36.1973L88.918 36.8896ZM85.0078 39.6953L85.3956 40.6171L85.401 40.6148L85.0078 39.6953ZM73.6709 37.7148L72.9638 38.422L72.967 38.4252L73.6709 37.7148ZM72.1602 25.667L71.2969 25.1622L71.2947 25.166L72.1602 25.667ZM75.7783 22.1758L75.2903 21.303L75.2883 21.3041L75.7783 22.1758ZM85.2998 21.833L84.8831 22.7421L84.8852 22.743L85.2998 21.833ZM88.3038 23.8898L85.8156 26.2638L87.1962 27.7108L89.6844 25.3368L88.3038 23.8898ZM87.2316 26.2994C85.3836 24.3497 83.2286 23.3086 80.793 23.3086V25.3086C82.5891 25.3086 84.2427 26.0533 85.7801 27.6752L87.2316 26.2994ZM80.793 23.3086C78.7527 23.3086 76.99 24.0157 75.5688 25.4272L76.9781 26.8463C78.0113 25.8202 79.2616 25.3086 80.793 25.3086V23.3086ZM75.5663 25.4296C74.1526 26.8433 73.4453 28.6032 73.4453 30.6436H75.4453C75.4453 29.1123 75.9568 27.8676 76.9805 26.8438L75.5663 25.4296ZM73.4453 30.6436C73.4453 32.0374 73.7502 33.3144 74.3858 34.4466L76.1298 33.4675C75.6821 32.67 75.4453 31.738 75.4453 30.6436H73.4453ZM74.3858 34.4466C75.0204 35.5769 75.9219 36.4658 77.07 37.1036L78.0413 35.3553C77.2089 34.8929 76.5785 34.2668 76.1298 33.4675L74.3858 34.4466ZM77.07 37.1036C78.219 37.7419 79.4882 38.0547 80.8564 38.0547V36.0547C79.8041 36.0547 78.8728 35.8173 78.0413 35.3553L77.07 37.1036ZM80.8564 38.0547C82.0146 38.0547 83.0989 37.8404 84.0945 37.3968L83.2805 35.57C82.5665 35.8881 81.7634 36.0547 80.8564 36.0547V38.0547ZM84.102 37.3935C85.106 36.9362 86.1421 36.1451 87.21 35.086L85.8017 33.6659C84.8215 34.6381 83.9786 35.252 83.273 35.5733L84.102 37.3935ZM85.7843 35.0684L88.1964 37.582L89.6395 36.1973L87.2274 33.6836L85.7843 35.0684ZM88.2197 36.1738C86.8925 37.4684 85.6901 38.316 84.6147 38.7758L85.401 40.6148C86.78 40.0251 88.1843 39.0023 89.6162 37.6055L88.2197 36.1738ZM84.62 38.7736C83.5358 39.2297 82.2706 39.4697 80.8057 39.4697V41.4697C82.4892 41.4697 84.0254 41.1935 85.3956 40.6171L84.62 38.7736ZM80.8057 39.4697C78.1339 39.4697 76.0192 38.6339 74.3748 37.0045L72.967 38.4252C75.0297 40.469 77.6715 41.4697 80.8057 41.4697V39.4697ZM74.378 37.0077C72.7406 35.3704 71.9033 33.2732 71.9033 30.6309H69.9033C69.9033 33.7437 70.911 36.3692 72.9638 38.422L74.378 37.0077ZM71.9033 30.6309C71.9033 28.9244 72.2855 27.4463 73.0256 26.168L71.2947 25.166C70.359 26.7822 69.9033 28.6134 69.9033 30.6309H71.9033ZM73.0234 26.1718C73.7737 24.8887 74.8459 23.8471 76.2684 23.0475L75.2883 21.3041C73.5792 22.2649 72.2393 23.5507 71.2969 25.1622L73.0234 26.1718ZM76.2664 23.0486C77.6908 22.2522 79.2154 21.8555 80.8564 21.8555V19.8555C78.8751 19.8555 77.0143 20.339 75.2903 21.303L76.2664 23.0486ZM80.8564 21.8555C82.2507 21.8555 83.5899 22.1493 84.8831 22.7421L85.7165 20.9239C84.1659 20.2133 82.5429 19.8555 80.8564 19.8555V21.8555ZM84.8852 22.743C86.1824 23.3341 87.2968 24.1722 88.2356 25.265L89.7526 23.9616C88.6263 22.6507 87.2779 21.6353 85.7144 20.923L84.8852 22.743ZM92.1045 21.3252V20.3252H91.1045V21.3252H92.1045ZM95.71 21.3252H96.71V20.3252H95.71V21.3252ZM95.71 28.3711H94.71V29.3711H95.71V28.3711ZM101.956 28.3711V29.3711H102.956V28.3711H101.956ZM101.956 21.3252V20.3252H100.956V21.3252H101.956ZM105.549 21.3252H106.549V20.3252H105.549V21.3252ZM105.549 40V41H106.549V40H105.549ZM101.956 40H100.956V41H101.956V40ZM101.956 31.8115H102.956V30.8115H101.956V31.8115ZM95.71 31.8115V30.8115H94.71V31.8115H95.71ZM95.71 40V41H96.71V40H95.71ZM92.1045 40H91.1045V41H92.1045V40ZM92.1045 22.3252H95.71V20.3252H92.1045V22.3252ZM94.71 21.3252V28.3711H96.71V21.3252H94.71ZM95.71 29.3711H101.956V27.3711H95.71V29.3711ZM102.956 28.3711V21.3252H100.956V28.3711H102.956ZM101.956 22.3252H105.549V20.3252H101.956V22.3252ZM104.549 21.3252V40H106.549V21.3252H104.549ZM105.549 39H101.956V41H105.549V39ZM102.956 40V31.8115H100.956V40H102.956ZM101.956 30.8115H95.71V32.8115H101.956V30.8115ZM94.71 31.8115V40H96.71V31.8115H94.71ZM95.71 39H92.1045V41H95.71V39ZM93.1045 40V21.3252H91.1045V40H93.1045ZM109.827 21.3252V20.3252H108.827V21.3252H109.827ZM120.021 21.3252H121.021V20.3252H120.021V21.3252ZM120.021 24.8037V25.8037H121.021V24.8037H120.021ZM113.356 24.8037V23.8037H112.356V24.8037H113.356ZM113.356 28.1807H112.356V29.1807H113.356V28.1807ZM120.021 28.1807H121.021V27.1807H120.021V28.1807ZM120.021 31.5957V32.5957H121.021V31.5957H120.021ZM113.356 31.5957V30.5957H112.356V31.5957H113.356ZM113.356 36.5088H112.356V37.5088H113.356V36.5088ZM120.021 36.5088H121.021V35.5088H120.021V36.5088ZM120.021 40V41H121.021V40H120.021ZM109.827 40H108.827V41H109.827V40ZM109.827 22.3252H120.021V20.3252H109.827V22.3252ZM119.021 21.3252V24.8037H121.021V21.3252H119.021ZM120.021 23.8037H113.356V25.8037H120.021V23.8037ZM112.356 24.8037V28.1807H114.356V24.8037H112.356ZM113.356 29.1807H120.021V27.1807H113.356V29.1807ZM119.021 28.1807V31.5957H121.021V28.1807H119.021ZM120.021 30.5957H113.356V32.5957H120.021V30.5957ZM112.356 31.5957V36.5088H114.356V31.5957H112.356ZM113.356 37.5088H120.021V35.5088H113.356V37.5088ZM119.021 36.5088V40H121.021V36.5088H119.021ZM120.021 39H109.827V41H120.021V39ZM110.827 40V21.3252H108.827V40H110.827ZM125.15 21.3252V20.3252H124.308L124.165 21.155L125.15 21.3252ZM128.629 21.3252L129.578 21.0106L129.351 20.3252H128.629V21.3252ZM132.945 34.3506L131.996 34.6651L132.938 37.5087L133.893 34.6693L132.945 34.3506ZM137.325 21.3252V20.3252H136.606L136.377 21.0065L137.325 21.3252ZM140.753 21.3252L141.739 21.1589L141.598 20.3252H140.753V21.3252ZM143.901 40V41H145.084L144.887 39.8338L143.901 40ZM140.474 40L139.488 40.1677L139.629 41H140.474V40ZM138.468 28.2061L139.454 28.0384L137.52 27.8868L138.468 28.2061ZM134.494 40V41H135.212L135.442 40.3193L134.494 40ZM131.358 40L130.41 40.3156L130.637 41H131.358V40ZM127.436 28.2061L128.384 27.8904L126.45 28.0353L127.436 28.2061ZM125.392 40V41H126.233L126.377 40.1708L125.392 40ZM121.926 40L120.94 39.8298L120.738 41H121.926V40ZM125.15 22.3252H128.629V20.3252H125.15V22.3252ZM127.68 21.6398L131.996 34.6651L133.895 34.036L129.578 21.0106L127.68 21.6398ZM133.893 34.6693L138.273 21.6439L136.377 21.0065L131.997 34.0319L133.893 34.6693ZM137.325 22.3252H140.753V20.3252H137.325V22.3252ZM139.767 21.4914L142.915 40.1662L144.887 39.8338L141.739 21.1589L139.767 21.4914ZM143.901 39H140.474V41H143.901V39ZM141.459 39.8323L139.454 28.0384L137.482 28.3737L139.488 40.1677L141.459 39.8323ZM137.52 27.8868L133.546 39.6807L135.442 40.3193L139.415 28.5253L137.52 27.8868ZM134.494 39H131.358V41H134.494V39ZM132.307 39.6844L128.384 27.8904L126.487 28.5217L130.41 40.3156L132.307 39.6844ZM126.45 28.0353L124.406 39.8292L126.377 40.1708L128.421 28.3768L126.45 28.0353ZM125.392 39H121.926V41H125.392V39ZM122.911 40.1702L126.136 21.4953L124.165 21.155L120.94 39.8298L122.911 40.1702ZM146.771 21.3252V20.3252H145.771V21.3252H146.771ZM156.965 21.3252H157.965V20.3252H156.965V21.3252ZM156.965 24.8037V25.8037H157.965V24.8037H156.965ZM150.3 24.8037V23.8037H149.3V24.8037H150.3ZM150.3 28.1807H149.3V29.1807H150.3V28.1807ZM156.965 28.1807H157.965V27.1807H156.965V28.1807ZM156.965 31.5957V32.5957H157.965V31.5957H156.965ZM150.3 31.5957V30.5957H149.3V31.5957H150.3ZM150.3 36.5088H149.3V37.5088H150.3V36.5088ZM156.965 36.5088H157.965V35.5088H156.965V36.5088ZM156.965 40V41H157.965V40H156.965ZM146.771 40H145.771V41H146.771V40ZM146.771 22.3252H156.965V20.3252H146.771V22.3252ZM155.965 21.3252V24.8037H157.965V21.3252H155.965ZM156.965 23.8037H150.3V25.8037H156.965V23.8037ZM149.3 24.8037V28.1807H151.3V24.8037H149.3ZM150.3 29.1807H156.965V27.1807H150.3V29.1807ZM155.965 28.1807V31.5957H157.965V28.1807H155.965ZM156.965 30.5957H150.3V32.5957H156.965V30.5957ZM149.3 31.5957V36.5088H151.3V31.5957H149.3ZM150.3 37.5088H156.965V35.5088H150.3V37.5088ZM155.965 36.5088V40H157.965V36.5088H155.965ZM156.965 39H146.771V41H156.965V39ZM147.771 40V21.3252H145.771V40H147.771ZM160.304 21.3252V20.3252H159.304V21.3252H160.304ZM163.706 21.3252L164.544 20.7791L164.248 20.3252H163.706V21.3252ZM171.717 33.6143L170.879 34.1603L172.717 36.9796V33.6143H171.717ZM171.717 21.3252V20.3252H170.717V21.3252H171.717ZM175.271 21.3252H176.271V20.3252H175.271V21.3252ZM175.271 40V41H176.271V40H175.271ZM171.856 40L171.019 40.5467L171.315 41H171.856V40ZM163.858 27.749L164.696 27.2024L162.858 24.388V27.749H163.858ZM163.858 40V41H164.858V40H163.858ZM160.304 40H159.304V41H160.304V40ZM160.304 22.3252H163.706V20.3252H160.304V22.3252ZM162.868 21.8713L170.879 34.1603L172.555 33.0682L164.544 20.7791L162.868 21.8713ZM172.717 33.6143V21.3252H170.717V33.6143H172.717ZM171.717 22.3252H175.271V20.3252H171.717V22.3252ZM174.271 21.3252V40H176.271V21.3252H174.271ZM175.271 39H171.856V41H175.271V39ZM172.694 39.4533L164.696 27.2024L163.021 28.2957L171.019 40.5467L172.694 39.4533ZM162.858 27.749V40H164.858V27.749H162.858ZM163.858 39H160.304V41H163.858V39ZM161.304 40V21.3252H159.304V40H161.304ZM177.696 21.3252V20.3252H176.696V21.3252H177.696ZM188.018 21.3252H189.018V20.3252H188.018V21.3252ZM188.018 24.8291V25.8291H189.018V24.8291H188.018ZM184.615 24.8291V23.8291H183.615V24.8291H184.615ZM184.615 40V41H185.615V40H184.615ZM181.01 40H180.01V41H181.01V40ZM181.01 24.8291H182.01V23.8291H181.01V24.8291ZM177.696 24.8291H176.696V25.8291H177.696V24.8291ZM177.696 22.3252H188.018V20.3252H177.696V22.3252ZM187.018 21.3252V24.8291H189.018V21.3252H187.018ZM188.018 23.8291H184.615V25.8291H188.018V23.8291ZM183.615 24.8291V40H185.615V24.8291H183.615ZM184.615 39H181.01V41H184.615V39ZM182.01 40V24.8291H180.01V40H182.01ZM181.01 23.8291H177.696V25.8291H181.01V23.8291ZM178.696 24.8291V21.3252H176.696V24.8291H178.696Z" fill="white"/>
<path d="M194.49 27.3691H190.758C190.858 25.1999 191.537 23.4954 192.795 22.2559C194.062 21.0072 195.684 20.3828 197.662 20.3828C198.883 20.3828 199.959 20.6426 200.889 21.1621C201.827 21.6725 202.575 22.4154 203.131 23.3906C203.696 24.3568 203.979 25.3411 203.979 26.3438C203.979 27.5378 203.637 28.8229 202.953 30.1992C202.279 31.5755 201.039 33.2025 199.234 35.0801L196.979 37.459H204.143V41H190.211V39.168L196.432 32.8242C197.936 31.3021 198.934 30.0807 199.426 29.1602C199.927 28.2305 200.178 27.3919 200.178 26.6445C200.178 25.8698 199.918 25.2318 199.398 24.7305C198.888 24.2201 198.227 23.9648 197.416 23.9648C196.596 23.9648 195.912 24.2702 195.365 24.8809C194.818 25.4915 194.527 26.321 194.49 27.3691ZM209.912 20.8887H215.641V41H211.84V24.4844H207.697L209.912 20.8887Z" fill="#FFC300"/>
</svg>
