<?xml version="1.0" encoding="UTF-8"?>
<!DOCTYPE svg PUBLIC "-//W3C//DTD SVG 1.1//EN" "http://www.w3.org/Graphics/SVG/1.1/DTD/svg11.dtd">
<!-- Creator: CorelDRAW 2017 -->
<svg xmlns="http://www.w3.org/2000/svg" xml:space="preserve" width="1327px" height="988px" version="1.1" style="shape-rendering:geometricPrecision; text-rendering:geometricPrecision; image-rendering:optimizeQuality; fill-rule:evenodd; clip-rule:evenodd"
viewBox="0 0 376.48 280.36"
 xmlns:xlink="http://www.w3.org/1999/xlink">
 <defs>
  <style type="text/css">
   <![CDATA[
    .fil0 {fill:white}
   ]]>
  </style>
 </defs>
 <g id="Plan_x0020_1">
  <metadata id="CorelCorpID_0Corel-Layer"/>
  <path class="fil0" d="M73.66 252.67c2.78,0.46 2.6,-0.2 4.45,-0.65 1.36,-0.33 0.92,0.03 2.17,-0.63 0.83,-0.44 1.03,-0.58 2.29,-0.64 3.72,-0.17 5.74,1.92 8.38,2.86 -0.3,0.26 -0.14,0.18 -0.62,0.42 -0.44,0.22 -0.31,0.16 -0.89,0.32 -0.51,0.15 -1.26,0.32 -1.79,0.46 -9.49,2.61 -49.01,13.25 -54.72,13.36 0.95,-1.03 11.09,-6.62 13.19,-7.82l26.93 -15.62c4.27,-2.48 9.15,-5.62 13.48,-7.75 0.06,15.47 -11.39,12.43 -12.87,15.69zm285.89 -252.67l0.57 0c1.74,0.36 3.23,3.94 4.43,6.34 2.41,4.83 4.69,9.17 6.82,14.17 4.35,10.17 2.07,6.49 2.07,15.24 0,2.79 0.73,5.99 0.85,8.8l2.13 26.29c0.58,3.85 -2.9,0.4 -4.23,5.1 -0.4,1.41 -0.38,2.93 -0.67,4.15 -0.3,1.28 -0.64,2.21 -0.98,3.56 -1.22,4.91 -2.23,10.11 -3.52,15.21 -2.04,8.14 -3.83,13.99 -6.92,21.74 -2.79,6.96 -4.4,14.77 -6.49,21.89 -0.74,2.51 -1.43,4.67 -2.14,7.22 -0.7,2.49 -1.87,4.39 -1.87,7.5 0,5.04 7.65,6.81 2.21,11.85l-9.07 7.1c-3.97,2.52 -5.47,4.89 -6.71,9.48 -1.98,7.34 0.52,4.45 0.52,11.58 0,5.94 -9.38,10.78 -14.19,14.19l-16.74 11.35c-11.57,7.73 -25.8,12.51 -39.54,6.34 -3.99,-1.79 -6.44,-3.43 -9.2,-6.41 -5.58,-5.99 -6.27,-15.53 -7.81,-23.41 -1.68,-8.65 -3.09,-17.55 -4.82,-26.39l-3.62 -19.94c-0.63,-3.85 -2.69,-8.12 1.02,-8.93 1.06,-0.23 2.09,0.29 2.76,0.9 0.92,0.82 1,1.38 1.33,2.64 1.21,4.6 4.56,8.12 8.4,10.62 0.91,0.59 1.55,0.91 2.48,1.48 2.39,1.47 3.88,3.98 5.5,6.14 8.42,11.26 17.23,12.86 29.35,16.91l17.11 6.16c6.27,2.52 6.8,2.4 12.53,-1.42 3.39,-2.26 4.26,-0.15 3.81,-5.29 -0.31,-3.56 1.01,-9.75 1.13,-13.6l1.82 -22.58c0.69,-4.66 0.57,-8.83 1.06,-13.42l1.11 -13.64c0.68,-9.02 1.82,-18.02 2.26,-26.97 0.44,-8.96 3.11,-27.93 3.11,-35.76 -1.47,0.12 -2.44,1.1 -3.6,1.79l-40.61 25.79c-1.15,0.72 -2,1.24 -3.12,1.99l-21.68 14.07c-2.11,1.41 -4.02,2.68 -6.13,4.09 -9.7,6.46 -21.19,13.65 -30.38,20.97 -0.95,0.76 -1.96,1.45 -2.81,2.3 -0.99,1 -1.74,1.46 -2.7,2.42 -10.72,10.77 -18.38,22.4 -24.24,37.04 -3.33,8.31 -3.66,7.16 -1.09,10.58 0.8,1.07 1.45,1.91 2.15,2.96 4.27,6.48 6.11,15.24 7.14,23.5 0.16,1.35 0.42,3.1 0.51,4.6 0.09,1.34 0.24,3.22 0.45,4.66 0.45,3.07 0.22,6.77 0.61,9.6 0.32,2.31 -0.88,8.72 1.5,8.72 1.74,0 3.01,-0.35 4.55,-0.55 4.03,-0.54 7.3,-2.29 11.34,-2.29 7.59,0 13.72,7.09 19.17,11.19l5.6 4.33c1.91,1.56 3.87,2.92 5.83,4.39l11.35 8.51c1.99,1.49 3.5,3.59 6.29,3.65 -0.66,-2.45 -8.68,-12.45 -9.37,-15.04 2.38,0.2 8.3,2.53 10.61,3.3 14.94,4.98 29.24,11.32 43.59,17.7l4.64 2.17c1.63,0.82 3.01,1.36 4.64,2.18 4.18,2.09 8.53,3.85 12.68,6.04 0.36,0.2 0.26,0.14 0.54,0.31 0.58,0.37 0.19,0.1 0.49,0.36 -21.39,0 -41.89,0.29 -63.28,0.29l-61.86 0c-3.85,0 -7.34,-3.01 -9.88,-4.6 -3.69,-2.3 -7.3,-4.5 -10.64,-7.23l-5.8 -4.98c-2.19,-2.19 -5.84,-7.31 -6.88,-7.31 -1.31,0 -2.49,2.55 -5.68,2.55 -3.4,0 -5.06,-1.98 -7.66,-1.98 -3.42,0 -6.25,3.56 -8.3,5.89 -2.45,2.78 -5.41,5.24 -7.79,8.09l-6.4 6.66c-2.36,2.36 -2.63,3.51 -7.3,3.48 -24.67,-0.16 -49.49,0.28 -74.07,0.28 -14.09,0 -28.19,0 -42.28,0 -4.61,0 -22.39,0.45 -25.54,-0.28 0.77,-1.06 14.69,-8.55 16.93,-9.75l16.85 -9.54c5.7,-3.28 11.45,-6.21 17.07,-9.6 1.48,-0.9 2.83,-1.54 4.36,-2.45 1.47,-0.87 2.7,-1.52 4.18,-2.34 1.49,-0.84 2.71,-1.6 4.18,-2.36 0.94,-0.49 3.43,-1.83 3.97,-2.56 -0.82,-0.43 -0.94,-0.6 -2.25,-0.56l-2.02 0.02c-9.43,-0.49 -26.38,3.64 -26.38,-10.24l0 -12.77c0,-5.08 2.24,-9 5.22,-11.24 1.74,-1.3 3.23,-1.94 5.67,-2.56 2.23,-0.56 5.04,-0.41 6.7,-1.52 0,-2.62 -0.05,-4.7 1.57,-5.82 2.72,-1.88 16.14,-0.71 20,-0.71l29.51 0c0,-3.85 -3.12,-2.73 -3.12,-5.67 0,-1.43 0.67,-2.94 1.97,-3 1.96,-0.08 4.27,2.02 4.78,3.62 1.35,4.28 4.05,5.11 8.02,5.89 4.4,0.86 4.01,6.54 7.08,6.54 3.58,0 10.14,0.46 13.34,-0.29 0.47,-2.02 0.28,-6.94 0.28,-9.08 0,-5.41 -0.95,-16.77 2.2,-19.93 2.41,-2.43 7.77,-2.2 12.56,-2.2 4.92,0 9.83,-0.01 14.75,0 6.4,0.01 5.76,-1.32 7.07,-7.68l2.86 -11.9c2.98,-11.89 4.75,-22.1 12.25,-32.03 3.17,-4.2 6.8,-7.92 10.52,-11.6 0.78,-0.77 1.23,-0.95 2,-1.7l12.49 -13.33c0.57,-0.68 1.2,-1.22 1.84,-1.85l19.44 -21.13c3.69,-4.47 5.83,-1.79 8.72,-1.79 2.72,0 6.19,-2.24 8.32,-3.31l7.47 -3.88c5.14,-2.61 9.8,-5.18 14.95,-7.75 14,-7 26.65,-10.75 39.92,-17.41l22.79 -11.25c4.38,-2.19 11.84,-4.77 13.92,-9.07l5.18 -11.84c0.84,-1.78 1.64,-2.58 2.39,-2.74zm-126.01 242.9c1.62,0.89 5.1,0.51 9.47,6.15 1.61,2.07 3.5,4.97 5.18,6.73 1.93,2.03 1.64,1.2 1.34,2.28 -1.24,0.22 -2.96,-1.36 -4.08,-2.08l-20.66 -13.11c-3.4,-2.1 -0.71,-2.5 -2.48,-4.34 -1.13,-1.18 -3.74,-0.9 -5.7,-1.13 1.96,-0.86 10.37,-3.54 12.65,-3.3 2.23,0.24 3.1,2.41 4.23,4.04 0.52,0.76 1.63,1.7 1.7,2.29 0.18,1.55 -1.23,0.48 -1.65,2.47zm-137.91 17.59c0.99,-1.24 22.93,-19.16 25.07,-20.9 2.91,-2.37 5.57,-4.61 8.38,-6.95l8.41 -6.9c1.87,-0.99 3.22,-1.16 5.2,-2.46 6.26,-4.14 9.32,-11.27 15.45,-15.2 0.98,-0.63 3.98,-2.74 4.76,-2.88 2.52,6.07 -2.38,8.56 -4.22,12.18 2.91,0.2 4.99,-1.05 6.36,1.25 0.39,0.65 1.91,5.05 1.95,5.84 0.11,2.53 -2.37,2.78 -4.1,3.7 -1.66,0.9 -3.23,1.78 -4.96,2.7 -6.67,3.53 -13,7.29 -20.05,10.61 -8.96,4.23 -11.1,4.77 -20.69,9.95 -3.39,1.82 -17.4,9.57 -21.56,9.06zm106.84 -42.83c-1.65,-0.63 -9.28,-5.85 -11.57,-7.3 -3.79,-2.4 -7.41,-4.78 -11.22,-7.24 -15.95,-10.27 -11.81,-6.18 -12.62,-15.23 -0.69,-7.7 -0.84,-9.56 9.17,-8.81 7.95,0.58 14.89,-0.29 19.82,7.96 3.83,6.41 5.99,21.49 6.42,30.62zm140.33 -60.44c0.71,0.56 5.71,6.29 4.15,9.23 -0.73,1.38 -5.95,5.67 -7.9,6.48l3.75 -15.71zm-50.56 30.94c3.05,1.09 5.71,2.11 8.73,3.19l8.53 2.93c-3.85,0.85 -4.9,-0.46 -9.61,-1.52l-28.86 -6.9c-13.6,-3.58 -19.56,-3.31 -21.5,-14.3 -0.57,-3.22 -1.6,-6.82 -1.9,-9.9 2.96,0.57 6.15,2.68 7.93,4.18 4.55,3.86 4.27,11.84 19.11,16.33 6.02,1.82 11.76,3.92 17.57,5.99zm54.79 -34.11c-3.41,-2.05 -2.27,-5.56 -1.32,-9.51 0.83,-3.46 1.62,-6.65 2.43,-10.06 1.6,-6.72 3.22,-13.44 4.82,-20.15 1.32,-5.57 8.56,-37.7 9.92,-40.3 3.25,-0.4 1.97,1.49 1.42,3.65l-3.89 14.84c-4.06,15.44 -4.32,25.96 -8.25,41.68 -1.59,6.37 -3.22,13.53 -5.13,19.85zm10.32 -122.04c7.88,-2.34 10.44,9.49 2.97,11.37 -7.8,1.95 -10.88,-9.03 -2.97,-11.37zm-10.52 -7.15c0.37,1.34 -1.91,5.56 -2.77,6.77 -1.33,1.86 -3.57,2.76 -5.76,3.9l-82.93 42.79c-3.77,1.98 -5.04,3.61 -6.22,1.7 -2.15,-3.48 -0.28,-4.63 2.37,-5.88 14.85,-6.99 30.99,-14.62 45.13,-22.38 8.42,-4.63 15.85,-9.92 24.28,-14.61 4.07,-2.26 8.56,-4.46 12.7,-6.59 2.09,-1.07 4.2,-2.09 6.43,-3.23 1.66,-0.85 5.04,-3.16 6.77,-2.47z"/>
  <path class="fil0" d="M285.19 177.07l6.36 2.43c4.21,1.63 17.24,5.23 21.45,5.23 3.14,0 2.63,-5.59 3.96,-11.07 1.6,-6.54 1.29,-5.15 -3.51,-12.37 -0.91,-1.37 -4.26,-6.52 -5.28,-7.2 -1.46,0.34 -2.73,0.82 -4.43,1.24 -1.86,0.47 -2.73,0.63 -4.28,1.4 -3.84,1.9 -9.47,12.6 -12.06,16.6 -0.85,1.32 -1.48,2.35 -2.21,3.74z"/>
  <path class="fil0" d="M153.52 280.36l28.09 0c3.46,0 6.21,-0.28 9.37,-0.28 0,-4.15 -2.49,-6.61 -3.73,-10.75 -1.12,-3.74 -2.22,-5.93 -5.67,-8.51 -1.9,-1.43 -4.67,-2.88 -7.35,-2.88 -1.45,0 -9.02,9.35 -10.56,11 -0.47,0.5 -0.83,0.76 -1.27,1.29l-8.88 10.13z"/>
  <path class="fil0" d="M266.17 156.92c0,4.83 7.01,6.6 10.5,11.92 3.98,6.05 4.14,3.73 8.02,-0.21 3.23,-3.27 3.39,-9.14 0.23,-12.29 -1.17,-1.17 -3.16,-1.94 -4.6,-3.06 -3.99,-3.11 -3.18,-5.02 -4.12,-7.23 -0.45,-1.05 -0.97,-1.62 -1.23,-2.75 -1,0.27 -1.12,0.94 -2.36,3.03l-4.45 6.9c-0.62,0.87 -1.99,2.33 -1.99,3.69z"/>
  <path class="fil0" d="M227.3 204.31c0,1.61 1.3,3.06 1.9,4.35 0.72,1.55 0.95,2.93 1.9,4.33 1.26,1.86 5.39,4.38 8.68,4.38 0.66,0 4.83,-3.19 4.83,-7.67 0,-1.25 -0.63,-2.54 -0.97,-3.85 -1.16,-4.49 1.17,-9.01 -5.29,-9.75 -4.83,-0.56 -3.97,-0.15 -6.72,2.61 -0.96,0.95 -4.33,4.1 -4.33,5.6z"/>
  <path class="fil0" d="M252.27 148.13c0,2.12 1.67,3.95 2.76,5.18 3.24,3.64 4.47,5.26 7.79,1.11 3.95,-4.95 -1.19,-11.4 -2.89,-11.4 -0.32,0 -7.66,2.32 -7.66,5.11z"/>
  <path class="fil0" d="M269.58 133.09c0,-6.93 -1.43,-6.03 -1.7,-9.37 -2.26,1.52 -13.7,13.09 -7.36,13.89 2.61,0.33 0.26,-0.54 4.52,0.61 3.43,0.92 4.54,-3.63 4.54,-5.13z"/>
  <path class="fil0" d="M229.57 184.45c0,0.39 0.4,0.99 0.66,1.32 1.19,1.53 4.02,1.57 4.91,1.15 1.26,-0.6 1.21,-1.68 1.81,-2.76 0.55,-1 1.83,-1.17 2.83,-1.7 -0.11,-1.39 -0.66,-1.74 -1.63,-2.34 -5.34,-3.28 -5,1.4 -7.21,2.86 -0.62,0.41 -1.37,0.6 -1.37,1.47z"/>
  <path class="fil0" d="M249.43 233.82c0,2.36 3.2,3.64 5.53,2.7 1.01,-0.4 1.38,-1.87 1.83,-2.72 0.6,-1.12 0.01,-0.63 1.2,-1.06 0.88,-0.32 0.84,-0.19 1.66,-0.62 -0.15,-1.71 -3.46,-4.39 -5.5,-3.25 -1.15,0.65 -1.61,1.45 -2.33,2.52 -0.53,0.79 -2.39,2.22 -2.39,2.43z"/>
  <path class="fil0" d="M240.92 229c2.3,0.21 5.39,1.35 5.39,-2.84 0,-1.53 -0.53,-2.21 -1.14,-3.12 -1.88,0.5 -4.2,3.59 -4.25,5.96z"/>
 </g>
</svg>
