<svg width="300" height="46" viewBox="0 0 300 46" fill="none" xmlns="http://www.w3.org/2000/svg">
<path d="M23.8427 1.10674V27.7422H19.7255H18.2507L5.59197 7.9685V27.7422H0V1.10674H7.31258L18.2507 17.9291V1.10674H23.8427ZM49.5289 16.8962C49.5289 17.4864 49.5289 17.9291 49.5289 18.4456C49.4674 18.8883 49.4674 19.2572 49.4674 19.6261C49.406 19.995 49.406 20.364 49.406 20.6591H32.2614C32.5072 21.5445 33.1217 22.2085 34.0434 22.6512C34.9652 23.0939 36.3171 23.3152 38.0991 23.3152C38.4064 23.3152 38.7751 23.3152 39.2667 23.3152C39.7583 23.2415 40.2499 23.2415 40.803 23.2415C41.2946 23.1677 41.8476 23.1677 42.4621 23.1677C43.0152 23.0939 43.5682 23.0939 44.1213 23.0939C45.4117 23.0201 46.7636 22.9463 48.177 22.8726V26.9306C47.0094 27.1519 45.8419 27.3733 44.6743 27.5946C43.6911 27.7422 42.585 27.8898 41.4175 28.0373C40.2499 28.1849 39.1438 28.1849 38.0991 28.1849C35.9484 28.1849 34.1049 28.1111 32.6301 27.816C31.1553 27.5946 29.9263 27.0782 29.0045 26.4141C28.0828 25.6763 27.4068 24.7171 27.0381 23.4628C26.608 22.2085 26.4236 20.5853 26.4236 18.5932C26.4236 16.601 26.608 14.9778 27.0381 13.7235C27.4068 12.4692 28.0828 11.4363 29.0045 10.7722C29.9263 10.0344 31.1553 9.51793 32.6301 9.29659C34.1049 9.07524 35.9484 8.92768 38.0991 8.92768C39.8198 8.92768 41.4175 9.07524 42.8308 9.29659C44.1827 9.51793 45.4117 9.96063 46.3949 10.5509C47.3781 11.2149 48.177 12.0265 48.73 13.0595C49.2216 14.0924 49.5289 15.3467 49.5289 16.8962ZM43.6911 16.5273C43.6911 16.3797 43.6911 16.2321 43.6911 16.1584C43.6911 16.0108 43.6911 15.8632 43.6911 15.7157C43.6297 15.4943 43.5682 15.273 43.4453 15.0516C43.3224 14.8303 43.0766 14.6089 42.6465 14.4614C42.2778 14.3138 41.7247 14.1662 40.9873 14.0924C40.2499 14.0187 39.2667 13.9449 38.0991 13.9449C36.1942 13.9449 34.7808 14.1662 33.8591 14.6089C32.9373 15.0516 32.3843 15.7894 32.1999 16.8224H43.6911V16.5273ZM61.143 28.1849C59.6067 28.1849 58.3163 28.1111 57.1487 27.816C55.9812 27.5946 54.998 27.0782 54.2606 26.4141C53.4617 25.6763 52.9086 24.7171 52.4785 23.4628C52.1098 22.2085 51.9254 20.5853 51.9254 18.5932V9.29659H57.5174V18.5932C57.5174 19.331 57.6403 19.9213 57.7632 20.4377C57.8861 20.8804 58.1319 21.2493 58.3777 21.5445C58.685 21.8396 59.0537 22.0609 59.5453 22.2085C59.9754 22.2823 60.5285 22.3561 61.143 22.3561C61.5117 22.3561 61.8804 22.3561 62.1876 22.3561C62.5563 22.3561 62.8636 22.2823 63.2323 22.2823C63.5395 22.2085 63.9697 22.2085 64.3384 22.1347C64.7685 22.1347 65.2601 22.0609 65.8746 21.9872V9.29659H71.4666V26.9306C70.6678 27.0782 69.9304 27.2257 69.1315 27.3733C68.3941 27.5208 67.5953 27.6684 66.7964 27.7422C65.9361 27.8898 65.0758 27.9635 64.154 28.1111C63.2323 28.1849 62.2491 28.1849 61.143 28.1849ZM85.5387 12.1741V17.3389H79.9467V27.7422H74.2933V14.4614C74.2933 12.1741 74.4162 10.182 74.7235 8.48498C74.9693 6.78798 75.5223 5.38612 76.4441 4.2056C77.3044 3.09886 78.5334 2.21347 80.1926 1.62321C81.7903 1.10674 83.941 0.811607 86.6448 0.811607C86.8906 0.811607 87.1364 0.811607 87.3208 0.811607C87.5051 0.811607 87.6895 0.811607 87.8124 0.811607H88.1811V6.12394H86.5834C85.2929 6.12394 84.1868 6.27151 83.388 6.56664C82.5891 6.86177 81.9132 7.30446 81.4216 7.82094C80.9299 8.4112 80.6227 9.00146 80.3769 9.73928C80.1926 10.4771 80.0696 11.2887 80.0082 12.1741H85.5387ZM103.974 27.7422L95.2479 7.9685V27.7422H89.6559V1.10674H97.3372L105.449 19.4048L113.621 1.10674H121.241V27.7422H115.649V7.9685L106.923 27.7422H103.974ZM135.436 8.92768C137.649 8.92768 139.431 9.07524 140.905 9.29659C142.38 9.51793 143.609 10.0344 144.531 10.7722C145.453 11.4363 146.129 12.4692 146.497 13.7235C146.928 14.9778 147.112 16.601 147.112 18.5932C147.112 20.5853 146.928 22.2085 146.497 23.4628C146.129 24.7171 145.453 25.6763 144.531 26.4141C143.609 27.0782 142.38 27.5946 140.905 27.816C139.431 28.1111 137.649 28.1849 135.436 28.1849C133.286 28.1849 131.442 28.1111 129.967 27.816C128.492 27.5946 127.325 27.0782 126.403 26.4141C125.481 25.6763 124.805 24.7171 124.437 23.4628C124.007 22.2085 123.822 20.5853 123.822 18.5932C123.822 16.601 124.007 14.9778 124.437 13.7235C124.805 12.4692 125.481 11.4363 126.403 10.7722C127.325 10.0344 128.492 9.51793 129.967 9.29659C131.442 9.07524 133.286 8.92768 135.436 8.92768ZM135.436 22.3561C136.604 22.3561 137.526 22.2823 138.263 22.2085C139 22.1347 139.615 21.9872 140.045 21.692C140.475 21.4707 140.721 21.028 140.905 20.5853C141.09 20.0688 141.151 19.4048 141.151 18.5932C141.151 17.7078 141.09 17.0437 140.905 16.5273C140.721 16.0108 140.475 15.6419 140.045 15.4205C139.615 15.1254 139 14.9778 138.263 14.8303C137.526 14.7565 136.604 14.7565 135.436 14.7565C134.33 14.7565 133.347 14.7565 132.61 14.8303C131.872 14.9778 131.319 15.1254 130.889 15.4205C130.459 15.6419 130.152 16.0108 129.967 16.5273C129.844 17.0437 129.721 17.7078 129.721 18.5932C129.721 19.4048 129.844 20.0688 129.967 20.5853C130.152 21.028 130.459 21.4707 130.889 21.692C131.319 21.9872 131.872 22.1347 132.61 22.2085C133.347 22.2823 134.33 22.3561 135.436 22.3561ZM155.285 8.92768L149.631 10.6247V27.7422H155.285V8.92768ZM155.039 3.09886C155.039 3.46777 154.977 3.91047 154.793 4.27938C154.67 4.64829 154.486 4.94342 154.302 5.23855C154.056 5.53368 153.748 5.75503 153.441 5.90259C153.134 6.12394 152.827 6.19772 152.458 6.19772C152.089 6.19772 151.782 6.12394 151.475 5.90259C151.168 5.75503 150.86 5.53368 150.615 5.23855C150.43 4.94342 150.246 4.64829 150.123 4.27938C149.939 3.91047 149.877 3.46777 149.877 3.09886C149.877 2.65617 149.939 2.28726 150.123 1.91834C150.246 1.54943 150.43 1.18052 150.615 0.885389C150.86 0.664042 151.168 0.442695 151.475 0.221347C151.782 0.0737824 152.089 0 152.458 0C152.827 0 153.134 0.0737824 153.441 0.221347C153.748 0.442695 154.056 0.664042 154.302 0.885389C154.486 1.18052 154.67 1.54943 154.793 1.91834C154.977 2.28726 155.039 2.65617 155.039 3.09886ZM171.63 8.92768C173.843 8.92768 175.625 9.07524 177.1 9.29659C178.636 9.51793 179.803 10.0344 180.725 10.7722C181.647 11.4363 182.323 12.4692 182.692 13.7235C183.122 14.9778 183.306 16.601 183.306 18.5932V27.7422H177.345V18.5932C177.345 17.7078 177.284 17.0437 177.1 16.5273C176.977 16.0108 176.669 15.6419 176.239 15.4205C175.809 15.1254 175.195 14.9778 174.457 14.8303C173.72 14.7565 172.798 14.7565 171.63 14.7565C171.262 14.7565 170.77 14.7565 170.217 14.7565C169.664 14.8303 169.111 14.8303 168.497 14.8303C167.943 14.9041 167.268 14.9778 166.653 14.9778C166.039 15.0516 165.424 15.0516 164.871 15.1254V27.7422H159.279V9.29659H163.335L164.011 10.2558C164.81 9.88685 165.916 9.51793 167.268 9.29659C168.558 9.07524 170.033 8.92768 171.63 8.92768ZM205.797 22.4299C205.797 23.5366 205.612 24.422 205.244 25.1598C204.875 25.9714 204.199 26.5617 203.277 27.0044C202.356 27.4471 201.188 27.816 199.652 27.9635C198.177 28.1849 196.333 28.1849 194.121 28.1849C193.261 28.1849 192.401 28.1111 191.479 28.0373C190.619 27.8898 189.82 27.816 189.021 27.6684C188.222 27.5946 187.546 27.4471 186.87 27.3733C186.256 27.2257 185.764 27.1519 185.395 27.0782V22.7988C186.624 22.8726 187.792 22.9463 188.898 22.9463C189.881 23.0201 190.864 23.0939 191.848 23.0939C192.831 23.1677 193.63 23.1677 194.183 23.1677C195.412 23.1677 196.395 23.2415 197.132 23.2415C197.87 23.1677 198.484 23.1677 198.853 23.0939C199.283 23.0201 199.529 22.8726 199.652 22.7988C199.775 22.6512 199.898 22.4299 199.898 22.2823C199.898 22.0609 199.898 21.9134 199.775 21.7658C199.652 21.692 199.467 21.6183 199.222 21.5445C198.914 21.4707 198.546 21.3969 198.054 21.3231C197.562 21.3231 196.948 21.2493 196.149 21.1756C193.753 20.9542 191.786 20.6591 190.311 20.364C188.775 20.0688 187.608 19.6261 186.809 19.1834C185.948 18.667 185.395 18.0767 185.088 17.3389C184.781 16.601 184.658 15.7157 184.658 14.7565C184.658 13.7235 184.842 12.8381 185.211 12.1003C185.641 11.2887 186.256 10.6985 187.177 10.2558C188.099 9.73928 189.328 9.37037 190.803 9.2228C192.278 9.00146 194.121 8.92768 196.395 8.92768C197.378 9.00146 198.361 9.07524 199.345 9.14902C200.328 9.29659 201.188 9.44415 201.987 9.59171C202.909 9.73928 203.769 9.88685 204.568 10.1082V14.5351C204.076 14.4614 203.462 14.3876 202.663 14.3138C201.925 14.24 201.188 14.24 200.389 14.1662C199.59 14.0924 198.853 14.0924 198.116 14.0187C197.378 14.0187 196.764 13.9449 196.272 13.9449C195.043 13.9449 194.06 13.9449 193.322 13.9449C192.585 13.9449 191.971 14.0187 191.602 14.0924C191.172 14.1662 190.926 14.24 190.742 14.3876C190.619 14.5351 190.557 14.6827 190.557 14.9041C190.557 15.0516 190.619 15.1992 190.68 15.3467C190.803 15.4205 190.926 15.4943 191.233 15.5681C191.479 15.6419 191.848 15.7157 192.339 15.7157C192.831 15.7894 193.507 15.8632 194.306 15.937C196.702 16.1584 198.669 16.3797 200.205 16.7486C201.68 17.0437 202.847 17.4864 203.708 18.0029C204.506 18.4456 205.121 19.0359 205.367 19.7737C205.674 20.5115 205.797 21.3969 205.797 22.4299ZM208.07 14.4614C208.07 12.1741 208.255 10.182 208.562 8.48498C208.869 6.78798 209.484 5.38612 210.406 4.2056C211.266 3.09886 212.556 2.21347 214.215 1.697C215.875 1.10674 218.087 0.811607 220.729 0.811607C221.958 0.811607 223.187 0.811607 224.355 0.959172C225.584 1.03295 226.69 1.18052 227.673 1.2543C228.718 1.40187 229.64 1.54943 230.438 1.697C231.237 1.84456 231.852 1.99213 232.343 2.06591V7.52581C232.098 7.45203 231.667 7.45203 230.991 7.30446C230.315 7.23068 229.455 7.08311 228.41 7.00933C227.366 6.93555 226.198 6.78798 224.846 6.7142C223.556 6.64042 222.143 6.64042 220.668 6.64042C219.132 6.64042 217.903 6.78798 216.981 7.1569C216.12 7.52581 215.445 8.04228 215.014 8.70633C214.584 9.44415 214.338 10.2558 214.215 11.2149C214.093 12.1741 214.031 13.2808 214.031 14.4614C214.031 15.6419 214.093 16.7486 214.215 17.7078C214.338 18.667 214.584 19.4786 215.014 20.1426C215.445 20.8066 216.12 21.3231 216.981 21.692C217.903 22.1347 219.132 22.2823 220.668 22.2823C222.327 22.2823 223.802 22.2085 225.215 22.1347C226.628 22.0609 227.919 21.9134 228.964 21.8396C230.254 21.692 231.422 21.5445 232.466 21.3231V26.783C232.036 26.9306 231.422 27.0044 230.623 27.1519C229.824 27.2995 228.902 27.4471 227.857 27.5946C226.813 27.7422 225.645 27.816 224.478 27.8898C223.249 28.0373 222.02 28.0373 220.729 28.0373C218.087 28.0373 215.875 27.816 214.215 27.2257C212.556 26.6355 211.266 25.8239 210.406 24.6433C209.484 23.5366 208.869 22.0609 208.562 20.364C208.255 18.667 208.07 16.6748 208.07 14.4614ZM241.069 9.96063C241.745 9.73928 242.421 9.59172 243.159 9.44415C243.773 9.29659 244.51 9.22281 245.309 9.07524C246.17 9.00146 246.968 8.92768 247.89 8.92768C250.041 8.92768 251.884 9.07524 253.359 9.29659C254.834 9.51793 256.063 10.0344 256.923 10.7722C257.845 11.4363 258.521 12.4692 258.89 13.7235C259.32 14.9778 259.504 16.601 259.504 18.5932V27.7422H253.605V18.5932C253.605 17.7078 253.544 17.0437 253.359 16.5273C253.175 16.0108 252.868 15.6419 252.438 15.4205C252.007 15.1254 251.454 14.9778 250.717 14.8303C249.98 14.7565 248.996 14.7565 247.89 14.7565C247.46 14.7565 247.03 14.7565 246.477 14.7565C245.924 14.8303 245.371 14.8303 244.756 14.8303C244.142 14.9041 243.527 14.9778 242.913 14.9778C242.237 15.0516 241.622 15.0516 241.069 15.1254V27.7422H235.477V10.6985V1.10674H241.069V9.96063ZM284.883 16.8962C284.883 17.4864 284.883 17.9291 284.883 18.4456C284.883 18.8883 284.822 19.2572 284.822 19.6261C284.822 19.995 284.76 20.364 284.76 20.6591H267.616C267.862 21.5445 268.476 22.2085 269.398 22.6512C270.32 23.0939 271.671 23.3152 273.453 23.3152C273.761 23.3152 274.191 23.3152 274.621 23.3152C275.113 23.2415 275.604 23.2415 276.157 23.2415C276.649 23.1677 277.202 23.1677 277.816 23.1677C278.37 23.0939 278.984 23.0939 279.476 23.0939C280.766 23.0201 282.118 22.9463 283.531 22.8726V26.9306C282.364 27.1519 281.258 27.3733 280.09 27.5946C279.046 27.7422 277.939 27.8898 276.772 28.0373C275.604 28.1849 274.498 28.1849 273.453 28.1849C271.303 28.1849 269.459 28.1111 267.984 27.816C266.51 27.5946 265.281 27.0782 264.359 26.4141C263.437 25.6763 262.761 24.7171 262.392 23.4628C261.962 22.2085 261.778 20.5853 261.778 18.5932C261.778 16.601 261.962 14.9778 262.392 13.7235C262.761 12.4692 263.437 11.4363 264.359 10.7722C265.281 10.0344 266.51 9.51793 267.984 9.29659C269.459 9.07524 271.303 8.92768 273.453 8.92768C275.174 8.92768 276.772 9.07524 278.185 9.29659C279.599 9.51793 280.766 9.96063 281.749 10.5509C282.733 11.2149 283.531 12.0265 284.084 13.0595C284.637 14.0924 284.883 15.3467 284.883 16.8962ZM279.045 16.5273C279.045 16.3797 279.045 16.2321 279.045 16.1584C279.045 16.0108 279.045 15.8632 279.045 15.7157C279.045 15.4943 278.923 15.273 278.8 15.0516C278.677 14.8303 278.431 14.6089 278.062 14.4614C277.632 14.3138 277.079 14.1662 276.342 14.0924C275.604 14.0187 274.682 13.9449 273.453 13.9449C271.549 13.9449 270.135 14.1662 269.213 14.6089C268.292 15.0516 267.739 15.7894 267.554 16.8224H279.045V16.5273ZM287.587 10.182C288.447 9.96063 289.369 9.81306 290.414 9.59171C291.397 9.44415 292.442 9.37037 293.486 9.2228C294.531 9.14902 295.637 9.07524 296.743 9.00146C297.849 8.92767 298.894 8.92768 300 8.92768V13.7973C298.832 13.7973 297.849 13.9449 296.989 14.0187C296.19 14.1662 295.453 14.3138 294.9 14.3876C294.224 14.5351 293.671 14.6827 293.179 14.8303V27.7422H287.587V10.182Z" fill="white"/>
<path d="M16.39 31.032C17.594 31.032 18.588 31.3307 19.372 31.928C20.156 32.516 20.6973 33.3233 20.996 34.35H19.652C19.4 33.6967 18.994 33.1787 18.434 32.796C17.874 32.404 17.188 32.208 16.376 32.208C15.732 32.208 15.1533 32.3667 14.64 32.684C14.136 32.992 13.7347 33.44 13.436 34.028C13.1467 34.6067 13.002 35.288 13.002 36.072C13.002 36.8467 13.1467 37.5233 13.436 38.102C13.7347 38.6807 14.136 39.1287 14.64 39.446C15.1533 39.754 15.732 39.908 16.376 39.908C17.188 39.908 17.874 39.7167 18.434 39.334C18.994 38.942 19.4 38.4193 19.652 37.766H20.996C20.6973 38.7927 20.156 39.6047 19.372 40.202C18.588 40.79 17.594 41.084 16.39 41.084C15.466 41.084 14.6493 40.874 13.94 40.454C13.2307 40.0247 12.6753 39.432 12.274 38.676C11.882 37.9107 11.686 37.0427 11.686 36.072C11.686 35.092 11.882 34.2193 12.274 33.454C12.6753 32.6887 13.2307 32.096 13.94 31.676C14.6493 31.2467 15.466 31.032 16.39 31.032ZM29.7697 36.73C29.7697 37.0007 29.7511 37.234 29.7137 37.43H23.5677C23.5957 38.3073 23.8431 38.9653 24.3097 39.404C24.7857 39.8427 25.3644 40.062 26.0457 40.062C26.6617 40.062 27.1751 39.908 27.5857 39.6C28.0057 39.2827 28.2624 38.8627 28.3557 38.34H29.7137C29.6204 38.872 29.4104 39.348 29.0837 39.768C28.7664 40.188 28.3511 40.5147 27.8377 40.748C27.3244 40.9813 26.7457 41.098 26.1017 41.098C25.3644 41.098 24.7111 40.9393 24.1417 40.622C23.5724 40.3047 23.1244 39.852 22.7977 39.264C22.4804 38.6667 22.3217 37.9667 22.3217 37.164C22.3217 36.3613 22.4804 35.6613 22.7977 35.064C23.1244 34.4667 23.5724 34.0093 24.1417 33.692C24.7111 33.3747 25.3644 33.216 26.1017 33.216C26.8484 33.216 27.4971 33.3747 28.0477 33.692C28.6077 34.0093 29.0324 34.434 29.3217 34.966C29.6204 35.498 29.7697 36.086 29.7697 36.73ZM28.4817 36.814C28.5097 36.2447 28.4164 35.7687 28.2017 35.386C27.9871 35.0033 27.6931 34.7187 27.3197 34.532C26.9464 34.3453 26.5404 34.252 26.1017 34.252C25.4017 34.252 24.8137 34.4713 24.3377 34.91C23.8617 35.3393 23.6051 35.974 23.5677 36.814H28.4817ZM35.4821 33.188C36.3781 33.188 37.1014 33.4773 37.6521 34.056C38.2027 34.6253 38.4781 35.4513 38.4781 36.534V41H37.2041V36.646C37.2041 35.8807 37.0081 35.2927 36.6161 34.882C36.2241 34.4713 35.6921 34.266 35.0201 34.266C34.3201 34.266 33.7601 34.4947 33.3401 34.952C32.9201 35.4 32.7101 36.058 32.7101 36.926V41H31.4361V33.314H32.7101V35.134C32.9061 34.5087 33.2514 34.028 33.7461 33.692C34.2501 33.356 34.8287 33.188 35.4821 33.188ZM44.1002 39.88V41H43.1482C42.3642 41 41.7762 40.8133 41.3842 40.44C41.0015 40.0667 40.8102 39.4413 40.8102 38.564V34.42H39.6622V33.314H40.8102V31.396H42.0982V33.314H44.0862V34.42H42.0982V38.592C42.0982 39.0867 42.1868 39.4273 42.3642 39.614C42.5508 39.7913 42.8682 39.88 43.3162 39.88H44.1002ZM46.9288 34.868C47.1808 34.336 47.5495 33.9253 48.0348 33.636C48.5201 33.3373 49.0988 33.188 49.7708 33.188V34.574H49.3788C48.6601 34.574 48.0721 34.7607 47.6148 35.134C47.1575 35.498 46.9288 36.1047 46.9288 36.954V41H45.6548V33.314H46.9288V34.868ZM58.0979 36.73C58.0979 37.0007 58.0792 37.234 58.0419 37.43H51.8959C51.9239 38.3073 52.1712 38.9653 52.6379 39.404C53.1139 39.8427 53.6925 40.062 54.3739 40.062C54.9899 40.062 55.5032 39.908 55.9139 39.6C56.3339 39.2827 56.5905 38.8627 56.6839 38.34H58.0419C57.9485 38.872 57.7385 39.348 57.4119 39.768C57.0945 40.188 56.6792 40.5147 56.1659 40.748C55.6525 40.9813 55.0739 41.098 54.4299 41.098C53.6925 41.098 53.0392 40.9393 52.4699 40.622C51.9005 40.3047 51.4525 39.852 51.1259 39.264C50.8085 38.6667 50.6499 37.9667 50.6499 37.164C50.6499 36.3613 50.8085 35.6613 51.1259 35.064C51.4525 34.4667 51.9005 34.0093 52.4699 33.692C53.0392 33.3747 53.6925 33.216 54.4299 33.216C55.1765 33.216 55.8252 33.3747 56.3759 33.692C56.9359 34.0093 57.3605 34.434 57.6499 34.966C57.9485 35.498 58.0979 36.086 58.0979 36.73ZM56.8099 36.814C56.8379 36.2447 56.7445 35.7687 56.5299 35.386C56.3152 35.0033 56.0212 34.7187 55.6479 34.532C55.2745 34.3453 54.8685 34.252 54.4299 34.252C53.7299 34.252 53.1419 34.4713 52.6659 34.91C52.1899 35.3393 51.9332 35.974 51.8959 36.814H56.8099ZM69.0052 38.718H64.6652L63.8392 41H62.4672L66.1212 31.312H67.5632L71.2032 41H69.8312L69.0052 38.718ZM68.6412 37.724L66.8352 32.74L65.0292 37.724H68.6412ZM79.3247 33.314V41H78.0507V39.194C77.8547 39.8193 77.5047 40.3 77.0007 40.636C76.506 40.9627 75.9274 41.126 75.2647 41.126C74.378 41.126 73.6594 40.8413 73.1087 40.272C72.558 39.6933 72.2827 38.8673 72.2827 37.794V33.314H73.5567V37.668C73.5567 38.4333 73.7527 39.026 74.1447 39.446C74.5367 39.8567 75.0687 40.062 75.7407 40.062C76.4407 40.062 77.0007 39.838 77.4207 39.39C77.8407 38.9327 78.0507 38.27 78.0507 37.402V33.314H79.3247ZM85.0338 39.88V41H84.0818C83.2978 41 82.7098 40.8133 82.3178 40.44C81.9351 40.0667 81.7438 39.4413 81.7438 38.564V34.42H80.5958V33.314H81.7438V31.396H83.0318V33.314H85.0198V34.42H83.0318V38.592C83.0318 39.0867 83.1204 39.4273 83.2978 39.614C83.4844 39.7913 83.8018 39.88 84.2498 39.88H85.0338ZM90.0744 33.216C90.8117 33.216 91.4697 33.3747 92.0484 33.692C92.6364 34.0093 93.0937 34.4667 93.4204 35.064C93.7564 35.6613 93.9244 36.3613 93.9244 37.164C93.9244 37.9667 93.7564 38.6667 93.4204 39.264C93.0937 39.852 92.6364 40.3047 92.0484 40.622C91.4697 40.9393 90.8117 41.098 90.0744 41.098C89.3371 41.098 88.6744 40.9393 88.0864 40.622C87.5077 40.3047 87.0504 39.852 86.7144 39.264C86.3784 38.6667 86.2104 37.9667 86.2104 37.164C86.2104 36.3613 86.3784 35.6613 86.7144 35.064C87.0504 34.4667 87.5077 34.0093 88.0864 33.692C88.6744 33.3747 89.3371 33.216 90.0744 33.216ZM90.0744 34.336C89.6171 34.336 89.1924 34.4387 88.8004 34.644C88.4177 34.8493 88.1051 35.1667 87.8624 35.596C87.6291 36.016 87.5124 36.5387 87.5124 37.164C87.5124 37.78 87.6291 38.3027 87.8624 38.732C88.1051 39.152 88.4177 39.4647 88.8004 39.67C89.1924 39.8753 89.6171 39.978 90.0744 39.978C90.5317 39.978 90.9517 39.8753 91.3344 39.67C91.7264 39.4647 92.0391 39.152 92.2724 38.732C92.5151 38.3027 92.6364 37.78 92.6364 37.164C92.6364 36.5387 92.5151 36.016 92.2724 35.596C92.0391 35.1667 91.7264 34.8493 91.3344 34.644C90.9517 34.4387 90.5317 34.336 90.0744 34.336ZM105.035 33.188C105.931 33.188 106.649 33.4773 107.191 34.056C107.741 34.6253 108.017 35.4513 108.017 36.534V41H106.743V36.646C106.743 35.89 106.556 35.3113 106.183 34.91C105.819 34.5087 105.315 34.308 104.671 34.308C103.999 34.308 103.457 34.532 103.047 34.98C102.645 35.4187 102.445 36.0673 102.445 36.926V41H101.171V36.646C101.171 35.89 100.984 35.3113 100.611 34.91C100.237 34.5087 99.7332 34.308 99.0985 34.308C98.4172 34.308 97.8712 34.532 97.4605 34.98C97.0592 35.4187 96.8585 36.0673 96.8585 36.926V41H95.5845V33.314H96.8585V35.064C97.0452 34.4573 97.3765 33.9953 97.8525 33.678C98.3378 33.3513 98.8932 33.188 99.5185 33.188C100.172 33.188 100.737 33.356 101.213 33.692C101.698 34.0187 102.043 34.504 102.249 35.148C102.463 34.5227 102.823 34.042 103.327 33.706C103.831 33.3607 104.4 33.188 105.035 33.188ZM113.481 33.216C114.218 33.216 114.876 33.3747 115.455 33.692C116.043 34.0093 116.5 34.4667 116.827 35.064C117.163 35.6613 117.331 36.3613 117.331 37.164C117.331 37.9667 117.163 38.6667 116.827 39.264C116.5 39.852 116.043 40.3047 115.455 40.622C114.876 40.9393 114.218 41.098 113.481 41.098C112.743 41.098 112.081 40.9393 111.493 40.622C110.914 40.3047 110.457 39.852 110.121 39.264C109.785 38.6667 109.617 37.9667 109.617 37.164C109.617 36.3613 109.785 35.6613 110.121 35.064C110.457 34.4667 110.914 34.0093 111.493 33.692C112.081 33.3747 112.743 33.216 113.481 33.216ZM113.481 34.336C113.023 34.336 112.599 34.4387 112.207 34.644C111.824 34.8493 111.511 35.1667 111.269 35.596C111.035 36.016 110.919 36.5387 110.919 37.164C110.919 37.78 111.035 38.3027 111.269 38.732C111.511 39.152 111.824 39.4647 112.207 39.67C112.599 39.8753 113.023 39.978 113.481 39.978C113.938 39.978 114.358 39.8753 114.741 39.67C115.133 39.4647 115.445 39.152 115.679 38.732C115.921 38.3027 116.043 37.78 116.043 37.164C116.043 36.5387 115.921 36.016 115.679 35.596C115.445 35.1667 115.133 34.8493 114.741 34.644C114.358 34.4387 113.938 34.336 113.481 34.336ZM123.233 33.216C123.914 33.216 124.521 33.3747 125.053 33.692C125.585 34.0093 126 34.4667 126.299 35.064C126.607 35.6613 126.761 36.3613 126.761 37.164C126.761 37.9667 126.607 38.6667 126.299 39.264C126 39.852 125.585 40.3047 125.053 40.622C124.521 40.9393 123.914 41.098 123.233 41.098C122.486 41.098 121.851 40.9113 121.329 40.538C120.815 40.1553 120.461 39.656 120.265 39.04V41H118.991V30.64H120.265V35.274C120.461 34.658 120.815 34.1633 121.329 33.79C121.851 33.4073 122.486 33.216 123.233 33.216ZM122.869 34.35C122.374 34.35 121.926 34.4667 121.525 34.7C121.123 34.924 120.811 35.2507 120.587 35.68C120.363 36.1093 120.251 36.604 120.251 37.164C120.251 37.724 120.363 38.2187 120.587 38.648C120.811 39.068 121.123 39.3947 121.525 39.628C121.926 39.8613 122.374 39.978 122.869 39.978C123.662 39.978 124.292 39.7307 124.759 39.236C125.235 38.732 125.473 38.0413 125.473 37.164C125.473 36.2867 125.235 35.6007 124.759 35.106C124.292 34.602 123.662 34.35 122.869 34.35ZM128.2 31.06C128.2 30.8267 128.28 30.64 128.438 30.5C128.597 30.3507 128.807 30.276 129.068 30.276C129.33 30.276 129.54 30.3507 129.698 30.5C129.857 30.64 129.936 30.8267 129.936 31.06C129.936 31.2933 129.857 31.4847 129.698 31.634C129.54 31.774 129.33 31.844 129.068 31.844C128.807 31.844 128.597 31.774 128.438 31.634C128.28 31.4847 128.2 31.2933 128.2 31.06ZM129.698 33.314V41H128.424V33.314H129.698ZM133.021 30.64V41H131.747V30.64H133.021ZM142.139 36.73C142.139 37.0007 142.12 37.234 142.083 37.43H135.937C135.965 38.3073 136.212 38.9653 136.679 39.404C137.155 39.8427 137.734 40.062 138.415 40.062C139.031 40.062 139.544 39.908 139.955 39.6C140.375 39.2827 140.632 38.8627 140.725 38.34H142.083C141.99 38.872 141.78 39.348 141.453 39.768C141.136 40.188 140.72 40.5147 140.207 40.748C139.694 40.9813 139.115 41.098 138.471 41.098C137.734 41.098 137.08 40.9393 136.511 40.622C135.942 40.3047 135.494 39.852 135.167 39.264C134.85 38.6667 134.691 37.9667 134.691 37.164C134.691 36.3613 134.85 35.6613 135.167 35.064C135.494 34.4667 135.942 34.0093 136.511 33.692C137.08 33.3747 137.734 33.216 138.471 33.216C139.218 33.216 139.866 33.3747 140.417 33.692C140.977 34.0093 141.402 34.434 141.691 34.966C141.99 35.498 142.139 36.086 142.139 36.73ZM140.851 36.814C140.879 36.2447 140.786 35.7687 140.571 35.386C140.356 35.0033 140.062 34.7187 139.689 34.532C139.316 34.3453 138.91 34.252 138.471 34.252C137.771 34.252 137.183 34.4713 136.707 34.91C136.231 35.3393 135.974 35.974 135.937 36.814H140.851ZM156.714 33.188C157.61 33.188 158.329 33.4773 158.87 34.056C159.421 34.6253 159.696 35.4513 159.696 36.534V41H158.422V36.646C158.422 35.89 158.236 35.3113 157.862 34.91C157.498 34.5087 156.994 34.308 156.35 34.308C155.678 34.308 155.137 34.532 154.726 34.98C154.325 35.4187 154.124 36.0673 154.124 36.926V41H152.85V36.646C152.85 35.89 152.664 35.3113 152.29 34.91C151.917 34.5087 151.413 34.308 150.778 34.308C150.097 34.308 149.551 34.532 149.14 34.98C148.739 35.4187 148.538 36.0673 148.538 36.926V41H147.264V33.314H148.538V35.064C148.725 34.4573 149.056 33.9953 149.532 33.678C150.018 33.3513 150.573 33.188 151.198 33.188C151.852 33.188 152.416 33.356 152.892 33.692C153.378 34.0187 153.723 34.504 153.928 35.148C154.143 34.5227 154.502 34.042 155.006 33.706C155.51 33.3607 156.08 33.188 156.714 33.188ZM168.506 33.314V41H167.232V39.194C167.036 39.8193 166.686 40.3 166.182 40.636C165.688 40.9627 165.109 41.126 164.446 41.126C163.56 41.126 162.841 40.8413 162.29 40.272C161.74 39.6933 161.464 38.8673 161.464 37.794V33.314H162.738V37.668C162.738 38.4333 162.934 39.026 163.326 39.446C163.718 39.8567 164.25 40.062 164.922 40.062C165.622 40.062 166.182 39.838 166.602 39.39C167.022 38.9327 167.232 38.27 167.232 37.402V33.314H168.506ZM171.821 30.64V41H170.547V30.64H171.821ZM177.538 39.88V41H176.586C175.802 41 175.214 40.8133 174.822 40.44C174.439 40.0667 174.248 39.4413 174.248 38.564V34.42H173.1V33.314H174.248V31.396H175.536V33.314H177.524V34.42H175.536V38.592C175.536 39.0867 175.624 39.4273 175.802 39.614C175.988 39.7913 176.306 39.88 176.754 39.88H177.538ZM178.868 31.06C178.868 30.8267 178.948 30.64 179.106 30.5C179.265 30.3507 179.475 30.276 179.736 30.276C179.998 30.276 180.208 30.3507 180.366 30.5C180.525 30.64 180.604 30.8267 180.604 31.06C180.604 31.2933 180.525 31.4847 180.366 31.634C180.208 31.774 179.998 31.844 179.736 31.844C179.475 31.844 179.265 31.774 179.106 31.634C178.948 31.4847 178.868 31.2933 178.868 31.06ZM180.366 33.314V41H179.092V33.314H180.366ZM191.865 33.188C192.761 33.188 193.479 33.4773 194.021 34.056C194.571 34.6253 194.847 35.4513 194.847 36.534V41H193.573V36.646C193.573 35.89 193.386 35.3113 193.013 34.91C192.649 34.5087 192.145 34.308 191.501 34.308C190.829 34.308 190.287 34.532 189.877 34.98C189.475 35.4187 189.275 36.0673 189.275 36.926V41H188.001V36.646C188.001 35.89 187.814 35.3113 187.441 34.91C187.067 34.5087 186.563 34.308 185.929 34.308C185.247 34.308 184.701 34.532 184.291 34.98C183.889 35.4187 183.689 36.0673 183.689 36.926V41H182.415V33.314H183.689V35.064C183.875 34.4573 184.207 33.9953 184.683 33.678C185.168 33.3513 185.723 33.188 186.349 33.188C187.002 33.188 187.567 33.356 188.043 33.692C188.528 34.0187 188.873 34.504 189.079 35.148C189.293 34.5227 189.653 34.042 190.157 33.706C190.661 33.3607 191.23 33.188 191.865 33.188ZM199.975 33.216C200.721 33.216 201.351 33.4027 201.865 33.776C202.387 34.1493 202.751 34.6487 202.957 35.274V33.314H204.231V41H202.957V39.04C202.751 39.6653 202.387 40.1647 201.865 40.538C201.351 40.9113 200.721 41.098 199.975 41.098C199.293 41.098 198.687 40.9393 198.155 40.622C197.623 40.3047 197.203 39.852 196.895 39.264C196.596 38.6667 196.447 37.9667 196.447 37.164C196.447 36.3613 196.596 35.6613 196.895 35.064C197.203 34.4667 197.623 34.0093 198.155 33.692C198.687 33.3747 199.293 33.216 199.975 33.216ZM200.339 34.35C199.555 34.35 198.925 34.602 198.449 35.106C197.982 35.6007 197.749 36.2867 197.749 37.164C197.749 38.0413 197.982 38.732 198.449 39.236C198.925 39.7307 199.555 39.978 200.339 39.978C200.843 39.978 201.291 39.8613 201.683 39.628C202.084 39.3947 202.397 39.068 202.621 38.648C202.845 38.2187 202.957 37.724 202.957 37.164C202.957 36.604 202.845 36.1093 202.621 35.68C202.397 35.2507 202.084 34.924 201.683 34.7C201.291 34.4667 200.843 34.35 200.339 34.35ZM207.532 34.868C207.784 34.336 208.153 33.9253 208.638 33.636C209.124 33.3373 209.702 33.188 210.374 33.188V34.574H209.982C209.264 34.574 208.676 34.7607 208.218 35.134C207.761 35.498 207.532 36.1047 207.532 36.954V41H206.258V33.314H207.532V34.868ZM214.865 33.244C215.575 33.244 216.177 33.4167 216.671 33.762C217.175 34.098 217.539 34.5553 217.763 35.134V33.314H219.037V44.64H217.763V39.124C217.53 39.7307 217.161 40.2113 216.657 40.566C216.163 40.9207 215.565 41.098 214.865 41.098C214.184 41.098 213.568 40.9393 213.017 40.622C212.467 40.2953 212.033 39.838 211.715 39.25C211.407 38.6527 211.253 37.962 211.253 37.178C211.253 36.394 211.407 35.708 211.715 35.12C212.033 34.5227 212.467 34.0607 213.017 33.734C213.568 33.4073 214.184 33.244 214.865 33.244ZM215.145 34.35C214.38 34.35 213.755 34.602 213.269 35.106C212.793 35.6007 212.555 36.2913 212.555 37.178C212.555 38.0647 212.793 38.7553 213.269 39.25C213.745 39.7353 214.371 39.978 215.145 39.978C215.631 39.978 216.069 39.866 216.461 39.642C216.863 39.4087 217.18 39.082 217.413 38.662C217.647 38.2327 217.763 37.7333 217.763 37.164C217.763 36.5947 217.647 36.1 217.413 35.68C217.18 35.2507 216.863 34.924 216.461 34.7C216.069 34.4667 215.631 34.35 215.145 34.35ZM227.897 33.314V41H226.623V39.194C226.427 39.8193 226.077 40.3 225.573 40.636C225.078 40.9627 224.5 41.126 223.837 41.126C222.95 41.126 222.232 40.8413 221.681 40.272C221.13 39.6933 220.855 38.8673 220.855 37.794V33.314H222.129V37.668C222.129 38.4333 222.325 39.026 222.717 39.446C223.109 39.8567 223.641 40.062 224.313 40.062C225.013 40.062 225.573 39.838 225.993 39.39C226.413 38.9327 226.623 38.27 226.623 37.402V33.314H227.897ZM237.008 36.73C237.008 37.0007 236.989 37.234 236.952 37.43H230.806C230.834 38.3073 231.081 38.9653 231.548 39.404C232.024 39.8427 232.603 40.062 233.284 40.062C233.9 40.062 234.413 39.908 234.824 39.6C235.244 39.2827 235.501 38.8627 235.594 38.34H236.952C236.859 38.872 236.649 39.348 236.322 39.768C236.005 40.188 235.589 40.5147 235.076 40.748C234.563 40.9813 233.984 41.098 233.34 41.098C232.603 41.098 231.949 40.9393 231.38 40.622C230.811 40.3047 230.363 39.852 230.036 39.264C229.719 38.6667 229.56 37.9667 229.56 37.164C229.56 36.3613 229.719 35.6613 230.036 35.064C230.363 34.4667 230.811 34.0093 231.38 33.692C231.949 33.3747 232.603 33.216 233.34 33.216C234.087 33.216 234.735 33.3747 235.286 33.692C235.846 34.0093 236.271 34.434 236.56 34.966C236.859 35.498 237.008 36.086 237.008 36.73ZM235.72 36.814C235.748 36.2447 235.655 35.7687 235.44 35.386C235.225 35.0033 234.931 34.7187 234.558 34.532C234.185 34.3453 233.779 34.252 233.34 34.252C232.64 34.252 232.052 34.4713 231.576 34.91C231.1 35.3393 230.843 35.974 230.806 36.814H235.72ZM245.283 33.216C246.03 33.216 246.66 33.4027 247.173 33.776C247.696 34.1493 248.06 34.6487 248.265 35.274V33.314H249.539V41H248.265V39.04C248.06 39.6653 247.696 40.1647 247.173 40.538C246.66 40.9113 246.03 41.098 245.283 41.098C244.602 41.098 243.995 40.9393 243.463 40.622C242.931 40.3047 242.511 39.852 242.203 39.264C241.905 38.6667 241.755 37.9667 241.755 37.164C241.755 36.3613 241.905 35.6613 242.203 35.064C242.511 34.4667 242.931 34.0093 243.463 33.692C243.995 33.3747 244.602 33.216 245.283 33.216ZM245.647 34.35C244.863 34.35 244.233 34.602 243.757 35.106C243.291 35.6007 243.057 36.2867 243.057 37.164C243.057 38.0413 243.291 38.732 243.757 39.236C244.233 39.7307 244.863 39.978 245.647 39.978C246.151 39.978 246.599 39.8613 246.991 39.628C247.393 39.3947 247.705 39.068 247.929 38.648C248.153 38.2187 248.265 37.724 248.265 37.164C248.265 36.604 248.153 36.1093 247.929 35.68C247.705 35.2507 247.393 34.924 246.991 34.7C246.599 34.4667 246.151 34.35 245.647 34.35ZM246.235 31.802V32.712L243.253 31.074V30.038L246.235 31.802ZM263.342 36.058C263.342 37.0567 263.141 37.9293 262.74 38.676C262.339 39.4133 261.746 39.9873 260.962 40.398C260.187 40.7993 259.254 41 258.162 41H255.026V31.13H258.162C259.254 31.13 260.187 31.3307 260.962 31.732C261.746 32.124 262.339 32.6933 262.74 33.44C263.141 34.1773 263.342 35.05 263.342 36.058ZM258.064 39.852C259.352 39.852 260.337 39.5207 261.018 38.858C261.699 38.1953 262.04 37.262 262.04 36.058C262.04 34.854 261.699 33.9207 261.018 33.258C260.346 32.586 259.361 32.25 258.064 32.25H256.3V39.852H258.064ZM264.837 31.06C264.837 30.8267 264.916 30.64 265.075 30.5C265.234 30.3507 265.444 30.276 265.705 30.276C265.966 30.276 266.176 30.3507 266.335 30.5C266.494 30.64 266.573 30.8267 266.573 31.06C266.573 31.2933 266.494 31.4847 266.335 31.634C266.176 31.774 265.966 31.844 265.705 31.844C265.444 31.844 265.234 31.774 265.075 31.634C264.916 31.4847 264.837 31.2933 264.837 31.06ZM266.335 33.314V41H265.061V33.314H266.335ZM269.111 31.844C268.85 31.844 268.635 31.774 268.467 31.634C268.309 31.4847 268.229 31.2933 268.229 31.06C268.229 30.8267 268.309 30.64 268.467 30.5C268.635 30.3507 268.85 30.276 269.111 30.276C269.363 30.276 269.569 30.3507 269.727 30.5C269.886 30.64 269.965 30.8267 269.965 31.06C269.965 31.2933 269.886 31.4847 269.727 31.634C269.569 31.774 269.363 31.844 269.111 31.844ZM266.969 43.52H267.501C267.837 43.52 268.08 43.4453 268.229 43.296C268.388 43.1467 268.467 42.89 268.467 42.526V33.314H269.755V42.568C269.755 43.9493 269.055 44.64 267.655 44.64H266.969V43.52ZM275.274 33.216C276.011 33.216 276.669 33.3747 277.248 33.692C277.836 34.0093 278.293 34.4667 278.62 35.064C278.956 35.6613 279.124 36.3613 279.124 37.164C279.124 37.9667 278.956 38.6667 278.62 39.264C278.293 39.852 277.836 40.3047 277.248 40.622C276.669 40.9393 276.011 41.098 275.274 41.098C274.536 41.098 273.874 40.9393 273.286 40.622C272.707 40.3047 272.25 39.852 271.914 39.264C271.578 38.6667 271.41 37.9667 271.41 37.164C271.41 36.3613 271.578 35.6613 271.914 35.064C272.25 34.4667 272.707 34.0093 273.286 33.692C273.874 33.3747 274.536 33.216 275.274 33.216ZM275.274 34.336C274.816 34.336 274.392 34.4387 274 34.644C273.617 34.8493 273.304 35.1667 273.062 35.596C272.828 36.016 272.712 36.5387 272.712 37.164C272.712 37.78 272.828 38.3027 273.062 38.732C273.304 39.152 273.617 39.4647 274 39.67C274.392 39.8753 274.816 39.978 275.274 39.978C275.731 39.978 276.151 39.8753 276.534 39.67C276.926 39.4647 277.238 39.152 277.472 38.732C277.714 38.3027 277.836 37.78 277.836 37.164C277.836 36.5387 277.714 36.016 277.472 35.596C277.238 35.1667 276.926 34.8493 276.534 34.644C276.151 34.4387 275.731 34.336 275.274 34.336ZM284.83 33.188C285.726 33.188 286.449 33.4773 287 34.056C287.55 34.6253 287.826 35.4513 287.826 36.534V41H286.552V36.646C286.552 35.8807 286.356 35.2927 285.964 34.882C285.572 34.4713 285.04 34.266 284.368 34.266C283.668 34.266 283.108 34.4947 282.688 34.952C282.268 35.4 282.058 36.058 282.058 36.926V41H280.784V33.314H282.058V35.134C282.254 34.5087 282.599 34.028 283.094 33.692C283.598 33.356 284.176 33.188 284.83 33.188Z" fill="white"/>
</svg>
