<svg width="98" height="40" viewBox="0 0 98 40" fill="none" xmlns="http://www.w3.org/2000/svg">
<path d="M26.1505 22.6882C25.4505 22.6882 24.8439 22.5483 24.2839 22.3149C23.724 22.035 23.304 21.615 22.9307 21.0083C22.464 20.1217 22.0441 19.2351 21.7641 18.2552C21.4841 17.3219 21.2974 16.3419 21.1108 15.3153C20.9708 14.3354 20.8775 13.3088 20.8308 12.3288C20.7841 11.3022 20.7375 10.3223 20.7375 9.38897V7.80239C20.7375 7.14909 20.7375 6.58912 20.7841 6.02915C20.7841 5.46918 20.7841 4.81589 20.7841 4.0226L20.5508 3.97593C19.8509 5.65584 19.0576 7.33575 18.1709 8.96899C17.331 10.6022 16.3977 12.1888 15.4644 13.7287H19.0109C19.4309 13.7287 19.8042 13.8687 20.0375 14.102C20.3175 14.3354 20.5042 14.6154 20.6441 14.942C20.7841 15.222 20.8775 15.502 20.9241 15.7353C20.9241 15.9686 20.9241 16.1086 20.8775 16.1086H14.0645C13.2245 17.5552 12.4313 18.8618 11.6846 20.0284C10.938 21.195 10.1914 22.2216 9.35142 23.1549C8.55813 24.0415 7.67151 24.8348 6.73823 25.4881C5.75829 26.1881 4.68501 26.748 3.37842 27.2147C2.95844 27.4013 2.4918 27.3547 2.11848 27.168C1.69851 26.9813 1.37186 26.748 1.09187 26.4214C0.765224 26.0947 0.578567 25.8147 0.39191 25.4881C0.251918 25.2081 0.15859 25.0681 0.205254 25.0681C0.531903 24.9748 0.811888 24.8815 1.09187 24.7881C1.32519 24.7415 1.60518 24.6481 1.88516 24.6015C2.16515 24.5082 2.39847 24.4148 2.63179 24.3215C3.28509 24.0415 3.89172 23.6682 4.45169 23.2482C5.05832 22.8282 5.57163 22.3616 5.99161 21.895C6.83156 21.055 7.62485 20.1217 8.37148 19.1418C9.1181 18.1618 9.81807 17.1352 10.378 16.1086H4.3117C3.89172 16.1086 3.51841 15.9686 3.23842 15.7353C2.95844 15.502 2.77178 15.222 2.63179 14.942C2.4918 14.6154 2.39847 14.3354 2.39847 14.102C2.3518 13.8687 2.3518 13.7287 2.39847 13.7287H11.7313C12.7579 12.0955 13.7845 10.4156 14.7645 8.78234C15.6977 7.10243 16.6777 5.42252 17.6576 3.69595C17.891 3.3693 18.0776 2.99598 18.2176 2.62267C18.3576 2.24936 18.5909 1.87605 18.7776 1.5494C18.9176 1.31608 19.1042 1.12942 19.3375 0.942763C19.5242 0.80277 19.7575 0.709442 20.0375 0.709442H23.0707C23.304 0.709442 23.444 0.756106 23.584 0.849435C23.724 0.942763 23.7706 1.08276 23.864 1.22275C23.9106 1.36274 23.9573 1.50273 23.9573 1.68939C23.9573 1.87605 23.9573 2.01604 23.9573 2.20269C23.9573 2.80933 23.9573 3.46263 23.9106 4.06926C23.9106 4.67589 23.864 5.28253 23.864 5.88916C23.864 6.21581 23.9106 6.82244 23.9106 7.61573C23.9106 8.45569 23.9573 9.38897 24.0506 10.4156C24.144 11.4422 24.2373 12.5155 24.3306 13.5887C24.4706 14.7087 24.6106 15.7353 24.7973 16.6686C24.9839 17.5552 25.2639 18.3018 25.5439 18.9085C25.8239 19.5151 26.1505 19.7951 26.5705 19.7951C26.8505 19.7951 27.0838 19.7484 27.3638 19.6551C27.6438 19.5618 27.9237 19.4218 28.1571 19.2818C28.4371 19.1418 28.6704 18.9551 28.857 18.8151C29.0904 18.6285 29.277 18.4885 29.417 18.3485C29.4637 18.3485 29.5103 18.4418 29.557 18.7218C29.6503 19.0018 29.6503 19.3284 29.6503 19.7484C29.6503 20.1684 29.557 20.5417 29.417 21.0083C29.277 21.4283 28.997 21.755 28.577 22.035C28.2971 22.2216 27.8771 22.4083 27.4104 22.5016C26.8971 22.6416 26.4772 22.6882 26.1505 22.6882Z" fill="#FEFEFE"/>
<path d="M41.1764 22.6876C39.8231 22.6876 38.5632 22.4543 37.3499 21.9877C36.1366 21.521 35.0167 20.8677 33.9434 20.0278C33.3834 19.6078 32.8701 19.0478 32.4502 18.4412C31.9835 17.8345 31.6102 17.1346 31.3302 16.4346C31.0502 15.7347 30.8169 14.988 30.6769 14.2414C30.4903 13.4948 30.4436 12.7482 30.4436 12.0015C30.4436 10.4149 30.8169 8.87503 31.6102 7.47511C32.3568 6.02852 33.3834 4.76859 34.5967 3.64865C35.81 2.57537 37.2099 1.73542 38.7498 1.08212C40.2897 0.428822 41.8297 0.102173 43.3696 0.102173C44.4428 0.102173 45.4695 0.242165 46.4027 0.52215C47.336 0.802135 48.1293 1.26878 48.7826 1.82875C49.4359 2.43538 49.9492 3.13534 50.3225 4.02196C50.6958 4.90858 50.8825 5.93519 50.8825 7.14846L50.8358 8.08174C50.8358 8.59505 50.6492 9.06169 50.3225 9.38834C49.9959 9.76165 49.5759 10.0416 49.1559 10.2283C48.7359 10.4149 48.3626 10.5549 47.9893 10.6016C47.6627 10.6949 47.476 10.6949 47.476 10.6483V6.91514C47.476 6.44849 47.3827 5.93519 47.196 5.42188C47.056 4.90858 46.776 4.44194 46.4494 3.9753C46.1694 3.55532 45.7961 3.22867 45.3295 2.90202C44.8628 2.62204 44.3962 2.48204 43.8829 2.48204C42.7163 2.48204 41.503 2.80869 40.3364 3.50865C39.1698 4.16195 38.1432 5.04857 37.2099 6.07518C36.3233 7.14846 35.5767 8.2684 35.0167 9.52833C34.4101 10.7883 34.1301 12.0015 34.1301 13.1681C34.1301 14.2414 34.3634 15.1747 34.7834 15.968C35.25 16.7613 35.81 17.4146 36.5566 17.9279C37.2566 18.4412 38.0965 18.8612 39.0298 19.0945C39.9164 19.3745 40.8964 19.4678 41.8763 19.4678C43.8362 19.4678 45.6561 19.2345 47.3827 18.7678C49.1093 18.2545 50.6492 17.5546 51.9558 16.5746C52.0024 16.5746 52.0491 16.6679 52.1424 16.9479C52.1891 17.2279 52.2358 17.5546 52.1891 17.9279C52.1891 18.3012 52.0958 18.6745 51.9558 19.0945C51.8158 19.5145 51.5358 19.8411 51.1625 20.1211C50.7892 20.3544 50.2759 20.6344 49.6226 20.9144C49.0159 21.1944 48.2693 21.4743 47.3827 21.7543C46.5427 22.0343 45.5628 22.221 44.4895 22.4076C43.4629 22.5943 42.343 22.6876 41.1764 22.6876Z" fill="#FEFEFE"/>
<path d="M60.6353 4.25528C60.3087 4.39527 59.982 4.58193 59.6554 4.81525C59.3287 5.00191 59.0021 5.23523 58.7221 5.51521C58.4888 5.7952 58.2554 6.07518 58.0688 6.40183C57.8821 6.72848 57.8355 7.10179 57.8355 7.4751C57.8355 8.17507 58.0688 8.73504 58.5354 9.15501C59.0021 9.52833 59.562 9.80831 60.2153 9.99497C60.8686 10.1816 61.5686 10.3216 62.2686 10.3683C63.0152 10.3683 63.6218 10.4149 64.1351 10.4149H65.1151C65.4417 10.4149 65.7684 10.3683 66.095 10.3683C66.5617 10.3216 67.0283 10.2283 67.4949 10.0883C67.9616 9.9483 68.4282 9.90164 68.8949 9.90164C69.1748 9.90164 69.4082 9.9483 69.5948 10.0883C69.7348 10.1816 69.8281 10.4149 69.7815 10.6949L69.6882 11.9549C69.6882 12.2348 69.5482 12.3748 69.3615 12.5148C69.1748 12.6548 68.8949 12.7015 68.6615 12.7482C68.3816 12.7948 68.1016 12.7948 67.8216 12.7948C67.5416 12.7482 67.3083 12.7482 67.1216 12.7482C66.515 12.7482 65.9084 12.7948 65.2084 12.8415C64.5084 12.9348 63.8085 13.0281 63.0618 13.1681C62.3619 13.2615 61.6619 13.4481 61.0086 13.6348C60.3553 13.8681 59.7487 14.1014 59.282 14.3814C59.0487 14.5214 58.8154 14.6614 58.5821 14.848C58.3488 15.0347 58.1154 15.2214 57.9288 15.4547C57.6955 15.6413 57.5555 15.8747 57.4155 16.1546C57.2755 16.388 57.2288 16.6679 57.2288 16.9479C57.2288 17.5079 57.3688 17.9745 57.7421 18.3478C58.1154 18.7212 58.5821 19.0478 59.0954 19.2811C59.6087 19.5145 60.1687 19.6544 60.7286 19.7478C61.2886 19.8411 61.8019 19.8878 62.2219 19.8878C63.0618 19.8878 63.9485 19.8411 64.9284 19.7011C65.9084 19.5611 66.8416 19.3745 67.8216 19.1411C68.8015 18.8612 69.6882 18.5812 70.5748 18.1612C71.4614 17.7879 72.2547 17.3212 72.908 16.8079C72.9546 16.7613 73.0013 16.9013 73.0946 17.1346C73.1413 17.4146 73.188 17.6945 73.188 18.0679C73.188 18.4412 73.1413 18.8145 73.0013 19.2345C72.908 19.6544 72.628 19.9811 72.3013 20.2611C71.8347 20.6344 71.1347 20.961 70.2481 21.241C69.3615 21.521 68.4282 21.801 67.4483 21.9877C66.4683 22.221 65.4884 22.4076 64.5551 22.501C63.6218 22.641 62.9219 22.6876 62.3619 22.6876C61.5219 22.6876 60.682 22.641 59.842 22.501C59.0021 22.361 58.2088 22.1276 57.4622 21.7077C56.9022 21.4743 56.4355 21.1477 55.9222 20.821C55.4556 20.4477 55.0356 20.0744 54.6623 19.6544C54.289 19.2345 54.009 18.7212 53.8223 18.2079C53.589 17.6946 53.4957 17.1346 53.4957 16.4813C53.4957 15.7813 53.6824 15.1747 54.0557 14.6614C54.3823 14.1014 54.849 13.6814 55.4089 13.3081C55.9689 12.9815 56.5755 12.7015 57.2288 12.4682C57.8821 12.2815 58.4888 12.1415 59.0954 12.0482C58.4888 11.9082 57.8821 11.6749 57.3222 11.3949C56.7155 11.0682 56.2022 10.6949 55.7822 10.275C55.3156 9.80831 54.9423 9.29501 54.6623 8.73504C54.3823 8.17507 54.2423 7.56843 54.2423 6.91513C54.2423 6.07518 54.4756 5.28189 54.9889 4.58193C55.4556 3.92863 56.0156 3.322 56.6222 2.80869C57.2288 2.34205 58.0688 1.87541 59.2354 1.45543C60.402 1.03545 61.6153 0.708805 62.9218 0.475484C64.2284 0.195499 65.4884 0.055507 66.7483 0.00884287C67.9616 -0.0378213 68.9882 0.102171 69.7348 0.382156C70.1548 0.568812 70.4814 0.802133 70.7148 1.12878C70.9014 1.45543 71.0881 1.78208 71.1814 2.10873C71.2747 2.43538 71.3214 2.76203 71.3214 2.99535C71.3214 3.27533 71.3214 3.36866 71.2747 3.36866C70.9014 3.22867 70.4814 3.08868 70.0615 2.94868C69.6882 2.85536 69.2682 2.76203 68.8015 2.6687C68.3349 2.62203 67.8216 2.62203 67.3549 2.6687C66.1883 2.71536 64.9751 2.90202 63.8085 3.13534C62.6419 3.36866 61.5686 3.74197 60.6353 4.25528Z" fill="#FEFEFE"/>
<path d="M93.2536 22.6876C92.6469 22.6876 92.0403 22.5476 91.4336 22.221C90.827 21.941 90.2204 21.5677 89.6138 21.1477C89.0071 20.7277 88.4472 20.2611 87.8872 19.7478C87.3739 19.2811 86.8606 18.8611 86.3939 18.4878L81.0742 13.9147V19.4678C81.0742 20.0278 80.8876 20.4477 80.5142 20.821C80.1409 21.1944 79.7676 21.4743 79.301 21.661C78.881 21.8477 78.5077 21.9876 78.1344 22.081C77.7611 22.1276 77.5744 22.1743 77.5744 22.1276V7.19512C77.5744 6.63515 77.7611 6.21517 78.1344 5.84186C78.5077 5.46854 78.881 5.18856 79.301 5.0019C79.7676 4.81525 80.1409 4.67525 80.5142 4.58192C80.8876 4.53526 81.0742 4.4886 81.0742 4.53526V11.6749C81.4475 11.6749 81.9608 11.5815 82.5675 11.4882C83.1741 11.4416 83.8274 11.3016 84.5274 11.1616C85.1807 11.0216 85.8806 10.8349 86.5806 10.5549C87.2805 10.3216 87.8872 10.0416 88.4471 9.71498C89.0071 9.38833 89.4738 9.01502 89.8004 8.54838C90.1271 8.08173 90.3137 7.56843 90.3137 7.00846C90.3137 6.40182 90.1737 5.88852 89.8937 5.46854C89.5671 5.09523 89.1938 4.76858 88.7271 4.4886C88.2605 4.25527 87.7472 4.06862 87.1405 3.92863C86.5339 3.78863 85.9273 3.69531 85.3206 3.60198C84.714 3.55531 84.1074 3.55531 83.5474 3.55531H82.1008C80.2809 3.55531 78.461 3.69531 76.6878 4.02195C74.8679 4.30194 73.0946 4.76858 71.3681 5.28189C71.3214 5.28189 71.2747 5.18856 71.2747 4.95524C71.2281 4.72192 71.2281 4.44193 71.2747 4.11528C71.3681 3.74197 71.4614 3.41532 71.6481 3.04201C71.7881 2.71536 72.068 2.43537 72.4413 2.20205C72.8613 2.0154 73.5146 1.78208 74.3546 1.59542C75.1945 1.40876 76.1278 1.26877 77.1544 1.12878C78.181 0.988786 79.2543 0.895458 80.3743 0.848794C81.4475 0.755465 82.4741 0.708801 83.4074 0.708801C84.0141 0.708801 84.6674 0.755465 85.3206 0.80213C85.9739 0.848794 86.6739 0.942122 87.3272 1.08211C87.9805 1.22211 88.6338 1.40876 89.2871 1.64208C89.8937 1.8754 90.4537 2.20205 90.9203 2.57537C91.2937 2.85535 91.7136 3.182 92.087 3.55531C92.4603 3.97529 92.7869 4.3486 93.0669 4.81524C93.3469 5.28189 93.5802 5.74853 93.7669 6.21517C93.9535 6.72847 94.0468 7.24178 94.0468 7.75508C94.0468 8.40838 93.8602 8.96835 93.5802 9.48166C93.2536 9.99496 92.8336 10.4616 92.3203 10.8349C91.807 11.2549 91.247 11.5815 90.5937 11.9082C89.9404 12.1882 89.2871 12.4215 88.6338 12.6548C87.9805 12.8415 87.3272 13.0281 86.6739 13.1215C86.0206 13.2615 85.4606 13.3548 84.994 13.4481C85.3207 13.6814 85.7406 14.0547 86.2073 14.4747C86.6739 14.8947 87.1872 15.3147 87.7472 15.7813C88.2605 16.248 88.8205 16.7146 89.3804 17.1812C89.9871 17.6479 90.5004 18.0679 91.0603 18.4412C91.6203 18.8145 92.087 19.0945 92.5536 19.3278C93.0202 19.6078 93.3936 19.7011 93.7202 19.7011C94.4202 19.7011 95.0735 19.5611 95.6334 19.2811C96.2401 19.0011 96.7534 18.6745 97.22 18.3478C97.3133 18.3012 97.36 18.3945 97.4067 18.5812C97.4533 18.8145 97.4533 19.0478 97.4067 19.3745C97.4067 19.7011 97.3133 20.0744 97.1733 20.4477C97.0334 20.8677 96.8467 21.1944 96.52 21.521C96.1934 21.8477 95.7734 22.1276 95.2601 22.361C94.7001 22.5943 94.0468 22.6876 93.2536 22.6876Z" fill="#FEFEFE"/>
<path d="M20.4108 32.8604C20.4108 32.3471 20.3175 31.9738 20.0842 31.7871C19.8509 31.6471 19.5709 31.5538 19.1976 31.5538H18.6376C18.5909 31.5538 18.4509 31.5538 18.3576 31.5538C18.2176 31.5538 18.1243 31.6005 18.0776 31.6005V33.9337C18.2176 33.9803 18.4043 33.9803 18.5909 34.027C18.7776 34.027 18.9642 34.027 19.1509 34.027C19.5709 34.027 19.8975 33.9337 20.1308 33.747C20.3175 33.5604 20.4108 33.2804 20.4108 32.8604ZM23.2573 32.6271C23.2573 33.1871 23.164 33.7004 22.9307 34.167C22.744 34.6336 22.464 35.007 22.1374 35.3336C21.7641 35.6603 21.3908 35.8936 20.9241 36.0802C20.4575 36.2669 19.9442 36.3602 19.4309 36.3602C19.1509 36.3602 18.9176 36.3136 18.6843 36.3136C18.4509 36.2669 18.2643 36.2669 18.0776 36.1736V39.7667H16.8177C16.631 39.7667 16.4444 39.72 16.2577 39.6734C16.0711 39.58 15.8844 39.4867 15.7444 39.3467C15.6044 39.2067 15.4644 39.0201 15.3711 38.7868C15.2778 38.5534 15.2311 38.3201 15.2311 37.9935V29.7339C15.4178 29.6872 15.6511 29.6406 15.8844 29.5939C16.1644 29.5473 16.3977 29.5006 16.6777 29.4539C16.9577 29.4073 17.2377 29.3606 17.5177 29.3139C17.7976 29.3139 18.0776 29.3139 18.3109 29.3139H19.4775C19.9909 29.3139 20.5042 29.3606 20.9708 29.5006C21.3908 29.6872 21.8108 29.8739 22.1374 30.1539C22.5107 30.4339 22.744 30.8072 22.9774 31.2272C23.164 31.6471 23.2573 32.1138 23.2573 32.6271Z" fill="#FEFEFE"/>
<path d="M28.857 34.307C28.8104 34.027 28.717 33.747 28.577 33.467C28.4837 33.2337 28.3904 32.9537 28.2971 32.7204C28.1571 32.4404 28.0637 32.2071 27.9704 32.0204C27.7371 32.4404 27.5038 32.9537 27.3171 33.5137C27.0838 34.0737 26.9438 34.587 26.7571 35.1003H29.137C29.0437 34.867 28.9504 34.587 28.857 34.307ZM31.7502 39.7667C31.2369 39.7667 30.8169 39.6734 30.5369 39.4867C30.2569 39.3467 30.0703 39.0201 29.977 38.5534C29.977 38.3668 29.9303 38.1334 29.8836 37.9468C29.837 37.7601 29.7903 37.5268 29.697 37.3402H26.1505C26.1038 37.5268 26.0572 37.7135 26.0105 37.9468C25.9639 38.1334 25.9172 38.3668 25.8705 38.6001C25.8239 38.7867 25.7772 39.0201 25.7305 39.2067C25.6839 39.44 25.6839 39.6267 25.6372 39.7667H24.4706C24.0506 39.7667 23.6773 39.6267 23.4906 39.3934C23.304 39.1601 23.164 38.8801 23.164 38.5068C23.164 38.2268 23.2107 37.9001 23.3507 37.4335C23.444 36.9668 23.584 36.4535 23.7706 35.8936C23.9106 35.3336 24.1439 34.727 24.3773 34.1203C24.6106 33.467 24.8906 32.8604 25.1706 32.3004C25.4505 31.6938 25.7305 31.1338 26.0105 30.6672C26.3372 30.1539 26.6171 29.7339 26.9438 29.4539H28.0171C28.5304 29.4539 28.9504 29.5472 29.277 29.7806C29.6037 29.9672 29.837 30.2472 30.0236 30.5272C30.2569 30.9472 30.5369 31.4605 30.8636 32.1604C31.1436 32.8604 31.4236 33.607 31.7035 34.447C32.0302 35.2869 32.2635 36.1736 32.4968 37.0602C32.7301 37.9935 32.9168 38.8801 33.0101 39.7667H31.7502Z" fill="#FEFEFE"/>
<path d="M41.5963 30.3405C41.5963 30.4805 41.5497 30.7139 41.4563 30.9472C41.3164 31.2272 41.1764 31.5071 40.9897 31.8338C40.8497 32.1138 40.6164 32.4404 40.4297 32.8137C40.1964 33.1404 39.9631 33.5137 39.7298 33.8403C39.4964 34.167 39.2631 34.447 39.0765 34.727C38.8432 35.007 38.6565 35.2403 38.5165 35.4269V39.7667H37.2566C37.0699 39.7667 36.8833 39.72 36.6966 39.6734C36.5099 39.58 36.3233 39.4867 36.1833 39.3467C36.0433 39.2534 35.9033 39.0667 35.81 38.8801C35.7167 38.6468 35.67 38.4601 35.67 38.1801V35.4269C35.39 35.0536 35.0634 34.6336 34.7834 34.167C34.4567 33.747 34.1767 33.2337 33.8968 32.7204C33.5701 32.2071 33.3368 31.6938 33.0568 31.1338C32.8235 30.5739 32.5902 30.0139 32.4502 29.4539H33.8501C34.3167 29.4539 34.69 29.5472 34.97 29.7339C35.2967 29.9206 35.4833 30.1072 35.5767 30.3405C35.81 30.8072 36.0433 31.3205 36.3233 31.8338C36.6499 32.3471 36.9299 32.8137 37.2099 33.2337C37.3966 33.0004 37.5366 32.7204 37.7232 32.4404C37.9099 32.1604 38.0965 31.8805 38.2832 31.5538C38.4698 31.2272 38.6098 30.8538 38.7498 30.5272C38.9365 30.1539 39.0765 29.7806 39.1698 29.4539H40.5231C40.8497 29.4539 41.1297 29.5472 41.3164 29.7339C41.503 29.9206 41.5963 30.1072 41.5963 30.3405Z" fill="#FEFEFE"/>
<path d="M50.2292 36.5002C50.2292 37.0135 50.1359 37.5268 49.9492 37.9468C49.7626 38.3667 49.4826 38.7401 49.1093 39.0667C48.736 39.3467 48.2693 39.58 47.756 39.7667C47.196 39.9067 46.5894 40 45.9361 40C44.7695 40 43.8829 39.8133 43.3229 39.3934C42.7163 38.9734 42.4363 38.4134 42.4363 37.6668V36.6402H42.483C42.6696 36.8268 42.8563 36.9668 43.0896 37.1068C43.3229 37.2001 43.6029 37.3401 43.8829 37.4335C44.1629 37.5268 44.4429 37.5735 44.7695 37.6201C45.0495 37.6668 45.3761 37.6668 45.6561 37.6668C46.3094 37.6668 46.7761 37.6201 47.0094 37.4335C47.2894 37.2935 47.3827 37.0135 47.3827 36.6868C47.3827 36.5002 47.336 36.4069 47.2894 36.2669C47.196 36.1735 47.1027 36.0802 46.9161 35.9869C46.7294 35.8936 46.5427 35.8469 46.2628 35.7536C45.9828 35.7069 45.6561 35.6136 45.2361 35.5202C44.6762 35.4269 44.2095 35.2869 43.8362 35.1003C43.4162 34.9603 43.1363 34.7736 42.8563 34.5403C42.623 34.307 42.4363 34.027 42.343 33.747C42.203 33.4204 42.1563 33.0937 42.1563 32.6737C42.1563 32.2071 42.2496 31.7871 42.4363 31.3671C42.6696 30.9472 42.9496 30.5738 43.3229 30.2472C43.6962 29.9205 44.1162 29.6872 44.6762 29.5006C45.1895 29.3139 45.7961 29.2206 46.4494 29.2206C47.056 29.2206 47.616 29.2672 48.036 29.4072C48.5026 29.5472 48.8759 29.6872 49.1559 29.9205C49.4359 30.1072 49.6226 30.3405 49.7626 30.6205C49.9026 30.9005 49.9492 31.1338 49.9492 31.4138V32.4871H49.8559C49.7159 32.3471 49.4826 32.2071 49.2493 32.0671C49.0159 31.9271 48.7826 31.8338 48.5026 31.7404C48.2693 31.6938 47.9893 31.6005 47.7093 31.6005C47.4294 31.5538 47.1494 31.5071 46.8694 31.5071C46.1694 31.5071 45.6561 31.6005 45.3761 31.7871C45.1428 31.9738 45.0028 32.2071 45.0028 32.4871C45.0028 32.5804 45.0028 32.7204 45.0495 32.8137C45.0962 32.8604 45.1895 32.9537 45.3295 33.047C45.4695 33.1404 45.7028 33.2337 45.9361 33.327C46.2161 33.3737 46.6361 33.467 47.1027 33.607C48.176 33.7937 48.9693 34.1203 49.4826 34.587C49.9492 35.0536 50.2292 35.6602 50.2292 36.5002Z" fill="#FEFEFE"/>
<path d="M56.5755 34.307C56.4822 34.027 56.3889 33.747 56.2955 33.467C56.2022 33.2337 56.0622 32.9537 55.9689 32.7204C55.8756 32.4404 55.7822 32.2071 55.6423 32.0204C55.4556 32.4404 55.2223 32.9537 54.989 33.5137C54.8023 34.0737 54.6156 34.587 54.4756 35.1003H56.8089C56.7622 34.867 56.6689 34.587 56.5755 34.307ZM59.422 39.7667C58.9087 39.7667 58.5354 39.6734 58.2554 39.4867C57.9755 39.3467 57.7888 39.0201 57.6955 38.5534C57.6488 38.3668 57.6021 38.1334 57.5555 37.9468C57.5088 37.7601 57.4622 37.5268 57.4155 37.3402H53.869C53.7757 37.5268 53.729 37.7135 53.6824 37.9468C53.6357 38.1334 53.589 38.3668 53.5424 38.6001C53.4957 38.7867 53.449 39.0201 53.449 39.2067C53.4024 39.44 53.3557 39.6267 53.3557 39.7667H52.1891C51.7225 39.7667 51.3958 39.6267 51.1625 39.3934C50.9758 39.1601 50.8825 38.8801 50.8825 38.5068C50.8825 38.2268 50.9292 37.9001 51.0225 37.4335C51.1158 36.9668 51.2558 36.4535 51.4425 35.8936C51.6291 35.3336 51.8158 34.727 52.0958 34.1203C52.3291 33.467 52.5624 32.8604 52.8424 32.3004C53.1224 31.6938 53.4024 31.1338 53.729 30.6672C54.009 30.1539 54.3357 29.7339 54.6156 29.4539H55.7356C56.2489 29.4539 56.6689 29.5472 56.9955 29.7806C57.3222 29.9672 57.5555 30.2472 57.7421 30.5272C57.9755 30.9472 58.2554 31.4605 58.5354 32.1604C58.8621 32.8604 59.1421 33.607 59.422 34.447C59.702 35.2869 59.982 36.1736 60.2153 37.0602C60.4487 37.9935 60.5886 38.8801 60.7286 39.7667H59.422Z" fill="#FEFEFE"/>
<path d="M70.2948 38.3668C70.1548 38.7401 69.9681 39.02 69.6415 39.2534C69.3615 39.4867 68.9415 39.6733 68.4749 39.8133C68.0082 39.9533 67.4483 40 66.7483 40C66.0483 40 65.3484 39.86 64.6951 39.6267C64.0418 39.3934 63.4818 39.02 62.9685 38.5534C62.5019 38.0868 62.0819 37.5735 61.8019 36.9202C61.5219 36.2669 61.3819 35.5202 61.3819 34.7269C61.3819 33.9337 61.5219 33.2337 61.8019 32.5804C62.0819 31.8804 62.4552 31.3205 62.9685 30.8072C63.4351 30.3405 64.0884 29.9205 64.7884 29.6406C65.535 29.3606 66.3283 29.2206 67.2149 29.2206C67.7282 29.2206 68.1949 29.2672 68.5682 29.3606C68.9415 29.5006 69.2682 29.6406 69.5015 29.8739C69.7815 30.0605 69.9681 30.2939 70.1081 30.5738C70.2481 30.8538 70.2948 31.1338 70.2948 31.4138V32.4404H70.2014C69.9681 32.2071 69.5948 31.9738 69.0815 31.7871C68.6149 31.6005 67.9616 31.5071 67.1683 31.5071C66.7483 31.5071 66.4217 31.6005 66.0483 31.6938C65.675 31.8338 65.395 32.0204 65.1151 32.2537C64.8351 32.5337 64.6484 32.8137 64.4618 33.187C64.3218 33.5603 64.2284 33.9803 64.2284 34.4936C64.2284 35.0536 64.3218 35.5202 64.4618 35.9402C64.6018 36.3135 64.7884 36.6402 65.0217 36.9202C65.3017 37.2001 65.5817 37.3868 65.9083 37.4801C66.235 37.6201 66.6083 37.6668 66.9816 37.6668C67.2149 37.6668 67.3549 37.6668 67.4949 37.6201C67.5883 37.6201 67.6816 37.5735 67.7283 37.5268C67.8216 37.4335 67.8216 37.3868 67.8682 37.2935C67.8682 37.2001 67.8682 37.1535 67.8682 37.0602V35.8936C67.8682 35.6602 67.8682 35.4269 67.8216 35.1469C67.7749 34.8669 67.7283 34.6336 67.6816 34.447H69.1282C69.5948 34.447 69.9215 34.587 70.1548 34.8669C70.3881 35.1469 70.5281 35.4736 70.5281 35.8469V37.2001C70.5281 37.6668 70.4348 38.0401 70.2948 38.3668Z" fill="#FEFEFE"/>
<path d="M79.7209 39.0201C79.6743 39.2067 79.5343 39.3467 79.3476 39.4867C79.161 39.6267 78.9276 39.72 78.601 39.8134C78.321 39.86 77.901 39.9067 77.4811 39.9067H76.3145C74.9145 39.9067 73.8879 39.5334 73.1413 38.8801C72.4413 38.1801 72.068 37.1068 72.068 35.6602V33.9337C72.068 33.467 72.1147 32.9537 72.1147 32.4871C72.1614 31.9738 72.208 31.5538 72.2547 31.1338C72.348 30.4805 72.5813 30.0606 72.9546 29.7806C73.328 29.5472 73.7479 29.4539 74.2612 29.4539H79.8609V30.1072C79.8609 30.6205 79.7209 30.9938 79.4876 31.3205C79.2076 31.6005 78.741 31.7405 78.181 31.7405H75.0079C75.0079 32.0204 74.9612 32.3004 74.9612 32.6271C74.9145 32.9537 74.9145 33.2804 74.9145 33.5137H78.9277V34.5403C78.9277 34.9136 78.7877 35.1936 78.5077 35.4269C78.2277 35.6136 77.8544 35.7069 77.3411 35.7069H74.9145V36.0802C74.9145 36.3602 74.9612 36.5935 75.0079 36.7802C75.0545 36.9668 75.1479 37.1535 75.2879 37.2468C75.4278 37.3868 75.5678 37.4335 75.8012 37.5268C76.0345 37.5735 76.3611 37.5735 76.7344 37.5735H77.4811C77.901 37.5735 78.2744 37.5735 78.6477 37.5268C79.0676 37.4801 79.441 37.3868 79.8609 37.2935V38.3668C79.8609 38.6468 79.8143 38.8334 79.7209 39.0201Z" fill="#FEFEFE"/>
<path d="M88.9604 36.5002C88.9604 37.0135 88.8204 37.5268 88.6338 37.9468C88.4471 38.3667 88.1671 38.7401 87.7938 39.0667C87.4672 39.3467 87.0005 39.58 86.4406 39.7667C85.9273 39.9067 85.3206 40 84.6207 40C83.5007 40 82.6141 39.8133 82.0075 39.3934C81.4475 38.9734 81.1209 38.4134 81.1209 37.6668V36.6402H81.2142C81.3542 36.8268 81.5875 36.9668 81.8208 37.1068C82.0541 37.2001 82.2875 37.3401 82.5674 37.4335C82.8941 37.5268 83.1741 37.5735 83.4541 37.6201C83.7807 37.6668 84.0607 37.6668 84.3874 37.6668C85.0407 37.6668 85.4606 37.6201 85.7406 37.4335C85.9739 37.2935 86.1139 37.0135 86.1139 36.6868C86.1139 36.5002 86.0673 36.4069 85.9739 36.2669C85.9273 36.1735 85.7873 36.0802 85.6473 35.9869C85.4606 35.8936 85.2273 35.8469 84.9473 35.7536C84.6673 35.7069 84.3407 35.6136 83.9674 35.5202C83.4074 35.4269 82.9408 35.2869 82.5208 35.1003C82.1475 34.9603 81.8208 34.7736 81.5875 34.5403C81.3542 34.307 81.1675 34.027 81.0275 33.747C80.9342 33.4204 80.8409 33.0937 80.8409 32.6737C80.8409 32.2071 80.9809 31.7871 81.1675 31.3671C81.3542 30.9472 81.6342 30.5738 82.0075 30.2472C82.3808 29.9205 82.8474 29.6872 83.3607 29.5006C83.9207 29.3139 84.4807 29.2206 85.134 29.2206C85.7873 29.2206 86.3472 29.2672 86.7672 29.4072C87.1872 29.5472 87.5605 29.6872 87.8405 29.9205C88.1205 30.1072 88.3538 30.3405 88.4471 30.6205C88.5871 30.9005 88.6338 31.1338 88.6338 31.4138V32.4871H88.5871C88.4005 32.3471 88.2138 32.2071 87.9805 32.0671C87.7472 31.9271 87.5138 31.8338 87.2339 31.7404C86.9539 31.6938 86.6739 31.6005 86.3939 31.6005C86.1139 31.5538 85.8339 31.5071 85.6006 31.5071C84.854 31.5071 84.3874 31.6005 84.1074 31.7871C83.8274 31.9738 83.6874 32.2071 83.6874 32.4871C83.6874 32.5804 83.7341 32.7204 83.7807 32.8137C83.7807 32.8604 83.874 32.9537 84.014 33.047C84.2007 33.1404 84.3874 33.2337 84.6673 33.327C84.9473 33.3737 85.3206 33.467 85.7873 33.607C86.8606 33.7937 87.6538 34.1203 88.1671 34.587C88.6805 35.0536 88.9604 35.6602 88.9604 36.5002Z" fill="#FEFEFE"/>
</svg>
