<svg width="300" height="29" viewBox="0 0 300 29" fill="none" xmlns="http://www.w3.org/2000/svg">
<path d="M23.8427 1.10674V27.7422H19.7255H18.2507L5.59197 7.9685V27.7422H0V1.10674H7.31258L18.2507 17.9291V1.10674H23.8427ZM49.5289 16.8962C49.5289 17.4864 49.5289 17.9291 49.5289 18.4456C49.4674 18.8883 49.4674 19.2572 49.4674 19.6261C49.406 19.995 49.406 20.364 49.406 20.6591H32.2614C32.5072 21.5445 33.1217 22.2085 34.0434 22.6512C34.9652 23.0939 36.3171 23.3152 38.0991 23.3152C38.4064 23.3152 38.7751 23.3152 39.2667 23.3152C39.7583 23.2415 40.2499 23.2415 40.803 23.2415C41.2946 23.1677 41.8476 23.1677 42.4621 23.1677C43.0152 23.0939 43.5682 23.0939 44.1213 23.0939C45.4117 23.0201 46.7636 22.9463 48.177 22.8726V26.9306C47.0094 27.1519 45.8419 27.3733 44.6743 27.5946C43.6911 27.7422 42.585 27.8898 41.4175 28.0373C40.2499 28.1849 39.1438 28.1849 38.0991 28.1849C35.9484 28.1849 34.1049 28.1111 32.6301 27.816C31.1553 27.5946 29.9263 27.0782 29.0045 26.4141C28.0828 25.6763 27.4068 24.7171 27.0381 23.4628C26.608 22.2085 26.4236 20.5853 26.4236 18.5932C26.4236 16.601 26.608 14.9778 27.0381 13.7235C27.4068 12.4692 28.0828 11.4363 29.0045 10.7722C29.9263 10.0344 31.1553 9.51793 32.6301 9.29659C34.1049 9.07524 35.9484 8.92768 38.0991 8.92768C39.8198 8.92768 41.4175 9.07524 42.8308 9.29659C44.1827 9.51793 45.4117 9.96063 46.3949 10.5509C47.3781 11.2149 48.177 12.0265 48.73 13.0595C49.2216 14.0924 49.5289 15.3467 49.5289 16.8962ZM43.6911 16.5273C43.6911 16.3797 43.6911 16.2321 43.6911 16.1584C43.6911 16.0108 43.6911 15.8632 43.6911 15.7157C43.6297 15.4943 43.5682 15.273 43.4453 15.0516C43.3224 14.8303 43.0766 14.6089 42.6465 14.4614C42.2778 14.3138 41.7247 14.1662 40.9873 14.0924C40.2499 14.0187 39.2667 13.9449 38.0991 13.9449C36.1942 13.9449 34.7808 14.1662 33.8591 14.6089C32.9373 15.0516 32.3843 15.7894 32.1999 16.8224H43.6911V16.5273ZM61.143 28.1849C59.6067 28.1849 58.3163 28.1111 57.1487 27.816C55.9812 27.5946 54.998 27.0782 54.2606 26.4141C53.4617 25.6763 52.9086 24.7171 52.4785 23.4628C52.1098 22.2085 51.9254 20.5853 51.9254 18.5932V9.29659H57.5174V18.5932C57.5174 19.331 57.6403 19.9213 57.7632 20.4377C57.8861 20.8804 58.1319 21.2493 58.3777 21.5445C58.685 21.8396 59.0537 22.0609 59.5453 22.2085C59.9754 22.2823 60.5285 22.3561 61.143 22.3561C61.5117 22.3561 61.8804 22.3561 62.1876 22.3561C62.5563 22.3561 62.8636 22.2823 63.2323 22.2823C63.5395 22.2085 63.9697 22.2085 64.3384 22.1347C64.7685 22.1347 65.2601 22.0609 65.8746 21.9872V9.29659H71.4666V26.9306C70.6678 27.0782 69.9304 27.2257 69.1315 27.3733C68.3941 27.5208 67.5953 27.6684 66.7964 27.7422C65.9361 27.8898 65.0758 27.9635 64.154 28.1111C63.2323 28.1849 62.2491 28.1849 61.143 28.1849ZM85.5387 12.1741V17.3389H79.9467V27.7422H74.2933V14.4614C74.2933 12.1741 74.4162 10.182 74.7235 8.48498C74.9693 6.78798 75.5223 5.38612 76.4441 4.2056C77.3044 3.09886 78.5334 2.21347 80.1926 1.62321C81.7903 1.10674 83.941 0.811607 86.6448 0.811607C86.8906 0.811607 87.1364 0.811607 87.3208 0.811607C87.5051 0.811607 87.6895 0.811607 87.8124 0.811607H88.1811V6.12394H86.5834C85.2929 6.12394 84.1868 6.27151 83.388 6.56664C82.5891 6.86177 81.9132 7.30446 81.4216 7.82094C80.9299 8.4112 80.6227 9.00146 80.3769 9.73928C80.1926 10.4771 80.0696 11.2887 80.0082 12.1741H85.5387ZM103.974 27.7422L95.2479 7.9685V27.7422H89.6559V1.10674H97.3372L105.449 19.4048L113.621 1.10674H121.241V27.7422H115.649V7.9685L106.923 27.7422H103.974ZM135.436 8.92768C137.649 8.92768 139.431 9.07524 140.905 9.29659C142.38 9.51793 143.609 10.0344 144.531 10.7722C145.453 11.4363 146.129 12.4692 146.497 13.7235C146.928 14.9778 147.112 16.601 147.112 18.5932C147.112 20.5853 146.928 22.2085 146.497 23.4628C146.129 24.7171 145.453 25.6763 144.531 26.4141C143.609 27.0782 142.38 27.5946 140.905 27.816C139.431 28.1111 137.649 28.1849 135.436 28.1849C133.286 28.1849 131.442 28.1111 129.967 27.816C128.492 27.5946 127.325 27.0782 126.403 26.4141C125.481 25.6763 124.805 24.7171 124.437 23.4628C124.007 22.2085 123.822 20.5853 123.822 18.5932C123.822 16.601 124.007 14.9778 124.437 13.7235C124.805 12.4692 125.481 11.4363 126.403 10.7722C127.325 10.0344 128.492 9.51793 129.967 9.29659C131.442 9.07524 133.286 8.92768 135.436 8.92768ZM135.436 22.3561C136.604 22.3561 137.526 22.2823 138.263 22.2085C139 22.1347 139.615 21.9872 140.045 21.692C140.475 21.4707 140.721 21.028 140.905 20.5853C141.09 20.0688 141.151 19.4048 141.151 18.5932C141.151 17.7078 141.09 17.0437 140.905 16.5273C140.721 16.0108 140.475 15.6419 140.045 15.4205C139.615 15.1254 139 14.9778 138.263 14.8303C137.526 14.7565 136.604 14.7565 135.436 14.7565C134.33 14.7565 133.347 14.7565 132.61 14.8303C131.872 14.9778 131.319 15.1254 130.889 15.4205C130.459 15.6419 130.152 16.0108 129.967 16.5273C129.844 17.0437 129.721 17.7078 129.721 18.5932C129.721 19.4048 129.844 20.0688 129.967 20.5853C130.152 21.028 130.459 21.4707 130.889 21.692C131.319 21.9872 131.872 22.1347 132.61 22.2085C133.347 22.2823 134.33 22.3561 135.436 22.3561ZM155.285 8.92768L149.631 10.6247V27.7422H155.285V8.92768ZM155.039 3.09886C155.039 3.46777 154.977 3.91047 154.793 4.27938C154.67 4.64829 154.486 4.94342 154.302 5.23855C154.056 5.53368 153.748 5.75503 153.441 5.90259C153.134 6.12394 152.827 6.19772 152.458 6.19772C152.089 6.19772 151.782 6.12394 151.475 5.90259C151.168 5.75503 150.86 5.53368 150.615 5.23855C150.43 4.94342 150.246 4.64829 150.123 4.27938C149.939 3.91047 149.877 3.46777 149.877 3.09886C149.877 2.65617 149.939 2.28726 150.123 1.91834C150.246 1.54943 150.43 1.18052 150.615 0.885389C150.86 0.664042 151.168 0.442695 151.475 0.221347C151.782 0.0737824 152.089 0 152.458 0C152.827 0 153.134 0.0737824 153.441 0.221347C153.748 0.442695 154.056 0.664042 154.302 0.885389C154.486 1.18052 154.67 1.54943 154.793 1.91834C154.977 2.28726 155.039 2.65617 155.039 3.09886ZM171.63 8.92768C173.843 8.92768 175.625 9.07524 177.1 9.29659C178.636 9.51793 179.803 10.0344 180.725 10.7722C181.647 11.4363 182.323 12.4692 182.692 13.7235C183.122 14.9778 183.306 16.601 183.306 18.5932V27.7422H177.345V18.5932C177.345 17.7078 177.284 17.0437 177.1 16.5273C176.977 16.0108 176.669 15.6419 176.239 15.4205C175.809 15.1254 175.195 14.9778 174.457 14.8303C173.72 14.7565 172.798 14.7565 171.63 14.7565C171.262 14.7565 170.77 14.7565 170.217 14.7565C169.664 14.8303 169.111 14.8303 168.497 14.8303C167.943 14.9041 167.268 14.9778 166.653 14.9778C166.039 15.0516 165.424 15.0516 164.871 15.1254V27.7422H159.279V9.29659H163.335L164.011 10.2558C164.81 9.88685 165.916 9.51793 167.268 9.29659C168.558 9.07524 170.033 8.92768 171.63 8.92768ZM205.797 22.4299C205.797 23.5366 205.612 24.422 205.244 25.1598C204.875 25.9714 204.199 26.5617 203.277 27.0044C202.356 27.4471 201.188 27.816 199.652 27.9635C198.177 28.1849 196.333 28.1849 194.121 28.1849C193.261 28.1849 192.401 28.1111 191.479 28.0373C190.619 27.8898 189.82 27.816 189.021 27.6684C188.222 27.5946 187.546 27.4471 186.87 27.3733C186.256 27.2257 185.764 27.1519 185.395 27.0782V22.7988C186.624 22.8726 187.792 22.9463 188.898 22.9463C189.881 23.0201 190.864 23.0939 191.848 23.0939C192.831 23.1677 193.63 23.1677 194.183 23.1677C195.412 23.1677 196.395 23.2415 197.132 23.2415C197.87 23.1677 198.484 23.1677 198.853 23.0939C199.283 23.0201 199.529 22.8726 199.652 22.7988C199.775 22.6512 199.898 22.4299 199.898 22.2823C199.898 22.0609 199.898 21.9134 199.775 21.7658C199.652 21.692 199.467 21.6183 199.222 21.5445C198.914 21.4707 198.546 21.3969 198.054 21.3231C197.562 21.3231 196.948 21.2493 196.149 21.1756C193.753 20.9542 191.786 20.6591 190.311 20.364C188.775 20.0688 187.608 19.6261 186.809 19.1834C185.948 18.667 185.395 18.0767 185.088 17.3389C184.781 16.601 184.658 15.7157 184.658 14.7565C184.658 13.7235 184.842 12.8381 185.211 12.1003C185.641 11.2887 186.256 10.6985 187.177 10.2558C188.099 9.73928 189.328 9.37037 190.803 9.2228C192.278 9.00146 194.121 8.92768 196.395 8.92768C197.378 9.00146 198.361 9.07524 199.345 9.14902C200.328 9.29659 201.188 9.44415 201.987 9.59171C202.909 9.73928 203.769 9.88685 204.568 10.1082V14.5351C204.076 14.4614 203.462 14.3876 202.663 14.3138C201.925 14.24 201.188 14.24 200.389 14.1662C199.59 14.0924 198.853 14.0924 198.116 14.0187C197.378 14.0187 196.764 13.9449 196.272 13.9449C195.043 13.9449 194.06 13.9449 193.322 13.9449C192.585 13.9449 191.971 14.0187 191.602 14.0924C191.172 14.1662 190.926 14.24 190.742 14.3876C190.619 14.5351 190.557 14.6827 190.557 14.9041C190.557 15.0516 190.619 15.1992 190.68 15.3467C190.803 15.4205 190.926 15.4943 191.233 15.5681C191.479 15.6419 191.848 15.7157 192.339 15.7157C192.831 15.7894 193.507 15.8632 194.306 15.937C196.702 16.1584 198.669 16.3797 200.205 16.7486C201.68 17.0437 202.847 17.4864 203.708 18.0029C204.506 18.4456 205.121 19.0359 205.367 19.7737C205.674 20.5115 205.797 21.3969 205.797 22.4299ZM208.07 14.4614C208.07 12.1741 208.255 10.182 208.562 8.48498C208.869 6.78798 209.484 5.38612 210.406 4.2056C211.266 3.09886 212.556 2.21347 214.215 1.697C215.875 1.10674 218.087 0.811607 220.729 0.811607C221.958 0.811607 223.187 0.811607 224.355 0.959172C225.584 1.03295 226.69 1.18052 227.673 1.2543C228.718 1.40187 229.64 1.54943 230.438 1.697C231.237 1.84456 231.852 1.99213 232.343 2.06591V7.52581C232.098 7.45203 231.667 7.45203 230.991 7.30446C230.315 7.23068 229.455 7.08311 228.41 7.00933C227.366 6.93555 226.198 6.78798 224.846 6.7142C223.556 6.64042 222.143 6.64042 220.668 6.64042C219.132 6.64042 217.903 6.78798 216.981 7.1569C216.12 7.52581 215.445 8.04228 215.014 8.70633C214.584 9.44415 214.338 10.2558 214.215 11.2149C214.093 12.1741 214.031 13.2808 214.031 14.4614C214.031 15.6419 214.093 16.7486 214.215 17.7078C214.338 18.667 214.584 19.4786 215.014 20.1426C215.445 20.8066 216.12 21.3231 216.981 21.692C217.903 22.1347 219.132 22.2823 220.668 22.2823C222.327 22.2823 223.802 22.2085 225.215 22.1347C226.628 22.0609 227.919 21.9134 228.964 21.8396C230.254 21.692 231.422 21.5445 232.466 21.3231V26.783C232.036 26.9306 231.422 27.0044 230.623 27.1519C229.824 27.2995 228.902 27.4471 227.857 27.5946C226.813 27.7422 225.645 27.816 224.478 27.8898C223.249 28.0373 222.02 28.0373 220.729 28.0373C218.087 28.0373 215.875 27.816 214.215 27.2257C212.556 26.6355 211.266 25.8239 210.406 24.6433C209.484 23.5366 208.869 22.0609 208.562 20.364C208.255 18.667 208.07 16.6748 208.07 14.4614ZM241.069 9.96063C241.745 9.73928 242.421 9.59172 243.159 9.44415C243.773 9.29659 244.51 9.22281 245.309 9.07524C246.17 9.00146 246.968 8.92768 247.89 8.92768C250.041 8.92768 251.884 9.07524 253.359 9.29659C254.834 9.51793 256.063 10.0344 256.923 10.7722C257.845 11.4363 258.521 12.4692 258.89 13.7235C259.32 14.9778 259.504 16.601 259.504 18.5932V27.7422H253.605V18.5932C253.605 17.7078 253.544 17.0437 253.359 16.5273C253.175 16.0108 252.868 15.6419 252.438 15.4205C252.007 15.1254 251.454 14.9778 250.717 14.8303C249.98 14.7565 248.996 14.7565 247.89 14.7565C247.46 14.7565 247.03 14.7565 246.477 14.7565C245.924 14.8303 245.371 14.8303 244.756 14.8303C244.142 14.9041 243.527 14.9778 242.913 14.9778C242.237 15.0516 241.622 15.0516 241.069 15.1254V27.7422H235.477V10.6985V1.10674H241.069V9.96063ZM284.883 16.8962C284.883 17.4864 284.883 17.9291 284.883 18.4456C284.883 18.8883 284.822 19.2572 284.822 19.6261C284.822 19.995 284.76 20.364 284.76 20.6591H267.616C267.862 21.5445 268.476 22.2085 269.398 22.6512C270.32 23.0939 271.671 23.3152 273.453 23.3152C273.761 23.3152 274.191 23.3152 274.621 23.3152C275.113 23.2415 275.604 23.2415 276.157 23.2415C276.649 23.1677 277.202 23.1677 277.816 23.1677C278.37 23.0939 278.984 23.0939 279.476 23.0939C280.766 23.0201 282.118 22.9463 283.531 22.8726V26.9306C282.364 27.1519 281.258 27.3733 280.09 27.5946C279.046 27.7422 277.939 27.8898 276.772 28.0373C275.604 28.1849 274.498 28.1849 273.453 28.1849C271.303 28.1849 269.459 28.1111 267.984 27.816C266.51 27.5946 265.281 27.0782 264.359 26.4141C263.437 25.6763 262.761 24.7171 262.392 23.4628C261.962 22.2085 261.778 20.5853 261.778 18.5932C261.778 16.601 261.962 14.9778 262.392 13.7235C262.761 12.4692 263.437 11.4363 264.359 10.7722C265.281 10.0344 266.51 9.51793 267.984 9.29659C269.459 9.07524 271.303 8.92768 273.453 8.92768C275.174 8.92768 276.772 9.07524 278.185 9.29659C279.599 9.51793 280.766 9.96063 281.749 10.5509C282.733 11.2149 283.531 12.0265 284.084 13.0595C284.637 14.0924 284.883 15.3467 284.883 16.8962ZM279.045 16.5273C279.045 16.3797 279.045 16.2321 279.045 16.1584C279.045 16.0108 279.045 15.8632 279.045 15.7157C279.045 15.4943 278.923 15.273 278.8 15.0516C278.677 14.8303 278.431 14.6089 278.062 14.4614C277.632 14.3138 277.079 14.1662 276.342 14.0924C275.604 14.0187 274.682 13.9449 273.453 13.9449C271.549 13.9449 270.135 14.1662 269.213 14.6089C268.292 15.0516 267.739 15.7894 267.554 16.8224H279.045V16.5273ZM287.587 10.182C288.447 9.96063 289.369 9.81306 290.414 9.59171C291.397 9.44415 292.442 9.37037 293.486 9.2228C294.531 9.14902 295.637 9.07524 296.743 9.00146C297.849 8.92767 298.894 8.92768 300 8.92768V13.7973C298.832 13.7973 297.849 13.9449 296.989 14.0187C296.19 14.1662 295.453 14.3138 294.9 14.3876C294.224 14.5351 293.671 14.6827 293.179 14.8303V27.7422H287.587V10.182Z" fill="white"/>
</svg>
