<svg width="79" height="81" viewBox="0 0 79 81" fill="none" xmlns="http://www.w3.org/2000/svg">
<path d="M48.588 57.378H46.3854C40.0365 45.9529 31.8738 30.1136 29.2824 30.3732C26.5615 30.6329 27.4684 38.0332 25.3954 40.8895C23.4518 43.6159 10.7542 33.7488 7.64452 35.4366C4.53488 37.2543 8.81063 49.5881 9.45847 53.3532C10.2359 57.2481 1.16611 54.9112 1.03655 59.9746C0.906978 65.038 15.9369 64.9081 16.8439 66.8556C17.6213 68.803 8.03322 72.0488 9.71761 77.6315C11.2724 83.0844 39.2591 77.8912 52.6047 69.1925L58.4352 59.8447C70.2259 40.8895 82.794 2.07022 74.113 1.16141C67.2459 0.901749 60.1196 16.3516 57.7874 16.4814C55.4552 16.4814 54.289 6.87395 50.1429 8.30208C46.1262 9.86004 46.6445 39.9807 48.0698 57.2481L48.588 57.378Z" fill="#D8E8C3"/>
<path fill-rule="evenodd" clip-rule="evenodd" d="M48.588 57.378H46.3854C40.0365 45.9529 31.8738 30.1136 29.2824 30.3732C26.5615 30.6329 27.4684 38.0332 25.3954 40.8895C23.4518 43.6159 10.7542 33.7488 7.64452 35.4366C4.53489 37.2542 8.81064 49.5881 9.45848 53.3532C10.2359 57.2481 1.16612 54.9112 1.03655 59.9746C0.906981 65.038 15.9369 64.9081 16.8439 66.8556C17.6213 68.803 8.03323 72.0488 9.71761 77.6315C11.2724 83.0844 39.2591 77.8912 52.6047 69.1925L58.4352 59.8447C70.2259 40.8895 82.794 2.07021 74.113 1.1614C67.2459 0.901738 60.1196 16.3516 57.7874 16.4814C55.4552 16.4814 54.289 6.87394 50.1429 8.30207C46.1262 9.86003 46.6445 39.9807 48.0698 57.2481L48.588 57.378ZM44.1827 51.2759C45.2193 52.9637 46.1263 54.7814 46.9037 56.2095C46.1263 46.3424 45.7375 32.9698 46.1263 22.8431C46.515 14.4041 47.5515 8.17224 49.7542 7.39326C53.1229 6.22478 54.6777 9.60037 56.103 12.5865C56.7508 14.0146 57.3987 15.4427 57.7874 15.4427C58.0465 15.4427 59.4718 13.4953 61.1561 11.1583C64.5249 6.35461 69.1894 -0.136906 74.113 0.122755C74.6312 0.122755 75.0199 0.252586 75.2791 0.382416C77.4817 1.42106 78.2591 4.40716 78 8.69156C77.7409 12.5865 76.8339 17.6499 75.1495 23.2326C71.7807 35.4366 65.5615 50.2373 59.6013 60.1044L59.3422 60.3641V60.4939L59.7309 59.7149L59.6013 60.1044L59.3422 60.4939V60.3641V60.4939L53.5116 69.7118L53.3821 69.9715L53.2525 70.1013C48.588 73.0874 42.2392 75.684 35.7608 77.6315C29.9302 79.3193 23.8405 80.4878 19.1761 80.7474C13.9934 81.1369 10.2359 80.4878 8.9402 78.6701C8.81064 78.4105 8.68107 78.1508 8.68107 77.8912C7.51495 73.8664 11.0133 71.0102 13.7342 68.9329L15.8073 67.2451C15.8073 67.1152 13.7342 66.5959 11.2724 66.2064C6.34884 65.1678 3.8147e-06 63.9993 3.8147e-06 59.9746C3.8147e-06 56.4691 2.98007 55.82 5.701 55.1708C7.25582 54.7813 8.68107 54.3919 8.42193 53.6129C8.29236 52.8339 8.03323 51.5356 7.64452 50.1075C6.21927 44.5247 4.01662 36.3454 7.12625 34.5278C9.06977 33.3593 13.0864 35.4366 16.9734 37.3841C20.6013 39.2017 24.0997 41.0193 24.6179 40.2403C25.2658 39.3315 25.5249 37.3841 25.9136 35.4366C26.4319 32.4505 26.8206 29.4644 29.2824 29.3346C32.0033 29.0749 38.3522 40.6298 44.1827 51.2759Z" fill="#FEFEFE"/>
<path d="M48.3289 54.6515C48.3289 56.2095 46.1262 56.7288 45.4784 55.82C41.2027 48.6793 32.2625 34.6576 30.1894 36.7349C28.1163 38.6824 30.7076 45.9529 29.0233 46.602C27.3389 47.2512 18.9169 41.279 17.3621 43.0966C15.9369 44.7844 19.3056 52.8339 19.3056 54.9112C19.4352 56.9885 14.3821 55.6902 13.7342 59.0658C13.0864 62.5712 24.7475 62.9607 25.6545 64.7783C26.691 66.5959 18.7874 69.582 20.0831 73.3471C21.3787 76.9824 42.3688 74.6454 52.6047 69.1925L58.4352 59.8447C68.9302 44.9142 80.0731 11.0285 72.6877 10.5092C65.3023 9.98987 59.8605 23.6221 58.3056 22.7133C56.8804 21.6746 55.5847 14.1444 52.9934 16.4814C50.5316 18.6885 48.4585 39.9807 48.3289 54.6515Z" fill="#9AB925"/>
<path d="M52.6046 69.1925C44.9601 72.1786 30.3189 74.2559 29.2824 70.8803C28.2458 67.5047 33.9468 67.1152 33.6877 64.6484C33.299 62.1817 24.4884 62.3115 24.4884 60.1044C24.4884 57.7674 26.3023 58.5464 26.691 57.8973C26.9502 57.1183 22.804 49.8478 24.0997 48.16C25.3954 46.4722 30.1894 51.2759 31.7442 50.2373C33.299 49.1986 31.485 45.823 33.1694 45.1739C34.8538 44.6546 44.4419 57.1183 47.2924 55.9498C50.1429 54.9112 51.6977 27.7766 55.3256 25.959C58.8239 24.1414 58.8239 30.6329 59.99 30.8925C61.2857 31.1522 65.4319 22.5834 71.9103 21.2851C78.2591 19.857 64.3953 54.0023 52.6046 69.1925Z" fill="#00502E"/>
</svg>
