<svg width="88" height="76" viewBox="0 0 88 76" fill="none" xmlns="http://www.w3.org/2000/svg">
<g clip-path="url(#clip0)">
<path d="M79.0476 73.9069C78.5446 73.9062 78.0431 73.8513 77.5521 73.743L62.1845 70.356C56.4119 72.7091 50.2293 73.9155 43.9877 73.9069C32.9485 73.9069 22.5217 70.2688 14.6673 63.6658C6.57353 56.8604 2.09735 47.7458 2.09735 37.9999C2.09735 28.2539 6.56297 19.1394 14.6673 12.3375C22.5358 5.73088 32.9485 2.09277 43.9877 2.09277C55.0268 2.09277 65.4537 5.73088 73.3046 12.3375C81.3983 19.1394 85.8745 28.2539 85.8745 37.9999C85.8535 43.8438 84.227 49.5718 81.1696 54.5686L85.3467 64.5238C85.7781 65.5528 85.947 66.6713 85.8385 67.7803C85.73 68.8894 85.3475 69.9549 84.7248 70.8826C84.102 71.8102 83.2582 72.5715 82.268 73.099C81.2778 73.6265 80.1718 73.904 79.0476 73.9069Z" fill="#EA5B0D"/>
<path d="M44.0005 4.18579C54.5364 4.18579 64.467 7.64602 71.9555 13.9317C79.5777 20.3325 83.7759 28.8784 83.7759 38C83.7578 43.8256 82.0341 49.5208 78.8141 54.3943L83.4099 65.3472C83.705 66.0582 83.8191 66.8303 83.742 67.5953C83.6648 68.3604 83.3989 69.0948 82.9677 69.7339C82.5365 70.373 81.9532 70.8971 81.2693 71.2599C80.5854 71.6227 79.822 71.813 79.0463 71.8141C78.6984 71.8134 78.3516 71.7761 78.0117 71.7026L61.9826 68.169C56.2982 70.5865 50.1754 71.8269 43.9899 71.8141C33.4505 71.8141 23.5233 68.3539 16.0349 62.0683C8.40915 55.6675 4.21098 47.1215 4.21098 38C4.21098 28.8784 8.40915 20.3325 16.0349 13.9317C23.5233 7.653 33.4505 4.18579 43.9899 4.18579H44.0005ZM43.9899 0C32.4511 0 21.5562 3.81257 13.3041 10.7401C4.7177 17.9466 -0.0118408 27.6262 -0.0118408 38C-0.0118408 48.3737 4.7177 58.0534 13.3041 65.26C21.5562 72.1875 32.4511 75.9999 43.9899 75.9999C50.2826 76.0049 56.5196 74.8321 62.3732 72.5432L77.0933 75.7872C78.6931 76.1411 80.3604 76.0525 81.9129 75.531C83.4654 75.0094 84.8434 74.0751 85.8966 72.8299C86.9497 71.5848 87.6375 70.0767 87.8847 68.4704C88.1319 66.8642 87.9291 65.2214 87.2984 63.7216L83.5225 54.7222C86.4328 49.6198 87.9705 43.8614 87.9881 38C87.9881 27.6262 83.2586 17.9466 74.6722 10.7401C66.4236 3.81257 55.5252 0 43.9899 0Z" fill="white"/>
<path d="M44.0018 70.4189C22.8419 70.4189 5.6445 55.8768 5.6445 38C5.6445 20.1232 22.856 5.58105 44.0018 5.58105C65.1475 5.58105 82.359 20.1232 82.359 38C82.3382 43.8012 80.5498 49.4609 77.2283 54.2374L82.1127 65.8739C82.3217 66.3729 82.4037 66.9152 82.3513 67.453C82.2989 67.9909 82.1138 68.5076 81.8123 68.9578C81.5108 69.408 81.1022 69.7777 80.6225 70.0343C80.1428 70.291 79.6068 70.4266 79.0617 70.4294C78.8144 70.4287 78.5678 70.4019 78.3262 70.3492L61.8502 66.718C56.2273 69.1754 50.1469 70.4361 44.0018 70.4189Z" fill="white"/>
<path d="M44.0018 6.97644C64.412 6.97644 80.9514 20.8663 80.9514 38.0001C80.9224 43.7715 79.0567 49.3867 75.6201 54.0456L80.8071 66.4008C80.9281 66.6883 80.9757 67.0009 80.9456 67.3109C80.9155 67.621 80.8087 67.9191 80.6347 68.1785C80.4607 68.4379 80.2249 68.6507 79.948 68.7982C79.6712 68.9456 79.3619 69.0231 79.0476 69.0238C78.9045 69.0238 78.7617 69.0087 78.6218 68.9785L61.6848 65.2427C56.1329 67.7585 50.0958 69.0486 43.9912 69.0238C23.5809 69.0238 7.04156 55.1339 7.04156 38.0001C7.04156 20.8663 23.5809 6.97644 43.9912 6.97644H44.0018ZM43.9912 4.18591C33.4518 4.18591 23.5246 7.64615 16.0362 13.9318C8.41046 20.3326 4.21228 28.8786 4.21228 38.0001C4.21228 47.1216 8.41046 55.6676 16.0362 62.0684C23.5246 68.3471 33.4518 71.8143 43.9912 71.8143C50.1767 71.827 56.2995 70.5866 61.9839 68.1692L78.013 71.7027C78.3529 71.7762 78.6998 71.8136 79.0476 71.8143C79.8246 71.8126 80.5892 71.6211 81.2737 71.2567C81.9582 70.8922 82.5415 70.3661 82.9719 69.7249C83.4024 69.0837 83.6667 68.3472 83.7415 67.5806C83.8163 66.814 83.6992 66.0409 83.4007 65.3299L78.8048 54.377C82.0248 49.5035 83.7485 43.8083 83.7666 37.9826C83.7666 28.8611 79.5685 20.3151 71.9463 13.9144C64.4578 7.63567 54.5271 4.16846 43.9912 4.16846V4.18591Z" fill="#EA5B0D"/>
<path d="M75.6306 54.056C79.0672 49.397 80.9329 43.7819 80.962 38.0105C80.962 20.8766 64.4226 6.98682 44.0123 6.98682C23.602 6.98682 7.06265 20.8766 7.06265 38.0105C7.06265 55.1443 23.602 69.0341 44.0123 69.0341C50.1169 69.059 56.1539 67.7689 61.7059 65.253L78.6429 68.9888C78.9846 69.0641 79.3406 69.0449 79.672 68.9333C80.0034 68.8217 80.2976 68.6221 80.5223 68.3561C80.7471 68.0901 80.8938 67.768 80.9465 67.425C80.9992 67.082 80.9559 66.7313 80.8212 66.411L75.6306 54.056Z" fill="#0E4D9F" stroke="white" stroke-width="3.28" stroke-linecap="square" stroke-linejoin="bevel"/>
<path d="M40.1484 59.2012C38.9161 59.2008 37.7116 58.8383 36.6871 58.1595C35.6626 57.4806 34.8641 56.516 34.3926 55.3875C33.921 54.2589 33.7976 53.0171 34.0379 51.819C34.2782 50.621 34.8715 49.5205 35.7426 48.6565C35.8201 48.5775 35.901 48.5007 35.9854 48.4263H33.9233L33.6453 46.6578C33.2265 44.0208 33.406 41.7918 34.1837 40.0303C34.8944 38.378 36.0243 36.936 37.4634 35.8445C38.83 34.8312 40.3636 34.0605 41.9959 33.5667C43.4845 33.1098 44.8956 32.7052 46.1871 32.3633C47.1911 32.1085 48.1773 31.7892 49.1395 31.4076C49.0515 31.3692 48.9319 31.3203 48.7876 31.268C47.8134 30.9924 46.8114 30.824 45.8 30.7657C44.3713 30.6437 42.4886 30.5809 40.2047 30.5809C38.0933 30.5809 36.0382 30.6297 34.1169 30.7239L31.7415 30.839L32.5615 19.0072L34.4089 18.8955C36.2811 18.7804 38.1954 18.7246 40.0992 18.7246C44.2974 18.7246 47.841 19.0037 50.6562 19.5583C53.6227 20.1408 55.9347 20.9536 57.7259 22.0733C59.6508 23.2662 60.9986 24.7591 61.7341 26.5102C62.4391 28.2338 62.7178 30.0996 62.547 31.9518V31.9936C62.3393 34.0865 61.632 35.7957 60.4356 37.0793C59.3554 38.2392 58.0526 39.1737 56.6033 39.828C55.2164 40.4569 53.7716 40.9521 52.289 41.3069C51.0545 41.6014 49.8393 41.9707 48.6504 42.4127C47.8182 42.7029 47.0535 43.156 46.4017 43.7452C46.275 43.8673 45.888 44.237 45.888 45.3637V48.4193H44.2974L44.5402 48.646C45.4098 49.5114 46.0017 50.6124 46.2411 51.8106C46.4806 53.0087 46.357 54.2504 45.8859 55.3791C45.4148 56.5077 44.6173 57.4729 43.5938 58.1531C42.5703 58.8332 41.3666 59.1979 40.1344 59.2012H40.1484Z" fill="#EA5B0D"/>
<path d="M40.0992 20.8173C44.1765 20.8173 47.5595 21.0813 50.248 21.6092C52.9365 22.137 55.0573 22.8835 56.6104 23.8485C58.1634 24.8113 59.2191 25.9659 59.7775 27.3123C60.3542 28.7318 60.5799 30.2675 60.4355 31.7911C60.2737 33.4189 59.7552 34.7095 58.8801 35.663C57.9901 36.6225 56.9126 37.3927 55.713 37.9268C54.4498 38.5006 53.1334 38.9516 51.7823 39.2732C50.4695 39.5896 49.1769 39.9832 47.9114 40.4522C46.812 40.8411 45.8039 41.4476 44.9484 42.2347C44.1707 42.9742 43.7836 44.0136 43.7836 45.374V46.3368H35.7286C35.3743 44.0904 35.5045 42.2695 36.1192 40.8742C36.682 39.5439 37.5858 38.3824 38.7408 37.5047C39.9071 36.6368 41.217 35.9769 42.6117 35.5548C44.0686 35.106 45.4363 34.713 46.7149 34.3758C47.821 34.0989 48.9072 33.7493 49.9665 33.3294C50.8568 32.9806 51.3354 32.4399 51.3987 31.7667C51.4356 31.2608 51.3126 30.756 51.0468 30.3226C50.7864 29.904 50.2433 29.5552 49.4175 29.2761C48.2873 28.9475 47.1234 28.7463 45.9478 28.6762C44.4557 28.5483 42.5296 28.4831 40.1695 28.4808C37.9971 28.4808 35.9326 28.5297 33.9761 28.6274L34.511 20.9987C36.3409 20.8871 38.1942 20.8313 40.071 20.8313L40.0992 20.8173ZM40.1203 48.9389C41.0801 48.9349 42.0115 49.2611 42.7557 49.862C43.4999 50.4628 44.0107 51.3011 44.2009 52.2336C44.3911 53.1661 44.249 54.1352 43.7987 54.9754C43.3485 55.8156 42.6181 56.4749 41.7321 56.8408C40.8461 57.2068 39.8595 57.2566 38.9406 56.9819C38.0216 56.7071 37.2274 56.1248 36.6933 55.3343C36.1593 54.5438 35.9185 53.5941 36.0121 52.6472C36.1057 51.7003 36.5278 50.815 37.2065 50.1423C37.5835 49.755 38.0365 49.4485 38.5377 49.2415C39.0388 49.0345 39.5774 48.9315 40.1203 48.9389ZM40.071 16.6455C38.1215 16.6455 36.1649 16.7048 34.2506 16.8199L30.5556 17.0466L30.2987 20.7092L29.7814 28.3239L29.4541 33.0259L34.2048 32.7922C35.6124 32.7259 37.0693 32.6805 38.586 32.6631C37.7422 33.0899 36.9379 33.5895 36.1825 34.156C34.4515 35.4668 33.0945 37.2015 32.2447 39.1895C31.2911 41.3487 31.0659 43.8985 31.5409 46.975L32.1005 50.5121H32.1603C31.9062 51.323 31.778 52.1674 31.7802 53.0165C31.7802 55.2118 32.66 57.3172 34.2261 58.8695C35.7921 60.4218 37.9161 61.2939 40.1308 61.2939C42.3455 61.2939 44.4696 60.4218 46.0356 58.8695C47.6017 57.3172 48.4815 55.2118 48.4815 53.0165C48.4851 52.0586 48.3208 51.1073 47.9958 50.2051V45.3635C47.9911 45.2845 47.9911 45.2053 47.9958 45.1263C48.4132 44.7987 48.8831 44.5429 49.3858 44.3694C50.4936 43.9593 51.6252 43.6157 52.7747 43.3404C54.3892 42.954 55.9624 42.4143 57.4725 41.7288C59.1786 40.96 60.7106 39.8579 61.9769 38.4884C63.476 36.8664 64.3663 34.7491 64.6196 32.2097V32.126C64.8172 29.943 64.4854 27.7448 63.6519 25.7147C62.744 23.5556 61.1182 21.7382 58.8133 20.3081C56.8039 19.0628 54.2597 18.1489 51.0363 17.5175C48.0486 16.9315 44.4592 16.6455 40.064 16.6455H40.071Z" fill="white"/>
</g>
<defs>
<clipPath id="clip0">
<rect width="88" height="76" fill="white"/>
</clipPath>
</defs>
</svg>
