<svg width="99" height="99" fill="none" xmlns="http://www.w3.org/2000/svg"><g clip-path="url(#clip0)"><path d="M49.5 95.97a46.469 46.469 0 1132.859-13.611 46.164 46.164 0 01-32.86 13.61z" fill="#EA5B0D"/><path d="M49.5 6.062A43.439 43.439 0 1118.784 18.79 43.158 43.158 0 0149.5 6.062zM49.5 0a49.503 49.503 0 1035.001 14.5A49.179 49.179 0 0049.5 0z" fill="#fff"/><path d="M49.5 94.15a44.653 44.653 0 1131.57-13.076A44.365 44.365 0 0149.5 94.15z" fill="#fff"/><path d="M49.5 6.061a43.439 43.439 0 11-30.716 12.73A43.156 43.156 0 0149.5 6.06zm0-2.424a45.866 45.866 0 1032.428 13.432A45.562 45.562 0 0049.5 3.637z" fill="#EA5B0D"/><path d="M79.865 79.863c16.77-16.77 16.77-43.959 0-60.728-16.77-16.77-43.959-16.77-60.728 0-16.77 16.77-16.77 43.959 0 60.728 16.77 16.77 43.959 16.77 60.728 0z" fill="#0E4D9F"/><path d="M49.5 7.056A42.445 42.445 0 117.07 49.5 42.43 42.43 0 0149.5 7.056zm0-.995a43.439 43.439 0 1030.716 12.73A43.153 43.153 0 0049.5 6.06z" fill="#fff"/><path d="M44.96 45.27a1.212 1.212 0 01-1.212-1.213v-2.503a1.213 1.213 0 01.685-1.091l5.112-2.461a1.213 1.213 0 011.74 1.09v2.822a1.213 1.213 0 01-.745 1.119l-5.104 2.142a1.18 1.18 0 01-.476.094z" fill="#fff"/><path d="M50.073 39.093v2.821l-5.113 2.143v-2.503l5.113-2.461zm0-2.425a2.46 2.46 0 00-1.052.24l-5.113 2.46a2.425 2.425 0 00-1.373 2.186v2.503a2.423 2.423 0 003.362 2.237l5.112-2.143a2.425 2.425 0 001.488-2.237v-2.821a2.425 2.425 0 00-2.424-2.425z" fill="#fff"/><path d="M21.072 61.117a8.958 8.958 0 01-4.47-1.122 8.064 8.064 0 01-3.125-3.149 9.777 9.777 0 010-9.034 8.026 8.026 0 013.125-3.164 8.958 8.958 0 014.47-1.124h64.344a1.212 1.212 0 011.213 1.212v3.076a1.212 1.212 0 01-1.213 1.212H82.69v10.774a1.212 1.212 0 01-1.212 1.212H22.545a9.95 9.95 0 01-1.473.107zM19.86 49.515c-.243.126-.46.297-.64.503-.493.555-.733 1.31-.733 2.313 0 1.003.24 1.76.73 2.312.182.207.4.378.643.506v-5.634z" fill="#fff"/><path d="M85.416 44.751v3.076h-3.94v11.986H22.458a8.945 8.945 0 01-1.385.106 7.747 7.747 0 01-3.873-.963 6.85 6.85 0 01-2.66-2.686 8.564 8.564 0 010-7.858 6.831 6.831 0 012.66-2.694 7.748 7.748 0 013.873-.967h64.344zM21.03 56.631h.042v-8.568h-.042a3.466 3.466 0 00-2.728 1.167c-.695.78-1.041 1.82-1.04 3.119.003 1.299.35 2.339 1.04 3.118a3.459 3.459 0 002.728 1.167v-.003zM85.416 42.33H21.073a10.151 10.151 0 00-5.064 1.28 9.27 9.27 0 00-3.594 3.636 11.001 11.001 0 000 10.21 9.256 9.256 0 003.591 3.616 10.15 10.15 0 005.064 1.28c.521 0 1.042-.035 1.558-.107h58.844a2.425 2.425 0 002.424-2.425v-9.583h1.515a2.425 2.425 0 002.425-2.424v-3.061a2.424 2.424 0 00-2.425-2.425l.007.003z" fill="#fff"/><path d="M14.538 48.388a6.83 6.83 0 012.661-2.694 7.75 7.75 0 013.873-.967 7.413 7.413 0 014.546 1.4 6.727 6.727 0 012.525 3.819h-3.989a3.234 3.234 0 00-1.263-1.422 3.552 3.552 0 00-1.855-.488 3.467 3.467 0 00-2.728 1.167c-.695.78-1.041 1.82-1.04 3.119.003 1.299.35 2.338 1.04 3.118a3.457 3.457 0 002.728 1.167 3.526 3.526 0 001.855-.488c.555-.335.996-.83 1.264-1.421h3.988a6.685 6.685 0 01-2.525 3.81 7.446 7.446 0 01-4.546 1.387 7.747 7.747 0 01-3.873-.963 6.85 6.85 0 01-2.66-2.686 8.563 8.563 0 010-7.858zm22.891 11.41l-3.098-5.622h-.87v5.622h-3.636V44.906h6.088a6.713 6.713 0 013 .606 4.262 4.262 0 011.859 1.688c.41.727.619 1.55.606 2.385a4.412 4.412 0 01-.84 2.652 4.495 4.495 0 01-2.47 1.654l3.437 5.898-4.076.01zm-3.967-8.183h2.248a2.047 2.047 0 001.495-.488 1.837 1.837 0 00.5-1.379 1.788 1.788 0 00-.5-1.336 2.058 2.058 0 00-1.495-.488h-2.248v3.691zm13.301-3.803v3h4.85v2.8h-4.85v3.268h5.495v2.906h-9.122V44.894h9.122V47.8l-5.495.012zm3.31-5.898l-5.113 2.143v-2.503l5.113-2.461v2.821zm13.705 3.925a6.666 6.666 0 012.727 2.622 8.297 8.297 0 010 7.773 6.604 6.604 0 01-2.727 2.63 8.653 8.653 0 01-4.104.934h-5.58V44.906h5.58a8.68 8.68 0 014.104.933zm-1.146 9.698c.764-.747 1.146-1.808 1.146-3.182 0-1.374-.382-2.442-1.146-3.203-.764-.764-1.832-1.146-3.203-1.146H57.71v8.655h1.718c1.38-.002 2.448-.377 3.204-1.127v.003zm9.971-10.631v14.892h-3.637V44.906h3.637zm12.813 0v2.906h-3.94v11.986H77.84V47.812H73.9v-2.906h11.516z" fill="#EA5B0D"/></g><defs><clipPath id="clip0"><path fill="#fff" d="M0 0h99v99H0z"/></clipPath></defs></svg>