<svg width="99" height="99" fill="none" xmlns="http://www.w3.org/2000/svg"><g clip-path="url(#clip0)"><path d="M49.503 95.97a46.47 46.47 0 1132.859-13.612A46.169 46.169 0 0149.503 95.97z" fill="#EA5B0D"/><path d="M49.501 6.061a43.439 43.439 0 11-30.716 12.73A43.153 43.153 0 0149.501 6.06zm0-6.061a49.497 49.497 0 1035.004 14.499 49.178 49.178 0 00-35.004-14.5z" fill="#fff"/><path d="M49.503 94.15a44.654 44.654 0 1131.57-13.076 44.348 44.348 0 01-31.57 13.077z" fill="#fff"/><path d="M49.5 6.061a43.439 43.439 0 11-30.716 12.73A43.153 43.153 0 0149.5 6.06zm0-2.424a45.866 45.866 0 1032.428 13.435A45.552 45.552 0 0049.5 3.637z" fill="#EA5B0D"/><path d="M79.863 79.866c16.77-16.77 16.77-43.96 0-60.729-16.77-16.77-43.959-16.77-60.729 0-16.77 16.77-16.77 43.959 0 60.729 16.77 16.77 43.96 16.77 60.729 0z" fill="#0E4D9F"/><path d="M49.5 7.055a42.444 42.444 0 11.03 84.889 42.444 42.444 0 01-.03-84.889zm0-.994a43.438 43.438 0 1030.716 12.73A43.163 43.163 0 0049.5 6.06z" fill="#fff"/><path d="M44.878 61.608c-.794.001-1.586-.07-2.367-.212H21.118a1.213 1.213 0 01-1.212-1.213V38.605a1.212 1.212 0 011.212-1.212h48.957a1.212 1.212 0 011.14.8l7.81 21.578a1.214 1.214 0 01-1.143 1.625h-30.64c-.78.142-1.571.213-2.364.212z" fill="#fff"/><path d="M70.075 38.605l7.807 21.578H47.13a12.055 12.055 0 01-4.504 0H21.11V38.605h48.966zm-.012-2.425H21.121a2.425 2.425 0 00-2.425 2.425v21.578a2.424 2.424 0 002.425 2.425h21.272c1.637.283 3.31.283 4.946 0h30.543a2.425 2.425 0 002.282-3.25l-7.81-21.578a2.425 2.425 0 00-2.279-1.6h-.012z" fill="#fff"/><path d="M26.3 56.183h6.792v4H21.12V38.908h5.18v17.275zm13.078 2.818a10.422 10.422 0 01-3.97-3.894 11.455 11.455 0 010-11.214 10.488 10.488 0 013.97-3.879 11.55 11.55 0 0111 0 10.244 10.244 0 013.94 3.88 11.614 11.614 0 010 11.213A10.323 10.323 0 0150.379 59a11.517 11.517 0 01-10.985 0h-.015zm9.577-5.03c1.02-1.132 1.525-2.627 1.515-4.486-.01-1.859-.515-3.36-1.515-4.5-1.01-1.122-2.37-1.683-4.077-1.683-1.707 0-3.076.556-4.106 1.667-1.01 1.114-1.52 2.619-1.53 4.516-.01 1.897.5 3.397 1.53 4.5 1.02 1.122 2.389 1.682 4.106 1.682 1.718 0 3.076-.565 4.077-1.697zm22.169 2.463h-7.94l-1.273 3.758h-5.425l7.698-21.275h6l7.698 21.275h-5.485l-1.273-3.758zm-1.334-4l-2.636-7.789-2.607 7.789h5.243z" fill="#EA5B0D"/></g><defs><clipPath id="clip0"><path fill="#fff" d="M0 0h99v99H0z"/></clipPath></defs></svg>