<svg width="99" height="99" fill="none" xmlns="http://www.w3.org/2000/svg"><g clip-path="url(#clip0)"><path d="M49.5 95.97a46.47 46.47 0 1132.859-13.611A46.163 46.163 0 0149.5 95.969z" fill="#EA5B0D"/><path d="M49.5 6.061a43.439 43.439 0 11-30.716 12.73A43.156 43.156 0 0149.5 6.06zM49.5 0a49.503 49.503 0 1035.001 14.499A49.178 49.178 0 0049.5-.001z" fill="#fff"/><path d="M49.5 94.151a44.649 44.649 0 1131.574-13.077A44.354 44.354 0 0149.5 94.15z" fill="#fff"/><path d="M49.5 6.061a43.439 43.439 0 11-30.716 12.73A43.157 43.157 0 0149.5 6.06zm0-2.424a45.866 45.866 0 1032.428 13.432A45.567 45.567 0 0049.5 3.637z" fill="#EA5B0D"/><path d="M79.866 79.865c16.77-16.77 16.77-43.96 0-60.73-16.77-16.769-43.96-16.769-60.73 0-16.769 16.77-16.769 43.96 0 60.73 16.77 16.77 43.96 16.77 60.73 0z" fill="#0E4D9F"/><path d="M49.5 7.056a42.444 42.444 0 11.03 84.888 42.444 42.444 0 01-.03-84.889zm0-.995a43.438 43.438 0 1030.716 12.73A43.153 43.153 0 0049.5 6.06z" fill="#fff"/><path d="M26.24 61.35a1.212 1.212 0 01-1.213-1.212V38.862a1.213 1.213 0 011.213-1.212h35.368a13.64 13.64 0 016.446 1.476 10.757 10.757 0 014.38 4.21 13.074 13.074 0 010 12.31 10.701 10.701 0 01-4.398 4.243 13.638 13.638 0 01-6.428 1.473L26.24 61.35z" fill="#fff"/><path d="M61.608 38.862a12.39 12.39 0 015.879 1.334 9.558 9.558 0 013.895 3.743 11.875 11.875 0 010 11.107 9.483 9.483 0 01-3.91 3.758 12.38 12.38 0 01-5.864 1.334H26.24V38.862h35.368zm0-2.424H26.24a2.425 2.425 0 00-2.425 2.424v21.276a2.425 2.425 0 002.425 2.424h35.368a14.85 14.85 0 006.994-1.612 11.923 11.923 0 004.886-4.704 14.28 14.28 0 000-13.51 11.961 11.961 0 00-4.85-4.683 14.85 14.85 0 00-7.015-1.615h-.015z" fill="#fff"/><path d="M31.422 56.137h6.789v4H26.24V38.863h5.182v17.275zm13.698 0h6.79v4H39.937V38.863h5.183v17.275zm22.367-15.941a9.559 9.559 0 013.895 3.743 11.875 11.875 0 010 11.107 9.483 9.483 0 01-3.91 3.758 12.38 12.38 0 01-5.864 1.334h-7.959V38.862h7.97a12.393 12.393 0 015.868 1.334zm-1.636 13.85c1.09-1.069 1.636-2.584 1.636-4.546 0-1.962-.545-3.487-1.636-4.576-1.092-1.091-2.617-1.637-4.577-1.637H58.82v12.365h2.455c1.958 0 3.483-.535 4.576-1.606z" fill="#EA5B0D"/></g><defs><clipPath id="clip0"><path fill="#fff" d="M0 0h99v99H0z"/></clipPath></defs></svg>