<svg width="120" height="98" viewBox="0 0 120 98" fill="none" xmlns="http://www.w3.org/2000/svg">
<g clip-path="url(#clip0)">
<path d="M108.258 37.6026L103.282 36.0434C102.762 35.8781 102.201 35.9019 101.697 36.1105C101.194 36.3191 100.781 36.6989 100.532 37.1824C100.451 37.3284 100.386 37.483 100.339 37.6431L99.5306 37.9064C97.4974 32.8441 93.8021 24.8102 90.183 23.0081C85.1864 20.5225 67.9905 20.6238 67.2687 20.6289H66.5571V14.3568C66.5558 13.2334 66.1071 12.1565 65.3096 11.3622C64.512 10.5679 63.4305 10.121 62.3026 10.1196H14.4205C13.2926 10.121 12.2112 10.5679 11.4136 11.3622C10.6161 12.1565 10.1674 13.2334 10.1661 14.3568V83.6285C10.1674 84.7518 10.6161 85.8287 11.4136 86.6231C12.2112 87.4174 13.2926 87.8643 14.4205 87.8656H52.2281C52.5077 87.8656 52.7872 87.8656 53.0566 87.8403C62.3941 87.4049 65.4744 79.5889 66.2724 76.8806H95.1389V82.2465C95.1389 82.7379 95.335 83.2092 95.6839 83.5567C96.0327 83.9041 96.5059 84.0993 96.9993 84.0993H106.911C107.404 84.098 107.877 83.9024 108.225 83.5552C108.574 83.208 108.77 82.7375 108.772 82.2465V63.3289C108.771 62.9395 108.646 62.5603 108.416 62.2456C108.507 60.5649 108.548 59.4057 108.548 59.4057C108.939 52.2325 107.531 49.5039 107.481 49.3824L106.164 46.9627C105.866 46.4193 105.491 45.9215 105.051 45.4845L101.122 41.5866C101.531 41.9177 102.043 42.0966 102.57 42.0928H102.601L107.613 42.032C107.986 42.0274 108.352 41.93 108.678 41.7488C109.003 41.5676 109.278 41.3082 109.478 40.9943C109.729 40.623 109.863 40.1861 109.864 39.7388C109.863 39.258 109.707 38.7903 109.417 38.4054C109.128 38.0205 108.721 37.7389 108.258 37.6026Z" fill="#EA5B0D"/>
<path d="M62.3022 10.1245C63.4302 10.1258 64.5116 10.5727 65.3092 11.3671C66.1068 12.1614 66.5554 13.2383 66.5568 14.3616V20.6337H67.8733C71.0858 20.6337 85.6638 20.7552 90.1826 23.0129C93.8018 24.8151 97.492 32.8338 99.5303 37.9112L100.339 37.648C100.386 37.4878 100.451 37.3333 100.532 37.1872C100.723 36.8134 101.013 36.4993 101.372 36.2796C101.731 36.0599 102.144 35.943 102.565 35.9419C102.803 35.9426 103.039 35.9784 103.266 36.0482L108.243 37.6074C108.702 37.7485 109.103 38.0328 109.388 38.4183C109.672 38.8039 109.825 39.2702 109.823 39.7488C109.822 40.1961 109.688 40.6329 109.437 41.0042C109.238 41.3188 108.963 41.5786 108.637 41.7599C108.311 41.9412 107.945 42.0382 107.572 42.042L102.56 42.1027H102.529C102.002 42.1064 101.49 41.9275 101.081 41.5964L105.01 45.4945C105.45 45.9315 105.825 46.4292 106.123 46.9726L107.439 49.3924C107.506 49.5139 108.898 52.2424 108.507 59.4156C108.507 59.4156 108.466 60.5748 108.375 62.2555C108.605 62.5702 108.73 62.9494 108.731 63.3389V82.2564C108.729 82.7474 108.533 83.2179 108.184 83.5651C107.836 83.9123 107.363 84.1079 106.87 84.1093H96.9584C96.465 84.1093 95.9917 83.9141 95.6428 83.5666C95.2939 83.2191 95.0979 82.7478 95.0979 82.2564V76.8905H66.2517C65.4588 79.5988 62.3785 87.4149 53.0359 87.8502C52.7665 87.8502 52.487 87.8756 52.2074 87.8756H14.3998C13.2719 87.8742 12.1905 87.4273 11.3929 86.633C10.5954 85.8387 10.1467 84.7617 10.1454 83.6384V14.3616C10.1467 13.2383 10.5954 12.1614 11.3929 11.3671C12.1905 10.5727 13.2719 10.1258 14.3998 10.1245H62.282H62.3022ZM62.282 0H14.3998C10.5765 0.00402009 6.91097 1.51838 4.20747 4.21083C1.50397 6.90328 -0.0166085 10.554 -0.0206451 14.3616V83.6333C-0.0166085 87.441 1.50397 91.0917 4.20747 93.7841C6.91097 96.4766 10.5765 97.991 14.3998 97.995H52.2074C52.6496 97.995 53.1122 97.9949 53.5747 97.9595C62.653 97.509 68.9051 92.7455 72.6513 87.0099H85.918C86.8511 89.1532 88.3927 90.9781 90.3532 92.2605C92.3137 93.543 94.6077 94.2271 96.9533 94.2287H106.865C110.054 94.2247 113.11 92.9615 115.365 90.7161C117.619 88.4708 118.888 85.4267 118.892 82.2514V63.3338C118.891 62.483 118.801 61.6346 118.622 60.8027C118.622 60.3471 118.653 60.023 118.658 59.8661C118.978 53.8319 118.276 49.7872 117.468 47.2105C117.641 46.9776 117.809 46.7448 117.977 46.4968C119.299 44.4887 120.006 42.1402 120.01 39.7386C120.018 37.1034 119.177 34.5351 117.61 32.4111C116.044 30.2871 113.835 28.7194 111.308 27.9385L106.337 26.3794C106.011 26.2782 105.686 26.1921 105.356 26.1162C102.656 20.9426 99.2202 16.184 94.737 13.9668C92.5411 12.8733 88.7899 11.5369 79.2287 10.8838C78.2121 10.818 77.1956 10.7623 76.2552 10.7167C75.4405 7.65051 73.6312 4.93841 71.1088 3.00212C68.5863 1.06584 65.4921 0.0139758 62.3073 0.0101344L62.282 0Z" fill="white"/>
<path d="M108.258 37.6026L103.282 36.0434C102.762 35.8781 102.201 35.9019 101.697 36.1105C101.194 36.3191 100.781 36.6989 100.532 37.1824C100.451 37.3284 100.386 37.483 100.339 37.6431L99.5306 37.9064C97.4974 32.8441 93.8021 24.8102 90.183 23.0081C85.1864 20.5225 67.9905 20.6238 67.2687 20.6289H66.5571V14.3568C66.5558 13.2334 66.1071 12.1565 65.3096 11.3622C64.512 10.5679 63.4305 10.121 62.3026 10.1196H14.4205C13.2926 10.121 12.2112 10.5679 11.4136 11.3622C10.6161 12.1565 10.1674 13.2334 10.1661 14.3568V83.6285C10.1674 84.7518 10.6161 85.8287 11.4136 86.6231C12.2112 87.4174 13.2926 87.8643 14.4205 87.8656H52.2281C52.5077 87.8656 52.7872 87.8656 53.0566 87.8403C62.3941 87.4049 65.4744 79.5889 66.2724 76.8806H95.1389V82.2465C95.1389 82.7379 95.335 83.2092 95.6839 83.5567C96.0327 83.9041 96.5059 84.0993 96.9993 84.0993H106.911C107.404 84.098 107.877 83.9024 108.225 83.5552C108.574 83.208 108.77 82.7375 108.772 82.2465V63.3289C108.771 62.9395 108.646 62.5603 108.416 62.2456C108.507 60.5649 108.548 59.4057 108.548 59.4057C108.939 52.2325 107.531 49.5039 107.481 49.3824L106.164 46.9627C105.866 46.4193 105.491 45.9215 105.051 45.4845L101.122 41.5866C101.531 41.9177 102.043 42.0966 102.57 42.0928H102.601L107.613 42.032C107.986 42.0274 108.352 41.93 108.678 41.7488C109.003 41.5676 109.278 41.3082 109.478 40.9943C109.729 40.623 109.863 40.1861 109.864 39.7388C109.863 39.258 109.707 38.7903 109.417 38.4054C109.128 38.0205 108.721 37.7389 108.258 37.6026Z" fill="white"/>
<path d="M62.3026 6.32764H14.4205C12.2824 6.33032 10.2326 7.17781 8.72122 8.684C7.2098 10.1902 6.36025 12.2321 6.3589 14.3615V83.6332C6.36025 85.7626 7.2098 87.8045 8.72122 89.3106C10.2326 90.8168 12.2824 91.6643 14.4205 91.667H52.2281C52.5585 91.667 52.9041 91.667 53.2447 91.6366C62.6432 91.1861 67.0247 84.8482 68.9003 80.682H91.2656V82.2512C91.2683 83.7487 91.8669 85.1841 92.9301 86.243C93.9934 87.3019 95.4347 87.898 96.9383 87.9007H106.85C108.353 87.898 109.794 87.3018 110.857 86.2428C111.919 85.1837 112.516 83.7482 112.518 82.2512V63.3336C112.521 62.7063 112.416 62.083 112.208 61.4909C112.264 60.4785 112.289 59.7495 112.294 59.5774C112.706 51.903 111.247 48.481 110.769 47.6153L109.62 45.5044C110.857 45.0549 111.909 44.2114 112.614 43.1049C113.272 42.1228 113.626 40.9697 113.631 39.7891C113.635 38.5025 113.224 37.2486 112.459 36.2117C111.694 35.1748 110.615 34.4094 109.382 34.0282L104.41 32.4691C103.813 32.2815 103.191 32.1858 102.565 32.1856C102.123 32.1841 101.681 32.2316 101.249 32.3274C96.5063 21.97 93.0854 20.2641 91.8706 19.6718C87.5551 17.5203 77.389 16.9939 70.349 16.9027V14.412C70.3477 12.2826 69.498 10.2407 67.9866 8.73455C66.4752 7.22836 64.4256 6.38099 62.2874 6.37831L62.3026 6.32764Z" fill="#EA5B0D"/>
<path d="M33.4717 39.5464V38.0277C33.4737 37.7873 33.4184 37.5498 33.3102 37.3349C33.2021 37.12 33.0442 36.9337 32.8497 36.7913C32.6552 36.649 32.4295 36.5548 32.1912 36.5162C31.953 36.4777 31.7089 36.496 31.4792 36.5697L26.5181 38.1087C26.2219 38.2058 25.9641 38.3937 25.7815 38.6456C25.5989 38.8974 25.5009 39.2003 25.5015 39.5109C25.5002 39.8972 25.6522 40.2684 25.9246 40.5434C26.1969 40.8184 26.5675 40.9749 26.9553 40.9789L31.9671 41.0448C32.3645 41.0396 32.7441 40.88 33.0252 40.6001C33.3062 40.3203 33.4664 39.9422 33.4717 39.5464Z" fill="#0E4D9F"/>
<path d="M31.9417 36.4938C32.3461 36.4938 32.734 36.6538 33.02 36.9386C33.3059 37.2234 33.4666 37.6097 33.4666 38.0125V39.5311C33.4666 39.9339 33.3059 40.3202 33.02 40.605C32.734 40.8898 32.3461 41.0498 31.9417 41.0498L26.9299 40.9839C26.542 40.9799 26.1715 40.8233 25.8991 40.5483C25.6268 40.2732 25.4747 39.9022 25.4761 39.5159C25.4762 39.2055 25.5746 38.903 25.757 38.6513C25.9395 38.3996 26.1968 38.2115 26.4927 38.1137L31.469 36.5595C31.6181 36.5097 31.7742 36.4841 31.9315 36.4836L31.9417 36.4938ZM31.9315 35.7192C31.6953 35.7194 31.4606 35.7553 31.2352 35.8255L26.2589 37.3847C25.8033 37.5271 25.4053 37.8105 25.1228 38.1939C24.8403 38.5772 24.688 39.0404 24.6882 39.5159C24.6907 40.1033 24.9241 40.6663 25.3383 41.0845C25.7525 41.5027 26.3147 41.7428 26.9044 41.7534L31.9164 41.8142H31.9468C32.5525 41.8129 33.133 41.5723 33.5609 41.1452C33.9888 40.7181 34.229 40.1395 34.229 39.5362V38.0175C34.229 37.4097 33.9874 36.8266 33.5568 36.3959C33.1262 35.9652 32.5418 35.7219 31.9315 35.7192Z" fill="white"/>
<path d="M33.4717 38.0273L35.4541 38.7816L34.4985 41.333L33.4717 39.5511V38.0273Z" fill="#0E4D9F"/>
<path d="M33.4717 38.0275L35.4541 38.7767L34.4984 41.3078L33.4818 39.5259V38.0072L33.4717 38.0275ZM32.7143 36.8936V39.7283L32.8159 39.9056L33.8325 41.6875L34.6459 43.1049L35.2152 41.5863L36.1708 39.0551L36.4402 38.3413L35.7286 38.073L33.7462 37.3187L32.7296 36.9238L32.7143 36.8936Z" fill="white"/>
<path d="M101.04 39.5464V38.0277C101.038 37.7873 101.094 37.5498 101.202 37.3349C101.31 37.12 101.468 36.9337 101.662 36.7913C101.857 36.649 102.083 36.5548 102.321 36.5162C102.559 36.4777 102.803 36.496 103.033 36.5697L108.009 38.1239C108.305 38.2217 108.562 38.4098 108.745 38.6615C108.927 38.9132 109.026 39.2157 109.026 39.5261C109.026 39.9129 108.873 40.284 108.599 40.5588C108.326 40.8337 107.955 40.9901 107.567 40.9941L102.555 41.06C102.153 41.0573 101.769 40.8968 101.485 40.6134C101.202 40.3299 101.042 39.9466 101.04 39.5464Z" fill="#0E4D9F"/>
<path d="M102.57 36.4935C102.728 36.494 102.884 36.5196 103.033 36.5694L108.009 38.1236C108.305 38.222 108.562 38.4102 108.744 38.6618C108.926 38.9133 109.025 39.2155 109.026 39.5258C109.026 39.9125 108.873 40.2836 108.599 40.5585C108.326 40.8334 107.955 40.9898 107.567 40.9938L102.555 41.0597C102.151 41.0597 101.763 40.8997 101.477 40.6149C101.191 40.3301 101.03 39.9438 101.03 39.541V38.0223C101.03 37.6196 101.191 37.2333 101.477 36.9485C101.763 36.6637 102.151 36.5037 102.555 36.5037L102.57 36.4935ZM102.555 35.7393C101.945 35.7419 101.36 35.9852 100.93 36.4159C100.499 36.8466 100.258 37.4297 100.258 38.0375V39.5562C100.258 40.1604 100.498 40.7397 100.927 41.167C101.356 41.5942 101.938 41.8342 102.545 41.8342H102.57L107.582 41.7734C108.172 41.7628 108.734 41.5227 109.148 41.1045C109.562 40.6864 109.796 40.1233 109.798 39.5359C109.799 39.0602 109.647 38.5967 109.365 38.2132C109.082 37.8297 108.684 37.5464 108.228 37.4048L103.251 35.8455C103.026 35.7753 102.791 35.7395 102.555 35.7393Z" fill="white"/>
<path d="M101.04 38.0273L99.0579 38.7816L100.014 41.333L101.04 39.5511V38.0273Z" fill="#0E4D9F"/>
<path d="M101.04 38.0276V39.5463L100.024 41.3282L99.0681 38.7971L101.05 38.0478L101.04 38.0276ZM101.818 36.9341L100.801 37.329L98.819 38.0832L98.1075 38.3515L98.3769 39.0653L99.3324 41.5964L99.9018 43.1151L100.715 41.6977L101.732 39.9158L101.833 39.7386V36.9038L101.818 36.9341Z" fill="white"/>
<path d="M37.5432 62.0381H27.6313C27.0362 62.0381 26.5537 62.5186 26.5537 63.1113V82.034C26.5537 82.6267 27.0362 83.1071 27.6313 83.1071H37.5432C38.1383 83.1071 38.6208 82.6267 38.6208 82.034V63.1113C38.6208 62.5186 38.1383 62.0381 37.5432 62.0381Z" fill="#424143"/>
<path d="M96.9637 83.1069H106.876C107.471 83.1069 107.953 82.6265 107.953 82.0338V63.1111C107.953 62.5183 107.471 62.0379 106.876 62.0379H96.9637C96.3686 62.0379 95.8862 62.5183 95.8862 63.1111V82.0338C95.8862 82.6265 96.3686 83.1069 96.9637 83.1069Z" fill="#424143"/>
<path d="M100.059 41.3031C100.059 41.3031 94.7069 25.919 89.8221 23.4891C84.9373 21.0592 67.2534 21.1908 67.2534 21.1908C67.2534 21.1908 49.5696 21.0542 44.6848 23.4891C39.8001 25.9241 34.4477 41.3031 34.4477 41.3031V41.45L30.0457 45.8136C29.6592 46.2013 29.3291 46.6409 29.0647 47.1196L27.7533 49.5344C27.7533 49.5344 26.391 52.106 26.7774 59.1526C26.7774 59.1526 27.3518 75.8934 29.4612 75.8934H105.046C107.155 75.8934 107.735 59.1526 107.735 59.1526C108.116 52.1161 106.759 49.5344 106.759 49.5344L105.442 47.1196C105.178 46.6409 104.848 46.2013 104.461 45.8136L100.059 41.45V41.3031Z" fill="#0E4D9F"/>
<path d="M105.046 76.3892H29.4613C28.5361 76.3892 27.5755 75.321 26.8181 67.5657C26.4165 63.4096 26.2691 59.2029 26.2691 59.1624C25.8828 52.0753 27.245 49.4075 27.2857 49.2961L28.6023 46.8763C28.8882 46.3541 29.2494 45.8765 29.6747 45.4589L33.9242 41.2167L33.9546 41.1408C34.1731 40.5029 39.429 25.5288 44.4409 23.0331C49.3765 20.5729 66.5114 20.6742 67.2434 20.6843C67.9754 20.6944 85.1 20.5779 90.0356 23.0331C95.0475 25.5288 100.303 40.5029 100.522 41.1408L100.552 41.242L104.807 45.4589C105.229 45.8772 105.587 46.3548 105.869 46.8763L107.186 49.291C107.247 49.4075 108.614 52.0753 108.202 59.1725C108.202 59.2029 108.055 63.4096 107.653 67.5657C106.932 75.321 105.971 76.3892 105.046 76.3892ZM34.956 41.3888V41.6622L30.4066 46.1726C30.0507 46.5227 29.7492 46.9237 29.512 47.3623L28.1956 49.7719C28.1956 49.7719 26.9146 52.3536 27.2806 59.1168C27.611 68.6642 28.6887 74.9919 29.4969 75.3868H105.046C105.818 75.0021 106.896 68.6743 107.226 59.1371C107.592 52.3638 106.317 49.8023 106.306 49.777L104.995 47.3724C104.758 46.9338 104.456 46.5328 104.1 46.1827L99.5256 41.6723V41.3989C99.1037 40.2093 94.036 26.1717 89.568 23.9494C84.851 21.6005 67.406 21.7069 67.2332 21.7069C67.0604 21.7069 49.6053 21.6005 44.8679 23.9494C40.4406 26.1616 35.3779 40.1992 34.956 41.3888Z" fill="white"/>
<path d="M67.1823 38.2704C56.2963 38.1915 45.4294 39.192 34.7424 41.2571L34.8035 42.1582L38.2549 45.7979C40.0086 48.1004 42.5663 49.6632 45.4219 50.1768C52.6107 51.3887 59.8913 51.9798 67.1823 51.9436C74.4733 51.9798 81.7539 51.3887 88.9428 50.1768C91.7983 49.6632 94.356 48.1004 96.1097 45.7979L99.6679 42.1582L99.6222 41.2571C88.9352 39.192 78.0683 38.1915 67.1823 38.2704Z" fill="#133C68"/>
<path d="M45.5744 68.4465L45.5388 68.3808C45.3137 67.9848 44.9954 67.6492 44.611 67.4032C44.2267 67.1571 43.788 67.0079 43.3328 66.9684L33.4717 66.1129C33.2508 66.0975 33.0293 66.1327 32.8242 66.2159C32.619 66.2991 32.4357 66.4281 32.2884 66.5928C32.1412 66.7576 32.0338 66.9537 31.9746 67.1663C31.9154 67.3788 31.9058 67.602 31.9468 67.8188L32.4551 70.5576C32.5623 71.1481 32.8767 71.6816 33.3423 72.0627C33.8078 72.4437 34.3941 72.6477 34.9966 72.6381H43.1549C43.6312 72.637 44.0995 72.5169 44.5171 72.2888C44.8406 72.1064 45.1246 71.8622 45.353 71.57C45.5814 71.2779 45.7495 70.9437 45.8478 70.5866C45.946 70.2296 45.9725 69.8566 45.9256 69.4894C45.8787 69.1221 45.7593 68.7677 45.5744 68.4465Z" fill="#0B3460"/>
<path d="M43.099 68.791V68.7504C42.9569 68.5019 42.7564 68.2915 42.5147 68.1372C42.273 67.9829 41.9972 67.8893 41.7112 67.8645L35.5201 67.3279C35.3806 67.3162 35.2403 67.3367 35.1101 67.3878C34.9799 67.439 34.8633 67.5194 34.7693 67.6228C34.6754 67.7261 34.6067 67.8497 34.5685 67.9838C34.5304 68.1179 34.5238 68.259 34.5493 68.3961L34.8746 70.1172C34.9434 70.4845 35.1393 70.8162 35.428 71.0547C35.7168 71.2933 36.0803 71.4237 36.4554 71.4233H41.579C41.8775 71.4232 42.1713 71.3483 42.4331 71.2055C42.6369 71.0914 42.8159 70.9382 42.9599 70.7547C43.1038 70.5712 43.2098 70.3611 43.2717 70.1366C43.3337 69.912 43.3503 69.6775 43.3206 69.4465C43.291 69.2155 43.2157 68.9927 43.099 68.791Z" fill="#231F20"/>
<path d="M88.9326 68.4465L88.9683 68.3808C89.1941 67.9844 89.5134 67.6487 89.8986 67.4027C90.2838 67.1566 90.7233 67.0075 91.1793 66.9684L101.035 66.1129C101.256 66.0975 101.478 66.1327 101.683 66.2159C101.888 66.2991 102.071 66.4281 102.219 66.5928C102.366 66.7576 102.473 66.9537 102.532 67.1663C102.592 67.3788 102.601 67.602 102.56 67.8188L102.052 70.5576C101.945 71.1481 101.63 71.6816 101.165 72.0627C100.699 72.4437 100.113 72.6477 99.5104 72.6381H91.3776C90.9029 72.637 90.4361 72.5169 90.0203 72.2888C89.6938 72.1095 89.4063 71.8672 89.1745 71.5763C88.9427 71.2854 88.7712 70.9516 88.67 70.5942C88.5689 70.2367 88.54 69.8627 88.585 69.4941C88.6301 69.1254 88.7483 68.7694 88.9326 68.4465Z" fill="#0B3460"/>
<path d="M91.408 68.791V68.7504C91.5501 68.5019 91.7505 68.2915 91.9923 68.1372C92.234 67.9829 92.5096 67.8893 92.7957 67.8645L98.9869 67.3279C99.1263 67.3162 99.2667 67.3367 99.3969 67.3878C99.5271 67.439 99.6437 67.5194 99.7377 67.6228C99.8316 67.7261 99.9003 67.8497 99.9384 67.9838C99.9766 68.1179 99.9832 68.259 99.9577 68.3961L99.6324 70.1172C99.5636 70.4845 99.3677 70.8162 99.0789 71.0547C98.7902 71.2933 98.4267 71.4237 98.0515 71.4233H92.9278C92.6293 71.4232 92.3357 71.3483 92.0739 71.2055C91.8701 71.0914 91.6911 70.9382 91.5471 70.7547C91.4031 70.5712 91.2971 70.3611 91.2351 70.1366C91.1732 69.912 91.1567 69.6775 91.1864 69.4465C91.216 69.2155 91.2913 68.9927 91.408 68.791Z" fill="#231F20"/>
<path d="M47.8668 52.9614C47.8668 52.9614 31.7536 47.9903 30.2185 51.0479C28.6835 54.1055 28.8766 58.3071 31.1792 58.3071C33.4818 58.3071 37.8938 59.4562 41.3452 59.0715C44.7966 58.6867 52.0959 54.6016 47.8668 52.9614Z" fill="#133C68"/>
<path d="M47.0891 53.3509C47.0891 53.3509 32.4398 49.4429 31.047 51.8322C29.6543 54.2216 29.8221 57.5474 31.9163 57.5474C34.0105 57.5474 38.0159 58.4486 41.1572 58.1448C44.2985 57.8411 50.9166 54.6468 47.0891 53.3509Z" fill="#B6B6B7"/>
<path d="M34.1223 57.355C35.7534 57.355 37.0756 56.0382 37.0756 54.4138C37.0756 52.7895 35.7534 51.4727 34.1223 51.4727C32.4913 51.4727 31.1691 52.7895 31.1691 54.4138C31.1691 56.0382 32.4913 57.355 34.1223 57.355Z" fill="white"/>
<path d="M38.9309 57.5932C39.7478 57.5932 40.41 56.9337 40.41 56.1201C40.41 55.3065 39.7478 54.647 38.9309 54.647C38.114 54.647 37.4517 55.3065 37.4517 56.1201C37.4517 56.9337 38.114 57.5932 38.9309 57.5932Z" fill="white"/>
<path d="M45.2846 54.9099C45.2846 53.938 43.526 53.1533 42.55 53.1533C42.0822 53.1533 41.6336 53.3384 41.3028 53.6678C40.9721 53.9972 40.7862 54.444 40.7862 54.9099C40.7855 55.141 40.8307 55.37 40.919 55.5837C41.0073 55.7974 41.1371 55.9917 41.301 56.1553C41.4648 56.319 41.6595 56.4489 41.8738 56.5375C42.0881 56.626 42.318 56.6715 42.55 56.6715C43.526 56.6715 45.2846 55.8818 45.2846 54.9099Z" fill="white"/>
<path d="M85.222 72.1167H49.285C48.9547 72.1167 48.638 72.2475 48.4044 72.4801C48.1709 72.7126 48.0397 73.028 48.0397 73.3569C48.0397 73.6859 48.1709 74.0013 48.4044 74.2339C48.638 74.4665 48.9547 74.5973 49.285 74.5973H85.222C85.5522 74.5973 85.869 74.4665 86.1025 74.2339C86.3361 74.0013 86.4673 73.6859 86.4673 73.3569C86.4673 73.028 86.3361 72.7126 86.1025 72.4801C85.869 72.2475 85.5522 72.1167 85.222 72.1167Z" fill="#231F20"/>
<path d="M92.8516 30.1101C92.283 29.0055 91.4525 28.0557 90.4322 27.343C89.4118 26.6303 88.2323 26.1762 86.9959 26.0198C80.4451 25.213 73.8538 24.7735 67.2534 24.7036C60.6547 24.7733 54.0653 25.2128 47.5161 26.0198C46.2788 26.1754 45.0983 26.6291 44.077 27.3419C43.0557 28.0547 42.2245 29.0049 41.6554 30.1101L36.3791 40.9535C46.5754 39.2041 56.9072 38.357 67.2534 38.4223C77.5997 38.357 87.9314 39.2041 98.1277 40.9535L92.8516 30.1101Z" fill="#97D6DD"/>
<path d="M86.63 52.9614C86.63 52.9614 102.743 47.9903 104.278 51.0479C105.813 54.1055 105.62 58.3071 103.318 58.3071C101.015 58.3071 96.6029 59.4562 93.1516 59.0715C89.7002 58.6867 82.4314 54.6016 86.63 52.9614Z" fill="#133C68"/>
<path d="M87.4229 53.3509C87.4229 53.3509 102.067 49.4429 103.46 51.8322C104.853 54.2216 104.685 57.5474 102.591 57.5474C100.496 57.5474 96.491 58.4486 93.3497 58.1448C90.2084 57.8411 83.5852 54.6468 87.4229 53.3509Z" fill="#B6B6B7"/>
<path d="M100.385 57.355C102.016 57.355 103.338 56.0382 103.338 54.4138C103.338 52.7895 102.016 51.4727 100.385 51.4727C98.7536 51.4727 97.4314 52.7895 97.4314 54.4138C97.4314 56.0382 98.7536 57.355 100.385 57.355Z" fill="white"/>
<path d="M95.5761 57.5932C96.393 57.5932 97.0552 56.9337 97.0552 56.1201C97.0552 55.3065 96.393 54.647 95.5761 54.647C94.7592 54.647 94.0969 55.3065 94.0969 56.1201C94.0969 56.9337 94.7592 57.5932 95.5761 57.5932Z" fill="white"/>
<path d="M89.2224 54.9099C89.2224 53.938 90.981 53.1533 91.957 53.1533C92.4248 53.1533 92.8734 53.3384 93.2041 53.6678C93.5349 53.9972 93.7208 54.444 93.7208 54.9099C93.7214 55.141 93.6763 55.37 93.588 55.5837C93.4996 55.7974 93.3699 55.9917 93.206 56.1553C93.0421 56.319 92.8475 56.4489 92.6332 56.5375C92.4188 56.626 92.189 56.6715 91.957 56.6715C90.981 56.6715 89.2224 55.8818 89.2224 54.9099Z" fill="white"/>
<path d="M84.2155 57.8512L81.8874 55.1885C81.3273 54.5508 80.6364 54.04 79.8613 53.6907C79.0862 53.3414 78.2449 53.1617 77.3941 53.1636H57.1128C56.262 53.1617 55.4207 53.3414 54.6456 53.6907C53.8705 54.04 53.1796 54.5508 52.6195 55.1885L50.2914 57.8512C49.9472 58.2444 49.7151 58.7223 49.6194 59.2352C49.5238 59.7481 49.568 60.277 49.7475 60.7671L52.4466 68.1883C52.7379 68.9878 53.2693 69.6787 53.9687 70.1668C54.668 70.655 55.5014 70.917 56.3554 70.9169H78.1515C79.0057 70.9177 79.8394 70.6561 80.5389 70.1678C81.2384 69.6795 81.7696 68.9882 82.0603 68.1883L84.7594 60.7671C84.9389 60.277 84.9832 59.7481 84.8875 59.2352C84.7918 58.7223 84.5598 58.2444 84.2155 57.8512Z" fill="#133C68"/>
<path d="M83.57 60.3369C83.6701 60.0584 83.6942 59.7584 83.6397 59.4676C83.5853 59.1768 83.4541 58.9054 83.2599 58.6816L80.9319 56.0188C80.4901 55.5117 79.9432 55.1058 79.3291 54.8288C78.7149 54.5518 78.048 54.4104 77.3738 54.4141H57.0925C56.4183 54.4104 55.7514 54.5518 55.1372 54.8288C54.5231 55.1058 53.9762 55.5117 53.5344 56.0188L51.2064 58.6816C51.0122 58.9054 50.881 59.1768 50.8266 59.4676C50.7721 59.7584 50.7962 60.0584 50.8963 60.3369L51.2064 61.1925H83.2295L83.57 60.3369Z" fill="#0B3460"/>
<path d="M51.247 61.1924L53.6412 67.7733C53.8441 68.3284 54.2132 68.808 54.6986 69.1475C55.184 69.487 55.7623 69.67 56.3554 69.6716H78.1515C78.7448 69.6707 79.3235 69.4879 79.8091 69.1484C80.2946 68.8088 80.6635 68.3288 80.8658 67.7733L83.2598 61.1924H51.247Z" fill="#B6B6B7"/>
<path d="M52.7669 66.6548V67.2876H67.2535H81.735V66.6548H67.2535H52.7669Z" fill="#133C68"/>
<path d="M51.9892 64.2959V64.9236H67.2535H82.5178V64.2959H67.2535H51.9892Z" fill="#133C68"/>
<path d="M52.2891 65.4751V66.1079H67.2535H82.2179V65.4751H67.2535H52.2891Z" fill="#133C68"/>
<path d="M67.2535 63.1162H51.43V63.7439H67.2535H83.0769V63.1162H67.2535Z" fill="#133C68"/>
<path d="M69.241 57.9728C69.241 57.7131 69.1895 57.4559 69.0896 57.216C68.9896 56.9762 68.8432 56.7584 68.6586 56.575C68.474 56.3916 68.2547 56.2463 68.0136 56.1473C67.7725 56.0484 67.5142 55.9979 67.2534 55.9985C66.9927 55.9979 66.7344 56.0484 66.4933 56.1473C66.2522 56.2463 66.033 56.3916 65.8484 56.575C65.6638 56.7584 65.5173 56.9762 65.4174 57.216C65.3175 57.4559 65.266 57.7131 65.266 57.9728C65.266 58.4977 65.4754 59.0012 65.8481 59.3724C66.2209 59.7436 66.7263 59.9521 67.2534 59.9521C67.7805 59.9521 68.2861 59.7436 68.6588 59.3724C69.0315 59.0012 69.241 58.4977 69.241 57.9728Z" fill="#B6B6B7"/>
<path d="M74.1511 38.4932L76.2606 38.5944L80.144 25.306L78.0498 25.1592L74.1511 38.4932Z" fill="#E0F2F5"/>
<path d="M82.5941 25.5338C82.2586 25.4933 81.8875 25.463 81.5113 25.4326L77.633 38.6603L78.6902 38.7159L82.5941 25.5338Z" fill="#E0F2F5"/>
<path d="M101.015 39.592V38.0733C101.013 37.8323 101.068 37.5943 101.176 37.3788C101.285 37.1634 101.443 36.9768 101.638 36.8343C101.834 36.6919 102.06 36.5976 102.299 36.5596C102.538 36.5215 102.782 36.5407 103.012 36.6154L107.989 38.1745C108.285 38.271 108.544 38.4588 108.726 38.7108C108.909 38.9628 109.007 39.266 109.005 39.5768C109.004 39.9631 108.85 40.3335 108.578 40.6081C108.305 40.8827 107.934 41.0396 107.546 41.0449L102.54 41.1056C102.136 41.1056 101.749 40.9463 101.463 40.6626C101.177 40.3789 101.016 39.9939 101.015 39.592Z" fill="#0E4D9F"/>
<path d="M101.005 38.0273L98.6665 38.7867L99.6832 42.1581L101.005 39.546V38.0273Z" fill="#133C68"/>
<path d="M33.4971 39.592V38.0733C33.4994 37.8323 33.444 37.5943 33.3355 37.3788C33.2271 37.1634 33.0688 36.9768 32.8737 36.8343C32.6785 36.6919 32.452 36.5976 32.2131 36.5596C31.9741 36.5215 31.7296 36.5407 31.4995 36.6154L26.5232 38.1745C26.2265 38.271 25.9683 38.4588 25.7856 38.7108C25.6029 38.9628 25.5052 39.266 25.5066 39.5768C25.5079 39.9631 25.6615 40.3335 25.9344 40.6081C26.2073 40.8827 26.5775 41.0396 26.9654 41.0449L31.9722 41.1056C32.3758 41.1056 32.7629 40.9463 33.0488 40.6626C33.3346 40.3789 33.4958 39.9939 33.4971 39.592Z" fill="#0E4D9F"/>
<path d="M33.5073 38.0273L35.8404 38.7867L34.8238 42.1581L33.5073 39.546V38.0273Z" fill="#133C68"/>
<path d="M14.4307 10.9043H62.3128C62.7687 10.9043 63.2201 10.9937 63.6413 11.1675C64.0625 11.3412 64.4453 11.5959 64.7676 11.917C65.09 12.238 65.3457 12.6192 65.5202 13.0387C65.6947 13.4582 65.7845 13.9078 65.7845 14.3618V73.5901C65.7818 77.1663 64.3534 80.5952 61.8133 83.123C59.2732 85.6509 55.8292 87.0708 52.2382 87.0708H14.4307C13.51 87.0708 12.6269 86.7066 11.9758 86.0582C11.3248 85.4097 10.959 84.5303 10.959 83.6133V14.3618C10.959 13.4448 11.3248 12.5654 11.9758 11.917C12.6269 11.2686 13.51 10.9043 14.4307 10.9043Z" fill="#0E4D9F"/>
<path d="M52.2383 87.6024H14.4307C13.3751 87.5998 12.3635 87.1806 11.6175 86.4367C10.8716 85.6929 10.452 84.6849 10.4506 83.6336V14.3619C10.452 13.3106 10.8716 12.3026 11.6175 11.5588C12.3635 10.8149 13.3751 10.3957 14.4307 10.3931H62.3127C63.3688 10.3944 64.3811 10.8131 65.1274 11.5573C65.8736 12.3014 66.2928 13.3102 66.2928 14.3619V73.5902C66.2928 77.3038 64.8125 80.8656 62.1772 83.4929C59.5419 86.1203 55.9672 87.5984 52.2383 87.6024ZM14.4307 11.4055C13.6443 11.4069 12.8905 11.719 12.3349 12.2732C11.7793 12.8275 11.4672 13.5787 11.4672 14.3619V83.6336C11.4672 84.4168 11.7793 85.168 12.3349 85.7223C12.8905 86.2765 13.6443 86.5886 14.4307 86.59H52.2383C55.6949 86.586 59.0088 85.2166 61.453 82.7824C63.8972 80.3482 65.2721 77.0479 65.2762 73.6054V14.3771C65.2762 13.5939 64.9641 12.8427 64.4085 12.2884C63.8529 11.7342 63.0991 11.4221 62.3127 11.4207L14.4307 11.4055Z" fill="white"/>
<path d="M37.5076 19.611L36.2623 18.7099H37.8024L38.2802 17.252L38.753 18.7099H40.2931L39.0427 19.611L39.5205 21.0689L38.2802 20.1678L37.0298 21.0689L37.5076 19.611Z" fill="white"/>
<path d="M37.5076 43.9503L36.2623 43.0492H37.8024L38.2802 41.5913L38.753 43.0492H40.2931L39.0427 43.9503L39.5205 45.4082L38.2802 44.5072L37.0298 45.4082L37.5076 43.9503Z" fill="white"/>
<path d="M32.4195 43.085L31.1742 43.981L31.652 42.5281L30.4016 41.622H31.9417L32.4195 40.1641L32.8922 41.622H34.4324L33.182 42.5281L33.6598 43.981L32.4195 43.085Z" fill="white"/>
<path d="M27.9871 38.8123L26.7418 39.7134L27.2196 38.2606L25.9742 37.3493H27.5144L27.9871 35.8965L28.4649 37.3493H30.0051L28.7547 38.2606L29.2325 39.7134L27.9871 38.8123Z" fill="white"/>
<path d="M25.6439 31.9933L24.3985 31.0922H25.9387L26.4165 29.6343L26.8892 31.0922H28.4344L27.1891 31.9933L27.6618 33.4512L26.4165 32.5501L25.1711 33.4512L25.6439 31.9933Z" fill="white"/>
<path d="M27.8448 26.2932L26.5994 27.1892L27.0773 25.7313L25.8319 24.8302H27.367L27.8448 23.3672L28.3277 24.8302H29.8627L28.6174 25.7313L29.0901 27.1892L27.8448 26.2932Z" fill="white"/>
<path d="M31.3623 21.4591L30.1169 20.5631H31.6571L32.1349 19.1001L32.6076 20.5631H34.1478L32.8973 21.4591L33.3751 22.9221L32.1349 22.021L30.8895 22.9221L31.3623 21.4591Z" fill="white"/>
<path d="M44.1359 22.021L42.8906 22.9221L43.3684 21.4591L42.123 20.5631H43.6632L44.1359 19.1001L44.6086 20.5631H46.1488L44.9034 21.4591L45.3812 22.9221L44.1359 22.021Z" fill="white"/>
<path d="M47.9431 25.7316L46.6926 24.8305H48.2328L48.7106 23.3726L49.1884 24.8305H50.7235L49.4781 25.7316L49.9559 27.1895L48.7157 26.2935L47.4653 27.1895L47.9431 25.7316Z" fill="white"/>
<path d="M49.5137 31.7101L48.2633 30.809H49.8035L50.2813 29.3511L50.7591 30.809H52.2992L51.0488 31.7101L51.5266 33.1629L50.2813 32.2619L49.0359 33.1629L49.5137 31.7101Z" fill="white"/>
<path d="M47.9431 37.8251L46.6926 36.9291H48.2328L48.7106 35.4712L49.1884 36.9291H50.7235L49.4781 37.8251L49.9559 39.2881L48.7157 38.387L47.4653 39.2881L47.9431 37.8251Z" fill="white"/>
<path d="M44.2731 42.7962L43.038 43.6973L43.5107 42.2444L42.2653 41.3383H43.8004L44.2782 39.8804L44.756 41.3383H46.2962L45.0508 42.2444L45.5286 43.7024L44.2731 42.7962Z" fill="white"/>
<path d="M34.3663 37.425V25.6553H42.3366V27.0474H35.9268V30.6872H41.4723V32.0794H35.9268V37.425H34.3663Z" fill="white"/>
<path d="M64.9509 15.9004L65.0931 72.7748C65.0931 76.3286 63.6757 79.7368 61.1524 82.2498C58.6292 84.7627 55.2068 86.1745 51.6384 86.1745L14.7916 86.0784C14.7916 86.0784 60.9506 73.9238 64.9509 15.9004Z" fill="#133C68"/>
<path d="M52.2179 86.8731V78.2368C52.2173 77.8628 52.2906 77.4923 52.4339 77.1465C52.5771 76.8008 52.7875 76.4865 53.0529 76.2218C53.3182 75.9571 53.6333 75.7472 53.9802 75.6039C54.3272 75.4606 54.699 75.3867 55.0745 75.3867H65.7489C65.7489 75.3867 63.8072 86.8731 52.2179 86.8731Z" fill="white"/>
<path d="M56.8181 58.1652H19.9102C19.708 58.1652 19.5141 58.0851 19.3711 57.9427C19.2281 57.8003 19.1478 57.6072 19.1478 57.4058C19.1478 57.2044 19.2281 57.0112 19.3711 56.8688C19.5141 56.7264 19.708 56.6465 19.9102 56.6465H56.8434C57.0456 56.6465 57.2396 56.7264 57.3826 56.8688C57.5256 57.0112 57.6059 57.2044 57.6059 57.4058C57.6059 57.5077 57.5854 57.6085 57.5455 57.7023C57.5056 57.7961 57.4472 57.881 57.3737 57.9518C57.3002 58.0227 57.2131 58.0781 57.1177 58.1147C57.0222 58.1514 56.9203 58.1686 56.8181 58.1652Z" fill="white"/>
<path d="M56.8181 65.0753H19.9102C19.708 65.0753 19.5141 64.9953 19.3711 64.8529C19.2281 64.7105 19.1478 64.5174 19.1478 64.316C19.1478 64.1146 19.2281 63.9214 19.3711 63.779C19.5141 63.6366 19.708 63.5566 19.9102 63.5566H56.8434C57.0456 63.5566 57.2396 63.6366 57.3826 63.779C57.5256 63.9214 57.6059 64.1146 57.6059 64.316C57.6059 64.4179 57.5854 64.5187 57.5455 64.6125C57.5056 64.7063 57.4472 64.7912 57.3737 64.862C57.3002 64.9329 57.2131 64.9883 57.1177 65.0249C57.0222 65.0615 56.9203 65.0787 56.8181 65.0753Z" fill="white"/>
<path d="M56.8181 71.9903H19.9102C19.708 71.9903 19.5141 71.9104 19.3711 71.768C19.2281 71.6256 19.1478 71.4324 19.1478 71.231C19.1478 71.0296 19.2281 70.8365 19.3711 70.6941C19.5141 70.5517 19.708 70.4717 19.9102 70.4717H56.8434C57.0456 70.4717 57.2396 70.5517 57.3826 70.6941C57.5256 70.8365 57.6059 71.0296 57.6059 71.231C57.6059 71.3329 57.5854 71.4338 57.5455 71.5276C57.5056 71.6214 57.4472 71.7063 57.3737 71.7771C57.3002 71.848 57.2131 71.9034 57.1177 71.94C57.0222 71.9767 56.9203 71.9937 56.8181 71.9903Z" fill="white"/>
<path d="M56.8892 58.1198H51.3792C51.3792 58.1198 51.5368 57.897 52.3196 56.6973H56.8943C56.9877 56.6973 57.0802 56.7157 57.1665 56.7513C57.2529 56.7869 57.3314 56.8391 57.3975 56.9049C57.4636 56.9707 57.516 57.0488 57.5517 57.1348C57.5875 57.2208 57.6059 57.313 57.6059 57.4061C57.6059 57.5954 57.5304 57.7768 57.396 57.9107C57.2616 58.0445 57.0793 58.1198 56.8892 58.1198Z" fill="#3C7ABC"/>
<path d="M56.8892 65.0298H46.103L47.3127 63.6074H56.8892C56.9826 63.6074 57.0751 63.6257 57.1615 63.6613C57.2478 63.6969 57.3263 63.7491 57.3924 63.8149C57.4585 63.8807 57.5109 63.9588 57.5467 64.0448C57.5824 64.1308 57.6008 64.223 57.6008 64.3161C57.6008 64.5045 57.526 64.6853 57.3927 64.819C57.2593 64.9527 57.0784 65.0285 56.8892 65.0298Z" fill="#3C7ABC"/>
<path d="M56.8892 71.9396H39.2257L40.842 70.5171H56.8739C57.0631 70.5184 57.2441 70.5942 57.3774 70.7279C57.5107 70.8616 57.5856 71.0424 57.5856 71.2308C57.5857 71.4162 57.5128 71.5942 57.3826 71.7267C57.2524 71.8591 57.0753 71.9356 56.8892 71.9396Z" fill="#3C7ABC"/>
</g>
<defs>
<clipPath id="clip0">
<rect width="120" height="98" fill="white"/>
</clipPath>
</defs>
</svg>
