<svg width="121" height="59" viewBox="0 0 121 59" fill="none" xmlns="http://www.w3.org/2000/svg">
<g clip-path="url(#clip0)">
<path d="M111.979 21.3952C111.731 17.4498 109.462 14.2574 106.329 13.4593C100.328 11.9263 94.7598 14.4604 93.2743 15.2269L93.0627 14.9609C92.9367 14.9023 80.224 9.01807 60.2006 9.01807C40.1773 9.01807 27.4736 14.8797 27.3385 14.9609L27.2935 15.0194C25.3443 14.0816 20.2035 12.039 14.6484 13.4593C11.4972 14.2574 9.2464 17.4498 8.99881 21.3952C8.81874 24.2764 9.56149 34.1916 26.6408 40.9461C26.7443 41.3609 26.8433 41.7262 26.9423 42.0689L27.2845 42.5198C27.415 42.5965 30.6157 44.427 36.2878 46.2757C44.0141 48.7542 52.0787 50.0122 60.1916 50.0046C79.9044 50.0046 92.9681 42.5965 93.0987 42.5198L93.4408 42.0689C93.5398 41.7307 93.6344 41.388 93.7199 41.0454H93.819C93.9728 41.0472 94.1256 41.0196 94.2691 40.9641C111.416 34.2187 112.159 24.2809 111.979 21.3952ZM93.873 17.5896C93.9463 17.5646 94.0171 17.533 94.0846 17.495C94.1431 17.4634 99.8512 14.262 105.744 15.768C107.873 16.3091 109.422 18.6312 109.606 21.544C109.759 23.9744 109.066 32.2528 94.3007 38.385C95.7007 30.332 94.5528 21.5395 93.873 17.5896ZM26.0736 38.1236C11.8978 32.0184 11.2407 23.9293 11.3892 21.544C11.5738 18.6312 13.1268 16.3091 15.2561 15.768C16.3347 15.4955 17.4434 15.3606 18.5558 15.3666C21.3471 15.4213 24.092 16.091 26.5957 17.3281C25.898 21.3366 24.7366 30.0705 26.0736 38.1236Z" fill="#EA5B0D"/>
<path d="M60.2097 9.01796C80.224 9.01796 92.9367 14.8796 93.0718 14.9608L93.2833 15.2268C96.1121 13.793 99.2292 13.0221 102.399 12.9723C103.727 12.9685 105.05 13.1305 106.338 13.4547C109.489 14.2528 111.74 17.4452 111.988 21.3906C112.168 24.2763 111.425 34.2141 94.2827 40.964C94.1391 41.0195 93.9864 41.0471 93.8325 41.0453H93.7335C93.648 41.3879 93.5534 41.7306 93.4543 42.0688L93.1122 42.5197C92.9817 42.5964 79.9179 50.0045 60.2052 50.0045C52.0923 50.0121 44.0277 48.754 36.3013 46.2756C30.6293 44.4269 27.4286 42.5964 27.298 42.5197L26.9559 42.0688C26.8569 41.7216 26.7579 41.3608 26.6543 40.946C9.57505 34.1825 8.8323 24.2628 9.01237 21.3951C9.25996 17.4497 11.5287 14.2573 14.6619 13.4592C15.9569 13.1319 17.2877 12.9684 18.6233 12.9723C21.6318 13.0167 24.5947 13.7151 27.307 15.0193L27.3521 14.9608C27.4782 14.9021 40.1908 9.01796 60.2142 9.01796H60.2097ZM94.3097 38.3849C109.071 32.2527 109.764 23.9562 109.615 21.5439C109.431 18.6311 107.882 16.309 105.753 15.7679C104.671 15.494 103.56 15.3575 102.444 15.362C99.534 15.421 96.6767 16.1509 94.0937 17.4949C94.0262 17.5328 93.9554 17.5645 93.8821 17.5895C94.5618 21.5394 95.7098 30.3319 94.3323 38.3849H94.3097ZM26.1006 38.1234C24.7501 30.0704 25.925 21.3365 26.6228 17.328C24.119 16.0909 21.3741 15.4212 18.5829 15.3665C17.4705 15.3605 16.3618 15.4954 15.2831 15.7679C13.1539 16.309 11.6007 18.6311 11.4162 21.5439C11.2676 23.9292 11.9249 32.0183 26.1006 38.1234ZM60.2366 0C44.5483 0 32.8757 3.31863 27.2576 5.32062C24.475 4.43575 21.5743 3.97965 18.6549 3.96792C16.5693 3.96408 14.4914 4.22157 12.4696 4.73443C5.54156 6.50195 0.553697 12.9768 0.0585152 20.845C-0.202581 25.0429 0.567268 38.8809 20.1585 47.9665L20.262 48.1018L21.3333 49.4545L22.8279 50.3156C23.2421 50.5591 27.0775 52.7279 33.5509 54.8246C42.1759 57.5948 51.179 59.002 60.2366 58.9954C82.3397 58.9954 97.0287 50.6628 97.6409 50.3066L99.14 49.4409L99.9953 48.3543C120.46 39.2912 121.257 25.0924 120.991 20.827C120.5 12.9588 115.512 6.4839 108.58 4.71637C106.565 4.20694 104.495 3.95099 102.417 3.95438C99.3865 3.97427 96.3776 4.46872 93.4994 5.4198C87.9984 3.42683 76.195 0.00902677 60.2366 0.00902677V0Z" fill="white"/>
<path d="M111.979 21.3952C111.731 17.4498 109.462 14.2574 106.329 13.4593C100.328 11.9263 94.7598 14.4604 93.2743 15.2269L93.0627 14.9609C92.9367 14.9023 80.224 9.01807 60.2006 9.01807C40.1773 9.01807 27.4736 14.8797 27.3385 14.9609L27.2935 15.0194C25.3443 14.0816 20.2035 12.039 14.6484 13.4593C11.4972 14.2574 9.2464 17.4498 8.99881 21.3952C8.81874 24.2764 9.56149 34.1916 26.6408 40.9461C26.7443 41.3609 26.8433 41.7262 26.9423 42.0689L27.2845 42.5198C27.415 42.5965 30.6157 44.427 36.2878 46.2757C44.0141 48.7542 52.0787 50.0122 60.1916 50.0046C79.9044 50.0046 92.9681 42.5965 93.0987 42.5198L93.4408 42.0689C93.5398 41.7307 93.6344 41.388 93.7199 41.0454H93.819C93.9728 41.0472 94.1256 41.0196 94.2691 40.9641C111.416 34.2187 112.159 24.2809 111.979 21.3952ZM93.873 17.5896C93.9463 17.5646 94.0171 17.533 94.0846 17.495C94.1431 17.4634 99.8512 14.262 105.744 15.768C107.873 16.3091 109.422 18.6312 109.606 21.544C109.759 23.9744 109.066 32.2528 94.3007 38.385C95.7007 30.332 94.5528 21.5395 93.873 17.5896ZM26.0736 38.1236C11.8978 32.0184 11.2407 23.9293 11.3892 21.544C11.5738 18.6312 13.1268 16.3091 15.2561 15.768C16.3347 15.4955 17.4434 15.3606 18.5558 15.3666C21.3471 15.4213 24.092 16.091 26.5957 17.3281C25.898 21.3366 24.7366 30.0705 26.0736 38.1236Z" fill="white"/>
<path d="M60.2096 9.01783C80.224 9.01783 92.9367 14.8795 93.0717 14.9606L93.2833 15.2267C96.112 13.7929 99.2292 13.022 102.399 12.9722C103.727 12.9684 105.05 13.1304 106.338 13.4546C109.489 14.2527 111.74 17.4451 111.988 21.3904C112.168 24.2762 111.425 34.2139 94.2826 40.9639C94.1391 41.0193 93.9863 41.047 93.8325 41.0451H93.7335C93.6479 41.3878 93.5533 41.7305 93.4543 42.0687L93.1122 42.5196C92.9816 42.5962 79.9179 50.0044 60.2051 50.0044C52.0923 50.012 44.0276 48.7539 36.3013 46.2755C30.6292 44.4268 27.4285 42.5962 27.298 42.5196L26.9559 42.0687C26.8568 41.7215 26.7578 41.3607 26.6543 40.9458C9.57502 34.1824 8.83227 24.2627 9.01234 21.395C9.25993 17.4496 11.5287 14.2572 14.6618 13.4591C15.9568 13.1318 17.2877 12.9682 18.6233 12.9722C21.6317 13.0166 24.5946 13.7149 27.307 15.0192L27.3521 14.9606C27.4781 14.902 40.1908 9.01783 60.2142 9.01783H60.2096ZM94.3097 38.3848C109.071 32.2525 109.764 23.9561 109.615 21.5438C109.431 18.631 107.882 16.3088 105.753 15.7678C104.671 15.4938 103.56 15.3574 102.444 15.3619C99.534 15.4209 96.6766 16.1508 94.0936 17.4947C94.0261 17.5327 93.9553 17.5644 93.882 17.5894C94.5618 21.5393 95.7097 30.3317 94.3322 38.3848H94.3097ZM26.1006 38.1233C24.7501 30.0703 25.925 21.3363 26.6228 17.3278C24.119 16.0908 21.3741 15.4211 18.5829 15.3664C17.4705 15.3604 16.3617 15.4952 15.2831 15.7678C13.1538 16.3088 11.6007 18.631 11.4161 21.5438C11.2676 23.929 11.9249 32.0182 26.1006 38.1233ZM60.2366 5.41064C43.3824 5.41064 31.354 9.4957 27.325 11.0784C24.5662 9.97324 21.626 9.39229 18.6548 9.36503C17.0187 9.36243 15.3885 9.5638 13.802 9.96465C9.15184 11.1505 5.79808 15.655 5.45146 21.1695C5.23988 24.5603 5.97365 35.9499 23.6877 43.6062L23.7327 43.755L24.1829 44.3051L24.5205 44.756L24.9481 45.2971L25.5469 45.6443C25.9115 45.8562 29.2923 47.768 35.239 49.7023C43.3245 52.2971 51.7642 53.6145 60.2546 53.6071C80.9262 53.6071 94.8229 45.7209 94.9624 45.6397L95.5612 45.2971L95.9888 44.7515L96.3309 44.3006L96.6235 43.9263C104.173 40.7926 109.579 36.6669 112.721 31.6484C115.53 27.1394 115.742 23.1535 115.62 21.1695C115.274 15.655 111.916 11.1505 107.265 9.96465C105.687 9.56501 104.064 9.36514 102.435 9.36954C99.3554 9.40095 96.31 10.0223 93.4633 11.2001C89.754 9.70763 77.541 5.41064 60.2546 5.41064H60.2366ZM97.8795 19.7942C99.3526 19.2734 100.9 18.9947 102.462 18.9691C103.277 18.9652 104.089 19.0637 104.88 19.2622C105.226 19.3524 105.942 20.2001 106.041 21.7692C106.081 22.4591 106.041 24.3077 104.537 26.6388C103.272 28.6273 101.242 30.5076 98.5592 32.1939C98.6765 28.049 98.4492 23.9014 97.8795 19.7942ZM21.9095 31.8197C19.4651 30.2009 17.615 28.4154 16.4446 26.5306C15.0266 24.2761 14.9725 22.4411 15.013 21.7692C15.112 20.2001 15.8278 19.3479 16.1699 19.2622C16.959 19.0655 17.7697 18.9685 18.5829 18.9736C19.9575 18.986 21.3227 19.2018 22.6343 19.6139C22.0673 23.6565 21.8279 27.7384 21.9185 31.8197H21.9095Z" fill="#EA5B0D"/>
<path d="M27.1584 40.3103C27.1029 40.3108 27.0478 40.3 26.9965 40.2787C10.3178 33.7136 9.58403 24.1997 9.75509 21.4447C9.98017 17.815 12.0285 14.8977 14.851 14.1763C21.4324 12.4944 27.4556 15.9257 27.7302 16.07C27.7814 16.0999 27.8263 16.1395 27.8622 16.1867C27.898 16.2339 27.9241 16.2878 27.9392 16.3452C27.9543 16.4026 27.9579 16.4624 27.9499 16.5211C27.9418 16.5799 27.9222 16.6366 27.8923 16.6878C27.8321 16.7902 27.7341 16.8646 27.6195 16.895C27.5049 16.9254 27.3828 16.9092 27.28 16.8501C27.2215 16.8185 21.2929 13.4593 15.0716 15.0465C12.6317 15.6687 10.858 18.2614 10.6554 21.4943C10.4934 24.1005 11.2136 33.0915 27.3115 39.4356C27.3666 39.4575 27.4167 39.4899 27.4591 39.5312C27.5016 39.5726 27.5355 39.6219 27.5589 39.6763C27.5824 39.7308 27.5948 39.7892 27.5956 39.8485C27.5965 39.9078 27.5856 39.9667 27.5637 40.0218C27.5319 40.1044 27.4765 40.1758 27.4044 40.2271C27.3324 40.2784 27.2468 40.3074 27.1584 40.3103Z" fill="#0E4D9F"/>
<path d="M18.6233 13.712C21.8031 13.7604 24.9254 14.5689 27.7301 16.0702C27.7814 16.1 27.8263 16.1397 27.8621 16.1869C27.898 16.2341 27.9241 16.288 27.9392 16.3454C27.9542 16.4028 27.9579 16.4625 27.9498 16.5213C27.9418 16.5801 27.9222 16.6368 27.8923 16.688C27.853 16.7561 27.7965 16.8128 27.7286 16.8523C27.6607 16.8919 27.5836 16.913 27.5051 16.9134C27.4258 16.9126 27.3481 16.8908 27.28 16.8503C24.5882 15.441 21.6061 14.6785 18.5693 14.6228C17.3901 14.6175 16.2148 14.7614 15.0715 15.0512C12.6316 15.6734 10.858 18.2661 10.6554 21.499C10.4933 24.1052 11.2136 33.0962 27.3115 39.4403C27.3665 39.4622 27.4167 39.4946 27.4591 39.5359C27.5016 39.5773 27.5355 39.6266 27.5589 39.681C27.5823 39.7355 27.5948 39.7939 27.5956 39.8532C27.5964 39.9125 27.5856 39.9714 27.5636 40.0265C27.5303 40.1104 27.4725 40.1822 27.3979 40.2329C27.3233 40.2835 27.2352 40.3106 27.145 40.3105C27.0894 40.311 27.0343 40.3002 26.9829 40.2789C10.3043 33.7138 9.57048 24.1999 9.74154 21.4449C9.96663 17.8151 12.0149 14.8979 14.8374 14.1765C16.0712 13.8693 17.3385 13.7178 18.6098 13.7256L18.6233 13.712ZM18.6098 12.8238C17.2621 12.821 15.9194 12.9862 14.6124 13.3153C11.4117 14.1314 9.0933 17.3733 8.84121 21.3999C8.66115 24.3127 9.40845 34.3451 26.6498 41.1357C26.8084 41.1942 26.976 41.2247 27.145 41.2258C27.416 41.2257 27.6807 41.144 27.9047 40.9912C28.1287 40.8385 28.3015 40.6217 28.4009 40.3692C28.5321 40.0355 28.5257 39.6633 28.3831 39.3344C28.2404 39.0055 27.9732 38.7467 27.6401 38.6151C12.0959 32.4964 11.3846 24.0195 11.5377 21.5711C11.7178 18.726 13.2213 16.4625 15.2786 15.9394C16.3499 15.6688 17.451 15.5341 18.5558 15.5382C21.436 15.5972 24.2639 16.3192 26.8208 17.6484C27.0244 17.7672 27.2559 17.8295 27.4915 17.8288C27.728 17.8281 27.9602 17.7653 28.1648 17.6466C28.3694 17.5279 28.5393 17.3575 28.6575 17.1524C28.8372 16.8421 28.8865 16.4729 28.7945 16.1262C28.7024 15.7796 28.4766 15.4837 28.1668 15.3037C25.2282 13.715 21.9488 12.8641 18.6098 12.8238Z" fill="white"/>
<path d="M93.828 40.3102C93.7378 40.3103 93.6497 40.2832 93.5751 40.2326C93.5005 40.1819 93.4427 40.1101 93.4094 40.0262C93.3876 39.9708 93.3768 39.9117 93.3779 39.8522C93.379 39.7927 93.3919 39.734 93.4157 39.6795C93.4396 39.625 93.474 39.5759 93.517 39.5348C93.5599 39.4936 93.6105 39.4614 93.6659 39.44C109.777 33.0958 110.498 24.1094 110.322 21.4987C110.119 18.2658 108.346 15.6731 105.901 15.0509C99.6847 13.4637 93.7469 16.8184 93.6974 16.8545C93.6463 16.8845 93.5898 16.9041 93.5311 16.9121C93.4725 16.9202 93.4127 16.9167 93.3554 16.9016C93.2981 16.8865 93.2444 16.8602 93.1973 16.8243C93.1501 16.7884 93.1105 16.7435 93.0808 16.6922C93.051 16.6407 93.0317 16.5838 93.0239 16.5249C93.0162 16.4659 93.0202 16.4059 93.0357 16.3485C93.0512 16.2911 93.0778 16.2374 93.1142 16.1903C93.1505 16.1433 93.1957 16.1039 93.2473 16.0744C93.4994 15.9301 99.5496 12.4988 106.127 14.1807C108.945 14.9021 110.993 17.8194 111.218 21.4491C111.393 24.2041 110.66 33.718 93.9811 40.2831C93.932 40.3009 93.8802 40.3101 93.828 40.3102Z" fill="#0E4D9F"/>
<path d="M102.381 13.7118C103.652 13.7042 104.92 13.8557 106.153 14.1627C108.971 14.8841 111.02 17.8015 111.245 21.4312C111.42 24.1862 110.687 33.7001 94.008 40.2652C93.955 40.2862 93.8985 40.2968 93.8415 40.2967C93.7514 40.2968 93.6633 40.2697 93.5886 40.2191C93.514 40.1684 93.4562 40.0966 93.4229 40.0127C93.4011 39.9573 93.3903 39.8982 93.3915 39.8387C93.3926 39.7793 93.4054 39.7205 93.4293 39.666C93.4531 39.6115 93.4876 39.5624 93.5305 39.5213C93.5734 39.4801 93.624 39.4479 93.6794 39.4265C109.791 33.0823 110.511 24.0959 110.336 21.4852C110.133 18.2523 108.359 15.6596 105.915 15.0374C104.773 14.7475 103.599 14.6036 102.422 14.609C99.3847 14.663 96.4021 15.4257 93.7109 16.8365C93.6428 16.877 93.5651 16.8988 93.4859 16.8996C93.4065 16.9 93.3286 16.8792 93.2598 16.8396C93.191 16.8001 93.1339 16.743 93.0943 16.6742C93.0645 16.6227 93.0452 16.5658 93.0375 16.5069C93.0297 16.4479 93.0336 16.388 93.0491 16.3306C93.0646 16.2732 93.0913 16.2194 93.1276 16.1723C93.1639 16.1253 93.2092 16.0859 93.2608 16.0564C96.0652 14.5543 99.1877 13.7457 102.368 13.6982L102.381 13.7118ZM102.368 12.7964C99.0287 12.8376 95.7495 13.6885 92.8106 15.2764C92.5013 15.4556 92.2754 15.7504 92.1826 16.096C92.0898 16.4417 92.1375 16.8101 92.3154 17.1206C92.4334 17.3272 92.6038 17.4989 92.8093 17.6185C93.0148 17.738 93.2482 17.8011 93.4859 17.8014C93.7213 17.8009 93.9525 17.7387 94.1566 17.621C96.7132 16.291 99.5414 15.5689 102.422 15.5108C103.525 15.507 104.625 15.6419 105.694 15.9122C107.756 16.4352 109.26 18.6987 109.435 21.5439C109.588 23.9923 108.881 32.4691 93.3328 38.5878C92.9997 38.7194 92.7326 38.9781 92.5899 39.307C92.4473 39.6359 92.4408 40.0082 92.572 40.3418C92.6714 40.5944 92.8443 40.8111 93.0683 40.9639C93.2923 41.1167 93.557 41.1984 93.828 41.1985C93.9971 41.1982 94.1648 41.1677 94.3232 41.1083C111.569 34.3178 112.33 24.2853 112.132 21.3725C111.88 17.355 109.561 14.1041 106.361 13.2879C105.055 12.9586 103.714 12.7935 102.368 12.7964Z" fill="white"/>
<path d="M92.7477 15.6327C92.7477 15.6327 80.2916 9.771 60.2097 9.771C40.1278 9.771 27.6717 15.6327 27.6717 15.6327C27.6717 15.6327 24.3675 30.652 27.6717 41.8569C27.6717 41.8569 40.4654 49.2426 60.2097 49.2426C79.9539 49.2426 92.7477 41.8569 92.7477 41.8569C96.0519 30.652 92.7477 15.6327 92.7477 15.6327Z" fill="#0E4D9F"/>
<path d="M60.2097 49.9818C52.0968 49.9894 44.0322 48.7313 36.3059 46.2529C30.6338 44.4042 27.4331 42.5736 27.3025 42.497L26.9604 42.0461C23.6427 30.7736 26.8119 16.0698 26.9604 15.4431L27.3656 14.9335C27.4917 14.8749 40.2044 8.99072 60.2277 8.99072C80.2511 8.99072 92.9548 14.8524 93.0898 14.9335L93.4994 15.4431C93.6345 16.0653 96.8036 30.7736 93.4994 42.0461L93.1573 42.497C93.0267 42.5736 89.8261 44.4042 84.154 46.2529C76.4147 48.7355 68.3362 49.9936 60.2097 49.9818ZM28.2929 41.3562C30.1881 42.3662 42.4146 48.5029 60.2097 48.5029C68.1541 48.5128 76.0515 47.2837 83.6183 44.8597C86.5522 43.9382 89.4017 42.766 92.1354 41.3562C94.9309 31.459 92.5856 18.4776 92.1354 16.1554C90.0331 15.2536 78.1217 10.4968 60.2411 10.4968C42.3605 10.4968 30.4492 15.2491 28.347 16.1554C27.8563 18.4776 25.4974 31.4545 28.2929 41.3562Z" fill="white"/>
<path d="M59.4354 48.3271C40.9786 48.3271 28.374 41.2796 28.374 41.2796C25.2228 30.5888 28.374 16.2502 28.374 16.2502C28.374 16.2502 40.2629 10.6455 59.4354 10.6455C59.4354 10.659 62.0869 23.5277 59.4354 48.3271Z" fill="#133C68"/>
<path d="M36.6299 21.1064C36.6299 21.1064 59.3273 23.0679 83.7893 21.1064H36.6299Z" fill="#0E4D9F"/>
<path d="M60.7633 22.7118C46.8577 22.7118 36.72 21.8551 36.5669 21.8416C36.4704 21.8337 36.3764 21.8067 36.2904 21.7622C36.2044 21.7178 36.128 21.6567 36.0657 21.5825C36.0033 21.5083 35.9563 21.4224 35.9272 21.3299C35.8981 21.2374 35.8876 21.1401 35.8962 21.0435C35.9036 20.9465 35.9301 20.8519 35.9742 20.7652C36.0184 20.6785 36.0794 20.6015 36.1535 20.5386C36.2276 20.4756 36.3134 20.4281 36.406 20.3986C36.4987 20.3692 36.5962 20.3585 36.693 20.3672C36.9226 20.3897 59.6154 22.3015 83.7308 20.3672C83.8276 20.3592 83.9249 20.3705 84.0173 20.4005C84.1097 20.4305 84.1952 20.4785 84.2689 20.5419C84.3426 20.6052 84.403 20.6825 84.4466 20.7694C84.4902 20.8563 84.5163 20.951 84.5231 21.048C84.538 21.2428 84.4754 21.4357 84.3489 21.5843C84.2224 21.733 84.0422 21.8255 83.8478 21.8416C75.7268 22.4954 67.7679 22.7118 60.7633 22.7118Z" fill="white"/>
<path d="M36.6299 29.0649C36.6299 29.0649 59.3273 31.0263 83.7893 29.0649H36.6299Z" fill="#0E4D9F"/>
<path d="M60.7634 30.6704C46.8578 30.6704 36.7201 29.8136 36.567 29.8001C36.3726 29.7829 36.1929 29.6893 36.0672 29.5398C35.9415 29.3902 35.88 29.1968 35.8963 29.002C35.9036 28.905 35.9301 28.8104 35.9743 28.7237C36.0185 28.637 36.0794 28.56 36.1536 28.4971C36.2277 28.4341 36.3135 28.3866 36.4061 28.3571C36.4987 28.3277 36.5963 28.317 36.6931 28.3257C36.9227 28.3257 59.6155 30.26 83.7309 28.3257C83.9261 28.3107 84.1192 28.3741 84.2677 28.5018C84.4163 28.6295 84.5082 28.811 84.5232 29.0065C84.5381 29.2013 84.4755 29.3941 84.349 29.5428C84.2224 29.6915 84.0423 29.784 83.8479 29.8001C75.7269 30.4539 67.768 30.6704 60.7634 30.6704Z" fill="white"/>
<path d="M36.6299 36.9736C36.6299 36.9736 59.3273 38.935 83.7893 36.9736H36.6299Z" fill="#0E4D9F"/>
<path d="M60.7634 38.5788C46.8578 38.5788 36.7201 37.7267 36.567 37.7131C36.3722 37.6948 36.1924 37.6002 36.0669 37.4499C35.9413 37.2996 35.88 37.1058 35.8963 36.9105C35.9036 36.8137 35.9302 36.7192 35.9744 36.6328C36.0186 36.5463 36.0796 36.4696 36.1538 36.407C36.228 36.3444 36.3139 36.2973 36.4065 36.2684C36.4991 36.2395 36.5965 36.2294 36.6931 36.2387C36.9227 36.2387 59.6155 38.1685 83.7309 36.2387C83.9254 36.2237 84.1178 36.2864 84.2662 36.4132C84.4147 36.5399 84.5071 36.7203 84.5232 36.915C84.5382 37.1103 84.4756 37.3036 84.3492 37.453C84.2228 37.6024 84.0427 37.6959 83.8479 37.7131C75.7269 38.3624 67.768 38.5788 60.7634 38.5788Z" fill="white"/>
</g>
<defs>
<clipPath id="clip0">
<rect width="121" height="59" fill="white"/>
</clipPath>
</defs>
</svg>
