<svg width="116" height="114" viewBox="0 0 116 114" fill="none" xmlns="http://www.w3.org/2000/svg">
<g clip-path="url(#clip0)">
<path d="M104.286 75.3962L97.2837 56.7064L98.1334 55.8977C99.2926 54.795 100.229 53.4785 100.892 52.0201C101.555 50.5587 101.93 48.9825 101.996 47.3782C102.062 45.7153 101.795 44.056 101.212 42.498C100.631 40.9389 99.7417 39.5143 98.5969 38.3102C97.4998 37.1451 96.1881 36.2046 94.7345 35.5405C93.2784 34.8765 91.7085 34.5003 90.1106 34.4326L88.8857 34.3827L82.6616 17.7647L81.9001 15.7373C81.1056 13.6213 79.5551 11.0898 76.6748 11.0898C76.0042 11.0967 75.3404 11.2262 74.7161 11.472C72.5972 12.2697 72.062 13.9426 71.4054 16.0586C70.506 18.8782 69.1486 23.1379 63.3881 29.7575C54.9845 39.4181 42.9392 45.0572 39.452 46.5528C38.834 46.8187 38.4809 46.9572 38.4698 46.9627L35.2254 48.1869L23.1305 52.7513C14.6166 55.9642 9.50708 64.9378 11.51 73.8562C12.4248 77.8573 14.6619 81.4296 17.857 83.9915C21.0521 86.5534 25.0171 87.954 29.1062 87.9651C29.5807 87.9651 30.0552 87.965 30.5242 87.9096L43.8497 101.559L43.9048 101.608C44.3318 102.023 44.8362 102.349 45.3891 102.567C46.5539 103.018 47.8428 103.028 49.0143 102.594L54.1734 100.645C54.9093 100.38 55.5756 99.9511 56.1215 99.3896C56.6674 98.8281 57.0787 98.149 57.3241 97.404C57.6044 96.5126 57.6293 95.56 57.3961 94.6549C57.1629 93.7499 56.681 92.9289 56.0053 92.2857L46.6251 82.5752L47.9383 82.0767L52.187 80.4481C52.336 80.4038 52.9264 80.2265 53.8423 79.9717L54.8521 79.7224L55.8232 79.4843C56.6399 79.2793 57.4785 79.0688 58.4166 78.8527C62.9093 77.8381 67.4731 77.1715 72.0675 76.8586C72.9669 76.8199 73.8994 76.8032 74.8264 76.8032C76.8293 76.8032 78.8875 76.8918 80.9401 77.0802H81.0339H81.1277C89.8016 78.249 93.6199 80.5533 96.1471 82.0656C97.5817 82.9297 98.7128 83.6166 100.081 83.6166H100.352C100.819 83.5919 101.279 83.4927 101.714 83.323C102.658 83.023 103.484 82.4346 104.077 81.64C104.671 80.8454 105.002 79.8845 105.025 78.8915C105.004 77.6896 104.753 76.5028 104.286 75.3962Z" fill="#EA5B0D"/>
<path d="M76.6467 11.078C79.5269 11.078 81.0609 13.6094 81.872 15.7254L82.6334 17.7529L88.8575 34.371L90.0824 34.4208C91.6803 34.4884 93.2502 34.8646 94.7063 35.5287C96.1599 36.1927 97.4716 37.1333 98.5687 38.2983C99.7135 39.5024 100.603 40.9271 101.184 42.4861C101.767 44.0441 102.033 45.7034 101.968 47.3663C101.901 48.9706 101.527 50.5469 100.864 52.0082C100.201 53.4667 99.2644 54.7832 98.1052 55.8858L97.2555 56.6945L104.258 75.3843C104.707 76.502 104.938 77.6964 104.936 78.9019C104.913 79.8948 104.582 80.8557 103.988 81.6503C103.395 82.4449 102.569 83.0333 101.626 83.3333C101.19 83.5031 100.73 83.6022 100.263 83.6269H99.9923C98.6239 83.6269 97.4927 82.94 96.0581 82.0759C93.531 80.547 89.7127 78.2427 81.0388 77.0905H80.945H80.8512C78.7986 76.9021 76.7404 76.8135 74.7375 76.8135C73.8105 76.8135 72.878 76.8136 71.9786 76.869C67.3841 77.1819 62.8204 77.8485 58.3276 78.863C57.4172 79.0791 56.5509 79.2896 55.7343 79.4946L54.7632 79.7328L53.7535 79.982C52.821 80.2368 52.2306 80.4141 52.0981 80.4585L47.8494 82.087L46.5362 82.5855L55.9164 92.296C56.5921 92.9392 57.0741 93.7602 57.3073 94.6652C57.5405 95.5703 57.5154 96.5229 57.2351 97.4144C56.9898 98.1593 56.5785 98.8384 56.0326 99.3999C55.4866 99.9614 54.8204 100.391 54.0845 100.655L48.9254 102.605C48.3643 102.816 47.77 102.925 47.1707 102.926C46.5315 102.923 45.898 102.804 45.3002 102.577C44.7473 102.359 44.2429 102.033 43.816 101.619L43.7607 101.569L30.4354 87.92C29.9664 87.9587 29.4918 87.9753 29.0173 87.9753C24.9282 87.9642 20.9632 86.5637 17.7681 84.0018C14.573 81.4399 12.3359 77.8676 11.4211 73.8665C9.41815 64.9648 14.5276 55.9745 23.0416 52.7617L35.1365 48.1972L38.3809 46.9731C38.3809 46.9731 38.7451 46.8289 39.3631 46.563C42.8503 45.0674 54.8956 39.4284 63.2992 29.7678C69.0597 23.1482 70.4171 18.8885 71.3165 16.0689C71.9896 13.9529 72.5249 12.28 74.6271 11.4823C75.2515 11.2365 75.9153 11.107 76.5859 11.1002L76.6467 11.078ZM76.5859 0.0214417C74.5874 0.0322495 72.6074 0.407641 70.7426 1.12931C63.6247 3.8159 61.71 9.82606 60.8106 12.7121C60.0823 15.0054 59.2492 17.6033 54.995 22.4945C47.9488 30.5931 37.1284 35.4954 35.0316 36.3928L34.4302 36.6476L31.263 37.8441L19.1625 42.4085C5.43434 47.5933 -2.52229 62.173 0.661458 76.3261C2.13639 82.8153 5.77241 88.6052 10.9687 92.7392C15.2107 96.1071 20.2981 98.2313 25.668 98.8768L35.8648 109.324C35.9862 109.451 36.1131 109.573 36.2455 109.695L36.2952 109.745C37.7896 111.165 39.5535 112.269 41.4819 112.991C43.3036 113.673 45.2319 114.024 47.1763 114.027C49.1024 114.027 51.0128 113.678 52.8154 112.997L57.969 111.047C60.279 110.183 62.3631 108.803 64.0637 107.011C65.7643 105.219 67.0368 103.063 67.7851 100.705C69.0407 96.6822 68.6639 92.3244 66.7367 88.5791C68.5741 88.3077 70.544 88.0751 72.5304 87.9588C73.2532 87.9255 73.9926 87.9144 74.7375 87.9144C76.3597 87.9144 78.0481 87.9864 79.7035 88.1304C86.0103 88.9945 88.3223 90.396 90.3693 91.6257C92.4164 92.8555 95.5615 94.7665 99.9923 94.7665C100.285 94.7665 100.577 94.7666 100.87 94.7389C102.485 94.6443 104.077 94.2986 105.587 93.7141C108.562 92.6374 111.145 90.6889 113.004 88.121C114.862 85.5532 115.909 82.4842 116.01 79.3118C116.077 76.6296 115.61 73.9611 114.636 71.4625L109.853 58.6943C110.257 57.9977 110.626 57.2802 110.956 56.5449C112.209 53.7852 112.913 50.8068 113.031 47.7762C113.162 44.6314 112.659 41.4923 111.552 38.5476C110.445 35.5981 108.756 32.9038 106.586 30.6264C104.507 28.4267 102.022 26.6526 99.2695 25.4027C98.5168 25.0603 97.7469 24.7571 96.9631 24.4943L92.9627 13.8144L92.2012 11.787C89.4423 4.38091 83.6101 -0.0395508 76.6467 -0.0395508L76.5859 0.0214417Z" fill="white"/>
<path d="M104.286 75.3962L97.2837 56.7064L98.1334 55.8977C99.2926 54.795 100.229 53.4785 100.892 52.0201C101.555 50.5587 101.93 48.9825 101.996 47.3782C102.062 45.7153 101.795 44.056 101.212 42.498C100.631 40.9389 99.7417 39.5143 98.5969 38.3102C97.4998 37.1451 96.1881 36.2046 94.7345 35.5405C93.2784 34.8765 91.7085 34.5003 90.1106 34.4326L88.8857 34.3827L82.6616 17.7647L81.9001 15.7373C81.1056 13.6213 79.5551 11.0898 76.6748 11.0898C76.0042 11.0967 75.3404 11.2262 74.7161 11.472C72.5972 12.2697 72.062 13.9426 71.4054 16.0586C70.506 18.8782 69.1486 23.1379 63.3881 29.7575C54.9845 39.4181 42.9392 45.0572 39.452 46.5528C38.834 46.8187 38.4809 46.9572 38.4698 46.9627L35.2254 48.1869L23.1305 52.7513C14.6166 55.9642 9.50708 64.9378 11.51 73.8562C12.4248 77.8573 14.6619 81.4296 17.857 83.9915C21.0521 86.5534 25.0171 87.954 29.1062 87.9651C29.5807 87.9651 30.0552 87.965 30.5242 87.9096L43.8497 101.559L43.9048 101.608C44.3318 102.023 44.8362 102.349 45.3891 102.567C46.5539 103.018 47.8428 103.028 49.0143 102.594L54.1734 100.645C54.9093 100.38 55.5756 99.9511 56.1215 99.3896C56.6674 98.8281 57.0787 98.149 57.3241 97.404C57.6044 96.5126 57.6293 95.56 57.3961 94.6549C57.1629 93.7499 56.681 92.9289 56.0053 92.2857L46.6251 82.5752L47.9383 82.0767L52.187 80.4481C52.336 80.4038 52.9264 80.2265 53.8423 79.9717L54.8521 79.7224L55.8232 79.4843C56.6399 79.2793 57.4785 79.0688 58.4166 78.8527C62.9093 77.8381 67.4731 77.1715 72.0675 76.8586C72.9669 76.8199 73.8994 76.8032 74.8264 76.8032C76.8293 76.8032 78.8875 76.8918 80.9401 77.0802H81.0339H81.1277C89.8016 78.249 93.6199 80.5533 96.1471 82.0656C97.5817 82.9297 98.7128 83.6166 100.081 83.6166H100.352C100.819 83.5919 101.279 83.4927 101.714 83.323C102.658 83.023 103.484 82.4346 104.077 81.64C104.671 80.8454 105.002 79.8845 105.025 78.8915C105.004 77.6896 104.753 76.5028 104.286 75.3962Z" fill="white"/>
<path d="M76.6473 11.0787C79.5276 11.0787 81.0615 13.6102 81.8726 15.7262L82.6341 17.7537L88.8581 34.3718L90.083 34.4215C91.6809 34.4892 93.2508 34.8654 94.7069 35.5294C96.1606 36.1935 97.4722 37.134 98.5694 38.2991C99.7142 39.5032 100.604 40.9278 101.185 42.4869C101.768 44.0448 102.034 45.7042 101.968 47.3671C101.902 48.9714 101.527 50.5476 100.865 52.009C100.202 53.4674 99.265 54.7839 98.1058 55.8866L97.2561 56.6953L104.258 75.3851C104.708 76.5028 104.938 77.6972 104.937 78.9026C104.914 79.8956 104.583 80.8565 103.989 81.6511C103.395 82.4456 102.569 83.0341 101.626 83.3341C101.19 83.5038 100.73 83.6029 100.263 83.6277H99.9929C98.6245 83.6277 97.4934 82.9408 96.0588 82.0767C93.5316 80.5478 89.7133 78.2434 81.0394 77.0912H80.9456H80.8518C78.7992 76.9029 76.7411 76.8143 74.7381 76.8143C73.8111 76.8143 72.8786 76.8143 71.9792 76.8697C67.3848 77.1826 62.821 77.8492 58.3283 78.8638C57.4179 79.0798 56.5516 79.2904 55.735 79.4954L54.7638 79.7335L53.7541 79.9828C52.8216 80.2376 52.2312 80.4149 52.0988 80.4592L47.85 82.0878L46.5368 82.5862L55.917 92.2968C56.5927 92.94 57.0747 93.7609 57.3079 94.666C57.5411 95.571 57.5161 96.5237 57.2358 97.4151C56.9904 98.1601 56.5791 98.8392 56.0332 99.4007C55.4873 99.9622 54.8211 100.391 54.0852 100.656L48.9261 102.606C48.365 102.817 47.7707 102.926 47.1714 102.927C46.5321 102.923 45.8986 102.805 45.3008 102.578C44.748 102.36 44.2435 102.034 43.8166 101.62L43.7614 101.57L30.436 87.9207C29.967 87.9595 29.4924 87.976 29.0179 87.976C24.9288 87.965 20.9638 86.5645 17.7687 84.0026C14.5736 81.4407 12.3365 77.8684 11.4217 73.8673C9.41879 64.9655 14.5283 55.9752 23.0422 52.7624L35.1371 48.198L38.3815 46.9738C38.3815 46.9738 38.7457 46.8297 39.3637 46.5638C42.8509 45.0681 54.8962 39.4292 63.2998 29.7685C69.0603 23.149 70.4177 18.8892 71.3171 16.0697C71.9903 13.9537 72.5255 12.2808 74.6278 11.4831C75.2522 11.2372 75.9159 11.1078 76.5865 11.1009L76.6473 11.0787ZM76.5865 6.66943C75.3848 6.67832 74.1944 6.90343 73.0717 7.33413C68.9555 8.89069 67.8795 12.2585 67.096 14.718C66.2628 17.3381 65.1207 20.9277 59.9616 26.8548C52.1705 35.8064 40.8867 41.0854 37.6091 42.4924C37.1511 42.6918 36.8587 42.8026 36.787 42.8302L33.5701 44.049L21.4752 48.6134C10.8204 52.635 4.64043 63.9131 7.10135 74.8478C8.23887 79.757 10.9708 84.1468 14.8667 87.3259C18.7627 90.505 23.6013 92.2927 28.6206 92.4075L40.5886 104.672L40.7376 104.816L40.7873 104.866C41.6443 105.681 42.653 106.319 43.7558 106.743C44.8433 107.15 45.9942 107.36 47.1548 107.364C48.2855 107.364 49.4069 107.159 50.4655 106.76L55.619 104.81C56.9857 104.305 58.2197 103.493 59.2274 102.437C60.2351 101.382 60.99 100.109 61.4348 98.7169C61.9523 97.0535 61.9999 95.2785 61.5722 93.5895C61.1445 91.9005 60.2584 90.3638 59.0125 89.1504L54.3996 84.3865L54.83 84.2702L55.7901 84.0321L56.7613 83.7939C57.5613 83.5945 58.4166 83.3839 59.2828 83.179C63.525 82.2198 67.8341 81.5884 72.1723 81.2901C73.0055 81.2569 73.8608 81.2402 74.7106 81.2402C76.5645 81.2402 78.4682 81.3233 80.3718 81.495H80.46C88.1849 82.5475 91.4073 84.4807 93.7524 85.8988C95.4519 86.9235 97.372 88.1145 99.9654 88.1145C100.135 88.1145 100.306 88.1145 100.479 88.1145C101.394 88.0686 102.296 87.8818 103.155 87.5606C104.908 86.9486 106.435 85.8154 107.532 84.3115C108.629 82.8075 109.244 81.0041 109.296 79.1408C109.333 77.3436 109.009 75.5575 108.341 73.8895L102.332 57.8531C103.343 56.6553 104.182 55.3224 104.827 53.8925C105.728 51.9128 106.234 49.7748 106.316 47.5997C106.411 45.3436 106.049 43.0916 105.251 40.9802C104.467 38.8638 103.262 36.93 101.709 35.2968C100.219 33.716 98.437 32.4422 96.4616 31.5466C95.0176 30.8851 93.4864 30.4356 91.9149 30.2117L86.6841 16.2469L85.9282 14.2195C84.1404 9.43905 80.7249 6.69702 76.548 6.69702L76.5865 6.66943Z" fill="#EA5B0D"/>
<path d="M75.1355 12.635C71.411 14.042 74.4568 18.8945 64.2986 30.5715C55.7129 40.4371 43.4966 46.1592 39.91 47.6992C39.2479 47.9817 38.8837 48.1201 38.8837 48.1201L35.6337 49.3499L23.1636 54.0583C21.0985 54.8364 19.2064 56.0156 17.5955 57.5283C15.9845 59.0409 14.6863 60.8574 13.7752 62.8741C12.864 64.8908 12.3578 67.0681 12.2853 69.2813C12.2129 71.4945 12.5757 73.7003 13.353 75.7727C14.6698 79.2873 17.1174 82.26 20.3079 84.2197C23.4984 86.1794 27.2492 87.0139 30.9657 86.591L44.705 100.672C45.2146 101.147 45.8462 101.47 46.5286 101.604C47.2109 101.738 47.9171 101.678 48.5674 101.431L53.8755 99.4258C54.4686 99.2015 54.9952 98.8294 55.4056 98.3445C55.816 97.8597 56.0968 97.278 56.2215 96.6542C56.3462 96.0303 56.3108 95.3849 56.1185 94.7786C55.9263 94.1723 55.5835 93.6251 55.1225 93.1884L44.3408 82.082L47.4418 80.9131L51.7236 79.2513C51.7236 79.2513 68.321 74.0998 81.2491 75.8447C96.5554 77.9053 97.4493 83.572 101.174 82.165C104.898 80.758 103.431 76.8362 103.05 75.8225L92.1467 46.7076L91.5949 45.2563L80.6918 16.147C80.3332 15.1554 78.86 11.228 75.1355 12.635Z" fill="#0E4D9F"/>
<path d="M76.6583 12.3364C79.2737 12.3364 80.3884 15.3054 80.7139 16.1696L91.617 45.2789L92.1688 46.7302L103.072 75.8451C103.453 76.8588 104.926 80.7862 101.196 82.1932C100.844 82.3312 100.47 82.4063 100.092 82.4148C97.1348 82.4148 94.9497 77.7063 81.2988 75.8673C79.3814 75.6175 77.4495 75.4972 75.5161 75.5071C63.9288 75.5071 51.7897 79.2739 51.7897 79.2739L47.508 80.9357L44.3408 82.0824L55.1004 93.1888C55.5614 93.6255 55.9042 94.1727 56.0965 94.779C56.2887 95.3853 56.3242 96.0307 56.1994 96.6546C56.0747 97.2784 55.7939 97.8601 55.3835 98.3449C54.9731 98.8298 54.4465 99.2019 53.8534 99.4262L48.5453 101.431C48.1253 101.589 47.6805 101.67 47.2321 101.67C46.2914 101.668 45.3856 101.313 44.6939 100.673L30.9547 86.5914C30.3264 86.664 29.6945 86.7011 29.0621 86.7023C25.6457 86.7011 22.3109 85.6544 19.5023 83.7017C16.6936 81.7491 14.5447 78.9833 13.3419 75.7731C12.5646 73.7008 12.2019 71.4949 12.2743 69.2817C12.3468 67.0685 12.853 64.8912 13.7642 62.8745C14.6753 60.8578 15.9735 59.0414 17.5844 57.5287C19.1953 56.016 21.0874 54.8368 23.1525 54.0587L35.6227 49.3503L38.8726 48.1206C38.8726 48.1206 39.2368 47.9821 39.8989 47.6996C43.4855 46.1596 55.7019 40.4375 64.2875 30.5719C74.4457 18.8949 71.3999 14.0424 75.1244 12.6354C75.6097 12.4436 76.1258 12.3424 76.6473 12.3364H76.6583ZM76.6473 11.2285C75.9937 11.234 75.3465 11.3598 74.7381 11.5996C72.6855 12.3751 72.1613 14.0148 71.4992 16.0921C70.5998 18.9227 69.2369 23.2045 63.4543 29.8407C55.0287 39.529 42.9613 45.1792 39.4631 46.6804L38.4754 47.0903L35.2365 48.3145L22.7608 53.0174C20.5561 53.844 18.5369 55.1022 16.8205 56.7187C15.1041 58.3353 13.7248 60.2781 12.7626 62.4343C11.7854 64.5812 11.2423 66.9013 11.1646 69.2603C11.0869 71.6194 11.4763 73.9706 12.3101 76.1775C13.6027 79.59 15.8958 82.5285 18.8866 84.6054C21.8775 86.6823 25.4255 87.7998 29.0621 87.8101C29.5532 87.8101 30.0442 87.8101 30.5353 87.7492L43.9048 101.448L43.9435 101.481C44.8422 102.321 46.0264 102.785 47.2542 102.778C47.8346 102.778 48.4103 102.672 48.9536 102.467L54.2672 100.462C55.0366 100.174 55.7197 99.6931 56.251 99.0647C56.7823 98.4362 57.1442 97.6814 57.302 96.8725C57.4653 96.0687 57.4219 95.2365 57.1757 94.4543C56.9295 93.6721 56.4887 92.9658 55.8949 92.4022L46.3271 82.5256L47.8556 81.9716L52.1042 80.3431C52.805 80.1271 64.4861 76.6372 75.4885 76.6372C77.3739 76.6283 79.2578 76.7449 81.1277 76.9862C89.8348 78.1606 93.6641 80.4761 96.2022 82.0105C97.6203 82.8635 98.7349 83.5447 100.065 83.5447C100.586 83.5392 101.102 83.4398 101.588 83.2513C103.017 82.6973 106.129 80.8693 104.109 75.4962L93.2006 46.3868L92.6488 44.9354L81.7457 15.8261C80.9677 13.7488 79.4558 11.2727 76.6583 11.2727L76.6473 11.2285Z" fill="white"/>
<path d="M21.0889 62.0792C21.2515 61.7057 21.2717 61.2854 21.1457 60.8979C21.0197 60.5104 20.7561 60.1829 20.4053 59.9777C20.0545 59.7726 19.6408 59.7041 19.2429 59.7852C18.845 59.8662 18.4907 60.0912 18.2472 60.4174C16.5106 62.3141 15.333 64.658 14.8459 67.1874C14.3587 69.7169 14.5811 72.3324 15.4884 74.7423C16.9837 78.7361 19.8474 81.9434 23.5609 83.2839C23.9224 83.4411 24.3279 83.4638 24.7046 83.3477C25.0812 83.2317 25.4042 82.9846 25.6157 82.6509C25.8271 82.3171 25.913 81.9187 25.858 81.527C25.803 81.1354 25.6106 80.7762 25.3155 80.5142C23.0085 78.1173 21.3959 75.1345 20.6512 71.8863C19.9065 68.6381 20.0578 65.2475 21.0889 62.0792Z" fill="#133C68"/>
<path d="M38.8947 48.1537L35.6448 49.3835L47.4197 80.8249L50.6696 79.5951V79.5563C50.6696 79.5563 51.0393 79.4123 51.718 79.1852L39.9266 47.7383C39.2644 48.0152 38.8947 48.1537 38.8947 48.1537Z" fill="#3C7ABC"/>
<path d="M54.5266 78.5149C60.5133 77.0414 68.9666 74.7038 81.3209 75.8615C96.6271 77.9277 97.521 83.6166 101.245 82.1874C104.97 80.7583 103.502 76.853 103.122 75.8393L92.2184 46.73L91.6667 45.2787C89.8293 40.3709 87.6166 34.7539 80.8628 16.7178C84.6204 37.0805 87.9642 55.8478 54.5266 78.5149Z" fill="#133C68"/>
<path d="M44.0483 86.6577L37.0298 89.3055C36.9248 89.3471 36.8127 89.3671 36.6999 89.3644C36.5871 89.3618 36.476 89.3365 36.3731 89.2901C36.2702 89.2436 36.1777 89.177 36.1009 89.094C36.0242 89.011 35.9648 88.9133 35.9262 88.8069C35.8855 88.7015 35.8662 88.5891 35.8692 88.4761C35.8722 88.3631 35.8974 88.2517 35.9437 88.1487C35.9899 88.0456 36.0561 87.9528 36.1383 87.8756C36.2206 87.7984 36.3173 87.7383 36.4228 87.699L43.4359 85.0513C43.5409 85.0105 43.6529 84.9909 43.7655 84.994C43.878 84.997 43.9888 85.0224 44.0915 85.0687C44.1942 85.1151 44.2867 85.1816 44.3636 85.2642C44.4405 85.3467 44.5002 85.4438 44.5394 85.5498C44.5802 85.6548 44.5999 85.767 44.5973 85.8798C44.5947 85.9925 44.5698 86.1035 44.5241 86.2065C44.4785 86.3095 44.4129 86.4025 44.3312 86.48C44.2496 86.5574 44.1534 86.6178 44.0483 86.6577Z" fill="#3C7ABC"/>
<path d="M48.6778 91.2167L41.6647 93.8701C41.4517 93.9492 41.2162 93.9406 41.0095 93.8462C40.8028 93.7518 40.6417 93.5793 40.5611 93.3661C40.5205 93.2607 40.501 93.1481 40.504 93.0352C40.507 92.9222 40.5324 92.8108 40.5786 92.7077C40.6248 92.6047 40.6909 92.5119 40.7732 92.4347C40.8554 92.3575 40.9522 92.2976 41.0578 92.2582L48.0763 89.6104C48.1813 89.5695 48.2934 89.55 48.4059 89.553C48.5185 89.556 48.6293 89.5814 48.732 89.6278C48.8347 89.6742 48.9271 89.7407 49.004 89.8232C49.0809 89.9058 49.1407 90.0029 49.1799 90.1089C49.2212 90.2145 49.2409 90.3275 49.238 90.441C49.235 90.5545 49.2093 90.6662 49.1624 90.7695C49.1156 90.8728 49.0486 90.9657 48.9653 91.0426C48.882 91.1194 48.7843 91.1786 48.6778 91.2167Z" fill="#3C7ABC"/>
<path d="M53.0589 95.8749L46.0403 98.5228C45.9353 98.5636 45.8232 98.5831 45.7107 98.5801C45.5981 98.5771 45.4873 98.5517 45.3846 98.5053C45.2819 98.4589 45.1895 98.3925 45.1126 98.3099C45.0357 98.2273 44.9759 98.1303 44.9367 98.0243C44.896 97.9189 44.8767 97.8064 44.8797 97.6934C44.8826 97.5804 44.908 97.4692 44.9542 97.3661C45.0004 97.263 45.0666 97.1701 45.1488 97.0929C45.2311 97.0157 45.3278 96.9558 45.4333 96.9164L52.4464 94.2686C52.5514 94.2277 52.6635 94.2082 52.776 94.2112C52.8886 94.2142 52.9994 94.2398 53.1021 94.2862C53.2048 94.3325 53.2972 94.3989 53.3741 94.4814C53.451 94.564 53.5107 94.6611 53.5499 94.7671C53.5907 94.8721 53.6104 94.9843 53.6078 95.0971C53.6052 95.2098 53.5803 95.3209 53.5346 95.4239C53.489 95.5269 53.4234 95.6198 53.3417 95.6972C53.2601 95.7747 53.164 95.8351 53.0589 95.8749Z" fill="#3C7ABC"/>
<path d="M90.0499 35.6846C91.486 35.7403 92.8974 36.0772 94.2048 36.6761C95.5166 37.2709 96.7008 38.1156 97.692 39.1633C98.719 40.2471 99.5167 41.5285 100.037 42.9301C100.564 44.33 100.804 45.8221 100.743 47.3172C100.687 48.7605 100.351 50.1791 99.7557 51.4939C99.1618 52.8083 98.3205 53.9952 97.2782 54.9893L90.0499 35.6846Z" fill="#3C7ABC"/>
<path d="M90.0499 35.6846C91.486 35.7403 92.8974 36.0772 94.2048 36.6761C95.5166 37.2709 96.7008 38.1156 97.692 39.1633C98.719 40.2471 99.5167 41.5284 100.037 42.9301C100.564 44.33 100.804 45.822 100.743 47.3172C100.687 48.7605 100.351 50.179 99.7557 51.4939C99.1618 52.8083 98.3205 53.9952 97.2782 54.9893L90.0499 35.6846ZM88.4277 34.5103L89.0181 36.0723L96.2464 55.3826L96.8313 56.9447L98.0396 55.7925C99.1857 54.6998 100.11 53.3943 100.76 51.9482C101.422 50.5061 101.797 48.948 101.863 47.3616C101.931 45.7189 101.666 44.0796 101.085 42.5424C100.514 41.0008 99.6374 39.5912 98.5087 38.3988C97.4203 37.2483 96.1198 36.3209 94.6793 35.6679C93.2429 35.0034 91.6909 34.627 90.1106 34.5601L88.4553 34.4937L88.4277 34.5103Z" fill="white"/>
</g>
<defs>
<clipPath id="clip0">
<rect width="116" height="114" fill="white"/>
</clipPath>
</defs>
</svg>
