<svg width="91" height="101" viewBox="0 0 91 101" fill="none" xmlns="http://www.w3.org/2000/svg">
<path d="M45.4889 98.3006C39.1271 98.3006 30.8624 94.6622 22.8156 88.3196C14.6399 81.8648 8.50025 73.9186 5.97062 66.507C1.52487 53.4312 2.83637 19.7331 2.8586 19.4007C2.99031 16.6404 3.95886 13.9877 5.63285 11.8022C7.30683 9.61672 9.60533 8.00405 12.2169 7.1828C26.5989 2.69092 38.5091 2.69092 44.911 2.69092H46.058C52.4599 2.69092 64.3699 2.69092 78.7564 7.1828C81.3631 8.00761 83.6564 9.62121 85.3261 11.8055C86.9958 13.9898 87.9614 16.6394 88.0925 19.3962C88.2525 22.7651 88.4659 31.6859 88.1325 41.3525C87.7235 53.2605 86.692 61.4851 84.976 66.507C82.4508 73.9186 76.3113 81.8648 68.1355 88.3196C60.1154 94.6622 51.8508 98.3006 45.4889 98.3006Z" fill="#EA5B0D"/>
<path d="M46.0633 5.39026C52.3229 5.39026 63.9751 5.39025 77.9703 9.76085C80.0574 10.4181 81.8944 11.7071 83.2326 13.4537C84.5708 15.2003 85.3457 17.3201 85.4526 19.5262C85.6082 22.8547 85.8172 31.6857 85.4882 41.2579C85.0881 52.8964 84.1055 60.865 82.4784 65.6264C80.1133 72.5573 74.2938 80.0543 66.5138 86.1947C59.0449 92.0881 51.1848 95.6052 45.4898 95.6052C39.7948 95.6052 31.9347 92.0881 24.4658 86.1947C16.6858 80.0543 10.8662 72.5573 8.5011 65.6264C4.25097 53.1793 5.50914 19.8541 5.52692 19.5262C5.63376 17.3201 6.40875 15.2003 7.74697 13.4537C9.08519 11.7071 10.9221 10.4181 13.0091 9.76085C27.0088 5.39025 38.6567 5.39026 44.9163 5.39026H46.0633ZM46.0633 0H44.9163C38.3766 0 26.1997 4.28379e-06 11.4353 4.60868C8.29977 5.59264 5.53963 7.5271 3.52916 10.1498C1.51869 12.7726 0.355165 15.9566 0.196475 19.2701C0.196475 19.607 -1.18167 53.7993 3.45969 67.3828C6.14937 75.275 12.609 83.6792 21.1804 90.444C29.6851 97.1504 38.5189 100.995 45.4898 100.995C52.4607 100.995 61.2988 97.1504 69.7991 90.444C78.3705 83.6792 84.8301 75.275 87.5242 67.3828C89.347 62.0374 90.3963 53.7948 90.8186 41.4466C91.1565 31.6992 90.9431 22.6795 90.783 19.2701C90.6246 15.9572 89.4618 12.7736 87.4522 10.1509C85.4426 7.52826 82.6833 5.59341 79.5486 4.60868C64.7798 4.28379e-06 52.603 0 46.0633 0Z" fill="white"/>
<path d="M45.4978 94.1767C34.4946 94.1767 14.8532 79.8341 9.84731 65.1636C8.27352 60.5504 7.28662 52.3168 6.90873 40.6918C6.62421 31.9237 6.77974 23.2723 6.94868 19.58C7.04151 17.6679 7.71349 15.8307 8.87361 14.3171C10.0337 12.8035 11.626 11.6866 13.4351 11.1173C27.2169 6.80961 38.7403 6.80957 44.9243 6.80957H46.0712C52.2553 6.80957 63.7653 6.80961 77.5605 11.1173C79.3745 11.6875 80.9703 12.8091 82.1303 14.3292C83.2903 15.8493 83.9581 17.6939 84.0424 19.6114C84.198 22.9175 84.4025 31.6947 84.0779 41.2264C83.6867 52.5595 82.6998 60.6178 81.1438 65.1771C76.1379 79.8296 56.5011 94.1767 45.4978 94.1767Z" fill="white"/>
<path d="M46.0712 8.61979C52.1619 8.61979 63.4986 8.61975 77.0359 12.8466C78.4949 13.3061 79.7788 14.2075 80.714 15.4287C81.6491 16.6499 82.1903 18.132 82.2641 19.6743C82.4197 22.9623 82.6242 31.6811 82.2996 41.1455C81.9173 52.2988 80.966 60.1821 79.4633 64.5752C74.7552 78.3653 55.7319 92.3754 45.4978 92.3754C35.2637 92.3754 16.2359 78.3653 11.5323 64.5752C7.97565 54.1855 8.4202 26.0753 8.72696 19.6564C8.80111 18.1136 9.34297 16.631 10.279 15.4097C11.2149 14.1884 12.4998 13.2873 13.9596 12.8286C27.4969 8.60177 38.8559 8.60181 44.9243 8.60181H46.0712V8.61979ZM46.0712 5.0083H44.9243C38.6425 5.0083 26.959 5.00831 12.9149 9.39238C10.7568 10.0718 8.85736 11.4047 7.47377 13.2108C6.09018 15.0169 5.28921 17.2089 5.17926 19.4901C5.17926 19.818 3.90332 53.2152 8.17124 65.7295C10.5586 72.7234 16.4226 80.2788 24.256 86.4596C31.7871 92.4024 39.7272 95.9509 45.5023 95.9509C51.2773 95.9509 59.2173 92.4024 66.7484 86.4596C74.5818 80.2788 80.4414 72.7234 82.8288 65.7295C84.4648 60.9322 85.4561 52.9277 85.8562 41.2533C86.1897 31.6721 85.9808 22.8366 85.8252 19.4901C85.7134 17.2095 84.9116 15.0184 83.5283 13.2127C82.145 11.4069 80.2466 10.0735 78.0895 9.39238C64.0365 5.00831 52.3531 5.0083 46.0801 5.0083H46.0712Z" fill="#EA5B0D"/>
<path d="M45.5023 91.7874C35.4371 91.7874 16.7249 77.9793 12.0835 64.3869C8.56691 54.0825 9.01594 26.0891 9.31381 19.7106C9.38233 18.2897 9.88138 16.9245 10.7434 15.7997C11.6054 14.6748 12.7887 13.8448 14.133 13.422C27.5859 9.2221 38.8647 9.22217 44.9243 9.22217H46.0801C52.1352 9.22217 63.4185 9.2221 76.8669 13.422C78.2111 13.8457 79.3944 14.6759 80.2569 15.8004C81.1195 16.925 81.6199 18.2897 81.6906 19.7106C81.9885 26.0891 82.433 54.0825 78.9165 64.3869C74.2795 77.9793 55.563 91.7874 45.5023 91.7874Z" fill="#0E4D9F"/>
<path d="M46.0757 9.94503C52.6821 9.94503 63.4941 10.0034 76.6535 14.1135C77.8567 14.4898 78.9158 15.2316 79.6867 16.2379C80.4575 17.2443 80.9027 18.4662 80.9616 19.7374C81.3172 27.3736 81.6017 54.2574 78.2274 64.1441C73.7149 77.3682 55.2073 91.0505 45.5023 91.0505C35.7972 91.0505 17.2895 77.3682 12.7771 64.1441C9.40275 54.2619 9.6651 27.3825 10.043 19.7374C10.1005 18.4659 10.5452 17.2433 11.3163 16.2367C12.0873 15.2302 13.1471 14.4887 14.3509 14.1135C27.5103 10.0034 38.3224 9.94503 44.9288 9.94503H46.0757ZM46.0757 8.47168H44.9288C38.8292 8.47168 27.4792 8.47175 13.9197 12.7031C12.4312 13.1724 11.1212 14.0922 10.167 15.3383C9.21289 16.5843 8.66062 18.0963 8.58477 19.6699C8.42917 22.958 8.22463 31.6812 8.54917 41.1501C8.93595 52.3214 9.88285 60.2182 11.3944 64.6247C13.5639 70.9762 18.9922 77.9342 26.2921 83.7152C33.2541 89.2313 40.4341 92.5239 45.5023 92.5239C55.7808 92.5239 74.8842 78.4642 79.6056 64.6247C81.1127 60.2182 82.0685 52.3214 82.4508 41.1501C82.7754 31.6812 82.5708 22.958 82.4197 19.6699C82.3432 18.0965 81.7907 16.5848 80.8366 15.3389C79.8826 14.093 78.5729 13.173 77.0848 12.7031C63.5252 8.47175 52.1886 8.47168 46.0757 8.47168Z" fill="white"/>
<path d="M74.4129 71.4658C66.1127 83.9443 51.6684 91.0505 45.6356 91.0505C41.5721 91.0505 34.8546 89.1145 25.2829 80.9213C25.2829 80.9213 44.2885 73.4153 74.4129 71.4658Z" fill="#133C68"/>
<path d="M76.5602 14.1138C63.014 9.88249 51.9529 9.94536 45.4088 9.94536C38.8646 9.94536 27.8082 9.88249 14.2575 14.1138C13.0544 14.4901 11.9953 15.2319 11.2244 16.2383C10.4535 17.2446 10.0083 18.4666 9.94951 19.7377C9.78946 23.2279 9.84726 34.206 9.84726 34.206C37.362 17.0156 76.5602 14.1138 76.5602 14.1138Z" fill="#133C68"/>
<path d="M44.1596 58.4575C42.9953 58.4613 41.8418 58.2319 40.7658 57.7824C39.6898 57.3328 38.7127 56.6721 37.8911 55.8386L30.4978 48.3687C29.496 47.3667 28.9174 46.0115 28.8834 44.5877C28.8494 43.1638 29.3627 41.7821 30.3155 40.7325C30.8166 40.2019 31.4188 39.7791 32.0857 39.4897C32.7527 39.2002 33.4707 39.05 34.1966 39.048C34.9005 39.0454 35.5979 39.1842 36.2482 39.4564C36.8985 39.7287 37.4886 40.1289 37.9844 40.6337L44.1596 46.8729L57.7902 33.0963C58.2873 32.5935 58.8778 32.1949 59.5278 31.9235C60.1779 31.6522 60.8747 31.5134 61.578 31.5152C62.3047 31.5159 63.0237 31.6656 63.6916 31.9551C64.3594 32.2447 64.9623 32.668 65.4636 33.1996C66.4158 34.2498 66.9283 35.6319 66.8935 37.0558C66.8587 38.4796 66.2793 39.8344 65.2769 40.8358L50.4325 55.8342C49.6105 56.6688 48.6329 57.3304 47.5561 57.7807C46.4793 58.231 45.3249 58.461 44.1596 58.4575Z" fill="#EA5B0D"/>
<path d="M61.578 34.2057C61.9432 34.204 62.3049 34.278 62.6406 34.4233C62.9763 34.5686 63.2789 34.782 63.5297 35.0503C64.0071 35.59 64.2594 36.2953 64.2338 37.0188C64.2081 37.7422 63.9065 38.4275 63.3919 38.9312L48.5475 53.9296C47.9715 54.5119 47.2875 54.9736 46.5345 55.2881C45.7815 55.6026 44.9744 55.7637 44.1596 55.7623C43.3455 55.7636 42.5391 55.6024 41.7869 55.2879C41.0346 54.9734 40.3512 54.5117 39.7761 53.9296L32.3873 46.4641C31.872 45.9617 31.5698 45.277 31.5441 44.554C31.5183 43.8309 31.7712 43.126 32.2494 42.5875C32.4993 42.319 32.8011 42.1052 33.136 41.9592C33.4709 41.8131 33.8319 41.7381 34.1966 41.7386C34.5501 41.7372 34.9003 41.8067 35.227 41.9432C35.5536 42.0796 35.8502 42.2804 36.0994 42.5337L43.5683 50.0801C43.6458 50.1587 43.7379 50.2209 43.8394 50.2633C43.9409 50.3057 44.0498 50.3274 44.1596 50.3271C44.2701 50.3275 44.3795 50.306 44.4818 50.2636C44.584 50.2212 44.6769 50.1588 44.7553 50.0801L59.6797 35.0008C59.9284 34.748 60.2242 34.5476 60.5501 34.4111C60.8759 34.2747 61.2253 34.2049 61.578 34.2057ZM61.578 28.8155C60.5242 28.8121 59.4802 29.02 58.5065 29.4271C57.5327 29.8342 56.6486 30.4324 55.9053 31.1872L44.1596 43.0547L39.8739 38.7246C39.1292 37.9701 38.2443 37.3717 37.27 36.9639C36.2957 36.5561 35.2512 36.3469 34.1966 36.3484C33.1089 36.3507 32.0329 36.5756 31.0335 37.0094C30.0341 37.4433 29.132 38.0771 28.3817 38.8727C26.9532 40.4351 26.1792 42.4958 26.2223 44.6223C26.2654 46.7488 27.1222 48.7758 28.6129 50.2777L36.0016 57.7432C37.0714 58.8273 38.3431 59.6868 39.7433 60.2719C41.1435 60.8571 42.6444 61.1564 44.1596 61.1525C45.6749 61.1569 47.1759 60.8579 48.5762 60.2727C49.9764 59.6875 51.248 58.8277 52.3175 57.7432L67.1664 42.7403C68.657 41.2384 69.5137 39.2115 69.5568 37.085C69.5999 34.9585 68.8261 32.8978 67.3976 31.3355C66.6463 30.5401 65.7432 29.9067 64.743 29.4736C63.7428 29.0405 62.6662 28.8166 61.578 28.8155Z" fill="white"/>
</svg>
