<svg width="123" height="113" viewBox="0 0 123 113" fill="none" xmlns="http://www.w3.org/2000/svg">
<g clip-path="url(#clip0)">
<path d="M111.76 47.2442C111.68 47.081 111.553 46.9462 111.395 46.8583C111.236 46.7705 111.055 46.7338 110.875 46.7532L105.761 47.194C103.627 37.0076 98.064 27.8669 90.005 21.3055C81.946 14.7442 71.8815 11.1613 61.5 11.1582C49.51 11.1715 38.015 15.9529 29.5368 24.4532C21.0586 32.9536 16.2897 44.4786 16.2765 56.4999C16.2765 57.2141 16.2764 57.9673 16.3376 58.8042L11.3294 64.7403C11.2127 64.8794 11.1395 65.0499 11.1187 65.2304C11.098 65.411 11.1306 65.5937 11.2126 65.7558C11.2958 65.9169 11.4248 66.0496 11.5834 66.137C11.7419 66.2244 11.9228 66.2625 12.103 66.2467L17.2168 65.806C19.3496 75.9929 24.9124 85.1341 32.9716 91.6957C41.0308 98.2572 51.096 101.84 61.4777 101.842C73.4672 101.827 84.9614 97.0452 93.4393 88.5451C101.917 80.0451 106.687 68.5208 106.701 56.4999C106.701 55.7802 106.701 55.0215 106.634 54.1958L111.643 48.2539C111.761 48.1168 111.835 47.9472 111.856 47.7671C111.877 47.587 111.843 47.4049 111.76 47.2442Z" fill="#EA5B0D"/>
<path d="M61.5001 11.1578C71.8816 11.1609 81.9461 14.7437 90.0051 21.3051C98.0641 27.8665 103.627 37.0071 105.761 47.1935L110.875 46.7527H110.969C111.134 46.7535 111.295 46.8004 111.435 46.8881C111.575 46.9759 111.687 47.101 111.76 47.2494C111.844 47.4095 111.879 47.5912 111.859 47.7713C111.839 47.9514 111.766 48.1213 111.648 48.2591L106.64 54.2009C106.685 55.0267 106.707 55.7854 106.707 56.5051C106.692 68.5259 101.923 80.0503 93.4449 88.5503C84.9671 97.0503 73.4729 101.832 61.4834 101.847C51.1017 101.845 41.0365 98.2624 32.9773 91.7008C24.9181 85.1393 19.3553 75.998 17.2225 65.8112L12.1087 66.2518H12.0197C11.854 66.2517 11.6915 66.2059 11.5502 66.1193C11.4088 66.0327 11.294 65.9087 11.2183 65.7609C11.1362 65.5988 11.1036 65.4161 11.1244 65.2356C11.1452 65.055 11.2184 64.8846 11.3351 64.7455L16.3433 58.8093C16.2987 57.9725 16.2821 57.2192 16.2821 56.5051C16.2954 44.4838 21.0643 32.9587 29.5425 24.4584C38.0207 15.958 49.5157 11.1766 61.5057 11.1633L61.5001 11.1578ZM61.5057 0.00505104C46.8621 0.0208602 32.7983 5.74444 22.2866 15.9661C11.7749 26.1877 5.6388 40.1067 5.17519 54.7812L2.84352 57.5708C1.30393 59.3958 0.341123 61.6389 0.0775204 64.0146C-0.186082 66.3902 0.261501 68.7908 1.36338 70.9105C2.13441 72.4149 3.21358 73.7391 4.53016 74.7967C5.84673 75.8542 7.37104 76.6212 9.00358 77.0475C12.5514 86.1544 18.3908 94.185 25.9533 100.357C36.006 108.54 48.557 113.013 61.5057 113.027C76.1543 113.01 90.2216 107.28 100.732 97.05C111.243 86.8201 117.373 72.8922 117.825 58.2123L120.162 55.4227C121.701 53.5971 122.663 51.3536 122.925 48.978C123.188 46.6024 122.739 44.2022 121.637 42.0831C120.868 40.5782 119.79 39.2533 118.474 38.1956C117.158 37.1379 115.634 36.3713 114.002 35.946C110.452 26.8418 104.613 18.8135 97.0523 12.6419C86.9997 4.45888 74.4488 -0.014044 61.5001 -0.0283203L61.5057 0.00505104Z" fill="white"/>
<path d="M111.76 47.2442C111.68 47.081 111.553 46.9462 111.395 46.8583C111.236 46.7705 111.055 46.7338 110.875 46.7532L105.761 47.194C103.627 37.0076 98.064 27.8669 90.005 21.3055C81.946 14.7442 71.8815 11.1613 61.5 11.1582C49.51 11.1715 38.015 15.9529 29.5368 24.4532C21.0586 32.9536 16.2897 44.4786 16.2765 56.4999C16.2765 57.2141 16.2764 57.9673 16.3376 58.8042L11.3294 64.7403C11.2127 64.8794 11.1395 65.0499 11.1187 65.2304C11.098 65.411 11.1306 65.5937 11.2126 65.7558C11.2958 65.9169 11.4248 66.0496 11.5834 66.137C11.7419 66.2244 11.9228 66.2625 12.103 66.2467L17.2168 65.806C19.3496 75.9929 24.9124 85.1341 32.9716 91.6957C41.0308 98.2572 51.096 101.84 61.4777 101.842C73.4672 101.827 84.9614 97.0452 93.4393 88.5451C101.917 80.0451 106.687 68.5208 106.701 56.4999C106.701 55.7802 106.701 55.0215 106.634 54.1958L111.643 48.2539C111.761 48.1168 111.835 47.9472 111.856 47.7671C111.877 47.587 111.843 47.4049 111.76 47.2442Z" fill="white"/>
<path d="M61.5 11.1582C71.8815 11.1613 81.946 14.7442 90.005 21.3055C98.064 27.8669 103.627 37.0076 105.761 47.194L110.875 46.7532H110.969C111.134 46.754 111.295 46.8008 111.435 46.8886C111.575 46.9763 111.687 47.1015 111.76 47.2498C111.844 47.4099 111.879 47.5917 111.859 47.7718C111.839 47.9518 111.765 48.1218 111.648 48.2595L106.64 54.2014C106.685 55.0271 106.707 55.7858 106.707 56.5055C106.692 68.5263 101.923 80.0507 93.4448 88.5507C84.967 97.0507 73.4728 101.832 61.4833 101.847C51.1016 101.845 41.0364 98.2628 32.9772 91.7012C24.918 85.1397 19.3552 75.9985 17.2224 65.8116L12.1086 66.2523H12.0196C11.8539 66.2521 11.6914 66.2063 11.5501 66.1197C11.4087 66.0331 11.2939 65.9091 11.2182 65.7614C11.1361 65.5993 11.1035 65.4166 11.1243 65.236C11.1451 65.0554 11.2183 64.885 11.335 64.7459L16.3432 58.8098C16.2986 57.9729 16.282 57.2196 16.282 56.5055C16.2953 44.4842 21.0642 32.9591 29.5424 24.4588C38.0206 15.9585 49.5156 11.1771 61.5056 11.1638" fill="#EA5B0D"/>
<path d="M61.5 6.69482C48.3294 6.70812 35.702 11.9598 26.389 21.2972C17.0759 30.6345 11.8381 43.2948 11.8248 56.4999C11.8248 56.7453 11.8248 56.9909 11.8248 57.2419L7.9296 61.8671C7.24255 62.6792 6.81263 63.6784 6.69468 64.7367C6.57673 65.7951 6.77613 66.8646 7.26744 67.8088C7.7163 68.6842 8.39744 69.4183 9.23598 69.9303C10.0745 70.4422 11.0379 70.712 12.0196 70.7099C12.1809 70.7183 12.3424 70.7183 12.5037 70.7099L13.8336 70.5984C16.6781 80.2423 22.3633 88.7991 30.1435 95.1466C39.0074 102.355 50.0705 106.293 61.4833 106.305C74.6531 106.289 87.2788 101.036 96.5912 91.6994C105.904 82.3627 111.142 69.704 111.159 56.4999C111.159 56.2544 111.159 56.009 111.159 55.7523L115.054 51.1328C115.74 50.32 116.169 49.3207 116.286 48.2623C116.403 47.204 116.202 46.1346 115.71 45.1909C115.264 44.3153 114.585 43.5805 113.749 43.0676C112.912 42.5546 111.95 42.2835 110.969 42.2842C110.802 42.2842 110.63 42.2842 110.457 42.3121L109.15 42.4237C106.306 32.7795 100.621 24.2225 92.8399 17.8755C83.976 10.6675 72.9129 6.72857 61.5 6.71716V6.69482Z" fill="#EA5B0D"/>
<path d="M61.5 98.1709C84.4541 98.1709 103.062 79.5143 103.062 56.5002C103.062 33.4862 84.4541 14.8296 61.5 14.8296C38.5459 14.8296 19.938 33.4862 19.938 56.5002C19.938 79.5143 38.5459 98.1709 61.5 98.1709Z" fill="#133C68"/>
<path d="M90.831 26.3613C94.697 30.2256 97.7628 34.8181 99.8523 39.8745C101.942 44.931 103.014 50.3516 103.006 55.8248C103.014 61.2981 101.942 66.7189 99.8527 71.7754C97.7632 76.8318 94.6972 81.4242 90.831 85.2883C86.977 89.1646 82.3966 92.2386 77.3533 94.3336C72.31 96.4286 66.9033 97.5031 61.4443 97.4954C49.9701 97.4954 39.1859 93.8523 32.0576 85.2883C77.9934 72.5177 53.5037 34.6073 90.831 26.3613Z" fill="#0E4D9F"/>
<path d="M38.1064 64.1045L39.3529 64.8243C39.4874 64.9016 39.647 64.9228 39.797 64.8831C39.947 64.8434 40.0752 64.746 40.1541 64.6122C40.193 64.5448 40.2182 64.4704 40.2283 64.3933C40.2384 64.3161 40.2333 64.2377 40.2131 64.1625C40.1929 64.0874 40.1583 64.0169 40.1109 63.9552C40.0636 63.8936 40.0045 63.842 39.9372 63.8032L38.6907 63.0835C38.4367 63.3861 38.2388 63.732 38.1064 64.1045Z" fill="#133C68"/>
<path d="M39.9372 66.6095C40.0045 66.5708 40.0636 66.519 40.1109 66.4574C40.1583 66.3957 40.1929 66.3253 40.2131 66.2502C40.2333 66.175 40.2384 66.0966 40.2283 66.0194C40.2182 65.9423 40.193 65.8679 40.1541 65.8005C40.1185 65.7308 40.0687 65.6692 40.0078 65.6201C39.9469 65.5709 39.8764 65.5351 39.8008 65.5151C39.7252 65.4951 39.6462 65.4912 39.569 65.5039C39.4918 65.5165 39.4182 65.5454 39.3529 65.5885L38.1064 66.3082C38.2401 66.6802 38.4379 67.0258 38.6907 67.3292L39.9372 66.6095Z" fill="#133C68"/>
<path d="M40.0986 65.2036C40.0986 65.2746 40.1267 65.3427 40.1768 65.3929C40.2269 65.4432 40.2948 65.4714 40.3657 65.4714C40.4365 65.4714 40.5044 65.4432 40.5545 65.3929C40.6046 65.3427 40.6328 65.2746 40.6328 65.2036C40.6313 65.1336 40.6025 65.0668 40.5526 65.0178C40.5027 64.9688 40.4355 64.9414 40.3657 64.9414C40.2958 64.9414 40.2287 64.9688 40.1787 65.0178C40.1288 65.0668 40.1 65.1336 40.0986 65.2036Z" fill="#133C68"/>
<path d="M36.2979 60.0262C36.0107 59.4368 35.6678 58.8763 35.274 58.3525C34.7509 57.7945 33.6047 57.2366 32.1523 56.6787C32.1038 56.8607 32.0794 57.0483 32.0799 57.2366V62.9608L33.3821 64.8912C33.3821 64.8912 33.6659 65.0139 34.0721 65.1757C34.0757 64.211 34.2748 63.257 34.6575 62.3717C35.0401 61.4865 35.5982 60.6885 36.2979 60.0262Z" fill="#DFE0DA"/>
<path d="M92.4391 66.1242L88.3827 67.3294L78.8616 66.989L76.7971 66.3976H48.1895C48.1895 66.3976 47.11 67.6418 44.2609 67.6027C41.5421 67.4408 38.8349 67.1204 36.1532 66.6431C36.1532 66.6431 33.2095 64.2217 33.2095 63.7363V57.0972H92.9178L92.4391 66.1242Z" fill="#133C68"/>
<path d="M41.1836 71.1343C44.4474 71.1343 47.0932 68.4815 47.0932 65.2092C47.0932 61.9369 44.4474 59.2842 41.1836 59.2842C37.9198 59.2842 35.274 61.9369 35.274 65.2092C35.274 68.4815 37.9198 71.1343 41.1836 71.1343Z" fill="#696C6C"/>
<path d="M41.1836 69.1198C43.338 69.1198 45.0844 67.3688 45.0844 65.2088C45.0844 63.0489 43.338 61.2979 41.1836 61.2979C39.0293 61.2979 37.2828 63.0489 37.2828 65.2088C37.2828 67.3688 39.0293 69.1198 41.1836 69.1198Z" fill="#EBECE6"/>
<path d="M41.1669 69.4102C40.0546 69.4088 38.9883 68.965 38.2018 68.1765C37.4152 67.3879 36.9727 66.3188 36.9712 65.2036C36.9727 64.0888 37.4154 63.0202 38.202 62.2325C38.9887 61.4449 40.0551 61.0024 41.1669 61.0024C42.2787 61.0024 43.3451 61.4449 44.1318 62.2325C44.9185 63.0202 45.3612 64.0888 45.3627 65.2036C45.3612 66.3188 44.9186 67.3879 44.1321 68.1765C43.3456 68.965 42.2793 69.4088 41.1669 69.4102ZM41.1669 61.5994C40.2111 61.6009 39.2948 61.9823 38.6189 62.66C37.9429 63.3377 37.5626 64.2563 37.5611 65.2147C37.5655 66.1706 37.9473 67.0858 38.6231 67.7602C39.2988 68.4346 40.2135 68.8132 41.1669 68.8132C42.1233 68.8132 43.0404 68.4323 43.7167 67.7543C44.3929 67.0763 44.7728 66.1568 44.7728 65.198C44.7699 64.2406 44.3889 63.3232 43.7131 62.6468C43.0374 61.9703 42.1219 61.5897 41.1669 61.5883V61.5994Z" fill="#133C68"/>
<path d="M83.6471 70.6708C86.7696 70.6708 89.3008 68.133 89.3008 65.0024C89.3008 61.8718 86.7696 59.334 83.6471 59.334C80.5247 59.334 77.9935 61.8718 77.9935 65.0024C77.9935 68.133 80.5247 70.6708 83.6471 70.6708Z" fill="#133C68"/>
<path d="M84.7712 71.1343C88.035 71.1343 90.6808 68.4815 90.6808 65.2092C90.6808 61.9369 88.035 59.2842 84.7712 59.2842C81.5074 59.2842 78.8616 61.9369 78.8616 65.2092C78.8616 68.4815 81.5074 71.1343 84.7712 71.1343Z" fill="#696C6C"/>
<path d="M84.7712 69.1198C86.9255 69.1198 88.672 67.3688 88.672 65.2088C88.672 63.0489 86.9255 61.2979 84.7712 61.2979C82.6168 61.2979 80.8704 63.0489 80.8704 65.2088C80.8704 67.3688 82.6168 69.1198 84.7712 69.1198Z" fill="#EBECE6"/>
<path d="M84.7712 69.4102C83.6589 69.4088 82.5925 68.965 81.8059 68.1765C81.0194 67.3879 80.577 66.3188 80.5755 65.2036C80.577 64.0888 81.0197 63.0202 81.8064 62.2325C82.593 61.4449 83.6594 61.0024 84.7712 61.0024C85.8821 61.0039 86.947 61.4471 87.7325 62.2346C88.5179 63.0221 88.9598 64.0898 88.9613 65.2036C88.9613 66.3183 88.52 67.3874 87.7344 68.1762C86.9487 68.9649 85.883 69.4088 84.7712 69.4102ZM84.7712 61.5994C83.8149 61.5994 82.8976 61.9803 82.2214 62.6583C81.5452 63.3363 81.1653 64.2559 81.1653 65.2147C81.1653 66.1736 81.5452 67.0931 82.2214 67.7711C82.8976 68.4491 83.8149 68.83 84.7712 68.83C85.7276 68.83 86.6447 68.4491 87.321 67.7711C87.9972 67.0931 88.3771 66.1736 88.3771 65.2147C88.3778 64.7392 88.2851 64.2682 88.1043 63.8287C87.9235 63.3891 87.6581 62.9895 87.3233 62.6528C86.9884 62.316 86.5906 62.0487 86.1527 61.866C85.7149 61.6834 85.2455 61.589 84.7712 61.5883V61.5994Z" fill="#133C68"/>
<path d="M84.7712 64.0154C84.9218 64.0068 85.0634 63.9408 85.1669 63.8308C85.2703 63.7208 85.3279 63.5753 85.3277 63.4241V61.9846C85.1445 61.948 84.9581 61.9293 84.7712 61.9288C84.5733 61.9274 84.3756 61.9462 84.1814 61.9846V63.4241C84.1828 63.5805 84.2454 63.73 84.3557 63.8406C84.466 63.9512 84.6153 64.0139 84.7712 64.0154Z" fill="#133C68"/>
<path d="M85.8007 64.6122C85.8796 64.746 86.008 64.8434 86.158 64.8831C86.3079 64.9228 86.4674 64.9016 86.6019 64.8243L87.8484 64.1045C87.7162 63.7307 87.5163 63.3845 87.2586 63.0835L86.0122 63.8032C85.8783 63.8834 85.7811 64.013 85.7416 64.1643C85.702 64.3156 85.7232 64.4764 85.8007 64.6122Z" fill="#133C68"/>
<path d="M81.6884 64.1045L82.9349 64.8243C83.0703 64.9019 83.2306 64.9232 83.3814 64.8835C83.5323 64.8439 83.6617 64.7464 83.7417 64.6122C83.8187 64.4758 83.8391 64.3145 83.7985 64.1631C83.7579 64.0117 83.6596 63.8825 83.5248 63.8032L82.2782 63.0835C82.0244 63.3873 81.825 63.7327 81.6884 64.1045Z" fill="#133C68"/>
<path d="M87.8484 66.3082L86.6019 65.5885C86.5366 65.5454 86.463 65.5165 86.3858 65.5039C86.3086 65.4912 86.2298 65.4951 86.1542 65.5151C86.0785 65.5351 86.008 65.5709 85.9471 65.6201C85.8862 65.6692 85.8363 65.7308 85.8007 65.8005C85.7232 65.9363 85.702 66.097 85.7416 66.2483C85.7811 66.3996 85.8783 66.5293 86.0122 66.6095L87.2586 67.3292C87.5152 67.0274 87.7149 66.6815 87.8484 66.3082Z" fill="#133C68"/>
<path d="M85.3554 68.4283V66.9889C85.3557 66.8377 85.2982 66.6922 85.1947 66.5822C85.0912 66.4722 84.9495 66.406 84.799 66.3975C84.643 66.3989 84.4938 66.4618 84.3835 66.5724C84.2732 66.6829 84.2107 66.8325 84.2092 66.9889V68.4283C84.4038 68.464 84.6011 68.4826 84.799 68.4841C84.9857 68.4811 85.1718 68.4625 85.3554 68.4283Z" fill="#133C68"/>
<path d="M83.5248 66.6092C83.6596 66.5299 83.7579 66.4006 83.7985 66.2492C83.8391 66.0979 83.8187 65.9367 83.7417 65.8003C83.6628 65.6649 83.5334 65.5664 83.3821 65.5266C83.2308 65.4869 83.0699 65.509 82.9349 65.5882L81.6884 66.3079C81.8263 66.6792 82.0256 67.0244 82.2782 67.329L83.5248 66.6092Z" fill="#133C68"/>
<path d="M84.7712 64.6567C84.9187 64.6567 85.0383 64.5368 85.0383 64.3889C85.0383 64.241 84.9187 64.1211 84.7712 64.1211C84.6237 64.1211 84.5041 64.241 84.5041 64.3889C84.5041 64.5368 84.6237 64.6567 84.7712 64.6567Z" fill="#133C68"/>
<path d="M83.686 65.2036C83.686 65.2746 83.7142 65.3427 83.7643 65.3929C83.8144 65.4432 83.8823 65.4714 83.9531 65.4714C84.024 65.4714 84.092 65.4432 84.1421 65.3929C84.1922 65.3427 84.2204 65.2746 84.2204 65.2036C84.2189 65.1336 84.19 65.0668 84.1401 65.0178C84.0901 64.9688 84.023 64.9414 83.9531 64.9414C83.8832 64.9414 83.8161 64.9688 83.7662 65.0178C83.7163 65.0668 83.6875 65.1336 83.686 65.2036Z" fill="#133C68"/>
<path d="M84.7712 66.2968C84.9187 66.2968 85.0383 66.1769 85.0383 66.029C85.0383 65.8811 84.9187 65.7612 84.7712 65.7612C84.6237 65.7612 84.5041 65.8811 84.5041 66.029C84.5041 66.1769 84.6237 66.2968 84.7712 66.2968Z" fill="#133C68"/>
<path d="M85.8508 65.2037C85.8508 65.1341 85.8232 65.0675 85.7742 65.0183C85.7251 64.9691 85.6586 64.9415 85.5893 64.9415C85.5545 64.9407 85.5198 64.9469 85.4874 64.9597C85.455 64.9726 85.4256 64.9918 85.4007 65.0162C85.3758 65.0407 85.3561 65.0699 85.3426 65.1021C85.3291 65.1342 85.3222 65.1688 85.3222 65.2037C85.3214 65.239 85.3278 65.2742 85.3409 65.307C85.3541 65.3399 85.3737 65.3697 85.3987 65.3948C85.4236 65.4198 85.4534 65.4395 85.4862 65.4527C85.5189 65.4658 85.554 65.4722 85.5893 65.4715C85.6241 65.4715 85.6585 65.4645 85.6906 65.451C85.7227 65.4375 85.7519 65.4177 85.7762 65.3927C85.8006 65.3678 85.8197 65.3381 85.8325 65.3057C85.8453 65.2732 85.8515 65.2386 85.8508 65.2037Z" fill="#133C68"/>
<path d="M94.3312 56.3494C90.9646 52.7285 82.4785 51.2892 82.4785 51.2892C82.4785 51.2892 71.75 44.159 68.8286 43.1827C65.9071 42.2063 41.1112 41.8603 39.1692 42.8367C37.2271 43.813 39.3807 44.2817 38.8298 45.1354C38.2789 45.989 34.0721 50.4299 33.5546 55.1443C33.2948 55.3147 33.0457 55.501 32.8089 55.7022C32.5808 55.8933 32.3973 56.1321 32.2713 56.4021C32.1454 56.672 32.08 56.9664 32.0799 57.2644V62.9886L33.3821 64.919C33.3821 64.919 33.6659 65.0417 34.0721 65.2035C34.0765 63.3154 34.8276 61.506 36.1608 60.1725C37.494 58.8389 39.3004 58.0901 41.1836 58.0901C43.0698 58.0901 44.8786 58.8413 46.2123 60.1785C47.546 61.5156 48.2952 63.3292 48.2952 65.2203C48.2939 65.6279 48.2586 66.0347 48.1895 66.4365H77.7653C77.6936 66.0351 77.6582 65.6281 77.6597 65.2203C77.6597 63.3292 78.4089 61.5156 79.7426 60.1785C81.0763 58.8413 82.8851 58.0901 84.7712 58.0901C85.7051 58.0901 86.6299 58.2746 87.4927 58.6329C88.3555 58.9912 89.1394 59.5164 89.7998 60.1785C90.4601 60.8406 90.984 61.6265 91.3414 62.4916C91.6988 63.3567 91.8827 64.2839 91.8827 65.2203C91.8811 65.5618 91.857 65.9028 91.8104 66.2412L94.7485 65.7782C94.7485 65.7782 97.7033 59.9758 94.3312 56.3494Z" fill="#0E4D9F"/>
<path d="M47.6441 56.7122C46.4978 57.1529 51.1555 60.5003 50.6213 63.7362H77.81C78.1237 62.2479 78.9036 60.8992 80.0358 59.8867C75.5396 58.6537 56.4473 54.7985 47.6441 56.7122Z" fill="#133C68"/>
<path d="M74.2541 63.0835H53.359C53.2737 63.0835 53.1894 63.1005 53.1107 63.1333C53.0321 63.1662 52.9606 63.2143 52.9006 63.275C52.8406 63.3357 52.7932 63.4078 52.7611 63.4869C52.7289 63.5661 52.7128 63.6508 52.7135 63.7362C52.7135 63.9084 52.7813 64.0737 52.9022 64.1959C53.0231 64.3182 53.1872 64.3876 53.359 64.3891H74.2541C74.4267 64.3891 74.5924 64.3202 74.7145 64.1978C74.8366 64.0754 74.9051 63.9093 74.9051 63.7362C74.9051 63.6505 74.8884 63.5656 74.8556 63.4864C74.8229 63.4072 74.7749 63.3353 74.7145 63.2747C74.654 63.2141 74.5822 63.166 74.5032 63.1332C74.4242 63.1004 74.3396 63.0835 74.2541 63.0835Z" fill="#3C7ABC"/>
<path d="M74.3931 65.3822H57.588C57.1645 65.3818 56.7554 65.227 56.4371 64.9469C56.1187 64.6667 55.9127 64.2802 55.8574 63.8591L54.6833 54.6367C54.6727 54.6041 54.6727 54.5688 54.6833 54.5362L56.0355 51.8472L56.3471 52.0034L55.0227 54.6479L56.1913 63.8144C56.2357 64.1502 56.4 64.4584 56.6538 64.6821C56.9075 64.9057 57.2335 65.0295 57.5713 65.0306H74.3764C74.6834 65.0301 74.9818 64.9282 75.2252 64.7406C75.4687 64.5531 75.6436 64.2903 75.7231 63.993C76.8361 59.764 77.4426 56.9297 77.3535 56.2267C77.26 55.4639 76.9335 54.7488 76.4187 54.1792L76.6691 53.9282C77.2351 54.5475 77.5965 55.3268 77.704 56.1598C77.832 57.1808 76.7302 61.5492 76.0347 64.0654C75.9414 64.4342 75.7308 64.7624 75.4345 65.0001C75.1381 65.2378 74.7725 65.372 74.3931 65.3822Z" fill="#0B3460"/>
<path d="M95.917 61.5103C93.6911 62.0124 91.0813 62.5703 93.2682 65.9736L94.7485 65.7449C95.3815 64.4125 95.777 62.9793 95.917 61.5103Z" fill="#133C68"/>
<path d="M77.7654 66.7097H48.1895C48.1474 66.7103 48.1056 66.7016 48.0671 66.6843C48.0287 66.6669 47.9944 66.6413 47.9669 66.6094C47.9387 66.5769 47.9181 66.5385 47.9066 66.497C47.895 66.4555 47.8928 66.4119 47.9002 66.3695C47.9664 65.9844 47.9999 65.5942 48.0003 65.2034C47.9974 63.3917 47.2783 61.655 46.0005 60.374C44.7228 59.0929 42.9906 58.3719 41.1837 58.369C39.3796 58.3719 37.6499 59.0905 36.3726 60.368C35.0954 61.6454 34.3744 63.3779 34.367 65.1867C34.3668 65.2348 34.3551 65.2823 34.3328 65.325C34.3105 65.3678 34.2784 65.4044 34.239 65.4321C34.1964 65.4555 34.1486 65.4679 34.0999 65.4679C34.0513 65.4679 34.0035 65.4555 33.9608 65.4321L33.2708 65.1476C33.2175 65.1251 33.1713 65.0885 33.1373 65.0416L31.8351 63.1056C31.8021 63.0582 31.7845 63.0017 31.785 62.9438V57.2196C31.7839 56.8773 31.8588 56.5391 32.0041 56.2294C32.1494 55.9196 32.3616 55.6462 32.6252 55.4287C32.8345 55.2543 33.0539 55.0922 33.282 54.9433C33.7772 50.9765 36.782 47.2273 38.073 45.615C38.3178 45.3081 38.5071 45.0571 38.585 44.9511C38.6629 44.8451 38.6295 44.7 38.3958 44.3932C38.274 44.2753 38.1806 44.1311 38.1227 43.9716C38.0649 43.8121 38.044 43.6415 38.0619 43.4727C38.1398 43.1379 38.4514 42.8477 39.0357 42.552C40.1486 41.9941 47.594 41.8826 53.6316 41.9607C60.1144 42.0444 67.3596 42.3568 68.9177 42.8812C71.7723 43.8353 81.6828 50.3908 82.5843 50.9878C83.4301 51.1384 91.265 52.5945 94.5482 56.1261C95.9894 57.6771 96.5236 59.8586 96.0951 62.4418C95.8945 63.6305 95.5293 64.7853 95.0101 65.8729C94.9884 65.9139 94.9575 65.9494 94.9199 65.9765C94.8822 66.0036 94.8389 66.0216 94.7931 66.0291L91.855 66.4922C91.8087 66.5001 91.7613 66.4966 91.7167 66.482C91.6721 66.4674 91.6316 66.4422 91.5989 66.4085C91.5672 66.3755 91.5432 66.3358 91.5288 66.2924C91.5144 66.249 91.5098 66.2029 91.5155 66.1574C91.5645 65.8343 91.5887 65.5079 91.5879 65.1811C91.5849 63.3694 90.8657 61.6327 89.588 60.3516C88.3102 59.0705 86.5782 58.3496 84.7713 58.3466C82.9638 58.3481 81.2308 59.0686 79.9528 60.35C78.6747 61.6314 77.9561 63.3689 77.9546 65.1811C77.955 65.5719 77.9885 65.962 78.0547 66.3472C78.0606 66.3896 78.0577 66.4327 78.0462 66.474C78.0347 66.5152 78.0148 66.5538 77.9879 66.587C77.9626 66.6231 77.9293 66.6529 77.8908 66.6742C77.8522 66.6955 77.8093 66.7076 77.7654 66.7097ZM48.5289 66.1239H77.4203C77.3823 65.8186 77.3638 65.5111 77.3647 65.2034C77.3677 63.2354 78.1491 61.3488 79.5376 59.9577C80.9261 58.5666 82.8083 57.7846 84.7713 57.7831C86.7342 57.7846 88.6163 58.5666 90.0048 59.9577C91.3933 61.3488 92.1747 63.2354 92.1776 65.2034C92.1776 65.4266 92.1666 65.6497 92.1444 65.8729L94.5482 65.4935C94.9544 64.6232 97.03 59.6856 94.1197 56.5669C90.8533 53.0632 82.5119 51.6125 82.434 51.5958C82.3921 51.5902 82.3522 51.575 82.3172 51.5513C82.2114 51.4843 71.5942 44.4323 68.7396 43.4782C65.885 42.5242 41.1057 42.2117 39.3083 43.1155C38.7519 43.3945 38.6573 43.5786 38.6406 43.6734C38.6239 43.7683 38.7464 43.9468 38.8633 44.103C39.0347 44.2537 39.1501 44.4583 39.1905 44.6833C39.231 44.9083 39.194 45.1404 39.0858 45.3416C38.9912 45.4867 38.802 45.7266 38.5293 46.0557C37.255 47.6458 34.2669 51.3726 33.8496 55.2222C33.8439 55.2666 33.8285 55.3092 33.8044 55.3469C33.7804 55.3845 33.7483 55.4163 33.7104 55.4399C33.4614 55.5963 33.2234 55.7696 32.9982 55.9587C32.8019 56.1205 32.6441 56.3242 32.5362 56.5549C32.4284 56.7856 32.3733 57.0375 32.3748 57.2922V62.9271L33.5769 64.7124L33.7939 64.8017C33.9112 62.9155 34.7404 61.1448 36.113 59.8494C37.4856 58.5541 39.2987 57.8312 41.1837 57.8278C43.1466 57.8293 45.0287 58.6113 46.4172 60.0024C47.8057 61.3935 48.5872 63.28 48.5902 65.2481C48.5874 65.541 48.5669 65.8334 48.5289 66.1239Z" fill="white"/>
<path d="M41.167 64.0261C41.3224 64.0261 41.4717 63.9645 41.5821 63.8548C41.6926 63.7451 41.7554 63.5962 41.7568 63.4404V61.9953C41.5622 61.9596 41.3648 61.9409 41.167 61.9395C40.9802 61.9424 40.7941 61.9611 40.6105 61.9953V63.4404C40.6067 63.5159 40.6183 63.5914 40.6446 63.6624C40.6709 63.7333 40.7113 63.7981 40.7633 63.8529C40.8154 63.9077 40.878 63.9513 40.9474 63.9811C41.0168 64.0109 41.0915 64.0261 41.167 64.0261Z" fill="#133C68"/>
<path d="M42.1909 64.6234C42.2699 64.7586 42.3988 64.8572 42.5498 64.8979C42.7008 64.9386 42.8616 64.9181 42.9977 64.8409L44.2442 64.1158C44.1084 63.7435 43.9088 63.398 43.6543 63.0947L42.4078 63.82C42.2734 63.8983 42.1751 64.0265 42.1345 64.1769C42.0938 64.3274 42.1141 64.4878 42.1909 64.6234Z" fill="#133C68"/>
<path d="M38.0841 64.1158L39.3306 64.8409C39.4658 64.9179 39.6259 64.9382 39.7759 64.8975C39.926 64.8567 40.0538 64.7582 40.1319 64.6234C40.209 64.4885 40.2303 64.3286 40.1907 64.1783C40.1511 64.0279 40.054 63.8992 39.9205 63.82L38.674 63.0947C38.4175 63.3965 38.2176 63.7425 38.0841 64.1158Z" fill="#133C68"/>
<path d="M44.2442 66.3197L42.9977 65.5999C42.9305 65.561 42.8563 65.5357 42.7794 65.5256C42.7024 65.5154 42.6242 65.5206 42.5492 65.5408C42.4743 65.561 42.404 65.5959 42.3425 65.6434C42.281 65.6909 42.2295 65.75 42.1909 65.8175C42.1141 65.953 42.0938 66.1135 42.1345 66.2639C42.1751 66.4144 42.2734 66.5427 42.4078 66.621L43.6543 67.3407C43.9111 67.0391 44.111 66.6931 44.2442 66.3197Z" fill="#133C68"/>
<path d="M41.7512 68.4447V66.9996C41.7498 66.8432 41.6871 66.6937 41.5768 66.5831C41.4665 66.4725 41.3174 66.4097 41.1614 66.4082C41.0108 66.4168 40.8693 66.4829 40.7658 66.5929C40.6623 66.7029 40.6047 66.8484 40.6049 66.9996V68.4447C40.7887 68.477 40.9748 68.4937 41.1614 68.4948C41.3591 68.4952 41.5564 68.4785 41.7512 68.4447Z" fill="#133C68"/>
<path d="M39.9205 66.6206C40.054 66.5415 40.1511 66.4127 40.1907 66.2624C40.2303 66.112 40.209 65.952 40.1319 65.8171C40.0938 65.7498 40.0427 65.6907 39.9817 65.6433C39.9207 65.5959 39.851 65.5611 39.7765 65.5409C39.702 65.5207 39.6242 65.5154 39.5477 65.5255C39.4711 65.5356 39.3974 65.5608 39.3306 65.5996L38.0841 66.3193C38.215 66.6938 38.4152 67.0402 38.674 67.3403L39.9205 66.6206Z" fill="#133C68"/>
<path d="M41.1669 64.6679C41.3145 64.6679 41.434 64.548 41.434 64.4001C41.434 64.2522 41.3145 64.1323 41.1669 64.1323C41.0194 64.1323 40.8998 64.2522 40.8998 64.4001C40.8998 64.548 41.0194 64.6679 41.1669 64.6679Z" fill="#133C68"/>
<path d="M40.0819 65.2204C40.0819 65.2914 40.11 65.3595 40.1601 65.4098C40.2102 65.46 40.2781 65.4882 40.349 65.4882C40.4188 65.4868 40.4854 65.4579 40.5343 65.4078C40.5832 65.3578 40.6105 65.2905 40.6105 65.2204C40.6105 65.1504 40.5832 65.0831 40.5343 65.033C40.4854 64.9829 40.4188 64.9541 40.349 64.9526C40.2781 64.9526 40.2102 64.9809 40.1601 65.0311C40.11 65.0813 40.0819 65.1494 40.0819 65.2204Z" fill="#133C68"/>
<path d="M42.2464 65.2204C42.2464 65.1494 42.2183 65.0813 42.1682 65.0311C42.1181 64.9809 42.0502 64.9526 41.9793 64.9526C41.9095 64.9541 41.8429 64.9829 41.794 65.033C41.7451 65.0831 41.7178 65.1504 41.7178 65.2204C41.7178 65.2905 41.7451 65.3578 41.794 65.4078C41.8429 65.4579 41.9095 65.4868 41.9793 65.4882C42.0502 65.4882 42.1181 65.46 42.1682 65.4098C42.2183 65.3595 42.2464 65.2914 42.2464 65.2204Z" fill="#133C68"/>
<path d="M80.0079 53.532C80.2109 53.3894 80.3759 53.199 80.4884 52.9776C80.6009 52.7562 80.6575 52.5104 80.6531 52.262C80.6487 52.0135 80.5834 51.7699 80.4632 51.5526C80.3429 51.3353 80.1713 51.151 79.9633 51.0158C76.313 48.6447 70.3589 44.9066 68.4613 44.2761C67.0758 43.8131 58.5285 43.4058 50.1704 43.4058H49.0075C46.4088 44.8563 43.838 47.7408 42.8864 49.8944C42.8239 50.0431 42.799 50.2051 42.8142 50.3658C42.8293 50.5265 42.8841 50.681 42.9734 50.8153C43.0627 50.9496 43.1839 51.0596 43.3261 51.1355C43.4682 51.2114 43.6268 51.2508 43.7878 51.2501C51.8843 51.1552 72.134 53.5208 77.5094 54.1679C78.3653 54.2733 79.2297 54.0566 79.9355 53.5598L80.0079 53.532Z" fill="#0B3460"/>
<path d="M54.6054 49.4982C54.5963 49.6464 54.5577 49.7912 54.4921 49.9243C54.4264 50.0573 54.335 50.176 54.2231 50.2731C54.1112 50.3703 53.981 50.444 53.8403 50.4901C53.6995 50.5362 53.551 50.5538 53.4035 50.5416C49.8755 50.2738 46.6647 50.0952 44.3109 50.0952H44.0828C45.3165 47.8242 47.1193 45.9148 49.3135 44.5552H50.1704C51.3835 44.5552 52.5856 44.5552 53.7541 44.5552C53.9076 44.5547 54.0594 44.5862 54.2001 44.6474C54.3409 44.7086 54.4676 44.7983 54.5721 44.911C54.6766 45.0236 54.7568 45.1567 54.8075 45.3019C54.8583 45.4471 54.8786 45.6012 54.8671 45.7546L54.6054 49.4982ZM68.0996 45.3641C67.3539 45.1131 63.52 44.8397 58.4562 44.6835C58.3399 44.6792 58.2239 44.6996 58.116 44.7434C58.0081 44.7873 57.9108 44.8536 57.8303 44.9379C57.7499 45.0223 57.6882 45.1228 57.6494 45.2328C57.6105 45.3428 57.5953 45.4599 57.6048 45.5762L57.9664 50.2291C57.9825 50.4246 58.0665 50.6083 58.2038 50.748C58.3411 50.8876 58.523 50.9746 58.7177 50.9935C65.1059 51.5793 71.6555 52.3158 75.5952 52.7788V52.7509C75.797 52.4739 75.9393 52.1579 76.0132 51.8229C76.0872 51.4879 76.091 51.1413 76.0246 50.8047C75.9582 50.4682 75.823 50.1491 75.6274 49.8676C75.4318 49.5861 75.1803 49.3483 74.8885 49.1691C71.533 47.0546 69.0567 45.6822 68.0996 45.3809V45.3641Z" fill="#97D6DD"/>
<path d="M60.6987 51.1774L62.1733 51.3224L64.5104 44.9623C64.043 44.9288 63.5422 44.9009 63.0136 44.873L60.6987 51.1774Z" fill="#E0F2F5"/>
<path d="M66.2076 45.0962L65.4675 45.0293L63.1248 51.4174L63.8594 51.4899L66.2076 45.0962Z" fill="#E0F2F5"/>
<path d="M53.5036 44.5771H52.7413L50.6212 50.3571L51.3669 50.4073L53.5036 44.5771Z" fill="#E0F2F5"/>
<path d="M48.1505 50.2066L49.653 50.2848L51.7508 44.5605H50.2261L48.1505 50.2066Z" fill="#E0F2F5"/>
<path d="M90.6919 54.9156C91.8048 55.0606 94.0752 57.0969 94.537 59.2839C94.9989 61.471 92.2445 60.4891 91.5545 59.6299C90.8645 58.7707 89.3564 54.7426 90.6919 54.9156Z" fill="#E8E7E6"/>
<path d="M90.2077 56.2041C90.4346 57.419 90.8857 58.5808 91.5377 59.6298C91.9597 60.0709 92.4982 60.3824 93.0903 60.5279C93.2025 60.1955 93.2589 59.8468 93.2573 59.4959C93.2568 58.6628 92.9422 57.8606 92.3767 57.2502C91.8111 56.6398 91.0364 56.266 90.2077 56.2041Z" fill="white"/>
<path d="M58.8123 53.4593C57.8663 53.3421 57.0762 53.4593 57.0428 53.7327C57.0094 54.0061 57.7495 54.2906 58.7122 54.4301C59.6748 54.5695 60.4483 54.4301 60.4817 54.1567C60.5151 53.8833 59.7527 53.5765 58.8123 53.4593Z" fill="#0E4D9F"/>
<path d="M37.1437 54.6144C38.1175 54.7427 37.4109 51.8247 38.4236 51.3226C39.2472 50.9265 38.2122 50.0227 35.3631 50.6252C34.5963 52.0278 34.0926 53.5596 33.8773 55.1444C34.9124 54.7234 36.029 54.5422 37.1437 54.6144Z" fill="#EA5B0D"/>
<g style="mix-blend-mode:multiply" opacity="0.5">
<g style="mix-blend-mode:multiply" opacity="0.5">
<path d="M37.1604 54.6143C37.7169 54.6924 37.7169 53.6937 37.8282 52.7676C36.6189 52.9312 35.419 53.1584 34.2335 53.4482C34.072 53.9952 33.9584 54.5552 33.894 55.122C34.9308 54.7086 36.0474 54.5351 37.1604 54.6143Z" fill="#EA5B0D"/>
</g>
</g>
<path d="M36.9935 51.3223H35.9584C35.9109 51.3223 35.864 51.3317 35.8201 51.3499C35.7762 51.3681 35.7363 51.3948 35.7027 51.4285C35.6691 51.4622 35.6425 51.5022 35.6243 51.5462C35.6062 51.5902 35.5968 51.6374 35.5968 51.685C35.5968 51.7817 35.6346 51.8745 35.7023 51.9434C35.77 52.0123 35.862 52.0517 35.9584 52.0532H36.9935C37.0899 52.0517 37.1819 52.0123 37.2496 51.9434C37.3172 51.8745 37.3551 51.7817 37.3551 51.685C37.3551 51.6374 37.3459 51.5902 37.3277 51.5462C37.3095 51.5022 37.2829 51.4622 37.2493 51.4285C37.2157 51.3948 37.1758 51.3681 37.1319 51.3499C37.088 51.3317 37.041 51.3223 36.9935 51.3223Z" fill="white"/>
<path d="M75.801 51.9305C75.0498 51.5846 73.5752 52.3601 73.5752 54.0227L73.7589 55.1385C73.7589 55.1385 75.5228 55.6072 76.7358 55.1385C77.6095 54.5527 78.3441 53.0854 75.801 51.9305Z" fill="#0E4D9F"/>
<path d="M77.5094 53.4873C76.6469 54.1847 74.6826 54.0452 73.6142 53.8611C73.6115 53.915 73.6115 53.969 73.6142 54.0229L73.7978 55.1387C73.7978 55.1387 75.5618 55.6074 76.7749 55.1387C77.0496 54.9703 77.2669 54.7223 77.398 54.4274C77.5292 54.1326 77.568 53.8048 77.5094 53.4873Z" fill="#133C68"/>
<path d="M20.3775 49.9C20.6815 49.9673 20.9959 49.9737 21.3024 49.9189C21.6089 49.8642 21.9016 49.7493 22.1637 49.5808C22.4258 49.4124 22.6523 49.1936 22.8299 48.9373C23.0075 48.6809 23.1328 48.3919 23.1988 48.0868C23.7644 45.4857 24.5922 42.949 25.6694 40.5158C26.7131 38.164 27.9863 35.9215 29.4701 33.8209C30.9338 31.7493 32.5942 29.8248 34.4281 28.0743C36.248 26.3345 38.2308 24.7744 40.3489 23.4157C42.4614 22.0579 44.6972 20.9035 47.0264 19.9678C49.3786 19.0298 51.8163 18.3235 54.305 17.8589C56.8346 17.3835 59.4051 17.163 61.9785 17.2006C67.3005 17.2818 72.5519 18.4354 77.4202 20.5927C79.7652 21.6405 82.0018 22.9168 84.0978 24.4032C86.1639 25.8707 88.0834 27.5356 89.8293 29.3743C91.563 31.2003 93.119 33.188 94.4758 35.3104C95.8304 37.4273 96.98 39.6692 97.9091 42.0054C98.7593 44.1465 99.4185 46.359 99.879 48.6168L93.7023 49.1467L103.045 57.03L110.914 47.6683L104.631 48.2262C104.111 45.5072 103.336 42.8435 102.316 40.2704C101.274 37.6467 99.9843 35.1284 98.4656 32.7497C96.9454 30.3743 95.2034 28.1493 93.2628 26.1049C91.3039 24.0427 89.1516 22.1744 86.8356 20.5257C84.478 18.8552 81.9617 17.4219 79.3234 16.2465C73.8682 13.8324 67.9852 12.5404 62.023 12.4471C59.1362 12.4092 56.2527 12.6578 53.4146 13.1892C50.6238 13.7119 47.89 14.5041 45.2514 15.5547C42.6335 16.5979 40.1216 17.8907 37.7503 19.4155C35.3799 20.9378 33.1605 22.6847 31.1228 24.632C29.0646 26.5947 27.201 28.7528 25.5582 31.076C23.8908 33.4391 22.4612 35.962 21.2902 38.6078C20.0806 41.3336 19.1485 44.1747 18.5078 47.0881C18.4447 47.3959 18.4431 47.7133 18.5031 48.0218C18.5631 48.3303 18.6835 48.6237 18.8574 48.8852C19.0313 49.1467 19.2551 49.3711 19.516 49.5453C19.777 49.7195 20.0698 49.84 20.3775 49.9Z" fill="#0E4D9F"/>
<path d="M103.079 57.9451C102.865 57.9461 102.658 57.8709 102.494 57.733L93.1515 49.8442C93.0125 49.7283 92.9113 49.5734 92.8607 49.3995C92.8102 49.2255 92.8126 49.0404 92.8676 48.8678C92.9236 48.6953 93.0289 48.5431 93.1703 48.4301C93.3118 48.317 93.4833 48.2481 93.6635 48.2319L98.8052 47.7911C98.3717 45.9366 97.8026 44.1165 97.1024 42.3458C96.1977 40.0584 95.0798 37.8617 93.7636 35.7848C92.437 33.7124 90.9166 31.7713 89.2229 29.988C87.5162 28.1941 85.6416 26.5687 83.6249 25.1341C81.5731 23.6807 79.383 22.4342 77.0865 21.4129C72.3299 19.3071 67.1999 18.1802 62.0008 18.0989C59.4874 18.0663 56.9768 18.2811 54.5053 18.7404C52.076 19.198 49.6963 19.8893 47.3993 20.8047C45.1163 21.7083 42.9249 22.8292 40.8553 24.1522C38.7905 25.4832 36.8548 27.0056 35.0737 28.6993C33.2832 30.4112 31.662 32.2926 30.2326 34.3174C28.7826 36.3744 27.5393 38.5702 26.5209 40.8729C25.4688 43.2508 24.6598 45.7294 24.1059 48.2708C24.0142 48.6928 23.8402 49.0924 23.5938 49.4467C23.3474 49.801 23.0335 50.1029 22.6702 50.3351C22.3079 50.5686 21.9031 50.7283 21.4792 50.8049C21.0552 50.8815 20.6204 50.8735 20.1996 50.7814C19.7773 50.6892 19.3774 50.514 19.0231 50.266C18.6687 50.018 18.367 49.7021 18.1351 49.3365C17.9015 48.9736 17.7422 48.5676 17.6667 48.1422C17.5912 47.7169 17.601 47.2808 17.6955 46.8593C18.3417 43.8866 19.2868 40.9874 20.5167 38.206C21.7128 35.5039 23.1723 32.9269 24.8738 30.5125C26.5504 28.1437 28.4492 25.941 30.5441 23.9347C32.6289 21.9486 34.8965 20.1646 37.3163 18.6066C39.7384 17.0535 42.3023 15.7345 44.9732 14.6676C47.6717 13.5957 50.4669 12.7868 53.3201 12.252C56.2186 11.7086 59.1637 11.4563 62.1121 11.4987C68.1972 11.5921 74.2017 12.9107 79.7687 15.3762C82.4636 16.5758 85.0338 18.0391 87.4422 19.7447C89.8048 21.4257 92.0017 23.3294 94.0029 25.4298C95.9848 27.5178 97.7625 29.7914 99.3115 32.2196C100.864 34.6462 102.179 37.2171 103.24 39.8965C104.188 42.2648 104.933 44.71 105.466 47.2053L110.93 46.7366C111.111 46.7159 111.294 46.7521 111.454 46.8401C111.613 46.928 111.741 47.0634 111.821 47.2276C111.905 47.3877 111.94 47.5696 111.92 47.7497C111.9 47.9298 111.827 48.0997 111.709 48.2375L103.841 57.6047C103.75 57.7178 103.633 57.8076 103.501 57.8668C103.368 57.9259 103.224 57.9528 103.079 57.9451ZM96.0173 49.8665L102.973 55.7414L108.833 48.7674L104.748 49.1189C104.522 49.1406 104.297 49.0763 104.117 48.9388C103.936 48.8013 103.814 48.6007 103.774 48.3769C103.265 45.7075 102.504 43.0922 101.504 40.5661C100.486 37.9963 99.2242 35.53 97.7367 33.2015C96.25 30.8722 94.5431 28.6919 92.6395 26.6907C90.7221 24.6727 88.6144 22.8454 86.346 21.2343C84.0383 19.5968 81.5741 18.1933 78.9896 17.0444C73.6482 14.6812 67.8885 13.4159 62.0509 13.3231C59.2239 13.288 56.4002 13.531 53.6205 14.0484C50.8844 14.56 48.2045 15.3372 45.6186 16.3693C43.0564 17.3943 40.5969 18.6609 38.2734 20.152C35.9501 21.6425 33.7754 23.3539 31.7794 25.2624C29.7636 27.182 27.9409 29.2955 26.3373 31.5725C24.7059 33.8873 23.3061 36.3578 22.1583 38.9481C20.9789 41.6169 20.0709 44.3984 19.4483 47.2499C19.4048 47.4395 19.3996 47.6359 19.4331 47.8276C19.4665 48.0192 19.5379 48.2023 19.6431 48.3658C19.7462 48.5283 19.8804 48.6686 20.038 48.7788C20.1956 48.8889 20.3735 48.9666 20.5612 49.0073C20.7504 49.0503 20.9462 49.0553 21.1372 49.0217C21.3283 48.9882 21.5108 48.9169 21.6741 48.812C21.8362 48.7093 21.976 48.5748 22.085 48.4166C22.194 48.2584 22.2701 48.0798 22.3086 47.8915C22.8904 45.2313 23.7386 42.6369 24.8404 40.1477C25.9089 37.733 27.2137 35.4305 28.7356 33.2741C30.2338 31.1543 31.9335 29.1849 33.8106 27.3937C35.6736 25.6168 37.7007 24.0214 39.8648 22.6291C42.0298 21.2357 44.3238 20.0548 46.7149 19.103C49.1234 18.1432 51.6187 17.4183 54.1659 16.9384C56.7548 16.4566 59.3847 16.2323 62.0175 16.2689C67.4641 16.3516 72.8386 17.5317 77.8211 19.7391C80.2293 20.8108 82.5256 22.1189 84.6766 23.6445C86.79 25.1479 88.7541 26.8518 90.5417 28.7326C92.3149 30.5997 93.9062 32.6324 95.2939 34.8028C96.6794 36.9759 97.8569 39.2755 98.8107 41.6708C99.6773 43.8636 100.351 46.1279 100.825 48.4382C100.851 48.5646 100.851 48.6951 100.823 48.8211C100.795 48.9471 100.741 49.0658 100.664 49.1691C100.586 49.2722 100.487 49.3577 100.374 49.4202C100.261 49.4826 100.136 49.5206 100.007 49.5317L96.0173 49.8665Z" fill="white"/>
<path d="M102.622 63.1001C102.319 63.0327 102.005 63.0261 101.699 63.0805C101.392 63.1349 101.1 63.2493 100.838 63.4172C100.576 63.5851 100.349 63.8033 100.171 64.059C99.9936 64.3148 99.8678 64.6032 99.8012 64.9077C99.2322 67.5078 98.4044 70.0442 97.3305 72.4787C96.2856 74.831 95.0107 77.0736 93.5244 79.1736C92.0626 81.2451 90.4039 83.1696 88.5718 84.9202C86.7505 86.6584 84.768 88.2183 82.6511 89.5787C80.5391 90.9357 78.3032 92.0883 75.9736 93.021C73.621 93.9593 71.1835 94.6675 68.695 95.1355C66.1651 95.6081 63.5947 95.8287 61.0214 95.7939C55.698 95.7094 50.4454 94.5559 45.5741 92.4018C43.2271 91.3557 40.9902 90.0773 38.8965 88.5856C36.8292 87.1217 34.9097 85.4587 33.1651 83.6202C31.4324 81.7933 29.8766 79.8056 28.5186 77.6839C27.1634 75.5665 26.0119 73.3248 25.0797 70.989C24.2336 68.8465 23.5745 66.6345 23.1098 64.3777L29.292 63.8478L19.9492 55.9644L12.0807 65.3262L18.3632 64.7683C18.8829 67.4875 19.6579 70.1513 20.678 72.7241C21.7173 75.3494 23.0069 77.868 24.5288 80.2448C26.0458 82.6242 27.7881 84.8512 29.7317 86.8951C31.6905 88.9572 33.8429 90.8256 36.1588 92.4742C38.5157 94.1459 41.0321 95.5794 43.671 96.7535C46.3906 97.9637 49.2241 98.8982 52.1292 99.5431C55.0353 100.179 57.9973 100.523 60.9714 100.57C63.8583 100.607 66.7418 100.359 69.5798 99.8276C72.3705 99.3042 75.1042 98.512 77.7431 97.4621C80.3582 96.4166 82.868 95.1238 85.2386 93.6012C87.6105 92.0785 89.8317 90.3318 91.8717 88.3848C93.9298 86.4221 95.7934 84.2641 97.4363 81.9409C99.1004 79.5757 100.53 77.0531 101.704 74.409C102.911 71.6823 103.843 68.8414 104.487 65.9288C104.552 65.6201 104.556 65.3013 104.497 64.9912C104.439 64.6811 104.32 64.3858 104.146 64.1225C103.972 63.8592 103.748 63.6332 103.487 63.4577C103.225 63.2821 102.931 63.1606 102.622 63.1001Z" fill="#0E4D9F"/>
<path d="M61.5334 101.485H60.9268C57.8908 101.439 54.8671 101.087 51.9011 100.436C48.9355 99.7837 46.0424 98.8362 43.2648 97.6073C40.5721 96.4068 38.0037 94.9436 35.5967 93.2388C33.2327 91.5575 31.0356 89.6518 29.0361 87.5481C27.0555 85.461 25.2779 83.1892 23.7274 80.7638C22.1744 78.3367 20.8571 75.766 19.7933 73.0869C18.8446 70.717 18.0999 68.27 17.5675 65.7727L12.0974 66.2469C11.9171 66.2635 11.7359 66.2257 11.5772 66.1382C11.4186 66.0507 11.2896 65.9176 11.207 65.756C11.125 65.5939 11.0924 65.4112 11.1132 65.2306C11.1339 65.05 11.2073 64.8796 11.324 64.7405L19.1923 55.3787C19.348 55.1931 19.5709 55.0771 19.8119 55.0561C20.053 55.0352 20.2925 55.1111 20.4778 55.2671L29.8207 63.1505C29.9575 63.268 30.0567 63.4232 30.1062 63.5968C30.1557 63.7704 30.1532 63.9547 30.099 64.1269C30.046 64.3001 29.9424 64.4533 29.8015 64.5667C29.6606 64.6801 29.4888 64.7484 29.3087 64.7629L24.167 65.2092C24.5979 67.0644 25.1671 68.8846 25.8698 70.6545C26.7701 72.9421 27.8882 75.1374 29.2086 77.21C30.5348 79.2843 32.0552 81.2272 33.7493 83.0122C35.4527 84.8058 37.3256 86.4294 39.3417 87.8605C41.3941 89.3177 43.5863 90.5662 45.8857 91.5874C50.6422 93.6938 55.7722 94.8207 60.9714 94.9014C63.4847 94.9301 65.9948 94.7153 68.4669 94.2598C70.8957 93.8 73.2751 93.1087 75.5729 92.1955C77.8526 91.2885 80.0418 90.1677 82.1113 88.848C84.1803 87.5183 86.1181 85.9939 87.8985 84.2954C89.6887 82.5869 91.3083 80.707 92.7341 78.6828C94.1866 76.6265 95.4319 74.4305 96.4513 72.1273C97.504 69.7502 98.3113 67.2713 98.8607 64.7293C99.0512 63.882 99.5665 63.1437 100.295 62.6739C101.024 62.2042 101.908 62.0407 102.756 62.2187C103.603 62.4071 104.341 62.9232 104.81 63.6546C105.279 64.3861 105.441 65.2736 105.26 66.1241C104.61 69.0958 103.665 71.9948 102.439 74.7774C101.243 77.4795 99.7832 80.0566 98.0817 82.471C96.4048 84.8413 94.504 87.0441 92.4058 89.0489C90.3253 91.0359 88.0593 92.8183 85.6392 94.3714C83.2177 95.9256 80.6537 97.2445 77.9823 98.3103C75.2852 99.3865 72.4896 100.196 69.6354 100.726C66.9637 101.228 64.2516 101.482 61.5334 101.485ZM18.3298 63.8757C18.5415 63.8768 18.7465 63.9513 18.9097 64.0866C19.073 64.2218 19.1847 64.4095 19.2257 64.6178C19.7358 67.2866 20.4939 69.9016 21.4904 72.4286C22.5128 74.9976 23.7761 77.4634 25.2632 79.793C26.7527 82.1203 28.4595 84.3005 30.3605 86.304C32.2756 88.3223 34.3814 90.1496 36.6484 91.7603C38.9586 93.3938 41.4225 94.7971 44.0049 95.9502C46.6699 97.1284 49.4455 98.0368 52.2906 98.6617C55.1356 99.2888 58.0365 99.6271 60.9491 99.6716C63.7762 99.7097 66.6001 99.4668 69.3794 98.9463C72.112 98.435 74.7883 97.6578 77.3703 96.6254C79.9334 95.6046 82.3931 94.3397 84.7155 92.8483C87.0378 91.3564 89.2123 89.645 91.2094 87.7377C93.2221 85.8153 95.0447 83.7022 96.6516 81.4278C98.283 79.113 99.6828 76.6424 100.831 74.0521C102.006 71.3816 102.914 68.6008 103.541 65.7504C103.582 65.5603 103.586 65.3639 103.551 65.1724C103.517 64.981 103.445 64.7982 103.34 64.6345C103.132 64.3096 102.804 64.0809 102.428 63.9986C102.241 63.9575 102.047 63.9537 101.859 63.9875C101.67 64.0214 101.49 64.0922 101.329 64.1958C101.168 64.2994 101.029 64.4339 100.919 64.5915C100.81 64.7491 100.732 64.9268 100.691 65.1144C100.111 67.7744 99.2651 70.3688 98.1651 72.8582C97.0974 75.2733 95.7925 77.5758 94.2699 79.7317C92.7737 81.8516 91.076 83.8209 89.2006 85.6122C87.3368 87.3904 85.3075 88.9858 83.1407 90.3767C80.9771 91.769 78.685 92.9498 76.2962 93.9027C73.8876 94.8611 71.3924 95.5842 68.8453 96.0619C66.2547 96.5454 63.6229 96.7715 60.9881 96.737C55.5436 96.6517 50.1714 95.4717 45.1901 93.2667C42.7813 92.1962 40.4848 90.888 38.3345 89.3613C36.2202 87.8612 34.2561 86.159 32.4695 84.2787C30.6959 82.41 29.1046 80.3755 27.7173 78.2031C26.3275 76.0325 25.1497 73.7325 24.2004 71.3351C23.3324 69.1447 22.6583 66.882 22.186 64.5731C22.1593 64.4468 22.1599 64.3163 22.1878 64.1902C22.2156 64.0642 22.27 63.9455 22.3474 63.8423C22.4239 63.7389 22.5216 63.6529 22.6339 63.5904C22.7462 63.5278 22.8705 63.4901 22.9985 63.4796L26.9827 63.1338L20.027 57.2645L14.1674 64.2384L18.2519 63.8869L18.3298 63.8757Z" fill="white"/>
</g>
<defs>
<clipPath id="clip0">
<rect width="123" height="113" fill="white"/>
</clipPath>
</defs>
</svg>
