<svg width="114" height="124" viewBox="0 0 114 124" fill="none" xmlns="http://www.w3.org/2000/svg">
<g clip-path="url(#clip0)">
<path d="M102.49 85.0707C102.492 82.6851 101.934 80.3328 100.861 78.2069C101.45 75.3415 101.745 72.4228 101.742 69.4966C101.742 58.7178 97.7193 48.3343 90.4752 40.4126C83.231 32.4909 73.2964 27.6117 62.6485 26.7463L65.6124 11.6484L55.5641 26.787C44.9655 27.7154 35.097 32.6192 27.9064 40.5304C20.7158 48.4416 16.7257 58.7854 16.7239 69.5198C16.7239 70.838 16.7872 72.1445 16.9023 73.4337C15.2161 74.8535 13.8594 76.6293 12.9276 78.636C11.9959 80.6427 11.5119 82.8314 11.51 85.0474C11.5088 87.5459 12.119 90.006 13.2866 92.2093C14.4542 94.4126 16.143 96.2909 18.2029 97.6774C20.687 99.3718 23.6183 100.274 26.6167 100.267C27.5376 100.268 28.4566 100.182 29.3619 100.012C37.3094 107.956 48.0485 112.407 59.2358 112.392C70.3313 112.406 80.9894 108.027 88.9199 100.197C92.6392 99.8255 96.0884 98.071 98.5966 95.2751C101.105 92.4792 102.493 88.8419 102.49 85.0707Z" fill="#EA5B0D"/>
<path d="M65.6119 11.6134L62.648 26.7113C73.2959 27.5767 83.2306 32.4557 90.4747 40.3774C97.7188 48.2992 101.741 58.6827 101.741 69.4614C101.744 72.3876 101.449 75.3064 100.861 78.1717C101.934 80.2977 102.492 82.6499 102.49 85.0355C102.485 88.8017 101.094 92.4319 98.5864 95.2216C96.0789 98.0114 92.6338 99.7619 88.9195 100.133C80.989 107.963 70.3308 112.342 59.2353 112.328C48.048 112.343 37.3089 107.892 29.3614 99.9475C28.4561 100.118 27.5372 100.204 26.6163 100.203C23.6178 100.21 20.6865 99.3076 18.2024 97.6132C16.1429 96.2263 14.4544 94.348 13.2868 92.1448C12.1193 89.9416 11.5088 87.4816 11.5095 84.9832C11.5115 82.7672 11.9954 80.5787 12.9272 78.572C13.8589 76.5653 15.2156 74.7893 16.9018 73.3694C16.7867 72.0803 16.7234 70.7738 16.7234 69.4556C16.7253 58.7212 20.7154 48.3775 27.9059 40.4663C35.0965 32.5551 44.965 27.6512 55.5636 26.7228L65.6119 11.5844V11.6134ZM65.6119 -0.0293905C65.2666 -0.0293905 64.9212 -0.0294869 64.576 0.0169681C62.6734 0.184549 60.843 0.831465 59.2526 1.89839C58.2629 2.55745 57.3813 3.36867 56.6398 4.30252C56.3924 4.61028 56.1622 4.93541 55.9435 5.26641L48.8476 15.9628C37.5644 18.1736 27.279 23.9711 19.4973 32.5065C10.3716 42.4614 5.26624 55.5005 5.18479 69.0608C1.79327 73.6723 -0.0351294 79.2639 -0.0292369 85.0064C-0.0322165 89.4061 1.03958 93.7387 3.09131 97.6209C5.14304 101.503 8.11141 104.815 11.7339 107.264C15.7259 109.985 20.3781 111.555 25.189 111.805C34.7961 119.701 46.8158 123.998 59.2065 123.965C72.0527 123.994 84.4836 119.375 94.2428 110.946C99.1645 109.623 103.605 106.899 107.036 103.101C111.495 98.1638 113.959 91.7206 113.942 85.0413C113.941 82.2829 113.52 79.5411 112.693 76.9117C113.027 74.4367 113.194 71.9418 113.194 69.444C113.217 55.6974 108.076 42.4528 98.8064 32.3787C92.5994 25.6154 84.7913 20.5543 76.1147 17.67L76.811 14.1161C76.9966 13.2813 77.0892 12.4283 77.0872 11.5727C77.0884 8.71901 76.0481 5.96476 74.1651 3.83553C72.282 1.70629 69.688 0.351064 66.8779 0.0285932C66.4478 -0.0177782 66.0156 -0.0409648 65.5831 -0.0410156L65.6119 -0.0293905Z" fill="white"/>
<path d="M104.516 86.0987C104.508 83.6043 103.917 81.1471 102.789 78.9273C103.399 75.9313 103.705 72.8806 103.704 69.8221C103.704 58.5585 99.499 47.7081 91.927 39.4319C84.355 31.1556 73.9715 26.0606 62.8442 25.1614L65.9403 9.3667L55.4375 25.1846C44.3667 26.1539 34.0585 31.2763 26.548 39.5403C19.0376 47.8044 14.871 58.6095 14.8708 69.8221C14.8708 71.1984 14.9399 72.5572 15.055 73.8869C13.2927 75.3748 11.8757 77.235 10.9041 79.3361C9.93259 81.4372 9.43021 83.728 9.43238 86.0465C9.43078 88.6551 10.0676 91.2237 11.2864 93.5243C12.5052 95.8248 14.2684 97.7861 16.419 99.2339C19.0122 101.007 22.0741 101.952 25.2067 101.946C26.1719 101.946 27.1352 101.857 28.0842 101.679C36.3874 109.973 47.6036 114.619 59.2877 114.605C70.8789 114.623 82.0137 110.048 90.2953 101.864C94.1833 101.489 97.7936 99.6668 100.423 96.7522C103.052 93.8376 104.511 90.0397 104.516 86.0987Z" fill="white"/>
<path d="M65.9979 6.10889H65.7102C65.1731 6.15737 64.6566 6.34115 64.2081 6.64322C63.9334 6.8264 63.6887 7.05165 63.4829 7.31095C63.4108 7.39803 63.3436 7.48913 63.2816 7.58386L53.6593 22.101C42.3985 23.45 31.9877 28.8199 24.309 37.2396C16.1861 46.109 11.6808 57.7455 11.694 69.822C11.694 70.7279 11.6941 71.6454 11.7747 72.5745C10.0211 74.3468 8.63051 76.4502 7.68257 78.7647C6.73463 81.0792 6.24781 83.5595 6.24987 86.0638C6.24856 89.2084 7.01629 92.3047 8.48497 95.0781C9.95366 97.8515 12.078 100.216 14.6694 101.963C17.7975 104.092 21.4856 105.226 25.2585 105.221C25.834 105.221 26.4095 105.192 27.0196 105.139C35.7983 113.37 47.3441 117.936 59.3279 117.914C71.387 117.941 83.0018 113.324 91.8032 105.006C96.0342 104.322 99.9098 102.209 102.795 99.0131C105.98 95.4916 107.743 90.895 107.739 86.1276C107.744 83.5168 107.215 80.9331 106.185 78.5382C106.701 75.664 106.961 72.7489 106.962 69.8278C106.976 57.7032 102.434 46.0241 94.2491 37.1467C86.9937 29.227 77.3005 24.0114 66.7403 22.345L69.1401 10.1099C69.1934 9.86776 69.2205 9.62047 69.2207 9.37242C69.2199 8.55976 68.9186 7.77662 68.3758 7.17627C67.8329 6.57592 67.0876 6.20152 66.2857 6.12632H65.9921L65.9979 6.10889Z" fill="#EA5B0D"/>
<path d="M59.2013 112.206C82.68 112.206 101.713 93.0014 101.713 69.3109C101.713 45.6204 82.68 26.4155 59.2013 26.4155C35.7226 26.4155 16.6894 45.6204 16.6894 69.3109C16.6894 93.0014 35.7226 112.206 59.2013 112.206Z" fill="#133C68"/>
<path d="M59.207 27.9775C70.066 27.9898 80.4768 32.3479 88.1553 40.0957C95.8338 47.8434 100.153 58.348 100.165 69.305C100.153 80.2619 95.8338 90.7667 88.1553 98.5144C80.4768 106.262 70.066 110.62 59.207 110.632C48.348 110.62 37.9373 106.262 30.2588 98.5144C22.5803 90.7667 18.2612 80.2619 18.249 69.305C18.2612 58.348 22.5803 47.8434 30.2588 40.0957C37.9373 32.3479 48.348 27.9898 59.207 27.9775ZM59.207 26.4097C47.9322 26.4097 37.1191 30.929 29.1466 38.9734C21.1741 47.0179 16.6952 57.9284 16.6952 69.305C16.6952 80.6815 21.1741 91.5921 29.1466 99.6365C37.1191 107.681 47.9322 112.2 59.207 112.2C70.4819 112.2 81.2949 107.681 89.2674 99.6365C97.2399 91.5921 101.719 80.6815 101.719 69.305C101.717 57.9289 97.2379 47.0192 89.2657 38.9751C81.2935 30.931 70.4814 26.4112 59.207 26.4097Z" fill="white"/>
<path d="M85.605 52.4475C85.605 48.0691 91.5556 46.8962 93.2131 50.9378C95.3485 56.1382 96.4437 61.7132 96.4358 67.3423C96.4424 72.9762 95.3457 78.556 93.2084 83.7609C91.0712 88.9658 87.9357 93.6932 83.9821 97.6716C79.8099 101.885 74.8141 105.175 69.3127 107.334C65.3648 108.885 62.1189 103.85 65.0885 100.819C74.1871 91.4814 85.5417 75.2627 85.605 52.4475Z" fill="#0E4D9F"/>
<path d="M65.5835 11.4336L49.1013 36.2638L57.2849 34.8701L53.1413 56.5298L69.307 30.1375L61.6529 31.4963L65.5835 11.4336Z" fill="#0E4D9F"/>
<path d="M53.1413 57.0468C53.0765 57.046 53.0124 57.0342 52.9514 57.0119C52.8403 56.967 52.748 56.8846 52.6903 56.7787C52.6325 56.6728 52.613 56.55 52.6349 56.4312L56.6634 35.5265L49.1819 36.7981C49.0826 36.8137 48.981 36.8001 48.8891 36.7589C48.7973 36.7177 48.719 36.6507 48.6639 36.5659C48.6062 36.4803 48.5755 36.3791 48.5755 36.2756C48.5755 36.172 48.6062 36.0709 48.6639 35.9852L65.1462 11.1492C65.2135 11.05 65.3124 10.9769 65.4265 10.9421C65.5405 10.9073 65.6628 10.9127 65.7734 10.9576C65.8821 11.0052 65.9719 11.0884 66.0282 11.1937C66.0846 11.299 66.1043 11.4203 66.0842 11.5382L62.2975 30.8519L69.2034 29.6266C69.3017 29.6084 69.403 29.6197 69.495 29.6589C69.587 29.6981 69.6657 29.7636 69.7213 29.8473C69.779 29.933 69.8098 30.0341 69.8098 30.1377C69.8098 30.2412 69.779 30.3424 69.7213 30.428L53.5556 56.8202C53.5092 56.8884 53.4475 56.9445 53.3755 56.9838C53.3035 57.0232 53.2232 57.0448 53.1413 57.0468ZM57.2906 34.3477C57.4291 34.3487 57.5616 34.4051 57.659 34.5045C57.7183 34.5643 57.762 34.638 57.7861 34.7191C57.8102 34.8002 57.814 34.8861 57.7971 34.969L54.1887 53.8239L68.2596 30.8519L61.7449 32.0133C61.6618 32.0274 61.5766 32.021 61.4965 31.9947C61.4163 31.9684 61.3437 31.923 61.2846 31.8623C61.2253 31.8025 61.1816 31.7287 61.1575 31.6477C61.1334 31.5666 61.1296 31.4806 61.1465 31.3977L64.5995 13.8959L50.2121 35.5497L57.2158 34.3883L57.2906 34.3477Z" fill="white"/>
<path d="M87.4121 69.7058C86.6628 69.7059 85.9145 69.7622 85.1735 69.8742L84.0857 65.8094L83.5908 65.9429L81.611 58.5624L82.1406 58.4172L79.6602 49.1727L79.1308 49.3179L78.4746 46.8616L78.7969 46.7744L78.7049 46.4319L83.3089 45.1717L83.516 46.6816C83.4744 46.8408 83.4532 47.0048 83.4527 47.1694C83.4527 47.729 83.6726 48.2657 84.0642 48.662C84.4558 49.0582 84.9871 49.2815 85.5417 49.283C86.0973 49.283 86.6302 49.0603 87.023 48.6639C87.4159 48.2675 87.6366 47.73 87.6366 47.1694C87.6366 46.6962 87.4762 46.2372 87.1819 45.8687C87.1986 45.7402 87.1678 45.6099 87.0955 45.5028L85.9445 43.7316C85.7788 43.4767 85.5385 43.2803 85.2568 43.1699C84.9751 43.0596 84.6662 43.0409 84.3734 43.1162C84.2765 43.1164 84.1799 43.1279 84.0857 43.1509L78.256 44.742L78.4804 45.5898L78.1638 44.4284L74.6591 45.3808L75.2979 47.7501L76.0403 47.5468L76.7022 50.0031L76.1726 50.1483L76.5007 51.391L65.8022 55.9203L55.9555 60.0897L47.2539 63.7712L46.7935 62.4183L46.8742 62.3892C46.9695 62.3565 47.0574 62.3051 47.133 62.2381C47.2086 62.171 47.2703 62.0896 47.3146 61.9985C47.359 61.9073 47.3851 61.8082 47.3915 61.7069C47.3979 61.6055 47.3845 61.504 47.3519 61.4079C47.3195 61.3117 47.2686 61.2229 47.2021 61.1466C47.1357 61.0703 47.055 61.0081 46.9647 60.9633C46.8743 60.9185 46.7761 60.8922 46.6756 60.8857C46.5752 60.8793 46.4744 60.893 46.3792 60.9259L45.8037 61.129L43.214 53.3595H47.2424C47.4416 53.3588 47.6379 53.3122 47.8165 53.2232C47.9951 53.1343 48.1513 53.0054 48.2729 52.8463C48.3945 52.6871 48.4783 52.502 48.5182 52.3051C48.558 52.1083 48.5529 51.9048 48.5029 51.7103L48.4683 51.5825C48.3393 51.0841 48.034 50.6506 47.6098 50.3639C47.1857 50.0772 46.6722 49.9571 46.1663 50.0263C43.0218 50.4308 39.8274 50.1151 36.8203 49.103C36.6629 49.0524 36.4966 49.0367 36.3326 49.0568C36.1686 49.0768 36.0108 49.1322 35.8699 49.2192C35.7291 49.3063 35.6085 49.4229 35.5163 49.5612C35.424 49.6994 35.3624 49.8561 35.3354 50.0205V50.1599C35.2616 50.6547 35.3072 51.1601 35.4685 51.6333C35.6298 52.1065 35.9021 52.5333 36.2621 52.8775L37.3554 53.9169C37.6765 54.2229 38.081 54.4252 38.5168 54.4976C38.9526 54.57 39.3999 54.5093 39.8013 54.3234L41.3321 53.6091L41.5854 53.5105L44.3017 61.6401L43.7779 61.826C43.6826 61.8587 43.5947 61.9099 43.5191 61.9769C43.4435 62.044 43.3818 62.1255 43.3375 62.2167C43.2931 62.3078 43.267 62.4068 43.2606 62.5081C43.2542 62.6095 43.2678 62.7112 43.3004 62.8073C43.3328 62.9034 43.3836 62.9921 43.45 63.0684C43.5164 63.1447 43.5972 63.207 43.6876 63.2517C43.7779 63.2965 43.8762 63.3228 43.9766 63.3293C44.077 63.3357 44.1777 63.3222 44.2729 63.2893L44.9347 65.2403L36.6303 73.6196C33.8736 71.1088 30.2901 69.7221 26.5764 69.729C22.5851 69.729 18.7572 71.3289 15.9349 74.1766C13.1127 77.0244 11.5273 80.8868 11.5273 84.9141C11.5273 88.9414 13.1127 92.8037 15.9349 95.6514C18.7572 98.4992 22.5851 100.099 26.5764 100.099C29.8571 100.099 33.0478 99.0164 35.6627 97.0174C38.2776 95.0183 40.1734 92.2119 41.0616 89.0253L52.4046 90.0996L52.6349 90.1345V91.4932H50.8335C50.7325 91.4932 50.6325 91.5134 50.5393 91.5526C50.4461 91.5918 50.3615 91.6491 50.2903 91.7214C50.2192 91.7938 50.163 91.8797 50.1248 91.9741C50.0867 92.0684 50.0674 92.1694 50.0682 92.2714C50.0674 92.3733 50.0867 92.4743 50.1248 92.5686C50.163 92.663 50.2192 92.749 50.2903 92.8213C50.3615 92.8936 50.4461 92.951 50.5393 92.9901C50.6325 93.0293 50.7325 93.0495 50.8335 93.0495H55.731C55.9355 93.0495 56.1317 92.9675 56.2763 92.8216C56.4209 92.6756 56.5022 92.4777 56.5022 92.2714C56.5022 92.065 56.4209 91.8671 56.2763 91.7211C56.1317 91.5752 55.9355 91.4932 55.731 91.4932H53.9413V90.1345C55.2042 89.9759 56.3662 89.3571 57.2088 88.3947C58.0513 87.4322 58.5164 86.1924 58.5164 84.9083C58.518 84.014 58.292 83.1342 57.8603 82.3532L63.2931 76.0644C63.5139 76.1846 63.7687 76.2252 64.0156 76.1798C64.2624 76.1344 64.4865 76.0057 64.6512 75.8146C64.816 75.6245 64.9115 75.3834 64.9219 75.131C64.9324 74.8786 64.8572 74.6302 64.7088 74.4268L67.9718 70.6466C68.1927 70.7667 68.4474 70.8075 68.6943 70.7621C68.9411 70.7167 69.1654 70.5879 69.33 70.3969C69.4948 70.2068 69.5903 69.9655 69.6008 69.7132C69.6113 69.4608 69.536 69.2124 69.3875 69.009L78.4171 58.5566L78.6358 59.3869L79.1652 59.2418L81.1507 66.6224L82.8772 66.152L80.6558 66.7327L81.7491 70.7975C78.9727 71.9343 76.5954 73.8809 74.9213 76.3884C73.2472 78.8958 72.3525 81.8501 72.3514 84.8734C72.3514 88.9007 73.9369 92.763 76.7592 95.6107C79.5815 98.4585 83.4093 100.058 87.4006 100.058C91.3919 100.058 95.2198 98.4585 98.042 95.6107C100.864 92.763 102.45 88.9007 102.45 84.8734C102.445 80.8511 100.859 76.995 98.0399 74.1514C95.2206 71.3077 91.3984 69.7089 87.4121 69.7058ZM41.6141 84.0372C41.5626 83.117 41.4278 82.2033 41.2112 81.3079L50.1372 80.4485L50.2121 80.6634C49.1173 81.4736 48.3816 82.6852 48.1633 84.0372H41.6141ZM49.9472 79.8911L41.0674 80.7505C40.5241 78.8158 39.6047 77.0097 38.3626 75.4372L45.844 67.8883L49.9472 79.8911ZM67.3043 64.6073C67.1286 64.3694 66.9002 64.1763 66.6375 64.0432C66.3747 63.9101 66.0847 63.8409 65.7907 63.8409H65.5087L57.6647 72.9228L57.7279 73.1841C57.8764 73.7487 58.2378 74.2323 58.7351 74.5313L54.2578 79.7168C53.9448 79.6564 53.6269 79.6254 53.3082 79.624C53.1158 79.6236 52.9236 79.6353 52.7327 79.6588V79.6298H52.6637L48.0597 66.0939L76.3799 54.1086L67.3043 64.6073ZM41.217 88.4155C41.3678 87.8043 41.4775 87.1835 41.5451 86.5573H48.3761C48.7542 87.6867 49.5036 88.6517 50.4998 89.2924L41.217 88.4155Z" fill="#0E4D9F"/>
<path d="M84.7303 43.0464C84.9714 43.0457 85.2088 43.106 85.4209 43.2216C85.633 43.3373 85.813 43.5045 85.9445 43.7083L87.0955 45.4795C87.1678 45.5866 87.1986 45.7169 87.1819 45.8454C87.4762 46.2139 87.6366 46.6729 87.6366 47.1461C87.6366 47.7067 87.4159 48.2442 87.023 48.6406C86.6302 49.037 86.0973 49.2597 85.5417 49.2597C84.9871 49.2582 84.4558 49.0349 84.0642 48.6386C83.6726 48.2424 83.4527 47.7057 83.4527 47.1461C83.4532 46.9814 83.4744 46.8175 83.516 46.6583L83.3089 45.1486L78.7049 46.4086L78.7969 46.7511L78.4746 46.8383L79.1308 49.2946L79.6602 49.1494L82.1406 58.3939L81.611 58.5391L83.5909 65.9196L84.0857 65.7861L85.1735 69.8509C85.9145 69.7389 86.6628 69.6827 87.4121 69.6826C89.3884 69.6826 91.3453 70.0753 93.1711 70.8385C94.997 71.6016 96.6561 72.72 98.0536 74.1301C99.451 75.5401 100.559 77.2142 101.316 79.0565C102.072 80.8989 102.461 82.8734 102.461 84.8675C102.461 88.8948 100.876 92.7571 98.0536 95.6049C95.2313 98.4526 91.4034 100.052 87.4121 100.052C83.4208 100.052 79.593 98.4526 76.7707 95.6049C73.9485 92.7571 72.3629 88.8948 72.3629 84.8675C72.364 81.8442 73.2587 78.8899 74.9328 76.3825C76.6069 73.8751 78.9842 71.9285 81.7607 70.7917L80.6673 66.7269L82.8888 66.1462L81.1623 66.6166L79.1767 59.2359L78.6473 59.3811L78.4287 58.5507L69.399 69.0031C69.5475 69.2065 69.6228 69.4549 69.6123 69.7073C69.6018 69.9596 69.5063 70.2009 69.3416 70.391C69.2383 70.5121 69.1101 70.609 68.966 70.6751C68.8219 70.7413 68.6653 70.7751 68.507 70.7742C68.3244 70.7723 68.1449 70.7265 67.9833 70.6407L64.7203 74.421C64.8688 74.6243 64.9439 74.8728 64.9335 75.1251C64.923 75.3775 64.8275 75.6186 64.6627 75.8087C64.5594 75.9298 64.4314 76.0268 64.2873 76.093C64.1432 76.1592 63.9866 76.193 63.8283 76.1921C63.6457 76.1901 63.4662 76.1444 63.3046 76.0585L57.8718 82.3473C58.3036 83.1283 58.5295 84.0081 58.528 84.9024C58.5279 86.1866 58.0629 87.4264 57.2203 88.3888C56.3778 89.3512 55.2157 89.97 53.9528 90.1286V91.4873H55.7425C55.947 91.4873 56.1432 91.5694 56.2878 91.7153C56.4324 91.8612 56.5137 92.0591 56.5137 92.2655C56.5137 92.4719 56.4324 92.6698 56.2878 92.8157C56.1432 92.9616 55.947 93.0437 55.7425 93.0437H50.845C50.744 93.0437 50.6441 93.0234 50.5508 92.9843C50.4576 92.9451 50.373 92.8877 50.3019 92.8154C50.2307 92.7431 50.1743 92.6571 50.1362 92.5628C50.0981 92.4684 50.079 92.3674 50.0797 92.2655C50.079 92.1636 50.0981 92.0626 50.1362 91.9682C50.1743 91.8738 50.2307 91.7879 50.3019 91.7156C50.373 91.6432 50.4576 91.5859 50.5508 91.5467C50.6441 91.5075 50.744 91.4873 50.845 91.4873H52.6464V90.1286L52.4161 90.0937L41.0731 89.0194C40.1849 92.206 38.2891 95.0126 35.6742 97.0116C33.0593 99.0107 29.8686 100.093 26.5879 100.093C22.5966 100.093 18.7687 98.4933 15.9465 95.6455C13.1242 92.7978 11.5386 88.9355 11.5386 84.9082C11.5386 80.8809 13.1242 77.0185 15.9465 74.1707C18.7687 71.323 22.5966 69.7232 26.5879 69.7232C30.3016 69.7162 33.8851 71.1029 36.6418 73.6137L44.9462 65.2345L44.2844 63.2834C44.2049 63.3115 44.1212 63.3251 44.037 63.324C43.8774 63.3233 43.7219 63.2727 43.592 63.1791C43.4622 63.0855 43.3643 62.9535 43.3119 62.8014C43.2793 62.7053 43.2658 62.6038 43.2721 62.5024C43.2785 62.4011 43.3046 62.3019 43.349 62.2108C43.3933 62.1196 43.4551 62.0381 43.5306 61.9711C43.6062 61.904 43.6942 61.8528 43.7895 61.8201L44.3132 61.6342L41.5969 53.5046L41.3436 53.6033L39.8128 54.3175C39.5213 54.4494 39.2057 54.5187 38.8862 54.5208C38.3211 54.521 37.7775 54.3028 37.367 53.911L36.2736 52.8716C35.9137 52.5274 35.6413 52.1006 35.48 51.6274C35.3187 51.1543 35.2731 50.6488 35.347 50.154V50.0147C35.3903 49.7448 35.5267 49.499 35.7319 49.3206C35.9372 49.1421 36.1982 49.0425 36.4692 49.0391C36.5923 49.0388 36.7148 49.0583 36.8318 49.0971C38.9881 49.8225 41.246 50.1931 43.519 50.1947C44.4081 50.1947 45.2962 50.1365 46.1778 50.0205H46.4426C46.9043 50.0207 47.3528 50.1752 47.7183 50.46C48.0838 50.7447 48.3455 51.1434 48.4625 51.5941L48.4971 51.7218C48.5471 51.9163 48.5523 52.1198 48.5124 52.3167C48.4726 52.5136 48.3887 52.6987 48.2671 52.8578C48.1455 53.017 47.9893 53.1459 47.8108 53.2348C47.6322 53.3238 47.4358 53.3704 47.2367 53.371H43.2082L45.7979 61.1406L46.3734 60.9374C46.453 60.9098 46.5368 60.896 46.621 60.8967C46.7808 60.8966 46.9366 60.9469 47.0667 61.0406C47.1967 61.1344 47.2945 61.2667 47.3461 61.4193C47.3787 61.5154 47.3921 61.6171 47.3857 61.7184C47.3794 61.8198 47.3533 61.9189 47.3089 62.01C47.2645 62.1012 47.2028 62.1826 47.1272 62.2496C47.0516 62.3167 46.9637 62.3681 46.8684 62.4008L46.7878 62.4297L47.2482 63.7827L55.9498 60.1013L65.7964 55.9318L76.4949 51.4024L76.1669 50.1598L76.6964 50.0147L76.0345 47.5584L75.2921 47.7617L74.6534 45.3924L78.1581 44.44L78.2502 44.7768L78.4746 45.6188L78.2502 44.7768L84.0799 43.1858C84.1742 43.1628 84.2707 43.151 84.3677 43.1509C84.4837 43.1179 84.604 43.1024 84.7246 43.1045L84.7303 43.0464ZM52.6579 79.6878H52.7269V79.7226C52.9179 79.699 53.1101 79.6875 53.3024 79.6878C53.6192 79.6889 53.9353 79.7199 54.2463 79.7807L58.7293 74.5952C58.2321 74.2961 57.8706 73.8125 57.7222 73.248L57.659 72.9867L65.5029 63.9047H65.7849C66.0789 63.9047 66.3689 63.974 66.6317 64.1071C66.8945 64.2402 67.1228 64.4333 67.2985 64.6712L76.3683 54.1723L48.0482 66.1578L52.6522 79.6937L52.6579 79.6878ZM41.0558 80.8143L49.9359 79.9549L45.844 67.9405L38.3626 75.4895C39.6047 77.0619 40.5241 78.868 41.0674 80.8027L41.0558 80.8143ZM41.6429 84.0894H48.1921C48.4104 82.7373 49.146 81.5259 50.2407 80.7157L50.166 80.5007L41.24 81.3602C41.4566 82.2556 41.5914 83.1691 41.6429 84.0894ZM50.5285 89.3737C49.5322 88.733 48.783 87.768 48.4049 86.6387H41.5278C41.4602 87.2648 41.3506 87.8856 41.1997 88.4968L50.4825 89.3737H50.5285ZM84.713 41.9605C84.541 41.9603 84.3693 41.9779 84.2008 42.0128C84.0546 42.018 83.9096 42.0415 83.7691 42.0825L78.7336 43.4587C78.5581 43.3583 78.3597 43.3063 78.1581 43.3077C78.0554 43.3078 77.9532 43.3195 77.8532 43.3426L74.3541 44.3006C74.2082 44.341 74.0715 44.41 73.952 44.5037C73.8325 44.5973 73.7326 44.7139 73.6578 44.8466C73.5063 45.1121 73.4648 45.4273 73.5426 45.7234L74.1814 48.0925C74.2428 48.3253 74.3743 48.533 74.5578 48.687C74.7414 48.841 74.9678 48.9336 75.2058 48.952L75.3267 49.3933C75.1926 49.5378 75.0975 49.7145 75.0502 49.9066C75.0028 50.0987 75.0049 50.2998 75.0562 50.4909L75.1252 50.7521L65.3418 54.8924L55.4951 59.056L48.5085 62.0174C48.5623 61.7002 48.5346 61.3743 48.428 61.071C48.2984 60.6897 48.0541 60.3588 47.7291 60.1245C47.4041 59.8903 47.0147 59.7644 46.6152 59.7644H46.5288L44.8023 54.5382H47.2424C47.6181 54.5383 47.9889 54.4514 48.3261 54.2843C48.6633 54.1172 48.958 53.8742 49.1877 53.5742C49.417 53.274 49.5745 52.9246 49.6484 52.553C49.7222 52.1814 49.7104 51.7977 49.6135 51.4315L49.5847 51.3038C49.4019 50.605 48.9952 49.987 48.4278 49.5458C47.8605 49.1047 47.1645 48.8653 46.4483 48.8649C46.3116 48.8661 46.1752 48.8758 46.0397 48.894C45.2056 49.0005 44.3656 49.0549 43.5247 49.0566C41.3727 49.0584 39.2347 48.7073 37.1943 48.0171C36.96 47.9409 36.7154 47.9018 36.4692 47.901C35.9226 47.904 35.3951 48.1031 34.9807 48.4627C34.5663 48.8223 34.2922 49.3189 34.2075 49.8637V50.003C34.1061 50.6841 34.1692 51.3798 34.3917 52.0309C34.6141 52.682 34.9893 53.2693 35.4851 53.7426L36.5727 54.7763C37.1947 55.3707 38.0181 55.7031 38.8747 55.7054C39.36 55.7068 39.8396 55.5997 40.279 55.3918L40.9005 55.1073L42.8745 61.0303C42.5507 61.2764 42.3122 61.6196 42.1933 62.0108C42.0745 62.4019 42.0812 62.8208 42.2126 63.2079C42.3098 63.4956 42.4731 63.7561 42.6892 63.968C42.9052 64.18 43.1679 64.3374 43.4558 64.4274L43.6283 64.9499L36.5785 72.0633C33.7328 69.8027 30.2155 68.5754 26.5937 68.5792C22.2985 68.5838 18.1806 70.3075 15.1435 73.372C12.1064 76.4366 10.398 80.5917 10.3934 84.9257C10.398 89.2596 12.1064 93.4146 15.1435 96.4792C18.1806 99.5437 22.2985 101.267 26.5937 101.272C29.9589 101.263 33.2383 100.201 35.9801 98.232C38.7218 96.2632 40.7908 93.4847 41.9018 90.2796L49.4178 90.9938C49.1062 91.3496 48.9343 91.8081 48.9345 92.2829C48.9345 92.7963 49.1361 93.2887 49.4954 93.6523C49.8546 94.0158 50.342 94.2208 50.8508 94.2223H55.7483C56.2576 94.2208 56.7457 94.0161 57.1058 93.6527C57.466 93.2893 57.669 92.7968 57.6705 92.2829C57.6689 91.901 57.5562 91.5279 57.3465 91.21C57.1368 90.8921 56.8392 90.6433 56.4907 90.4944C57.461 89.9311 58.2672 89.1199 58.8279 88.1423C59.3887 87.1646 59.6842 86.0552 59.6847 84.9257C59.6861 84.1162 59.5337 83.3138 59.2358 82.5622L63.719 77.3709H63.834C64.1557 77.3716 64.4739 77.3023 64.7668 77.168C65.0597 77.0338 65.3205 76.8376 65.5317 76.5927C65.7586 76.3341 65.9235 76.0261 66.0134 75.6928C66.1032 75.3594 66.1156 75.0096 66.0497 74.6706L68.3977 71.953H68.5127C68.8391 71.9563 69.1623 71.8886 69.4603 71.7543C69.7582 71.62 70.0239 71.4223 70.2392 71.1749C70.464 70.915 70.627 70.6068 70.7158 70.2736C70.8046 69.9405 70.8168 69.5913 70.7515 69.2528L78.3135 60.5019H78.3538L79.8271 65.9952C79.7027 66.1394 79.6156 66.3125 79.5735 66.4989C79.5313 66.6853 79.5353 66.8793 79.5853 67.0637L80.4199 70.1761C77.6584 71.4978 75.3264 73.5847 73.696 76.1932C72.0656 78.8017 71.2041 81.8243 71.2119 84.9082C71.2165 89.2421 72.9247 93.3972 75.9619 96.4617C78.999 99.5263 83.1169 101.25 87.4121 101.255C91.7072 101.25 95.8251 99.5263 98.8623 96.4617C101.899 93.3972 103.608 89.2421 103.612 84.9082C103.608 80.5743 101.899 76.4191 98.8623 73.3546C95.8251 70.29 91.7072 68.5664 87.4121 68.5618C86.9517 68.5618 86.4913 68.5618 86.0252 68.6199L85.1964 65.5248C85.1564 65.3775 85.0881 65.2398 84.9953 65.1192C84.9025 64.9986 84.7869 64.8977 84.6554 64.8222C84.5923 64.783 84.5247 64.7519 84.4541 64.7293L82.9808 59.2302C83.0422 59.1627 83.0962 59.0887 83.1419 59.0095C83.2915 58.7432 83.3307 58.4281 83.2513 58.1327L80.7708 48.8882C80.7322 48.7403 80.6651 48.6016 80.5733 48.48C80.4814 48.3584 80.3667 48.2565 80.2357 48.1797C80.1569 48.1365 80.074 48.1014 79.9882 48.0751L79.7983 47.3667L82.3419 46.6757C82.3123 46.8483 82.297 47.0231 82.296 47.1983C82.296 48.0659 82.637 48.8981 83.2445 49.5121C83.852 50.1261 84.6761 50.4719 85.536 50.4734C86.3963 50.4719 87.221 50.1264 87.8294 49.5125C88.4377 48.8986 88.7803 48.0664 88.7818 47.1983C88.7788 46.5934 88.6116 46.001 88.2984 45.4853C88.2524 45.2788 88.1706 45.0822 88.0567 44.9046L86.9057 43.1276C86.667 42.7672 86.3431 42.4724 85.9634 42.2696C85.5836 42.0669 85.1599 41.9626 84.7303 41.9663L84.713 41.9605ZM49.4754 66.7965L72.2363 57.1688L67.1431 63.0569C66.7176 62.8431 66.2487 62.7317 65.7734 62.7317H65.4914C65.3275 62.7326 65.1658 62.7689 65.0169 62.838C64.868 62.9071 64.7355 63.0075 64.6281 63.1324L56.7784 72.2143C56.6559 72.3562 56.5693 72.526 56.5262 72.7091C56.4831 72.8922 56.4848 73.0831 56.531 73.2654L56.6 73.5209C56.6991 73.9383 56.877 74.3326 57.1238 74.6822L53.7744 78.5554H53.4693L49.4754 66.8372V66.7965ZM39.8647 75.5998L45.349 70.0658L48.3704 78.9271L41.8674 79.5543C41.3829 78.1496 40.709 76.8189 39.8647 75.5998ZM42.5752 82.3938L47.6856 81.9002C47.5116 82.2298 47.3653 82.5736 47.2482 82.928H42.6442C42.6442 82.748 42.5925 82.5738 42.5695 82.3938H42.5752ZM46.1606 87.8H47.5935L47.6625 87.9394L46.1606 87.8Z" fill="white"/>
<path d="M26.5304 99.0886C34.2824 99.0886 40.5667 92.7477 40.5667 84.9257C40.5667 77.1037 34.2824 70.7627 26.5304 70.7627C18.7783 70.7627 12.494 77.1037 12.494 84.9257C12.494 92.7477 18.7783 99.0886 26.5304 99.0886Z" fill="#133C68"/>
<path d="M26.5649 69.7056C22.5736 69.7056 18.7458 71.3054 15.9236 74.1532C13.1013 77.0009 11.5157 80.8633 11.5157 84.8906C11.5157 88.9179 13.1013 92.7802 15.9236 95.628C18.7458 98.4757 22.5736 100.076 26.5649 100.076C28.5412 100.076 30.4981 99.6828 32.3239 98.9197C34.1498 98.1566 35.8088 97.038 37.2062 95.628C38.6037 94.2179 39.7123 92.5439 40.4685 90.7016C41.2248 88.8593 41.6141 86.8848 41.6141 84.8906C41.6141 82.8965 41.2248 80.9218 40.4685 79.0795C39.7123 77.2372 38.6037 75.5632 37.2062 74.1532C35.8088 72.7431 34.1498 71.6247 32.3239 70.8616C30.4981 70.0984 28.5412 69.7056 26.5649 69.7056ZM26.5649 96.6496C23.4751 96.648 20.5124 95.4085 18.3281 93.2034C16.1438 90.9984 14.9169 88.0083 14.9169 84.8906C14.9169 81.7735 16.1441 78.784 18.3285 76.5798C20.513 74.3757 23.4756 73.1375 26.5649 73.1375C29.6547 73.1375 32.618 74.3756 34.8034 76.5795C36.9887 78.7835 38.2172 81.773 38.2187 84.8906C38.2187 88.0093 36.9908 91.0002 34.8053 93.2054C32.6198 95.4106 29.6557 96.6496 26.5649 96.6496Z" fill="#424143"/>
<path d="M36.944 79.2198L16.2769 90.0801L16.5374 90.5848L37.2045 79.7245L36.944 79.2198Z" fill="#3C7ABC"/>
<path d="M21.5505 74.3421L21.0503 74.605L31.8135 95.4585L32.3137 95.1957L21.5505 74.3421Z" fill="#3C7ABC"/>
<path d="M89.0073 73.3834L84.5731 96.4658L85.1268 96.5741L89.561 73.4917L89.0073 73.3834Z" fill="#3C7ABC"/>
<path d="M96.6392 78.074L77.3302 91.2354L77.6459 91.7069L96.9549 78.5455L96.6392 78.074Z" fill="#3C7ABC"/>
<path d="M75.6505 82.5063L75.5431 83.0649L98.4192 87.5392L98.5265 86.9805L75.6505 82.5063Z" fill="#3C7ABC"/>
<path d="M80.6913 75.0092L80.2239 75.3276L93.2643 94.8131L93.7317 94.4946L80.6913 75.0092Z" fill="#3C7ABC"/>
<path d="M77.6132 51.0163L45.2468 64.7178L46.1975 67.0042L78.5639 53.3027L77.6132 51.0163Z" fill="#0E4D9F"/>
<path d="M78.1275 52.2492L45.7611 65.9507L46.1975 67.0002L78.5639 53.2987L78.1275 52.2492Z" fill="#133C68"/>
<path d="M70.4358 54.0502L56.1604 60.0933L57.1111 62.3797L71.3865 56.3366L70.4358 54.0502Z" fill="#EA5B0D"/>
<path d="M70.9448 55.2909L56.6695 61.334L57.1059 62.3836L71.3813 56.3405L70.9448 55.2909Z" fill="#ED753A"/>
<path d="M45.7914 64.3649L25.3509 84.9897L27.1251 86.7799L47.5656 66.1551L45.7914 64.3649Z" fill="#0E4D9F"/>
<path d="M46.8958 65.4753L26.4554 86.1001L27.1269 86.7777L47.5673 66.1528L46.8958 65.4753Z" fill="#133C68"/>
<path d="M46.8092 62.0615L44.3005 62.9321L52.173 86.028L54.6817 85.1574L46.8092 62.0615Z" fill="#0E4D9F"/>
<path d="M45.4116 62.5456L44.2906 62.9346L52.1631 86.0305L53.2841 85.6414L45.4116 62.5456Z" fill="#133C68"/>
<path d="M44.6642 62.7319L46.1605 62.2093L42.8744 52.3608L41.3782 52.8835L44.6642 62.7319Z" fill="#DEF2FC"/>
<path d="M44.7103 62.7145L45.4239 62.4648L42.1033 52.6279L41.3954 52.8776L44.7103 62.7145Z" fill="#ACC1CC"/>
<path d="M77.7893 52.3857L52.4674 81.6953L55.8077 84.6334L81.1296 55.3238L77.7893 52.3857Z" fill="#0E4D9F"/>
<path d="M79.9097 54.248L54.5877 83.5576L55.8154 84.6375L81.1374 55.3279L79.9097 54.248Z" fill="#133C68"/>
<path d="M87.4121 69.7056C83.4208 69.7056 79.593 71.3054 76.7707 74.1532C73.9485 77.0009 72.3629 80.8633 72.3629 84.8906C72.3629 88.9179 73.9485 92.7802 76.7707 95.628C79.593 98.4757 83.4208 100.076 87.4121 100.076C91.4034 100.076 95.2313 98.4757 98.0536 95.628C100.876 92.7802 102.461 88.9179 102.461 84.8906C102.461 80.8633 100.876 77.0009 98.0536 74.1532C95.2313 71.3054 91.4034 69.7056 87.4121 69.7056ZM87.4121 96.6496C84.3223 96.648 81.3596 95.4085 79.1753 93.2034C76.991 90.9984 75.764 88.0083 75.764 84.8906C75.764 81.7735 76.9913 78.784 79.1757 76.5798C81.3601 74.3757 84.3228 73.1375 87.4121 73.1375C90.5019 73.1375 93.4652 74.3756 95.6506 76.5795C97.8359 78.7835 99.0643 81.773 99.0659 84.8906C99.0659 88.0093 97.838 91.0002 95.6525 93.2054C93.467 95.4106 90.5029 96.6496 87.4121 96.6496Z" fill="#424143"/>
<path d="M67.6898 65.7571L59.8459 74.839C59.3607 74.8401 58.8891 74.678 58.5055 74.3783C58.1219 74.0785 57.8483 73.6582 57.728 73.184L57.6647 72.9227L65.5087 63.8408H65.7907C66.0401 63.8408 66.2871 63.8904 66.5175 63.9867C66.7479 64.083 66.9572 64.2241 67.1336 64.4021C67.3099 64.58 67.4498 64.7913 67.5452 65.0237C67.6407 65.2562 67.6898 65.5055 67.6898 65.7571Z" fill="#009D76"/>
<path d="M64.6627 75.7972C64.5675 75.9078 64.4516 75.9985 64.3217 76.064C64.1918 76.1294 64.0504 76.1683 63.9055 76.1785C63.7607 76.1888 63.6153 76.1702 63.4776 76.1237C63.3399 76.0772 63.2127 76.0038 63.1031 75.9076L58.551 71.9008L60.0013 70.2227L64.5534 74.2293C64.7731 74.4231 64.9079 74.6968 64.9284 74.9905C64.9489 75.2842 64.8534 75.5742 64.6627 75.7972Z" fill="#EA5B0D"/>
<path d="M69.3416 70.3852C69.246 70.4954 69.1297 70.5855 68.9996 70.6504C68.8695 70.7153 68.728 70.7537 68.5831 70.7634C68.4383 70.7731 68.2931 70.7539 68.1556 70.707C68.0181 70.66 67.8912 70.5861 67.782 70.4896L63.2297 66.483L64.68 64.8047L69.2321 68.8115C69.4522 69.0063 69.5872 69.2808 69.6077 69.5755C69.6281 69.8702 69.5326 70.1613 69.3416 70.3852Z" fill="#EA5B0D"/>
<path d="M84.0154 65.7948L80.5989 66.7275L85.568 85.2588L88.9846 84.326L84.0154 65.7948Z" fill="#0E4D9F"/>
<path d="M82.1444 66.3014L80.5833 66.7275L85.5524 85.2586L87.1135 84.8324L82.1444 66.3014Z" fill="#133C68"/>
<path d="M81.26 63.3649L77.7898 50.4155L76.8805 50.6652L81.1564 66.6109L82.0657 66.3612L81.26 63.3649Z" fill="#ACC1CC"/>
<path d="M76.7856 45.9518L75.5967 46.2764L76.7646 50.6317L77.9535 50.3071L76.7856 45.9518Z" fill="#ACC1CC"/>
<path d="M78.256 44.742L84.0857 43.1509C84.3886 43.0692 84.7114 43.1119 84.9832 43.2697C85.255 43.4276 85.4537 43.6876 85.536 43.9929L85.6798 44.5272L78.7049 46.4319L78.256 44.742Z" fill="#DEF2FC"/>
<path d="M79.5839 49.1544L76.0897 50.1084L78.5682 59.3516L82.0625 58.3976L79.5839 49.1544Z" fill="#EA5B0D"/>
<path d="M77.5129 49.7073L76.0741 50.1001L78.5527 59.3433L79.9914 58.9505L77.5129 49.7073Z" fill="#ED753A"/>
<path d="M44.2671 63.2718L46.8742 62.3659C46.9694 62.3331 47.0574 62.2818 47.133 62.2147C47.2086 62.1477 47.2703 62.0663 47.3146 61.9751C47.359 61.884 47.3851 61.7849 47.3915 61.6835C47.3979 61.5822 47.3845 61.4806 47.3519 61.3845C47.3195 61.2884 47.2685 61.1995 47.2021 61.1232C47.1356 61.047 47.055 60.9847 46.9646 60.9399C46.8743 60.8952 46.7761 60.8688 46.6756 60.8624C46.5752 60.856 46.4744 60.8696 46.3792 60.9025L43.7722 61.8084C43.6769 61.8411 43.5889 61.8925 43.5134 61.9595C43.4378 62.0266 43.3761 62.108 43.3317 62.1991C43.2873 62.2903 43.2612 62.3894 43.2548 62.4907C43.2485 62.5921 43.262 62.6937 43.2946 62.7897C43.327 62.8859 43.3778 62.9746 43.4442 63.0509C43.5107 63.1272 43.5915 63.1896 43.6818 63.2343C43.7722 63.2791 43.8704 63.3055 43.9708 63.3119C44.0713 63.3183 44.1719 63.3047 44.2671 63.2718Z" fill="#EA5B0D"/>
<path d="M55.3455 84.0371H25.8398V86.5863H55.3455V84.0371Z" fill="#0E4D9F"/>
<path d="M55.3455 85.396H25.8398V86.5864H55.3455V85.396Z" fill="#133C68"/>
<path d="M53.3082 89.8787C56.0352 89.8787 58.2459 87.648 58.2459 84.8964C58.2459 82.1447 56.0352 79.9141 53.3082 79.9141C50.5811 79.9141 48.3704 82.1447 48.3704 84.8964C48.3704 87.648 50.5811 89.8787 53.3082 89.8787Z" fill="#009D76"/>
<path d="M53.3082 87.3295C54.6399 87.3295 55.7195 86.2402 55.7195 84.8965C55.7195 83.5527 54.6399 82.4634 53.3082 82.4634C51.9765 82.4634 50.8969 83.5527 50.8969 84.8965C50.8969 86.2402 51.9765 87.3295 53.3082 87.3295Z" fill="#ED753A"/>
<path d="M53.3082 90.1576C51.9243 90.1561 50.5976 89.6007 49.619 88.6133C48.6405 87.6259 48.0899 86.2873 48.0884 84.8909C48.0899 83.4945 48.6405 82.1557 49.619 81.1683C50.5976 80.1809 51.9243 79.6256 53.3082 79.624C54.6921 79.6256 56.0189 80.1809 56.9975 81.1683C57.976 82.1557 58.5264 83.4945 58.528 84.8909C58.5264 86.2873 57.976 87.6259 56.9975 88.6133C56.0189 89.6007 54.6921 90.1561 53.3082 90.1576ZM53.3082 80.1931C52.0739 80.1946 50.8906 80.6901 50.0178 81.5708C49.145 82.4515 48.6539 83.6454 48.6524 84.8909C48.6539 86.1363 49.145 87.3303 50.0178 88.211C50.8906 89.0917 52.0739 89.587 53.3082 89.5886C54.5425 89.587 55.7258 89.0917 56.5986 88.211C57.4714 87.3303 57.9625 86.1363 57.964 84.8909C57.9579 83.6485 57.4649 82.4589 56.5926 81.582C55.7203 80.7051 54.5395 80.212 53.3082 80.2105V80.1931Z" fill="#3C7ABC"/>
<path d="M83.6483 47.6396L83.0728 43.4645L84.3446 43.1219C84.638 43.0373 84.9503 43.048 85.2374 43.1522C85.5245 43.2564 85.7718 43.4488 85.9445 43.7026L87.0955 45.4737C87.136 45.543 87.1618 45.6202 87.1713 45.7001C87.1807 45.78 87.1736 45.861 87.1503 45.938C87.127 46.015 87.0881 46.0862 87.0361 46.1472C86.9841 46.2083 86.9201 46.2578 86.8481 46.2925L83.6483 47.6396Z" fill="#0E4D9F"/>
<path d="M36.2563 52.854L37.3497 53.8935C37.6708 54.1995 38.0752 54.4018 38.511 54.4742C38.9469 54.5466 39.3941 54.4859 39.7955 54.2999L41.3263 53.5857C41.6882 53.4214 42.0804 53.3363 42.4773 53.3361H47.2482C47.4473 53.3354 47.6437 53.2889 47.8223 53.2C48.0008 53.111 48.1568 52.982 48.2785 52.8229C48.4001 52.6637 48.4841 52.4786 48.5239 52.2817C48.5638 52.0848 48.5585 51.8814 48.5085 51.6869L48.474 51.5591C48.345 51.0611 48.0393 50.6282 47.615 50.3425C47.1907 50.0567 46.6773 49.938 46.1721 50.0087C43.027 50.4083 39.8333 50.0907 36.826 49.0796C36.6686 49.029 36.5023 49.0133 36.3383 49.0334C36.1744 49.0534 36.0165 49.1088 35.8757 49.1958C35.7348 49.2829 35.6142 49.3995 35.522 49.5378C35.4298 49.676 35.3681 49.8327 35.3412 49.9971V50.1365C35.2659 50.6303 35.3097 51.1352 35.469 51.6083C35.6283 52.0814 35.8984 52.5087 36.2563 52.854Z" fill="#0E4D9F"/>
<path d="M87.6366 47.1748C87.6351 47.7344 87.4136 48.2705 87.0209 48.6657C86.6282 49.0608 86.0963 49.2826 85.5417 49.2826C84.9881 49.2811 84.4576 49.0585 84.0662 48.6635C83.6747 48.2686 83.4543 47.7334 83.4527 47.1748C83.4527 46.6152 83.6726 46.0784 84.0642 45.6821C84.4558 45.2859 84.9871 45.0626 85.5417 45.061C86.0973 45.061 86.6302 45.2837 87.023 45.6801C87.4159 46.0765 87.6366 46.6142 87.6366 47.1748Z" fill="#133C68"/>
<path d="M28.3114 86.6375C29.2644 85.6759 29.2644 84.117 28.3114 83.1555C27.3585 82.194 25.8135 82.194 24.8606 83.1555C23.9077 84.117 23.9077 85.6759 24.8606 86.6375C25.8135 87.599 27.3585 87.599 28.3114 86.6375Z" fill="#009D76"/>
<path d="M26.5649 87.6374C25.8439 87.6358 25.1531 87.3458 24.6438 86.8308C24.1346 86.3159 23.8486 85.6182 23.8486 84.8907C23.8501 84.1643 24.1367 83.468 24.6458 82.9543C25.1549 82.4406 25.8449 82.1514 26.5649 82.1499C27.2858 82.1499 27.9773 82.4385 28.4877 82.9523C28.998 83.4662 29.2855 84.1633 29.287 84.8907C29.287 85.6192 29.0003 86.3177 28.4898 86.8328C27.9793 87.3479 27.2868 87.6374 26.5649 87.6374ZM26.5649 82.719C25.9945 82.7205 25.448 82.9498 25.0447 83.3568C24.6413 83.7637 24.4141 84.3152 24.4125 84.8907C24.4125 85.4673 24.6391 86.0202 25.0426 86.4284C25.446 86.8366 25.9935 87.0668 26.5649 87.0683C27.1373 87.0683 27.6862 86.8389 28.0909 86.4305C28.4956 86.0221 28.723 85.4683 28.723 84.8907C28.7215 84.3142 28.4935 83.7618 28.0889 83.3547C27.6844 82.9475 27.1363 82.719 26.5649 82.719Z" fill="#3C7ABC"/>
<path d="M89.8658 85.4246C90.1765 84.1015 89.3654 82.7747 88.054 82.4612C86.7427 82.1477 85.4278 82.9661 85.1171 84.2893C84.8064 85.6124 85.6175 86.9392 86.9289 87.2527C88.2402 87.5662 89.5551 86.7478 89.8658 85.4246Z" fill="#009D76"/>
<path d="M87.4639 87.6374C86.742 87.6374 86.0495 87.3479 85.539 86.8328C85.0286 86.3177 84.7418 85.6192 84.7418 84.8907C84.7434 84.1633 85.0308 83.4662 85.5412 82.9523C86.0515 82.4385 86.743 82.1499 87.4639 82.1499C88.1839 82.1514 88.8738 82.4406 89.3829 82.9543C89.892 83.468 90.1787 84.1643 90.1802 84.8907C90.1802 85.6182 89.8943 86.3159 89.385 86.8308C88.8758 87.3458 88.1849 87.6358 87.4639 87.6374ZM87.4639 82.719C86.8926 82.719 86.3445 82.9475 85.9399 83.3547C85.5353 83.7618 85.3073 84.3142 85.3058 84.8907C85.3058 85.4683 85.5332 86.0221 85.9379 86.4305C86.3427 86.8389 86.8916 87.0683 87.4639 87.0683C88.0353 87.0668 88.5826 86.8366 88.9861 86.4284C89.3896 86.0202 89.6163 85.4673 89.6163 84.8907C89.6148 84.3152 89.3875 83.7637 88.9842 83.3568C88.5808 82.9498 88.0343 82.7205 87.4639 82.719Z" fill="#3C7ABC"/>
<path d="M52.7141 79.6191L26.5446 82.1431L26.5982 82.7095L52.7677 80.1856L52.7141 79.6191Z" fill="#3C7ABC"/>
<path d="M26.7261 86.9105L26.6736 87.4771L53.3926 89.997L53.445 89.4305L26.7261 86.9105Z" fill="#3C7ABC"/>
<path d="M53.3024 92.6834C53.1284 92.6834 52.9615 92.6136 52.8385 92.4895C52.7154 92.3653 52.6464 92.1971 52.6464 92.0215V84.8906H53.9528V92.0215C53.9528 92.1961 53.8845 92.3635 53.7627 92.4875C53.6409 92.6115 53.4754 92.6819 53.3024 92.6834Z" fill="#A7DFF8"/>
<path d="M55.7425 93.0261H50.8451C50.7441 93.0261 50.6441 93.0058 50.5509 92.9667C50.4576 92.9275 50.373 92.8702 50.3019 92.7978C50.2307 92.7255 50.1744 92.6396 50.1362 92.5452C50.0981 92.4508 50.079 92.3498 50.0797 92.2479C50.079 92.146 50.0981 92.045 50.1362 91.9506C50.1744 91.8562 50.2307 91.7703 50.3019 91.698C50.373 91.6256 50.4576 91.5683 50.5509 91.5291C50.6441 91.49 50.7441 91.4697 50.8451 91.4697H55.7425C55.8438 91.4697 55.9442 91.4899 56.0377 91.529C56.1313 91.5681 56.2162 91.6254 56.2878 91.6977C56.3594 91.7699 56.4163 91.8558 56.455 91.9502C56.4938 92.0446 56.5138 92.1457 56.5138 92.2479C56.5138 92.3501 56.4938 92.4512 56.455 92.5456C56.4163 92.64 56.3594 92.7258 56.2878 92.7981C56.2162 92.8704 56.1313 92.9277 56.0377 92.9668C55.9442 93.0059 55.8438 93.0261 55.7425 93.0261Z" fill="#EA5B0D"/>
</g>
<defs>
<clipPath id="clip0">
<rect width="114" height="124" fill="white"/>
</clipPath>
</defs>
</svg>
