<svg width="1024" height="681" viewBox="0 0 1024 681" fill="none" xmlns="http://www.w3.org/2000/svg">
<rect width="1024" height="681" fill="#E5E5E5"/>
<path d="M986.75 675.6H971V621.713C971 617.204 974.526 613.548 978.875 613.548C983.224 613.548 986.75 617.204 986.75 621.713V675.6Z" fill="url(#paint0_linear)"/>
<path d="M995.915 591C1000.98 591 1005.08 595.371 1005.08 600.762V675.6H986.75V600.762C986.75 595.37 990.853 591 995.915 591Z" fill="url(#paint1_linear)"/>
<path d="M1008.35 634.979C1013.53 634.979 1017.73 639.344 1017.73 644.728V675.6H998.971V644.728C998.971 639.343 1003.17 634.979 1008.35 634.979Z" fill="url(#paint2_linear)"/>
<path d="M1005.08 634.979V635.547C1002.16 636.863 999.229 640.487 999.229 644.728V675.6H996.303V644.728C996.303 639.349 1000.69 634.979 1005.08 634.979Z" fill="url(#paint3_linear)"/>
<rect width="1024" height="681" fill="#54A3FF"/>
<path d="M11.678 680.584L3.53623 594.725H59.5475V680.584H11.678Z" fill="url(#paint4_linear)" stroke="#968F8F"/>
<path d="M118.377 533.36L58.1458 535.262V591.055H118.377V533.36Z" fill="url(#paint5_linear)"/>
<path d="M366.908 520.045V482.322L237.57 491.832L109.805 515.29L106.33 532.092L366.908 520.045Z" fill="url(#paint6_linear)"/>
<path d="M3.48657 590.555V552.846L55.1094 549.114V590.555H3.48657Z" fill="url(#paint7_linear)" stroke="#968F8F"/>
<path d="M120.913 534.331L368.177 524.484V680.426L120.913 681.084V534.331Z" fill="#C4C4C4"/>
<path d="M368.177 524.483L474.691 540.334L469.302 681.084L368.177 680.425V524.483Z" fill="#CCCCCC"/>
<path d="M124.083 552.802L364.373 548.893V553.648L124.083 556.184V552.802Z" fill="#9C9A9A"/>
<path d="M124.083 560.411L364.373 556.501V561.256L124.083 563.792V560.411Z" fill="#9C9A9A"/>
<path d="M124.083 536.741L364.373 530.612V537.586L124.083 540.122V536.741Z" fill="#9C9A9A"/>
<path d="M124.083 544.56L364.373 540.65V545.405L124.083 547.941V544.56Z" fill="#9C9A9A"/>
<path d="M124.083 568.019L364.373 564.109V568.864L124.083 571.4V568.019Z" fill="#9C9A9A"/>
<path d="M124.083 575.627L364.373 571.717V576.472L124.083 579.008V575.627Z" fill="#9C9A9A"/>
<path d="M124.083 583.234L364.373 579.325V584.08L124.083 586.616V583.234Z" fill="#9C9A9A"/>
<path d="M124.083 590.843L364.373 586.933V591.688L124.083 594.224V590.843Z" fill="#9C9A9A"/>
<path d="M124.083 598.451L364.373 594.541V599.296L124.083 601.832V598.451Z" fill="#9C9A9A"/>
<path d="M124.083 606.059L364.373 602.149V606.904L124.083 609.441V606.059Z" fill="#9C9A9A"/>
<path d="M124.083 613.667L364.373 609.758V614.513L124.083 617.049V613.667Z" fill="#9C9A9A"/>
<path d="M124.083 622.544L364.373 618.634V623.389L124.083 625.925V622.544Z" fill="#9C9A9A"/>
<path d="M124.083 630.152L364.373 626.242V630.997L124.083 633.533V630.152Z" fill="#9C9A9A"/>
<path d="M124.083 637.76L364.373 633.851V638.606L124.083 641.142V637.76Z" fill="#9C9A9A"/>
<path d="M124.083 645.368L364.373 641.458V646.213L124.083 648.749V645.368Z" fill="#9C9A9A"/>
<path d="M124.083 652.976L364.373 649.066V653.821L124.083 656.357V652.976Z" fill="#9C9A9A"/>
<path d="M124.083 660.585L364.373 656.675V661.43L124.083 663.966V660.585Z" fill="#9C9A9A"/>
<path d="M124.083 668.192L364.373 664.282V669.038L124.083 671.574V668.192Z" fill="#9C9A9A"/>
<path d="M124.083 675.801L364.373 671.891V676.646L124.083 679.182V675.801Z" fill="#9C9A9A"/>
<path d="M371.345 524.973L374.834 525.507L373.628 678.548H371.345V524.973Z" fill="#B7B7B7"/>
<path d="M376.418 525.751L379.907 526.284L378.701 679.181H376.418V525.751Z" fill="#B7B7B7"/>
<path d="M381.491 526.385L384.98 526.916L383.773 679.182H381.491V526.385Z" fill="#B7B7B7"/>
<path d="M386.563 527.02L389.733 527.549L388.637 679.182H386.563V527.02Z" fill="#B7B7B7"/>
<path d="M391.001 527.654L394.171 528.181L393.075 679.182H391.001V527.654Z" fill="#B7B7B7"/>
<path d="M395.439 528.287L398.609 528.812L397.513 679.182H395.439V528.287Z" fill="#B7B7B7"/>
<path d="M399.877 528.921L402.413 529.444L401.536 679.182H399.877V528.921Z" fill="#B7B7B7"/>
<path d="M403.681 529.556L406.217 530.076L405.341 679.182H403.681V529.556Z" fill="#B7B7B7"/>
<path d="M407.485 530.189L410.021 530.71L409.145 679.816H407.485V530.189Z" fill="#B7B7B7"/>
<path d="M411.289 530.823L413.825 531.341L412.949 679.816H411.289V530.823Z" fill="#B7B7B7"/>
<path d="M415.094 531.457L417.63 531.973L416.753 679.815H415.094V531.457Z" fill="#B7B7B7"/>
<path d="M418.897 532.091L420.8 532.444L420.142 679.816H418.897V532.091Z" fill="#B7B7B7"/>
<path d="M422.068 532.725L423.97 533.076L423.312 679.815H422.068V532.725Z" fill="#B7B7B7"/>
<path d="M428.408 533.994L430.31 534.342L429.652 679.816H428.408V533.994Z" fill="#B7B7B7"/>
<path d="M425.238 533.36L427.14 533.709L426.482 679.816H425.238V533.36Z" fill="#B7B7B7"/>
<path d="M431.578 534.627L433.48 534.974L432.822 679.816H431.578V534.627Z" fill="#B7B7B7"/>
<path d="M434.748 534.627L436.65 534.975L435.992 680.45H434.748V534.627Z" fill="#B7B7B7"/>
<path d="M441.088 535.896L442.99 536.241L442.332 680.45H441.088V535.896Z" fill="#B7B7B7"/>
<path d="M444.258 536.53L445.526 536.771L444.922 680.45H444.258V536.53Z" fill="#B7B7B7"/>
<path d="M446.794 536.53L448.062 536.771L447.458 680.45H446.794V536.53Z" fill="#B7B7B7"/>
<path d="M449.33 537.163L450.598 537.403L449.994 680.449H449.33V537.163Z" fill="#B7B7B7"/>
<path d="M451.866 537.163L453.134 537.403L452.53 680.449H451.866V537.163Z" fill="#B7B7B7"/>
<path d="M454.402 537.797L455.67 538.036L455.066 680.45H454.402V537.797Z" fill="#B7B7B7"/>
<path d="M456.938 538.432L458.206 538.67L457.602 680.45H456.938V538.432Z" fill="#B7B7B7"/>
<path d="M459.474 538.432L460.742 538.67L460.138 680.45H459.474V538.432Z" fill="#B7B7B7"/>
<path d="M462.01 539.066L463.278 539.304L462.674 681.084H462.01V539.066Z" fill="#B7B7B7"/>
<path d="M464.546 539.066L465.814 539.304L465.21 681.084H464.546V539.066Z" fill="#B7B7B7"/>
<path d="M467.082 539.7L468.984 540.334L467.444 681.084H467.082V539.7Z" fill="#B7B7B7"/>
<path d="M437.918 535.262L439.82 535.608L439.162 680.45H437.918V535.262Z" fill="#B7B7B7"/>
<path d="M158.453 595.298V680.585H130.289V591.625L158.453 595.298Z" fill="#E6E6E6" stroke="#968F8F"/>
<path d="M427.457 531.775L367.543 482.64V519.754L427.457 531.775Z" fill="url(#paint8_linear)"/>
<rect x="366.5" y="521.149" width="44.6487" height="2.17005" transform="rotate(-90 366.5 521.149)" fill="#C4C4C4" stroke="#968F8F"/>
<rect x="281.11" y="579.725" width="44.6487" height="2.17005" transform="rotate(-90 281.11 579.725)" fill="#C4C4C4" stroke="#968F8F"/>
<path d="M118.243 591.823V532.592H120.413V591.823H118.243Z" fill="#C4C4C4" stroke="#968F8F"/>
<rect x="3.48657" y="591.555" width="116.926" height="2.17005" fill="#C4C4C4" stroke="#968F8F"/>
<path d="M100.49 534.744V532.571L367.043 520.569V524.954L100.49 534.744Z" fill="#C4C4C4" stroke="#968F8F"/>
<path d="M368.043 524.906V520.64L453.893 535.461L455.53 537.098L368.043 524.906Z" fill="#C4C4C4" stroke="#968F8F"/>
<path d="M52.3054 680.585V594.683L129.289 591.576V680.585H52.3054Z" fill="#EDEDED" stroke="#968F8F"/>
<path d="M329.159 485.279L329.146 485.28L329.133 485.282L287.33 490.529L287.329 490.53L255.243 494.484L255.23 494.486L255.217 494.488L229.68 499.048L229.674 499.049L207.586 503.276L207.57 503.279L207.555 503.283L175.53 511.507L175.518 511.51L147.345 519.451L147.337 519.453L147.329 519.455L125.049 526.538L125.045 526.539L101.151 533.947L101.151 533.947L101.14 533.951L75.3011 542.638L75.2962 542.64L-2.77249 569.782L-7.1919 554.631L136.885 504.566L179.49 492L179.5 491.997L207.893 484.256L207.904 484.253L265.007 471.306L366.57 454.457L366.44 482.581L329.159 485.279Z" fill="#C4C4C4" stroke="#968F8F"/>
<path d="M367.409 482.723V454.933L456.053 536.759L426.718 532.568L367.409 482.723Z" fill="#DBDBDB" stroke="#968F8F"/>
<line x1="89.0784" y1="613.245" x2="89.0784" y2="678.548" stroke="black"/>
<line x1="127.9" y1="611.843" x2="53.7206" y2="613.745" stroke="black"/>
<path d="M93.1503 646.848C93.1503 647.288 93.0304 647.664 92.8629 647.915C92.693 648.17 92.5132 648.25 92.3823 648.25C92.2513 648.25 92.0715 648.17 91.9017 647.915C91.7341 647.664 91.6143 647.288 91.6143 646.848C91.6143 646.408 91.7341 646.032 91.9017 645.78C92.0715 645.525 92.2513 645.446 92.3823 645.446C92.5132 645.446 92.693 645.525 92.8629 645.78C93.0304 646.032 93.1503 646.408 93.1503 646.848Z" fill="#C4C4C4" stroke="black"/>
<path d="M58.44 600.515L61.1056 600.468C62.3203 600.447 63.204 600.606 63.7569 600.944C64.3136 601.278 64.5985 601.822 64.6117 602.576C64.6206 603.087 64.5069 603.509 64.2704 603.841C64.0379 604.174 63.723 604.376 63.3258 604.45L63.3269 604.508C63.8719 604.62 64.2664 604.84 64.5104 605.168C64.7584 605.495 64.8871 605.934 64.8967 606.485C64.9104 607.266 64.6379 607.881 64.0792 608.328C63.5244 608.775 62.7627 609.007 61.7941 609.024L58.5895 609.08L58.44 600.515ZM60.3153 603.875L61.3699 603.857C61.862 603.848 62.2161 603.766 62.4321 603.61C62.6521 603.454 62.759 603.2 62.7529 602.848C62.7471 602.52 62.622 602.288 62.3774 602.152C62.1366 602.011 61.7565 601.946 61.237 601.955L60.2821 601.971L60.3153 603.875ZM60.3405 605.316L60.3795 607.549L61.5629 607.528C62.0628 607.519 62.4302 607.417 62.6651 607.222C62.9 607.026 63.014 606.731 63.0071 606.337C62.9947 605.626 62.4808 605.279 61.4653 605.297L60.3405 605.316ZM66.2901 600.7C66.28 600.118 66.5991 599.822 67.2474 599.81C67.8957 599.799 68.225 600.084 68.2352 600.666C68.24 600.944 68.1618 601.162 68.0004 601.321C67.843 601.476 67.6022 601.556 67.278 601.562C66.6296 601.573 66.3004 601.286 66.2901 600.7ZM68.297 608.911L66.5102 608.942L66.3959 602.392L68.1827 602.361L68.297 608.911ZM72.7958 603.429C72.4169 603.436 72.1222 603.562 71.9116 603.808C71.701 604.05 71.5839 604.392 71.5603 604.833L74.0678 604.79C74.0523 604.349 73.9311 604.011 73.7043 603.776C73.4775 603.538 73.1746 603.422 72.7958 603.429ZM73.144 608.943C72.0895 608.962 71.2603 608.685 70.6565 608.113C70.0527 607.542 69.7415 606.723 69.7229 605.657C69.7037 604.559 69.9623 603.707 70.4987 603.1C71.0389 602.489 71.7933 602.175 72.7619 602.158C73.6875 602.142 74.4127 602.393 74.9375 602.911C75.4622 603.429 75.7327 604.153 75.7489 605.083L75.7641 605.95L71.5401 606.023C71.5685 606.531 71.7258 606.925 72.012 607.205C72.2981 607.485 72.6951 607.621 73.2028 607.612C73.5973 607.605 73.9696 607.557 74.3197 607.469C74.6697 607.381 75.0346 607.244 75.4142 607.058L75.4383 608.44C75.1286 608.602 74.7967 608.723 74.4426 608.803C74.0885 608.888 73.6557 608.934 73.144 608.943ZM83.3123 608.648L81.5255 608.68L81.4587 604.854C81.4504 604.382 81.3603 604.03 81.1883 603.798C81.0162 603.563 80.7466 603.448 80.3794 603.455C79.8795 603.463 79.5212 603.638 79.3044 603.977C79.0876 604.313 78.9859 604.868 78.9994 605.641L79.0532 608.723L77.2664 608.754L77.152 602.204L78.5171 602.18L78.7719 603.014L78.8715 603.012C79.0651 602.692 79.3344 602.449 79.6792 602.283C80.0278 602.113 80.4248 602.024 80.87 602.016C81.6316 602.003 82.2133 602.2 82.615 602.607C83.0166 603.01 83.2242 603.6 83.2378 604.378L83.3123 608.648ZM86.7102 608.589L84.1002 602.083L85.969 602.05L87.2996 605.76C87.4485 606.23 87.5442 606.676 87.5867 607.097L87.6218 607.096C87.6348 606.721 87.7149 606.272 87.862 605.75L89.0565 601.996L90.9253 601.964L88.5439 608.557L86.7102 608.589ZM94.6011 603.048C94.2222 603.055 93.9275 603.181 93.7169 603.427C93.5063 603.669 93.3892 604.011 93.3656 604.453L95.873 604.409C95.8575 603.968 95.7364 603.63 95.5096 603.396C95.2828 603.157 94.9799 603.042 94.6011 603.048ZM94.9493 608.563C93.8948 608.581 93.0656 608.304 92.4618 607.733C91.858 607.161 91.5468 606.342 91.5281 605.276C91.509 604.179 91.7676 603.326 92.3039 602.719C92.8441 602.108 93.5985 601.794 94.5671 601.777C95.4928 601.761 96.218 602.012 96.7427 602.53C97.2675 603.049 97.538 603.773 97.5542 604.702L97.5693 605.569L93.3454 605.643C93.3738 606.15 93.531 606.544 93.8172 606.824C94.1034 607.104 94.5004 607.24 95.0081 607.231C95.4026 607.224 95.7748 607.177 96.1249 607.089C96.475 607.001 96.8399 606.863 97.2195 606.677L97.2436 608.06C96.9339 608.221 96.602 608.342 96.2478 608.423C95.8938 608.507 95.4609 608.554 94.9493 608.563ZM105.118 608.268L103.331 608.299L103.264 604.473C103.256 604.001 103.166 603.649 102.994 603.417C102.821 603.182 102.552 603.068 102.185 603.074C101.685 603.083 101.326 603.257 101.11 603.597C100.893 603.933 100.791 604.487 100.805 605.261L100.858 608.342L99.0716 608.373L98.9573 601.824L100.322 601.8L100.577 602.633L100.677 602.632C100.87 602.312 101.14 602.069 101.484 601.903C101.833 601.732 102.23 601.643 102.675 601.636C103.437 601.622 104.019 601.819 104.42 602.226C104.822 602.63 105.029 603.22 105.043 603.997L105.118 608.268ZM111.597 608.155L111.342 607.321L111.249 607.323C111.062 607.631 110.795 607.872 110.447 608.046C110.098 608.216 109.699 608.305 109.25 608.313C108.48 608.326 107.897 608.131 107.499 607.728C107.101 607.321 106.896 606.731 106.882 605.957L106.808 601.687L108.595 601.655L108.661 605.481C108.67 605.954 108.76 606.308 108.932 606.543C109.104 606.774 109.373 606.887 109.741 606.88C110.24 606.872 110.599 606.699 110.816 606.363C111.032 606.024 111.134 605.467 111.121 604.694L111.067 601.612L112.854 601.581L112.968 608.131L111.597 608.155ZM117.461 602.649C117.082 602.656 116.787 602.782 116.577 603.028C116.366 603.27 116.249 603.612 116.225 604.054L118.733 604.01C118.717 603.569 118.596 603.231 118.369 602.997C118.143 602.758 117.84 602.643 117.461 602.649ZM117.809 608.164C116.755 608.182 115.925 607.905 115.322 607.334C114.718 606.762 114.407 605.943 114.388 604.877C114.369 603.78 114.627 602.927 115.164 602.32C115.704 601.709 116.458 601.395 117.427 601.378C118.353 601.362 119.078 601.613 119.603 602.131C120.127 602.65 120.398 603.374 120.414 604.303L120.429 605.17L116.205 605.244C116.234 605.751 116.391 606.145 116.677 606.425C116.963 606.705 117.36 606.841 117.868 606.832C118.262 606.825 118.635 606.778 118.985 606.69C119.335 606.602 119.7 606.464 120.079 606.278L120.103 607.661C119.794 607.822 119.462 607.943 119.108 608.024C118.754 608.108 118.321 608.155 117.809 608.164Z" fill="black"/>
<rect x="145.823" y="537.674" width="196.543" height="27.8964" transform="rotate(-1.5 145.823 537.674)" fill="#D9D7D7"/>
<g filter="url(#filter0_d)">
<path d="M165.635 542.042L166.054 558.056L162.579 558.147L154.402 546.464L154.714 558.353L151.239 558.444L150.82 542.43L155.364 542.311L162.424 552.247L162.16 542.133L165.634 542.042L165.635 542.042ZM181.844 551.118L181.868 552.049C181.837 552.316 181.843 552.538 181.848 552.76C181.816 552.982 181.822 553.204 181.827 553.382L171.173 553.661C171.34 554.189 171.732 554.579 172.312 554.829C172.892 555.081 173.736 555.192 174.843 555.163L175.569 555.144C175.872 555.091 176.178 555.083 176.522 555.074C176.826 555.022 177.17 555.013 177.552 555.003C177.894 554.95 178.238 554.941 178.581 554.932C179.42 554.863 180.259 554.797 181.098 554.733L181.162 557.173C180.44 557.324 179.718 557.476 178.996 557.629C178.387 557.733 177.702 557.84 176.979 557.948C176.256 558.056 175.569 558.074 174.919 558.091C173.584 558.126 172.437 558.111 171.515 557.958C170.595 557.849 169.824 557.558 169.24 557.174C168.656 556.745 168.221 556.179 167.972 555.431C167.685 554.684 167.545 553.711 167.514 552.513C167.483 551.316 167.571 550.337 167.819 549.575C168.028 548.815 168.432 548.183 168.994 547.77C169.555 547.31 170.311 546.98 171.224 546.823C172.137 546.666 173.28 546.547 174.617 546.512C175.686 546.484 176.68 546.547 177.562 546.657C178.406 546.767 179.177 547.014 179.797 547.353C180.418 547.736 180.927 548.212 181.287 548.823C181.609 549.436 181.82 550.186 181.844 551.118ZM178.211 550.99L178.198 550.503C178.16 550.365 178.105 550.232 178.035 550.107C177.955 549.976 177.799 549.847 177.529 549.766C177.297 549.683 176.952 549.603 176.492 549.57C175.894 549.527 175.295 549.513 174.695 549.529C173.512 549.56 172.637 549.716 172.071 549.997C171.505 550.278 171.173 550.73 171.074 551.355L178.215 551.168L178.211 550.99ZM189.238 557.716C188.284 557.741 187.48 557.717 186.751 557.559C186.021 557.445 185.403 557.15 184.934 556.763C184.425 556.332 184.067 555.764 183.78 555.018C183.531 554.269 183.391 553.296 183.359 552.098L183.213 546.509L186.688 546.418L186.834 552.007C186.846 552.451 186.931 552.804 187.016 553.113C187.099 553.376 187.258 553.594 187.416 553.768C187.625 553.951 187.877 554.082 188.151 554.148C188.42 554.185 188.764 554.221 189.146 554.211L189.796 554.194C190.024 554.188 190.215 554.138 190.443 554.132C190.633 554.084 190.901 554.077 191.128 554.026C191.395 554.019 191.7 553.967 192.081 553.912L191.881 546.282L195.356 546.191L195.633 556.793C195.139 556.895 194.683 556.995 194.19 557.097C193.733 557.198 193.239 557.299 192.744 557.357C192.212 557.46 191.679 557.518 191.108 557.622C190.536 557.681 189.925 557.698 189.238 557.716ZM204.145 547.693L204.226 550.798L200.752 550.888L200.915 557.143L197.402 557.235L197.193 549.251C197.157 547.875 197.202 546.675 197.366 545.65C197.492 544.626 197.815 543.774 198.368 543.049C198.885 542.37 199.636 541.817 200.657 541.435C201.641 541.099 202.973 540.887 204.653 540.843L205.608 540.818L205.692 544.011L204.698 544.037C203.897 544.058 203.212 544.165 202.72 544.356C202.228 544.546 201.815 544.823 201.518 545.142C201.222 545.504 201.04 545.864 200.899 546.312C200.796 546.759 200.733 547.249 200.708 547.782L204.144 547.692L204.145 547.693ZM215.845 556.752L210.112 545.005L210.423 556.894L206.948 556.985L206.529 540.971L211.302 540.846L216.63 551.716L221.42 540.581L226.155 540.457L226.574 556.471L223.099 556.562L222.788 544.673L217.677 556.704L215.845 556.752ZM235.098 544.928C236.473 544.892 237.583 544.952 238.502 545.061C239.422 545.17 240.194 545.46 240.779 545.889C241.362 546.273 241.798 546.884 242.047 547.632C242.334 548.379 242.474 549.352 242.505 550.55C242.537 551.747 242.448 552.727 242.2 553.488C241.991 554.248 241.586 554.835 241.025 555.294C240.462 555.708 239.707 556.039 238.794 556.196C237.883 556.397 236.777 556.471 235.401 556.507C234.065 556.542 232.919 556.527 231.997 556.374C231.077 556.265 230.344 555.973 229.761 555.589C229.176 555.16 228.741 554.595 228.493 553.847C228.206 553.099 228.065 552.126 228.034 550.929C228.002 549.731 228.092 548.752 228.339 547.99C228.548 547.23 228.952 546.598 229.514 546.185C230.076 545.725 230.793 545.396 231.706 545.239C232.619 545.082 233.762 544.963 235.098 544.928L235.098 544.928ZM235.31 553.002C236.035 552.983 236.607 552.924 237.064 552.867C237.521 552.811 237.901 552.713 238.163 552.528C238.427 552.388 238.573 552.118 238.68 551.848C238.787 551.535 238.814 551.135 238.802 550.647C238.788 550.115 238.739 549.716 238.616 549.408C238.494 549.101 238.335 548.883 238.064 548.757C237.793 548.586 237.408 548.508 236.948 548.431C236.489 548.399 235.916 548.414 235.19 548.433C234.503 548.451 233.892 548.467 233.435 548.523C232.979 548.624 232.638 548.721 232.375 548.906C232.111 549.046 231.926 549.273 231.82 549.586C231.728 549.996 231.687 550.414 231.699 550.833C231.712 551.321 231.799 551.718 231.884 552.026C232.005 552.29 232.203 552.551 232.474 552.677C232.746 552.847 233.092 552.927 233.551 552.96C234.01 552.992 234.622 553.02 235.31 553.002ZM247.432 544.606L243.945 545.718L244.215 556.01L247.728 555.918L247.432 544.606ZM247.187 541.104C247.193 541.327 247.161 541.593 247.053 541.818C246.982 542.043 246.873 542.223 246.763 542.403C246.62 542.576 246.441 542.716 246.238 542.817C246.051 542.954 245.861 543.004 245.632 543.01C245.403 543.016 245.211 542.977 245.017 542.849C244.809 542.759 244.623 542.628 244.472 542.463C244.352 542.289 244.233 542.115 244.151 541.894C244.031 541.675 243.985 541.411 243.98 541.189C243.973 540.922 244.005 540.7 244.114 540.475C244.185 540.251 244.293 540.027 244.403 539.846C244.552 539.709 244.74 539.571 244.927 539.432C245.116 539.339 245.305 539.29 245.535 539.284C245.764 539.278 245.956 539.317 246.149 539.4C246.343 539.529 246.538 539.657 246.694 539.786C246.813 539.961 246.933 540.179 247.016 540.399C247.136 540.618 247.18 540.838 247.187 541.104ZM257.588 544.34C258.963 544.304 260.073 544.363 260.993 544.472C261.951 544.58 262.684 544.872 263.268 545.3C263.852 545.685 264.288 546.295 264.537 547.043C264.824 547.79 264.964 548.763 264.995 549.961L265.139 555.462L261.435 555.559L261.291 550.058C261.277 549.526 261.229 549.127 261.107 548.819C261.071 548.678 261.002 548.546 260.907 548.433C260.811 548.32 260.691 548.23 260.554 548.168C260.282 547.998 259.898 547.919 259.438 547.842C258.978 547.81 258.406 547.825 257.68 547.844L256.802 547.867C256.459 547.92 256.116 547.929 255.734 547.939C255.391 547.993 254.973 548.048 254.591 548.058C254.21 548.113 253.828 548.123 253.486 548.176L253.684 555.762L250.21 555.853L249.919 544.762L252.44 544.696L252.875 545.262C253.365 545.027 254.047 544.787 254.883 544.632C255.775 544.461 256.68 544.363 257.588 544.34ZM279.031 551.902C279.048 552.567 278.947 553.102 278.73 553.552C278.514 554.046 278.103 554.412 277.537 554.693C276.972 554.974 276.252 555.215 275.3 555.329C274.387 555.485 273.241 555.515 271.866 555.551C271.332 555.565 270.796 555.535 270.222 555.506C269.686 555.432 269.188 555.4 268.689 555.324C268.192 555.293 267.769 555.216 267.348 555.182C266.964 555.103 266.657 555.067 266.427 555.028L266.359 552.455C267.124 552.48 267.851 552.505 268.538 552.487C269.15 552.515 269.762 552.544 270.374 552.528C270.858 552.549 271.342 552.551 271.826 552.534C272.59 552.514 273.201 552.542 273.659 552.53C274.117 552.474 274.498 552.464 274.726 552.414C274.902 552.383 275.069 552.318 275.218 552.224C275.292 552.133 275.365 551.997 275.363 551.909C275.36 551.776 275.357 551.687 275.278 551.601C275.168 551.546 275.052 551.505 274.931 551.477C274.69 551.428 274.447 551.39 274.202 551.362C273.896 551.37 273.514 551.336 273.016 551.305C271.524 551.21 270.297 551.065 269.376 550.912C268.417 550.759 267.685 550.512 267.181 550.259C266.638 549.962 266.285 549.616 266.083 549.178C265.88 548.739 265.79 548.209 265.775 547.632C265.759 547.011 265.859 546.475 266.077 546.026C266.331 545.531 266.704 545.166 267.269 544.885C267.834 544.559 268.592 544.317 269.506 544.205C270.419 544.047 271.563 543.974 272.976 543.937L274.813 544.021C275.363 544.087 275.913 544.161 276.461 544.245C277.036 544.318 277.573 544.393 278.073 544.513L278.143 547.175C277.748 547.13 277.352 547.096 276.956 547.073C276.496 547.04 276.038 547.052 275.54 547.021C275.043 546.99 274.585 547.001 274.126 546.97C273.667 546.982 273.284 546.947 272.979 546.955L271.146 547.003C270.787 547.01 270.43 547.049 270.079 547.119C269.813 547.171 269.662 547.219 269.55 547.311C269.474 547.399 269.435 547.511 269.443 547.625C269.445 547.714 269.486 547.801 269.526 547.889C269.604 547.932 269.681 547.973 269.873 548.013C270.027 548.053 270.258 548.092 270.563 548.084C270.97 548.128 271.379 548.161 271.788 548.185C273.281 548.279 274.506 548.38 275.467 548.577C276.388 548.73 277.12 548.977 277.663 549.274C278.166 549.527 278.557 549.872 278.722 550.311C278.924 550.751 279.015 551.281 279.031 551.902ZM280.318 547.073C280.282 545.698 280.365 544.498 280.529 543.472C280.693 542.447 281.053 541.594 281.608 540.869C282.125 540.19 282.912 539.636 283.935 539.299C284.957 538.917 286.327 538.704 287.969 538.661C288.732 538.641 289.496 538.621 290.224 538.69C290.989 538.715 291.678 538.786 292.29 538.814C292.942 538.886 293.517 538.959 294.015 539.035C294.514 539.111 294.899 539.189 295.205 539.226L295.291 542.509C295.138 542.468 294.87 542.475 294.447 542.397C294.026 542.364 293.489 542.29 292.839 542.262C292.189 542.235 291.461 542.165 290.62 542.143C289.817 542.119 288.939 542.142 288.023 542.166C287.068 542.191 286.307 542.3 285.74 542.537C285.211 542.773 284.799 543.094 284.542 543.501C284.286 543.951 284.146 544.443 284.085 545.022C284.024 545.601 284.003 546.267 284.022 546.976C284.04 547.686 284.096 548.351 284.187 548.926C284.279 549.5 284.444 549.984 284.722 550.377C285 550.769 285.428 551.068 285.969 551.276C286.548 551.527 287.314 551.596 288.269 551.571C289.3 551.544 290.215 551.476 291.092 551.408C291.969 551.341 292.769 551.231 293.417 551.17C294.216 551.06 294.939 550.952 295.585 550.802L295.671 554.085C295.406 554.181 295.025 554.235 294.531 554.337C293.963 554.452 293.392 554.556 292.819 554.648C292.173 554.754 291.448 554.817 290.725 554.881C289.963 554.989 289.2 555.009 288.397 555.03C286.756 555.073 285.378 554.976 284.337 554.648C283.297 554.321 282.483 553.853 281.93 553.157C281.339 552.507 280.934 551.63 280.716 550.615C280.499 549.599 280.353 548.404 280.318 547.073ZM300.751 543.831C301.168 543.686 301.586 543.586 302.042 543.486C302.421 543.388 302.878 543.331 303.372 543.229C303.906 543.171 304.401 543.114 304.973 543.099C306.31 543.064 307.457 543.122 308.377 543.232C309.297 543.34 310.069 543.631 310.615 544.06C311.199 544.445 311.635 545.055 311.884 545.803C312.171 546.55 312.311 547.523 312.342 548.721L312.486 554.222L308.821 554.318L308.677 548.817C308.663 548.285 308.614 547.886 308.491 547.579C308.369 547.271 308.172 547.055 307.902 546.928C307.629 546.758 307.283 546.678 306.823 546.601C306.364 546.569 305.752 546.585 305.065 546.603L304.187 546.626C303.845 546.679 303.501 546.688 303.119 546.698C302.739 546.753 302.358 546.807 301.976 546.817C301.557 546.873 301.175 546.883 300.833 546.936L301.031 554.522L297.557 554.613L297.137 538.598L300.612 538.507L300.751 543.83L300.751 543.831ZM328.085 547.288L328.109 548.22C328.116 548.485 328.084 548.708 328.09 548.93C328.096 549.152 328.063 549.375 328.068 549.552L317.415 549.831C317.582 550.36 317.974 550.749 318.554 551C319.134 551.251 319.977 551.362 321.084 551.333L321.81 551.314C322.114 551.262 322.419 551.254 322.763 551.245C323.068 551.193 323.411 551.184 323.793 551.174C324.136 551.12 324.517 551.11 324.823 551.102C325.623 551.037 326.462 550.97 327.339 550.903L327.403 553.343C326.681 553.494 325.998 553.646 325.275 553.798C324.591 553.91 323.906 554.016 323.221 554.118C322.497 554.226 321.81 554.244 321.161 554.261C319.825 554.296 318.678 554.282 317.757 554.128C316.837 554.019 316.065 553.729 315.482 553.344C314.898 552.916 314.462 552.35 314.213 551.602C313.926 550.854 313.786 549.882 313.755 548.684C313.724 547.486 313.813 546.507 314.06 545.746C314.27 544.986 314.673 544.354 315.236 543.94C315.797 543.481 316.553 543.151 317.465 542.994C318.378 542.836 319.521 542.717 320.857 542.682C321.927 542.654 322.922 542.717 323.804 542.828C324.686 542.937 325.418 543.185 326.038 543.524C326.66 543.907 327.168 544.382 327.528 544.994C327.888 545.606 328.061 546.356 328.085 547.288ZM324.452 547.161L324.439 546.673C324.435 546.54 324.356 546.409 324.276 546.278C324.196 546.146 324.04 546.018 323.808 545.935C323.459 545.83 323.099 545.764 322.734 545.741C322.136 545.697 321.536 545.683 320.936 545.699C319.753 545.73 318.878 545.886 318.312 546.168C317.747 546.449 317.415 546.901 317.316 547.525L324.456 547.338L324.452 547.161ZM329.66 543.207C330.19 543.06 330.761 542.956 331.407 542.806C332.015 542.701 332.664 542.64 333.31 542.534C333.958 542.473 334.644 542.41 335.33 542.348C336.016 542.286 336.666 542.269 337.353 542.251L337.43 545.179C336.704 545.198 336.095 545.302 335.562 545.36C335.068 545.462 334.612 545.563 334.27 545.617C333.852 545.716 333.511 545.814 333.207 545.91L333.411 553.674L329.936 553.765L329.66 543.207Z" fill="#E06329"/>
</g>
<path d="M418.998 608.12C409.661 610.745 401.28 616.004 394.866 623.264C388.452 630.523 384.277 639.474 382.844 649.038L382.493 651.369C382.441 651.71 382.477 652.058 382.595 652.382C382.714 652.705 382.911 652.994 383.171 653.222C383.43 653.449 383.742 653.608 384.079 653.685C384.416 653.761 384.767 653.752 385.1 653.658L387.376 653.019C396.713 650.393 405.093 645.134 411.507 637.875C417.922 630.616 422.096 621.665 423.53 612.101L424.354 606.615L418.998 608.12Z" fill="url(#paint9_linear)"/>
<path d="M388.52 651.139C387.556 641.488 383.832 632.322 377.797 624.745C371.762 617.167 363.672 611.501 354.502 608.429L352.267 607.678C351.94 607.569 351.591 607.543 351.252 607.604C350.913 607.664 350.594 607.809 350.325 608.025C350.056 608.24 349.845 608.52 349.711 608.839C349.578 609.157 349.525 609.505 349.56 609.849L349.795 612.201C350.759 621.852 354.483 631.018 360.518 638.596C366.553 646.173 374.643 651.839 383.813 654.911L389.072 656.675L388.52 651.139Z" fill="url(#paint10_linear)"/>
<path d="M375.331 640.917H362.745C355.371 632.932 350.82 622.698 349.806 611.815L349.56 609.576C349.517 609.082 349.607 608.586 349.819 608.139L375.331 640.917Z" fill="url(#paint11_linear)"/>
<path d="M395.439 641.214C399.361 627.517 393.816 608.741 383.116 599.495L375.81 593.182C375.555 592.961 375.25 592.809 374.923 592.739C374.596 592.67 374.256 592.684 373.936 592.782C373.615 592.879 373.324 593.057 373.088 593.298C372.852 593.539 372.68 593.837 372.587 594.163L369.909 603.516C365.987 617.214 371.532 635.989 382.232 645.236L391.897 653.587L395.439 641.214Z" fill="url(#paint12_linear)"/>
<path d="M403.803 626.653L402.443 616.799C408.549 609.562 416.905 604.124 426.203 601.335L428.112 600.732C428.534 600.609 428.973 600.588 429.382 600.672L403.803 626.653Z" fill="url(#paint13_linear)"/>
<path d="M380.325 679.692H397.096C399.875 679.692 396.899 677.256 396.442 676.212C396.512 674.613 394.595 673.428 394.595 671.167V654.115C394.595 651.854 394.555 649.686 394.485 648.087C394.414 646.488 394.319 645.59 394.219 645.59L385.044 649.069C384.944 649.076 383.723 649.211 383.652 650.809C383.582 652.408 382.925 651.859 382.925 654.115L381.993 671.167C380.881 674.124 380.255 674.613 380.325 676.212C380.396 677.811 378.38 679.692 380.325 679.692Z" fill="url(#paint14_linear)"/>
<path d="M393.869 608.119C384.532 610.744 376.152 616.003 369.738 623.263C363.324 630.522 359.149 639.473 357.716 649.037L357.364 651.368C357.313 651.709 357.348 652.057 357.467 652.38C357.585 652.704 357.783 652.993 358.042 653.22C358.301 653.448 358.614 653.607 358.951 653.684C359.288 653.76 359.639 653.751 359.971 653.657L362.247 653.018C371.584 650.392 379.965 645.133 386.379 637.874C392.793 630.614 396.968 621.664 398.401 612.1L399.226 606.614L393.869 608.119Z" fill="url(#paint15_linear)"/>
<path d="M363.392 651.139C362.428 641.487 358.704 632.321 352.668 624.744C346.633 617.166 338.544 611.501 329.374 608.429L327.139 607.678C326.812 607.568 326.463 607.542 326.124 607.603C325.785 607.663 325.466 607.808 325.197 608.024C324.927 608.24 324.716 608.52 324.583 608.838C324.449 609.157 324.397 609.504 324.431 609.848L324.666 612.2C325.63 621.851 329.354 631.017 335.389 638.595C341.425 646.172 349.514 651.838 358.684 654.91L363.944 656.675L363.392 651.139Z" fill="url(#paint16_linear)"/>
<path d="M350.202 640.916H337.617C330.243 632.932 325.692 622.697 324.677 611.814L324.431 609.576C324.389 609.082 324.479 608.585 324.691 608.138L350.202 640.916Z" fill="url(#paint17_linear)"/>
<path d="M370.311 641.213C374.233 627.516 368.688 608.74 357.987 599.494L350.682 593.181C350.427 592.96 350.122 592.808 349.795 592.739C349.467 592.669 349.128 592.683 348.807 592.781C348.487 592.878 348.195 593.056 347.96 593.297C347.724 593.538 347.552 593.836 347.458 594.162L344.781 603.515C340.858 617.213 346.403 635.988 357.104 645.235L366.768 653.586L370.311 641.213Z" fill="url(#paint18_linear)"/>
<path d="M378.675 626.651L377.315 616.798C383.421 609.561 391.777 604.122 401.075 601.333L402.984 600.731C403.406 600.607 403.845 600.586 404.254 600.671L378.675 626.651Z" fill="url(#paint19_linear)"/>
<path d="M355.197 679.691H371.968C374.746 679.691 371.77 677.255 371.313 676.211C371.384 674.612 369.467 673.427 369.467 671.166V654.114C369.467 651.853 369.427 649.685 369.356 648.086C369.286 646.487 369.19 645.589 369.09 645.589L359.916 649.068C359.816 649.075 358.594 649.21 358.524 650.808C358.453 652.407 357.796 651.858 357.796 654.114L356.864 671.166C355.753 674.123 355.126 674.612 355.197 676.211C355.267 677.81 353.252 679.691 355.197 679.691Z" fill="url(#paint20_linear)"/>
<path d="M358.449 607.424C349.111 610.049 340.731 615.308 334.317 622.568C327.903 629.827 323.728 638.778 322.295 648.342L321.943 650.673C321.892 651.014 321.927 651.362 322.046 651.686C322.164 652.009 322.362 652.298 322.621 652.526C322.881 652.753 323.193 652.912 323.53 652.989C323.867 653.065 324.218 653.056 324.55 652.962L326.826 652.323C336.164 649.697 344.544 644.438 350.958 637.179C357.372 629.92 361.547 620.969 362.98 611.405L363.805 605.919L358.449 607.424Z" fill="url(#paint21_linear)"/>
<path d="M327.971 650.444C327.007 640.792 323.283 631.626 317.247 624.049C311.212 616.472 303.122 610.806 293.952 607.734L291.717 606.983C291.391 606.873 291.042 606.848 290.703 606.908C290.363 606.969 290.045 607.113 289.776 607.329C289.506 607.545 289.295 607.825 289.162 608.143C289.028 608.462 288.976 608.809 289.01 609.153L289.245 611.505C290.209 621.157 293.933 630.323 299.968 637.9C306.004 645.477 314.093 651.143 323.263 654.215L328.522 655.98L327.971 650.444Z" fill="url(#paint22_linear)"/>
<path d="M314.781 640.221H302.196C294.822 632.237 290.271 622.002 289.256 611.119L289.01 608.881C288.968 608.387 289.057 607.89 289.27 607.444L314.781 640.221Z" fill="url(#paint23_linear)"/>
<path d="M334.89 640.518C338.812 626.821 333.267 608.045 322.566 598.799L315.261 592.486C315.006 592.265 314.701 592.114 314.373 592.044C314.046 591.974 313.706 591.988 313.386 592.086C313.065 592.184 312.774 592.361 312.539 592.602C312.303 592.844 312.131 593.141 312.037 593.467L309.359 602.82C305.437 616.518 310.982 635.294 321.683 644.54L331.347 652.891L334.89 640.518Z" fill="url(#paint24_linear)"/>
<path d="M343.253 625.956L341.894 616.103C348 608.866 356.356 603.428 365.654 600.639L367.562 600.036C367.985 599.912 368.424 599.891 368.833 599.976L343.253 625.956Z" fill="url(#paint25_linear)"/>
<path d="M319.776 678.996H336.546C339.325 678.996 336.349 676.56 335.892 675.517C335.963 673.918 334.046 672.732 334.046 670.471V653.419C334.046 651.158 334.006 648.99 333.935 647.391C333.865 645.792 333.769 644.894 333.669 644.894L324.495 648.374C324.395 648.38 323.173 648.515 323.103 650.114C323.032 651.712 322.375 651.163 322.375 653.419L321.443 670.471C320.331 673.429 319.705 673.918 319.776 675.517C319.846 677.115 317.831 678.996 319.776 678.996Z" fill="url(#paint26_linear)"/>
<path opacity="0.05" d="M263.5 362C284.211 362 301 345.658 301 325.5C301 305.342 284.211 289 263.5 289C242.789 289 226 305.342 226 325.5C226 345.658 242.789 362 263.5 362Z" fill="white" stroke="white" stroke-width="2"/>
<path opacity="0.05" d="M589.5 300C721.22 300 828 193.22 828 61.5C828 -70.2199 721.22 -177 589.5 -177C457.78 -177 351 -70.2199 351 61.5C351 193.22 457.78 300 589.5 300Z" fill="white" stroke="white" stroke-width="2"/>
<path opacity="0.05" d="M110 201C191.186 201 257 134.514 257 52.5C257 -29.5143 191.186 -96 110 -96C28.8141 -96 -37 -29.5143 -37 52.5C-37 134.514 28.8141 201 110 201Z" fill="white" stroke="white" stroke-width="2"/>
<path d="M942.5 -80C812.437 -80 707 25.6608 707 156C707 286.339 812.437 392 942.5 392C1072.56 392 1178 286.339 1178 156C1178 25.6608 1072.56 -80 942.5 -80Z" fill="url(#paint27_linear)"/>
<path d="M532 574.178C532 574.178 653.548 481.994 675.606 504.101C690.448 518.967 685.1 541.146 679.998 554.074C677.139 561.341 672.26 568.256 665.715 574.177C655.55 583.385 638.541 595.035 622.007 589.46C609.017 585.091 608.941 572.189 612.127 560.397C615.751 546.896 624.109 533.81 635.444 522.447C653.262 504.605 695.466 482.731 744.5 472" stroke="url(#paint28_linear)" stroke-width="2" stroke-miterlimit="10" stroke-dasharray="3.07 3.07"/>
<path d="M711 468.685C686.957 446.555 662.155 430.385 633.106 417C633.331 424.986 633.444 428.979 633.669 436.994C584.374 439.131 540.956 453.022 499 480.018C505.636 490.872 512.301 501.699 518.937 512.553C555.241 489.523 592.304 477.656 634.737 475.547C634.962 483.533 635.075 487.526 635.3 495.54C659.68 481.621 683.583 473.438 711 468.685Z" fill="url(#paint29_linear)"/>
<path d="M873.323 508.998H854.409V512.946H873.323V508.998Z" fill="url(#paint30_linear)"/>
<path d="M854.867 649.533C854.867 650.28 854.265 650.882 853.519 650.882C852.772 650.882 852.17 650.28 852.17 649.533C852.17 648.787 852.772 648.185 853.519 648.185C854.265 648.173 854.867 648.787 854.867 649.533Z" fill="white"/>
<path d="M530.894 677.165C537.703 677.165 543.222 669.586 543.222 660.237C543.222 650.888 537.703 643.31 530.894 643.31C524.085 643.31 518.566 650.888 518.566 660.237C518.566 669.586 524.085 677.165 530.894 677.165Z" fill="#3E4039"/>
<path d="M520.841 660.177C520.841 667.69 523.671 673.769 527.162 673.769C530.653 673.769 533.483 667.677 533.483 660.177C533.483 652.664 530.653 646.584 527.162 646.584C523.671 646.572 520.841 652.664 520.841 660.177Z" fill="#D6E3DD"/>
<path d="M430.257 653.471C430.257 666.004 435.169 676.165 441.213 676.165C447.269 676.165 452.169 666.004 452.169 653.471C452.169 640.938 447.257 630.777 441.213 630.777C435.169 630.777 430.257 640.938 430.257 653.471Z" fill="#3E4039"/>
<path d="M432.316 653.952C432.316 662.332 434.254 669.134 436.626 669.134C439.01 669.134 440.936 662.332 440.936 653.952C440.936 645.573 439.01 638.771 436.626 638.771C434.242 638.771 432.316 645.573 432.316 653.952Z" fill="#D6E3DD"/>
<path d="M583.266 679.982C592.96 679.982 600.819 669.201 600.819 655.903C600.819 642.605 592.96 631.824 583.266 631.824C573.571 631.824 565.712 642.605 565.712 655.903C565.712 669.201 573.571 679.982 583.266 679.982Z" fill="#3E4039"/>
<path d="M570.432 654.037C570.432 665.306 575.151 674.444 580.99 674.444C586.817 674.444 591.549 665.306 591.549 654.037C591.549 642.768 586.829 633.63 580.99 633.63C575.151 633.642 570.432 642.768 570.432 654.037Z" fill="#D6E3DD"/>
<path d="M473.117 679.921C481.947 679.921 489.105 669.141 489.105 655.843C489.105 642.544 481.947 631.764 473.117 631.764C464.287 631.764 457.129 642.544 457.129 655.843C457.129 669.141 464.287 679.921 473.117 679.921Z" fill="#3E4039"/>
<path d="M459.573 655.722C459.573 665.173 463.04 672.842 467.326 672.842C471.612 672.842 475.079 665.173 475.079 655.722C475.079 646.271 471.612 638.602 467.326 638.602C463.04 638.602 459.573 646.271 459.573 655.722Z" fill="#D6E3DD"/>
<path d="M430.317 653.627C430.317 653.627 429.017 628.718 432.508 631.246C432.508 631.246 436.843 635.304 436.602 646.657C436.602 646.657 436.361 660.261 442.02 661.345L457.863 662.934C457.863 662.934 455.118 652.845 460.343 641.287C460.343 641.287 460.753 621.374 466.52 629.44C466.881 629.946 466.929 630.247 467.531 631.704C469.289 636.014 472.684 646.067 472.202 658.287L472.238 658.395C472.299 658.648 472.479 659.322 472.78 660.165L472.792 660.201C473.274 661.585 474.104 663.391 475.26 664.547C475.26 664.547 483.628 664.848 496.137 665.161C524.802 665.896 575.283 666.75 596.894 664.355C598.953 664.138 600.747 663.873 602.24 663.584C602.24 663.584 604.021 660.743 604.792 657.697C605.069 656.649 605.213 655.578 605.129 654.603C605.129 654.603 605.057 632.691 599.519 623.782C599.519 623.782 597.171 611.718 587.961 607.167C587.961 607.167 585.252 604.591 581.231 600.895C571.359 591.805 553.637 575.925 549.194 574.89C549.194 574.89 513.798 564.536 472.383 571.278C472.383 571.278 458.899 573.373 449.099 583.799C449.099 583.799 446.859 586.737 444.704 591.059C443.115 594.261 441.586 598.246 441.068 602.352C441.068 602.352 441.044 602.388 440.984 602.436C440.322 603.146 435.783 608.107 434.964 609.973C434.025 612.128 431.75 623.12 430.703 627.863C430.703 627.875 424.887 646.283 430.317 653.627Z" fill="url(#paint31_linear)"/>
<path d="M585.469 600.353L585.481 600.426C585.577 600.606 585.914 601.353 585.95 602.918C585.962 603.424 584.024 603.568 584.024 603.568L581.05 600.907L576.006 596.176C576.006 596.164 581.664 594.045 585.469 600.353Z" fill="#183964"/>
<path d="M465.918 587.676C465.918 587.676 466.712 579.044 463.401 578.454C463.401 578.454 460.801 578.153 460.404 578.803C457.297 583.992 453.409 592.576 451.759 603.243C451.759 603.243 458.935 607.047 461.764 604.531C464.593 602.027 465.918 587.676 465.918 587.676Z" fill="url(#paint32_linear)"/>
<path d="M458.634 578.189C458.634 578.189 447.883 584.124 444.993 597.536C444.993 597.536 450.29 599.547 450.856 599.065C451.422 598.583 455.347 584.702 459.043 579.405C459.043 579.393 460.006 577.948 458.634 578.189Z" fill="url(#paint33_linear)"/>
<path d="M569.155 602.28C570.745 602.316 571.551 600.366 570.383 599.27C563.93 593.166 553.227 581.235 547.822 579.212C545.582 578.779 525.561 574.999 504.998 574.999C493.428 574.999 483.82 576.166 476.368 578.478C475.646 578.707 475.164 579.369 475.152 580.127C475.08 586.568 478.09 597.705 478.824 600.775C479.005 601.557 479.715 602.087 480.521 602.087C485.542 602.063 502.301 602.003 520.54 602.003C545.811 602.003 560.523 602.123 569.155 602.28Z" fill="url(#paint34_linear)"/>
<path d="M582.952 614.307C585.408 611.647 587.937 607.168 587.937 607.168C591.32 608.179 593.703 609.937 595.401 611.936C599.747 617.064 599.494 623.794 599.494 623.794C598.844 624.589 596.28 624.758 596.28 624.758C593.065 623.313 577.823 626.527 577.823 626.527C577.823 626.527 578.353 618.341 582.952 614.307Z" fill="#D6E3DD"/>
<path d="M480.714 606.758C480.714 606.758 475.886 607.746 475.044 611.02C474.887 611.586 474.863 612.236 475.008 612.947C475.008 612.947 477.415 628.357 485.843 624.745C485.843 624.745 503.902 624.986 511.848 625.949C511.848 625.949 509.645 618.545 500.784 614.066C500.784 614.066 489.804 608.769 480.714 606.758Z" fill="#D6E3DD"/>
<path d="M523.971 649.703C523.466 649.703 523.056 649.281 523.056 648.751V637.723C523.056 637.194 523.466 636.772 523.971 636.772H571.106C571.611 636.772 572.021 637.206 572.021 637.723V648.751C572.021 649.281 571.611 649.703 571.106 649.703H523.971Z" fill="white"/>
<path d="M564.051 642.864L562.943 646.428H563.858L564.544 644.032L565.194 646.428H566.085L565.038 642.876L566.085 639.542H565.17L564.544 641.636L563.942 639.542H563.039L564.051 642.864Z" fill="#979797"/>
<path d="M559.825 642.864L558.717 646.428H559.632L560.318 644.032L560.968 646.428H561.871L560.812 642.876L561.859 639.542H560.956L560.318 641.636L559.716 639.542H558.813L559.825 642.864Z" fill="#979797"/>
<path d="M551.18 642.864L550.061 646.428H550.988L551.662 644.032L552.312 646.428H553.215L552.168 642.876L553.203 639.542H552.3L551.662 641.636L551.072 639.542H550.157L551.18 642.864Z" fill="#979797"/>
<path d="M546.955 642.864L545.847 646.428H546.762L547.436 644.032L548.098 646.428H548.989L547.942 642.876L548.989 639.542H548.074L547.436 641.636L546.846 639.542H545.943L546.955 642.864Z" fill="#979797"/>
<path d="M542.729 642.864L541.621 646.428H542.536L543.222 644.032L543.872 646.428H544.763L543.716 642.876L544.763 639.542H543.848L543.222 641.636L542.62 639.542H541.717L542.729 642.864Z" fill="#979797"/>
<path d="M534.072 642.864L532.965 646.428H533.88L534.566 644.032L535.216 646.428H536.119L535.06 642.876L536.107 639.542H535.204L534.566 641.636L533.976 639.542H533.061L534.072 642.864Z" fill="#979797"/>
<path d="M528.739 646.428H529.654L530.34 644.032L531.002 646.428H531.893L530.834 642.876L531.881 639.542H530.978L530.34 641.636L529.75 639.542H528.835L529.859 642.864L528.739 646.428Z" fill="#979797"/>
<path d="M557.104 642.575V643.394H554.816V642.575H557.104Z" fill="#979797"/>
<path d="M539.923 642.575V643.394H537.636V642.575H539.923Z" fill="#979797"/>
<path d="M568.927 649.703H571.924C572.454 649.703 572.875 649.269 572.875 648.739V637.567C572.875 637.037 572.454 636.604 571.924 636.604H568.927V649.703Z" fill="#183964"/>
<path d="M521.961 637.567V648.74C521.961 649.269 522.382 649.703 522.912 649.703H525.91V636.592H522.912C522.382 636.604 521.961 637.037 521.961 637.567Z" fill="#183964"/>
<path d="M554.347 593.154C551.277 592.191 548.423 590.903 545.606 589.53C542.813 588.122 540.08 586.641 537.54 584.823C540.61 585.786 543.463 587.074 546.28 588.447C549.061 589.855 551.806 591.336 554.347 593.154Z" fill="#CAC9C9"/>
<path d="M536.613 593.997C533.543 593.034 530.69 591.745 527.872 590.373C525.079 588.964 522.334 587.483 519.806 585.666C522.876 586.629 525.729 587.917 528.546 589.289C531.328 590.686 534.073 592.179 536.613 593.997Z" fill="#CAC9C9"/>
<path d="M550.615 595.658C546.004 593.997 541.585 592.022 537.215 589.952C532.869 587.857 528.571 585.666 524.477 583.149C529.088 584.799 533.507 586.785 537.877 588.856C542.211 590.963 546.509 593.142 550.615 595.658Z" fill="#CAC9C9"/>
<path d="M465.111 603.797L464.1 606.686C464.1 606.686 447.606 608.576 443.308 603.315C443.308 603.315 442.188 591.36 460.006 595.369C461.969 595.815 460.091 603.399 460.091 603.399C460.091 603.399 463.341 604.362 465.111 603.797Z" fill="#183964"/>
<path d="M809.93 405H784.178V428.739H809.93V405Z" fill="#FEEBD7"/>
<path d="M659.364 649.288C664.991 648.796 670.494 649.268 675.71 650.541C679.058 634.174 692.816 621.237 710.333 619.718C710.744 619.677 711.196 619.656 711.606 619.635C715.528 593.946 737.727 574.273 764.505 574.273C784.999 574.273 802.804 585.793 811.798 602.714H811.819C818.02 600.825 824.592 599.798 831.43 599.798C868.373 599.798 898.334 629.759 898.334 666.723C898.334 671.734 897.779 676.6 896.732 681.303H778.428H766.107H764.793C764.69 681.303 764.608 681.303 764.505 681.303C764.403 681.303 764.32 681.303 764.218 681.303H744.956H710.415H703.33H682.446H617C623.592 663.951 639.63 651.013 659.364 649.288Z" fill="#009045"/>
<path d="M849.275 658.037C853.362 657.667 857.366 658.016 861.145 658.94C863.589 647.05 873.589 637.645 886.301 636.536C886.609 636.516 886.917 636.495 887.225 636.475C890.079 617.808 906.199 603.515 925.667 603.515C940.555 603.515 953.492 611.894 960.022 624.194C960.022 624.194 960.022 624.194 960.043 624.194C964.54 622.819 969.325 622.079 974.294 622.079C1001.13 622.079 1022.9 643.847 1022.9 670.707C1022.9 674.342 1022.51 677.894 1021.75 681.303H935.791H926.837H925.893C925.831 681.303 925.749 681.303 925.687 681.303C925.626 681.303 925.544 681.303 925.482 681.303H911.477H886.383H881.228H866.053H818.493C823.298 668.694 834.942 659.289 849.275 658.037Z" fill="#7CB928"/>
<path d="M917.308 642.163C916.138 639 914.742 635.941 913.181 633.004C913.468 631.094 913.653 629.143 913.653 627.151C913.653 622.449 912.811 617.972 911.292 613.803C908.211 605.384 902.297 598.381 894.72 593.864C884.657 572.589 863.013 557.824 837.878 557.824C812.065 557.824 789.928 573.369 780.235 595.589C780.071 595.979 779.948 596.39 779.783 596.759C773.007 595.096 765.819 594.5 758.488 595.137C757.194 595.24 755.88 595.424 754.607 595.589C721.853 600.414 697.745 629.02 698.648 662.123C698.648 662.739 698.71 663.294 698.751 663.889C696.266 662.76 693.556 662.082 690.64 662.082C690.393 662.082 690.147 662.082 689.9 662.123C679.612 662.513 671.418 670.912 671.418 681.303H778.223H835.619H920.286C921.19 676.724 921.662 671.939 921.662 667.052C921.703 658.283 920.142 649.925 917.308 642.163Z" fill="#7CB928"/>
<path d="M942.033 495.171H937.7V489.523H749.022V495.171H744.689V506.527H749.022V681.303H937.7V506.527H942.033V495.171Z" fill="#FEEBD7"/>
<path d="M948.687 498.271H738.015L740.089 492.11L749.412 464.347L761.384 428.759H925.338L929.383 440.751L946.633 492.11L948.687 498.271Z" fill="url(#paint35_linear)"/>
<path d="M812.127 602.119V677.298H772.411V602.119H812.127ZM816.131 598.114H812.127H772.411H768.407V602.119V677.298V681.303H772.411H812.127H816.131V677.298V602.119V598.114Z" fill="white"/>
<path d="M812.127 602.118H772.412V677.298H812.127V602.118Z" fill="url(#paint36_linear)"/>
<path d="M933.203 613.187H825.988L830.3 600.353H928.849L931.293 607.54L933.203 613.187Z" fill="url(#paint37_linear)"/>
<path d="M913.366 533.9H835.599V583.308H913.366V533.9Z" fill="#63849C"/>
<path d="M913.366 533.9V583.308H835.599V533.9H913.366ZM917.37 529.896H913.366H835.599H831.594V533.9V583.308V587.313H835.599H913.366H917.37V583.308V533.9V529.896Z" fill="white"/>
<path d="M876.628 533.9H872.624V583.308H876.628V533.9Z" fill="white"/>
<path d="M912.113 623.537H848.741V663.786H912.113V623.537Z" fill="#63849C"/>
<path d="M912.113 623.537V663.787H848.741V623.537H912.113ZM916.117 619.553H912.113H848.741H844.736V623.558V663.807V667.811H848.741H912.113H916.117V663.807V623.558V619.553Z" fill="white"/>
<path d="M811.183 533.9H773.336V583.308H811.183V533.9Z" fill="#63849C"/>
<path d="M811.182 533.9V583.308H773.336V533.9H811.182ZM815.187 529.896H811.182H773.336H769.331V533.9V583.308V587.313H773.336H811.182H815.187V583.308V533.9V529.896Z" fill="white"/>
<path d="M830.311 470.92C830.311 474.964 827.041 478.233 822.997 478.233C818.953 478.233 815.684 474.964 815.684 470.92C815.684 466.876 818.953 463.606 822.997 463.606C827.041 463.606 830.311 466.893 830.311 470.92Z" fill="white"/>
<path d="M823.324 466.565C823.221 466.565 823.118 466.531 823.015 466.531C820.588 466.531 818.626 468.493 818.626 470.919C818.626 473.345 820.588 475.307 823.015 475.307C825.441 475.307 827.403 473.345 827.403 470.919C827.403 470.626 827.368 470.351 827.317 470.076C824.942 469.973 823.806 468.458 823.324 466.565Z" fill="#183964"/>
<path d="M873.23 470.919C873.23 474.963 869.96 478.232 865.916 478.232C861.872 478.232 858.602 474.963 858.602 470.919C858.602 466.875 861.872 463.605 865.916 463.605C869.943 463.605 873.23 466.892 873.23 470.919Z" fill="white"/>
<path d="M866.226 466.565C866.123 466.565 866.019 466.531 865.916 466.531C863.49 466.531 861.528 468.493 861.528 470.919C861.528 473.345 863.49 475.307 865.916 475.307C868.343 475.307 870.304 473.345 870.304 470.919C870.304 470.626 870.27 470.351 870.218 470.076C867.844 469.973 866.708 468.458 866.226 466.565Z" fill="#183964"/>
<path d="M844.25 479.368C848.036 479.368 850.308 476.34 851.065 474.068C851.822 471.796 850.308 471.796 850.308 471.796H844.25H838.193C838.193 471.796 836.678 471.796 837.435 474.068C838.193 476.34 840.464 479.368 844.25 479.368Z" fill="white"/>
<path d="M942.998 329.209C942.998 306.667 919.316 292.386 895.169 303.689C889.719 306.245 885.198 310.555 882.473 315.857C876.389 327.624 879.072 341.06 884.585 352.215L903.387 399.854C906.091 406.719 915.83 406.677 918.471 399.79L936.893 351.919C943.273 337.321 942.998 329.209 942.998 329.209ZM920.309 348.814C904.085 358.257 887.627 340.807 896.521 323.589C897.705 321.308 899.521 319.385 901.676 318.118C917.901 308.674 934.358 326.124 925.464 343.342C924.281 345.645 922.464 347.567 920.309 348.814Z" fill="url(#paint38_linear)"/>
<defs>
<filter id="filter0_d" x="146.82" y="538.507" width="194.61" height="27.9369" filterUnits="userSpaceOnUse" color-interpolation-filters="sRGB">
<feFlood flood-opacity="0" result="BackgroundImageFix"/>
<feColorMatrix in="SourceAlpha" type="matrix" values="0 0 0 0 0 0 0 0 0 0 0 0 0 0 0 0 0 0 127 0"/>
<feOffset dy="4"/>
<feGaussianBlur stdDeviation="2"/>
<feColorMatrix type="matrix" values="0 0 0 0 0 0 0 0 0 0 0 0 0 0 0 0 0 0 0.25 0"/>
<feBlend mode="normal" in2="BackgroundImageFix" result="effect1_dropShadow"/>
<feBlend mode="normal" in="SourceGraphic" in2="effect1_dropShadow" result="shape"/>
</filter>
<linearGradient id="paint0_linear" x1="978.875" y1="613.752" x2="978.875" y2="675.803" gradientUnits="userSpaceOnUse">
<stop stop-color="#00E35E"/>
<stop offset="1" stop-color="#00B248"/>
</linearGradient>
<linearGradient id="paint1_linear" x1="995.915" y1="590.647" x2="995.915" y2="675.705" gradientUnits="userSpaceOnUse">
<stop stop-color="#00E35E"/>
<stop offset="1" stop-color="#00A332"/>
</linearGradient>
<linearGradient id="paint2_linear" x1="1008.35" y1="634.775" x2="1008.35" y2="676.214" gradientUnits="userSpaceOnUse">
<stop stop-color="#00E35E"/>
<stop offset="1" stop-color="#00B248"/>
</linearGradient>
<linearGradient id="paint3_linear" x1="1000.69" y1="634.979" x2="1000.69" y2="675.6" gradientUnits="userSpaceOnUse">
<stop stop-color="#304F26" stop-opacity="0"/>
<stop offset="0.2844" stop-color="#2C4D23" stop-opacity="0.0569"/>
<stop offset="0.579" stop-color="#1F4719" stop-opacity="0.1158"/>
<stop offset="0.8773" stop-color="#0B3E09" stop-opacity="0.1755"/>
<stop offset="1" stop-color="#003900" stop-opacity="0.2"/>
</linearGradient>
<linearGradient id="paint4_linear" x1="33.102" y1="594.225" x2="33.102" y2="684.21" gradientUnits="userSpaceOnUse">
<stop stop-color="#B3FFFF"/>
<stop offset="0.069" stop-color="#BDFFFF"/>
<stop offset="0.3065" stop-color="#DAFFFF"/>
<stop offset="0.5428" stop-color="#EEFFFF"/>
<stop offset="0.7755" stop-color="#FBFFFF"/>
<stop offset="1" stop-color="white"/>
</linearGradient>
<linearGradient id="paint5_linear" x1="90.0176" y1="535.262" x2="90.0176" y2="590.021" gradientUnits="userSpaceOnUse">
<stop stop-color="#B3FFFF"/>
<stop offset="0.069" stop-color="#BDFFFF"/>
<stop offset="0.3065" stop-color="#DAFFFF"/>
<stop offset="0.5428" stop-color="#EEFFFF"/>
<stop offset="0.7755" stop-color="#FBFFFF"/>
<stop offset="1" stop-color="white"/>
</linearGradient>
<linearGradient id="paint6_linear" x1="248.437" y1="492.149" x2="248.437" y2="518.906" gradientUnits="userSpaceOnUse">
<stop stop-color="#B3FFFF"/>
<stop offset="0.069" stop-color="#BDFFFF"/>
<stop offset="0.3065" stop-color="#DAFFFF"/>
<stop offset="0.5428" stop-color="#EEFFFF"/>
<stop offset="0.7755" stop-color="#FBFFFF"/>
<stop offset="1" stop-color="white"/>
</linearGradient>
<linearGradient id="paint7_linear" x1="31.4313" y1="550.479" x2="31.4313" y2="590.303" gradientUnits="userSpaceOnUse">
<stop stop-color="#B3FFFF"/>
<stop offset="0.069" stop-color="#BDFFFF"/>
<stop offset="0.3065" stop-color="#DAFFFF"/>
<stop offset="0.5428" stop-color="#EEFFFF"/>
<stop offset="0.7755" stop-color="#FBFFFF"/>
<stop offset="1" stop-color="white"/>
</linearGradient>
<linearGradient id="paint8_linear" x1="394.673" y1="462.946" x2="394.673" y2="530.852" gradientUnits="userSpaceOnUse">
<stop stop-color="#B3FFFF"/>
<stop offset="0.069" stop-color="#BDFFFF"/>
<stop offset="0.3065" stop-color="#DAFFFF"/>
<stop offset="0.5428" stop-color="#EEFFFF"/>
<stop offset="0.7755" stop-color="#FBFFFF"/>
<stop offset="1" stop-color="white"/>
</linearGradient>
<linearGradient id="paint9_linear" x1="386.853" y1="572.935" x2="376.078" y2="511.827" gradientUnits="userSpaceOnUse">
<stop stop-color="#B6DD54"/>
<stop offset="0.143" stop-color="#B2DC54"/>
<stop offset="0.292" stop-color="#A5D753"/>
<stop offset="0.443" stop-color="#91D051"/>
<stop offset="0.595" stop-color="#74C64F"/>
<stop offset="0.749" stop-color="#4EB94D"/>
<stop offset="0.902" stop-color="#21A949"/>
<stop offset="1" stop-color="#009E47"/>
</linearGradient>
<linearGradient id="paint10_linear" x1="428.753" y1="625.593" x2="490.803" y2="625.593" gradientUnits="userSpaceOnUse">
<stop stop-color="#B6DD54"/>
<stop offset="0.143" stop-color="#B2DC54"/>
<stop offset="0.292" stop-color="#A5D753"/>
<stop offset="0.443" stop-color="#91D051"/>
<stop offset="0.595" stop-color="#74C64F"/>
<stop offset="0.749" stop-color="#4EB94D"/>
<stop offset="0.902" stop-color="#21A949"/>
<stop offset="1" stop-color="#009E47"/>
</linearGradient>
<linearGradient id="paint11_linear" x1="346.224" y1="610.925" x2="376.751" y2="635.948" gradientUnits="userSpaceOnUse">
<stop stop-color="#302926" stop-opacity="0"/>
<stop offset="0.388" stop-color="#2D2724" stop-opacity="0.027"/>
<stop offset="0.621" stop-color="#25201D" stop-opacity="0.043"/>
<stop offset="0.812" stop-color="#171412" stop-opacity="0.059"/>
<stop offset="0.981" stop-color="#030202" stop-opacity="0.071"/>
<stop offset="1" stop-opacity="0.071"/>
</linearGradient>
<linearGradient id="paint12_linear" x1="371.173" y1="588.434" x2="410.479" y2="622.28" gradientUnits="userSpaceOnUse">
<stop stop-color="#B6DD54"/>
<stop offset="1" stop-color="#009E47"/>
</linearGradient>
<linearGradient id="paint13_linear" x1="426.586" y1="598.368" x2="412.01" y2="628.662" gradientUnits="userSpaceOnUse">
<stop stop-color="#302926" stop-opacity="0"/>
<stop offset="0.388" stop-color="#2D2724" stop-opacity="0.027"/>
<stop offset="0.621" stop-color="#25201D" stop-opacity="0.043"/>
<stop offset="0.812" stop-color="#171412" stop-opacity="0.059"/>
<stop offset="0.981" stop-color="#030202" stop-opacity="0.071"/>
<stop offset="1" stop-opacity="0.071"/>
</linearGradient>
<linearGradient id="paint14_linear" x1="423.574" y1="686.304" x2="411.461" y2="686.304" gradientUnits="userSpaceOnUse">
<stop stop-color="#B16464"/>
<stop offset="0.59" stop-color="#9C6764"/>
<stop offset="1" stop-color="#936864"/>
</linearGradient>
<linearGradient id="paint15_linear" x1="361.725" y1="572.934" x2="350.95" y2="511.826" gradientUnits="userSpaceOnUse">
<stop stop-color="#B6DD54"/>
<stop offset="0.143" stop-color="#B2DC54"/>
<stop offset="0.292" stop-color="#A5D753"/>
<stop offset="0.443" stop-color="#91D051"/>
<stop offset="0.595" stop-color="#74C64F"/>
<stop offset="0.749" stop-color="#4EB94D"/>
<stop offset="0.902" stop-color="#21A949"/>
<stop offset="1" stop-color="#009E47"/>
</linearGradient>
<linearGradient id="paint16_linear" x1="403.624" y1="625.592" x2="465.674" y2="625.592" gradientUnits="userSpaceOnUse">
<stop stop-color="#B6DD54"/>
<stop offset="0.143" stop-color="#B2DC54"/>
<stop offset="0.292" stop-color="#A5D753"/>
<stop offset="0.443" stop-color="#91D051"/>
<stop offset="0.595" stop-color="#74C64F"/>
<stop offset="0.749" stop-color="#4EB94D"/>
<stop offset="0.902" stop-color="#21A949"/>
<stop offset="1" stop-color="#009E47"/>
</linearGradient>
<linearGradient id="paint17_linear" x1="321.095" y1="610.925" x2="351.623" y2="635.947" gradientUnits="userSpaceOnUse">
<stop stop-color="#302926" stop-opacity="0"/>
<stop offset="0.388" stop-color="#2D2724" stop-opacity="0.027"/>
<stop offset="0.621" stop-color="#25201D" stop-opacity="0.043"/>
<stop offset="0.812" stop-color="#171412" stop-opacity="0.059"/>
<stop offset="0.981" stop-color="#030202" stop-opacity="0.071"/>
<stop offset="1" stop-opacity="0.071"/>
</linearGradient>
<linearGradient id="paint18_linear" x1="346.045" y1="588.433" x2="385.351" y2="622.279" gradientUnits="userSpaceOnUse">
<stop stop-color="#B6DD54"/>
<stop offset="1" stop-color="#009E47"/>
</linearGradient>
<linearGradient id="paint19_linear" x1="401.457" y1="598.366" x2="386.882" y2="628.661" gradientUnits="userSpaceOnUse">
<stop stop-color="#302926" stop-opacity="0"/>
<stop offset="0.388" stop-color="#2D2724" stop-opacity="0.027"/>
<stop offset="0.621" stop-color="#25201D" stop-opacity="0.043"/>
<stop offset="0.812" stop-color="#171412" stop-opacity="0.059"/>
<stop offset="0.981" stop-color="#030202" stop-opacity="0.071"/>
<stop offset="1" stop-opacity="0.071"/>
</linearGradient>
<linearGradient id="paint20_linear" x1="398.446" y1="686.303" x2="386.332" y2="686.303" gradientUnits="userSpaceOnUse">
<stop stop-color="#B16464"/>
<stop offset="0.59" stop-color="#9C6764"/>
<stop offset="1" stop-color="#936864"/>
</linearGradient>
<linearGradient id="paint21_linear" x1="326.304" y1="572.239" x2="315.529" y2="511.131" gradientUnits="userSpaceOnUse">
<stop stop-color="#B6DD54"/>
<stop offset="0.143" stop-color="#B2DC54"/>
<stop offset="0.292" stop-color="#A5D753"/>
<stop offset="0.443" stop-color="#91D051"/>
<stop offset="0.595" stop-color="#74C64F"/>
<stop offset="0.749" stop-color="#4EB94D"/>
<stop offset="0.902" stop-color="#21A949"/>
<stop offset="1" stop-color="#009E47"/>
</linearGradient>
<linearGradient id="paint22_linear" x1="368.203" y1="624.897" x2="430.253" y2="624.897" gradientUnits="userSpaceOnUse">
<stop stop-color="#B6DD54"/>
<stop offset="0.143" stop-color="#B2DC54"/>
<stop offset="0.292" stop-color="#A5D753"/>
<stop offset="0.443" stop-color="#91D051"/>
<stop offset="0.595" stop-color="#74C64F"/>
<stop offset="0.749" stop-color="#4EB94D"/>
<stop offset="0.902" stop-color="#21A949"/>
<stop offset="1" stop-color="#009E47"/>
</linearGradient>
<linearGradient id="paint23_linear" x1="285.674" y1="610.23" x2="316.201" y2="635.253" gradientUnits="userSpaceOnUse">
<stop stop-color="#302926" stop-opacity="0"/>
<stop offset="0.388" stop-color="#2D2724" stop-opacity="0.027"/>
<stop offset="0.621" stop-color="#25201D" stop-opacity="0.043"/>
<stop offset="0.812" stop-color="#171412" stop-opacity="0.059"/>
<stop offset="0.981" stop-color="#030202" stop-opacity="0.071"/>
<stop offset="1" stop-opacity="0.071"/>
</linearGradient>
<linearGradient id="paint24_linear" x1="310.624" y1="587.738" x2="349.93" y2="621.584" gradientUnits="userSpaceOnUse">
<stop stop-color="#B6DD54"/>
<stop offset="1" stop-color="#009E47"/>
</linearGradient>
<linearGradient id="paint25_linear" x1="366.036" y1="597.671" x2="351.461" y2="627.966" gradientUnits="userSpaceOnUse">
<stop stop-color="#302926" stop-opacity="0"/>
<stop offset="0.388" stop-color="#2D2724" stop-opacity="0.027"/>
<stop offset="0.621" stop-color="#25201D" stop-opacity="0.043"/>
<stop offset="0.812" stop-color="#171412" stop-opacity="0.059"/>
<stop offset="0.981" stop-color="#030202" stop-opacity="0.071"/>
<stop offset="1" stop-opacity="0.071"/>
</linearGradient>
<linearGradient id="paint26_linear" x1="363.025" y1="685.608" x2="350.911" y2="685.608" gradientUnits="userSpaceOnUse">
<stop stop-color="#B16464"/>
<stop offset="0.59" stop-color="#9C6764"/>
<stop offset="1" stop-color="#936864"/>
</linearGradient>
<linearGradient id="paint27_linear" x1="750.31" y1="348.597" x2="1136.46" y2="-36.733" gradientUnits="userSpaceOnUse">
<stop stop-color="#FFDC2E"/>
<stop offset="0.0902" stop-color="#FFE359"/>
<stop offset="0.1987" stop-color="#FFEA84"/>
<stop offset="0.3124" stop-color="#FFF1AA"/>
<stop offset="0.4299" stop-color="#FFF6C9"/>
<stop offset="0.5524" stop-color="#FFFAE1"/>
<stop offset="0.682" stop-color="#FFFDF2"/>
<stop offset="0.8237" stop-color="#FFFEFC"/>
<stop offset="1" stop-color="white"/>
</linearGradient>
<linearGradient id="paint28_linear" x1="599.507" y1="555.633" x2="747.978" y2="489.53" gradientUnits="userSpaceOnUse">
<stop stop-color="#F39121"/>
<stop offset="0.2718" stop-color="#F39121"/>
<stop offset="0.9643" stop-color="#F8AE3C"/>
<stop offset="1" stop-color="#F8AE3C"/>
</linearGradient>
<linearGradient id="paint29_linear" x1="501.441" y1="462.323" x2="707.768" y2="491.363" gradientUnits="userSpaceOnUse">
<stop stop-color="#46AE4D"/>
<stop offset="0.262" stop-color="#46AE4D"/>
<stop offset="0.7615" stop-color="#009045"/>
<stop offset="1" stop-color="#009045"/>
</linearGradient>
<linearGradient id="paint30_linear" x1="856.358" y1="491.422" x2="877.887" y2="547.511" gradientUnits="userSpaceOnUse">
<stop stop-color="#EB5B2D"/>
<stop offset="1" stop-color="#BF292E"/>
</linearGradient>
<linearGradient id="paint31_linear" x1="605.139" y1="617.475" x2="428" y2="617.475" gradientUnits="userSpaceOnUse">
<stop stop-color="#0A72B9"/>
<stop offset="0.2788" stop-color="#0A72B9"/>
<stop offset="0.7727" stop-color="#0C4D86"/>
<stop offset="1" stop-color="#0C4D86"/>
</linearGradient>
<linearGradient id="paint32_linear" x1="465.995" y1="591.883" x2="451.763" y2="591.883" gradientUnits="userSpaceOnUse">
<stop offset="0.2788" stop-color="white"/>
<stop offset="1" stop-color="#9FD8F0"/>
</linearGradient>
<linearGradient id="paint33_linear" x1="459.369" y1="588.649" x2="444.992" y2="588.649" gradientUnits="userSpaceOnUse">
<stop offset="0.2788" stop-color="white"/>
<stop offset="1" stop-color="#9FD8F0"/>
</linearGradient>
<linearGradient id="paint34_linear" x1="557.485" y1="585.717" x2="441.444" y2="599.548" gradientUnits="userSpaceOnUse">
<stop offset="0.2788" stop-color="white"/>
<stop offset="1" stop-color="#9FD8F0"/>
</linearGradient>
<linearGradient id="paint35_linear" x1="794.857" y1="367.584" x2="831.579" y2="463.255" gradientUnits="userSpaceOnUse">
<stop stop-color="#EB5B2D"/>
<stop offset="1" stop-color="#BF292E"/>
</linearGradient>
<linearGradient id="paint36_linear" x1="787.198" y1="621.071" x2="807.492" y2="695.723" gradientUnits="userSpaceOnUse">
<stop stop-color="#F39121"/>
<stop offset="0.2718" stop-color="#F39121"/>
<stop offset="0.9643" stop-color="#F8AE3C"/>
<stop offset="1" stop-color="#F8AE3C"/>
</linearGradient>
<linearGradient id="paint37_linear" x1="873.093" y1="592.967" x2="890.487" y2="647.083" gradientUnits="userSpaceOnUse">
<stop stop-color="#EB5B2D"/>
<stop offset="1" stop-color="#BF292E"/>
</linearGradient>
<linearGradient id="paint38_linear" x1="878.997" y1="352.35" x2="943.002" y2="352.35" gradientUnits="userSpaceOnUse">
<stop stop-color="#EB5B2D"/>
<stop offset="1" stop-color="#BF292E"/>
</linearGradient>
</defs>
</svg>
