<svg width="1400" height="351" viewBox="0 0 1400 351" fill="none" xmlns="http://www.w3.org/2000/svg">
<rect width="1400" height="351" fill="#E5E5E5"/>
<rect width="1400" height="350" fill="#54A3FF"/>
<path opacity="0.05" d="M56.5 137C114.214 137 161 95.1386 161 43.5C161 -8.13863 114.214 -50 56.5 -50C-1.21376 -50 -48 -8.13863 -48 43.5C-48 95.1386 -1.21376 137 56.5 137Z" fill="white" stroke="white" stroke-width="2"/>
<path opacity="0.05" d="M293 137C311.778 137 327 121.778 327 103C327 84.2223 311.778 69 293 69C274.222 69 259 84.2223 259 103C259 121.778 274.222 137 293 137Z" fill="white" stroke="white" stroke-width="2"/>
<path opacity="0.05" d="M852 112C921.588 112 978 64.3183 978 5.5C978 -53.3183 921.588 -101 852 -101C782.412 -101 726 -53.3183 726 5.5C726 64.3183 782.412 112 852 112Z" fill="white" stroke="white" stroke-width="2"/>
<path d="M1276.5 -206C1146.44 -206 1041 -100.339 1041 30C1041 160.339 1146.44 266 1276.5 266C1406.56 266 1512 160.339 1512 30C1512 -100.339 1406.56 -206 1276.5 -206Z" fill="url(#paint0_linear)"/>
<path d="M760.134 274.715C760.134 274.715 843.27 211.664 858.358 226.784C868.509 236.952 864.852 252.123 861.362 260.965C859.406 265.935 856.069 270.665 851.592 274.715C844.64 281.013 833.006 288.981 821.697 285.168C812.812 282.18 812.76 273.355 814.94 265.289C817.418 256.055 823.135 247.105 830.888 239.332C843.075 227.128 871.942 212.168 905.48 204.828" stroke="url(#paint1_linear)" stroke-width="2" stroke-miterlimit="10" stroke-dasharray="3.07 3.07"/>
<path d="M882.567 202.561C866.122 187.424 849.157 176.364 829.289 167.209C829.443 172.671 829.52 175.403 829.674 180.884C795.957 182.346 766.26 191.848 737.563 210.312C742.102 217.736 746.66 225.141 751.199 232.566C776.03 216.813 801.381 208.696 830.404 207.254C830.558 212.716 830.635 215.447 830.789 220.929C847.465 211.408 863.814 205.811 882.567 202.561Z" fill="url(#paint2_linear)"/>
<path d="M993.593 230.133H980.656V232.834H993.593V230.133Z" fill="url(#paint3_linear)"/>
<path d="M980.969 326.257C980.969 326.768 980.557 327.18 980.047 327.18C979.536 327.18 979.124 326.768 979.124 326.257C979.124 325.747 979.536 325.335 980.047 325.335C980.557 325.327 980.969 325.747 980.969 326.257Z" fill="white"/>
<path d="M725.739 347.791C731.28 347.791 735.772 341.623 735.772 334.014C735.772 326.406 731.28 320.238 725.739 320.238C720.198 320.238 715.706 326.406 715.706 334.014C715.706 341.623 720.198 347.791 725.739 347.791Z" fill="#3E4039"/>
<path d="M717.558 333.965C717.558 340.079 719.861 345.028 722.702 345.028C725.543 345.028 727.846 340.07 727.846 333.965C727.846 327.851 725.543 322.903 722.702 322.903C719.861 322.894 717.558 327.851 717.558 333.965Z" fill="#D6E3DD"/>
<path d="M643.837 328.508C643.837 338.708 647.835 346.977 652.753 346.977C657.682 346.977 661.67 338.708 661.67 328.508C661.67 318.308 657.672 310.038 652.753 310.038C647.835 310.038 643.837 318.308 643.837 328.508Z" fill="#3E4039"/>
<path d="M645.512 328.9C645.512 335.719 647.09 341.255 649.02 341.255C650.96 341.255 652.528 335.719 652.528 328.9C652.528 322.08 650.96 316.544 649.02 316.544C647.08 316.544 645.512 322.08 645.512 328.9Z" fill="#D6E3DD"/>
<path d="M768.361 350.083C776.251 350.083 782.647 341.31 782.647 330.487C782.647 319.664 776.251 310.891 768.361 310.891C760.472 310.891 754.076 319.664 754.076 330.487C754.076 341.31 760.472 350.083 768.361 350.083Z" fill="#3E4039"/>
<path d="M757.916 328.968C757.916 338.139 761.757 345.576 766.509 345.576C771.252 345.576 775.102 338.139 775.102 328.968C775.102 319.797 771.261 312.36 766.509 312.36C761.757 312.37 757.916 319.797 757.916 328.968Z" fill="#D6E3DD"/>
<path d="M678.718 350.034C685.904 350.034 691.73 341.261 691.73 330.438C691.73 319.615 685.904 310.842 678.718 310.842C671.532 310.842 665.706 319.615 665.706 330.438C665.706 341.261 671.532 350.034 678.718 350.034Z" fill="#3E4039"/>
<path d="M667.695 330.34C667.695 338.031 670.517 344.273 674.005 344.273C677.493 344.273 680.315 338.031 680.315 330.34C680.315 322.648 677.493 316.407 674.005 316.407C670.517 316.407 667.695 322.648 667.695 330.34Z" fill="#D6E3DD"/>
<path d="M643.884 328.845C643.884 328.845 642.827 308.287 645.665 310.374C645.665 310.374 649.188 313.722 648.992 323.092C648.992 323.092 648.796 334.32 653.396 335.214L666.275 336.526C666.275 336.526 664.043 328.199 668.291 318.661C668.291 318.661 668.623 302.226 673.311 308.884C673.605 309.301 673.644 309.549 674.133 310.752C675.562 314.309 678.322 322.605 677.93 332.69L677.959 332.78C678.008 332.989 678.155 333.545 678.4 334.241L678.41 334.27C678.801 335.413 679.476 336.903 680.416 337.857C680.416 337.857 687.217 338.106 697.385 338.364C720.686 338.97 761.72 339.676 779.287 337.698C780.96 337.519 782.418 337.301 783.632 337.062C783.632 337.062 785.08 334.717 785.707 332.204C785.932 331.339 786.049 330.455 785.981 329.65C785.981 329.65 785.922 311.566 781.42 304.214C781.42 304.214 779.512 294.258 772.025 290.502C772.025 290.502 769.823 288.375 766.555 285.325C758.53 277.823 744.125 264.717 740.513 263.863C740.513 263.863 711.742 255.318 678.077 260.882C678.077 260.882 667.116 262.611 659.15 271.216C659.15 271.216 657.33 273.64 655.578 277.207C654.286 279.85 653.044 283.139 652.623 286.527C652.623 286.527 652.603 286.557 652.554 286.597C652.016 287.183 648.327 291.277 647.661 292.817C646.898 294.595 645.048 303.667 644.197 307.582C644.197 307.592 639.47 322.784 643.884 328.845Z" fill="url(#paint4_linear)"/>
<path d="M770.564 285.094L770.575 285.16C770.662 285.323 770.967 285.998 771 287.412C771.011 287.869 769.257 288 769.257 288L766.565 285.595L762 281.318C762 281.307 767.121 279.392 770.564 285.094Z" fill="#183964"/>
<path d="M672.935 275.225C672.935 275.225 673.549 268.513 670.992 268.054C670.992 268.054 668.983 267.82 668.677 268.326C666.277 272.36 663.274 279.035 662 287.329C662 287.329 667.542 290.288 669.727 288.331C671.913 286.384 672.935 275.225 672.935 275.225Z" fill="url(#paint5_linear)"/>
<path d="M667.333 268.021C667.333 268.021 657.612 272.548 655 282.777C655 282.777 659.789 284.31 660.301 283.943C660.813 283.576 664.361 272.988 667.703 268.948C667.703 268.939 668.574 267.837 667.333 268.021Z" fill="url(#paint6_linear)"/>
<path d="M756.549 287C757.843 287.029 758.5 285.456 757.549 284.572C752.294 279.65 743.579 270.029 739.177 268.398C737.353 268.048 721.049 265 704.305 265C694.883 265 687.06 265.942 680.991 267.806C680.403 267.99 680.011 268.524 680.001 269.136C679.942 274.33 682.393 283.31 682.991 285.786C683.138 286.417 683.717 286.844 684.374 286.844C688.462 286.825 702.109 286.776 716.961 286.776C737.539 286.776 749.52 286.873 756.549 287Z" fill="url(#paint7_linear)"/>
<path d="M768.259 296.269C770.299 293.933 772.399 290 772.399 290C775.209 290.888 777.188 292.432 778.598 294.187C782.208 298.69 781.998 304.6 781.998 304.6C781.458 305.298 779.328 305.446 779.328 305.446C776.658 304.177 764 307 764 307C764 307 764.44 299.811 768.259 296.269Z" fill="#D6E3DD"/>
<path d="M684.713 290C684.713 290 680.792 290.823 680.107 293.553C679.98 294.025 679.961 294.567 680.078 295.159C680.078 295.159 682.034 308.008 688.879 304.996C688.879 304.996 703.546 305.197 710 306C710 306 708.211 299.827 701.014 296.093C701.014 296.093 692.096 291.676 684.713 290Z" fill="#D6E3DD"/>
<path d="M719.747 325C719.334 325 719 324.674 719 324.264V315.736C719 315.326 719.334 315 719.747 315H758.253C758.666 315 759 315.335 759 315.736V324.264C759 324.674 758.666 325 758.253 325H719.747Z" fill="white"/>
<path d="M752.723 319.876L751.822 322.776H752.566L753.125 320.826L753.654 322.776H754.379L753.527 319.886L754.379 317.172H753.634L753.125 318.877L752.635 317.172H751.9L752.723 319.876Z" fill="#979797"/>
<path d="M749.284 319.876L748.383 322.776H749.127L749.686 320.826L750.215 322.776H750.95L750.087 319.886L750.94 317.172H750.205L749.686 318.877L749.196 317.172H748.461L749.284 319.876Z" fill="#979797"/>
<path d="M742.249 319.876L741.338 322.776H742.092L742.641 320.826L743.17 322.776H743.905L743.052 319.886L743.895 317.172H743.16L742.641 318.877L742.161 317.172H741.416L742.249 319.876Z" fill="#979797"/>
<path d="M738.81 319.876L737.909 322.776H738.653L739.202 320.826L739.741 322.776H740.466L739.613 319.886L740.466 317.172H739.721L739.202 318.877L738.722 317.172H737.987L738.81 319.876Z" fill="#979797"/>
<path d="M735.371 319.876L734.469 322.776H735.214L735.773 320.826L736.302 322.776H737.027L736.174 319.886L737.027 317.172H736.282L735.773 318.877L735.283 317.172H734.548L735.371 319.876Z" fill="#979797"/>
<path d="M728.326 319.876L727.425 322.776H728.169L728.728 320.826L729.257 322.776H729.992L729.129 319.886L729.982 317.172H729.247L728.728 318.877L728.248 317.172H727.503L728.326 319.876Z" fill="#979797"/>
<path d="M723.985 322.777H724.73L725.289 320.827L725.827 322.777H726.552L725.69 319.886L726.543 317.172H725.808L725.289 318.877L724.808 317.172H724.064L724.897 319.876L723.985 322.777Z" fill="#979797"/>
<path d="M747.07 319.641V320.307H745.208V319.641H747.07Z" fill="#979797"/>
<path d="M733.088 319.641V320.307H731.226V319.641H733.088Z" fill="#979797"/>
<path d="M756.692 325.441H759.131C759.563 325.441 759.905 325.088 759.905 324.657V315.564C759.905 315.133 759.563 314.781 759.131 314.781H756.692V325.441Z" fill="#183964"/>
<path d="M718.469 315.565V324.657C718.469 325.088 718.812 325.441 719.243 325.441H721.683V314.771H719.243C718.812 314.781 718.469 315.134 718.469 315.565Z" fill="#183964"/>
<path d="M745 279C742.443 278.306 740.066 277.379 737.719 276.39C735.393 275.376 733.116 274.309 731 273C733.557 273.694 735.934 274.621 738.281 275.61C740.597 276.624 742.884 277.691 745 279Z" fill="#CAC9C9"/>
<path d="M730 280C727.625 279.191 725.418 278.108 723.239 276.955C721.079 275.772 718.956 274.527 717 273C719.375 273.809 721.582 274.892 723.761 276.045C725.912 277.218 728.035 278.473 730 280Z" fill="#CAC9C9"/>
<path d="M742 281C738.119 279.672 734.4 278.093 730.721 276.438C727.063 274.763 723.445 273.012 720 271C723.881 272.319 727.6 273.907 731.279 275.562C734.927 277.246 738.544 278.988 742 281Z" fill="#CAC9C9"/>
<path d="M672 287.418L671.166 289.735C671.166 289.735 657.558 291.251 654.012 287.032C654.012 287.032 653.088 277.444 667.788 280.659C669.408 281.017 667.858 287.099 667.858 287.099C667.858 287.099 670.54 287.872 672 287.418Z" fill="#183964"/>
<path d="M950.233 159.001H932.619V175.238H950.233V159.001Z" fill="#FEEBD7"/>
<path d="M847.249 326.09C851.097 325.753 854.862 326.076 858.429 326.947C860.719 315.752 870.129 306.903 882.111 305.864C882.391 305.836 882.7 305.822 882.981 305.808C885.664 288.237 900.848 274.781 919.163 274.781C933.181 274.781 945.359 282.66 951.511 294.234H951.525C955.767 292.942 960.261 292.24 964.938 292.24C990.207 292.24 1010.7 312.732 1010.7 338.015C1010.7 341.442 1010.32 344.771 1009.6 347.987H928.686H920.259H919.36C919.29 347.987 919.233 347.987 919.163 347.987C919.093 347.987 919.037 347.987 918.967 347.987H905.792H882.167H877.321H863.036H818.272C822.781 336.119 833.751 327.27 847.249 326.09Z" fill="#009045"/>
<path d="M977.144 332.073C979.94 331.82 982.679 332.059 985.263 332.691C986.934 324.559 993.775 318.126 1002.47 317.367C1002.68 317.353 1002.89 317.339 1003.1 317.325C1005.05 304.558 1016.08 294.782 1029.39 294.782C1039.58 294.782 1048.43 300.512 1052.89 308.926C1052.89 308.926 1052.89 308.926 1052.91 308.926C1055.98 307.985 1059.26 307.479 1062.66 307.479C1081.01 307.479 1095.9 322.368 1095.9 340.739C1095.9 343.226 1095.63 345.656 1095.11 347.987H1036.32H1030.2H1029.55C1029.51 347.987 1029.45 347.987 1029.41 347.987C1029.37 347.987 1029.31 347.987 1029.27 347.987H1019.69H1002.53H999H988.62H956.09C959.377 339.363 967.341 332.93 977.144 332.073Z" fill="#7CB928"/>
<path d="M1023.68 321.216C1022.88 319.053 1021.92 316.96 1020.85 314.952C1021.05 313.646 1021.18 312.311 1021.18 310.949C1021.18 307.732 1020.6 304.67 1019.56 301.819C1017.46 296.06 1013.41 291.271 1008.23 288.181C1001.35 273.629 986.541 263.53 969.349 263.53C951.693 263.53 936.552 274.163 929.922 289.36C929.81 289.627 929.726 289.908 929.613 290.161C924.978 289.023 920.062 288.616 915.048 289.051C914.163 289.122 913.264 289.248 912.393 289.36C889.99 292.661 873.5 312.227 874.118 334.869C874.118 335.29 874.161 335.669 874.189 336.077C872.489 335.304 870.635 334.841 868.641 334.841C868.472 334.841 868.303 334.841 868.135 334.869C861.098 335.136 855.494 340.88 855.494 347.987H928.546H967.804H1025.71C1026.33 344.855 1026.66 341.583 1026.66 338.24C1026.68 332.242 1025.62 326.526 1023.68 321.216Z" fill="#7CB928"/>
<path d="M1040.59 220.676H1037.63V216.813H908.573V220.676H905.609V228.443H908.573V347.987H1037.63V228.443H1040.59V220.676Z" fill="#FEEBD7"/>
<path d="M1045.14 222.796H901.044L902.463 218.583L908.84 199.593L917.028 175.251H1029.17L1031.94 183.454L1043.74 218.583L1045.14 222.796Z" fill="url(#paint8_linear)"/>
<path d="M951.735 293.827V345.248H924.571V293.827H951.735V293.827ZM954.474 291.088H951.735H924.571H921.832V293.827V345.248V347.987H924.571H951.735H954.474V345.248V293.827V291.088Z" fill="white"/>
<path d="M951.736 293.826H924.571V345.248H951.736V293.826Z" fill="url(#paint9_linear)"/>
<path d="M1034.55 301.397H961.216L964.166 292.619H1031.57L1033.24 297.535L1034.55 301.397Z" fill="url(#paint10_linear)"/>
<path d="M1020.98 247.166H967.79V280.96H1020.98V247.166Z" fill="#63849C"/>
<path d="M1020.98 247.167V280.961H967.79V247.167H1020.98ZM1023.72 244.428H1020.98H967.79H965.051V247.167V280.961V283.7H967.79H1020.98H1023.72V280.961V247.167V244.428Z" fill="white"/>
<path d="M995.853 247.166H993.114V280.96H995.853V247.166Z" fill="white"/>
<path d="M1020.12 308.476H976.779V336.006H1020.12V308.476Z" fill="#63849C"/>
<path d="M1020.12 308.477V336.006H976.779V308.477H1020.12ZM1022.86 305.752H1020.12H976.779H974.04V308.491V336.02V338.759H976.779H1020.12H1022.86V336.02V308.491V305.752Z" fill="white"/>
<path d="M951.09 247.166H925.203V280.96H951.09V247.166Z" fill="#63849C"/>
<path d="M951.089 247.167V280.961H925.203V247.167H951.089ZM953.828 244.428H951.089H925.203H922.464V247.167V280.961V283.7H925.203H951.089H953.828V280.961V247.167V244.428Z" fill="white"/>
<path d="M964.173 204.088C964.173 206.854 961.937 209.091 959.171 209.091C956.405 209.091 954.168 206.854 954.168 204.088C954.168 201.322 956.405 199.086 959.171 199.086C961.937 199.086 964.173 201.334 964.173 204.088Z" fill="white"/>
<path d="M959.394 201.111C959.324 201.111 959.253 201.087 959.182 201.087C957.523 201.087 956.181 202.429 956.181 204.089C956.181 205.749 957.523 207.09 959.182 207.09C960.842 207.09 962.184 205.749 962.184 204.089C962.184 203.889 962.16 203.7 962.125 203.512C960.501 203.442 959.724 202.406 959.394 201.111Z" fill="#183964"/>
<path d="M993.529 204.088C993.529 206.854 991.292 209.091 988.526 209.091C985.76 209.091 983.524 206.854 983.524 204.088C983.524 201.322 985.76 199.086 988.526 199.086C991.281 199.086 993.529 201.334 993.529 204.088Z" fill="white"/>
<path d="M988.738 201.111C988.668 201.111 988.597 201.087 988.526 201.087C986.867 201.087 985.525 202.429 985.525 204.089C985.525 205.749 986.867 207.09 988.526 207.09C990.186 207.09 991.528 205.749 991.528 204.089C991.528 203.889 991.504 203.7 991.469 203.512C989.845 203.442 989.068 202.406 988.738 201.111Z" fill="#183964"/>
<path d="M973.707 209.868C976.297 209.868 977.851 207.796 978.368 206.243C978.886 204.689 977.851 204.689 977.851 204.689H973.707H969.564C969.564 204.689 968.528 204.689 969.046 206.243C969.564 207.796 971.118 209.868 973.707 209.868Z" fill="white"/>
<path d="M1041.25 107.161C1041.25 91.7435 1025.05 81.9755 1008.54 89.7061C1004.81 91.4545 1001.71 94.4022 999.851 98.0291C995.689 106.078 997.524 115.268 1001.3 122.897L1014.16 155.481C1016.01 160.177 1022.67 160.148 1024.47 155.438L1037.07 122.695C1041.44 112.71 1041.25 107.161 1041.25 107.161ZM1025.73 120.571C1014.63 127.03 1003.38 115.094 1009.46 103.318C1010.27 101.757 1011.51 100.442 1012.99 99.5752C1024.08 93.1162 1035.34 105.052 1029.26 116.828C1028.45 118.403 1027.2 119.718 1025.73 120.571Z" fill="url(#paint11_linear)"/>
<path d="M101.678 349.585L93.5362 263.726H149.547V349.585H101.678Z" fill="url(#paint12_linear)" stroke="#968F8F"/>
<path d="M208.377 202.36L148.146 204.262V260.055H208.377V202.36Z" fill="url(#paint13_linear)"/>
<path d="M456.909 189.046V151.322L327.571 160.832L199.805 184.291L196.33 201.092L456.909 189.046Z" fill="url(#paint14_linear)"/>
<path d="M93.4866 259.555V221.846L145.109 218.114V259.555H93.4866Z" fill="url(#paint15_linear)" stroke="#968F8F"/>
<path d="M210.913 203.331L458.177 193.484V349.426L210.913 350.085V203.331Z" fill="#C4C4C4"/>
<path d="M458.177 193.484L564.691 209.334L559.301 350.084L458.177 349.426V193.484Z" fill="#CCCCCC"/>
<path d="M214.083 221.803L454.373 217.893V222.648L214.083 225.184V221.803Z" fill="#9C9A9A"/>
<path d="M214.083 229.411L454.373 225.501V230.257L214.083 232.793V229.411Z" fill="#9C9A9A"/>
<path d="M214.083 205.742L454.373 199.613V206.587L214.083 209.123V205.742Z" fill="#9C9A9A"/>
<path d="M214.083 213.56L454.373 209.65V214.405L214.083 216.942V213.56Z" fill="#9C9A9A"/>
<path d="M214.083 237.019L454.373 233.109V237.864L214.083 240.4V237.019Z" fill="#9C9A9A"/>
<path d="M214.083 244.628L454.373 240.718V245.473L214.083 248.009V244.628Z" fill="#9C9A9A"/>
<path d="M214.083 252.235L454.373 248.325V253.08L214.083 255.616V252.235Z" fill="#9C9A9A"/>
<path d="M214.083 259.843L454.373 255.934V260.689L214.083 263.225V259.843Z" fill="#9C9A9A"/>
<path d="M214.083 267.452L454.373 263.542V268.297L214.083 270.833V267.452Z" fill="#9C9A9A"/>
<path d="M214.083 275.06L454.373 271.15V275.905L214.083 278.441V275.06Z" fill="#9C9A9A"/>
<path d="M214.083 282.668L454.373 278.758V283.513L214.083 286.049V282.668Z" fill="#9C9A9A"/>
<path d="M214.083 291.544L454.373 287.635V292.39L214.083 294.926V291.544Z" fill="#9C9A9A"/>
<path d="M214.083 299.152L454.373 295.242V299.998L214.083 302.534V299.152Z" fill="#9C9A9A"/>
<path d="M214.083 306.761L454.373 302.851V307.606L214.083 310.142V306.761Z" fill="#9C9A9A"/>
<path d="M214.083 314.368L454.373 310.458V315.214L214.083 317.75V314.368Z" fill="#9C9A9A"/>
<path d="M214.083 321.976L454.373 318.067V322.822L214.083 325.358V321.976Z" fill="#9C9A9A"/>
<path d="M214.083 329.585L454.373 325.675V330.43L214.083 332.966V329.585Z" fill="#9C9A9A"/>
<path d="M214.083 337.193L454.373 333.283V338.038L214.083 340.574V337.193Z" fill="#9C9A9A"/>
<path d="M214.083 344.801L454.373 340.891V345.646L214.083 348.182V344.801Z" fill="#9C9A9A"/>
<path d="M461.345 193.973L464.834 194.507L463.628 347.548H461.345V193.973Z" fill="#B7B7B7"/>
<path d="M466.419 194.751L469.907 195.285L468.701 348.182H466.419V194.751Z" fill="#B7B7B7"/>
<path d="M471.491 195.386L474.98 195.917L473.773 348.182H471.491V195.386Z" fill="#B7B7B7"/>
<path d="M476.563 196.021L479.733 196.55L478.637 348.183H476.563V196.021Z" fill="#B7B7B7"/>
<path d="M481.001 196.654L484.171 197.181L483.075 348.183H481.001V196.654Z" fill="#B7B7B7"/>
<path d="M485.439 197.288L488.609 197.812L487.513 348.182H485.439V197.288Z" fill="#B7B7B7"/>
<path d="M489.877 197.922L492.413 198.444L491.536 348.182H489.877V197.922Z" fill="#B7B7B7"/>
<path d="M493.681 198.556L496.217 199.076L495.341 348.183H493.681V198.556Z" fill="#B7B7B7"/>
<path d="M497.485 199.19L500.022 199.71L499.145 348.816H497.485V199.19Z" fill="#B7B7B7"/>
<path d="M501.289 199.824L503.825 200.342L502.949 348.816H501.289V199.824Z" fill="#B7B7B7"/>
<path d="M505.094 200.458L507.63 200.973L506.753 348.816H505.094V200.458Z" fill="#B7B7B7"/>
<path d="M508.897 201.092L510.799 201.444L510.142 348.816H508.897V201.092Z" fill="#B7B7B7"/>
<path d="M512.068 201.726L513.97 202.077L513.312 348.816H512.068V201.726Z" fill="#B7B7B7"/>
<path d="M518.408 202.994L520.31 203.342L519.652 348.816H518.408V202.994Z" fill="#B7B7B7"/>
<path d="M515.237 202.36L517.139 202.71L516.482 348.817H515.237V202.36Z" fill="#B7B7B7"/>
<path d="M521.578 203.628L523.48 203.974L522.822 348.816H521.578V203.628Z" fill="#B7B7B7"/>
<path d="M524.748 203.628L526.65 203.976L525.992 349.45H524.748V203.628Z" fill="#B7B7B7"/>
<path d="M531.088 204.896L532.99 205.241L532.332 349.45H531.088V204.896Z" fill="#B7B7B7"/>
<path d="M534.258 205.53L535.526 205.771L534.922 349.451H534.258V205.53Z" fill="#B7B7B7"/>
<path d="M536.794 205.53L538.062 205.771L537.457 349.451H536.794V205.53Z" fill="#B7B7B7"/>
<path d="M539.33 206.164L540.598 206.404L539.994 349.45H539.33V206.164Z" fill="#B7B7B7"/>
<path d="M541.866 206.164L543.134 206.404L542.53 349.45H541.866V206.164Z" fill="#B7B7B7"/>
<path d="M544.402 206.798L545.67 207.037L545.066 349.45H544.402V206.798Z" fill="#B7B7B7"/>
<path d="M546.938 207.432L548.206 207.67L547.602 349.45H546.938V207.432Z" fill="#B7B7B7"/>
<path d="M549.474 207.432L550.742 207.67L550.138 349.45H549.474V207.432Z" fill="#B7B7B7"/>
<path d="M552.01 208.066L553.278 208.304L552.674 350.085H552.01V208.066Z" fill="#B7B7B7"/>
<path d="M554.546 208.066L555.814 208.304L555.21 350.085H554.546V208.066Z" fill="#B7B7B7"/>
<path d="M557.082 208.7L558.984 209.334L557.444 350.084H557.082V208.7Z" fill="#B7B7B7"/>
<path d="M527.918 204.262L529.82 204.609L529.162 349.45H527.918V204.262Z" fill="#B7B7B7"/>
<path d="M248.453 264.299V349.585H220.289V260.625L248.453 264.299Z" fill="#E6E6E6" stroke="#968F8F"/>
<path d="M517.457 200.775L457.543 151.64V188.754L517.457 200.775Z" fill="url(#paint16_linear)"/>
<rect x="146.11" y="262.726" width="44.6487" height="2.17005" transform="rotate(-90 146.11 262.726)" fill="#C4C4C4" stroke="#968F8F"/>
<path d="M208.243 260.823V201.592H210.413V260.823H208.243Z" fill="#C4C4C4" stroke="#968F8F"/>
<rect x="93.4866" y="260.556" width="116.926" height="2.17005" fill="#C4C4C4" stroke="#968F8F"/>
<path d="M190.49 203.744V201.571L457.043 189.57V193.954L190.49 203.744Z" fill="#C4C4C4" stroke="#968F8F"/>
<path d="M458.043 193.906V189.641L543.893 204.462L545.53 206.098L458.043 193.906Z" fill="#C4C4C4" stroke="#968F8F"/>
<path d="M142.305 349.585V263.684L219.289 260.576V349.585H142.305Z" fill="#EDEDED" stroke="#968F8F"/>
<path d="M265.53 180.507L265.518 180.51L237.345 188.451L237.337 188.453L237.329 188.455L215.049 195.538L215.045 195.539L191.151 202.947L191.151 202.947L191.14 202.951L165.301 211.638L165.296 211.64L87.2275 238.782L82.8081 223.631L226.885 173.566L269.49 161L269.5 160.997L297.893 153.256L297.904 153.253L355.007 140.306L456.57 123.457L456.44 151.581L419.159 154.279L419.146 154.28L419.133 154.282L377.33 159.529L377.329 159.53L345.243 163.484L345.23 163.486L345.217 163.488L319.68 168.048L319.674 168.049L297.586 172.276L297.57 172.279L297.555 172.283L265.53 180.507Z" fill="#C4C4C4" stroke="#968F8F"/>
<path d="M457.409 151.723V123.933L546.053 205.759L516.718 201.568L457.409 151.723Z" fill="#DBDBDB" stroke="#968F8F"/>
<line x1="179.078" y1="282.246" x2="179.078" y2="347.549" stroke="black"/>
<line x1="217.9" y1="280.843" x2="143.721" y2="282.745" stroke="black"/>
<path d="M183.15 315.848C183.15 316.288 183.03 316.664 182.863 316.916C182.693 317.17 182.513 317.25 182.382 317.25C182.251 317.25 182.071 317.17 181.902 316.916C181.734 316.664 181.614 316.288 181.614 315.848C181.614 315.408 181.734 315.032 181.902 314.78C182.071 314.526 182.251 314.446 182.382 314.446C182.513 314.446 182.693 314.526 182.863 314.78C183.03 315.032 183.15 315.408 183.15 315.848Z" fill="#C4C4C4" stroke="black"/>
<path d="M148.44 269.515L151.106 269.469C152.32 269.447 153.204 269.606 153.757 269.944C154.314 270.278 154.599 270.822 154.612 271.576C154.621 272.087 154.507 272.509 154.27 272.842C154.038 273.174 153.723 273.377 153.326 273.45L153.327 273.509C153.872 273.62 154.266 273.84 154.51 274.168C154.758 274.496 154.887 274.935 154.897 275.485C154.91 276.267 154.638 276.881 154.079 277.328C153.524 277.775 152.763 278.007 151.794 278.024L148.59 278.08L148.44 269.515ZM150.315 272.876L151.37 272.857C151.862 272.849 152.216 272.766 152.432 272.61C152.652 272.454 152.759 272.2 152.753 271.848C152.747 271.52 152.622 271.288 152.377 271.152C152.137 271.011 151.756 270.946 151.237 270.955L150.282 270.972L150.315 272.876ZM150.34 274.317L150.379 276.549L151.563 276.528C152.063 276.519 152.43 276.417 152.665 276.222C152.9 276.026 153.014 275.731 153.007 275.337C152.995 274.626 152.481 274.279 151.465 274.297L150.34 274.317ZM156.29 269.7C156.28 269.119 156.599 268.822 157.247 268.811C157.896 268.799 158.225 269.085 158.235 269.667C158.24 269.944 158.162 270.162 158 270.321C157.843 270.476 157.602 270.557 157.278 270.562C156.63 270.574 156.3 270.286 156.29 269.7ZM158.297 277.911L156.51 277.942L156.396 271.392L158.183 271.361L158.297 277.911ZM162.796 272.429C162.417 272.436 162.122 272.562 161.912 272.808C161.701 273.05 161.584 273.392 161.56 273.834L164.068 273.79C164.052 273.349 163.931 273.011 163.704 272.777C163.477 272.538 163.175 272.423 162.796 272.429ZM163.144 277.943C162.089 277.962 161.26 277.685 160.657 277.114C160.053 276.542 159.741 275.723 159.723 274.657C159.704 273.559 159.962 272.707 160.499 272.1C161.039 271.489 161.793 271.175 162.762 271.158C163.688 271.142 164.413 271.393 164.937 271.911C165.462 272.429 165.733 273.153 165.749 274.083L165.764 274.95L161.54 275.024C161.568 275.531 161.726 275.925 162.012 276.205C162.298 276.485 162.695 276.621 163.203 276.612C163.597 276.605 163.97 276.558 164.32 276.47C164.67 276.381 165.035 276.244 165.414 276.058L165.438 277.44C165.129 277.602 164.797 277.723 164.443 277.804C164.089 277.888 163.656 277.935 163.144 277.943ZM173.312 277.649L171.525 277.68L171.459 273.854C171.45 273.382 171.36 273.03 171.188 272.798C171.016 272.563 170.747 272.449 170.379 272.455C169.879 272.464 169.521 272.638 169.304 272.978C169.088 273.314 168.986 273.868 168.999 274.642L169.053 277.723L167.266 277.754L167.152 271.204L168.517 271.181L168.772 272.014L168.871 272.012C169.065 271.693 169.334 271.45 169.679 271.283C170.028 271.113 170.425 271.024 170.87 271.017C171.632 271.003 172.213 271.2 172.615 271.607C173.017 272.01 173.224 272.601 173.238 273.378L173.312 277.649ZM176.71 277.589L174.1 271.083L175.969 271.051L177.3 274.76C177.448 275.23 177.544 275.676 177.587 276.097L177.622 276.097C177.635 275.721 177.715 275.273 177.862 274.751L179.056 270.997L180.925 270.964L178.544 277.557L176.71 277.589ZM184.601 272.049C184.222 272.055 183.927 272.181 183.717 272.427C183.506 272.669 183.389 273.011 183.366 273.453L185.873 273.409C185.858 272.968 185.736 272.63 185.51 272.396C185.283 272.158 184.98 272.042 184.601 272.049ZM184.949 277.563C183.895 277.581 183.066 277.305 182.462 276.733C181.858 276.161 181.547 275.343 181.528 274.276C181.509 273.179 181.768 272.327 182.304 271.719C182.844 271.108 183.599 270.794 184.567 270.777C185.493 270.761 186.218 271.012 186.743 271.531C187.267 272.049 187.538 272.773 187.554 273.702L187.569 274.569L183.345 274.643C183.374 275.15 183.531 275.544 183.817 275.825C184.103 276.105 184.5 276.24 185.008 276.232C185.403 276.225 185.775 276.177 186.125 276.089C186.475 276.001 186.84 275.864 187.219 275.677L187.244 277.06C186.934 277.221 186.602 277.343 186.248 277.423C185.894 277.507 185.461 277.554 184.949 277.563ZM195.118 277.268L193.331 277.299L193.264 273.474C193.256 273.001 193.166 272.649 192.994 272.418C192.821 272.182 192.552 272.068 192.185 272.074C191.685 272.083 191.326 272.257 191.11 272.597C190.893 272.933 190.791 273.488 190.805 274.261L190.858 277.342L189.072 277.374L188.957 270.824L190.322 270.8L190.577 271.634L190.677 271.632C190.87 271.312 191.14 271.069 191.484 270.903C191.833 270.733 192.23 270.644 192.675 270.636C193.437 270.623 194.019 270.82 194.42 271.227C194.822 271.63 195.029 272.22 195.043 272.997L195.118 277.268ZM201.597 277.155L201.342 276.321L201.249 276.323C201.062 276.631 200.795 276.872 200.447 277.046C200.098 277.216 199.699 277.305 199.25 277.313C198.48 277.327 197.897 277.132 197.499 276.728C197.101 276.321 196.896 275.731 196.882 274.958L196.808 270.687L198.595 270.656L198.661 274.481C198.67 274.954 198.76 275.308 198.932 275.543C199.104 275.775 199.373 275.887 199.741 275.881C200.24 275.872 200.599 275.7 200.816 275.364C201.032 275.024 201.134 274.467 201.121 273.694L201.067 270.613L202.854 270.581L202.968 277.131L201.597 277.155ZM207.461 271.65C207.082 271.656 206.787 271.782 206.577 272.028C206.366 272.27 206.249 272.612 206.225 273.054L208.733 273.01C208.717 272.569 208.596 272.231 208.369 271.997C208.143 271.759 207.84 271.643 207.461 271.65ZM207.809 277.164C206.755 277.182 205.925 276.906 205.322 276.334C204.718 275.762 204.407 274.944 204.388 273.877C204.369 272.78 204.627 271.928 205.164 271.32C205.704 270.709 206.458 270.395 207.427 270.378C208.353 270.362 209.078 270.613 209.603 271.132C210.127 271.65 210.398 272.374 210.414 273.303L210.429 274.17L206.205 274.244C206.234 274.751 206.391 275.145 206.677 275.425C206.963 275.706 207.36 275.841 207.868 275.832C208.262 275.826 208.635 275.778 208.985 275.69C209.335 275.602 209.7 275.465 210.079 275.278L210.103 276.661C209.794 276.822 209.462 276.944 209.108 277.024C208.754 277.108 208.321 277.155 207.809 277.164Z" fill="black"/>
<rect x="235.823" y="206.674" width="196.543" height="27.8964" transform="rotate(-1.5 235.823 206.674)" fill="#D9D7D7"/>
<g filter="url(#filter0_d)">
<path d="M255.635 211.042L256.054 227.057L252.579 227.148L244.402 215.464L244.714 227.354L241.239 227.445L240.82 211.43L245.364 211.311L252.424 221.248L252.16 211.133L255.634 211.042L255.635 211.042ZM271.844 220.118L271.868 221.05C271.837 221.316 271.843 221.538 271.848 221.76C271.816 221.983 271.822 222.205 271.827 222.382L261.173 222.661C261.34 223.19 261.732 223.579 262.312 223.83C262.892 224.081 263.736 224.192 264.843 224.163L265.569 224.144C265.872 224.092 266.178 224.084 266.522 224.075C266.826 224.023 267.17 224.014 267.552 224.004C267.894 223.95 268.238 223.941 268.581 223.932C269.42 223.864 270.259 223.797 271.098 223.733L271.162 226.173C270.44 226.324 269.718 226.477 268.996 226.629C268.387 226.734 267.702 226.841 266.979 226.948C266.256 227.056 265.569 227.074 264.919 227.091C263.584 227.126 262.437 227.112 261.515 226.958C260.595 226.849 259.824 226.559 259.24 226.174C258.656 225.746 258.221 225.18 257.972 224.432C257.685 223.684 257.545 222.712 257.514 221.514C257.483 220.316 257.571 219.337 257.819 218.576C258.028 217.816 258.432 217.184 258.994 216.77C259.555 216.311 260.311 215.98 261.224 215.824C262.137 215.666 263.28 215.547 264.617 215.512C265.686 215.484 266.68 215.547 267.562 215.658C268.406 215.768 269.177 216.015 269.797 216.354C270.418 216.737 270.927 217.212 271.287 217.824C271.609 218.437 271.82 219.187 271.844 220.118ZM268.211 219.991L268.198 219.503C268.16 219.365 268.105 219.233 268.035 219.108C267.955 218.976 267.799 218.847 267.529 218.766C267.297 218.683 266.952 218.603 266.492 218.571C265.894 218.528 265.295 218.514 264.695 218.529C263.512 218.56 262.637 218.716 262.071 218.997C261.505 219.279 261.173 219.731 261.074 220.355L268.215 220.168L268.211 219.991ZM279.238 226.716C278.284 226.741 277.48 226.718 276.751 226.559C276.021 226.445 275.403 226.151 274.934 225.763C274.425 225.333 274.067 224.765 273.78 224.018C273.531 223.269 273.391 222.297 273.359 221.099L273.213 215.51L276.688 215.419L276.834 221.008C276.846 221.452 276.931 221.804 277.016 222.113C277.099 222.377 277.258 222.595 277.416 222.769C277.625 222.952 277.877 223.082 278.151 223.148C278.42 223.186 278.764 223.221 279.146 223.211L279.796 223.194C280.024 223.188 280.215 223.139 280.443 223.133C280.633 223.084 280.901 223.077 281.128 223.027C281.395 223.02 281.7 222.967 282.081 222.913L281.881 215.283L285.356 215.192L285.633 225.794C285.139 225.895 284.683 225.996 284.19 226.097C283.733 226.198 283.239 226.3 282.744 226.358C282.212 226.46 281.679 226.518 281.108 226.622C280.536 226.682 279.925 226.698 279.238 226.716ZM294.145 216.693L294.226 219.798L290.752 219.889L290.915 226.144L287.402 226.236L287.193 218.251C287.157 216.875 287.202 215.676 287.366 214.65C287.492 213.626 287.815 212.774 288.368 212.049C288.885 211.37 289.636 210.817 290.657 210.436C291.641 210.099 292.973 209.887 294.653 209.843L295.608 209.818L295.692 213.012L294.698 213.038C293.897 213.059 293.212 213.166 292.72 213.356C292.228 213.547 291.815 213.823 291.518 214.142C291.222 214.505 291.04 214.865 290.899 215.312C290.796 215.759 290.733 216.249 290.708 216.783L294.144 216.693L294.145 216.693ZM305.845 225.753L300.112 214.006L300.423 225.895L296.948 225.986L296.529 209.971L301.302 209.846L306.63 220.716L311.42 209.582L316.155 209.458L316.574 225.472L313.099 225.563L312.788 213.674L307.677 225.705L305.845 225.753ZM325.098 213.929C326.473 213.893 327.583 213.952 328.502 214.062C329.422 214.17 330.194 214.461 330.779 214.89C331.362 215.274 331.798 215.884 332.047 216.632C332.334 217.38 332.474 218.352 332.505 219.55C332.537 220.748 332.448 221.727 332.2 222.488C331.991 223.248 331.586 223.836 331.025 224.295C330.462 224.709 329.707 225.039 328.794 225.196C327.883 225.398 326.777 225.471 325.401 225.507C324.065 225.542 322.919 225.528 321.997 225.374C321.077 225.266 320.344 224.974 319.761 224.589C319.176 224.161 318.741 223.595 318.493 222.847C318.206 222.1 318.065 221.127 318.034 219.929C318.002 218.731 318.092 217.753 318.339 216.991C318.548 216.231 318.952 215.599 319.514 215.185C320.076 214.726 320.793 214.397 321.706 214.24C322.619 214.082 323.762 213.963 325.098 213.928L325.098 213.929ZM325.31 222.003C326.035 221.984 326.607 221.924 327.064 221.868C327.521 221.812 327.901 221.713 328.163 221.528C328.427 221.389 328.573 221.118 328.68 220.849C328.787 220.536 328.814 220.135 328.802 219.647C328.788 219.115 328.739 218.716 328.616 218.409C328.494 218.102 328.335 217.884 328.064 217.757C327.793 217.587 327.408 217.509 326.948 217.432C326.489 217.4 325.916 217.415 325.19 217.434C324.503 217.452 323.892 217.468 323.435 217.524C322.979 217.625 322.638 217.722 322.375 217.906C322.111 218.047 321.926 218.273 321.82 218.587C321.728 218.996 321.687 219.415 321.699 219.833C321.712 220.321 321.799 220.719 321.884 221.027C322.005 221.29 322.203 221.551 322.474 221.677C322.746 221.848 323.092 221.928 323.551 221.96C324.01 221.992 324.622 222.021 325.31 222.003ZM337.432 213.606L333.945 214.718L334.215 225.01L337.728 224.918L337.432 213.606ZM337.187 210.105C337.193 210.327 337.161 210.594 337.053 210.819C336.982 211.043 336.873 211.223 336.763 211.404C336.62 211.576 336.441 211.717 336.238 211.817C336.051 211.954 335.861 212.005 335.632 212.011C335.403 212.017 335.211 211.977 335.017 211.849C334.809 211.76 334.623 211.629 334.472 211.464C334.352 211.289 334.233 211.115 334.151 210.895C334.031 210.676 333.985 210.411 333.98 210.189C333.973 209.923 334.005 209.7 334.114 209.476C334.185 209.251 334.293 209.027 334.403 208.846C334.552 208.709 334.74 208.571 334.927 208.433C335.116 208.339 335.305 208.29 335.535 208.284C335.764 208.278 335.956 208.317 336.149 208.401C336.343 208.529 336.538 208.657 336.694 208.786C336.813 208.961 336.933 209.179 337.016 209.399C337.136 209.619 337.18 209.839 337.187 210.105ZM347.588 213.34C348.963 213.304 350.073 213.363 350.993 213.473C351.951 213.58 352.684 213.872 353.268 214.301C353.852 214.685 354.288 215.295 354.537 216.043C354.824 216.791 354.964 217.763 354.995 218.961L355.139 224.463L351.435 224.56L351.291 219.058C351.277 218.526 351.229 218.127 351.107 217.82C351.071 217.678 351.002 217.546 350.907 217.433C350.811 217.321 350.691 217.23 350.554 217.168C350.282 216.998 349.898 216.92 349.438 216.843C348.978 216.811 348.406 216.826 347.68 216.845L346.802 216.868C346.459 216.921 346.116 216.93 345.734 216.94C345.391 216.993 344.973 217.049 344.591 217.059C344.21 217.113 343.828 217.123 343.486 217.176L343.684 224.762L340.21 224.853L339.919 213.763L342.44 213.697L342.875 214.262C343.365 214.027 344.047 213.788 344.883 213.632C345.775 213.461 346.68 213.363 347.588 213.34ZM369.031 220.902C369.048 221.568 368.947 222.103 368.73 222.553C368.514 223.046 368.103 223.413 367.537 223.693C366.972 223.975 366.252 224.216 365.3 224.33C364.387 224.486 363.241 224.516 361.866 224.552C361.332 224.566 360.796 224.536 360.222 224.506C359.686 224.432 359.188 224.401 358.689 224.325C358.192 224.294 357.769 224.216 357.348 224.182C356.964 224.104 356.657 224.067 356.427 224.029L356.359 221.455C357.124 221.481 357.851 221.505 358.538 221.487C359.15 221.516 359.762 221.544 360.374 221.528C360.858 221.549 361.342 221.551 361.826 221.535C362.59 221.515 363.201 221.543 363.659 221.531C364.117 221.475 364.498 221.465 364.726 221.414C364.902 221.383 365.069 221.319 365.218 221.224C365.292 221.133 365.365 220.998 365.363 220.909C365.36 220.776 365.357 220.687 365.278 220.601C365.168 220.547 365.052 220.505 364.931 220.477C364.69 220.429 364.447 220.39 364.202 220.363C363.896 220.371 363.514 220.336 363.016 220.305C361.524 220.211 360.297 220.065 359.376 219.912C358.417 219.76 357.685 219.512 357.181 219.26C356.638 218.963 356.285 218.617 356.083 218.178C355.88 217.739 355.79 217.209 355.775 216.633C355.759 216.011 355.859 215.476 356.077 215.026C356.331 214.532 356.704 214.166 357.269 213.886C357.834 213.56 358.592 213.318 359.506 213.205C360.419 213.048 361.563 212.974 362.976 212.937L364.813 213.022C365.363 213.087 365.913 213.162 366.461 213.245C367.036 213.319 367.573 213.394 368.073 213.514L368.143 216.175C367.748 216.131 367.352 216.097 366.956 216.073C366.496 216.041 366.038 216.053 365.54 216.021C365.043 215.99 364.585 216.002 364.126 215.97C363.667 215.982 363.284 215.948 362.979 215.956L361.146 216.004C360.787 216.01 360.43 216.049 360.079 216.12C359.813 216.171 359.662 216.22 359.55 216.312C359.474 216.399 359.435 216.511 359.443 216.625C359.445 216.714 359.486 216.802 359.526 216.89C359.604 216.932 359.681 216.974 359.873 217.013C360.027 217.054 360.258 217.092 360.563 217.084C360.97 217.128 361.379 217.162 361.788 217.185C363.281 217.279 364.506 217.381 365.467 217.578C366.388 217.731 367.12 217.978 367.663 218.274C368.166 218.528 368.557 218.873 368.722 219.312C368.924 219.751 369.015 220.281 369.031 220.902ZM370.318 216.074C370.282 214.699 370.365 213.498 370.529 212.473C370.693 211.447 371.053 210.594 371.608 209.869C372.125 209.19 372.912 208.637 373.935 208.299C374.957 207.918 376.327 207.704 377.969 207.661C378.732 207.641 379.496 207.621 380.224 207.691C380.989 207.715 381.678 207.786 382.29 207.814C382.942 207.886 383.517 207.96 384.015 208.036C384.514 208.111 384.899 208.19 385.205 208.226L385.291 211.509C385.138 211.469 384.87 211.476 384.447 211.398C384.026 211.365 383.489 211.29 382.839 211.262C382.189 211.235 381.461 211.165 380.62 211.143C379.817 211.119 378.939 211.142 378.023 211.166C377.068 211.191 376.307 211.3 375.74 211.537C375.211 211.773 374.799 212.094 374.542 212.501C374.286 212.951 374.146 213.444 374.085 214.022C374.024 214.601 374.003 215.267 374.022 215.977C374.04 216.686 374.096 217.352 374.187 217.926C374.279 218.501 374.444 218.984 374.722 219.377C375 219.769 375.428 220.069 375.969 220.277C376.548 220.528 377.314 220.596 378.269 220.571C379.3 220.544 380.215 220.476 381.092 220.409C381.969 220.341 382.769 220.231 383.417 220.171C384.216 220.061 384.939 219.953 385.585 219.803L385.671 223.086C385.406 223.182 385.025 223.235 384.531 223.337C383.963 223.453 383.392 223.557 382.819 223.649C382.173 223.754 381.448 223.818 380.725 223.881C379.963 223.99 379.2 224.01 378.397 224.031C376.756 224.074 375.378 223.977 374.337 223.649C373.297 223.321 372.483 222.854 371.93 222.158C371.339 221.508 370.934 220.63 370.716 219.615C370.499 218.6 370.353 217.404 370.318 216.074ZM390.751 212.831C391.168 212.687 391.586 212.587 392.042 212.486C392.421 212.388 392.878 212.332 393.372 212.23C393.906 212.171 394.401 212.114 394.973 212.099C396.31 212.064 397.457 212.123 398.377 212.232C399.297 212.34 400.069 212.631 400.615 213.061C401.199 213.445 401.635 214.055 401.884 214.803C402.171 215.551 402.311 216.524 402.342 217.721L402.486 223.223L398.821 223.319L398.677 217.817C398.663 217.285 398.614 216.886 398.491 216.579C398.369 216.272 398.172 216.055 397.902 215.929C397.629 215.758 397.283 215.679 396.823 215.602C396.364 215.57 395.752 215.586 395.065 215.604L394.187 215.627C393.845 215.68 393.501 215.689 393.119 215.699C392.739 215.753 392.358 215.808 391.976 215.818C391.557 215.873 391.175 215.883 390.833 215.936L391.031 223.522L387.557 223.613L387.137 207.599L390.612 207.508L390.751 212.831L390.751 212.831ZM418.085 216.288L418.109 217.22C418.116 217.486 418.084 217.709 418.09 217.931C418.096 218.152 418.063 218.375 418.068 218.553L407.415 218.832C407.582 219.36 407.974 219.75 408.554 220C409.134 220.252 409.977 220.363 411.084 220.334L411.81 220.315C412.114 220.262 412.419 220.254 412.763 220.245C413.068 220.193 413.411 220.184 413.793 220.174C414.136 220.121 414.517 220.111 414.823 220.103C415.623 220.037 416.462 219.971 417.339 219.904L417.403 222.344C416.681 222.495 415.998 222.646 415.275 222.799C414.591 222.91 413.906 223.017 413.221 223.119C412.497 223.227 411.81 223.245 411.161 223.262C409.825 223.297 408.678 223.282 407.757 223.129C406.837 223.02 406.065 222.729 405.482 222.345C404.898 221.916 404.462 221.35 404.213 220.602C403.926 219.855 403.787 218.882 403.755 217.684C403.724 216.487 403.813 215.508 404.06 214.746C404.27 213.986 404.673 213.354 405.236 212.941C405.797 212.481 406.553 212.151 407.465 211.994C408.378 211.837 409.521 211.718 410.857 211.683C411.927 211.655 412.922 211.718 413.804 211.828C414.686 211.937 415.418 212.185 416.038 212.524C416.66 212.907 417.168 213.383 417.528 213.994C417.888 214.606 418.061 215.357 418.085 216.288ZM414.452 216.161L414.439 215.674C414.435 215.54 414.356 215.409 414.276 215.278C414.196 215.147 414.04 215.018 413.808 214.936C413.459 214.83 413.099 214.765 412.734 214.741C412.136 214.697 411.536 214.683 410.936 214.7C409.753 214.731 408.878 214.887 408.312 215.168C407.747 215.449 407.415 215.901 407.316 216.526L414.456 216.339L414.452 216.161ZM419.66 212.207C420.19 212.06 420.761 211.956 421.407 211.807C422.015 211.702 422.664 211.64 423.31 211.534C423.958 211.473 424.644 211.411 425.33 211.349C426.016 211.286 426.666 211.269 427.353 211.251L427.43 214.179C426.704 214.198 426.095 214.303 425.562 214.361C425.068 214.463 424.612 214.564 424.27 214.617C423.852 214.717 423.511 214.815 423.207 214.911L423.411 222.674L419.936 222.765L419.66 212.207Z" fill="#E06329"/>
</g>
<path d="M599.998 279.12C590.661 281.745 582.28 287.004 575.866 294.264C569.452 301.523 565.277 310.474 563.844 320.038L563.493 322.369C563.442 322.71 563.477 323.058 563.595 323.382C563.714 323.705 563.912 323.994 564.171 324.222C564.43 324.449 564.742 324.608 565.079 324.685C565.416 324.761 565.767 324.752 566.1 324.658L568.376 324.019C577.713 321.393 586.093 316.134 592.507 308.875C598.922 301.616 603.097 292.665 604.53 283.101L605.354 277.615L599.998 279.12Z" fill="url(#paint17_linear)"/>
<path d="M569.52 322.139C568.556 312.488 564.832 303.322 558.797 295.745C552.761 288.167 544.672 282.501 535.502 279.429L533.267 278.678C532.94 278.569 532.591 278.543 532.252 278.604C531.913 278.664 531.594 278.809 531.325 279.025C531.056 279.24 530.845 279.52 530.711 279.839C530.577 280.157 530.525 280.505 530.56 280.849L530.794 283.201C531.759 292.852 535.482 302.018 541.518 309.596C547.553 317.173 555.643 322.839 564.813 325.911L570.072 327.675L569.52 322.139Z" fill="url(#paint18_linear)"/>
<path d="M556.33 311.917H543.745C536.371 303.932 531.82 293.698 530.805 282.815L530.56 280.576C530.517 280.082 530.607 279.586 530.819 279.139L556.33 311.917Z" fill="url(#paint19_linear)"/>
<path d="M576.439 312.214C580.361 298.517 574.816 279.741 564.116 270.495L556.81 264.182C556.555 263.962 556.25 263.81 555.923 263.74C555.596 263.67 555.256 263.684 554.936 263.782C554.615 263.88 554.324 264.057 554.088 264.298C553.852 264.54 553.68 264.837 553.587 265.163L550.909 274.516C546.987 288.214 552.532 306.99 563.232 316.236L572.897 324.587L576.439 312.214Z" fill="url(#paint20_linear)"/>
<path d="M584.803 297.653L583.443 287.799C589.549 280.562 597.905 275.124 607.203 272.335L609.112 271.732C609.534 271.609 609.973 271.588 610.382 271.672L584.803 297.653Z" fill="url(#paint21_linear)"/>
<path d="M561.325 350.692H578.096C580.875 350.692 577.899 348.256 577.442 347.212C577.512 345.613 575.595 344.428 575.595 342.167V325.115C575.595 322.854 575.555 320.686 575.485 319.087C575.414 317.488 575.318 316.59 575.219 316.59L566.044 320.069C565.944 320.076 564.722 320.211 564.652 321.809C564.582 323.408 563.925 322.859 563.925 325.115L562.992 342.167C561.881 345.124 561.255 345.613 561.325 347.212C561.396 348.811 559.38 350.692 561.325 350.692Z" fill="url(#paint22_linear)"/>
<path d="M574.869 279.119C565.532 281.744 557.152 287.003 550.738 294.263C544.323 301.522 540.148 310.473 538.715 320.037L538.364 322.368C538.313 322.709 538.348 323.057 538.467 323.38C538.585 323.704 538.783 323.993 539.042 324.22C539.301 324.448 539.614 324.607 539.951 324.684C540.288 324.76 540.638 324.751 540.971 324.657L543.247 324.018C552.584 321.392 560.964 316.133 567.379 308.874C573.793 301.614 577.968 292.664 579.401 283.1L580.225 277.614L574.869 279.119Z" fill="url(#paint23_linear)"/>
<path d="M544.392 322.139C543.428 312.487 539.704 303.321 533.668 295.744C527.633 288.166 519.543 282.501 510.373 279.429L508.138 278.678C507.812 278.568 507.463 278.542 507.124 278.603C506.784 278.663 506.466 278.808 506.197 279.024C505.927 279.24 505.716 279.52 505.583 279.838C505.449 280.157 505.397 280.504 505.431 280.848L505.666 283.2C506.63 292.851 510.354 302.017 516.389 309.595C522.425 317.172 530.514 322.838 539.684 325.91L544.943 327.675L544.392 322.139Z" fill="url(#paint24_linear)"/>
<path d="M531.202 311.916H518.617C511.243 303.932 506.692 293.697 505.677 282.814L505.431 280.576C505.389 280.082 505.478 279.585 505.691 279.138L531.202 311.916Z" fill="url(#paint25_linear)"/>
<path d="M551.31 312.213C555.233 298.516 549.688 279.74 538.987 270.493L531.682 264.18C531.427 263.96 531.122 263.808 530.794 263.738C530.467 263.668 530.127 263.683 529.807 263.781C529.486 263.878 529.195 264.056 528.959 264.297C528.724 264.538 528.551 264.835 528.458 265.162L525.78 274.515C521.858 288.212 527.403 306.988 538.104 316.235L547.768 324.586L551.31 312.213Z" fill="url(#paint26_linear)"/>
<path d="M559.674 297.651L558.315 287.798C564.421 280.561 572.777 275.122 582.075 272.333L583.984 271.731C584.406 271.607 584.845 271.586 585.254 271.671L559.674 297.651Z" fill="url(#paint27_linear)"/>
<path d="M536.197 350.691H552.967C555.746 350.691 552.77 348.255 552.313 347.211C552.384 345.612 550.467 344.427 550.467 342.166V325.114C550.467 322.853 550.427 320.685 550.356 319.086C550.286 317.487 550.19 316.589 550.09 316.589L540.916 320.068C540.816 320.075 539.594 320.21 539.524 321.808C539.453 323.407 538.796 322.858 538.796 325.114L537.864 342.166C536.752 345.123 536.126 345.612 536.197 347.211C536.267 348.81 534.252 350.691 536.197 350.691Z" fill="url(#paint28_linear)"/>
<path d="M539.448 278.424C530.111 281.049 521.731 286.308 515.317 293.568C508.902 300.827 504.728 309.778 503.294 319.342L502.943 321.673C502.892 322.014 502.927 322.362 503.046 322.686C503.164 323.009 503.362 323.298 503.621 323.526C503.88 323.753 504.193 323.912 504.53 323.989C504.867 324.065 505.218 324.056 505.55 323.962L507.826 323.323C517.163 320.697 525.544 315.438 531.958 308.179C538.372 300.92 542.547 291.969 543.98 282.405L544.805 276.919L539.448 278.424Z" fill="url(#paint29_linear)"/>
<path d="M508.971 321.444C508.007 311.792 504.283 302.626 498.247 295.049C492.212 287.472 484.122 281.806 474.952 278.734L472.717 277.983C472.391 277.873 472.042 277.848 471.703 277.908C471.363 277.969 471.045 278.113 470.776 278.329C470.506 278.545 470.295 278.825 470.162 279.143C470.028 279.462 469.976 279.809 470.01 280.153L470.245 282.505C471.209 292.157 474.933 301.323 480.968 308.9C487.004 316.477 495.093 322.143 504.263 325.215L509.522 326.98L508.971 321.444Z" fill="url(#paint30_linear)"/>
<path d="M495.781 311.221H483.196C475.822 303.237 471.271 293.002 470.256 282.119L470.01 279.881C469.968 279.387 470.057 278.89 470.27 278.444L495.781 311.221Z" fill="url(#paint31_linear)"/>
<path d="M515.889 311.518C519.812 297.821 514.267 279.045 503.566 269.799L496.261 263.485C496.006 263.265 495.701 263.113 495.373 263.043C495.046 262.974 494.706 262.988 494.386 263.086C494.065 263.183 493.774 263.361 493.538 263.602C493.303 263.843 493.13 264.141 493.037 264.467L490.359 273.82C486.437 287.518 491.982 306.293 502.683 315.54L512.347 323.891L515.889 311.518Z" fill="url(#paint32_linear)"/>
<path d="M524.253 296.956L522.894 287.103C529 279.866 537.356 274.428 546.654 271.639L548.563 271.036C548.985 270.912 549.424 270.891 549.833 270.976L524.253 296.956Z" fill="url(#paint33_linear)"/>
<path d="M500.776 349.996H517.546C520.325 349.996 517.349 347.56 516.892 346.517C516.963 344.918 515.046 343.732 515.046 341.471V324.419C515.046 322.158 515.006 319.99 514.935 318.391C514.865 316.792 514.769 315.894 514.669 315.894L505.495 319.374C505.395 319.38 504.173 319.515 504.103 321.114C504.032 322.712 503.375 322.163 503.375 324.419L502.443 341.471C501.331 344.429 500.705 344.918 500.776 346.517C500.846 348.115 498.831 349.996 500.776 349.996Z" fill="url(#paint34_linear)"/>
<defs>
<filter id="filter0_d" x="236.82" y="207.508" width="194.61" height="27.9369" filterUnits="userSpaceOnUse" color-interpolation-filters="sRGB">
<feFlood flood-opacity="0" result="BackgroundImageFix"/>
<feColorMatrix in="SourceAlpha" type="matrix" values="0 0 0 0 0 0 0 0 0 0 0 0 0 0 0 0 0 0 127 0"/>
<feOffset dy="4"/>
<feGaussianBlur stdDeviation="2"/>
<feColorMatrix type="matrix" values="0 0 0 0 0 0 0 0 0 0 0 0 0 0 0 0 0 0 0.25 0"/>
<feBlend mode="normal" in2="BackgroundImageFix" result="effect1_dropShadow"/>
<feBlend mode="normal" in="SourceGraphic" in2="effect1_dropShadow" result="shape"/>
</filter>
<linearGradient id="paint0_linear" x1="1084.31" y1="222.597" x2="1470.46" y2="-162.733" gradientUnits="userSpaceOnUse">
<stop stop-color="#FFDC2E"/>
<stop offset="0.0902" stop-color="#FFE359"/>
<stop offset="0.1987" stop-color="#FFEA84"/>
<stop offset="0.3124" stop-color="#FFF1AA"/>
<stop offset="0.4299" stop-color="#FFF6C9"/>
<stop offset="0.5524" stop-color="#FFFAE1"/>
<stop offset="0.682" stop-color="#FFFDF2"/>
<stop offset="0.8237" stop-color="#FFFEFC"/>
<stop offset="1" stop-color="white"/>
</linearGradient>
<linearGradient id="paint1_linear" x1="806.308" y1="262.031" x2="907.859" y2="216.818" gradientUnits="userSpaceOnUse">
<stop stop-color="#F39121"/>
<stop offset="0.2718" stop-color="#F39121"/>
<stop offset="0.9643" stop-color="#F8AE3C"/>
<stop offset="1" stop-color="#F8AE3C"/>
</linearGradient>
<linearGradient id="paint2_linear" x1="739.232" y1="198.209" x2="880.356" y2="218.072" gradientUnits="userSpaceOnUse">
<stop stop-color="#46AE4D"/>
<stop offset="0.262" stop-color="#46AE4D"/>
<stop offset="0.7615" stop-color="#009045"/>
<stop offset="1" stop-color="#009045"/>
</linearGradient>
<linearGradient id="paint3_linear" x1="981.989" y1="218.112" x2="996.715" y2="256.476" gradientUnits="userSpaceOnUse">
<stop stop-color="#EB5B2D"/>
<stop offset="1" stop-color="#BF292E"/>
</linearGradient>
<linearGradient id="paint4_linear" x1="785.989" y1="299.008" x2="642" y2="299.008" gradientUnits="userSpaceOnUse">
<stop stop-color="#0A72B9"/>
<stop offset="0.2788" stop-color="#0A72B9"/>
<stop offset="0.7727" stop-color="#0C4D86"/>
<stop offset="1" stop-color="#0C4D86"/>
</linearGradient>
<linearGradient id="paint5_linear" x1="672.995" y1="278.496" x2="662.003" y2="278.496" gradientUnits="userSpaceOnUse">
<stop offset="0.2788" stop-color="white"/>
<stop offset="1" stop-color="#9FD8F0"/>
</linearGradient>
<linearGradient id="paint6_linear" x1="667.997" y1="275.999" x2="654.999" y2="275.999" gradientUnits="userSpaceOnUse">
<stop offset="0.2788" stop-color="white"/>
<stop offset="1" stop-color="#9FD8F0"/>
</linearGradient>
<linearGradient id="paint7_linear" x1="747.045" y1="273.644" x2="652.579" y2="285.013" gradientUnits="userSpaceOnUse">
<stop offset="0.2788" stop-color="white"/>
<stop offset="1" stop-color="#9FD8F0"/>
</linearGradient>
<linearGradient id="paint8_linear" x1="939.923" y1="133.409" x2="965.041" y2="198.846" gradientUnits="userSpaceOnUse">
<stop stop-color="#EB5B2D"/>
<stop offset="1" stop-color="#BF292E"/>
</linearGradient>
<linearGradient id="paint9_linear" x1="934.685" y1="306.79" x2="948.565" y2="357.851" gradientUnits="userSpaceOnUse">
<stop stop-color="#F39121"/>
<stop offset="0.2718" stop-color="#F39121"/>
<stop offset="0.9643" stop-color="#F8AE3C"/>
<stop offset="1" stop-color="#F8AE3C"/>
</linearGradient>
<linearGradient id="paint10_linear" x1="993.435" y1="287.567" x2="1005.33" y2="324.582" gradientUnits="userSpaceOnUse">
<stop stop-color="#EB5B2D"/>
<stop offset="1" stop-color="#BF292E"/>
</linearGradient>
<linearGradient id="paint11_linear" x1="997.473" y1="122.989" x2="1041.25" y2="122.989" gradientUnits="userSpaceOnUse">
<stop stop-color="#EB5B2D"/>
<stop offset="1" stop-color="#BF292E"/>
</linearGradient>
<linearGradient id="paint12_linear" x1="123.102" y1="263.226" x2="123.102" y2="353.211" gradientUnits="userSpaceOnUse">
<stop stop-color="#B3FFFF"/>
<stop offset="0.069" stop-color="#BDFFFF"/>
<stop offset="0.3065" stop-color="#DAFFFF"/>
<stop offset="0.5428" stop-color="#EEFFFF"/>
<stop offset="0.7755" stop-color="#FBFFFF"/>
<stop offset="1" stop-color="white"/>
</linearGradient>
<linearGradient id="paint13_linear" x1="180.018" y1="204.262" x2="180.018" y2="259.021" gradientUnits="userSpaceOnUse">
<stop stop-color="#B3FFFF"/>
<stop offset="0.069" stop-color="#BDFFFF"/>
<stop offset="0.3065" stop-color="#DAFFFF"/>
<stop offset="0.5428" stop-color="#EEFFFF"/>
<stop offset="0.7755" stop-color="#FBFFFF"/>
<stop offset="1" stop-color="white"/>
</linearGradient>
<linearGradient id="paint14_linear" x1="338.437" y1="161.149" x2="338.437" y2="187.906" gradientUnits="userSpaceOnUse">
<stop stop-color="#B3FFFF"/>
<stop offset="0.069" stop-color="#BDFFFF"/>
<stop offset="0.3065" stop-color="#DAFFFF"/>
<stop offset="0.5428" stop-color="#EEFFFF"/>
<stop offset="0.7755" stop-color="#FBFFFF"/>
<stop offset="1" stop-color="white"/>
</linearGradient>
<linearGradient id="paint15_linear" x1="121.431" y1="219.479" x2="121.431" y2="259.303" gradientUnits="userSpaceOnUse">
<stop stop-color="#B3FFFF"/>
<stop offset="0.069" stop-color="#BDFFFF"/>
<stop offset="0.3065" stop-color="#DAFFFF"/>
<stop offset="0.5428" stop-color="#EEFFFF"/>
<stop offset="0.7755" stop-color="#FBFFFF"/>
<stop offset="1" stop-color="white"/>
</linearGradient>
<linearGradient id="paint16_linear" x1="484.673" y1="131.946" x2="484.673" y2="199.852" gradientUnits="userSpaceOnUse">
<stop stop-color="#B3FFFF"/>
<stop offset="0.069" stop-color="#BDFFFF"/>
<stop offset="0.3065" stop-color="#DAFFFF"/>
<stop offset="0.5428" stop-color="#EEFFFF"/>
<stop offset="0.7755" stop-color="#FBFFFF"/>
<stop offset="1" stop-color="white"/>
</linearGradient>
<linearGradient id="paint17_linear" x1="567.853" y1="243.935" x2="557.078" y2="182.827" gradientUnits="userSpaceOnUse">
<stop stop-color="#B6DD54"/>
<stop offset="0.143" stop-color="#B2DC54"/>
<stop offset="0.292" stop-color="#A5D753"/>
<stop offset="0.443" stop-color="#91D051"/>
<stop offset="0.595" stop-color="#74C64F"/>
<stop offset="0.749" stop-color="#4EB94D"/>
<stop offset="0.902" stop-color="#21A949"/>
<stop offset="1" stop-color="#009E47"/>
</linearGradient>
<linearGradient id="paint18_linear" x1="609.752" y1="296.593" x2="671.803" y2="296.593" gradientUnits="userSpaceOnUse">
<stop stop-color="#B6DD54"/>
<stop offset="0.143" stop-color="#B2DC54"/>
<stop offset="0.292" stop-color="#A5D753"/>
<stop offset="0.443" stop-color="#91D051"/>
<stop offset="0.595" stop-color="#74C64F"/>
<stop offset="0.749" stop-color="#4EB94D"/>
<stop offset="0.902" stop-color="#21A949"/>
<stop offset="1" stop-color="#009E47"/>
</linearGradient>
<linearGradient id="paint19_linear" x1="527.224" y1="281.925" x2="557.751" y2="306.948" gradientUnits="userSpaceOnUse">
<stop stop-color="#302926" stop-opacity="0"/>
<stop offset="0.388" stop-color="#2D2724" stop-opacity="0.027"/>
<stop offset="0.621" stop-color="#25201D" stop-opacity="0.043"/>
<stop offset="0.812" stop-color="#171412" stop-opacity="0.059"/>
<stop offset="0.981" stop-color="#030202" stop-opacity="0.071"/>
<stop offset="1" stop-opacity="0.071"/>
</linearGradient>
<linearGradient id="paint20_linear" x1="552.173" y1="259.434" x2="591.479" y2="293.28" gradientUnits="userSpaceOnUse">
<stop stop-color="#B6DD54"/>
<stop offset="1" stop-color="#009E47"/>
</linearGradient>
<linearGradient id="paint21_linear" x1="607.585" y1="269.368" x2="593.01" y2="299.662" gradientUnits="userSpaceOnUse">
<stop stop-color="#302926" stop-opacity="0"/>
<stop offset="0.388" stop-color="#2D2724" stop-opacity="0.027"/>
<stop offset="0.621" stop-color="#25201D" stop-opacity="0.043"/>
<stop offset="0.812" stop-color="#171412" stop-opacity="0.059"/>
<stop offset="0.981" stop-color="#030202" stop-opacity="0.071"/>
<stop offset="1" stop-opacity="0.071"/>
</linearGradient>
<linearGradient id="paint22_linear" x1="604.574" y1="357.304" x2="592.46" y2="357.304" gradientUnits="userSpaceOnUse">
<stop stop-color="#B16464"/>
<stop offset="0.59" stop-color="#9C6764"/>
<stop offset="1" stop-color="#936864"/>
</linearGradient>
<linearGradient id="paint23_linear" x1="542.725" y1="243.934" x2="531.95" y2="182.826" gradientUnits="userSpaceOnUse">
<stop stop-color="#B6DD54"/>
<stop offset="0.143" stop-color="#B2DC54"/>
<stop offset="0.292" stop-color="#A5D753"/>
<stop offset="0.443" stop-color="#91D051"/>
<stop offset="0.595" stop-color="#74C64F"/>
<stop offset="0.749" stop-color="#4EB94D"/>
<stop offset="0.902" stop-color="#21A949"/>
<stop offset="1" stop-color="#009E47"/>
</linearGradient>
<linearGradient id="paint24_linear" x1="584.624" y1="296.592" x2="646.674" y2="296.592" gradientUnits="userSpaceOnUse">
<stop stop-color="#B6DD54"/>
<stop offset="0.143" stop-color="#B2DC54"/>
<stop offset="0.292" stop-color="#A5D753"/>
<stop offset="0.443" stop-color="#91D051"/>
<stop offset="0.595" stop-color="#74C64F"/>
<stop offset="0.749" stop-color="#4EB94D"/>
<stop offset="0.902" stop-color="#21A949"/>
<stop offset="1" stop-color="#009E47"/>
</linearGradient>
<linearGradient id="paint25_linear" x1="502.095" y1="281.925" x2="532.622" y2="306.947" gradientUnits="userSpaceOnUse">
<stop stop-color="#302926" stop-opacity="0"/>
<stop offset="0.388" stop-color="#2D2724" stop-opacity="0.027"/>
<stop offset="0.621" stop-color="#25201D" stop-opacity="0.043"/>
<stop offset="0.812" stop-color="#171412" stop-opacity="0.059"/>
<stop offset="0.981" stop-color="#030202" stop-opacity="0.071"/>
<stop offset="1" stop-opacity="0.071"/>
</linearGradient>
<linearGradient id="paint26_linear" x1="527.045" y1="259.432" x2="566.351" y2="293.278" gradientUnits="userSpaceOnUse">
<stop stop-color="#B6DD54"/>
<stop offset="1" stop-color="#009E47"/>
</linearGradient>
<linearGradient id="paint27_linear" x1="582.457" y1="269.366" x2="567.882" y2="299.661" gradientUnits="userSpaceOnUse">
<stop stop-color="#302926" stop-opacity="0"/>
<stop offset="0.388" stop-color="#2D2724" stop-opacity="0.027"/>
<stop offset="0.621" stop-color="#25201D" stop-opacity="0.043"/>
<stop offset="0.812" stop-color="#171412" stop-opacity="0.059"/>
<stop offset="0.981" stop-color="#030202" stop-opacity="0.071"/>
<stop offset="1" stop-opacity="0.071"/>
</linearGradient>
<linearGradient id="paint28_linear" x1="579.446" y1="357.303" x2="567.332" y2="357.303" gradientUnits="userSpaceOnUse">
<stop stop-color="#B16464"/>
<stop offset="0.59" stop-color="#9C6764"/>
<stop offset="1" stop-color="#936864"/>
</linearGradient>
<linearGradient id="paint29_linear" x1="507.304" y1="243.239" x2="496.529" y2="182.131" gradientUnits="userSpaceOnUse">
<stop stop-color="#B6DD54"/>
<stop offset="0.143" stop-color="#B2DC54"/>
<stop offset="0.292" stop-color="#A5D753"/>
<stop offset="0.443" stop-color="#91D051"/>
<stop offset="0.595" stop-color="#74C64F"/>
<stop offset="0.749" stop-color="#4EB94D"/>
<stop offset="0.902" stop-color="#21A949"/>
<stop offset="1" stop-color="#009E47"/>
</linearGradient>
<linearGradient id="paint30_linear" x1="549.203" y1="295.897" x2="611.253" y2="295.897" gradientUnits="userSpaceOnUse">
<stop stop-color="#B6DD54"/>
<stop offset="0.143" stop-color="#B2DC54"/>
<stop offset="0.292" stop-color="#A5D753"/>
<stop offset="0.443" stop-color="#91D051"/>
<stop offset="0.595" stop-color="#74C64F"/>
<stop offset="0.749" stop-color="#4EB94D"/>
<stop offset="0.902" stop-color="#21A949"/>
<stop offset="1" stop-color="#009E47"/>
</linearGradient>
<linearGradient id="paint31_linear" x1="466.674" y1="281.23" x2="497.201" y2="306.253" gradientUnits="userSpaceOnUse">
<stop stop-color="#302926" stop-opacity="0"/>
<stop offset="0.388" stop-color="#2D2724" stop-opacity="0.027"/>
<stop offset="0.621" stop-color="#25201D" stop-opacity="0.043"/>
<stop offset="0.812" stop-color="#171412" stop-opacity="0.059"/>
<stop offset="0.981" stop-color="#030202" stop-opacity="0.071"/>
<stop offset="1" stop-opacity="0.071"/>
</linearGradient>
<linearGradient id="paint32_linear" x1="491.624" y1="258.738" x2="530.93" y2="292.584" gradientUnits="userSpaceOnUse">
<stop stop-color="#B6DD54"/>
<stop offset="1" stop-color="#009E47"/>
</linearGradient>
<linearGradient id="paint33_linear" x1="547.036" y1="268.671" x2="532.461" y2="298.966" gradientUnits="userSpaceOnUse">
<stop stop-color="#302926" stop-opacity="0"/>
<stop offset="0.388" stop-color="#2D2724" stop-opacity="0.027"/>
<stop offset="0.621" stop-color="#25201D" stop-opacity="0.043"/>
<stop offset="0.812" stop-color="#171412" stop-opacity="0.059"/>
<stop offset="0.981" stop-color="#030202" stop-opacity="0.071"/>
<stop offset="1" stop-opacity="0.071"/>
</linearGradient>
<linearGradient id="paint34_linear" x1="544.025" y1="356.608" x2="531.911" y2="356.608" gradientUnits="userSpaceOnUse">
<stop stop-color="#B16464"/>
<stop offset="0.59" stop-color="#9C6764"/>
<stop offset="1" stop-color="#936864"/>
</linearGradient>
</defs>
</svg>
