<svg width="768" height="690" viewBox="0 0 768 690" fill="none" xmlns="http://www.w3.org/2000/svg">
<rect width="768" height="690" fill="#E5E5E5"/>
<rect width="768" height="690" fill="#54A3FF"/>
<path opacity="0.05" d="M252.5 178C273.211 178 290 161.658 290 141.5C290 121.342 273.211 105 252.5 105C231.789 105 215 121.342 215 141.5C215 161.658 231.789 178 252.5 178Z" fill="white" stroke="white" stroke-width="2"/>
<path opacity="0.05" d="M458.5 184C546.589 184 618 112.589 618 24.5C618 -63.5894 546.589 -135 458.5 -135C370.411 -135 299 -63.5894 299 24.5C299 112.589 370.411 184 458.5 184Z" fill="white" stroke="white" stroke-width="2"/>
<path opacity="0.05" d="M62 156C119.438 156 166 108.99 166 51C166 -6.9899 119.438 -54 62 -54C4.56238 -54 -42 -6.9899 -42 51C-42 108.99 4.56238 156 62 156Z" fill="white" stroke="white" stroke-width="2"/>
<path d="M724.5 -35C594.437 -35 489 70.6608 489 201C489 331.339 594.437 437 724.5 437C854.563 437 960 331.339 960 201C960 70.6608 854.563 -35 724.5 -35Z" fill="url(#paint0_linear)"/>
<path d="M14.4679 689.584L7.88657 620.181H53.0876V689.584H14.4679Z" fill="url(#paint1_linear)" stroke="#968F8F"/>
<path d="M100.866 570.347L52.0459 571.888V617.111H100.866V570.347Z" fill="url(#paint2_linear)"/>
<path d="M302.313 559.555V528.978L197.479 536.686L93.9182 555.701L91.1021 569.319L302.313 559.555Z" fill="url(#paint3_linear)"/>
<path d="M7.83691 616.611V586.229L49.4903 583.218V616.611H7.83691Z" fill="url(#paint4_linear)" stroke="#968F8F"/>
<path d="M102.922 571.134L303.341 563.152V689.551L102.922 690.085V571.134Z" fill="#C4C4C4"/>
<path d="M303.341 563.152L389.676 575.999L385.308 690.084L303.341 689.55V563.152Z" fill="#CCCCCC"/>
<path d="M105.491 586.106L300.258 582.937V586.791L105.491 588.846V586.106Z" fill="#9C9A9A"/>
<path d="M105.491 592.273L300.258 589.104V592.958L105.491 595.014V592.273Z" fill="#9C9A9A"/>
<path d="M105.491 573.087L300.258 568.12V573.772L105.491 575.828V573.087Z" fill="#9C9A9A"/>
<path d="M105.491 579.424L300.258 576.255V580.11L105.491 582.165V579.424Z" fill="#9C9A9A"/>
<path d="M105.491 598.439L300.258 595.27V599.124L105.491 601.18V598.439Z" fill="#9C9A9A"/>
<path d="M105.491 604.606L300.258 601.437V605.291L105.491 607.347V604.606Z" fill="#9C9A9A"/>
<path d="M105.491 610.773L300.258 607.604V611.458L105.491 613.513V610.773Z" fill="#9C9A9A"/>
<path d="M105.491 616.94L300.258 613.771V617.625L105.491 619.68V616.94Z" fill="#9C9A9A"/>
<path d="M105.491 623.106L300.258 619.937V623.791L105.491 625.847V623.106Z" fill="#9C9A9A"/>
<path d="M105.491 629.273L300.258 626.104V629.958L105.491 632.014V629.273Z" fill="#9C9A9A"/>
<path d="M105.491 635.44L300.258 632.271V636.125L105.491 638.181V635.44Z" fill="#9C9A9A"/>
<path d="M105.491 642.635L300.258 639.466V643.32L105.491 645.375V642.635Z" fill="#9C9A9A"/>
<path d="M105.491 648.801L300.258 645.632V649.486L105.491 651.542V648.801Z" fill="#9C9A9A"/>
<path d="M105.491 654.968L300.258 651.799V655.654L105.491 657.709V654.968Z" fill="#9C9A9A"/>
<path d="M105.491 661.135L300.258 657.966V661.82L105.491 663.875V661.135Z" fill="#9C9A9A"/>
<path d="M105.491 667.301L300.258 664.132V667.987L105.491 670.042V667.301Z" fill="#9C9A9A"/>
<path d="M105.491 673.468L300.258 670.299V674.154L105.491 676.209V673.468Z" fill="#9C9A9A"/>
<path d="M105.491 679.635L300.258 676.466V680.32L105.491 682.376V679.635Z" fill="#9C9A9A"/>
<path d="M105.491 685.802L300.258 682.633V686.487L105.491 688.543V685.802Z" fill="#9C9A9A"/>
<path d="M305.91 563.548L308.737 563.981L307.76 688.029H305.91V563.548Z" fill="#B7B7B7"/>
<path d="M310.021 564.179L312.849 564.612L311.872 688.542H310.021V564.179Z" fill="#B7B7B7"/>
<path d="M314.133 564.693L316.961 565.124L315.983 688.542H314.133V564.693Z" fill="#B7B7B7"/>
<path d="M318.244 565.208L320.814 565.637L319.925 688.543H318.244V565.208Z" fill="#B7B7B7"/>
<path d="M321.841 565.722L324.411 566.149L323.522 688.543H321.841V565.722Z" fill="#B7B7B7"/>
<path d="M325.438 566.235L328.008 566.66L327.12 688.542H325.438V566.235Z" fill="#B7B7B7"/>
<path d="M329.036 566.749L331.091 567.172L330.381 688.542H329.036V566.749Z" fill="#B7B7B7"/>
<path d="M332.119 567.263L334.175 567.685L333.464 688.543H332.119V567.263Z" fill="#B7B7B7"/>
<path d="M335.203 567.777L337.258 568.199L336.548 689.056H335.203V567.777Z" fill="#B7B7B7"/>
<path d="M338.286 568.291L340.342 568.71L339.631 689.056H338.286V568.291Z" fill="#B7B7B7"/>
<path d="M341.37 568.804L343.425 569.222L342.714 689.056H341.37V568.804Z" fill="#B7B7B7"/>
<path d="M344.453 569.318L345.995 569.604L345.462 689.056H344.453V569.318Z" fill="#B7B7B7"/>
<path d="M347.022 569.832L348.564 570.117L348.031 689.056H347.022V569.832Z" fill="#B7B7B7"/>
<path d="M352.161 570.86L353.703 571.142L353.17 689.056H352.161V570.86Z" fill="#B7B7B7"/>
<path d="M349.592 570.347L351.133 570.63L350.6 689.057H349.592V570.347Z" fill="#B7B7B7"/>
<path d="M354.731 571.374L356.273 571.655L355.74 689.056H354.731V571.374Z" fill="#B7B7B7"/>
<path d="M357.3 571.374L358.842 571.656L358.309 689.57H357.3V571.374Z" fill="#B7B7B7"/>
<path d="M362.439 572.402L363.981 572.681L363.448 689.57H362.439V572.402Z" fill="#B7B7B7"/>
<path d="M365.009 572.916L366.037 573.112L365.547 689.57H365.009V572.916Z" fill="#B7B7B7"/>
<path d="M367.064 572.916L368.092 573.112L367.602 689.57H367.064V572.916Z" fill="#B7B7B7"/>
<path d="M369.12 573.429L370.148 573.624L369.658 689.57H369.12V573.429Z" fill="#B7B7B7"/>
<path d="M371.175 573.429L372.203 573.624L371.713 689.57H371.175V573.429Z" fill="#B7B7B7"/>
<path d="M373.231 573.943L374.259 574.137L373.769 689.57H373.231V573.943Z" fill="#B7B7B7"/>
<path d="M375.287 574.458L376.314 574.65L375.825 689.57H375.287V574.458Z" fill="#B7B7B7"/>
<path d="M377.342 574.458L378.37 574.65L377.88 689.57H377.342V574.458Z" fill="#B7B7B7"/>
<path d="M379.398 574.972L380.426 575.165L379.936 690.084H379.398V574.972Z" fill="#B7B7B7"/>
<path d="M381.453 574.972L382.481 575.165L381.991 690.084H381.453V574.972Z" fill="#B7B7B7"/>
<path d="M383.509 575.485L385.051 575.999L383.802 690.084H383.509V575.485Z" fill="#B7B7B7"/>
<path d="M359.87 571.888L361.411 572.169L360.878 689.57H359.87V571.888Z" fill="#B7B7B7"/>
<path d="M133.255 620.634V689.585H110.616V617.681L133.255 620.634Z" fill="#E6E6E6" stroke="#968F8F"/>
<path d="M351.391 569.062L302.827 529.235V559.318L351.391 569.062Z" fill="url(#paint5_linear)"/>
<rect x="50.4902" y="619.181" width="36.0005" height="1.56948" transform="rotate(-90 50.4902 619.181)" fill="#C4C4C4" stroke="#968F8F"/>
<rect x="302.5" y="559.5" width="36.0005" height="1.56948" transform="rotate(-90 302.5 559.5)" fill="#C4C4C4" stroke="#968F8F"/>
<path d="M100.852 617.639V569.819H102.422V617.639H100.852Z" fill="#C4C4C4" stroke="#968F8F"/>
<rect x="7.83691" y="617.611" width="94.5847" height="1.56948" fill="#C4C4C4" stroke="#968F8F"/>
<path d="M86.4631 571.37V569.798L302.327 560.079V563.442L86.4631 571.37Z" fill="#C4C4C4" stroke="#968F8F"/>
<path d="M303.327 563.412V560.149L372.773 572.139L373.878 573.244L303.327 563.412Z" fill="#C4C4C4" stroke="#968F8F"/>
<path d="M47.4067 689.585V620.143L109.616 617.632V689.585H47.4067Z" fill="#EDEDED" stroke="#968F8F"/>
<path d="M271.708 531.28L271.695 531.281L271.682 531.283L237.799 535.536L237.798 535.536L211.792 538.742L211.778 538.743L211.765 538.746L191.066 542.441L191.06 542.443L173.156 545.869L173.141 545.872L173.126 545.875L147.168 552.541L147.157 552.545L124.321 558.981L124.313 558.983L124.305 558.986L106.246 564.727L106.243 564.728L86.8758 570.732L86.8757 570.732L86.8645 570.735L65.921 577.777L65.9162 577.779L2.73183 599.746L-0.797201 587.647L115.897 547.098L150.426 536.913L150.436 536.911L173.446 530.637L219.735 520.141L301.944 506.503L301.839 529.099L271.708 531.28Z" fill="#C4C4C4" stroke="#968F8F"/>
<path d="M302.813 529.258V506.994L374.281 572.964L350.832 569.614L302.813 529.258Z" fill="#DBDBDB" stroke="#968F8F"/>
<line x1="77.2131" y1="635.098" x2="77.2131" y2="688.029" stroke="black"/>
<line x1="108.588" y1="634.055" x2="48.4617" y2="635.597" stroke="black"/>
<path d="M80.3241 662.334C80.3241 662.675 80.2311 662.961 80.1071 663.147C79.9807 663.336 79.861 663.376 79.7963 663.376C79.7317 663.376 79.612 663.336 79.4856 663.147C79.3615 662.961 79.2686 662.675 79.2686 662.334C79.2686 661.993 79.3615 661.707 79.4856 661.521C79.612 661.332 79.7317 661.292 79.7963 661.292C79.861 661.292 79.9807 661.332 80.1071 661.521C80.2311 661.707 80.3241 661.993 80.3241 662.334Z" fill="#C4C4C4" stroke="black"/>
<path d="M52.5035 625.615L55.1691 625.569C56.3838 625.548 57.2675 625.706 57.8204 626.044C58.3771 626.378 58.662 626.922 58.6751 627.676C58.6841 628.187 58.5703 628.609 58.3339 628.942C58.1014 629.274 57.7865 629.477 57.3893 629.55L57.3903 629.609C57.9353 629.72 58.3298 629.94 58.5739 630.268C58.8218 630.596 58.9506 631.035 58.9602 631.586C58.9739 632.367 58.7013 632.981 58.1426 633.428C57.5879 633.875 56.8262 634.108 55.8576 634.124L52.653 634.18L52.5035 625.615ZM54.3788 628.976L55.4333 628.957C55.9255 628.949 56.2795 628.866 56.4956 628.71C56.7156 628.554 56.8225 628.3 56.8163 627.949C56.8106 627.62 56.6855 627.388 56.4408 627.252C56.2001 627.112 55.82 627.046 55.3005 627.055L54.3456 627.072L54.3788 628.976ZM54.404 630.417L54.4429 632.649L55.6264 632.628C56.1263 632.62 56.4937 632.517 56.7286 632.322C56.9635 632.126 57.0775 631.831 57.0706 631.437C57.0582 630.726 56.5443 630.379 55.5288 630.397L54.404 630.417ZM60.3536 625.801C60.3435 625.219 60.6625 624.922 61.3109 624.911C61.9592 624.899 62.2885 625.185 62.2986 625.767C62.3035 626.044 62.2252 626.262 62.0639 626.421C61.9065 626.576 61.6656 626.657 61.3415 626.662C60.6931 626.674 60.3638 626.386 60.3536 625.801ZM62.3605 634.011L60.5737 634.042L60.4593 627.492L62.2462 627.461L62.3605 634.011ZM66.8593 628.529C66.4804 628.536 66.1857 628.662 65.9751 628.908C65.7645 629.15 65.6474 629.492 65.6238 629.934L68.1312 629.89C68.1157 629.449 67.9946 629.111 67.7678 628.877C67.541 628.638 67.2381 628.523 66.8593 628.529ZM67.2075 634.044C66.153 634.062 65.3238 633.785 64.72 633.214C64.1162 632.642 63.805 631.823 63.7863 630.757C63.7672 629.66 64.0258 628.807 64.5621 628.2C65.1023 627.589 65.8567 627.275 66.8254 627.258C67.751 627.242 68.4762 627.493 69.0009 628.011C69.5257 628.53 69.7962 629.253 69.8124 630.183L69.8275 631.05L65.6036 631.124C65.632 631.631 65.7892 632.025 66.0754 632.305C66.3616 632.585 66.7586 632.721 67.2663 632.712C67.6608 632.705 68.0331 632.658 68.3831 632.57C68.7332 632.482 69.0981 632.344 69.4777 632.158L69.5018 633.541C69.1921 633.702 68.8602 633.823 68.506 633.904C68.152 633.988 67.7191 634.035 67.2075 634.044ZM77.3758 633.749L75.5889 633.78L75.5222 629.954C75.5139 629.482 75.4238 629.13 75.2517 628.898C75.0796 628.663 74.81 628.549 74.4429 628.555C73.943 628.564 73.5846 628.738 73.3679 629.078C73.151 629.414 73.0494 629.968 73.0629 630.742L73.1167 633.823L71.3298 633.854L71.2155 627.305L72.5805 627.281L72.8353 628.114L72.9349 628.113C73.1286 627.793 73.3978 627.55 73.7427 627.384C74.0913 627.213 74.4882 627.124 74.9335 627.117C75.6951 627.103 76.2767 627.3 76.6784 627.707C77.0801 628.111 77.2877 628.701 77.3012 629.478L77.3758 633.749ZM80.7737 633.69L78.1637 627.183L80.0325 627.151L81.3631 630.86C81.5119 631.331 81.6076 631.776 81.6501 632.197L81.6853 632.197C81.6983 631.822 81.7783 631.373 81.9255 630.851L83.1199 627.097L84.9888 627.064L82.6074 633.658L80.7737 633.69ZM88.6645 628.149C88.2857 628.155 87.991 628.281 87.7804 628.527C87.5697 628.769 87.4526 629.111 87.4291 629.553L89.9365 629.509C89.921 629.068 89.7999 628.73 89.5731 628.496C89.3462 628.258 89.0434 628.142 88.6645 628.149ZM89.0128 633.663C87.9582 633.681 87.1291 633.405 86.5253 632.833C85.9214 632.262 85.6102 631.443 85.5916 630.376C85.5725 629.279 85.8311 628.427 86.3674 627.82C86.9076 627.208 87.662 626.894 88.6306 626.878C89.5563 626.861 90.2815 627.112 90.8062 627.631C91.331 628.149 91.6014 628.873 91.6177 629.802L91.6328 630.669L87.4088 630.743C87.4372 631.251 87.5945 631.644 87.8807 631.925C88.1669 632.205 88.5638 632.34 89.0716 632.332C89.4661 632.325 89.8383 632.277 90.1884 632.189C90.5385 632.101 90.9033 631.964 91.2829 631.777L91.3071 633.16C90.9974 633.322 90.6654 633.443 90.3113 633.523C89.9573 633.607 89.5244 633.654 89.0128 633.663ZM99.1811 633.368L97.3942 633.399L97.3274 629.574C97.3192 629.101 97.2291 628.749 97.057 628.518C96.8849 628.283 96.6153 628.168 96.2482 628.174C95.7482 628.183 95.3899 628.357 95.1731 628.697C94.9563 629.033 94.8547 629.588 94.8682 630.361L94.9219 633.443L93.1351 633.474L93.0208 626.924L94.3858 626.9L94.6406 627.734L94.7402 627.732C94.9339 627.412 95.2031 627.169 95.5479 627.003C95.8966 626.833 96.2935 626.744 96.7388 626.736C97.5004 626.723 98.082 626.92 98.4837 627.327C98.8853 627.73 99.0929 628.32 99.1065 629.097L99.1811 633.368ZM105.661 633.255L105.406 632.422L105.312 632.423C105.126 632.731 104.859 632.972 104.51 633.146C104.161 633.316 103.762 633.405 103.313 633.413C102.544 633.427 101.96 633.232 101.563 632.829C101.165 632.421 100.959 631.831 100.946 631.058L100.871 626.787L102.658 626.756L102.725 630.581C102.733 631.054 102.823 631.408 102.995 631.643C103.167 631.875 103.437 631.987 103.804 631.981C104.304 631.972 104.662 631.8 104.879 631.464C105.096 631.124 105.198 630.567 105.184 629.794L105.13 626.713L106.917 626.681L107.031 633.231L105.661 633.255ZM55.4098 644.732C55.031 644.738 54.7363 644.864 54.5257 645.11C54.315 645.352 54.1979 645.694 54.1744 646.136L56.6818 646.092C56.6663 645.651 56.5451 645.313 56.3184 645.079C56.0915 644.841 55.7887 644.725 55.4098 644.732ZM55.7581 650.246C54.7035 650.264 53.8744 649.988 53.2705 649.416C52.6667 648.844 52.3555 648.026 52.3369 646.959C52.3177 645.862 52.5763 645.01 53.1127 644.402C53.6529 643.791 54.4073 643.477 55.3759 643.46C56.3015 643.444 57.0267 643.695 57.5515 644.214C58.0762 644.732 58.3467 645.456 58.363 646.385L58.3781 647.252L54.1541 647.326C54.1825 647.833 54.3398 648.227 54.626 648.507C54.9122 648.788 55.3091 648.923 55.8169 648.915C56.2113 648.908 56.5836 648.86 56.9337 648.772C57.2838 648.684 57.6486 648.547 58.0282 648.36L58.0524 649.743C57.7426 649.904 57.4107 650.026 57.0566 650.106C56.7025 650.19 56.2697 650.237 55.7581 650.246Z" fill="black"/>
<rect x="123.113" y="573.843" width="159.308" height="22.6114" transform="rotate(-1.5 123.113 573.843)" fill="#D9D7D7"/>
<g filter="url(#filter0_d)">
<path d="M139.171 577.384L139.511 590.364L136.694 590.438L130.067 580.968L130.319 590.605L127.503 590.679L127.163 577.698L130.846 577.602L136.569 585.656L136.354 577.457L139.171 577.384L139.171 577.384ZM152.309 584.74L152.329 585.495C152.304 585.711 152.308 585.891 152.313 586.071C152.287 586.252 152.292 586.431 152.296 586.575L143.661 586.801C143.796 587.23 144.113 587.545 144.583 587.749C145.053 587.952 145.737 588.042 146.635 588.019L147.223 588.003C147.469 587.961 147.717 587.954 147.996 587.947C148.242 587.905 148.521 587.898 148.831 587.89C149.108 587.846 149.386 587.839 149.665 587.832C150.345 587.776 151.025 587.722 151.705 587.67L151.757 589.648C151.171 589.771 150.586 589.894 150.001 590.018C149.508 590.102 148.952 590.189 148.366 590.276C147.78 590.364 147.223 590.378 146.697 590.392C145.614 590.42 144.684 590.409 143.938 590.284C143.192 590.196 142.566 589.96 142.094 589.649C141.62 589.301 141.268 588.843 141.066 588.237C140.833 587.631 140.72 586.842 140.694 585.871C140.669 584.901 140.741 584.107 140.941 583.49C141.111 582.874 141.439 582.362 141.894 582.026C142.349 581.654 142.961 581.386 143.701 581.259C144.441 581.132 145.368 581.035 146.452 581.007C147.318 580.984 148.124 581.035 148.839 581.125C149.523 581.214 150.147 581.414 150.65 581.689C151.154 581.999 151.566 582.385 151.858 582.88C152.119 583.377 152.29 583.985 152.309 584.74ZM149.364 584.637L149.354 584.242C149.324 584.13 149.279 584.022 149.222 583.921C149.157 583.815 149.031 583.71 148.812 583.644C148.624 583.577 148.344 583.512 147.972 583.486C147.487 583.451 147.001 583.44 146.515 583.452C145.556 583.477 144.847 583.604 144.388 583.832C143.929 584.06 143.66 584.426 143.58 584.932L149.368 584.781L149.364 584.637ZM158.303 590.088C157.529 590.108 156.878 590.089 156.287 589.961C155.696 589.869 155.194 589.63 154.814 589.316C154.402 588.967 154.112 588.507 153.879 587.901C153.677 587.294 153.563 586.506 153.538 585.535L153.419 581.005L156.236 580.931L156.354 585.461C156.364 585.821 156.433 586.107 156.502 586.357C156.569 586.571 156.698 586.748 156.826 586.889C156.995 587.037 157.2 587.143 157.422 587.196C157.639 587.227 157.919 587.256 158.229 587.247L158.755 587.234C158.94 587.229 159.094 587.189 159.28 587.184C159.433 587.144 159.65 587.138 159.835 587.098C160.051 587.092 160.298 587.049 160.607 587.005L160.445 580.821L163.262 580.747L163.487 589.34C163.086 589.423 162.716 589.504 162.316 589.587C161.946 589.668 161.546 589.751 161.144 589.798C160.713 589.881 160.281 589.928 159.818 590.012C159.355 590.06 158.86 590.074 158.303 590.088ZM170.386 581.964L170.452 584.481L167.635 584.554L167.768 589.624L164.92 589.699L164.751 583.227C164.722 582.112 164.758 581.139 164.891 580.308C164.993 579.478 165.254 578.788 165.703 578.2C166.122 577.649 166.73 577.201 167.558 576.892C168.356 576.619 169.436 576.447 170.798 576.412L171.572 576.391L171.64 578.98L170.834 579.001C170.184 579.018 169.629 579.105 169.231 579.259C168.832 579.414 168.497 579.638 168.257 579.896C168.016 580.19 167.869 580.482 167.755 580.845C167.671 581.207 167.62 581.604 167.6 582.036L170.385 581.964L170.386 581.964ZM179.869 589.307L175.222 579.786L175.474 589.422L172.658 589.496L172.318 576.516L176.186 576.414L180.506 585.225L184.388 576.2L188.226 576.099L188.566 589.08L185.749 589.153L185.497 579.517L181.354 589.269L179.869 589.307ZM195.475 579.724C196.589 579.694 197.489 579.742 198.234 579.831C198.98 579.919 199.605 580.155 200.079 580.502C200.552 580.814 200.905 581.308 201.107 581.914C201.34 582.52 201.453 583.309 201.479 584.28C201.504 585.251 201.432 586.044 201.231 586.661C201.062 587.277 200.733 587.753 200.279 588.125C199.823 588.461 199.21 588.729 198.47 588.856C197.732 589.02 196.835 589.079 195.72 589.108C194.638 589.137 193.708 589.125 192.961 589.001C192.216 588.912 191.621 588.676 191.148 588.364C190.675 588.017 190.322 587.558 190.121 586.952C189.888 586.346 189.774 585.558 189.749 584.587C189.723 583.616 189.796 582.823 189.996 582.205C190.166 581.589 190.493 581.077 190.949 580.742C191.404 580.37 191.985 580.103 192.725 579.975C193.465 579.848 194.392 579.751 195.475 579.723L195.475 579.724ZM195.646 586.268C196.234 586.252 196.698 586.204 197.068 586.158C197.438 586.113 197.746 586.033 197.959 585.883C198.173 585.77 198.291 585.551 198.378 585.332C198.464 585.078 198.487 584.754 198.476 584.358C198.465 583.927 198.426 583.604 198.326 583.355C198.227 583.106 198.098 582.929 197.879 582.827C197.659 582.688 197.347 582.625 196.974 582.563C196.602 582.537 196.137 582.549 195.549 582.564C194.992 582.579 194.497 582.592 194.127 582.637C193.757 582.719 193.48 582.798 193.267 582.947C193.054 583.061 192.904 583.245 192.817 583.499C192.743 583.831 192.71 584.17 192.72 584.509C192.73 584.905 192.8 585.227 192.869 585.477C192.968 585.69 193.128 585.902 193.348 586.004C193.568 586.142 193.848 586.207 194.221 586.233C194.593 586.259 195.089 586.282 195.646 586.268ZM205.472 579.462L202.646 580.363L202.864 588.705L205.712 588.631L205.472 579.462ZM205.273 576.624C205.278 576.804 205.252 577.02 205.164 577.203C205.107 577.385 205.018 577.53 204.929 577.677C204.814 577.816 204.669 577.931 204.504 578.012C204.352 578.123 204.199 578.164 204.013 578.169C203.827 578.173 203.672 578.141 203.514 578.038C203.346 577.965 203.195 577.859 203.072 577.726C202.976 577.584 202.879 577.443 202.812 577.264C202.715 577.087 202.678 576.872 202.673 576.692C202.668 576.476 202.694 576.296 202.782 576.114C202.84 575.932 202.928 575.75 203.017 575.604C203.138 575.493 203.29 575.381 203.442 575.269C203.594 575.193 203.748 575.153 203.934 575.148C204.12 575.143 204.275 575.175 204.432 575.243C204.589 575.347 204.747 575.451 204.874 575.555C204.97 575.697 205.068 575.874 205.134 576.052C205.232 576.23 205.268 576.408 205.273 576.624ZM213.704 579.246C214.818 579.217 215.718 579.265 216.463 579.354C217.24 579.441 217.834 579.677 218.308 580.025C218.781 580.336 219.134 580.831 219.336 581.437C219.569 582.043 219.682 582.832 219.708 583.802L219.824 588.262L216.822 588.34L216.705 583.881C216.694 583.45 216.655 583.126 216.556 582.877C216.527 582.763 216.471 582.655 216.394 582.564C216.316 582.473 216.219 582.399 216.108 582.349C215.888 582.211 215.576 582.148 215.203 582.085C214.831 582.059 214.366 582.072 213.778 582.087L213.066 582.106C212.789 582.148 212.51 582.156 212.201 582.164C211.923 582.207 211.584 582.252 211.274 582.26C210.966 582.304 210.656 582.313 210.379 582.355L210.54 588.504L207.723 588.578L207.488 579.589L209.531 579.535L209.883 579.994C210.281 579.803 210.833 579.609 211.512 579.483C212.234 579.344 212.968 579.265 213.704 579.246ZM231.084 585.376C231.098 585.915 231.016 586.349 230.841 586.713C230.665 587.114 230.332 587.411 229.873 587.638C229.415 587.866 228.832 588.061 228.06 588.154C227.32 588.28 226.391 588.305 225.277 588.334C224.844 588.345 224.41 588.321 223.945 588.297C223.509 588.237 223.106 588.211 222.702 588.15C222.298 588.125 221.956 588.062 221.615 588.034C221.304 587.971 221.055 587.941 220.868 587.91L220.813 585.824C221.433 585.844 222.023 585.865 222.58 585.85C223.076 585.873 223.572 585.896 224.067 585.883C224.459 585.9 224.852 585.902 225.244 585.889C225.863 585.872 226.359 585.895 226.73 585.885C227.101 585.84 227.41 585.832 227.595 585.791C227.737 585.766 227.873 585.713 227.994 585.637C228.054 585.563 228.113 585.453 228.111 585.381C228.108 585.274 228.107 585.202 228.043 585.132C227.953 585.088 227.859 585.054 227.761 585.031C227.566 584.992 227.369 584.961 227.17 584.938C226.923 584.945 226.612 584.917 226.209 584.892C224.999 584.815 224.005 584.697 223.258 584.573C222.481 584.45 221.888 584.249 221.479 584.044C221.039 583.804 220.753 583.523 220.589 583.168C220.425 582.812 220.352 582.382 220.34 581.915C220.326 581.411 220.408 580.977 220.584 580.613C220.79 580.212 221.093 579.916 221.551 579.688C222.009 579.424 222.623 579.228 223.364 579.137C224.104 579.009 225.031 578.95 226.177 578.92L227.665 578.988C228.112 579.041 228.557 579.102 229.001 579.169C229.468 579.229 229.903 579.29 230.308 579.387L230.364 581.544C230.045 581.508 229.724 581.481 229.402 581.462C229.03 581.435 228.658 581.445 228.255 581.42C227.852 581.394 227.48 581.404 227.108 581.378C226.737 581.388 226.426 581.36 226.179 581.366L224.693 581.405C224.402 581.41 224.113 581.442 223.828 581.499C223.613 581.541 223.49 581.58 223.399 581.655C223.338 581.726 223.307 581.817 223.313 581.909C223.314 581.981 223.348 582.052 223.38 582.123C223.443 582.158 223.506 582.192 223.661 582.224C223.786 582.256 223.973 582.288 224.22 582.281C224.551 582.317 224.882 582.344 225.214 582.363C226.423 582.439 227.417 582.521 228.195 582.681C228.942 582.805 229.535 583.005 229.976 583.246C230.383 583.451 230.7 583.731 230.834 584.087C230.998 584.443 231.071 584.872 231.084 585.376ZM232.127 581.462C232.098 580.348 232.166 579.374 232.299 578.543C232.432 577.712 232.724 577.021 233.173 576.433C233.592 575.883 234.23 575.434 235.059 575.161C235.888 574.851 236.998 574.678 238.329 574.643C238.948 574.627 239.567 574.611 240.157 574.667C240.777 574.687 241.336 574.745 241.832 574.767C242.36 574.826 242.826 574.885 243.23 574.947C243.634 575.008 243.946 575.072 244.194 575.101L244.264 577.762C244.139 577.729 243.922 577.735 243.58 577.672C243.239 577.645 242.804 577.585 242.276 577.562C241.75 577.54 241.159 577.484 240.478 577.465C239.827 577.446 239.115 577.465 238.372 577.484C237.599 577.505 236.982 577.593 236.522 577.785C236.093 577.976 235.76 578.237 235.551 578.566C235.344 578.931 235.23 579.33 235.181 579.799C235.132 580.269 235.114 580.808 235.13 581.383C235.145 581.959 235.19 582.498 235.264 582.963C235.338 583.429 235.472 583.821 235.697 584.14C235.923 584.458 236.269 584.7 236.708 584.869C237.178 585.072 237.798 585.128 238.572 585.107C239.408 585.086 240.15 585.031 240.86 584.976C241.571 584.921 242.219 584.832 242.745 584.783C243.392 584.694 243.979 584.606 244.502 584.485L244.572 587.145C244.357 587.223 244.049 587.267 243.648 587.35C243.187 587.443 242.725 587.527 242.261 587.602C241.737 587.687 241.149 587.739 240.563 587.79C239.945 587.878 239.326 587.894 238.676 587.911C237.346 587.946 236.229 587.868 235.385 587.602C234.542 587.336 233.882 586.958 233.434 586.393C232.955 585.867 232.627 585.155 232.45 584.332C232.274 583.509 232.156 582.541 232.127 581.462ZM248.69 578.834C249.027 578.717 249.366 578.636 249.736 578.554C250.043 578.475 250.413 578.429 250.814 578.346C251.247 578.299 251.648 578.253 252.112 578.24C253.195 578.212 254.125 578.259 254.871 578.348C255.617 578.436 256.242 578.672 256.685 579.02C257.158 579.331 257.511 579.826 257.713 580.432C257.946 581.038 258.059 581.827 258.085 582.797L258.201 587.257L255.23 587.334L255.114 582.875C255.102 582.444 255.063 582.121 254.963 581.872C254.864 581.623 254.705 581.447 254.485 581.344C254.265 581.206 253.984 581.142 253.611 581.079C253.239 581.054 252.743 581.067 252.186 581.081L251.475 581.1C251.197 581.143 250.919 581.15 250.609 581.158C250.301 581.202 249.992 581.246 249.682 581.255C249.343 581.299 249.033 581.308 248.756 581.35L248.917 587.499L246.1 587.573L245.76 574.593L248.577 574.519L248.69 578.833L248.69 578.834ZM270.845 581.636L270.865 582.391C270.87 582.607 270.844 582.787 270.849 582.967C270.854 583.147 270.827 583.327 270.831 583.471L262.197 583.697C262.332 584.126 262.65 584.441 263.12 584.645C263.59 584.848 264.273 584.938 265.17 584.915L265.759 584.899C266.005 584.857 266.253 584.85 266.531 584.843C266.778 584.801 267.057 584.794 267.366 584.786C267.644 584.742 267.953 584.734 268.201 584.728C268.85 584.675 269.53 584.621 270.24 584.566L270.292 586.544C269.707 586.667 269.153 586.789 268.568 586.913C268.013 587.003 267.458 587.09 266.902 587.172C266.316 587.26 265.759 587.274 265.232 587.288C264.15 587.316 263.22 587.305 262.473 587.18C261.728 587.092 261.103 586.856 260.63 586.545C260.156 586.197 259.803 585.739 259.601 585.133C259.369 584.527 259.255 583.738 259.23 582.767C259.205 581.797 259.276 581.003 259.477 580.386C259.647 579.77 259.974 579.258 260.43 578.922C260.885 578.55 261.497 578.282 262.237 578.155C262.977 578.028 263.904 577.931 264.987 577.903C265.853 577.88 266.66 577.931 267.375 578.021C268.09 578.109 268.683 578.31 269.186 578.585C269.69 578.895 270.102 579.281 270.394 579.776C270.685 580.272 270.825 580.881 270.845 581.636ZM267.9 581.533L267.89 581.138C267.887 581.029 267.823 580.923 267.758 580.817C267.693 580.711 267.566 580.606 267.379 580.539C267.096 580.454 266.803 580.401 266.508 580.382C266.023 580.346 265.537 580.335 265.051 580.348C264.092 580.373 263.382 580.5 262.924 580.728C262.466 580.956 262.196 581.322 262.116 581.828L267.904 581.677L267.9 581.533ZM272.121 578.328C272.552 578.209 273.014 578.125 273.538 578.003C274.031 577.918 274.556 577.868 275.08 577.782C275.605 577.733 276.161 577.682 276.718 577.632C277.274 577.582 277.8 577.568 278.357 577.553L278.419 579.927C277.831 579.942 277.338 580.027 276.906 580.073C276.505 580.156 276.136 580.238 275.858 580.281C275.52 580.362 275.243 580.441 274.997 580.519L275.162 586.812L272.345 586.886L272.121 578.328Z" fill="#E06329"/>
</g>
<path d="M327.37 632.066C319.801 634.194 313.009 638.457 307.81 644.341C302.611 650.225 299.227 657.48 298.065 665.232L297.78 667.122C297.739 667.398 297.767 667.68 297.863 667.942C297.959 668.205 298.12 668.439 298.33 668.623C298.54 668.808 298.793 668.937 299.066 668.999C299.339 669.06 299.624 669.053 299.894 668.977L301.738 668.459C309.307 666.331 316.099 662.068 321.298 656.184C326.497 650.3 329.881 643.045 331.043 635.293L331.711 630.846L327.37 632.066Z" fill="url(#paint6_linear)"/>
<path d="M302.666 666.935C301.885 659.112 298.866 651.683 293.974 645.541C289.082 639.399 282.525 634.807 275.093 632.317L273.281 631.708C273.016 631.619 272.733 631.598 272.458 631.647C272.183 631.696 271.925 631.814 271.707 631.989C271.489 632.164 271.318 632.39 271.209 632.649C271.101 632.907 271.059 633.188 271.087 633.467L271.277 635.374C272.058 643.197 275.077 650.626 279.969 656.768C284.861 662.91 291.418 667.502 298.85 669.992L303.113 671.422L302.666 666.935Z" fill="url(#paint7_linear)"/>
<path d="M291.975 658.65H281.774C275.797 652.178 272.108 643.882 271.286 635.061L271.087 633.246C271.052 632.846 271.125 632.444 271.297 632.082L291.975 658.65Z" fill="url(#paint8_linear)"/>
<path d="M308.274 658.891C311.453 647.788 306.959 632.569 298.285 625.075L292.364 619.958C292.157 619.779 291.91 619.656 291.645 619.599C291.379 619.543 291.104 619.555 290.844 619.634C290.585 619.713 290.348 619.857 290.157 620.052C289.967 620.248 289.827 620.489 289.751 620.753L287.581 628.334C284.401 639.437 288.896 654.656 297.569 662.15L305.403 668.919L308.274 658.891Z" fill="url(#paint9_linear)"/>
<path d="M315.053 647.088L313.951 639.101C318.901 633.235 325.674 628.827 333.21 626.566L334.757 626.078C335.099 625.978 335.455 625.961 335.787 626.029L315.053 647.088Z" fill="url(#paint10_linear)"/>
<path d="M296.024 690.079H309.617C311.869 690.079 309.457 688.104 309.087 687.258C309.144 685.962 307.59 685.001 307.59 683.168V669.347C307.59 667.515 307.558 665.757 307.501 664.461C307.443 663.165 307.366 662.437 307.285 662.437L299.848 665.258C299.768 665.263 298.777 665.373 298.72 666.668C298.663 667.963 298.131 667.518 298.131 669.347L297.375 683.168C296.474 685.566 295.966 685.962 296.024 687.258C296.081 688.554 294.447 690.079 296.024 690.079Z" fill="url(#paint11_linear)"/>
<path d="M307.002 632.065C299.433 634.193 292.641 638.456 287.442 644.34C282.243 650.224 278.859 657.479 277.697 665.231L277.412 667.121C277.371 667.397 277.4 667.679 277.496 667.941C277.592 668.204 277.752 668.438 277.962 668.622C278.172 668.807 278.425 668.936 278.698 668.998C278.972 669.059 279.256 669.052 279.526 668.976L281.37 668.458C288.939 666.33 295.731 662.067 300.93 656.183C306.129 650.299 309.513 643.044 310.675 635.292L311.343 630.845L307.002 632.065Z" fill="url(#paint12_linear)"/>
<path d="M282.298 666.935C281.517 659.112 278.498 651.682 273.606 645.54C268.714 639.399 262.157 634.806 254.725 632.316L252.913 631.708C252.648 631.619 252.365 631.598 252.09 631.647C251.816 631.696 251.557 631.813 251.339 631.988C251.121 632.163 250.95 632.39 250.841 632.648C250.733 632.906 250.691 633.188 250.719 633.466L250.909 635.373C251.691 643.196 254.709 650.626 259.601 656.767C264.493 662.909 271.05 667.502 278.482 669.992L282.745 671.422L282.298 666.935Z" fill="url(#paint13_linear)"/>
<path d="M271.607 658.649H261.406C255.429 652.177 251.741 643.881 250.918 635.06L250.719 633.246C250.684 632.846 250.757 632.443 250.929 632.081L271.607 658.649Z" fill="url(#paint14_linear)"/>
<path d="M287.906 658.89C291.085 647.787 286.591 632.569 277.918 625.074L271.996 619.957C271.79 619.778 271.542 619.655 271.277 619.599C271.011 619.542 270.736 619.554 270.476 619.633C270.217 619.712 269.981 619.856 269.79 620.051C269.599 620.247 269.459 620.488 269.383 620.752L267.213 628.334C264.034 639.436 268.528 654.655 277.201 662.149L285.035 668.919L287.906 658.89Z" fill="url(#paint15_linear)"/>
<path d="M294.685 647.087L293.584 639.1C298.533 633.234 305.306 628.826 312.842 626.565L314.389 626.077C314.732 625.977 315.087 625.96 315.419 626.028L294.685 647.087Z" fill="url(#paint16_linear)"/>
<path d="M275.656 690.078H289.249C291.501 690.078 289.089 688.104 288.719 687.257C288.776 685.962 287.222 685 287.222 683.168V669.347C287.222 667.514 287.19 665.756 287.133 664.46C287.075 663.164 286.998 662.436 286.917 662.436L279.48 665.257C279.4 665.262 278.409 665.372 278.352 666.667C278.295 667.963 277.763 667.518 277.763 669.347L277.007 683.168C276.106 685.565 275.598 685.962 275.656 687.257C275.713 688.553 274.079 690.078 275.656 690.078Z" fill="url(#paint17_linear)"/>
<path d="M278.292 631.502C270.723 633.63 263.931 637.892 258.732 643.777C253.533 649.661 250.149 656.916 248.987 664.668L248.702 666.558C248.661 666.834 248.689 667.116 248.785 667.378C248.881 667.64 249.042 667.874 249.252 668.059C249.462 668.243 249.715 668.372 249.988 668.434C250.261 668.496 250.546 668.489 250.815 668.413L252.66 667.895C260.228 665.767 267.021 661.504 272.22 655.62C277.419 649.736 280.803 642.481 281.965 634.729L282.633 630.282L278.292 631.502Z" fill="url(#paint18_linear)"/>
<path d="M253.588 666.372C252.806 658.549 249.788 651.119 244.896 644.977C240.004 638.835 233.447 634.243 226.014 631.753L224.203 631.144C223.938 631.056 223.655 631.035 223.38 631.084C223.105 631.133 222.847 631.25 222.629 631.425C222.41 631.6 222.239 631.827 222.131 632.085C222.023 632.343 221.98 632.624 222.008 632.903L222.199 634.81C222.98 642.633 225.998 650.062 230.89 656.204C235.782 662.346 242.339 666.938 249.772 669.428L254.035 670.859L253.588 666.372Z" fill="url(#paint19_linear)"/>
<path d="M242.897 658.086H232.696C226.719 651.614 223.03 643.318 222.207 634.497L222.008 632.683C221.974 632.282 222.047 631.88 222.219 631.518L242.897 658.086Z" fill="url(#paint20_linear)"/>
<path d="M259.196 658.327C262.375 647.224 257.88 632.006 249.207 624.511L243.286 619.394C243.079 619.215 242.832 619.092 242.566 619.035C242.301 618.979 242.026 618.991 241.766 619.07C241.506 619.149 241.27 619.293 241.079 619.488C240.888 619.684 240.748 619.925 240.673 620.189L238.502 627.771C235.323 638.873 239.818 654.092 248.491 661.586L256.324 668.355L259.196 658.327Z" fill="url(#paint21_linear)"/>
<path d="M265.975 646.523L264.873 638.537C269.822 632.671 276.595 628.263 284.132 626.002L285.679 625.514C286.021 625.413 286.377 625.397 286.708 625.465L265.975 646.523Z" fill="url(#paint22_linear)"/>
<path d="M246.945 689.515H260.539C262.791 689.515 260.379 687.54 260.008 686.694C260.065 685.398 258.512 684.437 258.512 682.604V668.784C258.512 666.951 258.479 665.193 258.422 663.897C258.365 662.601 258.287 661.873 258.206 661.873L250.77 664.694C250.689 664.699 249.699 664.809 249.642 666.104C249.585 667.399 249.052 666.954 249.052 668.784L248.297 682.604C247.396 685.002 246.888 685.398 246.945 686.694C247.002 687.99 245.369 689.515 246.945 689.515Z" fill="url(#paint23_linear)"/>
<path d="M410.204 611.077C410.204 611.077 499.265 543.532 515.428 559.73C526.303 570.622 522.385 586.874 518.646 596.347C516.551 601.671 512.976 606.738 508.18 611.077C500.732 617.824 488.269 626.36 476.154 622.275C466.637 619.074 466.581 609.62 468.915 600.979C471.57 591.087 477.695 581.499 486 573.172C499.056 560.099 529.98 544.072 565.909 536.208" stroke="url(#paint24_linear)" stroke-width="2" stroke-miterlimit="10" stroke-dasharray="3.07 3.07"/>
<path d="M541.362 533.78C523.745 517.564 505.572 505.716 484.287 495.908C484.452 501.76 484.535 504.686 484.699 510.558C448.579 512.124 416.766 522.303 386.024 542.083C390.886 550.037 395.77 557.969 400.632 565.923C427.233 549.048 454.39 540.352 485.482 538.807C485.647 544.659 485.73 547.585 485.894 553.457C503.759 543.258 521.273 537.262 541.362 533.78Z" fill="url(#paint25_linear)"/>
<path d="M660.301 563.317H646.443V566.211H660.301V563.317Z" fill="url(#paint26_linear)"/>
<path d="M646.778 666.292C646.778 666.839 646.337 667.28 645.79 667.28C645.243 667.28 644.802 666.839 644.802 666.292C644.802 665.745 645.243 665.304 645.79 665.304C646.337 665.295 646.778 665.745 646.778 666.292Z" fill="white"/>
<path d="M415.621 687.395C420.956 687.395 425.28 681.457 425.28 674.132C425.28 666.807 420.956 660.869 415.621 660.869C410.286 660.869 405.961 666.807 405.961 674.132C405.961 681.457 410.286 687.395 415.621 687.395Z" fill="#3E4039"/>
<path d="M407.745 674.085C407.745 679.971 409.961 684.735 412.697 684.735C415.433 684.735 417.65 679.962 417.65 674.085C417.65 668.199 415.433 663.435 412.697 663.435C409.961 663.425 407.745 668.199 407.745 674.085Z" fill="#D6E3DD"/>
<path d="M336.769 668.83C336.769 678.65 340.617 686.612 345.353 686.612C350.098 686.612 353.937 678.65 353.937 668.83C353.937 659.01 350.088 651.049 345.353 651.049C340.617 651.049 336.769 659.01 336.769 668.83Z" fill="#3E4039"/>
<path d="M338.381 669.208C338.381 675.774 339.9 681.103 341.758 681.103C343.626 681.103 345.136 675.774 345.136 669.208C345.136 662.643 343.626 657.313 341.758 657.313C339.891 657.313 338.381 662.643 338.381 669.208Z" fill="#D6E3DD"/>
<path d="M456.656 689.603C464.252 689.603 470.409 681.156 470.409 670.736C470.409 660.316 464.252 651.87 456.656 651.87C449.06 651.87 442.902 660.316 442.902 670.736C442.902 681.156 449.06 689.603 456.656 689.603Z" fill="#3E4039"/>
<path d="M446.6 669.274C446.6 678.104 450.298 685.263 454.873 685.263C459.439 685.263 463.146 678.104 463.146 669.274C463.146 660.444 459.448 653.285 454.873 653.285C450.298 653.294 446.6 660.444 446.6 669.274Z" fill="#D6E3DD"/>
<path d="M370.35 689.555C377.269 689.555 382.878 681.108 382.878 670.689C382.878 660.269 377.269 651.822 370.35 651.822C363.432 651.822 357.823 660.269 357.823 670.689C357.823 681.108 363.432 689.555 370.35 689.555Z" fill="#3E4039"/>
<path d="M359.738 670.594C359.738 677.999 362.455 684.008 365.813 684.008C369.171 684.008 371.888 677.999 371.888 670.594C371.888 663.189 369.171 657.18 365.813 657.18C362.455 657.18 359.738 663.189 359.738 670.594Z" fill="#D6E3DD"/>
<path d="M336.818 669.353C336.818 669.353 335.798 649.823 338.537 651.805C338.537 651.805 341.938 654.986 341.749 663.888C341.749 663.888 341.56 674.554 346 675.404L358.432 676.65C358.432 676.65 356.278 668.739 360.378 659.678C360.378 659.678 360.699 644.065 365.224 650.389C365.507 650.786 365.545 651.022 366.017 652.164C367.396 655.543 370.06 663.425 369.683 673.006L369.711 673.091C369.758 673.289 369.9 673.818 370.136 674.479L370.145 674.507C370.523 675.592 371.175 677.008 372.082 677.914C372.082 677.914 378.647 678.15 388.462 678.396C410.954 678.972 450.563 679.642 467.52 677.763C469.135 677.593 470.543 677.386 471.714 677.159C471.714 677.159 473.112 674.932 473.717 672.543C473.934 671.722 474.047 670.882 473.981 670.118C473.981 670.118 473.925 652.938 469.579 645.953C469.579 645.953 467.737 636.495 460.511 632.927C460.511 632.927 458.385 630.907 455.23 628.009C447.484 620.882 433.579 608.432 430.093 607.62C430.093 607.62 402.32 599.502 369.824 604.788C369.824 604.788 359.244 606.43 351.555 614.605C351.555 614.605 349.798 616.908 348.107 620.297C346.86 622.808 345.66 625.932 345.254 629.151C345.254 629.151 345.235 629.179 345.188 629.217C344.668 629.774 341.107 633.663 340.465 635.126C339.728 636.816 337.942 645.434 337.12 649.153C337.12 649.162 332.558 663.595 336.818 669.353Z" fill="url(#paint27_linear)"/>
<path d="M458.613 627.509L458.622 627.565C458.7 627.705 458.971 628.284 459 629.496C459.01 629.888 457.45 630 457.45 630L455.058 627.938L451 624.272C451 624.263 455.552 622.621 458.613 627.509Z" fill="#183964"/>
<path d="M364.935 617.225C364.935 617.225 365.549 610.513 362.992 610.054C362.992 610.054 360.983 609.82 360.677 610.326C358.277 614.36 355.274 621.035 354 629.329C354 629.329 359.542 632.288 361.727 630.331C363.913 628.384 364.935 617.225 364.935 617.225Z" fill="url(#paint28_linear)"/>
<path d="M359.384 610.021C359.384 610.021 350.411 614.548 348 624.777C348 624.777 352.421 626.31 352.893 625.943C353.366 625.576 356.641 614.988 359.726 610.948C359.726 610.939 360.53 609.837 359.384 610.021Z" fill="url(#paint29_linear)"/>
<path d="M445.605 629C446.849 629.029 447.481 627.456 446.566 626.572C441.514 621.65 433.133 612.029 428.901 610.398C427.147 610.048 411.471 607 395.37 607C386.311 607 378.788 607.942 372.953 609.806C372.388 609.99 372.01 610.524 372.001 611.136C371.944 616.33 374.301 625.31 374.876 627.786C375.018 628.417 375.574 628.844 376.205 628.844C380.136 628.825 393.258 628.776 407.54 628.776C427.326 628.776 438.846 628.873 445.605 629Z" fill="url(#paint30_linear)"/>
<path d="M456.023 638.532C457.949 636.47 459.932 633 459.932 633C462.586 633.784 464.456 635.146 465.787 636.694C469.196 640.668 468.998 645.882 468.998 645.882C468.488 646.498 466.477 646.629 466.477 646.629C463.955 645.509 452 648 452 648C452 648 452.416 641.657 456.023 638.532Z" fill="#D6E3DD"/>
<path d="M376.556 632C376.556 632 372.765 632.772 372.104 635.331C371.981 635.774 371.962 636.282 372.075 636.837C372.075 636.837 373.966 648.882 380.583 646.059C380.583 646.059 394.761 646.247 401 647C401 647 399.27 641.213 392.313 637.712C392.313 637.712 383.692 633.572 376.556 632Z" fill="#D6E3DD"/>
<path d="M409.729 666C409.326 666 409 665.674 409 665.264V656.736C409 656.326 409.326 656 409.729 656H447.271C447.674 656 448 656.335 448 656.736V665.264C448 665.674 447.674 666 447.271 666H409.729Z" fill="white"/>
<path d="M441.6 660.52L440.732 663.312H441.449L441.987 661.435L442.496 663.312H443.194L442.373 660.53L443.194 657.917H442.477L441.987 659.558L441.515 657.917H440.807L441.6 660.52Z" fill="#979797"/>
<path d="M438.289 660.52L437.421 663.312H438.138L438.676 661.435L439.185 663.312H439.893L439.063 660.53L439.883 657.917H439.176L438.676 659.558L438.204 657.917H437.497L438.289 660.52Z" fill="#979797"/>
<path d="M431.516 660.52L430.639 663.312H431.365L431.893 661.435L432.403 663.312H433.11L432.289 660.53L433.101 657.917H432.393L431.893 659.558L431.431 657.917H430.714L431.516 660.52Z" fill="#979797"/>
<path d="M428.205 660.52L427.337 663.312H428.054L428.582 661.435L429.101 663.312H429.799L428.978 660.53L429.799 657.917H429.082L428.582 659.558L428.12 657.917H427.412L428.205 660.52Z" fill="#979797"/>
<path d="M424.894 660.52L424.026 663.312H424.743L425.281 661.435L425.79 663.312H426.488L425.668 660.53L426.488 657.917H425.771L425.281 659.558L424.809 657.917H424.102L424.894 660.52Z" fill="#979797"/>
<path d="M418.111 660.52L417.243 663.312H417.96L418.498 661.435L419.007 663.312H419.715L418.885 660.53L419.705 657.917H418.998L418.498 659.558L418.036 657.917H417.319L418.111 660.52Z" fill="#979797"/>
<path d="M413.932 663.312H414.649L415.187 661.435L415.706 663.312H416.404L415.574 660.53L416.394 657.917H415.687L415.187 659.558L414.725 657.917H414.008L414.81 660.52L413.932 663.312Z" fill="#979797"/>
<path d="M436.157 660.294V660.935H434.365V660.294H436.157Z" fill="#979797"/>
<path d="M422.696 660.294V660.935H420.903V660.294H422.696Z" fill="#979797"/>
<path d="M445.42 665.878H447.769C448.184 665.878 448.515 665.538 448.515 665.123V656.369C448.515 655.954 448.184 655.615 447.769 655.615H445.42V665.878Z" fill="#183964"/>
<path d="M408.621 656.369V665.123C408.621 665.538 408.951 665.878 409.367 665.878H411.715V655.605H409.367C408.951 655.615 408.621 655.954 408.621 656.369Z" fill="#183964"/>
<path d="M434 622C431.625 621.191 429.418 620.108 427.239 618.955C425.079 617.772 422.965 616.527 421 615C423.375 615.809 425.582 616.892 427.761 618.045C429.912 619.228 432.035 620.473 434 622Z" fill="#CAC9C9"/>
<path d="M420 622C417.625 621.306 415.418 620.379 413.239 619.39C411.079 618.376 408.956 617.309 407 616C409.375 616.694 411.582 617.621 413.761 618.61C415.912 619.616 418.035 620.691 420 622Z" fill="#CAC9C9"/>
<path d="M431 624C427.472 622.672 424.091 621.093 420.747 619.438C417.421 617.763 414.132 616.012 411 614C414.528 615.319 417.909 616.907 421.253 618.562C424.57 620.246 427.859 621.988 431 624Z" fill="#CAC9C9"/>
<path d="M364 629.676L363.212 631.762C363.212 631.762 350.36 633.126 347.011 629.328C347.011 629.328 346.138 620.7 360.022 623.593C361.552 623.915 360.088 629.389 360.088 629.389C360.088 629.389 362.621 630.084 364 629.676Z" fill="#183964"/>
<path d="M613.851 487.116H594.982V504.51H613.851V487.116Z" fill="#FEEBD7"/>
<path d="M503.527 666.113C507.65 665.752 511.683 666.098 515.505 667.031C517.957 655.039 528.039 645.559 540.874 644.446C541.175 644.416 541.506 644.4 541.807 644.385C544.681 625.562 560.946 611.147 580.567 611.147C595.584 611.147 608.63 619.588 615.22 631.987H615.235C619.779 630.603 624.594 629.85 629.605 629.85C656.674 629.85 678.627 651.803 678.627 678.888C678.627 682.559 678.221 686.125 677.454 689.571H590.769H581.741H580.778C580.703 689.571 580.642 689.571 580.567 689.571C580.492 689.571 580.432 689.571 580.357 689.571H566.243H540.934H535.743H520.44H472.486C477.316 676.856 489.067 667.377 503.527 666.113Z" fill="#009045"/>
<path d="M642.681 672.523C645.675 672.252 648.609 672.508 651.378 673.185C653.168 664.473 660.496 657.582 669.81 656.769C670.036 656.754 670.262 656.739 670.487 656.724C672.579 643.046 684.39 632.574 698.655 632.574C709.564 632.574 719.043 638.713 723.828 647.726C723.828 647.726 723.828 647.726 723.843 647.726C727.139 646.718 730.644 646.176 734.286 646.176C753.952 646.176 769.902 662.126 769.902 681.807C769.902 684.47 769.616 687.073 769.059 689.571H706.073H699.513H698.82C698.775 689.571 698.715 689.571 698.67 689.571C698.625 689.571 698.565 689.571 698.519 689.571H688.258H669.87H666.094H654.974H620.125C623.646 680.332 632.178 673.441 642.681 672.523Z" fill="#7CB928"/>
<path d="M692.531 660.892C691.673 658.575 690.65 656.333 689.506 654.181C689.717 652.782 689.852 651.352 689.852 649.893C689.852 646.447 689.235 643.167 688.122 640.112C685.865 633.943 681.531 628.812 675.979 625.502C668.606 609.913 652.747 599.095 634.329 599.095C615.416 599.095 599.195 610.485 592.093 626.766C591.973 627.052 591.882 627.353 591.762 627.623C586.797 626.405 581.53 625.968 576.158 626.435C575.21 626.51 574.247 626.645 573.315 626.766C549.315 630.302 531.65 651.262 532.312 675.518C532.312 675.969 532.357 676.375 532.387 676.812C530.567 675.984 528.58 675.487 526.444 675.487C526.263 675.487 526.083 675.487 525.902 675.518C518.364 675.803 512.36 681.958 512.36 689.571H590.618H632.674H694.712C695.374 686.216 695.721 682.71 695.721 679.129C695.751 672.704 694.607 666.58 692.531 660.892Z" fill="#7CB928"/>
<path d="M710.647 553.186H707.472V549.048H569.222V553.186H566.047V561.507H569.222V689.571H707.472V561.507H710.647V553.186Z" fill="#FEEBD7"/>
<path d="M715.522 555.458H561.157L562.677 550.944L569.508 530.601L578.28 504.524H698.414L701.378 513.312L714.018 550.944L715.522 555.458Z" fill="url(#paint31_linear)"/>
<path d="M615.461 631.55V686.637H586.36V631.55H615.461ZM618.395 628.616H615.461H586.36H583.426V631.55V686.637V689.571H586.36H615.461H618.395V686.637V631.55V628.616Z" fill="white"/>
<path d="M615.461 631.55H586.361V686.636H615.461V631.55Z" fill="url(#paint32_linear)"/>
<path d="M704.177 639.661H625.617L628.777 630.256H700.987L702.777 635.523L704.177 639.661Z" fill="url(#paint33_linear)"/>
<path d="M689.642 581.564H632.659V617.767H689.642V581.564Z" fill="#63849C"/>
<path d="M689.642 581.565V617.768H632.659V581.565H689.642ZM692.576 578.631H689.642H632.659H629.725V581.565V617.768V620.702H632.659H689.642H692.576V617.768V581.565V578.631Z" fill="white"/>
<path d="M662.723 581.564H659.789V617.767H662.723V581.564Z" fill="white"/>
<path d="M688.724 647.244H642.289V676.736H688.724V647.244Z" fill="#63849C"/>
<path d="M688.724 647.245V676.736H642.289V647.245H688.724ZM691.658 644.325H688.724H642.289H639.355V647.26V676.751V679.685H642.289H688.724H691.658V676.751V647.26V644.325Z" fill="white"/>
<path d="M614.769 581.564H587.038V617.767H614.769V581.564Z" fill="#63849C"/>
<path d="M614.769 581.565V617.768H587.037V581.565H614.769ZM617.703 578.631H614.769H587.037H584.103V581.565V617.768V620.702H587.037H614.769H617.703V617.768V581.565V578.631Z" fill="white"/>
<path d="M628.785 535.418C628.785 538.381 626.389 540.777 623.426 540.777C620.463 540.777 618.067 538.381 618.067 535.418C618.067 532.454 620.463 530.059 623.426 530.059C626.389 530.059 628.785 532.467 628.785 535.418Z" fill="white"/>
<path d="M623.666 532.227C623.59 532.227 623.514 532.202 623.439 532.202C621.661 532.202 620.223 533.639 620.223 535.417C620.223 537.195 621.661 538.632 623.439 538.632C625.216 538.632 626.654 537.195 626.654 535.417C626.654 535.203 626.629 535.001 626.591 534.799C624.851 534.724 624.019 533.614 623.666 532.227Z" fill="#183964"/>
<path d="M660.233 535.417C660.233 538.38 657.837 540.776 654.874 540.776C651.911 540.776 649.515 538.38 649.515 535.417C649.515 532.453 651.911 530.058 654.874 530.058C657.824 530.058 660.233 532.466 660.233 535.417Z" fill="white"/>
<path d="M655.101 532.227C655.025 532.227 654.95 532.202 654.874 532.202C653.096 532.202 651.659 533.639 651.659 535.417C651.659 537.195 653.096 538.632 654.874 538.632C656.652 538.632 658.089 537.195 658.089 535.417C658.089 535.203 658.064 535.001 658.026 534.799C656.286 534.724 655.454 533.614 655.101 532.227Z" fill="#183964"/>
<path d="M638.999 541.608C641.773 541.608 643.437 539.388 643.992 537.724C644.547 536.06 643.437 536.06 643.437 536.06H638.999H634.56C634.56 536.06 633.451 536.06 634.005 537.724C634.56 539.388 636.225 541.608 638.999 541.608Z" fill="white"/>
<path d="M711.354 431.581C711.354 415.064 694.002 404.6 676.309 412.882C672.315 414.755 669.002 417.913 667.005 421.798C662.547 430.42 664.513 440.265 668.553 448.438L682.33 483.345C684.311 488.375 691.447 488.344 693.382 483.298L706.881 448.222C711.555 437.525 711.354 431.581 711.354 431.581ZM694.729 445.946C682.841 452.865 670.782 440.079 677.299 427.464C678.166 425.792 679.497 424.383 681.076 423.454C692.964 416.535 705.023 429.321 698.506 441.937C697.639 443.624 696.308 445.033 694.729 445.946Z" fill="url(#paint34_linear)"/>
<defs>
<filter id="filter0_d" x="123.149" y="573.202" width="159.454" height="25.6924" filterUnits="userSpaceOnUse" color-interpolation-filters="sRGB">
<feFlood flood-opacity="0" result="BackgroundImageFix"/>
<feColorMatrix in="SourceAlpha" type="matrix" values="0 0 0 0 0 0 0 0 0 0 0 0 0 0 0 0 0 0 127 0"/>
<feOffset dy="4"/>
<feGaussianBlur stdDeviation="2"/>
<feColorMatrix type="matrix" values="0 0 0 0 0 0 0 0 0 0 0 0 0 0 0 0 0 0 0.25 0"/>
<feBlend mode="normal" in2="BackgroundImageFix" result="effect1_dropShadow"/>
<feBlend mode="normal" in="SourceGraphic" in2="effect1_dropShadow" result="shape"/>
</filter>
<linearGradient id="paint0_linear" x1="532.31" y1="393.597" x2="918.459" y2="8.26703" gradientUnits="userSpaceOnUse">
<stop stop-color="#FFDC2E"/>
<stop offset="0.0902" stop-color="#FFE359"/>
<stop offset="0.1987" stop-color="#FFEA84"/>
<stop offset="0.3124" stop-color="#FFF1AA"/>
<stop offset="0.4299" stop-color="#FFF6C9"/>
<stop offset="0.5524" stop-color="#FFFAE1"/>
<stop offset="0.682" stop-color="#FFFDF2"/>
<stop offset="0.8237" stop-color="#FFFEFC"/>
<stop offset="1" stop-color="white"/>
</linearGradient>
<linearGradient id="paint1_linear" x1="31.747" y1="619.681" x2="31.747" y2="692.618" gradientUnits="userSpaceOnUse">
<stop stop-color="#B3FFFF"/>
<stop offset="0.069" stop-color="#BDFFFF"/>
<stop offset="0.3065" stop-color="#DAFFFF"/>
<stop offset="0.5428" stop-color="#EEFFFF"/>
<stop offset="0.7755" stop-color="#FBFFFF"/>
<stop offset="1" stop-color="white"/>
</linearGradient>
<linearGradient id="paint2_linear" x1="77.8796" y1="571.888" x2="77.8796" y2="616.273" gradientUnits="userSpaceOnUse">
<stop stop-color="#B3FFFF"/>
<stop offset="0.069" stop-color="#BDFFFF"/>
<stop offset="0.3065" stop-color="#DAFFFF"/>
<stop offset="0.5428" stop-color="#EEFFFF"/>
<stop offset="0.7755" stop-color="#FBFFFF"/>
<stop offset="1" stop-color="white"/>
</linearGradient>
<linearGradient id="paint3_linear" x1="206.286" y1="536.943" x2="206.286" y2="558.631" gradientUnits="userSpaceOnUse">
<stop stop-color="#B3FFFF"/>
<stop offset="0.069" stop-color="#BDFFFF"/>
<stop offset="0.3065" stop-color="#DAFFFF"/>
<stop offset="0.5428" stop-color="#EEFFFF"/>
<stop offset="0.7755" stop-color="#FBFFFF"/>
<stop offset="1" stop-color="white"/>
</linearGradient>
<linearGradient id="paint4_linear" x1="30.3928" y1="584.222" x2="30.3928" y2="616.502" gradientUnits="userSpaceOnUse">
<stop stop-color="#B3FFFF"/>
<stop offset="0.069" stop-color="#BDFFFF"/>
<stop offset="0.3065" stop-color="#DAFFFF"/>
<stop offset="0.5428" stop-color="#EEFFFF"/>
<stop offset="0.7755" stop-color="#FBFFFF"/>
<stop offset="1" stop-color="white"/>
</linearGradient>
<linearGradient id="paint5_linear" x1="324.818" y1="513.273" x2="324.818" y2="568.314" gradientUnits="userSpaceOnUse">
<stop stop-color="#B3FFFF"/>
<stop offset="0.069" stop-color="#BDFFFF"/>
<stop offset="0.3065" stop-color="#DAFFFF"/>
<stop offset="0.5428" stop-color="#EEFFFF"/>
<stop offset="0.7755" stop-color="#FBFFFF"/>
<stop offset="1" stop-color="white"/>
</linearGradient>
<linearGradient id="paint6_linear" x1="301.315" y1="603.547" x2="292.581" y2="554.016" gradientUnits="userSpaceOnUse">
<stop stop-color="#B6DD54"/>
<stop offset="0.143" stop-color="#B2DC54"/>
<stop offset="0.292" stop-color="#A5D753"/>
<stop offset="0.443" stop-color="#91D051"/>
<stop offset="0.595" stop-color="#74C64F"/>
<stop offset="0.749" stop-color="#4EB94D"/>
<stop offset="0.902" stop-color="#21A949"/>
<stop offset="1" stop-color="#009E47"/>
</linearGradient>
<linearGradient id="paint7_linear" x1="335.276" y1="646.229" x2="385.571" y2="646.229" gradientUnits="userSpaceOnUse">
<stop stop-color="#B6DD54"/>
<stop offset="0.143" stop-color="#B2DC54"/>
<stop offset="0.292" stop-color="#A5D753"/>
<stop offset="0.443" stop-color="#91D051"/>
<stop offset="0.595" stop-color="#74C64F"/>
<stop offset="0.749" stop-color="#4EB94D"/>
<stop offset="0.902" stop-color="#21A949"/>
<stop offset="1" stop-color="#009E47"/>
</linearGradient>
<linearGradient id="paint8_linear" x1="268.383" y1="634.34" x2="293.126" y2="654.622" gradientUnits="userSpaceOnUse">
<stop stop-color="#302926" stop-opacity="0"/>
<stop offset="0.388" stop-color="#2D2724" stop-opacity="0.027"/>
<stop offset="0.621" stop-color="#25201D" stop-opacity="0.043"/>
<stop offset="0.812" stop-color="#171412" stop-opacity="0.059"/>
<stop offset="0.981" stop-color="#030202" stop-opacity="0.071"/>
<stop offset="1" stop-opacity="0.071"/>
</linearGradient>
<linearGradient id="paint9_linear" x1="288.606" y1="616.109" x2="320.465" y2="643.543" gradientUnits="userSpaceOnUse">
<stop stop-color="#B6DD54"/>
<stop offset="1" stop-color="#009E47"/>
</linearGradient>
<linearGradient id="paint10_linear" x1="333.52" y1="624.161" x2="321.706" y2="648.717" gradientUnits="userSpaceOnUse">
<stop stop-color="#302926" stop-opacity="0"/>
<stop offset="0.388" stop-color="#2D2724" stop-opacity="0.027"/>
<stop offset="0.621" stop-color="#25201D" stop-opacity="0.043"/>
<stop offset="0.812" stop-color="#171412" stop-opacity="0.059"/>
<stop offset="0.981" stop-color="#030202" stop-opacity="0.071"/>
<stop offset="1" stop-opacity="0.071"/>
</linearGradient>
<linearGradient id="paint11_linear" x1="331.079" y1="695.438" x2="321.26" y2="695.438" gradientUnits="userSpaceOnUse">
<stop stop-color="#B16464"/>
<stop offset="0.59" stop-color="#9C6764"/>
<stop offset="1" stop-color="#936864"/>
</linearGradient>
<linearGradient id="paint12_linear" x1="280.947" y1="603.546" x2="272.213" y2="554.015" gradientUnits="userSpaceOnUse">
<stop stop-color="#B6DD54"/>
<stop offset="0.143" stop-color="#B2DC54"/>
<stop offset="0.292" stop-color="#A5D753"/>
<stop offset="0.443" stop-color="#91D051"/>
<stop offset="0.595" stop-color="#74C64F"/>
<stop offset="0.749" stop-color="#4EB94D"/>
<stop offset="0.902" stop-color="#21A949"/>
<stop offset="1" stop-color="#009E47"/>
</linearGradient>
<linearGradient id="paint13_linear" x1="314.908" y1="646.228" x2="365.203" y2="646.228" gradientUnits="userSpaceOnUse">
<stop stop-color="#B6DD54"/>
<stop offset="0.143" stop-color="#B2DC54"/>
<stop offset="0.292" stop-color="#A5D753"/>
<stop offset="0.443" stop-color="#91D051"/>
<stop offset="0.595" stop-color="#74C64F"/>
<stop offset="0.749" stop-color="#4EB94D"/>
<stop offset="0.902" stop-color="#21A949"/>
<stop offset="1" stop-color="#009E47"/>
</linearGradient>
<linearGradient id="paint14_linear" x1="248.015" y1="634.339" x2="272.759" y2="654.622" gradientUnits="userSpaceOnUse">
<stop stop-color="#302926" stop-opacity="0"/>
<stop offset="0.388" stop-color="#2D2724" stop-opacity="0.027"/>
<stop offset="0.621" stop-color="#25201D" stop-opacity="0.043"/>
<stop offset="0.812" stop-color="#171412" stop-opacity="0.059"/>
<stop offset="0.981" stop-color="#030202" stop-opacity="0.071"/>
<stop offset="1" stop-opacity="0.071"/>
</linearGradient>
<linearGradient id="paint15_linear" x1="268.238" y1="616.109" x2="300.097" y2="643.542" gradientUnits="userSpaceOnUse">
<stop stop-color="#B6DD54"/>
<stop offset="1" stop-color="#009E47"/>
</linearGradient>
<linearGradient id="paint16_linear" x1="313.152" y1="624.16" x2="301.338" y2="648.716" gradientUnits="userSpaceOnUse">
<stop stop-color="#302926" stop-opacity="0"/>
<stop offset="0.388" stop-color="#2D2724" stop-opacity="0.027"/>
<stop offset="0.621" stop-color="#25201D" stop-opacity="0.043"/>
<stop offset="0.812" stop-color="#171412" stop-opacity="0.059"/>
<stop offset="0.981" stop-color="#030202" stop-opacity="0.071"/>
<stop offset="1" stop-opacity="0.071"/>
</linearGradient>
<linearGradient id="paint17_linear" x1="310.711" y1="695.437" x2="300.892" y2="695.437" gradientUnits="userSpaceOnUse">
<stop stop-color="#B16464"/>
<stop offset="0.59" stop-color="#9C6764"/>
<stop offset="1" stop-color="#936864"/>
</linearGradient>
<linearGradient id="paint18_linear" x1="252.237" y1="602.983" x2="243.503" y2="553.452" gradientUnits="userSpaceOnUse">
<stop stop-color="#B6DD54"/>
<stop offset="0.143" stop-color="#B2DC54"/>
<stop offset="0.292" stop-color="#A5D753"/>
<stop offset="0.443" stop-color="#91D051"/>
<stop offset="0.595" stop-color="#74C64F"/>
<stop offset="0.749" stop-color="#4EB94D"/>
<stop offset="0.902" stop-color="#21A949"/>
<stop offset="1" stop-color="#009E47"/>
</linearGradient>
<linearGradient id="paint19_linear" x1="286.198" y1="645.665" x2="336.493" y2="645.665" gradientUnits="userSpaceOnUse">
<stop stop-color="#B6DD54"/>
<stop offset="0.143" stop-color="#B2DC54"/>
<stop offset="0.292" stop-color="#A5D753"/>
<stop offset="0.443" stop-color="#91D051"/>
<stop offset="0.595" stop-color="#74C64F"/>
<stop offset="0.749" stop-color="#4EB94D"/>
<stop offset="0.902" stop-color="#21A949"/>
<stop offset="1" stop-color="#009E47"/>
</linearGradient>
<linearGradient id="paint20_linear" x1="219.304" y1="633.776" x2="244.048" y2="654.058" gradientUnits="userSpaceOnUse">
<stop stop-color="#302926" stop-opacity="0"/>
<stop offset="0.388" stop-color="#2D2724" stop-opacity="0.027"/>
<stop offset="0.621" stop-color="#25201D" stop-opacity="0.043"/>
<stop offset="0.812" stop-color="#171412" stop-opacity="0.059"/>
<stop offset="0.981" stop-color="#030202" stop-opacity="0.071"/>
<stop offset="1" stop-opacity="0.071"/>
</linearGradient>
<linearGradient id="paint21_linear" x1="239.527" y1="615.545" x2="271.387" y2="642.979" gradientUnits="userSpaceOnUse">
<stop stop-color="#B6DD54"/>
<stop offset="1" stop-color="#009E47"/>
</linearGradient>
<linearGradient id="paint22_linear" x1="284.441" y1="623.597" x2="272.627" y2="648.152" gradientUnits="userSpaceOnUse">
<stop stop-color="#302926" stop-opacity="0"/>
<stop offset="0.388" stop-color="#2D2724" stop-opacity="0.027"/>
<stop offset="0.621" stop-color="#25201D" stop-opacity="0.043"/>
<stop offset="0.812" stop-color="#171412" stop-opacity="0.059"/>
<stop offset="0.981" stop-color="#030202" stop-opacity="0.071"/>
<stop offset="1" stop-opacity="0.071"/>
</linearGradient>
<linearGradient id="paint23_linear" x1="282.001" y1="694.874" x2="272.182" y2="694.874" gradientUnits="userSpaceOnUse">
<stop stop-color="#B16464"/>
<stop offset="0.59" stop-color="#9C6764"/>
<stop offset="1" stop-color="#936864"/>
</linearGradient>
<linearGradient id="paint24_linear" x1="459.668" y1="597.489" x2="568.457" y2="549.053" gradientUnits="userSpaceOnUse">
<stop stop-color="#F39121"/>
<stop offset="0.2718" stop-color="#F39121"/>
<stop offset="0.9643" stop-color="#F8AE3C"/>
<stop offset="1" stop-color="#F8AE3C"/>
</linearGradient>
<linearGradient id="paint25_linear" x1="387.812" y1="529.118" x2="538.994" y2="550.396" gradientUnits="userSpaceOnUse">
<stop stop-color="#46AE4D"/>
<stop offset="0.262" stop-color="#46AE4D"/>
<stop offset="0.7615" stop-color="#009045"/>
<stop offset="1" stop-color="#009045"/>
</linearGradient>
<linearGradient id="paint26_linear" x1="647.87" y1="550.439" x2="663.646" y2="591.537" gradientUnits="userSpaceOnUse">
<stop stop-color="#EB5B2D"/>
<stop offset="1" stop-color="#BF292E"/>
</linearGradient>
<linearGradient id="paint27_linear" x1="473.989" y1="641.008" x2="335" y2="641.008" gradientUnits="userSpaceOnUse">
<stop stop-color="#0A72B9"/>
<stop offset="0.2788" stop-color="#0A72B9"/>
<stop offset="0.7727" stop-color="#0C4D86"/>
<stop offset="1" stop-color="#0C4D86"/>
</linearGradient>
<linearGradient id="paint28_linear" x1="364.995" y1="620.496" x2="354.003" y2="620.496" gradientUnits="userSpaceOnUse">
<stop offset="0.2788" stop-color="white"/>
<stop offset="1" stop-color="#9FD8F0"/>
</linearGradient>
<linearGradient id="paint29_linear" x1="359.997" y1="617.999" x2="347.999" y2="617.999" gradientUnits="userSpaceOnUse">
<stop offset="0.2788" stop-color="white"/>
<stop offset="1" stop-color="#9FD8F0"/>
</linearGradient>
<linearGradient id="paint30_linear" x1="436.467" y1="615.644" x2="345.535" y2="626.167" gradientUnits="userSpaceOnUse">
<stop offset="0.2788" stop-color="white"/>
<stop offset="1" stop-color="#9FD8F0"/>
</linearGradient>
<linearGradient id="paint31_linear" x1="602.807" y1="459.7" x2="629.714" y2="529.801" gradientUnits="userSpaceOnUse">
<stop stop-color="#EB5B2D"/>
<stop offset="1" stop-color="#BF292E"/>
</linearGradient>
<linearGradient id="paint32_linear" x1="597.195" y1="645.438" x2="612.065" y2="700.137" gradientUnits="userSpaceOnUse">
<stop stop-color="#F39121"/>
<stop offset="0.2718" stop-color="#F39121"/>
<stop offset="0.9643" stop-color="#F8AE3C"/>
<stop offset="1" stop-color="#F8AE3C"/>
</linearGradient>
<linearGradient id="paint33_linear" x1="660.132" y1="624.845" x2="672.878" y2="664.497" gradientUnits="userSpaceOnUse">
<stop stop-color="#EB5B2D"/>
<stop offset="1" stop-color="#BF292E"/>
</linearGradient>
<linearGradient id="paint34_linear" x1="664.458" y1="448.537" x2="711.357" y2="448.537" gradientUnits="userSpaceOnUse">
<stop stop-color="#EB5B2D"/>
<stop offset="1" stop-color="#BF292E"/>
</linearGradient>
</defs>
</svg>
