<svg width="1022" height="682" viewBox="0 0 1022 682" fill="none" xmlns="http://www.w3.org/2000/svg">
<rect width="1022" height="682" fill="#E5E5E5"/>
<rect x="-2" width="1024" height="681" fill="#54A3FF"/>
<path d="M911.5 -35C781.437 -35 676 70.6608 676 201C676 331.339 781.437 437 911.5 437C1041.56 437 1147 331.339 1147 201C1147 70.6608 1041.56 -35 911.5 -35Z" fill="url(#paint0_linear)"/>
<path opacity="0.05" d="M314 302C340.51 302 362 280.51 362 254C362 227.49 340.51 206 314 206C287.49 206 266 227.49 266 254C266 280.51 287.49 302 314 302Z" fill="white" stroke="white" stroke-width="2"/>
<path opacity="0.05" d="M593 292C706.218 292 798 200.218 798 87C798 -26.2184 706.218 -118 593 -118C479.782 -118 388 -26.2184 388 87C388 200.218 479.782 292 593 292Z" fill="white" stroke="white" stroke-width="2"/>
<path opacity="0.05" d="M85 206C159.006 206 219 146.23 219 72.5C219 -1.23002 159.006 -61 85 -61C10.9938 -61 -49 -1.23002 -49 72.5C-49 146.23 10.9938 206 85 206Z" fill="white" stroke="white" stroke-width="2"/>
<path d="M494.932 681.679L486.326 590.917H545.557V681.679H494.932Z" fill="url(#paint1_linear)" stroke="#968F8F"/>
<path d="M607.678 526.118L544.048 528.128V587.069H607.678V526.118Z" fill="url(#paint2_linear)"/>
<path d="M870.235 512.052V472.2L733.598 482.247L598.622 507.029L594.952 524.778L870.235 512.052Z" fill="url(#paint3_linear)"/>
<path d="M486.276 586.569V546.677L540.868 542.73V586.569H486.276Z" fill="url(#paint4_linear)" stroke="#968F8F"/>
<path d="M610.357 527.143L871.574 516.74V681.482L610.357 682.178V527.143Z" fill="#C4C4C4"/>
<path d="M871.575 516.74L984.099 533.485L978.406 682.178L871.575 681.482V516.74Z" fill="#CCCCCC"/>
<path d="M613.706 546.657L867.556 542.527V547.55L613.706 550.229V546.657Z" fill="#9C9A9A"/>
<path d="M613.706 554.695L867.556 550.564V555.588L613.706 558.267V554.695Z" fill="#9C9A9A"/>
<path d="M613.706 529.689L867.556 523.215V530.583L613.706 533.262V529.689Z" fill="#9C9A9A"/>
<path d="M613.706 537.95L867.556 533.819V538.843L613.706 541.522V537.95Z" fill="#9C9A9A"/>
<path d="M613.706 562.732L867.556 558.602V563.625L613.706 566.305V562.732Z" fill="#9C9A9A"/>
<path d="M613.706 570.77L867.556 566.64V571.663L613.706 574.342V570.77Z" fill="#9C9A9A"/>
<path d="M613.706 578.807L867.556 574.677V579.7L613.706 582.379V578.807Z" fill="#9C9A9A"/>
<path d="M613.706 586.845L867.556 582.714V587.738L613.706 590.417V586.845Z" fill="#9C9A9A"/>
<path d="M613.706 594.882L867.556 590.751V595.775L613.706 598.454V594.882Z" fill="#9C9A9A"/>
<path d="M613.706 602.919L867.556 598.789V603.812L613.706 606.492V602.919Z" fill="#9C9A9A"/>
<path d="M613.706 610.957L867.556 606.827V611.85L613.706 614.529V610.957Z" fill="#9C9A9A"/>
<path d="M613.706 620.334L867.556 616.204V621.228L613.706 623.907V620.334Z" fill="#9C9A9A"/>
<path d="M613.706 628.372L867.556 624.241V629.265L613.706 631.944V628.372Z" fill="#9C9A9A"/>
<path d="M613.706 636.41L867.556 632.279V637.303L613.706 639.982V636.41Z" fill="#9C9A9A"/>
<path d="M613.706 644.446L867.556 640.316V645.339L613.706 648.018V644.446Z" fill="#9C9A9A"/>
<path d="M613.706 652.484L867.556 648.354V653.377L613.706 656.056V652.484Z" fill="#9C9A9A"/>
<path d="M613.706 660.522L867.556 656.392V661.415L613.706 664.094V660.522Z" fill="#9C9A9A"/>
<path d="M613.706 668.559L867.556 664.429V669.452L613.706 672.131V668.559Z" fill="#9C9A9A"/>
<path d="M613.706 676.597L867.556 672.466V677.49L613.706 680.169V676.597Z" fill="#9C9A9A"/>
<path d="M874.922 517.257L878.608 517.821L877.333 679.499H874.922V517.257Z" fill="#B7B7B7"/>
<path d="M880.281 518.08L883.967 518.643L882.693 680.168H880.281V518.08Z" fill="#B7B7B7"/>
<path d="M885.64 518.75L889.326 519.311L888.051 680.169H885.64V518.75Z" fill="#B7B7B7"/>
<path d="M890.998 519.42L894.347 519.979L893.189 680.169H890.998V519.42Z" fill="#B7B7B7"/>
<path d="M895.687 520.089L899.036 520.646L897.878 680.169H895.687V520.089Z" fill="#B7B7B7"/>
<path d="M900.375 520.759L903.724 521.313L902.566 680.169H900.375V520.759Z" fill="#B7B7B7"/>
<path d="M905.064 521.429L907.743 521.981L906.817 680.169H905.064V521.429Z" fill="#B7B7B7"/>
<path d="M909.083 522.099L911.762 522.648L910.836 680.169H909.083V522.099Z" fill="#B7B7B7"/>
<path d="M913.102 522.769L915.781 523.318L914.854 680.839H913.102V522.769Z" fill="#B7B7B7"/>
<path d="M917.12 523.438L919.799 523.985L918.873 680.838H917.12V523.438Z" fill="#B7B7B7"/>
<path d="M921.139 524.107L923.818 524.652L922.892 680.838H921.139V524.107Z" fill="#B7B7B7"/>
<path d="M925.157 524.777L927.167 525.15L926.472 680.838H925.157V524.777Z" fill="#B7B7B7"/>
<path d="M928.507 525.447L930.516 525.818L929.821 680.838H928.507V525.447Z" fill="#B7B7B7"/>
<path d="M935.205 526.787L937.214 527.155L936.519 680.839H935.205V526.787Z" fill="#B7B7B7"/>
<path d="M931.855 526.118L933.865 526.487L933.17 680.839H931.855V526.118Z" fill="#B7B7B7"/>
<path d="M938.553 527.457L940.563 527.823L939.868 680.839H938.553V527.457Z" fill="#B7B7B7"/>
<path d="M941.902 527.457L943.912 527.825L943.217 681.508H941.902V527.457Z" fill="#B7B7B7"/>
<path d="M948.6 528.796L950.609 529.161L949.915 681.508H948.6V528.796Z" fill="#B7B7B7"/>
<path d="M951.949 529.466L953.289 529.721L952.65 681.508H951.949V529.466Z" fill="#B7B7B7"/>
<path d="M954.628 529.466L955.968 529.721L955.329 681.508H954.628V529.466Z" fill="#B7B7B7"/>
<path d="M957.308 530.136L958.647 530.389L958.009 681.508H957.308V530.136Z" fill="#B7B7B7"/>
<path d="M959.987 530.136L961.326 530.389L960.688 681.508H959.987V530.136Z" fill="#B7B7B7"/>
<path d="M962.666 530.806L964.005 531.058L963.367 681.508H962.666V530.806Z" fill="#B7B7B7"/>
<path d="M965.345 531.476L966.685 531.727L966.046 681.508H965.345V531.476Z" fill="#B7B7B7"/>
<path d="M968.024 531.476L969.364 531.727L968.725 681.508H968.024V531.476Z" fill="#B7B7B7"/>
<path d="M970.703 532.145L972.043 532.397L971.405 682.178H970.703V532.145Z" fill="#B7B7B7"/>
<path d="M973.382 532.145L974.722 532.397L974.083 682.178H973.382V532.145Z" fill="#B7B7B7"/>
<path d="M976.062 532.815L978.071 533.485L976.444 682.178H976.062V532.815Z" fill="#B7B7B7"/>
<path d="M945.251 528.127L947.261 528.493L946.566 681.509H945.251V528.127Z" fill="#B7B7B7"/>
<path d="M650.044 591.527V681.679H620.234V587.638L650.044 591.527Z" fill="#E6E6E6" stroke="#968F8F"/>
<path d="M934.2 524.444L870.905 472.535V511.744L934.2 524.444Z" fill="url(#paint5_linear)"/>
<rect x="541.869" y="589.917" width="47.2248" height="2.34894" transform="rotate(-90 541.869 589.917)" fill="#C4C4C4" stroke="#968F8F"/>
<rect x="869.5" y="513.725" width="47.2248" height="2.34894" transform="rotate(-90 869.5 513.725)" fill="#C4C4C4" stroke="#968F8F"/>
<path d="M607.508 587.908V525.278H609.857V587.908H607.508Z" fill="#C4C4C4" stroke="#968F8F"/>
<rect x="486.276" y="587.569" width="123.581" height="2.34894" fill="#C4C4C4" stroke="#968F8F"/>
<path d="M588.754 527.609V525.257L870.405 512.576V517.264L588.754 527.609Z" fill="#C4C4C4" stroke="#968F8F"/>
<path d="M871.405 517.211V512.646L962.142 528.311L963.937 530.106L871.405 517.211Z" fill="#C4C4C4" stroke="#968F8F"/>
<path d="M537.85 681.679V590.875L619.234 587.589V681.679H537.85Z" fill="#EDEDED" stroke="#968F8F"/>
<path d="M830.357 475.352L830.344 475.353L830.331 475.354L786.169 480.898L786.167 480.898L752.271 485.076L752.258 485.077L752.245 485.08L725.267 489.897L725.261 489.898L701.926 494.363L701.911 494.366L701.896 494.37L668.063 503.058L668.052 503.061L638.289 511.45L638.281 511.453L638.273 511.455L614.735 518.938L614.731 518.939L589.488 526.765L589.488 526.765L589.477 526.768L562.18 535.946L562.175 535.948L479.673 564.631L474.988 548.571L627.222 495.672L672.232 482.396L672.242 482.393L702.239 474.215L702.249 474.212L762.577 460.534L869.905 442.728L869.768 472.499L830.357 475.352Z" fill="#C4C4C4" stroke="#968F8F"/>
<path d="M870.735 472.636V443.201L964.495 529.749L933.407 525.308L870.735 472.636Z" fill="#DBDBDB" stroke="#968F8F"/>
<line x1="576.698" y1="610.511" x2="576.698" y2="679.5" stroke="black"/>
<line x1="617.737" y1="609.002" x2="539.372" y2="611.011" stroke="black"/>
<path d="M581.056 646.01C581.056 646.48 580.928 646.883 580.747 647.153C580.565 647.428 580.367 647.519 580.216 647.519C580.066 647.519 579.868 647.428 579.685 647.153C579.505 646.883 579.377 646.48 579.377 646.01C579.377 645.54 579.505 645.137 579.685 644.866C579.868 644.592 580.066 644.5 580.216 644.5C580.367 644.5 580.565 644.592 580.747 644.866C580.928 645.137 581.056 645.54 581.056 646.01Z" fill="#C4C4C4" stroke="black"/>
<path d="M544.294 596.813L546.959 596.767C548.174 596.745 549.058 596.904 549.61 597.242C550.167 597.576 550.452 598.12 550.465 598.874C550.474 599.385 550.36 599.807 550.124 600.14C549.891 600.472 549.577 600.675 549.179 600.748L549.18 600.806C549.725 600.918 550.12 601.138 550.364 601.466C550.612 601.793 550.741 602.233 550.75 602.783C550.764 603.564 550.491 604.179 549.933 604.626C549.378 605.073 548.616 605.305 547.648 605.322L544.443 605.378L544.294 596.813ZM546.169 600.173L547.223 600.155C547.715 600.146 548.07 600.064 548.286 599.908C548.506 599.752 548.613 599.498 548.606 599.146C548.601 598.818 548.475 598.586 548.231 598.45C547.99 598.309 547.61 598.244 547.091 598.253L546.136 598.269L546.169 600.173ZM546.194 601.615L546.233 603.847L547.416 603.826C547.916 603.817 548.284 603.715 548.519 603.52C548.754 603.324 548.868 603.029 548.861 602.635C548.848 601.924 548.334 601.577 547.319 601.595L546.194 601.615ZM552.144 596.998C552.133 596.416 552.453 596.12 553.101 596.108C553.749 596.097 554.079 596.382 554.089 596.964C554.094 597.242 554.015 597.46 553.854 597.619C553.696 597.774 553.456 597.854 553.132 597.86C552.483 597.871 552.154 597.584 552.144 596.998ZM554.151 605.209L552.364 605.24L552.249 598.69L554.036 598.659L554.151 605.209ZM558.649 599.727C558.27 599.734 557.976 599.86 557.765 600.106C557.554 600.348 557.437 600.69 557.414 601.132L559.921 601.088C559.906 600.647 559.785 600.309 559.558 600.074C559.331 599.836 559.028 599.72 558.649 599.727ZM558.998 605.241C557.943 605.26 557.114 604.983 556.51 604.412C555.906 603.84 555.595 603.021 555.576 601.955C555.557 600.857 555.816 600.005 556.352 599.398C556.892 598.787 557.647 598.473 558.615 598.456C559.541 598.44 560.266 598.691 560.791 599.209C561.316 599.727 561.586 600.451 561.602 601.381L561.618 602.248L557.394 602.322C557.422 602.829 557.579 603.223 557.865 603.503C558.152 603.783 558.549 603.919 559.056 603.91C559.451 603.903 559.823 603.856 560.173 603.767C560.523 603.679 560.888 603.542 561.268 603.356L561.292 604.738C560.982 604.9 560.65 605.021 560.296 605.101C559.942 605.186 559.509 605.232 558.998 605.241ZM569.166 604.947L567.379 604.978L567.312 601.152C567.304 600.68 567.214 600.328 567.042 600.096C566.87 599.861 566.6 599.746 566.233 599.753C565.733 599.762 565.375 599.936 565.158 600.276C564.941 600.611 564.839 601.166 564.853 601.939L564.907 605.021L563.12 605.052L563.006 598.502L564.371 598.479L564.625 599.312L564.725 599.31C564.919 598.991 565.188 598.747 565.533 598.581C565.881 598.411 566.278 598.322 566.724 598.314C567.485 598.301 568.067 598.498 568.468 598.905C568.87 599.308 569.078 599.899 569.091 600.676L569.166 604.947ZM572.564 604.887L569.954 598.381L571.823 598.348L573.153 602.058C573.302 602.528 573.398 602.974 573.44 603.395L573.475 603.395C573.488 603.019 573.568 602.571 573.716 602.048L574.91 598.295L576.779 598.262L574.397 604.855L572.564 604.887ZM580.455 599.346C580.076 599.353 579.781 599.479 579.57 599.725C579.36 599.967 579.243 600.309 579.219 600.751L581.727 600.707C581.711 600.266 581.59 599.928 581.363 599.694C581.136 599.456 580.833 599.34 580.455 599.346ZM580.803 604.861C579.748 604.879 578.919 604.602 578.315 604.031C577.711 603.459 577.4 602.64 577.382 601.574C577.362 600.477 577.621 599.624 578.157 599.017C578.698 598.406 579.452 598.092 580.421 598.075C581.346 598.059 582.071 598.31 582.596 598.828C583.121 599.347 583.391 600.071 583.408 601L583.423 601.867L579.199 601.941C579.227 602.448 579.385 602.842 579.671 603.122C579.957 603.403 580.354 603.538 580.862 603.529C581.256 603.522 581.628 603.475 581.978 603.387C582.329 603.299 582.693 603.161 583.073 602.975L583.097 604.358C582.787 604.519 582.455 604.64 582.101 604.721C581.747 604.805 581.314 604.852 580.803 604.861ZM590.971 604.566L589.184 604.597L589.117 600.772C589.109 600.299 589.019 599.947 588.847 599.716C588.675 599.48 588.405 599.366 588.038 599.372C587.538 599.381 587.18 599.555 586.963 599.895C586.746 600.231 586.645 600.785 586.658 601.559L586.712 604.64L584.925 604.672L584.811 598.122L586.176 598.098L586.431 598.931L586.53 598.93C586.724 598.61 586.993 598.367 587.338 598.201C587.687 598.031 588.084 597.942 588.529 597.934C589.29 597.92 589.872 598.117 590.274 598.524C590.675 598.928 590.883 599.518 590.897 600.295L590.971 604.566ZM597.451 604.453L597.196 603.619L597.102 603.621C596.916 603.929 596.649 604.17 596.3 604.344C595.951 604.514 595.553 604.603 595.103 604.611C594.334 604.624 593.75 604.43 593.353 604.026C592.955 603.619 592.749 603.029 592.736 602.256L592.661 597.985L594.448 597.954L594.515 601.779C594.523 602.252 594.613 602.606 594.785 602.841C594.957 603.072 595.227 603.185 595.594 603.178C596.094 603.17 596.452 602.997 596.669 602.662C596.886 602.322 596.988 601.765 596.974 600.992L596.92 597.91L598.707 597.879L598.821 604.429L597.451 604.453ZM603.314 598.947C602.936 598.954 602.641 599.08 602.43 599.326C602.22 599.568 602.102 599.91 602.079 600.352L604.586 600.308C604.571 599.867 604.45 599.529 604.223 599.295C603.996 599.057 603.693 598.941 603.314 598.947ZM603.663 604.462C602.608 604.48 601.779 604.203 601.175 603.632C600.571 603.06 600.26 602.241 600.241 601.175C600.222 600.078 600.481 599.225 601.017 598.618C601.557 598.007 602.312 597.693 603.28 597.676C604.206 597.66 604.931 597.911 605.456 598.429C605.981 598.948 606.251 599.672 606.268 600.601L606.283 601.468L602.059 601.542C602.087 602.049 602.244 602.443 602.531 602.723C602.817 603.004 603.214 603.139 603.721 603.13C604.116 603.123 604.488 603.076 604.838 602.988C605.188 602.9 605.553 602.762 605.933 602.576L605.957 603.959C605.647 604.12 605.315 604.241 604.961 604.322C604.607 604.406 604.174 604.453 603.663 604.462Z" fill="black"/>
<rect x="636.673" y="530.676" width="207.634" height="29.4707" transform="rotate(-1.5 636.673 530.676)" fill="#D9D7D7"/>
<g filter="url(#filter0_d)">
<path d="M657.603 535.29L658.046 552.208L654.374 552.304L645.736 539.962L646.065 552.522L642.395 552.618L641.952 535.7L646.752 535.574L654.211 546.071L653.931 535.386L657.602 535.29L657.603 535.29ZM674.727 544.878L674.752 545.862C674.719 546.144 674.725 546.378 674.731 546.612C674.697 546.848 674.703 547.082 674.708 547.27L663.454 547.564C663.63 548.123 664.044 548.534 664.657 548.799C665.269 549.065 666.161 549.182 667.33 549.151L668.097 549.131C668.418 549.076 668.741 549.067 669.104 549.058C669.426 549.003 669.789 548.993 670.193 548.983C670.554 548.926 670.917 548.917 671.28 548.907C672.166 548.835 673.052 548.765 673.938 548.697L674.006 551.275C673.243 551.434 672.481 551.596 671.718 551.757C671.075 551.867 670.351 551.98 669.587 552.093C668.823 552.207 668.097 552.226 667.411 552.244C666 552.281 664.788 552.266 663.815 552.104C662.843 551.989 662.028 551.682 661.412 551.276C660.795 550.823 660.335 550.225 660.072 549.435C659.769 548.645 659.621 547.618 659.588 546.352C659.555 545.087 659.649 544.053 659.91 543.248C660.131 542.446 660.558 541.778 661.151 541.341C661.744 540.856 662.543 540.507 663.507 540.341C664.472 540.175 665.679 540.049 667.092 540.012C668.221 539.982 669.271 540.049 670.203 540.166C671.095 540.282 671.909 540.543 672.564 540.901C673.22 541.306 673.758 541.808 674.138 542.454C674.478 543.102 674.701 543.894 674.727 544.878ZM670.888 544.743L670.875 544.228C670.835 544.083 670.777 543.942 670.702 543.811C670.618 543.672 670.453 543.536 670.169 543.45C669.923 543.362 669.558 543.277 669.073 543.243C668.441 543.198 667.808 543.183 667.174 543.199C665.924 543.232 665 543.397 664.402 543.694C663.804 543.991 663.454 544.469 663.349 545.128L670.893 544.931L670.888 544.743ZM682.538 551.848C681.53 551.875 680.681 551.85 679.91 551.683C679.14 551.562 678.486 551.251 677.991 550.842C677.454 550.387 677.075 549.787 676.772 548.998C676.509 548.207 676.361 547.179 676.328 545.914L676.173 540.009L679.844 539.913L679.998 545.818C680.011 546.287 680.101 546.659 680.191 546.986C680.279 547.264 680.446 547.494 680.613 547.678C680.834 547.872 681.101 548.009 681.39 548.079C681.673 548.119 682.037 548.156 682.441 548.146L683.127 548.128C683.369 548.121 683.57 548.069 683.811 548.063C684.012 548.011 684.294 548.004 684.535 547.95C684.817 547.943 685.139 547.888 685.541 547.83L685.33 539.77L689.001 539.673L689.294 550.874C688.772 550.981 688.29 551.087 687.769 551.195C687.287 551.301 686.765 551.408 686.242 551.47C685.679 551.578 685.116 551.639 684.513 551.749C683.909 551.812 683.264 551.829 682.538 551.848ZM698.286 541.26L698.372 544.54L694.701 544.636L694.874 551.244L691.163 551.341L690.942 542.906C690.904 541.452 690.952 540.185 691.125 539.102C691.258 538.02 691.598 537.12 692.183 536.354C692.729 535.636 693.522 535.052 694.601 534.649C695.641 534.294 697.048 534.069 698.823 534.023L699.832 533.997L699.92 537.371L698.871 537.398C698.024 537.42 697.3 537.533 696.781 537.734C696.261 537.936 695.825 538.228 695.511 538.565C695.198 538.948 695.006 539.328 694.857 539.801C694.749 540.273 694.681 540.791 694.655 541.354L698.285 541.259L698.286 541.26ZM710.646 550.831L704.589 538.42L704.918 550.981L701.248 551.077L700.805 534.159L705.847 534.027L711.476 545.51L716.536 533.747L721.538 533.616L721.981 550.534L718.31 550.63L717.981 538.07L712.582 550.78L710.646 550.831ZM730.986 538.339C732.439 538.301 733.611 538.364 734.582 538.48C735.554 538.594 736.37 538.901 736.987 539.354C737.603 539.76 738.064 540.405 738.327 541.195C738.63 541.985 738.778 543.013 738.811 544.278C738.845 545.543 738.751 546.578 738.489 547.382C738.268 548.185 737.84 548.805 737.247 549.29C736.653 549.728 735.855 550.076 734.89 550.243C733.928 550.456 732.759 550.533 731.306 550.571C729.895 550.608 728.683 550.593 727.71 550.431C726.738 550.316 725.964 550.007 725.347 549.602C724.73 549.149 724.27 548.551 724.008 547.761C723.705 546.971 723.556 545.943 723.523 544.678C723.49 543.413 723.584 542.379 723.846 541.574C724.066 540.771 724.493 540.104 725.087 539.667C725.68 539.181 726.438 538.834 727.402 538.668C728.367 538.501 729.575 538.376 730.986 538.339L730.986 538.339ZM731.209 546.869C731.976 546.849 732.58 546.786 733.063 546.726C733.545 546.667 733.947 546.563 734.224 546.368C734.503 546.22 734.657 545.934 734.77 545.65C734.883 545.319 734.912 544.896 734.898 544.38C734.884 543.818 734.833 543.397 734.703 543.072C734.573 542.748 734.406 542.517 734.12 542.384C733.832 542.204 733.426 542.121 732.94 542.04C732.455 542.006 731.85 542.022 731.083 542.042C730.357 542.061 729.712 542.078 729.229 542.137C728.747 542.244 728.387 542.346 728.109 542.541C727.831 542.69 727.635 542.929 727.522 543.26C727.425 543.693 727.383 544.135 727.395 544.577C727.409 545.093 727.501 545.512 727.59 545.838C727.719 546.116 727.928 546.392 728.214 546.525C728.501 546.705 728.866 546.79 729.352 546.824C729.837 546.858 730.483 546.888 731.209 546.869ZM744.016 537.998L740.332 539.173L740.617 550.046L744.329 549.949L744.016 537.998ZM743.757 534.299C743.763 534.534 743.73 534.816 743.615 535.054C743.541 535.291 743.425 535.481 743.309 535.672C743.158 535.854 742.969 536.003 742.755 536.109C742.557 536.254 742.357 536.306 742.114 536.313C741.872 536.319 741.67 536.277 741.464 536.142C741.245 536.048 741.048 535.909 740.889 535.735C740.762 535.551 740.637 535.367 740.55 535.134C740.423 534.903 740.375 534.623 740.369 534.389C740.361 534.107 740.396 533.872 740.511 533.635C740.585 533.398 740.7 533.161 740.816 532.97C740.973 532.825 741.172 532.68 741.37 532.533C741.569 532.435 741.769 532.382 742.011 532.376C742.254 532.37 742.456 532.411 742.66 532.499C742.866 532.635 743.071 532.77 743.237 532.906C743.362 533.091 743.489 533.322 743.576 533.554C743.703 533.786 743.75 534.019 743.757 534.299ZM754.745 537.717C756.198 537.679 757.37 537.742 758.342 537.858C759.354 537.971 760.128 538.279 760.746 538.732C761.362 539.138 761.823 539.783 762.086 540.573C762.389 541.363 762.537 542.39 762.57 543.656L762.722 549.468L758.809 549.57L758.657 543.758C758.643 543.196 758.591 542.775 758.462 542.45C758.424 542.3 758.352 542.161 758.251 542.042C758.15 541.923 758.023 541.827 757.878 541.762C757.591 541.582 757.186 541.499 756.699 541.418C756.214 541.384 755.609 541.4 754.842 541.42L753.914 541.444C753.553 541.5 753.19 541.509 752.787 541.52C752.424 541.577 751.982 541.635 751.579 541.646C751.177 541.703 750.773 541.714 750.411 541.77L750.621 549.784L746.95 549.88L746.644 538.164L749.306 538.094L749.766 538.692C750.284 538.443 751.004 538.19 751.888 538.026C752.83 537.845 753.785 537.742 754.745 537.717ZM777.398 545.706C777.416 546.409 777.31 546.975 777.08 547.45C776.852 547.971 776.418 548.358 775.82 548.655C775.223 548.952 774.462 549.207 773.456 549.327C772.492 549.492 771.281 549.524 769.829 549.562C769.265 549.577 768.699 549.545 768.092 549.514C767.525 549.435 767 549.402 766.473 549.322C765.947 549.289 765.501 549.207 765.056 549.171C764.65 549.089 764.326 549.05 764.083 549.009L764.012 546.291C764.82 546.317 765.587 546.344 766.313 546.325C766.96 546.355 767.606 546.385 768.252 546.368C768.763 546.39 769.275 546.392 769.786 546.375C770.593 546.354 771.24 546.383 771.723 546.37C772.207 546.311 772.61 546.301 772.851 546.247C773.036 546.215 773.213 546.146 773.37 546.046C773.449 545.95 773.526 545.807 773.523 545.714C773.519 545.573 773.517 545.479 773.434 545.388C773.317 545.331 773.194 545.287 773.067 545.257C772.812 545.206 772.555 545.166 772.297 545.136C771.974 545.145 771.57 545.108 771.044 545.076C769.467 544.976 768.171 544.822 767.198 544.66C766.185 544.499 765.411 544.238 764.88 543.971C764.306 543.657 763.933 543.292 763.719 542.829C763.505 542.365 763.41 541.805 763.394 541.196C763.377 540.539 763.483 539.974 763.713 539.499C763.982 538.976 764.375 538.59 764.973 538.294C765.569 537.949 766.37 537.694 767.336 537.575C768.3 537.409 769.509 537.331 771.002 537.292L772.942 537.381C773.524 537.45 774.104 537.529 774.683 537.617C775.291 537.695 775.858 537.774 776.386 537.901L776.46 540.713C776.043 540.665 775.625 540.63 775.206 540.605C774.72 540.571 774.236 540.583 773.71 540.55C773.185 540.517 772.701 540.529 772.216 540.496C771.732 540.508 771.327 540.472 771.004 540.48L769.068 540.531C768.689 540.538 768.312 540.579 767.941 540.654C767.66 540.709 767.5 540.76 767.382 540.857C767.301 540.949 767.261 541.068 767.269 541.188C767.271 541.282 767.314 541.374 767.357 541.467C767.439 541.512 767.521 541.556 767.724 541.598C767.886 541.641 768.13 541.681 768.452 541.673C768.883 541.719 769.314 541.755 769.747 541.78C771.323 541.879 772.618 541.986 773.633 542.194C774.606 542.356 775.379 542.617 775.953 542.93C776.484 543.198 776.898 543.562 777.071 544.026C777.285 544.49 777.381 545.05 777.398 545.706ZM778.757 540.605C778.719 539.153 778.808 537.884 778.981 536.801C779.154 535.718 779.535 534.817 780.12 534.051C780.666 533.334 781.498 532.749 782.579 532.392C783.659 531.989 785.106 531.764 786.84 531.718C787.647 531.697 788.454 531.676 789.223 531.749C790.031 531.775 790.759 531.85 791.406 531.88C792.094 531.956 792.702 532.033 793.228 532.113C793.755 532.194 794.161 532.277 794.485 532.315L794.576 535.783C794.414 535.74 794.131 535.748 793.684 535.665C793.239 535.631 792.673 535.552 791.985 535.522C791.299 535.494 790.53 535.42 789.641 535.396C788.793 535.371 787.865 535.396 786.897 535.421C785.889 535.447 785.085 535.563 784.485 535.813C783.926 536.062 783.492 536.401 783.22 536.831C782.95 537.307 782.802 537.827 782.737 538.438C782.673 539.05 782.651 539.753 782.67 540.503C782.69 541.252 782.749 541.955 782.845 542.562C782.942 543.169 783.117 543.68 783.41 544.095C783.704 544.51 784.156 544.826 784.727 545.045C785.34 545.311 786.149 545.383 787.157 545.357C788.246 545.328 789.213 545.256 790.14 545.185C791.066 545.114 791.911 544.998 792.596 544.933C793.44 544.817 794.204 544.703 794.886 544.545L794.977 548.013C794.697 548.114 794.295 548.171 793.773 548.279C793.173 548.401 792.57 548.51 791.965 548.608C791.282 548.719 790.516 548.786 789.752 548.853C788.947 548.968 788.14 548.989 787.293 549.011C785.559 549.057 784.103 548.954 783.004 548.608C781.905 548.262 781.044 547.768 780.46 547.033C779.837 546.346 779.408 545.419 779.179 544.346C778.949 543.274 778.794 542.011 778.757 540.605ZM800.344 537.18C800.784 537.027 801.226 536.922 801.708 536.816C802.108 536.712 802.591 536.652 803.113 536.544C803.677 536.482 804.199 536.422 804.805 536.406C806.217 536.369 807.429 536.431 808.401 536.547C809.373 536.661 810.188 536.968 810.765 537.422C811.381 537.828 811.842 538.473 812.105 539.263C812.408 540.053 812.556 541.081 812.589 542.346L812.741 548.158L808.869 548.259L808.717 542.447C808.702 541.885 808.651 541.464 808.521 541.139C808.392 540.815 808.184 540.586 807.898 540.452C807.61 540.272 807.245 540.188 806.758 540.107C806.273 540.073 805.627 540.09 804.901 540.109L803.974 540.133C803.612 540.189 803.249 540.199 802.845 540.209C802.444 540.267 802.041 540.324 801.638 540.335C801.196 540.394 800.792 540.404 800.43 540.46L800.64 548.474L796.969 548.57L796.526 531.652L800.197 531.556L800.344 537.179L800.344 537.18ZM829.22 540.832L829.246 541.816C829.254 542.097 829.22 542.332 829.226 542.567C829.232 542.801 829.197 543.037 829.202 543.224L817.948 543.519C818.125 544.077 818.539 544.488 819.151 544.753C819.764 545.019 820.654 545.136 821.824 545.105L822.591 545.085C822.913 545.03 823.235 545.021 823.598 545.012C823.92 544.957 824.283 544.948 824.686 544.937C825.048 544.881 825.451 544.87 825.774 544.862C826.62 544.792 827.506 544.722 828.432 544.651L828.5 547.229C827.737 547.389 827.015 547.549 826.252 547.71C825.529 547.828 824.806 547.94 824.081 548.048C823.317 548.162 822.591 548.181 821.905 548.199C820.494 548.236 819.282 548.22 818.309 548.058C817.338 547.943 816.522 547.636 815.906 547.23C815.289 546.777 814.829 546.18 814.566 545.39C814.263 544.6 814.115 543.572 814.082 542.307C814.049 541.042 814.142 540.007 814.404 539.203C814.625 538.4 815.052 537.732 815.646 537.295C816.239 536.81 817.037 536.461 818.001 536.295C818.966 536.129 820.174 536.003 821.585 535.966C822.715 535.937 823.766 536.003 824.697 536.12C825.629 536.236 826.403 536.497 827.058 536.855C827.715 537.26 828.252 537.762 828.632 538.408C829.012 539.055 829.195 539.848 829.22 540.832ZM825.382 540.698L825.369 540.183C825.365 540.042 825.281 539.903 825.197 539.765C825.112 539.626 824.947 539.49 824.702 539.403C824.334 539.291 823.953 539.222 823.567 539.197C822.936 539.151 822.302 539.137 821.668 539.154C820.418 539.187 819.494 539.351 818.896 539.648C818.299 539.946 817.948 540.423 817.844 541.083L825.387 540.885L825.382 540.698ZM830.884 536.521C831.445 536.365 832.047 536.256 832.73 536.097C833.372 535.986 834.057 535.921 834.74 535.809C835.425 535.745 836.15 535.679 836.874 535.614C837.599 535.548 838.285 535.53 839.011 535.511L839.092 538.604C838.325 538.624 837.683 538.734 837.119 538.796C836.597 538.903 836.116 539.01 835.754 539.067C835.313 539.171 834.952 539.275 834.632 539.377L834.847 547.578L831.176 547.674L830.884 536.521Z" fill="#E06329"/>
</g>
<path d="M128.961 441.34C128.976 441.091 129.092 440.853 129.304 440.708C133.624 437.758 138.423 433.242 143.062 428.888C150.889 421.529 157.649 415.174 161.868 416.205C163.061 416.497 163.987 417.331 164.604 418.674C164.811 419.125 164.645 419.643 164.224 419.829C163.803 420.015 163.293 419.808 163.085 419.357C162.58 418.28 161.985 418.019 161.581 417.922C158.197 417.093 151.103 423.766 144.237 430.228C139.552 434.632 134.711 439.183 130.293 442.201C129.912 442.456 129.388 442.336 129.11 441.927C128.993 441.743 128.945 441.531 128.961 441.34Z" fill="url(#paint6_linear)"/>
<path d="M43.4129 501.292C44.3724 501.764 45.4512 501.803 46.389 501.433C60.4601 495.829 101.394 481.285 109.923 477.228C111.003 476.719 113.863 475.067 115.091 474.119C125.203 466.251 138.919 443.984 138.919 443.984C143.85 438.469 139.099 436.262 139.099 436.262L104.811 423.977C103.868 423.644 102.897 423.371 101.923 423.239C97.8196 422.665 95.2189 423.87 93.0012 424.329L25.63 447.396C23.7979 448.158 22.9578 450.308 23.7086 452.304L41.3144 498.957C41.6942 499.98 42.4533 500.82 43.4129 501.292ZM121.303 438.873C123.038 436.48 126.421 436.135 128.845 438.1C131.268 440.065 131.825 443.61 130.09 446.003C128.355 448.396 124.972 448.741 122.549 446.776C120.12 444.802 119.568 441.266 121.303 438.873Z" fill="url(#paint7_linear)"/>
<path d="M128.961 441.34C128.971 441.175 129.031 441.004 129.139 440.861C129.427 440.501 129.963 440.477 130.329 440.801C132.578 442.81 138.826 441.883 145.863 438.481C154.355 434.377 163.251 426.892 162.722 420.138C162.674 419.652 163.034 419.25 163.496 419.246C163.966 419.237 164.372 419.629 164.408 420.111C165.011 427.689 155.917 435.619 146.654 440.089C140.483 443.07 132.677 445.16 129.268 442.11C129.053 441.903 128.94 441.615 128.961 441.34Z" fill="url(#paint8_linear)"/>
<path d="M114.894 454.195C115.324 456.695 115.265 458.588 114.718 459.873C114.163 461.163 112.987 462.127 111.169 462.766C109.747 463.268 108.621 463.348 107.782 463.011C106.943 462.675 106.288 461.889 105.809 460.638C105.51 459.864 105.262 458.867 105.056 457.651C104.648 455.15 104.715 453.252 105.249 451.963C105.783 450.674 106.98 449.709 108.814 449.061C110.212 448.573 111.333 448.484 112.172 448.821C113.011 449.158 113.665 449.943 114.145 451.195C114.441 451.982 114.689 452.979 114.894 454.195ZM106.736 437.008L101.194 466.279L97.7443 467.495L103.286 438.224L106.736 437.008ZM111.064 455.539C110.817 454.086 110.604 453.114 110.419 452.628C110.173 451.983 109.798 451.754 109.297 451.929C108.84 452.09 108.586 452.454 108.535 453.008C108.49 453.57 108.598 454.671 108.871 456.315C109.118 457.769 109.331 458.741 109.517 459.227C109.762 459.872 110.15 460.104 110.667 459.92C111.107 459.768 111.354 459.409 111.408 458.842C111.481 458.275 111.366 457.178 111.064 455.539ZM99.3716 446.871C99.801 449.372 99.7422 451.265 99.1953 452.55C98.6403 453.839 97.4484 454.813 95.6145 455.461C94.2162 455.949 93.0947 456.038 92.2558 455.701C91.4168 455.364 90.7625 454.579 90.2831 453.327C89.9841 452.553 89.7359 451.556 89.5306 450.34C89.122 447.839 89.1886 445.942 89.7228 444.652C90.2569 443.363 91.4538 442.399 93.2877 441.75C94.6859 441.262 95.8075 441.174 96.6464 441.51C97.4854 441.847 98.1396 442.633 98.6191 443.884C98.918 444.658 99.1742 445.651 99.3716 446.871ZM95.5493 448.211C95.3017 446.757 95.0891 445.785 94.9036 445.299C94.6579 444.654 94.2831 444.426 93.782 444.601C93.3255 444.762 93.0707 445.126 93.0205 445.679C92.9753 446.242 93.0828 447.343 93.3559 448.987C93.6035 450.441 93.8161 451.413 94.0015 451.899C94.2472 452.544 94.6221 452.772 95.1231 452.597C95.5796 452.436 95.8345 452.072 95.8847 451.519C95.9348 450.965 95.8224 449.855 95.5493 448.211Z" fill="white"/>
<path d="M166.633 427.89C173.358 427.89 178.81 420.405 178.81 411.171C178.81 401.938 173.358 394.452 166.633 394.452C159.907 394.452 154.455 401.938 154.455 411.171C154.455 420.405 159.907 427.89 166.633 427.89Z" fill="#3E4039"/>
<path d="M156.708 411.098C156.708 418.515 159.509 424.54 162.952 424.54C166.395 424.54 169.196 418.533 169.196 411.098C169.196 403.682 166.395 397.657 162.952 397.657C159.509 397.676 156.708 403.682 156.708 411.098Z" fill="#D6E3DD"/>
<path d="M67.2339 404.488C67.2339 416.867 72.0866 426.902 78.0564 426.902C84.0445 426.902 88.8789 416.867 88.8789 404.488C88.8789 392.109 84.0261 382.074 78.0564 382.074C72.0683 382.074 67.2339 392.109 67.2339 404.488Z" fill="#3E4039"/>
<path d="M69.2485 404.964C69.2485 413.241 71.153 419.962 73.5153 419.962C75.8775 419.962 77.782 413.241 77.782 404.964C77.782 396.687 75.8775 389.966 73.5153 389.966C71.1713 389.966 69.2485 396.687 69.2485 404.964Z" fill="#D6E3DD"/>
<path d="M218.383 430.675C227.96 430.675 235.724 420.025 235.724 406.887C235.724 393.75 227.96 383.1 218.383 383.1C208.805 383.1 201.041 393.75 201.041 406.887C201.041 420.025 208.805 430.675 218.383 430.675Z" fill="#3E4039"/>
<path d="M205.692 405.038C205.692 416.171 210.362 425.199 216.112 425.199C221.862 425.199 226.531 416.171 226.531 405.038C226.531 393.904 221.862 384.876 216.112 384.876C210.362 384.894 205.692 393.922 205.692 405.038Z" fill="#D6E3DD"/>
<path d="M109.572 430.619C118.3 430.619 125.375 419.969 125.375 406.831C125.375 393.694 118.3 383.044 109.572 383.044C100.844 383.044 93.7683 393.694 93.7683 406.831C93.7683 419.969 100.844 430.619 109.572 430.619Z" fill="#3E4039"/>
<path d="M96.1853 406.722C96.1853 416.061 99.6097 423.624 103.84 423.624C108.07 423.624 111.494 416.061 111.494 406.722C111.494 397.382 108.07 389.819 103.84 389.819C99.6097 389.801 96.1853 397.364 96.1853 406.722Z" fill="#D6E3DD"/>
<path d="M67.2889 404.634C67.2889 404.634 66.007 380.022 69.4497 382.531C69.4497 382.531 73.7348 386.542 73.4967 397.749C73.4967 397.749 73.2587 411.19 78.8439 412.252L94.5008 413.827C94.5008 413.827 91.7906 403.847 96.9546 392.438C96.9546 392.438 97.3575 372.771 103.053 380.737C103.401 381.231 103.455 381.524 104.041 382.971C105.781 387.219 109.132 397.163 108.656 409.23L108.693 409.34C108.748 409.597 108.931 410.256 109.224 411.098L109.242 411.135C109.718 412.49 110.542 414.285 111.678 415.42C111.678 415.42 119.936 415.713 132.297 416.024C160.626 416.757 210.472 417.599 231.824 415.218C233.857 414.999 235.633 414.742 237.116 414.449C237.116 414.449 238.874 411.648 239.643 408.626C239.918 407.582 240.064 406.539 239.973 405.568C239.973 405.568 239.899 383.923 234.424 375.115C234.424 375.115 234.9 362.26 222.997 358.707C222.997 358.707 220.324 356.162 216.35 352.518C206.608 343.526 189.102 327.851 184.707 326.826C184.707 326.826 149.73 316.589 108.821 323.255C108.821 323.255 95.5079 325.324 85.8208 335.634C85.8208 335.634 83.605 338.527 81.4808 342.794C79.906 345.962 78.4044 349.899 77.8916 353.946C77.8916 353.946 77.8733 353.983 77.8184 354.037C77.1775 354.733 72.6727 359.641 71.8852 361.491C70.9696 363.615 68.7172 374.474 67.6734 379.162C67.6734 379.198 61.9234 397.382 67.2889 404.634Z" fill="url(#paint9_linear)"/>
<path d="M220.561 352.005L220.58 352.078C220.671 352.261 221.001 352.994 221.037 354.532C221.056 355.027 219.133 355.173 219.133 355.173L216.185 352.554L211.204 347.885C211.204 347.885 216.789 345.779 220.561 352.005Z" fill="#036E33"/>
<path d="M102.448 339.48C102.448 339.48 103.235 330.946 99.9573 330.36C99.9573 330.36 97.3753 330.067 97.0091 330.708C93.9326 335.836 90.0871 344.314 88.4756 354.862C88.4756 354.862 95.5624 358.616 98.3459 356.144C101.148 353.653 102.448 339.48 102.448 339.48Z" fill="url(#paint10_linear)"/>
<path d="M95.2519 330.122C95.2519 330.122 84.6309 335.982 81.7742 349.24C81.7742 349.24 87.0114 351.218 87.5608 350.741C88.1102 350.265 91.9923 336.55 95.6548 331.312C95.6548 331.312 96.607 329.884 95.2519 330.122Z" fill="url(#paint11_linear)"/>
<path d="M204.447 353.928C206.022 353.964 206.809 352.042 205.674 350.943C199.301 344.918 188.735 333.125 183.388 331.129C181.172 330.69 161.395 326.972 141.087 326.972C129.66 326.972 120.174 328.126 112.795 330.415C112.08 330.635 111.604 331.294 111.604 332.045C111.531 338.399 114.516 349.405 115.23 352.444C115.413 353.214 116.109 353.745 116.915 353.745C121.877 353.726 138.432 353.653 156.451 353.653C181.374 353.653 195.895 353.763 204.447 353.928Z" fill="url(#paint12_linear)"/>
<path d="M218.071 365.794C220.507 363.157 222.997 358.744 222.997 358.744C226.33 359.751 228.692 361.473 230.377 363.45C234.662 368.505 234.424 375.152 234.424 375.152C233.783 375.939 231.256 376.104 231.256 376.104C228.088 374.676 213.017 377.844 213.017 377.844C213.017 377.844 213.53 369.786 218.071 365.794Z" fill="#D6E3DD"/>
<path d="M117.061 358.341C117.061 358.341 112.3 359.33 111.458 362.553C111.311 363.12 111.274 363.761 111.421 364.457C111.421 364.457 113.801 379.675 122.115 376.104C122.115 376.104 139.951 376.342 147.807 377.294C147.807 377.294 145.628 369.987 136.875 365.556C136.893 365.556 126.052 360.337 117.061 358.341Z" fill="#D6E3DD"/>
<path d="M158.757 400.77C158.245 400.77 157.805 400.349 157.805 399.818V388.922C157.805 388.409 158.226 387.97 158.757 387.97H207.175C207.706 387.97 208.127 388.391 208.127 388.922V399.818C208.127 400.349 207.706 400.77 207.175 400.77H158.757Z" fill="white"/>
<path d="M199.394 394.013L198.295 397.529H199.211L199.888 395.167L200.529 397.529H201.408L200.364 394.013L201.408 390.717H200.511L199.888 392.805L199.284 390.717H198.386L199.394 394.013Z" fill="#979797"/>
<path d="M195.218 394.013L194.119 397.529H195.035L195.712 395.167L196.353 397.529H197.232L196.188 394.013L197.232 390.717H196.335L195.712 392.805L195.126 390.717H194.229L195.218 394.013Z" fill="#979797"/>
<path d="M186.685 394.013L185.586 397.529H186.484L187.161 395.167L187.802 397.529H188.699L187.656 394.013L188.681 390.717H187.784L187.161 392.805L186.575 390.717H185.678L186.685 394.013Z" fill="#979797"/>
<path d="M182.509 394.013L181.411 397.529H182.308L182.985 395.167L183.626 397.529H184.524L183.48 394.013L184.505 390.717H183.608L182.985 392.805L182.399 390.717H181.502L182.509 394.013Z" fill="#979797"/>
<path d="M178.334 394.013L177.236 397.529H178.133L178.81 395.167L179.451 397.529H180.349L179.305 394.013L180.33 390.717H179.433L178.81 392.805L178.224 390.717H177.327L178.334 394.013Z" fill="#979797"/>
<path d="M169.782 394.013L168.683 397.529H169.599L170.258 395.167L170.917 397.529H171.796L170.753 394.013L171.796 390.717H170.899L170.258 392.805L169.672 390.717H168.775L169.782 394.013Z" fill="#979797"/>
<path d="M164.508 397.53H165.424L166.101 395.168L166.742 397.53H167.621L166.578 394.014L167.621 390.718H166.724L166.101 392.805L165.515 390.718H164.618L165.607 394.014L164.508 397.53Z" fill="#979797"/>
<path d="M192.545 393.72V394.526H190.292V393.72H192.545Z" fill="#979797"/>
<path d="M175.569 393.72V394.526H173.316V393.72H175.569Z" fill="#979797"/>
<path d="M204.208 400.771H207.175C207.706 400.771 208.127 400.35 208.127 399.819V388.923C208.127 388.41 207.706 387.971 207.175 387.971H204.208V400.771Z" fill="url(#paint13_linear)"/>
<path d="M157.805 388.924V399.819C157.805 400.35 158.226 400.772 158.757 400.772H161.724V387.99H158.757C158.245 387.99 157.805 388.411 157.805 388.924Z" fill="url(#paint14_linear)"/>
<path d="M189.797 344.9C186.776 343.948 183.937 342.666 181.172 341.311C178.425 339.919 175.715 338.454 173.206 336.66C176.228 337.612 179.066 338.894 181.831 340.249C184.596 341.641 187.307 343.106 189.797 344.9Z" fill="#CAC9C9"/>
<path d="M172.291 345.724C169.269 344.772 166.431 343.49 163.666 342.135C160.901 340.743 158.209 339.278 155.7 337.484C158.74 338.436 161.56 339.718 164.325 341.073C167.072 342.465 169.782 343.93 172.291 345.724Z" fill="#CAC9C9"/>
<path d="M186.117 347.372C181.557 345.742 177.199 343.783 172.877 341.732C168.574 339.663 164.344 337.502 160.297 335.011C164.856 336.641 169.215 338.6 173.536 340.651C177.821 342.739 182.07 344.9 186.117 347.372Z" fill="#CAC9C9"/>
<path d="M101.66 355.411L100.653 358.268C100.653 358.268 84.3553 360.136 80.1252 354.935C80.1252 354.935 79.0082 343.124 96.6245 347.079C98.5656 347.519 96.6978 355.009 96.6978 355.009C96.6978 355.009 99.9024 355.961 101.66 355.411Z" fill="#036E33"/>
<path d="M345.16 502.589C338.447 502.589 333.006 495.332 333.006 486.382C333.006 477.431 338.447 470.175 345.16 470.175C351.873 470.175 357.315 477.431 357.315 486.382C357.315 495.332 351.873 502.589 345.16 502.589Z" fill="#3E4039"/>
<path d="M355.071 486.339C355.071 493.531 352.279 499.359 348.838 499.359C345.397 499.359 342.606 493.531 342.606 486.339C342.606 479.148 345.397 473.319 348.838 473.319C352.279 473.305 355.071 479.133 355.071 486.339Z" fill="#D6E3DD"/>
<path d="M444.333 479.908C444.333 491.909 439.504 501.641 433.537 501.641C427.57 501.641 422.741 491.909 422.741 479.908C422.741 467.907 427.57 458.174 433.537 458.174C439.504 458.174 444.333 467.907 444.333 479.908Z" fill="#3E4039"/>
<path d="M442.31 480.367C442.31 488.392 440.405 494.909 438.056 494.909C435.708 494.909 433.803 488.392 433.803 480.367C433.803 472.343 435.708 465.826 438.056 465.826C440.419 465.826 442.31 472.343 442.31 480.367Z" fill="#D6E3DD"/>
<path d="M293.544 505.302C283.992 505.302 276.25 494.974 276.25 482.234C276.25 469.493 283.992 459.165 293.544 459.165C303.095 459.165 310.838 469.493 310.838 482.234C310.838 494.974 303.095 505.302 293.544 505.302Z" fill="#3E4039"/>
<path d="M306.201 480.454C306.201 491.249 301.549 499.991 295.804 499.991C290.058 499.991 285.406 491.235 285.406 480.454C285.406 469.659 290.058 460.917 295.804 460.917C301.534 460.917 306.201 469.659 306.201 480.454Z" fill="#D6E3DD"/>
<path d="M402.109 505.258C393.406 505.258 386.351 494.93 386.351 482.19C386.351 469.449 393.406 459.121 402.109 459.121C410.812 459.121 417.867 469.449 417.867 482.19C417.867 494.93 410.812 505.258 402.109 505.258Z" fill="#3E4039"/>
<path d="M415.46 482.075C415.46 491.133 412.034 498.469 407.825 498.469C403.601 498.469 400.189 491.133 400.189 482.075C400.189 473.017 403.615 465.682 407.825 465.682C412.034 465.667 415.46 473.017 415.46 482.075Z" fill="#D6E3DD"/>
<path d="M444.288 480.066C444.288 480.066 445.573 456.194 442.132 458.62C442.132 458.62 437.849 462.51 438.085 473.391C438.085 473.391 438.322 486.426 432.754 487.459L417.143 488.981C417.143 488.981 419.846 479.305 414.692 468.252C414.692 468.252 414.293 449.174 408.607 456.897C408.253 457.385 408.208 457.672 407.618 459.065C405.89 463.185 402.537 472.831 403.024 484.531L402.995 484.631C402.936 484.875 402.759 485.521 402.463 486.325L402.449 486.368C401.976 487.689 401.164 489.426 400.012 490.531C400.012 490.531 391.771 490.818 379.439 491.12C351.186 491.823 301.445 492.641 280.134 490.345C278.096 490.129 276.338 489.885 274.861 489.612C274.861 489.612 273.104 486.885 272.351 483.971C272.085 482.966 271.937 481.947 272.026 480.999C272.026 480.999 272.1 460.012 277.549 451.471C277.549 451.471 279.853 439.915 288.951 435.551C288.951 435.551 291.624 433.082 295.582 429.551C305.3 420.837 322.771 405.635 327.158 404.645C327.158 404.645 362.041 394.725 402.862 401.185C402.862 401.185 416.154 403.195 425.813 413.186C425.813 413.186 428.028 416 430.14 420.134C431.705 423.206 433.212 427.01 433.714 430.943C433.714 430.943 433.743 430.972 433.788 431.029C434.438 431.704 438.913 436.47 439.71 438.25C440.626 440.317 442.871 450.839 443.904 455.39C443.904 455.39 449.635 473.032 444.288 480.066Z" fill="url(#paint15_linear)"/>
<path d="M291.373 429.019L291.359 429.091C291.27 429.263 290.93 429.981 290.901 431.474C290.886 431.962 292.806 432.091 292.806 432.091L295.745 429.55L300.722 425.014C300.692 425.014 295.125 422.975 291.373 429.019Z" fill="#183964"/>
<path d="M409.198 416.875C409.198 416.875 408.415 408.606 411.679 408.032C411.679 408.032 414.249 407.745 414.632 408.362C417.69 413.329 421.529 421.554 423.154 431.775C423.154 431.775 416.08 435.421 413.303 433.01C410.512 430.627 409.198 416.875 409.198 416.875Z" fill="url(#paint16_linear)"/>
<path d="M416.375 407.802C416.375 407.802 426.979 413.487 429.829 426.335C429.829 426.335 424.601 428.258 424.055 427.799C423.508 427.339 419.624 414.032 415.991 408.965C415.976 408.951 415.031 407.573 416.375 407.802Z" fill="url(#paint17_linear)"/>
<path d="M307.441 430.871C305.876 430.9 305.078 429.034 306.23 427.986C312.581 422.143 323.14 410.702 328.457 408.779C330.673 408.363 350.404 404.745 370.666 404.745C382.068 404.745 391.534 405.865 398.889 408.09C399.598 408.305 400.071 408.951 400.086 409.669C400.159 415.842 397.191 426.507 396.467 429.45C396.29 430.197 395.581 430.713 394.798 430.713C389.851 430.699 373.339 430.627 355.366 430.627C330.466 430.613 315.963 430.728 307.441 430.871Z" fill="url(#paint18_linear)"/>
<path d="M293.854 442.384C291.432 439.829 288.936 435.551 288.936 435.551C285.613 436.527 283.25 438.193 281.581 440.116C277.298 445.026 277.535 451.471 277.535 451.471C278.17 452.232 280.695 452.39 280.695 452.39C283.856 451.012 298.89 454.084 298.89 454.084C298.89 454.084 298.373 446.26 293.854 442.384Z" fill="#D6E3DD"/>
<path d="M394.621 435.163C394.621 435.163 399.376 436.11 400.203 439.239C400.351 439.785 400.38 440.402 400.233 441.091C400.233 441.091 397.855 455.848 389.555 452.389C389.555 452.389 371.759 452.618 363.916 453.551C363.916 453.551 366.087 446.46 374.831 442.168C374.831 442.168 385.656 437.086 394.621 435.163Z" fill="#D6E3DD"/>
<path d="M351.984 476.306C352.486 476.306 352.885 475.89 352.885 475.387V464.822C352.885 464.32 352.486 463.903 351.984 463.903H305.536C305.034 463.903 304.635 464.32 304.635 464.822V475.387C304.635 475.89 305.034 476.306 305.536 476.306H351.984Z" fill="white"/>
<path d="M312.478 469.758L313.571 473.16H312.67L312.005 470.863L311.355 473.16H310.469L311.503 469.758L310.484 466.571H311.37L312.005 468.581L312.581 466.571H313.482L312.478 469.758Z" fill="#979797"/>
<path d="M316.642 469.758L317.735 473.16H316.834L316.155 470.863L315.52 473.16H314.634L315.668 469.758L314.649 466.571H315.535L316.155 468.581L316.746 466.571H317.647L316.642 469.758Z" fill="#979797"/>
<path d="M325.164 469.758L326.271 473.16H325.356L324.691 470.863L324.041 473.16H323.155L324.204 469.758L323.17 466.571H324.056L324.691 468.581L325.267 466.571H326.168L325.164 469.758Z" fill="#979797"/>
<path d="M329.329 469.758L330.422 473.16H329.521L328.856 470.863L328.206 473.16H327.32L328.369 469.758L327.335 466.571H328.221L328.856 468.581L329.432 466.571H330.333L329.329 469.758Z" fill="#979797"/>
<path d="M333.493 469.758L334.586 473.16H333.685L333.006 470.863L332.371 473.16H331.485L332.519 469.758L331.5 466.571H332.386L333.006 468.581L333.597 466.571H334.498L333.493 469.758Z" fill="#979797"/>
<path d="M342.015 469.758L343.122 473.16H342.207L341.542 470.863L340.892 473.16H340.006L341.055 469.758L340.021 466.571H340.922L341.542 468.581L342.133 466.571H343.019L342.015 469.758Z" fill="#979797"/>
<path d="M347.272 473.16H346.371L345.707 470.863L345.057 473.16H344.171L345.219 469.758L344.186 466.571H345.072L345.707 468.581L346.283 466.571H347.184L346.179 469.758L347.272 473.16Z" fill="#979797"/>
<path d="M319.331 469.471V470.246H321.576V469.471H319.331Z" fill="#979797"/>
<path d="M336.255 469.471V470.246H338.5V469.471H336.255Z" fill="#979797"/>
<path d="M307.678 476.304H304.724C304.207 476.304 303.779 475.887 303.779 475.37V464.662C303.779 464.145 304.207 463.729 304.724 463.729H307.678V476.304Z" fill="#183964"/>
<path d="M353.963 464.677V475.386C353.963 475.903 353.535 476.319 353.018 476.319H350.064V463.758H353.018C353.549 463.744 353.963 464.16 353.963 464.677Z" fill="#183964"/>
<path d="M322.047 422.129C325.075 421.21 327.881 419.961 330.657 418.655C333.404 417.306 336.107 415.884 338.603 414.147C335.575 415.066 332.755 416.315 329.993 417.621C327.246 418.971 324.543 420.392 322.047 422.129Z" fill="#CAC9C9"/>
<path d="M339.533 422.933C342.561 422.014 345.382 420.765 348.144 419.459C350.891 418.109 353.593 416.688 356.089 414.951C353.062 415.87 350.241 417.104 347.479 418.425C344.732 419.774 342.029 421.196 339.533 422.933Z" fill="#CAC9C9"/>
<path d="M325.725 424.526C330.274 422.947 334.616 421.038 338.929 419.057C343.212 417.047 347.45 414.951 351.482 412.54C346.933 414.119 342.577 416.028 338.279 418.009C334.011 420.033 329.772 422.129 325.725 424.526Z" fill="#CAC9C9"/>
<path d="M409.995 432.32L410.999 435.091C410.999 435.091 427.26 436.9 431.484 431.861C431.484 431.861 432.591 420.406 415.031 424.253C413.097 424.669 414.957 431.947 414.957 431.947C414.957 431.947 411.738 432.866 409.995 432.32Z" fill="#183964"/>
<path d="M992.72 681.871H976.971V627.984C976.971 623.475 980.496 619.819 984.846 619.819C989.195 619.819 992.72 623.475 992.72 627.984V681.871Z" fill="url(#paint19_linear)"/>
<path d="M1001.89 597.271C1006.95 597.271 1011.05 601.642 1011.05 607.033V681.871H992.72V607.033C992.72 601.641 996.824 597.271 1001.89 597.271Z" fill="url(#paint20_linear)"/>
<path d="M1014.32 641.25C1019.5 641.25 1023.7 645.615 1023.7 650.999V681.871H1004.94V650.999C1004.94 645.614 1009.14 641.25 1014.32 641.25Z" fill="url(#paint21_linear)"/>
<path d="M1011.05 641.25V641.818C1008.13 643.134 1005.2 646.758 1005.2 650.999V681.871H1002.27V650.999C1002.27 645.62 1006.66 641.25 1011.05 641.25Z" fill="url(#paint22_linear)"/>
<path d="M980.998 610.607C971.661 613.232 963.281 618.491 956.866 625.751C950.452 633.01 946.277 641.961 944.844 651.525L944.493 653.856C944.442 654.197 944.477 654.545 944.595 654.869C944.714 655.192 944.912 655.481 945.171 655.708C945.43 655.936 945.742 656.095 946.079 656.172C946.416 656.248 946.767 656.239 947.1 656.145L949.376 655.506C958.713 652.88 967.093 647.621 973.508 640.362C979.922 633.102 984.097 624.152 985.53 614.588L986.354 609.102L980.998 610.607Z" fill="url(#paint23_linear)"/>
<path d="M950.52 653.626C949.556 643.975 945.832 634.809 939.797 627.231C933.762 619.654 925.672 613.988 916.502 610.916L914.267 610.165C913.94 610.056 913.592 610.03 913.252 610.091C912.913 610.151 912.594 610.296 912.325 610.511C912.056 610.727 911.845 611.007 911.711 611.326C911.578 611.644 911.526 611.991 911.56 612.335L911.795 614.688C912.759 624.339 916.483 633.505 922.518 641.082C928.553 648.66 936.643 654.326 945.813 657.398L951.072 659.162L950.52 653.626Z" fill="url(#paint24_linear)"/>
<path d="M937.331 643.404H924.746C917.371 635.419 912.821 625.184 911.806 614.302L911.56 612.063C911.518 611.569 911.607 611.073 911.819 610.626L937.331 643.404Z" fill="url(#paint25_linear)"/>
<path d="M957.439 643.701C961.362 630.004 955.816 611.228 945.116 601.982L937.81 595.669C937.556 595.448 937.251 595.296 936.923 595.227C936.596 595.157 936.256 595.171 935.936 595.269C935.615 595.366 935.324 595.544 935.088 595.785C934.853 596.026 934.68 596.324 934.587 596.65L931.909 606.003C927.987 619.701 933.532 638.476 944.232 647.723L953.897 656.074L957.439 643.701Z" fill="url(#paint26_linear)"/>
<path d="M965.803 629.139L964.444 619.286C970.55 612.049 978.906 606.611 988.204 603.822L990.112 603.219C990.535 603.095 990.973 603.075 991.383 603.159L965.803 629.139Z" fill="url(#paint27_linear)"/>
<path d="M942.326 682.179H959.096C961.875 682.179 958.899 679.743 958.442 678.699C958.512 677.101 956.595 675.915 956.595 673.654V656.602C956.595 654.341 956.556 652.173 956.485 650.574C956.415 648.975 956.319 648.077 956.219 648.077L947.044 651.557C946.945 651.563 945.723 651.698 945.652 653.296C945.582 654.895 944.925 654.346 944.925 656.602L943.993 673.654C942.881 676.611 942.255 677.101 942.326 678.699C942.396 680.298 940.381 682.179 942.326 682.179Z" fill="url(#paint28_linear)"/>
<path d="M955.87 610.606C946.532 613.231 938.152 618.49 931.738 625.75C925.324 633.009 921.149 641.96 919.716 651.524L919.364 653.855C919.313 654.196 919.349 654.544 919.467 654.868C919.585 655.191 919.783 655.48 920.043 655.707C920.302 655.935 920.614 656.094 920.951 656.171C921.288 656.247 921.639 656.238 921.972 656.144L924.247 655.505C933.585 652.879 941.965 647.62 948.379 640.361C954.793 633.101 958.968 624.151 960.401 614.587L961.226 609.101L955.87 610.606Z" fill="url(#paint29_linear)"/>
<path d="M925.392 653.626C924.428 643.974 920.704 634.808 914.669 627.231C908.633 619.653 900.544 613.988 891.374 610.916L889.139 610.165C888.812 610.055 888.463 610.03 888.124 610.09C887.785 610.15 887.466 610.295 887.197 610.511C886.928 610.727 886.717 611.007 886.583 611.325C886.449 611.644 886.397 611.991 886.432 612.335L886.666 614.687C887.631 624.338 891.354 633.505 897.39 641.082C903.425 648.659 911.515 654.325 920.685 657.397L925.944 659.162L925.392 653.626Z" fill="url(#paint30_linear)"/>
<path d="M912.202 643.403H899.617C892.243 635.419 887.692 625.184 886.677 614.301L886.432 612.063C886.389 611.569 886.479 611.072 886.691 610.625L912.202 643.403Z" fill="url(#paint31_linear)"/>
<path d="M932.311 643.7C936.233 630.002 930.688 611.227 919.988 601.98L912.682 595.667C912.427 595.447 912.122 595.295 911.795 595.225C911.467 595.155 911.128 595.17 910.807 595.267C910.487 595.365 910.196 595.542 909.96 595.784C909.724 596.025 909.552 596.322 909.459 596.649L906.781 606.002C902.859 619.699 908.404 638.475 919.104 647.721L928.768 656.073L932.311 643.7Z" fill="url(#paint32_linear)"/>
<path d="M940.675 629.138L939.315 619.285C945.421 612.048 953.777 606.609 963.075 603.82L964.984 603.218C965.406 603.094 965.845 603.073 966.254 603.157L940.675 629.138Z" fill="url(#paint33_linear)"/>
<path d="M917.197 682.178H933.968C936.746 682.178 933.771 679.742 933.313 678.698C933.384 677.099 931.467 675.913 931.467 673.652V656.601C931.467 654.34 931.427 652.171 931.357 650.572C931.286 648.973 931.19 648.075 931.09 648.075L921.916 651.555C921.816 651.562 920.594 651.697 920.524 653.295C920.454 654.893 919.797 654.344 919.797 656.601L918.864 673.652C917.753 676.61 917.127 677.099 917.197 678.698C917.268 680.297 915.252 682.178 917.197 682.178Z" fill="url(#paint34_linear)"/>
<path d="M920.449 609.911C911.112 612.536 902.731 617.795 896.317 625.055C889.903 632.314 885.728 641.265 884.295 650.829L883.944 653.16C883.892 653.501 883.928 653.849 884.046 654.173C884.165 654.496 884.362 654.785 884.622 655.013C884.881 655.24 885.193 655.399 885.53 655.476C885.867 655.552 886.218 655.543 886.551 655.45L888.826 654.81C898.164 652.184 906.544 646.926 912.958 639.666C919.372 632.407 923.547 623.456 924.98 613.892L925.805 608.406L920.449 609.911Z" fill="url(#paint35_linear)"/>
<path d="M889.971 652.931C889.007 643.28 885.283 634.113 879.248 626.536C873.212 618.959 865.123 613.293 855.953 610.221L853.718 609.47C853.391 609.36 853.042 609.335 852.703 609.395C852.364 609.456 852.045 609.6 851.776 609.816C851.507 610.032 851.296 610.312 851.162 610.63C851.028 610.949 850.976 611.296 851.011 611.64L851.245 613.992C852.209 623.644 855.933 632.81 861.969 640.387C868.004 647.965 876.093 653.63 885.263 656.702L890.523 658.467L889.971 652.931Z" fill="url(#paint36_linear)"/>
<path d="M876.781 642.708H864.196C856.822 634.724 852.271 624.489 851.256 613.606L851.011 611.368C850.968 610.874 851.058 610.377 851.27 609.931L876.781 642.708Z" fill="url(#paint37_linear)"/>
<path d="M896.89 643.005C900.812 629.308 895.267 610.532 884.567 601.285L877.261 594.972C877.006 594.752 876.701 594.6 876.374 594.53C876.046 594.46 875.707 594.475 875.386 594.573C875.066 594.67 874.774 594.848 874.539 595.089C874.303 595.33 874.131 595.627 874.037 595.954L871.36 605.307C867.437 619.004 872.983 637.78 883.683 647.027L893.347 655.378L896.89 643.005Z" fill="url(#paint38_linear)"/>
<path d="M905.254 628.443L903.894 618.59C910 611.353 918.356 605.914 927.654 603.125L929.563 602.523C929.985 602.399 930.424 602.378 930.833 602.463L905.254 628.443Z" fill="url(#paint39_linear)"/>
<path d="M881.776 681.483H898.547C901.325 681.483 898.349 679.047 897.892 678.003C897.963 676.404 896.046 675.218 896.046 672.957V655.906C896.046 653.645 896.006 651.476 895.936 649.877C895.865 648.279 895.769 647.38 895.669 647.38L886.495 650.86C886.395 650.867 885.173 651.002 885.103 652.6C885.032 654.198 884.375 653.649 884.375 655.906L883.443 672.957C882.332 675.915 881.705 676.404 881.776 678.003C881.847 679.602 879.831 681.483 881.776 681.483Z" fill="url(#paint40_linear)"/>
<path d="M164.58 540.876L170 533.075L162.323 527.567L163.179 518.052L153.815 517.183L149.883 508.512L141.338 512.507L133.661 507L128.241 514.801L118.877 513.931L118.021 523.446L109.488 527.454L113.432 536.124L108 543.925L115.677 549.433L114.821 558.948L124.185 559.817L128.129 568.488L136.662 564.493L144.339 570L149.759 562.199L159.123 563.069L159.979 553.554L168.512 549.546L164.58 540.876Z" fill="url(#paint41_linear)"/>
<path d="M325.766 549.896C325.571 550.175 325.261 550.373 324.898 550.4C317.516 550.93 308.438 552.956 299.671 554.903C284.868 558.202 272.086 561.05 267.644 557.023C266.388 555.884 265.844 554.294 266.038 552.321C266.103 551.658 266.673 551.168 267.321 551.234C267.968 551.301 268.447 551.883 268.382 552.546C268.24 554.135 268.784 554.837 269.211 555.221C272.773 558.453 286.189 555.46 299.178 552.559C308.037 550.585 317.193 548.545 324.743 548.002C325.39 547.963 325.947 548.453 325.999 549.115C326.012 549.406 325.921 549.685 325.766 549.896Z" fill="url(#paint42_linear)"/>
<path d="M471.003 538.315C470.167 537.153 468.881 536.404 467.48 536.21C446.424 533.357 386.404 523.065 373.176 522.084C371.505 521.955 366.864 521.955 364.704 522.226C346.874 524.524 314.544 540.768 314.544 540.768C304.671 543.79 308.9 549.394 308.9 549.394L341.989 585.717C342.902 586.711 343.892 587.654 344.985 588.442C349.574 591.773 353.585 592.109 356.606 593.039L454.779 610.961C457.543 611.297 460.076 609.412 460.564 606.661L471.915 542.331C472.172 540.923 471.838 539.477 471.003 538.315ZM332.387 558.071C328.594 559.647 324.237 557.826 322.668 554.017C321.1 550.208 322.912 545.83 326.705 544.255C330.497 542.68 334.855 544.5 336.423 548.309C337.991 552.132 336.179 556.496 332.387 558.071Z" fill="url(#paint43_linear)"/>
<path d="M325.774 550.408C325.644 550.59 325.449 550.746 325.215 550.837C324.605 551.059 323.93 550.733 323.709 550.122C322.371 546.349 314.033 543.291 302.967 542.537C289.615 541.626 273.367 544.306 269.224 552.36C268.938 552.945 268.211 553.166 267.639 552.867C267.055 552.568 266.834 551.852 267.133 551.28C271.77 542.238 288.576 539.18 303.136 540.182C312.838 540.845 323.917 543.604 325.943 549.328C326.06 549.705 325.995 550.109 325.774 550.408Z" fill="url(#paint44_linear)"/>
<path d="M172.562 676.561C181.418 676.561 188.597 666.705 188.597 654.547C188.597 642.389 181.418 632.534 172.562 632.534C163.706 632.534 156.527 642.389 156.527 654.547C156.527 666.705 163.706 676.561 172.562 676.561Z" fill="#3E4039"/>
<path d="M185.626 654.472C185.626 664.242 181.947 672.16 177.397 672.16C172.86 672.16 169.169 664.242 169.169 654.472C169.169 644.703 172.848 636.785 177.397 636.785C181.947 636.785 185.626 644.703 185.626 654.472Z" fill="#D6E3DD"/>
<path d="M303.437 645.759C303.437 662.055 297.06 675.268 289.18 675.268C281.312 675.268 274.923 662.055 274.923 645.759C274.923 629.464 281.299 616.25 289.18 616.25C297.048 616.25 303.437 629.464 303.437 645.759Z" fill="#3E4039"/>
<path d="M300.764 646.381C300.764 657.282 298.253 666.12 295.146 666.12C292.051 666.12 289.528 657.282 289.528 646.381C289.528 635.48 292.038 626.642 295.146 626.642C298.253 626.642 300.764 635.48 300.764 646.381Z" fill="#D6E3DD"/>
<path d="M104.446 680.24C117.05 680.24 127.267 666.216 127.267 648.917C127.267 631.617 117.05 617.593 104.446 617.593C91.842 617.593 81.6245 631.617 81.6245 648.917C81.6245 666.216 91.842 680.24 104.446 680.24Z" fill="#3E4039"/>
<path d="M121.139 646.493C121.139 661.147 114.999 673.03 107.416 673.03C99.8342 673.03 93.6938 661.147 93.6938 646.493C93.6938 631.838 99.8342 619.955 107.416 619.955C114.999 619.955 121.139 631.838 121.139 646.493Z" fill="#D6E3DD"/>
<path d="M247.701 680.166C259.186 680.166 268.497 666.142 268.497 648.842C268.497 631.543 259.186 617.519 247.701 617.519C236.216 617.519 226.906 631.543 226.906 648.842C226.906 666.142 236.216 680.166 247.701 680.166Z" fill="#3E4039"/>
<path d="M265.314 648.694C265.314 660.987 260.802 670.956 255.234 670.956C249.665 670.956 245.153 660.987 245.153 648.694C245.153 636.4 249.665 626.432 255.234 626.432C260.802 626.432 265.314 636.388 265.314 648.694Z" fill="#D6E3DD"/>
<path d="M302.994 646.867C302.994 646.867 304.682 614.224 300.14 617.542C300.14 617.542 294.506 622.864 294.816 637.739C294.816 637.739 295.138 655.556 287.792 656.984L267.216 659.062C267.216 659.062 270.778 645.84 263.99 630.702C263.99 630.702 263.469 604.608 255.973 615.188C255.502 615.852 255.452 616.24 254.67 618.156C252.399 623.803 247.981 636.975 248.614 652.977L248.577 653.115C248.502 653.44 248.267 654.329 247.882 655.431L247.87 655.481C247.237 657.284 246.169 659.663 244.655 661.178C244.655 661.178 233.797 661.566 217.552 661.992C180.323 662.956 114.787 664.07 86.7284 660.928C84.0479 660.64 81.7149 660.289 79.7789 659.914C79.7789 659.914 77.4707 656.195 76.4655 652.201C76.118 650.823 75.9195 649.421 76.0312 648.144C76.0312 648.144 76.1305 619.433 83.3157 607.763C83.3157 607.763 82.6952 590.722 98.3316 586.002C98.3316 586.002 101.856 582.634 107.068 577.788C119.875 565.868 142.895 545.071 148.666 543.718C148.666 543.718 194.632 530.158 248.403 538.985C248.403 538.985 265.901 541.727 278.633 555.388C278.633 555.388 281.55 559.232 284.33 564.891C286.39 569.086 288.375 574.307 289.045 579.679C289.045 579.679 289.082 579.716 289.157 579.791C290.013 580.718 295.92 587.229 296.963 589.67C298.179 592.5 301.132 606.899 302.485 613.11C302.485 613.135 310.043 637.25 302.994 646.867Z" fill="url(#paint45_linear)"/>
<path d="M189.48 592.677L189.471 592.746C189.375 592.934 189.038 593.706 189 595.328C188.99 595.852 190.94 596 190.94 596L193.928 593.251L199 588.356C198.99 588.356 193.304 586.16 189.48 592.677Z" fill="#F39121"/>
<path d="M257.111 560.04C257.111 560.04 256.052 548.857 260.468 548.089C260.468 548.089 263.952 547.705 264.463 548.535C268.61 555.26 273.805 566.381 276 580.215C276 580.215 266.428 585.144 262.65 581.887C258.885 578.642 257.111 560.04 257.111 560.04Z" fill="url(#paint46_linear)"/>
<path d="M266.968 548.034C266.968 548.034 281.174 555.675 285 572.937C285 572.937 278.004 575.52 277.259 574.905C276.514 574.29 271.324 556.413 266.437 549.597C266.437 549.585 265.162 547.727 266.968 548.034Z" fill="url(#paint47_linear)"/>
<path d="M123.307 580C121.241 580.037 120.214 577.476 121.711 576.025C130.064 567.962 143.923 552.202 150.915 549.552C153.81 548.972 179.735 544 206.353 544C221.326 544 233.774 545.552 243.427 548.606C244.355 548.896 244.986 549.792 244.998 550.776C245.097 559.281 241.187 573.993 240.246 578.031C240.011 579.066 239.083 579.772 238.044 579.772C231.535 579.747 209.855 579.659 186.232 579.659C153.538 579.634 134.494 579.785 123.307 580Z" fill="url(#paint48_linear)"/>
<path d="M105.384 594.214C102.211 590.768 98.9398 585 98.9398 585C94.5823 586.309 91.484 588.57 89.299 591.151C83.6824 597.772 84.0034 606.467 84.0034 606.467C84.8428 607.493 88.151 607.715 88.151 607.715C92.2987 605.85 112 610 112 610C112 610 111.309 599.439 105.384 594.214Z" fill="#D6E3DD"/>
<path d="M238.468 585C238.468 585 244.738 586.244 245.831 590.321C246.03 591.039 246.067 591.84 245.868 592.737C245.868 592.737 242.739 612.013 231.787 607.493C231.787 607.493 208.331 607.792 198 609C198 609 200.856 599.744 212.379 594.136C212.392 594.136 226.659 587.511 238.468 585Z" fill="#D6E3DD"/>
<path d="M182.928 640.862H119.2C118.516 640.862 117.957 640.303 117.957 639.619V625.275C117.957 624.592 118.516 624.032 119.2 624.032H182.928C183.612 624.032 184.171 624.592 184.171 625.275V639.619C184.171 640.303 183.624 640.862 182.928 640.862Z" fill="white"/>
<path d="M130.748 627.637H129.567L128.796 630.372L127.976 627.637H126.795L128.15 631.988L126.782 636.599H127.951L128.796 633.479L129.691 636.599H130.872L129.43 631.963L130.748 627.637Z" fill="#979797"/>
<path d="M136.241 627.637H135.06L134.29 630.371L133.469 627.637H132.289L133.643 631.987L132.276 636.599H133.445L134.29 633.479L135.172 636.599H136.366L134.924 631.962L136.241 627.637Z" fill="#979797"/>
<path d="M147.491 627.637H146.31L145.539 630.371L144.719 627.637H143.538L144.893 631.987L143.525 636.599H144.694L145.539 633.479L146.434 636.599H147.627L146.173 631.962L147.491 627.637Z" fill="#979797"/>
<path d="M152.984 627.637H151.804L151.033 630.371L150.213 627.637H149.032L150.387 631.987L149.019 636.599H150.188L151.033 633.479L151.928 636.599H153.109L151.667 631.962L152.984 627.637Z" fill="#979797"/>
<path d="M158.479 627.637H157.298L156.527 630.371L155.707 627.637H154.526L155.881 631.987L154.514 636.599H155.682L156.527 633.479L157.41 636.599H158.603L157.161 631.962L158.479 627.637Z" fill="#979797"/>
<path d="M169.728 627.637H168.547L167.776 630.371L166.956 627.637H165.775L167.13 631.987L165.763 636.599H166.931L167.776 633.479L168.671 636.599H169.865L168.41 631.962L169.728 627.637Z" fill="#979797"/>
<path d="M173.904 631.975L175.222 627.637H174.041L173.27 630.371L172.45 627.637H171.269L172.624 631.987L171.257 636.599H172.425L173.27 633.479L174.165 636.599H175.358L173.904 631.975Z" fill="#979797"/>
<path d="M141.437 631.59V632.646H138.466V631.59H141.437Z" fill="#979797"/>
<path d="M163.774 631.59V632.646H160.803V631.59H163.774Z" fill="#979797"/>
<path d="M123.103 624.032H119.2C118.516 624.032 117.957 624.592 117.957 625.275V639.619C117.957 640.303 118.516 640.862 119.2 640.862H123.103V624.032Z" fill="url(#paint49_linear)"/>
<path d="M182.928 624.032H179.025V640.862H182.928C183.612 640.862 184.171 640.303 184.171 639.619V625.275C184.171 624.592 183.612 624.032 182.928 624.032Z" fill="url(#paint50_linear)"/>
<path d="M141 568C144.467 565.388 148.222 563.244 152.042 561.223C155.889 559.244 159.8 557.388 164 556C160.533 558.612 156.778 560.756 152.958 562.777C149.111 564.756 145.2 566.625 141 568Z" fill="#CAC9C9"/>
<path d="M165 569C168.166 566.388 171.594 564.244 175.082 562.223C178.594 560.244 182.166 558.388 186 557C182.834 559.612 179.406 561.756 175.918 563.777C172.406 565.742 168.834 567.612 165 569Z" fill="#CAC9C9"/>
<path d="M148 571C153.176 567.582 158.606 564.619 164.084 561.759C169.598 558.952 175.172 556.248 181 554C175.824 557.418 170.406 560.394 164.916 563.241C159.39 566.048 153.816 568.752 148 571Z" fill="#CAC9C9"/>
<path d="M258 581.133L259.347 584.605C259.347 584.605 281.276 586.871 286.981 580.546C286.981 580.546 288.48 566.162 264.785 570.991C262.18 571.52 264.683 580.65 264.683 580.65C264.683 580.65 260.351 581.811 258 581.133Z" fill="#F39121"/>
<path d="M346 553.141L348.067 550L361 551.859L358.933 555L346 553.141Z" fill="white"/>
<path d="M43.1979 475.484L43.1094 471.771L53.7219 467.873L53.8104 471.586L43.1979 475.484Z" fill="white"/>
<path d="M422.057 557.289C423.239 554.255 424.582 552.203 426.084 551.133C427.599 550.062 429.619 549.748 432.168 550.201C434.164 550.553 435.531 551.183 436.282 552.089C437.033 552.996 437.267 554.28 436.984 555.967C436.812 557.012 436.43 558.271 435.851 559.744C434.644 562.765 433.289 564.817 431.799 565.9C430.309 566.983 428.264 567.285 425.69 566.832C423.732 566.479 422.365 565.862 421.613 564.956C420.862 564.049 420.628 562.765 420.911 561.078C421.096 560.021 421.478 558.762 422.057 557.289ZM420 581.461L446.16 552.681L451 553.537L424.84 582.317L420 581.461ZM427.427 558.246C426.737 560.008 426.331 561.217 426.22 561.871C426.072 562.74 426.355 563.231 427.057 563.357C427.698 563.47 428.24 563.231 428.671 562.652C429.102 562.06 429.718 560.776 430.506 558.787C431.195 557.024 431.602 555.816 431.713 555.161C431.861 554.293 431.565 553.789 430.838 553.663C430.222 553.55 429.693 553.789 429.249 554.381C428.781 554.96 428.178 556.244 427.427 558.246ZM435.223 575.267C436.405 572.232 437.748 570.18 439.25 569.11C440.765 568.04 442.81 567.725 445.384 568.179C447.342 568.531 448.709 569.148 449.46 570.054C450.212 570.961 450.446 572.245 450.163 573.932C449.99 574.977 449.608 576.236 449.029 577.709C447.822 580.73 446.468 582.782 444.977 583.865C443.487 584.948 441.443 585.25 438.868 584.797C436.91 584.444 435.543 583.827 434.792 582.921C434.041 582.014 433.807 580.73 434.09 579.043C434.262 577.998 434.632 576.739 435.223 575.267ZM440.58 576.223C439.891 577.986 439.484 579.194 439.373 579.849C439.226 580.718 439.509 581.209 440.211 581.335C440.851 581.448 441.393 581.209 441.824 580.63C442.255 580.038 442.871 578.754 443.66 576.765C444.349 575.002 444.756 573.794 444.867 573.139C445.014 572.27 444.731 571.779 444.029 571.653C443.389 571.54 442.847 571.779 442.416 572.358C441.984 572.937 441.369 574.234 440.58 576.223Z" fill="white"/>
<path d="M127.641 537.432C128.809 540.105 127.579 543.225 124.906 544.381C122.234 545.549 119.114 544.318 117.958 541.646C116.789 538.974 118.02 535.854 120.692 534.698C123.365 533.542 126.485 534.76 127.641 537.432Z" fill="white"/>
<path d="M121.749 536.562C121.674 536.586 121.6 536.599 121.525 536.636C119.922 537.332 119.188 539.209 119.884 540.813C120.58 542.416 122.457 543.149 124.061 542.453C125.664 541.757 126.398 539.88 125.701 538.277C125.614 538.09 125.515 537.904 125.403 537.742C123.8 538.351 122.619 537.68 121.749 536.562Z" fill="#0C4D86"/>
<path d="M156.055 525.065C157.224 527.737 155.993 530.857 153.321 532.013C150.648 533.181 147.528 531.951 146.372 529.278C145.204 526.606 146.435 523.486 149.107 522.33C151.779 521.162 154.887 522.392 156.055 525.065Z" fill="white"/>
<path d="M150.164 524.195C150.089 524.22 150.015 524.232 149.94 524.269C148.337 524.965 147.603 526.842 148.3 528.446C148.996 530.049 150.873 530.783 152.476 530.087C154.079 529.391 154.813 527.514 154.117 525.91C154.03 525.724 153.93 525.537 153.818 525.376C152.215 525.985 151.034 525.301 150.164 524.195Z" fill="#0C4D86"/>
<path d="M139.313 539.011C141.823 537.917 142.457 535.257 142.296 533.529C142.147 531.801 141.14 532.249 141.14 532.249L137.125 534.002L133.11 535.754C133.11 535.754 132.103 536.189 133.259 537.482C134.415 538.75 136.802 540.105 139.313 539.011Z" fill="white"/>
<path d="M387.23 563.741C387.178 563.959 387.089 564.382 387.178 564.523C387.345 564.78 387.949 564.857 388.386 564.947C388.707 565.011 388.052 568.142 387.821 569.207C387.602 570.234 387.23 572.005 386.909 571.941C386.151 571.787 386.113 571.723 385.727 571.915C385.471 572.082 385.496 572.21 385.432 572.531C384.996 574.636 384.764 575.701 384.354 577.638C384.225 578.229 382.761 577.985 381.362 577.69C380.283 577.459 377.022 576.663 377.15 576.073C377.548 574.186 377.612 573.866 378.049 571.825C378.113 571.504 378.293 570.927 378.216 570.516C378.074 570.144 377.355 570.054 376.816 569.939C375.147 569.592 369.548 568.412 367.879 568.065C367.609 568.014 367.173 567.975 367.057 567.667C366.916 567.244 367.07 566.82 367.16 566.397C367.596 564.292 367.532 564.626 367.982 562.521C368.11 561.931 368.187 561.559 368.444 560.879C368.662 560.366 368.945 559.865 369.189 559.467C373.58 552.743 377.317 546.789 382.286 539.731C382.838 538.948 383.57 538.704 387.076 539.448C390.954 540.27 392.096 540.667 391.994 541.206C389.914 550.985 389.297 553.949 387.23 563.741ZM380.103 562.072C381.259 557.093 381.169 557.299 382.325 552.307C382.44 551.768 382.71 550.754 382.44 550.703C382.068 550.626 381.696 551.562 381.464 552.127C380.206 554.899 379.436 556.144 378.126 558.903C377.843 559.467 377.741 559.66 377.509 560.237C377.381 560.597 377.291 560.699 377.214 561.071C377.009 562.047 377.124 561.508 377.06 561.829C376.932 562.419 377.15 562.188 377.317 562.496C377.394 562.676 377.278 562.663 378.036 562.817C378.794 562.971 379.5 563.073 379.744 563.009C379.975 562.945 380.013 562.509 380.103 562.072Z" fill="white"/>
<path d="M415.497 545.555C416.307 545.724 415.947 547.986 415.728 549.078C415.497 550.17 414.803 552.978 414.095 552.835C411.883 552.367 408 551.535 405.839 551.08C405.248 550.95 404.926 550.885 404.515 551.197C404.116 551.509 404.064 551.73 403.949 552.276C403.216 555.826 403.923 552.38 403.203 555.878C403.036 556.697 402.598 557.971 403.524 558.114C404.167 558.257 404.952 557.503 407.537 558.062C409.967 558.582 410.957 559.752 411.819 561.312C412.681 562.859 412.732 564.237 412.372 565.927C412.012 567.669 411.626 569.529 411.266 571.271C410.803 573.507 409.208 576.302 407.665 577.732C406.199 579.071 402.984 580.722 400.129 580.917C396.245 581.177 391.089 580.813 390.073 579.981C389.777 579.747 390.471 576.705 390.6 576.107C390.703 575.613 391.256 572.948 391.513 572.766C392.49 572.116 393.583 572.805 396.798 572.805C398.599 572.792 399.409 572.675 400.721 572.389C401.775 572.155 402.804 571.297 403.023 570.257C403.37 568.566 403.241 569.217 403.576 567.578C403.987 565.615 404.347 564.38 402.946 564.081C401.762 563.834 401.544 564.354 401.325 564.822C401.209 565.082 400.155 564.744 399.666 564.692C399.165 564.64 394.664 563.86 393.365 563.301C393.108 563.184 393.519 561.741 393.699 560.87C395.14 553.941 395.873 550.404 397.261 543.748C397.403 543.098 397.634 542.513 397.776 542.37C398.329 541.863 398.65 541.98 399.293 542.123C402.444 542.773 412.423 544.905 415.497 545.555Z" fill="white"/>
<path d="M83.5848 444.107C84.1176 443.93 84.6653 445.368 84.9034 446.077C85.1339 446.79 85.6683 448.658 85.2046 448.815C83.7475 449.294 81.1857 450.128 79.7633 450.596C79.372 450.721 79.1612 450.793 79.0241 451.114C78.8945 451.43 78.9384 451.576 79.0537 451.933C79.8142 454.245 79.0735 452.002 79.824 454.28C80.0007 454.813 80.1714 455.702 80.7635 455.471C81.1894 455.336 81.3974 454.631 83.1042 454.079C84.7072 453.557 85.6819 453.901 86.7119 454.515C87.7375 455.122 88.2303 455.906 88.586 457.011C88.9591 458.146 89.3563 459.357 89.7294 460.492C90.2079 461.949 90.2088 464.116 89.7819 465.471C89.3697 466.746 88.0344 468.797 86.422 469.879C84.2268 471.348 81.0738 472.886 80.1975 472.747C79.9451 472.712 79.3321 470.708 79.207 470.316C79.1016 469.994 78.5321 468.257 78.6222 468.064C78.9784 467.355 79.8521 467.384 81.7416 466.293C82.7953 465.675 83.2322 465.332 83.9071 464.721C84.4483 464.227 84.765 463.379 84.5444 462.7C84.1812 461.6 84.3238 462.021 83.9705 460.955C83.5534 459.674 83.3505 458.834 82.4263 459.136C81.6481 459.394 81.6941 459.77 81.7227 460.117C81.742 460.307 81.0088 460.468 80.7041 460.604C80.3919 460.744 77.4848 461.818 76.5338 461.933C76.3434 461.953 76.1009 460.974 75.9143 460.407C74.435 455.89 73.6789 453.585 72.261 449.244C72.126 448.818 72.0656 448.4 72.1008 448.268C72.2556 447.786 72.4838 447.745 72.9097 447.61C74.9796 446.919 81.5602 444.772 83.5848 444.107Z" fill="white"/>
<path d="M448.15 401.895C448 402.105 447.76 402.255 447.48 402.275C441.78 402.675 434.77 404.205 428 405.675C416.57 408.165 406.7 410.315 403.27 407.275C402.3 406.415 401.88 405.215 402.03 403.725C402.08 403.225 402.52 402.855 403.02 402.905C403.52 402.955 403.89 403.395 403.84 403.895C403.73 405.095 404.15 405.625 404.48 405.915C407.23 408.355 417.59 406.095 427.62 403.905C434.46 402.415 441.53 400.875 447.36 400.465C447.86 400.435 448.29 400.805 448.33 401.305C448.34 401.525 448.27 401.735 448.15 401.895Z" fill="url(#paint51_linear)"/>
<path d="M561.88 392.635C561.23 391.735 560.23 391.155 559.14 391.005C542.76 388.795 496.07 380.825 485.78 380.065C484.48 379.965 480.87 379.965 479.19 380.175C465.32 381.955 440.17 394.535 440.17 394.535C432.49 396.875 435.78 401.215 435.78 401.215L461.52 429.345C462.23 430.115 463 430.845 463.85 431.455C467.42 434.035 470.54 434.295 472.89 435.015L549.26 448.895C551.41 449.155 553.38 447.695 553.76 445.565L562.59 395.745C562.79 394.655 562.53 393.535 561.88 392.635ZM454.05 407.935C451.1 409.155 447.71 407.745 446.49 404.795C445.27 401.845 446.68 398.455 449.63 397.235C452.58 396.015 455.97 397.425 457.19 400.375C458.41 403.335 457 406.715 454.05 407.935Z" fill="url(#paint52_linear)"/>
<path d="M448.15 401.895C448.05 402.035 447.9 402.155 447.72 402.225C447.25 402.395 446.73 402.145 446.56 401.675C445.53 398.775 439.11 396.425 430.59 395.845C420.31 395.145 407.8 397.205 404.61 403.395C404.39 403.845 403.83 404.015 403.39 403.785C402.94 403.555 402.77 403.005 403 402.565C406.57 395.615 419.51 393.265 430.72 394.035C438.19 394.545 446.72 396.665 448.28 401.065C448.37 401.355 448.32 401.665 448.15 401.895Z" fill="url(#paint53_linear)"/>
<path d="M523.16 406.665C524.12 404.255 525.21 402.625 526.43 401.775C527.66 400.925 529.3 400.675 531.37 401.035C532.99 401.315 534.1 401.815 534.71 402.535C535.32 403.255 535.51 404.275 535.28 405.615C535.14 406.445 534.83 407.445 534.36 408.615C533.38 411.015 532.28 412.645 531.07 413.505C529.86 414.365 528.2 414.605 526.11 414.245C524.52 413.965 523.41 413.475 522.8 412.755C522.19 412.035 522 411.015 522.23 409.675C522.38 408.835 522.69 407.835 523.16 406.665ZM521.49 425.865L542.73 403.005L546.66 403.685L525.42 426.545L521.49 425.865ZM527.52 407.425C526.96 408.825 526.63 409.785 526.54 410.305C526.42 410.995 526.65 411.385 527.22 411.485C527.74 411.575 528.18 411.385 528.53 410.925C528.88 410.455 529.38 409.435 530.02 407.855C530.58 406.455 530.91 405.495 531 404.975C531.12 404.285 530.88 403.885 530.29 403.785C529.79 403.695 529.36 403.885 529 404.355C528.62 404.815 528.13 405.835 527.52 407.425ZM533.85 420.945C534.81 418.535 535.9 416.905 537.12 416.055C538.35 415.205 540.01 414.955 542.1 415.315C543.69 415.595 544.8 416.085 545.41 416.805C546.02 417.525 546.21 418.545 545.98 419.885C545.84 420.715 545.53 421.715 545.06 422.885C544.08 425.285 542.98 426.915 541.77 427.775C540.56 428.635 538.9 428.875 536.81 428.515C535.22 428.235 534.11 427.745 533.5 427.025C532.89 426.305 532.7 425.285 532.93 423.945C533.07 423.115 533.37 422.115 533.85 420.945ZM538.2 421.705C537.64 423.105 537.31 424.065 537.22 424.585C537.1 425.275 537.33 425.665 537.9 425.765C538.42 425.855 538.86 425.665 539.21 425.205C539.56 424.735 540.06 423.715 540.7 422.135C541.26 420.735 541.59 419.775 541.68 419.255C541.8 418.565 541.57 418.175 541 418.075C540.48 417.985 540.04 418.175 539.69 418.635C539.34 419.095 538.84 420.125 538.2 421.705Z" fill="white"/>
<path d="M69.4048 456.949C68.153 453.51 64.6718 450.846 59.7167 452.65C55.2937 454.26 53.6177 457.701 54.8691 462.601L55.0555 463.332L60.4835 461.997L60.2642 461.26C59.5048 458.71 60.4214 457.996 61.4187 457.633C62.7747 457.139 63.7397 457.652 64.2874 459.157C65.89 463.56 58.0375 470.227 60.1887 478.662L60.3942 479.468L75.5882 473.938L73.5986 468.472L66.3831 471.098C67.6469 467.46 71.4569 462.587 69.4048 456.949Z" fill="white"/>
<path d="M496.873 409.563C498.758 408.787 499.953 407.49 500.434 405.693C501.284 402.521 499.376 398.442 494.69 397.186C487.383 395.228 485.119 401.99 484.873 402.267L490.104 404.642C490.242 404.438 490.882 401.527 493.225 402.154C495.334 402.72 494.799 405.035 493.642 405.708C492.828 406.182 492.458 405.972 490.438 405.603L488.328 410.603C489.049 410.619 490.3 410.517 491.329 410.793C492.508 411.109 493.467 412.293 492.95 414.225C492.392 416.305 490.874 416.896 489.616 416.559C486.942 415.842 487.881 412.733 487.86 412.506L482.066 411.667C482.1 411.829 480.184 419.426 488.299 421.6C492.997 422.859 497.608 420.365 498.782 415.985C499.448 413.499 498.705 411.12 496.873 409.563Z" fill="white"/>
<path d="M511.034 422.772L517.474 398.74L512.778 397.482L512.486 397.903C511.713 399.019 510.582 399.895 509.126 400.509C507.619 401.146 506.281 401.5 505.148 401.561L504.62 401.59L503.176 406.977L504.184 406.919C506.046 406.814 507.817 406.42 509.469 405.747L505.318 421.24L511.034 422.772Z" fill="white"/>
<path d="M466 405.26L467.78 402L478.92 403.93L477.14 407.19L466 405.26Z" fill="white"/>
<defs>
<filter id="filter0_d" x="637.951" y="531.556" width="205.141" height="29.062" filterUnits="userSpaceOnUse" color-interpolation-filters="sRGB">
<feFlood flood-opacity="0" result="BackgroundImageFix"/>
<feColorMatrix in="SourceAlpha" type="matrix" values="0 0 0 0 0 0 0 0 0 0 0 0 0 0 0 0 0 0 127 0"/>
<feOffset dy="4"/>
<feGaussianBlur stdDeviation="2"/>
<feColorMatrix type="matrix" values="0 0 0 0 0 0 0 0 0 0 0 0 0 0 0 0 0 0 0.25 0"/>
<feBlend mode="normal" in2="BackgroundImageFix" result="effect1_dropShadow"/>
<feBlend mode="normal" in="SourceGraphic" in2="effect1_dropShadow" result="shape"/>
</filter>
<linearGradient id="paint0_linear" x1="719.31" y1="393.597" x2="1105.46" y2="8.26703" gradientUnits="userSpaceOnUse">
<stop stop-color="#FFDC2E"/>
<stop offset="0.0902" stop-color="#FFE359"/>
<stop offset="0.1987" stop-color="#FFEA84"/>
<stop offset="0.3124" stop-color="#FFF1AA"/>
<stop offset="0.4299" stop-color="#FFF6C9"/>
<stop offset="0.5524" stop-color="#FFFAE1"/>
<stop offset="0.682" stop-color="#FFFDF2"/>
<stop offset="0.8237" stop-color="#FFFEFC"/>
<stop offset="1" stop-color="white"/>
</linearGradient>
<linearGradient id="paint1_linear" x1="517.591" y1="590.417" x2="517.591" y2="685.481" gradientUnits="userSpaceOnUse">
<stop stop-color="#B3FFFF"/>
<stop offset="0.069" stop-color="#BDFFFF"/>
<stop offset="0.3065" stop-color="#DAFFFF"/>
<stop offset="0.5428" stop-color="#EEFFFF"/>
<stop offset="0.7755" stop-color="#FBFFFF"/>
<stop offset="1" stop-color="white"/>
</linearGradient>
<linearGradient id="paint2_linear" x1="577.718" y1="528.128" x2="577.718" y2="585.976" gradientUnits="userSpaceOnUse">
<stop stop-color="#B3FFFF"/>
<stop offset="0.069" stop-color="#BDFFFF"/>
<stop offset="0.3065" stop-color="#DAFFFF"/>
<stop offset="0.5428" stop-color="#EEFFFF"/>
<stop offset="0.7755" stop-color="#FBFFFF"/>
<stop offset="1" stop-color="white"/>
</linearGradient>
<linearGradient id="paint3_linear" x1="745.078" y1="482.581" x2="745.078" y2="510.848" gradientUnits="userSpaceOnUse">
<stop stop-color="#B3FFFF"/>
<stop offset="0.069" stop-color="#BDFFFF"/>
<stop offset="0.3065" stop-color="#DAFFFF"/>
<stop offset="0.5428" stop-color="#EEFFFF"/>
<stop offset="0.7755" stop-color="#FBFFFF"/>
<stop offset="1" stop-color="white"/>
</linearGradient>
<linearGradient id="paint4_linear" x1="515.826" y1="544.202" x2="515.826" y2="586.274" gradientUnits="userSpaceOnUse">
<stop stop-color="#B3FFFF"/>
<stop offset="0.069" stop-color="#BDFFFF"/>
<stop offset="0.3065" stop-color="#DAFFFF"/>
<stop offset="0.5428" stop-color="#EEFFFF"/>
<stop offset="0.7755" stop-color="#FBFFFF"/>
<stop offset="1" stop-color="white"/>
</linearGradient>
<linearGradient id="paint5_linear" x1="899.566" y1="451.73" x2="899.566" y2="523.468" gradientUnits="userSpaceOnUse">
<stop stop-color="#B3FFFF"/>
<stop offset="0.069" stop-color="#BDFFFF"/>
<stop offset="0.3065" stop-color="#DAFFFF"/>
<stop offset="0.5428" stop-color="#EEFFFF"/>
<stop offset="0.7755" stop-color="#FBFFFF"/>
<stop offset="1" stop-color="white"/>
</linearGradient>
<linearGradient id="paint6_linear" x1="333.206" y1="606.693" x2="179.27" y2="473.233" gradientUnits="userSpaceOnUse">
<stop stop-color="#0A72B9"/>
<stop offset="0.2788" stop-color="#0A72B9"/>
<stop offset="0.7727" stop-color="#0C4D86"/>
<stop offset="1" stop-color="#0C4D86"/>
</linearGradient>
<linearGradient id="paint7_linear" x1="133.111" y1="424.61" x2="32.0128" y2="482.979" gradientUnits="userSpaceOnUse">
<stop stop-color="#0A72B9"/>
<stop offset="0.2788" stop-color="#0A72B9"/>
<stop offset="0.7727" stop-color="#0C4D86"/>
<stop offset="1" stop-color="#0C4D86"/>
</linearGradient>
<linearGradient id="paint8_linear" x1="332.771" y1="607.193" x2="178.836" y2="473.735" gradientUnits="userSpaceOnUse">
<stop stop-color="#0A72B9"/>
<stop offset="0.2788" stop-color="#0A72B9"/>
<stop offset="0.7727" stop-color="#0C4D86"/>
<stop offset="1" stop-color="#0C4D86"/>
</linearGradient>
<linearGradient id="paint9_linear" x1="239.984" y1="368.925" x2="64.9955" y2="368.925" gradientUnits="userSpaceOnUse">
<stop stop-color="#46AE4D"/>
<stop offset="0.262" stop-color="#46AE4D"/>
<stop offset="0.7615" stop-color="#009045"/>
<stop offset="1" stop-color="#009045"/>
</linearGradient>
<linearGradient id="paint10_linear" x1="102.529" y1="343.644" x2="88.4699" y2="343.644" gradientUnits="userSpaceOnUse">
<stop offset="0.2788" stop-color="white"/>
<stop offset="1" stop-color="#9FD8F0"/>
</linearGradient>
<linearGradient id="paint11_linear" x1="95.9835" y1="340.45" x2="81.7817" y2="340.45" gradientUnits="userSpaceOnUse">
<stop offset="0.2788" stop-color="white"/>
<stop offset="1" stop-color="#9FD8F0"/>
</linearGradient>
<linearGradient id="paint12_linear" x1="192.908" y1="337.553" x2="78.2762" y2="351.215" gradientUnits="userSpaceOnUse">
<stop offset="0.2788" stop-color="white"/>
<stop offset="1" stop-color="#9FD8F0"/>
</linearGradient>
<linearGradient id="paint13_linear" x1="211.112" y1="393.071" x2="198.483" y2="396.14" gradientUnits="userSpaceOnUse">
<stop stop-color="#0A72B9"/>
<stop offset="0.2788" stop-color="#0A72B9"/>
<stop offset="0.7727" stop-color="#0C4D86"/>
<stop offset="1" stop-color="#0C4D86"/>
</linearGradient>
<linearGradient id="paint14_linear" x1="208.571" y1="382.618" x2="195.943" y2="385.686" gradientUnits="userSpaceOnUse">
<stop stop-color="#0A72B9"/>
<stop offset="0.2788" stop-color="#0A72B9"/>
<stop offset="0.7727" stop-color="#0C4D86"/>
<stop offset="1" stop-color="#0C4D86"/>
</linearGradient>
<linearGradient id="paint15_linear" x1="271.986" y1="445.428" x2="446.567" y2="445.428" gradientUnits="userSpaceOnUse">
<stop stop-color="#0A72B9"/>
<stop offset="0.2788" stop-color="#0A72B9"/>
<stop offset="0.7727" stop-color="#0C4D86"/>
<stop offset="1" stop-color="#0C4D86"/>
</linearGradient>
<linearGradient id="paint16_linear" x1="409.121" y1="420.912" x2="423.147" y2="420.912" gradientUnits="userSpaceOnUse">
<stop offset="0.2788" stop-color="white"/>
<stop offset="1" stop-color="#9FD8F0"/>
</linearGradient>
<linearGradient id="paint17_linear" x1="415.651" y1="417.814" x2="429.82" y2="417.814" gradientUnits="userSpaceOnUse">
<stop offset="0.2788" stop-color="white"/>
<stop offset="1" stop-color="#9FD8F0"/>
</linearGradient>
<linearGradient id="paint18_linear" x1="318.953" y1="415.006" x2="433.224" y2="429.018" gradientUnits="userSpaceOnUse">
<stop offset="0.2788" stop-color="white"/>
<stop offset="1" stop-color="#9FD8F0"/>
</linearGradient>
<linearGradient id="paint19_linear" x1="984.846" y1="620.023" x2="984.846" y2="682.074" gradientUnits="userSpaceOnUse">
<stop stop-color="#00E35E"/>
<stop offset="1" stop-color="#00B248"/>
</linearGradient>
<linearGradient id="paint20_linear" x1="1001.89" y1="596.918" x2="1001.89" y2="681.976" gradientUnits="userSpaceOnUse">
<stop stop-color="#00E35E"/>
<stop offset="1" stop-color="#00A332"/>
</linearGradient>
<linearGradient id="paint21_linear" x1="1014.32" y1="641.046" x2="1014.32" y2="682.485" gradientUnits="userSpaceOnUse">
<stop stop-color="#00E35E"/>
<stop offset="1" stop-color="#00B248"/>
</linearGradient>
<linearGradient id="paint22_linear" x1="1006.66" y1="641.25" x2="1006.66" y2="681.871" gradientUnits="userSpaceOnUse">
<stop stop-color="#304F26" stop-opacity="0"/>
<stop offset="0.2844" stop-color="#2C4D23" stop-opacity="0.0569"/>
<stop offset="0.579" stop-color="#1F4719" stop-opacity="0.1158"/>
<stop offset="0.8773" stop-color="#0B3E09" stop-opacity="0.1755"/>
<stop offset="1" stop-color="#003900" stop-opacity="0.2"/>
</linearGradient>
<linearGradient id="paint23_linear" x1="948.853" y1="575.422" x2="938.079" y2="514.314" gradientUnits="userSpaceOnUse">
<stop stop-color="#B6DD54"/>
<stop offset="0.143" stop-color="#B2DC54"/>
<stop offset="0.292" stop-color="#A5D753"/>
<stop offset="0.443" stop-color="#91D051"/>
<stop offset="0.595" stop-color="#74C64F"/>
<stop offset="0.749" stop-color="#4EB94D"/>
<stop offset="0.902" stop-color="#21A949"/>
<stop offset="1" stop-color="#009E47"/>
</linearGradient>
<linearGradient id="paint24_linear" x1="990.753" y1="628.08" x2="1052.8" y2="628.08" gradientUnits="userSpaceOnUse">
<stop stop-color="#B6DD54"/>
<stop offset="0.143" stop-color="#B2DC54"/>
<stop offset="0.292" stop-color="#A5D753"/>
<stop offset="0.443" stop-color="#91D051"/>
<stop offset="0.595" stop-color="#74C64F"/>
<stop offset="0.749" stop-color="#4EB94D"/>
<stop offset="0.902" stop-color="#21A949"/>
<stop offset="1" stop-color="#009E47"/>
</linearGradient>
<linearGradient id="paint25_linear" x1="908.224" y1="613.412" x2="938.751" y2="638.435" gradientUnits="userSpaceOnUse">
<stop stop-color="#302926" stop-opacity="0"/>
<stop offset="0.388" stop-color="#2D2724" stop-opacity="0.027"/>
<stop offset="0.621" stop-color="#25201D" stop-opacity="0.043"/>
<stop offset="0.812" stop-color="#171412" stop-opacity="0.059"/>
<stop offset="0.981" stop-color="#030202" stop-opacity="0.071"/>
<stop offset="1" stop-opacity="0.071"/>
</linearGradient>
<linearGradient id="paint26_linear" x1="933.174" y1="590.921" x2="972.48" y2="624.767" gradientUnits="userSpaceOnUse">
<stop stop-color="#B6DD54"/>
<stop offset="1" stop-color="#009E47"/>
</linearGradient>
<linearGradient id="paint27_linear" x1="988.586" y1="600.854" x2="974.01" y2="631.149" gradientUnits="userSpaceOnUse">
<stop stop-color="#302926" stop-opacity="0"/>
<stop offset="0.388" stop-color="#2D2724" stop-opacity="0.027"/>
<stop offset="0.621" stop-color="#25201D" stop-opacity="0.043"/>
<stop offset="0.812" stop-color="#171412" stop-opacity="0.059"/>
<stop offset="0.981" stop-color="#030202" stop-opacity="0.071"/>
<stop offset="1" stop-opacity="0.071"/>
</linearGradient>
<linearGradient id="paint28_linear" x1="985.575" y1="688.791" x2="973.461" y2="688.791" gradientUnits="userSpaceOnUse">
<stop stop-color="#B16464"/>
<stop offset="0.59" stop-color="#9C6764"/>
<stop offset="1" stop-color="#936864"/>
</linearGradient>
<linearGradient id="paint29_linear" x1="923.725" y1="575.421" x2="912.95" y2="514.313" gradientUnits="userSpaceOnUse">
<stop stop-color="#B6DD54"/>
<stop offset="0.143" stop-color="#B2DC54"/>
<stop offset="0.292" stop-color="#A5D753"/>
<stop offset="0.443" stop-color="#91D051"/>
<stop offset="0.595" stop-color="#74C64F"/>
<stop offset="0.749" stop-color="#4EB94D"/>
<stop offset="0.902" stop-color="#21A949"/>
<stop offset="1" stop-color="#009E47"/>
</linearGradient>
<linearGradient id="paint30_linear" x1="965.624" y1="628.079" x2="1027.67" y2="628.079" gradientUnits="userSpaceOnUse">
<stop stop-color="#B6DD54"/>
<stop offset="0.143" stop-color="#B2DC54"/>
<stop offset="0.292" stop-color="#A5D753"/>
<stop offset="0.443" stop-color="#91D051"/>
<stop offset="0.595" stop-color="#74C64F"/>
<stop offset="0.749" stop-color="#4EB94D"/>
<stop offset="0.902" stop-color="#21A949"/>
<stop offset="1" stop-color="#009E47"/>
</linearGradient>
<linearGradient id="paint31_linear" x1="883.096" y1="613.412" x2="913.623" y2="638.434" gradientUnits="userSpaceOnUse">
<stop stop-color="#302926" stop-opacity="0"/>
<stop offset="0.388" stop-color="#2D2724" stop-opacity="0.027"/>
<stop offset="0.621" stop-color="#25201D" stop-opacity="0.043"/>
<stop offset="0.812" stop-color="#171412" stop-opacity="0.059"/>
<stop offset="0.981" stop-color="#030202" stop-opacity="0.071"/>
<stop offset="1" stop-opacity="0.071"/>
</linearGradient>
<linearGradient id="paint32_linear" x1="908.045" y1="590.919" x2="947.351" y2="624.765" gradientUnits="userSpaceOnUse">
<stop stop-color="#B6DD54"/>
<stop offset="1" stop-color="#009E47"/>
</linearGradient>
<linearGradient id="paint33_linear" x1="963.457" y1="600.853" x2="948.882" y2="631.148" gradientUnits="userSpaceOnUse">
<stop stop-color="#302926" stop-opacity="0"/>
<stop offset="0.388" stop-color="#2D2724" stop-opacity="0.027"/>
<stop offset="0.621" stop-color="#25201D" stop-opacity="0.043"/>
<stop offset="0.812" stop-color="#171412" stop-opacity="0.059"/>
<stop offset="0.981" stop-color="#030202" stop-opacity="0.071"/>
<stop offset="1" stop-opacity="0.071"/>
</linearGradient>
<linearGradient id="paint34_linear" x1="960.446" y1="688.789" x2="948.332" y2="688.789" gradientUnits="userSpaceOnUse">
<stop stop-color="#B16464"/>
<stop offset="0.59" stop-color="#9C6764"/>
<stop offset="1" stop-color="#936864"/>
</linearGradient>
<linearGradient id="paint35_linear" x1="888.304" y1="574.726" x2="877.529" y2="513.618" gradientUnits="userSpaceOnUse">
<stop stop-color="#B6DD54"/>
<stop offset="0.143" stop-color="#B2DC54"/>
<stop offset="0.292" stop-color="#A5D753"/>
<stop offset="0.443" stop-color="#91D051"/>
<stop offset="0.595" stop-color="#74C64F"/>
<stop offset="0.749" stop-color="#4EB94D"/>
<stop offset="0.902" stop-color="#21A949"/>
<stop offset="1" stop-color="#009E47"/>
</linearGradient>
<linearGradient id="paint36_linear" x1="930.203" y1="627.384" x2="992.253" y2="627.384" gradientUnits="userSpaceOnUse">
<stop stop-color="#B6DD54"/>
<stop offset="0.143" stop-color="#B2DC54"/>
<stop offset="0.292" stop-color="#A5D753"/>
<stop offset="0.443" stop-color="#91D051"/>
<stop offset="0.595" stop-color="#74C64F"/>
<stop offset="0.749" stop-color="#4EB94D"/>
<stop offset="0.902" stop-color="#21A949"/>
<stop offset="1" stop-color="#009E47"/>
</linearGradient>
<linearGradient id="paint37_linear" x1="847.674" y1="612.717" x2="878.202" y2="637.74" gradientUnits="userSpaceOnUse">
<stop stop-color="#302926" stop-opacity="0"/>
<stop offset="0.388" stop-color="#2D2724" stop-opacity="0.027"/>
<stop offset="0.621" stop-color="#25201D" stop-opacity="0.043"/>
<stop offset="0.812" stop-color="#171412" stop-opacity="0.059"/>
<stop offset="0.981" stop-color="#030202" stop-opacity="0.071"/>
<stop offset="1" stop-opacity="0.071"/>
</linearGradient>
<linearGradient id="paint38_linear" x1="872.624" y1="590.224" x2="911.93" y2="624.07" gradientUnits="userSpaceOnUse">
<stop stop-color="#B6DD54"/>
<stop offset="1" stop-color="#009E47"/>
</linearGradient>
<linearGradient id="paint39_linear" x1="928.036" y1="600.158" x2="913.461" y2="630.453" gradientUnits="userSpaceOnUse">
<stop stop-color="#302926" stop-opacity="0"/>
<stop offset="0.388" stop-color="#2D2724" stop-opacity="0.027"/>
<stop offset="0.621" stop-color="#25201D" stop-opacity="0.043"/>
<stop offset="0.812" stop-color="#171412" stop-opacity="0.059"/>
<stop offset="0.981" stop-color="#030202" stop-opacity="0.071"/>
<stop offset="1" stop-opacity="0.071"/>
</linearGradient>
<linearGradient id="paint40_linear" x1="925.025" y1="688.095" x2="912.911" y2="688.095" gradientUnits="userSpaceOnUse">
<stop stop-color="#B16464"/>
<stop offset="0.59" stop-color="#9C6764"/>
<stop offset="1" stop-color="#936864"/>
</linearGradient>
<linearGradient id="paint41_linear" x1="108.005" y1="538.5" x2="169.999" y2="538.5" gradientUnits="userSpaceOnUse">
<stop stop-color="#EB5B2D"/>
<stop offset="1" stop-color="#BF292E"/>
</linearGradient>
<linearGradient id="paint42_linear" x1="192.434" y1="220.883" x2="277.983" y2="481.965" gradientUnits="userSpaceOnUse">
<stop stop-color="#0A72B9"/>
<stop offset="0.2788" stop-color="#0A72B9"/>
<stop offset="0.7727" stop-color="#0C4D86"/>
<stop offset="1" stop-color="#0C4D86"/>
</linearGradient>
<linearGradient id="paint43_linear" x1="308.001" y1="566.502" x2="472.009" y2="566.502" gradientUnits="userSpaceOnUse">
<stop stop-color="#0A72B9"/>
<stop offset="0.2788" stop-color="#0A72B9"/>
<stop offset="0.7727" stop-color="#0C4D86"/>
<stop offset="1" stop-color="#0C4D86"/>
</linearGradient>
<linearGradient id="paint44_linear" x1="192.943" y1="226.968" x2="275.561" y2="484.42" gradientUnits="userSpaceOnUse">
<stop stop-color="#0A72B9"/>
<stop offset="0.2788" stop-color="#0A72B9"/>
<stop offset="0.7727" stop-color="#0C4D86"/>
<stop offset="1" stop-color="#0C4D86"/>
</linearGradient>
<linearGradient id="paint45_linear" x1="75.9972" y1="599.505" x2="305.998" y2="599.505" gradientUnits="userSpaceOnUse">
<stop stop-color="#F39121"/>
<stop offset="0.2718" stop-color="#F39121"/>
<stop offset="0.9643" stop-color="#F8AE3C"/>
<stop offset="1" stop-color="#F8AE3C"/>
</linearGradient>
<linearGradient id="paint46_linear" x1="257.006" y1="565.499" x2="276.01" y2="565.499" gradientUnits="userSpaceOnUse">
<stop offset="0.2788" stop-color="white"/>
<stop offset="1" stop-color="#9FD8F0"/>
</linearGradient>
<linearGradient id="paint47_linear" x1="265.996" y1="561.5" x2="284.99" y2="561.5" gradientUnits="userSpaceOnUse">
<stop offset="0.2788" stop-color="white"/>
<stop offset="1" stop-color="#9FD8F0"/>
</linearGradient>
<linearGradient id="paint48_linear" x1="138.42" y1="558.128" x2="288.742" y2="575.698" gradientUnits="userSpaceOnUse">
<stop offset="0.2788" stop-color="white"/>
<stop offset="1" stop-color="#9FD8F0"/>
</linearGradient>
<linearGradient id="paint49_linear" x1="114.007" y1="630.729" x2="130.632" y2="634.769" gradientUnits="userSpaceOnUse">
<stop stop-color="#0A72B9"/>
<stop offset="0.2788" stop-color="#0A72B9"/>
<stop offset="0.7727" stop-color="#0C4D86"/>
<stop offset="1" stop-color="#0C4D86"/>
</linearGradient>
<linearGradient id="paint50_linear" x1="117.351" y1="616.966" x2="133.976" y2="621.006" gradientUnits="userSpaceOnUse">
<stop stop-color="#0A72B9"/>
<stop offset="0.2788" stop-color="#0A72B9"/>
<stop offset="0.7727" stop-color="#0C4D86"/>
<stop offset="1" stop-color="#0C4D86"/>
</linearGradient>
<linearGradient id="paint51_linear" x1="345.194" y1="153.51" x2="408.608" y2="351.458" gradientUnits="userSpaceOnUse">
<stop stop-color="#0A72B9"/>
<stop offset="0.2788" stop-color="#0A72B9"/>
<stop offset="0.7727" stop-color="#0C4D86"/>
<stop offset="1" stop-color="#0C4D86"/>
</linearGradient>
<linearGradient id="paint52_linear" x1="435.08" y1="414.464" x2="562.662" y2="414.464" gradientUnits="userSpaceOnUse">
<stop stop-color="#0A72B9"/>
<stop offset="0.2788" stop-color="#0A72B9"/>
<stop offset="0.7727" stop-color="#0C4D86"/>
<stop offset="1" stop-color="#0C4D86"/>
</linearGradient>
<linearGradient id="paint53_linear" x1="345.878" y1="153.291" x2="409.292" y2="351.238" gradientUnits="userSpaceOnUse">
<stop stop-color="#0A72B9"/>
<stop offset="0.2788" stop-color="#0A72B9"/>
<stop offset="0.7727" stop-color="#0C4D86"/>
<stop offset="1" stop-color="#0C4D86"/>
</linearGradient>
</defs>
</svg>
