<svg width="1406" height="348" viewBox="0 0 1406 348" fill="none" xmlns="http://www.w3.org/2000/svg">
<rect width="1406" height="348" fill="#E5E5E5"/>
<rect width="1400" height="350" fill="#54A3FF"/>
<path opacity="0.05" d="M226 118C244.778 118 260 102.778 260 84C260 65.2223 244.778 50 226 50C207.222 50 192 65.2223 192 84C192 102.778 207.222 118 226 118Z" fill="white" stroke="white" stroke-width="2"/>
<path opacity="0.05" d="M1300.5 163C1426.14 163 1528 89.3508 1528 -1.5C1528 -92.3508 1426.14 -166 1300.5 -166C1174.86 -166 1073 -92.3508 1073 -1.5C1073 89.3508 1174.86 163 1300.5 163Z" fill="white" stroke="white" stroke-width="2"/>
<path opacity="0.05" d="M785 93C854.588 93 911 45.3183 911 -13.5C911 -72.3183 854.588 -120 785 -120C715.412 -120 659 -72.3183 659 -13.5C659 45.3183 715.412 93 785 93Z" fill="white" stroke="white" stroke-width="2"/>
<path d="M1369.5 -152C1239.44 -152 1134 -46.3392 1134 84C1134 214.339 1239.44 320 1369.5 320C1499.56 320 1605 214.339 1605 84C1605 -46.3392 1499.56 -152 1369.5 -152Z" fill="url(#paint0_linear)"/>
<path d="M897.041 349.924L888.765 262.648H945.706V349.924H897.041Z" fill="url(#paint1_linear)" stroke="#968F8F"/>
<path d="M1005.49 200.291L944.273 202.224V258.927H1005.49V200.291Z" fill="url(#paint2_linear)"/>
<path d="M1258.07 186.759V148.42L1126.62 158.086L996.775 181.927L993.244 199.002L1258.07 186.759Z" fill="url(#paint3_linear)"/>
<path d="M888.715 258.426V220.086L941.196 216.292V258.426H888.715Z" fill="url(#paint4_linear)" stroke="#968F8F"/>
<path d="M1008.06 201.278L1259.36 191.27V349.755L1008.06 350.424V201.278Z" fill="#C4C4C4"/>
<path d="M1259.36 191.27L1367.61 207.378L1362.13 350.424L1259.36 349.754V191.27Z" fill="#CCCCCC"/>
<path d="M1011.29 220.05L1255.49 216.077V220.909L1011.29 223.487V220.05Z" fill="#9C9A9A"/>
<path d="M1011.29 227.783L1255.49 223.809V228.642L1011.29 231.219V227.783Z" fill="#9C9A9A"/>
<path d="M1011.29 203.727L1255.49 197.499V204.586L1011.29 207.164V203.727Z" fill="#9C9A9A"/>
<path d="M1011.29 211.674L1255.49 207.7V212.533L1011.29 215.11V211.674Z" fill="#9C9A9A"/>
<path d="M1011.29 235.515L1255.49 231.542V236.374L1011.29 238.952V235.515Z" fill="#9C9A9A"/>
<path d="M1011.29 243.247L1255.49 239.274V244.107L1011.29 246.684V243.247Z" fill="#9C9A9A"/>
<path d="M1011.29 250.979L1255.49 247.005V251.838L1011.29 254.415V250.979Z" fill="#9C9A9A"/>
<path d="M1011.29 258.712L1255.49 254.738V259.571L1011.29 262.148V258.712Z" fill="#9C9A9A"/>
<path d="M1011.29 266.444L1255.49 262.47V267.303L1011.29 269.88V266.444Z" fill="#9C9A9A"/>
<path d="M1011.29 274.176L1255.49 270.202V275.035L1011.29 277.612V274.176Z" fill="#9C9A9A"/>
<path d="M1011.29 281.908L1255.49 277.935V282.767L1011.29 285.345V281.908Z" fill="#9C9A9A"/>
<path d="M1011.29 290.929L1255.49 286.956V291.788L1011.29 294.366V290.929Z" fill="#9C9A9A"/>
<path d="M1011.29 298.661L1255.49 294.688V299.52L1011.29 302.098V298.661Z" fill="#9C9A9A"/>
<path d="M1011.29 306.393L1255.49 302.42V307.253L1011.29 309.83V306.393Z" fill="#9C9A9A"/>
<path d="M1011.29 314.125L1255.49 310.152V314.984L1011.29 317.562V314.125Z" fill="#9C9A9A"/>
<path d="M1011.29 321.857L1255.49 317.884V322.716L1011.29 325.294V321.857Z" fill="#9C9A9A"/>
<path d="M1011.29 329.589L1255.49 325.615V330.448L1011.29 333.025V329.589Z" fill="#9C9A9A"/>
<path d="M1011.29 337.321L1255.49 333.348V338.18L1011.29 340.758V337.321Z" fill="#9C9A9A"/>
<path d="M1011.29 345.053L1255.49 341.08V345.912L1011.29 348.49V345.053Z" fill="#9C9A9A"/>
<path d="M1262.58 191.767L1266.13 192.31L1264.9 347.847H1262.58V191.767Z" fill="#B7B7B7"/>
<path d="M1267.74 192.558L1271.28 193.1L1270.06 348.491H1267.74V192.558Z" fill="#B7B7B7"/>
<path d="M1272.89 193.203L1276.44 193.743L1275.21 348.491H1272.89V193.203Z" fill="#B7B7B7"/>
<path d="M1278.05 193.847L1281.27 194.385L1280.15 348.491H1278.05V193.847Z" fill="#B7B7B7"/>
<path d="M1282.56 194.492L1285.78 195.027L1284.66 348.491H1282.56V194.492Z" fill="#B7B7B7"/>
<path d="M1287.07 195.135L1290.29 195.668L1289.17 348.49H1287.07V195.135Z" fill="#B7B7B7"/>
<path d="M1291.58 195.78L1294.15 196.311L1293.26 348.49H1291.58V195.78Z" fill="#B7B7B7"/>
<path d="M1295.44 196.424L1298.02 196.953L1297.13 348.491H1295.44V196.424Z" fill="#B7B7B7"/>
<path d="M1299.31 197.069L1301.89 197.598L1301 349.135H1299.31V197.069Z" fill="#B7B7B7"/>
<path d="M1303.18 197.713L1305.75 198.24L1304.86 349.135H1303.18V197.713Z" fill="#B7B7B7"/>
<path d="M1307.04 198.357L1309.62 198.882L1308.73 349.135H1307.04V198.357Z" fill="#B7B7B7"/>
<path d="M1310.91 199.002L1312.84 199.36L1312.17 349.135H1310.91V199.002Z" fill="#B7B7B7"/>
<path d="M1314.13 199.646L1316.06 200.003L1315.39 349.135H1314.13V199.646Z" fill="#B7B7B7"/>
<path d="M1320.57 200.935L1322.51 201.289L1321.84 349.135H1320.57V200.935Z" fill="#B7B7B7"/>
<path d="M1317.35 200.291L1319.28 200.646L1318.62 349.136H1317.35V200.291Z" fill="#B7B7B7"/>
<path d="M1323.79 201.579L1325.73 201.931L1325.06 349.135H1323.79V201.579Z" fill="#B7B7B7"/>
<path d="M1327.02 201.579L1328.95 201.933L1328.28 349.779H1327.02V201.579Z" fill="#B7B7B7"/>
<path d="M1333.46 202.868L1335.39 203.219L1334.72 349.78H1333.46V202.868Z" fill="#B7B7B7"/>
<path d="M1336.68 203.513L1337.97 203.758L1337.36 349.78H1336.68V203.513Z" fill="#B7B7B7"/>
<path d="M1339.26 203.513L1340.55 203.758L1339.93 349.78H1339.26V203.513Z" fill="#B7B7B7"/>
<path d="M1341.84 204.156L1343.13 204.4L1342.51 349.779H1341.84V204.156Z" fill="#B7B7B7"/>
<path d="M1344.41 204.156L1345.7 204.4L1345.09 349.779H1344.41V204.156Z" fill="#B7B7B7"/>
<path d="M1346.99 204.801L1348.28 205.044L1347.67 349.779H1346.99V204.801Z" fill="#B7B7B7"/>
<path d="M1349.57 205.445L1350.86 205.687L1350.24 349.779H1349.57V205.445Z" fill="#B7B7B7"/>
<path d="M1352.15 205.445L1353.43 205.687L1352.82 349.779H1352.15V205.445Z" fill="#B7B7B7"/>
<path d="M1354.72 206.09L1356.01 206.332L1355.4 350.424H1354.72V206.09Z" fill="#B7B7B7"/>
<path d="M1357.3 206.09L1358.59 206.332L1357.98 350.424H1357.3V206.09Z" fill="#B7B7B7"/>
<path d="M1359.88 206.734L1361.81 207.379L1360.25 350.424H1359.88V206.734Z" fill="#B7B7B7"/>
<path d="M1330.24 202.224L1332.17 202.576L1331.5 349.779H1330.24V202.224Z" fill="#B7B7B7"/>
<path d="M1046.22 263.231V349.924H1017.58V259.496L1046.22 263.231Z" fill="#E6E6E6" stroke="#968F8F"/>
<path d="M1319.61 198.68L1258.72 148.743V186.462L1319.61 198.68Z" fill="url(#paint5_linear)"/>
<rect x="942.196" y="261.648" width="45.3931" height="2.22174" transform="rotate(-90 942.196 261.648)" fill="#C4C4C4" stroke="#968F8F"/>
<rect x="1258.2" y="191.341" width="45.3931" height="2.22174" transform="rotate(-90 1258.2 191.341)" fill="#C4C4C4" stroke="#968F8F"/>
<path d="M1005.34 259.715V199.502H1007.56V259.715H1005.34Z" fill="#C4C4C4" stroke="#968F8F"/>
<rect x="888.715" y="259.426" width="118.849" height="2.22174" fill="#C4C4C4" stroke="#968F8F"/>
<path d="M987.3 201.705V199.48L1258.22 187.283V191.755L987.3 201.705Z" fill="#C4C4C4" stroke="#968F8F"/>
<path d="M1259.22 191.705V187.353L1346.48 202.419L1348.16 204.1L1259.22 191.705Z" fill="#C4C4C4" stroke="#968F8F"/>
<path d="M938.33 349.924V262.606L1016.58 259.447V349.924H938.33Z" fill="#EDEDED" stroke="#968F8F"/>
<path d="M1219.71 151.433L1219.69 151.434L1219.68 151.436L1177.2 156.769L1177.19 156.769L1144.59 160.788L1144.57 160.79L1144.56 160.792L1118.61 165.426L1118.6 165.428L1096.15 169.723L1096.14 169.726L1096.12 169.73L1063.57 178.088L1063.56 178.091L1034.93 186.162L1034.92 186.164L1034.91 186.166L1012.27 193.365L1012.27 193.366L987.982 200.894L987.982 200.894L987.971 200.898L961.711 209.727L961.706 209.729L882.356 237.316L877.86 221.902L1024.29 171.019L1067.59 158.248L1067.6 158.245L1096.46 150.377L1096.47 150.374L1154.51 137.216L1257.74 120.09L1257.6 148.69L1219.71 151.433Z" fill="#C4C4C4" stroke="#968F8F"/>
<path d="M1258.57 148.832V120.567L1348.69 203.757L1318.85 199.494L1258.57 148.832Z" fill="#DBDBDB" stroke="#968F8F"/>
<line x1="975.702" y1="281.479" x2="975.702" y2="347.846" stroke="black"/>
<line x1="1015.16" y1="280.045" x2="939.776" y2="281.978" stroke="black"/>
<path d="M979.857 315.629C979.857 316.078 979.734 316.462 979.563 316.719C979.39 316.979 979.205 317.062 979.068 317.062C978.931 317.062 978.746 316.979 978.573 316.719C978.401 316.462 978.279 316.078 978.279 315.629C978.279 315.18 978.401 314.797 978.573 314.54C978.746 314.279 978.931 314.196 979.068 314.196C979.205 314.196 979.39 314.279 979.563 314.54C979.734 314.797 979.857 315.18 979.857 315.629Z" fill="#C4C4C4" stroke="black"/>
<path d="M945.825 269.805L948.49 269.758C949.705 269.737 950.589 269.896 951.142 270.234C951.698 270.568 951.983 271.112 951.996 271.865C952.005 272.377 951.892 272.799 951.655 273.131C951.423 273.464 951.108 273.666 950.711 273.74L950.712 273.798C951.257 273.91 951.651 274.13 951.895 274.457C952.143 274.785 952.272 275.224 952.281 275.775C952.295 276.556 952.023 277.17 951.464 277.618C950.909 278.065 950.147 278.297 949.179 278.314L945.974 278.37L945.825 269.805ZM947.7 273.165L948.755 273.147C949.247 273.138 949.601 273.056 949.817 272.9C950.037 272.743 950.144 272.49 950.138 272.138C950.132 271.81 950.007 271.578 949.762 271.441C949.521 271.301 949.141 271.235 948.622 271.245L947.667 271.261L947.7 273.165ZM947.725 274.606L947.764 276.838L948.948 276.818C949.447 276.809 949.815 276.707 950.05 276.511C950.285 276.316 950.399 276.021 950.392 275.626C950.379 274.916 949.865 274.569 948.85 274.587L947.725 274.606ZM953.675 269.99C953.665 269.408 953.984 269.112 954.632 269.1C955.28 269.089 955.61 269.374 955.62 269.956C955.625 270.233 955.546 270.452 955.385 270.611C955.228 270.766 954.987 270.846 954.663 270.852C954.014 270.863 953.685 270.576 953.675 269.99ZM955.682 278.2L953.895 278.232L953.781 271.682L955.567 271.651L955.682 278.2ZM960.18 272.719C959.802 272.725 959.507 272.852 959.296 273.098C959.086 273.34 958.969 273.681 958.945 274.123L961.452 274.08C961.437 273.638 961.316 273.301 961.089 273.066C960.862 272.828 960.559 272.712 960.18 272.719ZM960.529 278.233C959.474 278.251 958.645 277.975 958.041 277.403C957.437 276.832 957.126 276.013 957.108 274.947C957.088 273.849 957.347 272.997 957.883 272.39C958.424 271.779 959.178 271.465 960.147 271.448C961.072 271.432 961.797 271.683 962.322 272.201C962.847 272.719 963.117 273.443 963.134 274.373L963.149 275.24L958.925 275.313C958.953 275.821 959.11 276.215 959.397 276.495C959.683 276.775 960.08 276.911 960.588 276.902C960.982 276.895 961.354 276.847 961.704 276.759C962.054 276.671 962.419 276.534 962.799 276.347L962.823 277.73C962.513 277.892 962.181 278.013 961.827 278.093C961.473 278.178 961.04 278.224 960.529 278.233ZM970.697 277.938L968.91 277.97L968.843 274.144C968.835 273.671 968.745 273.319 968.573 273.088C968.401 272.853 968.131 272.738 967.764 272.745C967.264 272.753 966.906 272.928 966.689 273.267C966.472 273.603 966.371 274.158 966.384 274.931L966.438 278.013L964.651 278.044L964.537 271.494L965.902 271.47L966.157 272.304L966.256 272.302C966.45 271.982 966.719 271.739 967.064 271.573C967.413 271.403 967.809 271.314 968.255 271.306C969.016 271.293 969.598 271.49 970 271.897C970.401 272.3 970.609 272.89 970.622 273.668L970.697 277.938ZM974.095 277.879L971.485 271.373L973.354 271.34L974.684 275.05C974.833 275.52 974.929 275.966 974.971 276.387L975.007 276.386C975.019 276.011 975.1 275.562 975.247 275.04L976.441 271.286L978.31 271.254L975.929 277.847L974.095 277.879ZM981.986 272.338C981.607 272.345 981.312 272.471 981.102 272.717C980.891 272.959 980.774 273.301 980.75 273.743L983.258 273.699C983.242 273.258 983.121 272.92 982.894 272.686C982.667 272.447 982.365 272.332 981.986 272.338ZM982.334 277.852C981.279 277.871 980.45 277.594 979.846 277.023C979.243 276.451 978.931 275.632 978.913 274.566C978.894 273.468 979.152 272.616 979.689 272.009C980.229 271.398 980.983 271.084 981.952 271.067C982.877 271.051 983.603 271.302 984.127 271.82C984.652 272.339 984.923 273.062 984.939 273.992L984.954 274.859L980.73 274.933C980.758 275.44 980.916 275.834 981.202 276.114C981.488 276.394 981.885 276.53 982.393 276.521C982.787 276.514 983.16 276.467 983.51 276.379C983.86 276.29 984.225 276.153 984.604 275.967L984.628 277.349C984.319 277.511 983.987 277.632 983.633 277.713C983.278 277.797 982.846 277.844 982.334 277.852ZM992.502 277.558L990.715 277.589L990.649 273.763C990.64 273.291 990.55 272.939 990.378 272.707C990.206 272.472 989.937 272.358 989.569 272.364C989.069 272.373 988.711 272.547 988.494 272.887C988.278 273.223 988.176 273.777 988.189 274.551L988.243 277.632L986.456 277.663L986.342 271.114L987.707 271.09L987.962 271.923L988.061 271.922C988.255 271.602 988.524 271.359 988.869 271.192C989.218 271.022 989.615 270.933 990.06 270.926C990.822 270.912 991.403 271.109 991.805 271.516C992.207 271.92 992.414 272.51 992.428 273.287L992.502 277.558ZM998.982 277.445L998.727 276.611L998.633 276.613C998.447 276.921 998.18 277.162 997.831 277.336C997.483 277.506 997.084 277.595 996.635 277.603C995.865 277.616 995.282 277.421 994.884 277.018C994.486 276.611 994.28 276.021 994.267 275.247L994.192 270.977L995.979 270.945L996.046 274.771C996.054 275.243 996.144 275.597 996.316 275.833C996.489 276.064 996.758 276.177 997.125 276.17C997.625 276.162 997.984 275.989 998.2 275.653C998.417 275.314 998.519 274.757 998.505 273.984L998.451 270.902L1000.24 270.871L1000.35 277.421L998.982 277.445ZM1004.85 271.939C1004.47 271.946 1004.17 272.072 1003.96 272.318C1003.75 272.56 1003.63 272.902 1003.61 273.344L1006.12 273.3C1006.1 272.859 1005.98 272.521 1005.75 272.287C1005.53 272.048 1005.22 271.933 1004.85 271.939ZM1005.19 277.453C1004.14 277.472 1003.31 277.195 1002.71 276.624C1002.1 276.052 1001.79 275.233 1001.77 274.167C1001.75 273.069 1002.01 272.217 1002.55 271.61C1003.09 270.999 1003.84 270.685 1004.81 270.668C1005.74 270.652 1006.46 270.903 1006.99 271.421C1007.51 271.94 1007.78 272.663 1007.8 273.593L1007.81 274.46L1003.59 274.534C1003.62 275.041 1003.78 275.435 1004.06 275.715C1004.35 275.995 1004.74 276.131 1005.25 276.122C1005.65 276.115 1006.02 276.068 1006.37 275.98C1006.72 275.891 1007.08 275.754 1007.46 275.568L1007.49 276.95C1007.18 277.112 1006.85 277.233 1006.49 277.314C1006.14 277.398 1005.71 277.445 1005.19 277.453Z" fill="black"/>
<rect x="1033.38" y="204.675" width="199.748" height="28.3513" transform="rotate(-1.5 1033.38 204.675)" fill="#D9D7D7"/>
<g filter="url(#filter0_d)">
<path d="M1053.52 209.114L1053.94 225.39L1050.41 225.482L1042.1 213.608L1042.42 225.692L1038.88 225.784L1038.46 209.508L1043.08 209.388L1050.25 219.486L1049.98 209.207L1053.51 209.114L1053.52 209.114ZM1069.99 218.338L1070.01 219.285C1069.98 219.556 1069.99 219.781 1069.99 220.007C1069.96 220.233 1069.97 220.459 1069.97 220.639L1059.14 220.922C1059.31 221.46 1059.71 221.855 1060.3 222.11C1060.89 222.366 1061.75 222.478 1062.87 222.449L1063.61 222.43C1063.92 222.376 1064.23 222.368 1064.58 222.359C1064.89 222.306 1065.24 222.297 1065.63 222.287C1065.97 222.233 1066.32 222.223 1066.67 222.214C1067.52 222.145 1068.38 222.077 1069.23 222.012L1069.3 224.492C1068.56 224.646 1067.83 224.8 1067.09 224.955C1066.48 225.062 1065.78 225.17 1065.04 225.279C1064.31 225.389 1063.61 225.407 1062.95 225.425C1061.59 225.46 1060.43 225.446 1059.49 225.29C1058.56 225.179 1057.77 224.883 1057.18 224.493C1056.59 224.057 1056.14 223.482 1055.89 222.722C1055.6 221.962 1055.46 220.974 1055.42 219.757C1055.39 218.539 1055.48 217.544 1055.73 216.77C1055.95 215.998 1056.36 215.356 1056.93 214.935C1057.5 214.469 1058.27 214.133 1059.2 213.973C1060.12 213.813 1061.28 213.693 1062.64 213.657C1063.73 213.628 1064.74 213.693 1065.64 213.805C1066.49 213.917 1067.28 214.168 1067.91 214.512C1068.54 214.902 1069.06 215.385 1069.42 216.006C1069.75 216.629 1069.96 217.392 1069.99 218.338ZM1066.3 218.209L1066.28 217.713C1066.24 217.573 1066.19 217.438 1066.12 217.311C1066.04 217.178 1065.88 217.047 1065.6 216.964C1065.37 216.88 1065.02 216.798 1064.55 216.765C1063.94 216.722 1063.33 216.708 1062.72 216.723C1061.52 216.755 1060.63 216.913 1060.06 217.199C1059.48 217.485 1059.14 217.945 1059.04 218.579L1066.3 218.389L1066.3 218.209ZM1077.5 225.044C1076.53 225.069 1075.72 225.045 1074.98 224.884C1074.23 224.768 1073.61 224.469 1073.13 224.075C1072.61 223.638 1072.25 223.061 1071.96 222.302C1071.7 221.541 1071.56 220.552 1071.53 219.335L1071.38 213.654L1074.91 213.562L1075.06 219.242C1075.07 219.693 1075.16 220.052 1075.25 220.366C1075.33 220.634 1075.49 220.855 1075.65 221.032C1075.86 221.218 1076.12 221.35 1076.4 221.418C1076.67 221.456 1077.02 221.492 1077.41 221.482L1078.07 221.465C1078.3 221.458 1078.5 221.408 1078.73 221.402C1078.92 221.352 1079.19 221.345 1079.42 221.294C1079.7 221.287 1080.01 221.233 1080.39 221.178L1080.19 213.424L1083.72 213.331L1084 224.106C1083.5 224.209 1083.04 224.312 1082.54 224.415C1082.07 224.517 1081.57 224.62 1081.07 224.679C1080.53 224.784 1079.98 224.842 1079.4 224.948C1078.82 225.009 1078.2 225.025 1077.5 225.044ZM1092.65 214.857L1092.74 218.013L1089.2 218.105L1089.37 224.462L1085.8 224.556L1085.59 216.441C1085.55 215.043 1085.6 213.823 1085.76 212.781C1085.89 211.74 1086.22 210.874 1086.78 210.137C1087.31 209.447 1088.07 208.886 1089.11 208.498C1090.11 208.156 1091.46 207.94 1093.17 207.895L1094.14 207.87L1094.23 211.116L1093.22 211.142C1092.4 211.164 1091.71 211.272 1091.21 211.466C1090.71 211.659 1090.29 211.941 1089.98 212.265C1089.68 212.633 1089.5 212.999 1089.35 213.454C1089.25 213.908 1089.19 214.406 1089.16 214.948L1092.65 214.857L1092.65 214.857ZM1104.54 224.065L1098.72 212.126L1099.03 224.209L1095.5 224.301L1095.08 208.026L1099.93 207.899L1105.34 218.946L1110.21 207.63L1115.02 207.504L1115.45 223.779L1111.92 223.872L1111.6 211.789L1106.41 224.016L1104.54 224.065ZM1124.11 212.048C1125.51 212.011 1126.64 212.072 1127.57 212.183C1128.51 212.293 1129.29 212.589 1129.88 213.024C1130.48 213.415 1130.92 214.035 1131.17 214.795C1131.47 215.555 1131.61 216.544 1131.64 217.761C1131.67 218.978 1131.58 219.973 1131.33 220.747C1131.12 221.519 1130.7 222.116 1130.13 222.583C1129.56 223.004 1128.8 223.339 1127.87 223.499C1126.94 223.704 1125.82 223.779 1124.42 223.815C1123.06 223.851 1121.9 223.836 1120.96 223.68C1120.02 223.569 1119.28 223.273 1118.69 222.882C1118.09 222.447 1117.65 221.872 1117.4 221.112C1117.11 220.352 1116.96 219.363 1116.93 218.146C1116.9 216.929 1116.99 215.934 1117.24 215.16C1117.45 214.388 1117.86 213.745 1118.44 213.325C1119.01 212.858 1119.74 212.523 1120.66 212.364C1121.59 212.204 1122.75 212.083 1124.11 212.047L1124.11 212.048ZM1124.33 220.253C1125.06 220.234 1125.64 220.173 1126.11 220.116C1126.57 220.059 1126.96 219.959 1127.23 219.771C1127.49 219.629 1127.64 219.354 1127.75 219.081C1127.86 218.762 1127.89 218.356 1127.87 217.859C1127.86 217.319 1127.81 216.913 1127.69 216.601C1127.56 216.289 1127.4 216.067 1127.13 215.939C1126.85 215.766 1126.46 215.686 1125.99 215.608C1125.52 215.575 1124.94 215.59 1124.2 215.61C1123.51 215.628 1122.89 215.644 1122.42 215.701C1121.96 215.804 1121.61 215.903 1121.34 216.09C1121.08 216.233 1120.89 216.463 1120.78 216.782C1120.69 217.198 1120.64 217.623 1120.66 218.048C1120.67 218.545 1120.76 218.948 1120.84 219.262C1120.97 219.529 1121.17 219.795 1121.44 219.923C1121.72 220.096 1122.07 220.177 1122.54 220.21C1123.01 220.243 1123.63 220.272 1124.33 220.253ZM1136.65 211.72L1133.1 212.85L1133.38 223.31L1136.95 223.216L1136.65 211.72ZM1136.4 208.161C1136.4 208.387 1136.37 208.659 1136.26 208.887C1136.19 209.115 1136.08 209.298 1135.97 209.482C1135.82 209.657 1135.64 209.8 1135.43 209.902C1135.24 210.041 1135.05 210.092 1134.82 210.098C1134.58 210.104 1134.39 210.064 1134.19 209.934C1133.98 209.843 1133.79 209.71 1133.64 209.543C1133.52 209.365 1133.4 209.188 1133.31 208.964C1133.19 208.742 1133.14 208.473 1133.14 208.247C1133.13 207.977 1133.16 207.75 1133.27 207.522C1133.35 207.294 1133.46 207.066 1133.57 206.882C1133.72 206.743 1133.91 206.603 1134.1 206.462C1134.29 206.367 1134.48 206.317 1134.72 206.311C1134.95 206.305 1135.15 206.345 1135.34 206.43C1135.54 206.56 1135.74 206.69 1135.9 206.821C1136.02 206.999 1136.14 207.221 1136.22 207.444C1136.35 207.667 1136.39 207.891 1136.4 208.161ZM1146.97 211.449C1148.37 211.413 1149.49 211.473 1150.43 211.584C1151.4 211.693 1152.15 211.99 1152.74 212.426C1153.33 212.816 1153.78 213.436 1154.03 214.197C1154.32 214.956 1154.46 215.945 1154.5 217.162L1154.64 222.753L1150.88 222.852L1150.73 217.261C1150.72 216.72 1150.67 216.315 1150.54 216.002C1150.51 215.858 1150.44 215.724 1150.34 215.61C1150.24 215.495 1150.12 215.403 1149.98 215.34C1149.71 215.167 1149.32 215.087 1148.85 215.009C1148.38 214.977 1147.8 214.992 1147.06 215.011L1146.17 215.035C1145.82 215.088 1145.47 215.098 1145.08 215.108C1144.74 215.162 1144.31 215.218 1143.92 215.229C1143.54 215.284 1143.15 215.294 1142.8 215.348L1143 223.058L1139.47 223.15L1139.17 211.879L1141.74 211.812L1142.18 212.387C1142.68 212.148 1143.37 211.904 1144.22 211.746C1145.13 211.573 1146.04 211.473 1146.97 211.449ZM1168.76 219.135C1168.78 219.811 1168.68 220.355 1168.45 220.812C1168.23 221.314 1167.82 221.686 1167.24 221.972C1166.67 222.258 1165.94 222.502 1164.97 222.618C1164.04 222.777 1162.88 222.807 1161.48 222.844C1160.94 222.858 1160.39 222.828 1159.81 222.798C1159.26 222.722 1158.76 222.69 1158.25 222.613C1157.74 222.582 1157.32 222.503 1156.89 222.468C1156.5 222.389 1156.18 222.352 1155.95 222.313L1155.88 219.697C1156.66 219.723 1157.4 219.748 1158.1 219.73C1158.72 219.759 1159.34 219.788 1159.96 219.771C1160.45 219.792 1160.95 219.795 1161.44 219.778C1162.21 219.758 1162.84 219.786 1163.3 219.774C1163.77 219.717 1164.15 219.707 1164.39 219.656C1164.56 219.624 1164.73 219.558 1164.89 219.462C1164.96 219.37 1165.04 219.232 1165.03 219.142C1165.03 219.007 1165.03 218.917 1164.95 218.829C1164.83 218.774 1164.72 218.731 1164.59 218.703C1164.35 218.654 1164.1 218.615 1163.85 218.587C1163.54 218.595 1163.15 218.56 1162.65 218.528C1161.13 218.432 1159.88 218.284 1158.95 218.129C1157.97 217.974 1157.23 217.722 1156.72 217.465C1156.17 217.164 1155.81 216.812 1155.6 216.367C1155.4 215.921 1155.3 215.382 1155.29 214.796C1155.27 214.164 1155.37 213.62 1155.59 213.163C1155.85 212.66 1156.23 212.289 1156.81 212.004C1157.38 211.673 1158.15 211.427 1159.08 211.313C1160.01 211.153 1161.17 211.078 1162.61 211.04L1164.47 211.126C1165.03 211.193 1165.59 211.268 1166.15 211.353C1166.73 211.428 1167.28 211.504 1167.79 211.626L1167.86 214.331C1167.46 214.286 1167.05 214.251 1166.65 214.227C1166.18 214.194 1165.72 214.207 1165.21 214.175C1164.71 214.143 1164.24 214.155 1163.78 214.122C1163.31 214.135 1162.92 214.099 1162.61 214.108L1160.75 214.156C1160.38 214.163 1160.02 214.203 1159.66 214.275C1159.39 214.327 1159.24 214.376 1159.12 214.47C1159.05 214.559 1159.01 214.673 1159.02 214.788C1159.02 214.879 1159.06 214.967 1159.1 215.057C1159.18 215.1 1159.26 215.143 1159.45 215.183C1159.61 215.224 1159.84 215.263 1160.15 215.255C1160.57 215.299 1160.98 215.333 1161.4 215.357C1162.92 215.453 1164.16 215.556 1165.14 215.756C1166.07 215.912 1166.82 216.163 1167.37 216.464C1167.88 216.722 1168.28 217.072 1168.45 217.518C1168.65 217.965 1168.74 218.504 1168.76 219.135ZM1170.07 214.228C1170.03 212.83 1170.12 211.61 1170.28 210.568C1170.45 209.526 1170.82 208.659 1171.38 207.922C1171.9 207.232 1172.71 206.669 1173.74 206.327C1174.78 205.939 1176.18 205.722 1177.84 205.678C1178.62 205.658 1179.4 205.638 1180.14 205.708C1180.91 205.733 1181.61 205.805 1182.24 205.833C1182.9 205.907 1183.48 205.981 1183.99 206.058C1184.5 206.136 1184.89 206.215 1185.2 206.252L1185.29 209.589C1185.13 209.548 1184.86 209.555 1184.43 209.475C1184 209.442 1183.45 209.366 1182.79 209.338C1182.13 209.311 1181.39 209.239 1180.54 209.217C1179.72 209.193 1178.83 209.216 1177.9 209.24C1176.93 209.266 1176.15 209.377 1175.58 209.617C1175.04 209.857 1174.62 210.183 1174.36 210.597C1174.1 211.054 1173.96 211.555 1173.9 212.143C1173.84 212.731 1173.81 213.408 1173.83 214.129C1173.85 214.85 1173.91 215.526 1174 216.11C1174.09 216.694 1174.26 217.186 1174.54 217.585C1174.83 217.984 1175.26 218.288 1175.81 218.499C1176.4 218.755 1177.18 218.824 1178.15 218.799C1179.2 218.771 1180.13 218.702 1181.02 218.634C1181.91 218.565 1182.72 218.453 1183.38 218.391C1184.19 218.28 1184.93 218.17 1185.58 218.018L1185.67 221.354C1185.4 221.451 1185.02 221.506 1184.51 221.61C1183.94 221.727 1183.36 221.833 1182.77 221.926C1182.12 222.033 1181.38 222.098 1180.64 222.162C1179.87 222.273 1179.09 222.293 1178.28 222.314C1176.61 222.358 1175.21 222.259 1174.15 221.926C1173.1 221.593 1172.27 221.118 1171.71 220.411C1171.11 219.75 1170.69 218.859 1170.47 217.827C1170.25 216.795 1170.1 215.58 1170.07 214.228ZM1190.83 210.932C1191.26 210.786 1191.68 210.684 1192.15 210.582C1192.53 210.482 1193 210.425 1193.5 210.321C1194.04 210.261 1194.54 210.204 1195.13 210.188C1196.48 210.153 1197.65 210.212 1198.59 210.323C1199.52 210.433 1200.3 210.729 1200.86 211.166C1201.45 211.556 1201.9 212.176 1202.15 212.936C1202.44 213.696 1202.58 214.685 1202.61 215.902L1202.76 221.493L1199.04 221.591L1198.89 216C1198.88 215.459 1198.83 215.054 1198.7 214.741C1198.58 214.429 1198.38 214.209 1198.1 214.08C1197.82 213.907 1197.47 213.826 1197.01 213.748C1196.54 213.716 1195.92 213.732 1195.22 213.75L1194.33 213.774C1193.98 213.827 1193.63 213.836 1193.24 213.847C1192.85 213.902 1192.47 213.957 1192.08 213.968C1191.65 214.024 1191.27 214.034 1190.92 214.088L1191.12 221.798L1187.59 221.89L1187.16 205.615L1190.69 205.522L1190.83 210.932L1190.83 210.932ZM1218.61 214.446L1218.64 215.393C1218.65 215.663 1218.61 215.889 1218.62 216.115C1218.63 216.34 1218.59 216.567 1218.6 216.747L1207.77 217.031C1207.94 217.568 1208.34 217.963 1208.93 218.218C1209.52 218.474 1210.37 218.586 1211.5 218.557L1212.24 218.538C1212.55 218.484 1212.86 218.476 1213.21 218.467C1213.52 218.414 1213.86 218.405 1214.25 218.395C1214.6 218.341 1214.99 218.33 1215.3 218.322C1216.11 218.256 1216.97 218.188 1217.86 218.12L1217.92 220.6C1217.19 220.754 1216.49 220.908 1215.76 221.063C1215.06 221.176 1214.37 221.284 1213.67 221.387C1212.94 221.497 1212.24 221.516 1211.58 221.533C1210.22 221.568 1209.05 221.554 1208.12 221.398C1207.18 221.287 1206.4 220.992 1205.81 220.601C1205.21 220.165 1204.77 219.59 1204.52 218.83C1204.22 218.071 1204.08 217.082 1204.05 215.865C1204.02 214.647 1204.11 213.653 1204.36 212.879C1204.57 212.106 1204.98 211.464 1205.56 211.043C1206.13 210.577 1206.89 210.241 1207.82 210.082C1208.75 209.922 1209.91 209.801 1211.27 209.765C1212.36 209.737 1213.37 209.801 1214.26 209.913C1215.16 210.024 1215.9 210.276 1216.53 210.62C1217.17 211.01 1217.68 211.493 1218.05 212.114C1218.41 212.736 1218.59 213.499 1218.61 214.446ZM1214.92 214.317L1214.91 213.821C1214.91 213.685 1214.82 213.552 1214.74 213.419C1214.66 213.286 1214.5 213.155 1214.27 213.071C1213.91 212.964 1213.55 212.897 1213.18 212.873C1212.57 212.829 1211.96 212.815 1211.35 212.831C1210.15 212.863 1209.26 213.021 1208.68 213.307C1208.11 213.593 1207.77 214.053 1207.67 214.687L1214.93 214.497L1214.92 214.317ZM1220.21 210.298C1220.75 210.149 1221.33 210.043 1221.99 209.891C1222.61 209.784 1223.27 209.722 1223.92 209.614C1224.58 209.552 1225.28 209.489 1225.98 209.426C1226.67 209.362 1227.33 209.345 1228.03 209.327L1228.11 212.303C1227.37 212.322 1226.76 212.428 1226.21 212.487C1225.71 212.59 1225.25 212.693 1224.9 212.747C1224.48 212.848 1224.13 212.948 1223.82 213.046L1224.03 220.936L1220.5 221.028L1220.21 210.298Z" fill="#E06329"/>
</g>
<path d="M1375.9 350.128H1360.75V298.288C1360.75 293.95 1364.15 290.434 1368.33 290.434C1372.51 290.434 1375.9 293.95 1375.9 298.288V350.128Z" fill="url(#paint6_linear)"/>
<path d="M1384.72 268.742C1389.59 268.742 1393.54 272.946 1393.54 278.132V350.128H1375.9V278.132C1375.9 272.946 1379.85 268.742 1384.72 268.742Z" fill="url(#paint7_linear)"/>
<path d="M1396.69 311.05C1401.67 311.05 1405.71 315.249 1405.71 320.429V350.129H1387.66V320.429C1387.66 315.248 1391.7 311.05 1396.69 311.05Z" fill="url(#paint8_linear)"/>
<path d="M1393.54 311.05V311.597C1390.72 312.863 1387.91 316.349 1387.91 320.429V350.129H1385.09V320.429C1385.09 315.255 1389.32 311.05 1393.54 311.05Z" fill="url(#paint9_linear)"/>
<path d="M1364.63 281.571C1355.64 284.097 1347.58 289.156 1341.41 296.14C1335.24 303.123 1331.23 311.734 1329.85 320.935L1329.51 323.178C1329.46 323.506 1329.49 323.84 1329.61 324.152C1329.72 324.463 1329.91 324.741 1330.16 324.96C1330.41 325.179 1330.71 325.332 1331.03 325.405C1331.36 325.479 1331.7 325.47 1332.02 325.38L1334.21 324.765C1343.19 322.239 1351.25 317.18 1357.42 310.196C1363.59 303.212 1367.61 294.602 1368.99 285.401L1369.78 280.123L1364.63 281.571Z" fill="url(#paint10_linear)"/>
<path d="M1335.31 322.957C1334.38 313.672 1330.8 304.854 1324.99 297.564C1319.18 290.275 1311.4 284.824 1302.58 281.869L1300.43 281.147C1300.12 281.041 1299.78 281.016 1299.45 281.075C1299.13 281.133 1298.82 281.272 1298.56 281.48C1298.3 281.687 1298.1 281.956 1297.97 282.263C1297.84 282.569 1297.79 282.903 1297.83 283.234L1298.05 285.497C1298.98 294.782 1302.56 303.6 1308.37 310.889C1314.17 318.179 1321.96 323.63 1330.78 326.585L1335.84 328.283L1335.31 322.957Z" fill="url(#paint11_linear)"/>
<path d="M1322.62 313.123H1310.51C1303.42 305.441 1299.04 295.595 1298.06 285.126L1297.83 282.972C1297.79 282.497 1297.87 282.02 1298.08 281.59L1322.62 313.123Z" fill="url(#paint12_linear)"/>
<path d="M1341.96 313.409C1345.74 300.232 1340.4 282.169 1330.11 273.274L1323.08 267.2C1322.83 266.989 1322.54 266.842 1322.23 266.775C1321.91 266.708 1321.58 266.722 1321.28 266.816C1320.97 266.91 1320.69 267.081 1320.46 267.313C1320.23 267.545 1320.07 267.831 1319.98 268.145L1317.4 277.143C1313.63 290.32 1318.96 308.382 1329.26 317.278L1338.56 325.312L1341.96 313.409Z" fill="url(#paint13_linear)"/>
<path d="M1350.01 299.4L1348.7 289.921C1354.58 282.959 1362.61 277.727 1371.56 275.044L1373.4 274.464C1373.8 274.345 1374.22 274.325 1374.62 274.406L1350.01 299.4Z" fill="url(#paint14_linear)"/>
<path d="M1327.42 350.425H1343.56C1346.23 350.425 1343.37 348.082 1342.93 347.077C1343 345.539 1341.15 344.398 1341.15 342.223V325.82C1341.15 323.644 1341.11 321.558 1341.05 320.02C1340.98 318.482 1340.89 317.618 1340.79 317.618L1331.96 320.965C1331.87 320.972 1330.69 321.102 1330.62 322.639C1330.56 324.177 1329.92 323.648 1329.92 325.82L1329.03 342.223C1327.96 345.069 1327.36 345.539 1327.42 347.077C1327.49 348.615 1325.55 350.425 1327.42 350.425Z" fill="url(#paint15_linear)"/>
<path d="M1347.89 281.572C1338.91 284.097 1330.84 289.156 1324.67 296.14C1318.5 303.124 1314.49 311.734 1313.11 320.935L1312.77 323.178C1312.72 323.506 1312.75 323.841 1312.87 324.152C1312.98 324.463 1313.17 324.741 1313.42 324.96C1313.67 325.179 1313.97 325.332 1314.3 325.406C1314.62 325.479 1314.96 325.47 1315.28 325.38L1317.47 324.765C1326.45 322.239 1334.51 317.18 1340.68 310.196C1346.85 303.213 1350.87 294.602 1352.25 285.401L1353.04 280.124L1347.89 281.572Z" fill="url(#paint16_linear)"/>
<path d="M1318.57 322.957C1317.64 313.672 1314.06 304.855 1308.25 297.565C1302.45 290.275 1294.66 284.825 1285.84 281.869L1283.69 281.147C1283.38 281.042 1283.04 281.017 1282.72 281.075C1282.39 281.133 1282.08 281.273 1281.82 281.48C1281.57 281.688 1281.36 281.957 1281.23 282.263C1281.11 282.57 1281.05 282.904 1281.09 283.235L1281.31 285.498C1282.24 294.782 1285.82 303.6 1291.63 310.89C1297.44 318.18 1305.22 323.63 1314.04 326.585L1319.1 328.283L1318.57 322.957Z" fill="url(#paint17_linear)"/>
<path d="M1305.88 313.123H1293.77C1286.68 305.442 1282.3 295.596 1281.32 285.126L1281.09 282.973C1281.05 282.498 1281.13 282.02 1281.34 281.59L1305.88 313.123Z" fill="url(#paint18_linear)"/>
<path d="M1325.22 313.409C1329 300.232 1323.66 282.169 1313.37 273.274L1306.34 267.2C1306.1 266.989 1305.8 266.842 1305.49 266.775C1305.17 266.708 1304.85 266.722 1304.54 266.816C1304.23 266.91 1303.95 267.081 1303.72 267.313C1303.5 267.545 1303.33 267.831 1303.24 268.145L1300.66 277.143C1296.89 290.32 1302.23 308.382 1312.52 317.278L1321.82 325.312L1325.22 313.409Z" fill="url(#paint19_linear)"/>
<path d="M1333.27 299.4L1331.96 289.921C1337.84 282.959 1345.88 277.727 1354.82 275.044L1356.66 274.464C1357.06 274.345 1357.49 274.325 1357.88 274.406L1333.27 299.4Z" fill="url(#paint20_linear)"/>
<path d="M1310.69 350.425H1326.82C1329.49 350.425 1326.63 348.082 1326.19 347.078C1326.26 345.54 1324.41 344.399 1324.41 342.224V325.82C1324.41 323.645 1324.37 321.559 1324.31 320.02C1324.24 318.482 1324.15 317.618 1324.05 317.618L1315.22 320.966C1315.13 320.972 1313.95 321.102 1313.89 322.64C1313.82 324.177 1313.19 323.649 1313.19 325.82L1312.29 342.224C1311.22 345.069 1310.62 345.54 1310.69 347.078C1310.75 348.616 1308.81 350.425 1310.69 350.425Z" fill="url(#paint21_linear)"/>
<path d="M1306.38 280.902C1297.39 283.427 1289.33 288.487 1283.16 295.47C1276.99 302.454 1272.98 311.065 1271.6 320.265L1271.26 322.508C1271.21 322.836 1271.24 323.171 1271.36 323.482C1271.47 323.793 1271.66 324.071 1271.91 324.29C1272.16 324.509 1272.46 324.662 1272.79 324.736C1273.11 324.809 1273.45 324.801 1273.77 324.711L1275.96 324.095C1284.94 321.569 1293 316.51 1299.17 309.527C1305.34 302.543 1309.36 293.932 1310.74 284.731L1311.53 279.454L1306.38 280.902Z" fill="url(#paint22_linear)"/>
<path d="M1277.06 322.287C1276.13 313.003 1272.55 304.185 1266.74 296.895C1260.94 289.605 1253.15 284.155 1244.33 281.2L1242.18 280.477C1241.87 280.372 1241.53 280.347 1241.2 280.405C1240.88 280.463 1240.57 280.603 1240.31 280.81C1240.05 281.018 1239.85 281.287 1239.72 281.594C1239.59 281.9 1239.54 282.234 1239.58 282.565L1239.8 284.828C1240.73 294.113 1244.31 302.93 1250.12 310.22C1255.92 317.51 1263.71 322.96 1272.53 325.916L1277.59 327.613L1277.06 322.287Z" fill="url(#paint23_linear)"/>
<path d="M1264.37 312.453H1252.26C1245.17 304.772 1240.79 294.926 1239.81 284.457L1239.58 282.303C1239.54 281.828 1239.62 281.35 1239.83 280.92L1264.37 312.453Z" fill="url(#paint24_linear)"/>
<path d="M1283.71 312.739C1287.49 299.562 1282.15 281.499 1271.86 272.604L1264.83 266.531C1264.58 266.319 1264.29 266.172 1263.98 266.105C1263.66 266.038 1263.33 266.052 1263.03 266.146C1262.72 266.24 1262.44 266.411 1262.21 266.643C1261.98 266.875 1261.82 267.161 1261.73 267.475L1259.15 276.473C1255.38 289.65 1260.71 307.712 1271.01 316.608L1280.31 324.642L1283.71 312.739Z" fill="url(#paint25_linear)"/>
<path d="M1291.76 298.731L1290.45 289.251C1296.33 282.29 1304.36 277.057 1313.31 274.375L1315.15 273.795C1315.55 273.676 1315.97 273.656 1316.37 273.737L1291.76 298.731Z" fill="url(#paint26_linear)"/>
<path d="M1269.17 349.756H1285.31C1287.98 349.756 1285.12 347.412 1284.68 346.408C1284.75 344.87 1282.9 343.729 1282.9 341.554V325.15C1282.9 322.975 1282.86 320.889 1282.8 319.35C1282.73 317.812 1282.64 316.948 1282.54 316.948L1273.71 320.296C1273.62 320.302 1272.44 320.432 1272.37 321.97C1272.31 323.507 1271.67 322.979 1271.67 325.15L1270.78 341.554C1269.71 344.399 1269.11 344.87 1269.17 346.408C1269.24 347.946 1267.3 349.756 1269.17 349.756Z" fill="url(#paint27_linear)"/>
<path d="M99.835 241.515C99.9181 241.698 100.087 241.859 100.314 241.935C104.928 243.478 110.404 246.119 115.694 248.664C124.624 252.967 132.336 256.682 135.742 255.263C136.705 254.861 137.281 254.095 137.443 252.996C137.498 252.627 137.206 252.265 136.785 252.191C136.364 252.116 135.975 252.349 135.921 252.718C135.781 253.601 135.334 253.888 135.006 254.023C132.275 255.162 124.182 251.26 116.347 247.481C111.003 244.906 105.479 242.245 100.759 240.666C100.354 240.534 99.9287 240.704 99.7999 241.053C99.7495 241.208 99.7669 241.374 99.835 241.515Z" fill="url(#paint28_linear)"/>
<path d="M8.43265 208.213C9.14021 207.712 10.0745 207.518 11.0004 207.651C24.9056 209.682 64.862 214.275 73.4768 216C74.566 216.215 77.5372 217.011 78.8796 217.532C89.9539 221.865 108.241 236.414 108.241 236.414C114.113 239.782 110.573 242.163 110.573 242.163L83.9941 256.617C83.2621 257.012 82.4884 257.365 81.6718 257.614C78.2388 258.673 75.621 258.171 73.5488 258.168L8.03119 251.259C6.21178 250.971 4.87035 249.491 4.96604 247.883L7.25193 210.282C7.29634 209.458 7.72509 208.714 8.43265 208.213ZM94.2478 242.943C96.4418 244.466 99.5023 244.205 101.072 242.363C102.642 240.521 102.132 237.784 99.9375 236.26C97.7434 234.736 94.6829 234.998 93.1131 236.84C91.5414 238.689 92.0537 241.419 94.2478 242.943Z" fill="url(#paint29_linear)"/>
<path d="M99.835 241.514C99.8904 241.637 99.9908 241.756 100.126 241.845C100.48 242.071 100.956 242.007 101.186 241.708C102.59 239.859 108.324 239.593 115.448 241.057C124.043 242.824 133.944 247.057 135.383 252.19C135.477 252.561 135.906 252.806 136.312 252.738C136.727 252.673 136.972 252.317 136.867 251.951C135.261 246.19 125.062 241.655 115.688 239.733C109.442 238.451 102.015 238.087 99.8871 240.892C99.7574 241.079 99.7391 241.312 99.835 241.514Z" fill="url(#paint30_linear)"/>
<path d="M63.5324 233.238C63.8684 231.34 64.4205 229.987 65.1887 229.179C65.9643 228.37 67.1345 227.931 68.7158 227.868C69.953 227.817 70.8483 228.006 71.4089 228.433C71.9696 228.86 72.2669 229.57 72.3039 230.578C72.3287 231.202 72.2544 231.976 72.0884 232.898C71.7361 234.792 71.1766 236.147 70.4173 236.96C69.658 237.774 68.4715 238.208 66.8755 238.274C65.6603 238.32 64.7666 238.139 64.206 237.712C63.6453 237.285 63.348 236.575 63.311 235.567C63.292 234.934 63.3663 234.16 63.5324 233.238ZM65.2617 247.427L77.3928 227.517L80.3944 227.395L68.2633 247.304L65.2617 247.427ZM66.8632 233.106C66.6663 234.21 66.5711 234.958 66.5849 235.349C66.6029 235.868 66.8325 236.115 67.2681 236.098C67.6652 236.082 67.9603 235.875 68.1473 235.487C68.3328 235.091 68.5441 234.273 68.7722 233.027C68.9692 231.923 69.0644 231.175 69.0505 230.784C69.0326 230.265 68.794 230.012 68.3437 230.032C67.9613 230.045 67.6737 230.25 67.4808 230.648C67.2716 231.041 67.0677 231.857 66.8632 233.106ZM73.6135 241.921C73.9495 240.023 74.5016 238.67 75.2698 237.862C76.0454 237.053 77.2304 236.611 78.8264 236.545C80.0415 236.499 80.9352 236.681 81.4959 237.107C82.0565 237.534 82.3538 238.244 82.3909 239.252C82.4157 239.876 82.3413 240.65 82.1753 241.572C81.823 243.467 81.2635 244.821 80.5042 245.635C79.745 246.448 78.5584 246.882 76.9624 246.949C75.7472 246.995 74.8535 246.813 74.2929 246.386C73.7323 245.96 73.435 245.25 73.3979 244.242C73.3731 243.618 73.4401 242.845 73.6135 241.921ZM76.937 241.791C76.7401 242.894 76.6448 243.642 76.6587 244.034C76.6766 244.553 76.9062 244.8 77.3418 244.783C77.739 244.767 78.034 244.56 78.2211 244.172C78.4066 243.776 78.6179 242.958 78.846 241.711C79.0429 240.608 79.1381 239.86 79.1243 239.469C79.1064 238.95 78.8767 238.703 78.4411 238.719C78.044 238.736 77.749 238.942 77.5619 239.331C77.3748 239.719 77.1651 240.545 76.937 241.791Z" fill="white"/>
<path d="M11.6094 234.682L12.5881 231.779L21.9115 231.751L20.9328 234.654L11.6094 234.682Z" fill="white"/>
<path d="M38.6257 227.223C38.3552 224.132 35.8706 221.205 30.9296 221.638C26.5191 222.024 24.1372 224.496 24.0404 228.789L24.0259 229.428L29.2777 229.481L29.264 228.829C29.2162 226.573 30.2259 226.18 31.2204 226.093C32.5725 225.975 33.3178 226.601 33.4361 227.954C33.7824 231.911 24.9962 235.726 24.827 243.114L24.8109 243.82L39.9618 242.494L39.5319 237.581L32.3368 238.21C34.3947 235.489 39.0691 232.291 38.6257 227.223Z" fill="white"/>
<path d="M57.6943 230.212C57.4238 227.12 54.9392 224.194 49.9982 224.626C45.5877 225.012 43.2058 227.484 43.109 231.777L43.0945 232.417L48.3463 232.469L48.3326 231.818C48.2848 229.561 49.2945 229.168 50.289 229.081C51.6411 228.963 52.3864 229.589 52.5048 230.942C52.851 234.9 44.0648 238.714 43.8956 246.103L43.8795 246.808L59.0304 245.483L58.6005 240.569L51.4054 241.199C53.4633 238.477 58.1377 235.28 57.6943 230.212Z" fill="white"/>
<path d="M771.15 258.895C771 259.105 770.76 259.255 770.48 259.275C764.78 259.675 757.77 261.205 751 262.675C739.57 265.165 729.7 267.315 726.27 264.275C725.3 263.415 724.88 262.215 725.03 260.725C725.08 260.225 725.52 259.855 726.02 259.905C726.52 259.955 726.89 260.395 726.84 260.895C726.73 262.095 727.15 262.625 727.48 262.915C730.23 265.355 740.59 263.095 750.62 260.905C757.46 259.415 764.53 257.875 770.36 257.465C770.86 257.435 771.29 257.805 771.33 258.305C771.34 258.525 771.27 258.735 771.15 258.895Z" fill="url(#paint31_linear)"/>
<path d="M884.88 249.634C884.23 248.734 883.23 248.155 882.14 248.005C865.76 245.795 819.07 237.825 808.78 237.065C807.48 236.965 803.87 236.965 802.19 237.175C788.32 238.955 763.17 251.535 763.17 251.535C755.49 253.875 758.78 258.214 758.78 258.214L784.52 286.345C785.23 287.115 786 287.845 786.85 288.455C790.42 291.035 793.54 291.294 795.89 292.014L872.26 305.895C874.41 306.155 876.38 304.694 876.76 302.564L885.59 252.744C885.79 251.654 885.53 250.534 884.88 249.634ZM777.05 264.934C774.1 266.154 770.71 264.744 769.49 261.794C768.27 258.844 769.68 255.454 772.63 254.234C775.58 253.014 778.97 254.424 780.19 257.374C781.41 260.334 780 263.714 777.05 264.934Z" fill="url(#paint32_linear)"/>
<path d="M771.15 258.894C771.05 259.034 770.9 259.154 770.72 259.224C770.25 259.394 769.73 259.144 769.56 258.674C768.53 255.774 762.11 253.424 753.59 252.844C743.31 252.144 730.8 254.204 727.61 260.394C727.39 260.844 726.83 261.014 726.39 260.784C725.94 260.554 725.77 260.004 726 259.564C729.57 252.614 742.51 250.264 753.72 251.034C761.19 251.544 769.72 253.664 771.28 258.064C771.37 258.354 771.32 258.664 771.15 258.894Z" fill="url(#paint33_linear)"/>
<path d="M846.16 263.665C847.12 261.255 848.21 259.625 849.43 258.775C850.66 257.925 852.3 257.675 854.37 258.035C855.99 258.315 857.1 258.815 857.71 259.535C858.32 260.255 858.51 261.275 858.28 262.615C858.14 263.445 857.83 264.445 857.36 265.615C856.38 268.015 855.28 269.645 854.07 270.505C852.86 271.365 851.2 271.605 849.11 271.245C847.52 270.965 846.41 270.475 845.8 269.755C845.19 269.035 845 268.015 845.23 266.675C845.38 265.835 845.69 264.835 846.16 263.665ZM844.49 282.865L865.73 260.005L869.66 260.685L848.42 283.545L844.49 282.865ZM850.52 264.425C849.96 265.825 849.63 266.785 849.54 267.305C849.42 267.995 849.65 268.385 850.22 268.485C850.74 268.575 851.18 268.385 851.53 267.925C851.88 267.455 852.38 266.435 853.02 264.855C853.58 263.455 853.91 262.495 854 261.975C854.12 261.285 853.88 260.885 853.29 260.785C852.79 260.695 852.36 260.885 852 261.355C851.62 261.815 851.13 262.835 850.52 264.425ZM856.85 277.945C857.81 275.535 858.9 273.905 860.12 273.055C861.35 272.205 863.01 271.955 865.1 272.315C866.69 272.595 867.8 273.085 868.41 273.805C869.02 274.525 869.21 275.545 868.98 276.885C868.84 277.715 868.53 278.715 868.06 279.885C867.08 282.285 865.98 283.915 864.77 284.775C863.56 285.635 861.9 285.875 859.81 285.515C858.22 285.235 857.11 284.745 856.5 284.025C855.89 283.305 855.7 282.285 855.93 280.945C856.07 280.115 856.37 279.115 856.85 277.945ZM861.2 278.705C860.64 280.105 860.31 281.065 860.22 281.585C860.1 282.275 860.33 282.665 860.9 282.765C861.42 282.855 861.86 282.665 862.21 282.205C862.56 281.735 863.06 280.715 863.7 279.135C864.26 277.735 864.59 276.775 864.68 276.255C864.8 275.565 864.57 275.175 864 275.075C863.48 274.985 863.04 275.175 862.69 275.635C862.34 276.095 861.84 277.125 861.2 278.705Z" fill="white"/>
<path d="M816.873 268.563C818.757 267.787 819.952 266.49 820.434 264.693C821.284 261.521 819.376 257.442 814.689 256.186C807.383 254.228 805.119 260.99 804.873 261.267L810.104 263.642C810.242 263.438 810.882 260.527 813.224 261.154C815.333 261.72 814.798 264.035 813.642 264.708C812.827 265.182 812.457 264.972 810.438 264.603L808.327 269.603C809.048 269.619 810.3 269.517 811.328 269.793C812.508 270.109 813.467 271.293 812.949 273.225C812.392 275.305 810.873 275.896 809.616 275.559C806.942 274.842 807.88 271.733 807.859 271.506L802.066 270.667C802.1 270.829 800.183 278.426 808.298 280.6C812.996 281.859 817.608 279.365 818.782 274.985C819.448 272.499 818.705 270.12 816.873 268.563Z" fill="white"/>
<path d="M832.034 282.772L838.473 258.74L833.778 257.482L833.486 257.903C832.712 259.019 831.581 259.895 830.125 260.509C828.618 261.146 827.28 261.5 826.148 261.561L825.619 261.59L824.176 266.977L825.184 266.919C827.045 266.814 828.816 266.42 830.469 265.747L826.317 281.24L832.034 282.772Z" fill="white"/>
<path d="M670.913 347.486C663.948 347.486 658.301 339.957 658.301 330.67C658.301 321.382 663.948 313.853 670.913 313.853C677.878 313.853 683.525 321.382 683.525 330.67C683.525 339.957 677.878 347.486 670.913 347.486Z" fill="#3E4039"/>
<path d="M681.196 330.626C681.196 338.089 678.3 344.136 674.729 344.136C671.159 344.136 668.262 338.089 668.262 330.626C668.262 323.164 671.159 317.116 674.729 317.116C678.3 317.101 681.196 323.149 681.196 330.626Z" fill="#D6E3DD"/>
<path d="M773.818 323.952C773.818 336.405 768.807 346.504 762.615 346.504C756.424 346.504 751.413 336.405 751.413 323.952C751.413 311.5 756.424 301.401 762.615 301.401C768.807 301.401 773.818 311.5 773.818 323.952Z" fill="#3E4039"/>
<path d="M771.718 324.429C771.718 332.756 769.741 339.518 767.305 339.518C764.868 339.518 762.891 332.756 762.891 324.429C762.891 316.103 764.868 309.34 767.305 309.34C769.757 309.34 771.718 316.103 771.718 324.429Z" fill="#D6E3DD"/>
<path d="M617.354 350.302C607.444 350.302 599.409 339.585 599.409 326.365C599.409 313.146 607.444 302.429 617.354 302.429C627.265 302.429 635.299 313.146 635.299 326.365C635.299 339.585 627.265 350.302 617.354 350.302Z" fill="#3E4039"/>
<path d="M630.488 324.519C630.488 335.72 625.66 344.791 619.699 344.791C613.738 344.791 608.911 335.705 608.911 324.519C608.911 313.318 613.738 304.247 619.699 304.247C625.645 304.247 630.488 313.318 630.488 324.519Z" fill="#D6E3DD"/>
<path d="M730.005 350.257C720.975 350.257 713.654 339.54 713.654 326.32C713.654 313.1 720.975 302.383 730.005 302.383C739.036 302.383 746.356 313.1 746.356 326.32C746.356 339.54 739.036 350.257 730.005 350.257Z" fill="#3E4039"/>
<path d="M743.858 326.201C743.858 335.6 740.303 343.211 735.936 343.211C731.553 343.211 728.013 335.6 728.013 326.201C728.013 316.802 731.568 309.19 735.936 309.19C740.303 309.176 743.858 316.802 743.858 326.201Z" fill="#D6E3DD"/>
<path d="M773.771 324.117C773.771 324.117 775.104 299.346 771.534 301.863C771.534 301.863 767.09 305.9 767.335 317.19C767.335 317.19 767.58 330.715 761.803 331.788L745.605 333.367C745.605 333.367 748.409 323.327 743.061 311.858C743.061 311.858 742.647 292.062 736.747 300.076C736.38 300.582 736.334 300.88 735.721 302.325C733.928 306.6 730.449 316.609 730.955 328.749L730.924 328.853C730.863 329.107 730.679 329.777 730.372 330.611L730.357 330.656C729.867 332.026 729.024 333.828 727.829 334.975C727.829 334.975 719.277 335.273 706.482 335.586C677.166 336.316 625.553 337.165 603.44 334.782C601.325 334.558 599.501 334.305 597.969 334.022C597.969 334.022 596.145 331.192 595.364 328.168C595.088 327.126 594.935 326.068 595.027 325.085C595.027 325.085 595.103 303.308 600.758 294.445C600.758 294.445 603.149 282.455 612.589 277.927C612.589 277.927 615.362 275.365 619.469 271.7C629.553 262.659 647.682 246.885 652.233 245.857C652.233 245.857 688.429 235.565 730.786 242.267C730.786 242.267 744.578 244.353 754.6 254.72C754.6 254.72 756.899 257.639 759.09 261.929C760.715 265.117 762.278 269.064 762.799 273.145C762.799 273.145 762.83 273.175 762.876 273.235C763.55 273.935 768.193 278.88 769.021 280.727C769.971 282.872 772.3 293.79 773.373 298.512C773.373 298.512 779.319 316.818 773.771 324.117Z" fill="url(#paint34_linear)"/>
<path d="M615.102 271.148L615.087 271.223C614.995 271.402 614.642 272.146 614.612 273.696C614.596 274.202 616.589 274.336 616.589 274.336L619.638 271.7L624.802 266.993C624.772 266.993 618.995 264.878 615.102 271.148Z" fill="#183964"/>
<path d="M737.36 258.547C737.36 258.547 736.548 249.968 739.935 249.372C739.935 249.372 742.601 249.074 743 249.715C746.172 254.868 750.156 263.403 751.842 274.009C751.842 274.009 744.501 277.792 741.62 275.29C738.724 272.817 737.36 258.547 737.36 258.547Z" fill="url(#paint35_linear)"/>
<path d="M744.808 249.134C744.808 249.134 755.811 255.032 758.768 268.363C758.768 268.363 753.343 270.359 752.776 269.883C752.209 269.406 748.179 255.598 744.409 250.34C744.394 250.325 743.413 248.895 744.808 249.134Z" fill="url(#paint36_linear)"/>
<path d="M631.775 273.07C630.15 273.1 629.323 271.164 630.518 270.076C637.108 264.014 648.065 252.142 653.582 250.147C655.88 249.715 676.354 245.961 697.379 245.961C709.209 245.961 719.032 247.123 726.664 249.432C727.399 249.655 727.89 250.325 727.905 251.07C727.982 257.475 724.902 268.542 724.151 271.596C723.967 272.37 723.231 272.906 722.419 272.906C717.285 272.892 700.153 272.817 681.503 272.817C655.666 272.802 640.617 272.921 631.775 273.07Z" fill="url(#paint37_linear)"/>
<path d="M617.676 285.017C615.163 282.366 612.573 277.927 612.573 277.927C609.125 278.94 606.673 280.667 604.942 282.663C600.498 287.758 600.743 294.446 600.743 294.446C601.402 295.235 604.022 295.399 604.022 295.399C607.302 293.969 622.902 297.156 622.902 297.156C622.902 297.156 622.366 289.039 617.676 285.017Z" fill="#D6E3DD"/>
<path d="M722.235 277.523C722.235 277.523 727.169 278.507 728.027 281.754C728.181 282.32 728.211 282.96 728.058 283.675C728.058 283.675 725.591 298.987 716.978 295.398C716.978 295.398 698.512 295.636 690.375 296.604C690.375 296.604 692.628 289.246 701.7 284.792C701.7 284.792 712.933 279.519 722.235 277.523Z" fill="#D6E3DD"/>
<path d="M677.993 320.215C678.514 320.215 678.928 319.783 678.928 319.261V308.299C678.928 307.777 678.514 307.345 677.993 307.345H629.798C629.277 307.345 628.863 307.777 628.863 308.299V319.261C628.863 319.783 629.277 320.215 629.798 320.215H677.993Z" fill="white"/>
<path d="M637.001 313.421L638.135 316.951H637.2L636.51 314.568L635.836 316.951H634.916L635.989 313.421L634.932 310.114H635.851L636.51 312.2L637.108 310.114H638.043L637.001 313.421Z" fill="#979797"/>
<path d="M641.322 313.421L642.456 316.951H641.521L640.816 314.568L640.157 316.951H639.238L640.311 313.421L639.253 310.114H640.173L640.816 312.2L641.429 310.114H642.364L641.322 313.421Z" fill="#979797"/>
<path d="M650.164 313.421L651.313 316.951H650.363L649.674 314.568L648.999 316.951H648.08L649.168 313.421L648.095 310.114H649.015L649.674 312.2L650.271 310.114H651.206L650.164 313.421Z" fill="#979797"/>
<path d="M654.486 313.421L655.62 316.951H654.685L653.996 314.568L653.321 316.951H652.402L653.49 313.421L652.417 310.114H653.337L653.996 312.2L654.593 310.114H655.528L654.486 313.421Z" fill="#979797"/>
<path d="M658.807 313.421L659.941 316.951H659.006L658.301 314.568L657.642 316.951H656.723L657.796 313.421L656.738 310.114H657.658L658.301 312.2L658.914 310.114H659.849L658.807 313.421Z" fill="#979797"/>
<path d="M667.649 313.421L668.798 316.951H667.848L667.159 314.568L666.484 316.951H665.565L666.653 313.421L665.58 310.114H666.515L667.159 312.2L667.772 310.114H668.691L667.649 313.421Z" fill="#979797"/>
<path d="M673.105 316.952H672.17L671.48 314.568L670.806 316.952H669.886L670.974 313.421L669.902 310.115H670.821L671.48 312.2L672.078 310.115H673.013L671.971 313.421L673.105 316.952Z" fill="#979797"/>
<path d="M644.112 313.123V313.927H646.441V313.123H644.112Z" fill="#979797"/>
<path d="M661.673 313.123V313.927H664.002V313.123H661.673Z" fill="#979797"/>
<path d="M632.02 320.212H628.955C628.419 320.212 627.975 319.78 627.975 319.244V308.132C627.975 307.596 628.419 307.164 628.955 307.164H632.02V320.212Z" fill="#183964"/>
<path d="M680.047 308.148V319.26C680.047 319.797 679.603 320.229 679.066 320.229H676.001V307.195H679.066C679.618 307.18 680.047 307.612 680.047 308.148Z" fill="#183964"/>
<path d="M646.93 264C650.072 263.046 652.983 261.75 655.864 260.395C658.715 258.995 661.519 257.52 664.109 255.718C660.967 256.671 658.041 257.967 655.175 259.322C652.324 260.723 649.52 262.197 646.93 264Z" fill="#CAC9C9"/>
<path d="M665.075 264.834C668.216 263.88 671.143 262.584 674.009 261.229C676.859 259.829 679.663 258.354 682.253 256.552C679.112 257.505 676.185 258.786 673.319 260.156C670.469 261.557 667.664 263.031 665.075 264.834Z" fill="#CAC9C9"/>
<path d="M650.747 266.487C655.467 264.848 659.972 262.867 664.447 260.812C668.891 258.726 673.289 256.552 677.473 254.049C672.753 255.688 668.232 257.669 663.773 259.724C659.344 261.825 654.946 263.999 650.747 266.487Z" fill="#CAC9C9"/>
<path d="M738.188 274.574L739.23 277.449C739.23 277.449 756.102 279.326 760.485 274.097C760.485 274.097 761.634 262.211 743.413 266.203C741.406 266.635 743.337 274.187 743.337 274.187C743.337 274.187 739.996 275.14 738.188 274.574Z" fill="#183964"/>
<path d="M179.31 344.792C185.881 344.792 191.209 337.478 191.209 328.456C191.209 319.433 185.881 312.119 179.31 312.119C172.738 312.119 167.41 319.433 167.41 328.456C167.41 337.478 172.738 344.792 179.31 344.792Z" fill="#3E4039"/>
<path d="M169.611 328.384C169.611 335.631 172.349 341.518 175.713 341.518C179.077 341.518 181.815 335.649 181.815 328.384C181.815 321.137 179.077 315.25 175.713 315.25C172.349 315.268 169.611 321.137 169.611 328.384Z" fill="#D6E3DD"/>
<path d="M82.1829 321.925C82.1829 334.021 86.9246 343.827 92.758 343.827C98.6092 343.827 103.333 334.021 103.333 321.925C103.333 309.829 98.5913 300.023 92.758 300.023C86.9068 300.023 82.1829 309.829 82.1829 321.925Z" fill="#3E4039"/>
<path d="M84.1515 322.39C84.1515 330.478 86.0124 337.045 88.3207 337.045C90.629 337.045 92.4899 330.478 92.4899 322.39C92.4899 314.302 90.629 307.735 88.3207 307.735C86.0303 307.735 84.1515 314.302 84.1515 322.39Z" fill="#D6E3DD"/>
<path d="M229.877 347.513C239.235 347.513 246.822 337.106 246.822 324.269C246.822 311.432 239.235 301.025 229.877 301.025C220.518 301.025 212.931 311.432 212.931 324.269C212.931 337.106 220.518 347.513 229.877 347.513Z" fill="#3E4039"/>
<path d="M217.476 322.462C217.476 333.341 222.039 342.163 227.658 342.163C233.276 342.163 237.839 333.341 237.839 322.462C237.839 311.582 233.276 302.761 227.658 302.761C222.039 302.779 217.476 311.6 217.476 322.462Z" fill="#D6E3DD"/>
<path d="M123.553 347.459C132.082 347.459 138.995 337.053 138.995 324.216C138.995 311.378 132.082 300.972 123.553 300.972C115.025 300.972 108.111 311.378 108.111 324.216C108.111 337.053 115.025 347.459 123.553 347.459Z" fill="#3E4039"/>
<path d="M110.473 324.108C110.473 333.234 113.819 340.624 117.952 340.624C122.086 340.624 125.432 333.234 125.432 324.108C125.432 314.982 122.086 307.592 117.952 307.592C113.819 307.574 110.473 314.965 110.473 324.108Z" fill="#D6E3DD"/>
<path d="M82.2366 322.068C82.2366 322.068 80.984 298.019 84.348 300.471C84.348 300.471 88.5351 304.389 88.3025 315.34C88.3025 315.34 88.0699 328.474 93.5274 329.512L108.826 331.051C108.826 331.051 106.178 321.299 111.224 310.151C111.224 310.151 111.618 290.933 117.183 298.717C117.523 299.2 117.576 299.486 118.149 300.9C119.849 305.051 123.123 314.768 122.658 326.559L122.694 326.667C122.748 326.917 122.927 327.561 123.213 328.385L123.231 328.42C123.696 329.744 124.501 331.498 125.611 332.607C125.611 332.607 133.681 332.894 145.759 333.198C173.44 333.914 222.147 334.737 243.011 332.411C244.997 332.196 246.733 331.945 248.182 331.659C248.182 331.659 249.9 328.921 250.651 325.969C250.92 324.949 251.063 323.929 250.973 322.981C250.973 322.981 250.902 301.83 245.552 293.224C245.552 293.224 246.017 280.662 234.386 277.191C234.386 277.191 231.774 274.704 227.891 271.143C218.371 262.357 201.265 247.04 196.97 246.038C196.97 246.038 162.794 236.036 122.819 242.549C122.819 242.549 109.811 244.571 100.345 254.645C100.345 254.645 98.1798 257.472 96.1041 261.641C94.5653 264.737 93.098 268.584 92.597 272.539C92.597 272.539 92.5791 272.574 92.5254 272.628C91.8991 273.308 87.4973 278.103 86.7279 279.911C85.8332 281.986 83.6323 292.597 82.6123 297.178C82.6123 297.214 76.9937 314.982 82.2366 322.068Z" fill="url(#paint38_linear)"/>
<path d="M232.006 270.642L232.024 270.713C232.113 270.892 232.435 271.608 232.471 273.111C232.489 273.594 230.61 273.737 230.61 273.737L227.729 271.179L222.862 266.616C222.862 266.616 228.32 264.558 232.006 270.642Z" fill="#036E33"/>
<path d="M116.592 258.403C116.592 258.403 117.361 250.064 114.159 249.492C114.159 249.492 111.636 249.205 111.278 249.832C108.272 254.842 104.514 263.127 102.939 273.433C102.939 273.433 109.864 277.101 112.584 274.686C115.322 272.252 116.592 258.403 116.592 258.403Z" fill="url(#paint39_linear)"/>
<path d="M109.56 249.259C109.56 249.259 99.1822 254.985 96.3907 267.94C96.3907 267.94 101.508 269.872 102.045 269.407C102.582 268.942 106.375 255.54 109.954 250.422C109.954 250.422 110.885 249.026 109.56 249.259Z" fill="url(#paint40_linear)"/>
<path d="M216.26 272.521C217.799 272.556 218.568 270.678 217.459 269.604C211.232 263.717 200.907 252.193 195.682 250.243C193.517 249.814 174.192 246.181 154.348 246.181C143.182 246.181 133.913 247.308 126.702 249.545C126.004 249.76 125.539 250.404 125.539 251.138C125.467 257.347 128.384 268.101 129.082 271.071C129.261 271.823 129.941 272.342 130.728 272.342C135.577 272.324 151.753 272.252 169.36 272.252C193.714 272.252 207.903 272.36 216.26 272.521Z" fill="url(#paint41_linear)"/>
<path d="M229.572 284.117C231.952 281.54 234.386 277.228 234.386 277.228C237.642 278.212 239.951 279.894 241.597 281.826C245.784 286.765 245.551 293.26 245.551 293.26C244.925 294.03 242.456 294.191 242.456 294.191C239.36 292.795 224.634 295.891 224.634 295.891C224.634 295.891 225.135 288.017 229.572 284.117Z" fill="#D6E3DD"/>
<path d="M130.871 276.833C130.871 276.833 126.219 277.799 125.396 280.949C125.253 281.503 125.217 282.13 125.36 282.809C125.36 282.809 127.686 297.679 135.81 294.19C135.81 294.19 153.238 294.422 160.915 295.353C160.915 295.353 158.785 288.213 150.232 283.883C150.25 283.883 139.657 278.783 130.871 276.833Z" fill="#D6E3DD"/>
<path d="M171.614 318.292C171.113 318.292 170.684 317.881 170.684 317.362V306.715C170.684 306.214 171.096 305.785 171.614 305.785H218.925C219.444 305.785 219.856 306.196 219.856 306.715V317.362C219.856 317.881 219.444 318.292 218.925 318.292H171.614Z" fill="white"/>
<path d="M211.322 311.691L210.248 315.127H211.143L211.805 312.818L212.431 315.127H213.29L212.27 311.691L213.29 308.47H212.413L211.805 310.51L211.214 308.47H210.338L211.322 311.691Z" fill="#979797"/>
<path d="M207.241 311.691L206.168 315.127H207.062L207.724 312.818L208.351 315.127H209.21L208.19 311.691L209.21 308.47H208.333L207.724 310.51L207.152 308.47H206.275L207.241 311.691Z" fill="#979797"/>
<path d="M198.904 311.691L197.83 315.127H198.707L199.369 312.818L199.995 315.127H200.872L199.852 311.691L200.854 308.47H199.978L199.369 310.51L198.797 308.47H197.92L198.904 311.691Z" fill="#979797"/>
<path d="M194.823 311.691L193.75 315.127H194.627L195.289 312.818L195.915 315.127H196.792L195.772 311.691L196.774 308.47H195.897L195.289 310.51L194.716 308.47H193.839L194.823 311.691Z" fill="#979797"/>
<path d="M190.744 311.691L189.67 315.127H190.547L191.209 312.818L191.835 315.127H192.712L191.692 311.691L192.694 308.47H191.817L191.209 310.51L190.636 308.47H189.76L190.744 311.691Z" fill="#979797"/>
<path d="M182.387 311.691L181.313 315.127H182.208L182.852 312.818L183.497 315.127H184.355L183.335 311.691L184.355 308.47H183.479L182.852 310.51L182.28 308.47H181.403L182.387 311.691Z" fill="#979797"/>
<path d="M177.234 315.127H178.129L178.791 312.818L179.417 315.127H180.276L179.256 311.691L180.276 308.47H179.399L178.791 310.51L178.218 308.47H177.341L178.308 311.691L177.234 315.127Z" fill="#979797"/>
<path d="M204.629 311.405V312.192H202.428V311.405H204.629Z" fill="#979797"/>
<path d="M188.041 311.405V312.192H185.84V311.405H188.041Z" fill="#979797"/>
<path d="M216.027 318.293H218.925C219.444 318.293 219.856 317.881 219.856 317.362V306.716C219.856 306.215 219.444 305.785 218.925 305.785H216.027V318.293Z" fill="url(#paint42_linear)"/>
<path d="M170.684 306.715V317.362C170.684 317.88 171.096 318.292 171.614 318.292H174.513V305.802H171.614C171.113 305.802 170.684 306.214 170.684 306.715Z" fill="url(#paint43_linear)"/>
<path d="M201.945 263.7C198.992 262.769 196.219 261.517 193.517 260.192C190.833 258.833 188.184 257.401 185.733 255.647C188.685 256.578 191.459 257.83 194.161 259.155C196.863 260.515 199.511 261.946 201.945 263.7Z" fill="#CAC9C9"/>
<path d="M184.838 264.505C181.886 263.574 179.112 262.322 176.411 260.998C173.709 259.638 171.078 258.206 168.627 256.453C171.597 257.383 174.353 258.636 177.055 259.96C179.739 261.32 182.387 262.751 184.838 264.505Z" fill="#CAC9C9"/>
<path d="M198.348 266.115C193.893 264.523 189.634 262.608 185.411 260.604C181.206 258.582 177.073 256.471 173.118 254.037C177.574 255.63 181.833 257.544 186.055 259.548C190.243 261.588 194.394 263.7 198.348 266.115Z" fill="#CAC9C9"/>
<path d="M115.822 273.97L114.838 276.762C114.838 276.762 98.913 278.587 94.7796 273.505C94.7796 273.505 93.6881 261.964 110.902 265.829C112.798 266.258 110.973 273.577 110.973 273.577C110.973 273.577 114.105 274.507 115.822 273.97Z" fill="#036E33"/>
<path d="M787 264.26L788.78 261L799.92 262.93L798.14 266.19L787 264.26Z" fill="white"/>
<path d="M363.702 225.472L368.554 218.599L361.681 213.746L362.447 205.362L354.063 204.596L350.543 196.957L342.892 200.477L336.019 195.624L331.166 202.498L322.782 201.731L322.016 210.115L314.376 213.646L317.907 221.286L313.044 228.16L319.917 233.012L319.151 241.396L327.535 242.162L331.066 249.802L338.706 246.282L345.579 251.134L350.432 244.261L358.816 245.027L359.582 236.643L367.222 233.112L363.702 225.472Z" fill="url(#paint44_linear)"/>
<path d="M497.964 225.299C497.766 225.58 497.45 225.781 497.081 225.807C489.567 226.342 480.326 228.388 471.402 230.354C456.335 233.683 443.324 236.558 438.802 232.493C437.524 231.343 436.97 229.739 437.168 227.746C437.234 227.078 437.814 226.583 438.473 226.65C439.132 226.717 439.62 227.305 439.554 227.974C439.409 229.578 439.962 230.287 440.398 230.675C444.023 233.937 457.679 230.915 470.901 227.987C479.918 225.995 489.237 223.935 496.922 223.387C497.582 223.347 498.148 223.842 498.201 224.51C498.214 224.804 498.122 225.085 497.964 225.299Z" fill="url(#paint45_linear)"/>
<path d="M630.088 212.849C629.323 211.791 628.148 211.109 626.866 210.933C607.607 208.336 552.711 198.97 540.612 198.076C539.083 197.959 534.839 197.959 532.864 198.206C516.556 200.297 486.985 215.081 486.985 215.081C477.955 217.831 481.824 222.932 481.824 222.932L512.088 255.99C512.923 256.895 513.828 257.753 514.827 258.469C519.025 261.501 522.693 261.807 525.456 262.653L615.25 278.965C617.777 279.27 620.094 277.555 620.54 275.051L630.922 216.503C631.158 215.222 630.852 213.906 630.088 212.849ZM503.305 230.829C499.836 232.263 495.851 230.606 494.416 227.139C492.982 223.672 494.639 219.688 498.108 218.254C501.576 216.821 505.562 218.478 506.997 221.945C508.431 225.423 506.773 229.395 503.305 230.829Z" fill="url(#paint46_linear)"/>
<path d="M497.973 225.17C497.841 225.357 497.643 225.517 497.405 225.61C496.785 225.837 496.098 225.503 495.874 224.876C494.514 221.009 486.04 217.875 474.793 217.102C461.224 216.168 444.71 218.915 440.499 227.17C440.209 227.77 439.47 227.997 438.889 227.69C438.295 227.384 438.071 226.65 438.374 226.063C443.087 216.795 460.168 213.661 474.965 214.688C484.825 215.368 496.085 218.195 498.144 224.063C498.263 224.45 498.197 224.863 497.973 225.17Z" fill="url(#paint47_linear)"/>
<path d="M371.264 346.953C379.175 346.953 385.588 338.148 385.588 327.287C385.588 316.426 379.175 307.622 371.264 307.622C363.353 307.622 356.939 316.426 356.939 327.287C356.939 338.148 363.353 346.953 371.264 346.953Z" fill="#3E4039"/>
<path d="M382.934 327.22C382.934 335.948 379.648 343.022 375.583 343.022C371.53 343.022 368.232 335.948 368.232 327.22C368.232 318.492 371.519 311.419 375.583 311.419C379.648 311.419 382.934 318.492 382.934 327.22Z" fill="#D6E3DD"/>
<path d="M488.181 319.437C488.181 333.995 482.485 345.798 475.444 345.798C468.415 345.798 462.708 333.995 462.708 319.437C462.708 304.879 468.404 293.075 475.444 293.075C482.473 293.075 488.181 304.879 488.181 319.437Z" fill="#3E4039"/>
<path d="M485.794 319.992C485.794 329.73 483.55 337.626 480.774 337.626C478.009 337.626 475.755 329.73 475.755 319.992C475.755 310.254 477.998 302.358 480.774 302.358C483.55 302.358 485.794 310.254 485.794 319.992Z" fill="#D6E3DD"/>
<path d="M310.412 350.24C321.672 350.24 330.8 337.712 330.8 322.257C330.8 306.803 321.672 294.274 310.412 294.274C299.152 294.274 290.025 306.803 290.025 322.257C290.025 337.712 299.152 350.24 310.412 350.24Z" fill="#3E4039"/>
<path d="M325.325 320.091C325.325 333.183 319.84 343.799 313.066 343.799C306.292 343.799 300.807 333.183 300.807 320.091C300.807 307 306.292 296.384 313.066 296.384C319.84 296.384 325.325 307 325.325 320.091Z" fill="#D6E3DD"/>
<path d="M438.39 350.174C448.65 350.174 456.967 337.645 456.967 322.191C456.967 306.736 448.65 294.208 438.39 294.208C428.129 294.208 419.812 306.736 419.812 322.191C419.812 337.645 428.129 350.174 438.39 350.174Z" fill="#3E4039"/>
<path d="M454.124 322.058C454.124 333.04 450.093 341.945 445.119 341.945C440.144 341.945 436.113 333.04 436.113 322.058C436.113 311.076 440.144 302.17 445.119 302.17C450.093 302.17 454.124 311.064 454.124 322.058Z" fill="#D6E3DD"/>
<path d="M488.114 319.615C488.114 319.615 489.625 290.666 485.56 293.608C485.56 293.608 480.519 298.328 480.797 311.52C480.797 311.52 481.085 327.321 474.512 328.587L456.101 330.43C456.101 330.43 459.288 318.704 453.214 305.279C453.214 305.279 452.747 282.138 446.04 291.521C445.618 292.109 445.574 292.453 444.874 294.152C442.842 299.16 438.889 310.842 439.455 325.033L439.422 325.156C439.355 325.444 439.144 326.233 438.8 327.21L438.789 327.254C438.223 328.853 437.268 330.963 435.913 332.307C435.913 332.307 426.197 332.651 411.661 333.029C378.348 333.884 319.707 334.872 294.6 332.085C292.201 331.829 290.114 331.518 288.381 331.185C288.381 331.185 286.316 327.887 285.417 324.345C285.106 323.124 284.928 321.88 285.028 320.747C285.028 320.747 285.117 295.285 291.546 284.936C291.546 284.936 290.991 269.823 304.982 265.637C304.982 265.637 308.136 262.65 312.8 258.352C324.259 247.781 344.858 229.337 350.021 228.137C350.021 228.137 391.152 216.111 439.267 223.94C439.267 223.94 454.924 226.372 466.317 238.487C466.317 238.487 468.926 241.896 471.413 246.915C473.257 250.635 475.033 255.265 475.633 260.029C475.633 260.029 475.666 260.062 475.733 260.129C476.499 260.951 481.785 266.725 482.718 268.89C483.806 271.4 486.449 284.17 487.659 289.677C487.659 289.7 494.422 311.086 488.114 319.615Z" fill="url(#paint48_linear)"/>
<path d="M307.847 257.708L307.836 257.786C307.725 257.997 307.337 258.863 307.292 260.684C307.281 261.273 309.535 261.439 309.535 261.439L312.989 258.352L318.852 252.856C318.841 252.856 312.267 250.39 307.847 257.708Z" fill="#F39121"/>
<path d="M446.751 242.984C446.751 242.984 445.829 232.956 449.671 232.268C449.671 232.268 452.702 231.924 453.147 232.668C456.756 238.697 461.275 248.669 463.185 261.073C463.185 261.073 454.857 265.492 451.57 262.572C448.294 259.662 446.751 242.984 446.751 242.984Z" fill="url(#paint49_linear)"/>
<path d="M455.212 231.969C455.212 231.969 467.705 238.864 471.069 254.444C471.069 254.444 464.918 256.776 464.262 256.22C463.607 255.665 459.043 239.531 454.746 233.379C454.746 233.368 453.625 231.691 455.212 231.969Z" fill="url(#paint50_linear)"/>
<path d="M326.802 259.962C324.948 259.996 324.026 257.741 325.369 256.464C332.865 249.369 345.302 235.5 351.576 233.168C354.174 232.657 377.438 228.282 401.323 228.282C414.759 228.282 425.93 229.648 434.591 232.335C435.424 232.59 435.99 233.379 436.002 234.245C436.09 241.729 432.581 254.677 431.737 258.23C431.527 259.141 430.694 259.762 429.761 259.762C423.92 259.74 404.465 259.662 383.267 259.662C353.93 259.64 336.84 259.774 326.802 259.962Z" fill="url(#paint51_linear)"/>
<path d="M310.778 273.92C307.925 270.822 304.982 265.636 304.982 265.636C301.062 266.813 298.275 268.845 296.309 271.166C291.257 277.118 291.546 284.935 291.546 284.935C292.301 285.857 295.277 286.057 295.277 286.057C299.008 284.38 316.73 288.111 316.73 288.111C316.73 288.111 316.108 278.617 310.778 273.92Z" fill="#D6E3DD"/>
<path d="M429.561 265.17C429.561 265.17 435.169 266.325 436.146 270.111C436.324 270.778 436.357 271.522 436.18 272.354C436.18 272.354 433.381 290.255 423.587 286.057C423.587 286.057 402.611 286.335 393.373 287.456C393.373 287.456 395.927 278.862 406.231 273.654C406.242 273.654 419.001 267.502 429.561 265.17Z" fill="#D6E3DD"/>
<path d="M380.525 315.062H323.593C322.982 315.062 322.482 314.562 322.482 313.952V301.137C322.482 300.527 322.982 300.027 323.593 300.027H380.525C381.135 300.027 381.635 300.527 381.635 301.137V313.952C381.635 314.562 381.146 315.062 380.525 315.062Z" fill="white"/>
<path d="M333.909 303.248H332.854L332.165 305.69L331.432 303.248H330.378L331.588 307.134L330.366 311.254H331.41L332.165 308.467L332.965 311.254H334.02L332.732 307.112L333.909 303.248Z" fill="#979797"/>
<path d="M338.817 303.247H337.762L337.073 305.69L336.341 303.247H335.286L336.496 307.134L335.275 311.253H336.318L337.073 308.466L337.862 311.253H338.928L337.64 307.111L338.817 303.247Z" fill="#979797"/>
<path d="M348.866 303.247H347.811L347.123 305.69L346.39 303.247H345.335L346.545 307.134L345.324 311.253H346.368L347.123 308.466L347.922 311.253H348.988L347.689 307.111L348.866 303.247Z" fill="#979797"/>
<path d="M353.774 303.247H352.719L352.031 305.69L351.298 303.247H350.243L351.454 307.134L350.232 311.253H351.276L352.031 308.466L352.83 311.253H353.885L352.597 307.111L353.774 303.247Z" fill="#979797"/>
<path d="M358.682 303.247H357.627L356.939 305.69L356.206 303.247H355.151L356.361 307.134L355.14 311.253H356.184L356.939 308.466L357.727 311.253H358.793L357.505 307.111L358.682 303.247Z" fill="#979797"/>
<path d="M368.732 303.247H367.677L366.988 305.69L366.255 303.247H365.201L366.411 307.134L365.189 311.253H366.233L366.988 308.466L367.788 311.253H368.854L367.555 307.111L368.732 303.247Z" fill="#979797"/>
<path d="M372.463 307.122L373.64 303.247H372.585L371.897 305.69L371.164 303.247H370.109L371.319 307.134L370.098 311.253H371.141L371.897 308.466L372.696 311.253H373.762L372.463 307.122Z" fill="#979797"/>
<path d="M343.458 306.778V307.722H340.804V306.778H343.458Z" fill="#979797"/>
<path d="M363.413 306.778V307.722H360.759V306.778H363.413Z" fill="#979797"/>
<path d="M327.08 300.027H323.593C322.982 300.027 322.482 300.527 322.482 301.138V313.952C322.482 314.563 322.982 315.063 323.593 315.063H327.08V300.027Z" fill="url(#paint52_linear)"/>
<path d="M380.525 300.027H377.038V315.062H380.525C381.135 315.062 381.635 314.562 381.635 313.952V301.137C381.635 300.527 381.135 300.027 380.525 300.027Z" fill="url(#paint53_linear)"/>
<path d="M344.014 249.358C346.956 247.248 350.143 245.516 353.386 243.884C356.65 242.285 359.971 240.786 363.535 239.664C360.592 241.774 357.406 243.506 354.163 245.138C350.898 246.738 347.578 248.248 344.014 249.358Z" fill="#CAC9C9"/>
<path d="M364.623 250.335C367.566 248.225 370.753 246.493 373.995 244.861C377.26 243.262 380.58 241.763 384.145 240.641C381.202 242.751 378.015 244.483 374.773 246.116C371.508 247.703 368.188 249.214 364.623 250.335Z" fill="#CAC9C9"/>
<path d="M348.356 252.267C353.119 249.347 358.116 246.815 363.158 244.372C368.232 241.973 373.363 239.664 378.726 237.743C373.962 240.663 368.976 243.206 363.924 245.638C358.838 248.036 353.708 250.346 348.356 252.267Z" fill="#CAC9C9"/>
<path d="M447.683 261.717L448.86 265.07C448.86 265.07 468.026 267.258 473.012 261.15C473.012 261.15 474.323 247.259 453.613 251.923C451.337 252.433 453.524 261.25 453.524 261.25C453.524 261.25 449.738 262.372 447.683 261.717Z" fill="#F39121"/>
<path d="M518.19 227.005L520.167 223.385L532.537 225.528L530.56 229.148L518.19 227.005Z" fill="white"/>
<path d="M587.791 231.248C588.821 228.647 589.99 226.888 591.299 225.971C592.619 225.054 594.378 224.784 596.598 225.172C598.336 225.474 599.527 226.014 600.181 226.791C600.836 227.568 601.039 228.668 600.793 230.114C600.642 231.01 600.31 232.089 599.806 233.352C598.754 235.942 597.574 237.701 596.277 238.629C594.979 239.557 593.198 239.816 590.956 239.427C589.25 239.125 588.06 238.596 587.405 237.819C586.751 237.042 586.547 235.942 586.794 234.496C586.955 233.589 587.287 232.51 587.791 231.248ZM586 251.966L608.784 227.298L613 228.032L590.216 252.7L586 251.966ZM592.468 232.068C591.868 233.578 591.514 234.614 591.417 235.175C591.288 235.92 591.535 236.341 592.147 236.449C592.704 236.546 593.176 236.341 593.552 235.844C593.927 235.337 594.464 234.237 595.15 232.532C595.751 231.021 596.105 229.985 596.201 229.424C596.33 228.679 596.073 228.248 595.44 228.14C594.903 228.043 594.442 228.248 594.056 228.755C593.648 229.251 593.123 230.352 592.468 232.068ZM599.259 246.657C600.288 244.056 601.458 242.297 602.766 241.38C604.086 240.463 605.867 240.193 608.108 240.582C609.814 240.884 611.005 241.413 611.659 242.19C612.313 242.966 612.517 244.067 612.271 245.513C612.12 246.409 611.788 247.488 611.284 248.75C610.232 251.34 609.052 253.099 607.754 254.027C606.457 254.955 604.676 255.214 602.434 254.826C600.728 254.524 599.538 253.995 598.883 253.218C598.229 252.441 598.025 251.34 598.272 249.894C598.422 248.999 598.744 247.92 599.259 246.657ZM603.925 247.477C603.324 248.988 602.97 250.024 602.874 250.585C602.745 251.33 602.992 251.75 603.603 251.858C604.161 251.955 604.633 251.75 605.008 251.254C605.384 250.747 605.92 249.646 606.607 247.941C607.207 246.43 607.561 245.394 607.658 244.833C607.787 244.089 607.54 243.668 606.928 243.56C606.371 243.463 605.899 243.668 605.523 244.164C605.148 244.661 604.611 245.772 603.925 247.477Z" fill="white"/>
<path d="M331.133 222.663C332.177 225.05 331.078 227.838 328.69 228.87C326.303 229.914 323.516 228.815 322.483 226.427C321.439 224.04 322.538 221.253 324.926 220.22C327.313 219.187 330.1 220.276 331.133 222.663Z" fill="white"/>
<path d="M325.87 221.886C325.803 221.908 325.736 221.919 325.67 221.952C324.237 222.574 323.582 224.251 324.204 225.683C324.826 227.116 326.503 227.771 327.935 227.149C329.368 226.527 330.023 224.851 329.401 223.418C329.323 223.252 329.234 223.085 329.134 222.941C327.702 223.485 326.647 222.885 325.87 221.886Z" fill="#0C4D86"/>
<path d="M356.518 211.614C357.561 214.002 356.462 216.789 354.075 217.822C351.687 218.866 348.9 217.766 347.867 215.379C346.823 212.991 347.923 210.204 350.31 209.171C352.698 208.128 355.474 209.227 356.518 211.614Z" fill="white"/>
<path d="M351.254 210.837C351.187 210.86 351.121 210.871 351.054 210.904C349.622 211.526 348.967 213.203 349.588 214.635C350.21 216.068 351.887 216.723 353.319 216.101C354.752 215.479 355.407 213.802 354.785 212.37C354.707 212.203 354.619 212.037 354.519 211.892C353.086 212.436 352.031 211.826 351.254 210.837Z" fill="#0C4D86"/>
<path d="M341.56 224.074C343.803 223.096 344.369 220.72 344.225 219.177C344.092 217.633 343.192 218.033 343.192 218.033L339.606 219.599L336.019 221.164C336.019 221.164 335.12 221.553 336.152 222.708C337.185 223.84 339.317 225.051 341.56 224.074Z" fill="white"/>
<path d="M554.682 235.019C554.638 235.204 554.562 235.564 554.638 235.684C554.78 235.902 555.292 235.968 555.663 236.044C555.936 236.098 555.38 238.759 555.183 239.663C554.998 240.536 554.682 242.04 554.409 241.986C553.766 241.855 553.733 241.8 553.406 241.964C553.188 242.106 553.21 242.215 553.155 242.487C552.785 244.275 552.589 245.18 552.24 246.826C552.131 247.328 550.888 247.121 549.699 246.87C548.784 246.674 546.014 245.998 546.123 245.496C546.461 243.894 546.516 243.621 546.887 241.888C546.941 241.615 547.094 241.124 547.028 240.776C546.908 240.459 546.298 240.383 545.84 240.285C544.423 239.991 539.669 238.988 538.252 238.693C538.023 238.65 537.652 238.617 537.554 238.355C537.434 237.995 537.565 237.636 537.641 237.276C538.012 235.488 537.958 235.771 538.339 233.983C538.448 233.482 538.514 233.166 538.732 232.588C538.917 232.152 539.157 231.727 539.364 231.389C543.093 225.676 546.265 220.617 550.484 214.621C550.953 213.956 551.575 213.748 554.551 214.381C557.843 215.079 558.814 215.417 558.727 215.874C556.96 224.182 556.437 226.7 554.682 235.019ZM548.631 233.602C549.612 229.372 549.536 229.546 550.517 225.305C550.615 224.847 550.844 223.986 550.615 223.942C550.299 223.877 549.983 224.673 549.787 225.152C548.718 227.507 548.064 228.565 546.952 230.909C546.712 231.389 546.625 231.552 546.429 232.043C546.32 232.348 546.243 232.435 546.178 232.751C546.003 233.58 546.102 233.122 546.047 233.395C545.938 233.896 546.123 233.7 546.265 233.962C546.331 234.114 546.232 234.103 546.876 234.234C547.519 234.365 548.119 234.452 548.326 234.398C548.522 234.343 548.555 233.972 548.631 233.602Z" fill="white"/>
<path d="M578.078 219.406C578.765 219.548 578.46 221.445 578.274 222.361C578.078 223.277 577.489 225.632 576.89 225.512C575.015 225.119 571.722 224.422 569.89 224.04C569.389 223.931 569.116 223.876 568.768 224.138C568.43 224.4 568.386 224.585 568.288 225.043C567.666 228.019 568.266 225.13 567.655 228.063C567.514 228.75 567.143 229.818 567.928 229.938C568.473 230.058 569.138 229.426 571.33 229.895C573.39 230.331 574.23 231.312 574.96 232.62C575.691 233.918 575.734 235.073 575.429 236.491C575.124 237.951 574.797 239.511 574.491 240.971C574.099 242.847 572.747 245.191 571.439 246.39C570.196 247.513 567.47 248.897 565.05 249.061C561.757 249.279 557.385 248.974 556.524 248.276C556.273 248.08 556.862 245.529 556.971 245.027C557.058 244.613 557.527 242.378 557.745 242.225C558.574 241.68 559.5 242.258 562.226 242.258C563.752 242.247 564.439 242.149 565.551 241.909C566.445 241.713 567.318 240.993 567.503 240.121C567.797 238.704 567.688 239.249 567.972 237.875C568.321 236.229 568.626 235.193 567.437 234.942C566.434 234.735 566.249 235.171 566.064 235.564C565.966 235.782 565.072 235.498 564.657 235.455C564.232 235.411 560.416 234.757 559.315 234.288C559.097 234.19 559.446 232.98 559.599 232.25C560.82 226.439 561.441 223.473 562.619 217.891C562.738 217.346 562.935 216.855 563.055 216.735C563.523 216.31 563.796 216.408 564.341 216.528C567.012 217.073 575.472 218.861 578.078 219.406Z" fill="white"/>
<defs>
<filter id="filter0_d" x="1034.46" y="205.522" width="197.653" height="28.262" filterUnits="userSpaceOnUse" color-interpolation-filters="sRGB">
<feFlood flood-opacity="0" result="BackgroundImageFix"/>
<feColorMatrix in="SourceAlpha" type="matrix" values="0 0 0 0 0 0 0 0 0 0 0 0 0 0 0 0 0 0 127 0"/>
<feOffset dy="4"/>
<feGaussianBlur stdDeviation="2"/>
<feColorMatrix type="matrix" values="0 0 0 0 0 0 0 0 0 0 0 0 0 0 0 0 0 0 0.25 0"/>
<feBlend mode="normal" in2="BackgroundImageFix" result="effect1_dropShadow"/>
<feBlend mode="normal" in="SourceGraphic" in2="effect1_dropShadow" result="shape"/>
</filter>
<linearGradient id="paint0_linear" x1="1177.31" y1="276.597" x2="1563.46" y2="-108.733" gradientUnits="userSpaceOnUse">
<stop stop-color="#FFDC2E"/>
<stop offset="0.0902" stop-color="#FFE359"/>
<stop offset="0.1987" stop-color="#FFEA84"/>
<stop offset="0.3124" stop-color="#FFF1AA"/>
<stop offset="0.4299" stop-color="#FFF6C9"/>
<stop offset="0.5524" stop-color="#FFFAE1"/>
<stop offset="0.682" stop-color="#FFFDF2"/>
<stop offset="0.8237" stop-color="#FFFEFC"/>
<stop offset="1" stop-color="white"/>
</linearGradient>
<linearGradient id="paint1_linear" x1="918.821" y1="262.148" x2="918.821" y2="353.601" gradientUnits="userSpaceOnUse">
<stop stop-color="#B3FFFF"/>
<stop offset="0.069" stop-color="#BDFFFF"/>
<stop offset="0.3065" stop-color="#DAFFFF"/>
<stop offset="0.5428" stop-color="#EEFFFF"/>
<stop offset="0.7755" stop-color="#FBFFFF"/>
<stop offset="1" stop-color="white"/>
</linearGradient>
<linearGradient id="paint2_linear" x1="976.665" y1="202.224" x2="976.665" y2="257.876" gradientUnits="userSpaceOnUse">
<stop stop-color="#B3FFFF"/>
<stop offset="0.069" stop-color="#BDFFFF"/>
<stop offset="0.3065" stop-color="#DAFFFF"/>
<stop offset="0.5428" stop-color="#EEFFFF"/>
<stop offset="0.7755" stop-color="#FBFFFF"/>
<stop offset="1" stop-color="white"/>
</linearGradient>
<linearGradient id="paint3_linear" x1="1137.67" y1="158.408" x2="1137.67" y2="185.601" gradientUnits="userSpaceOnUse">
<stop stop-color="#B3FFFF"/>
<stop offset="0.069" stop-color="#BDFFFF"/>
<stop offset="0.3065" stop-color="#DAFFFF"/>
<stop offset="0.5428" stop-color="#EEFFFF"/>
<stop offset="0.7755" stop-color="#FBFFFF"/>
<stop offset="1" stop-color="white"/>
</linearGradient>
<linearGradient id="paint4_linear" x1="917.123" y1="217.688" x2="917.123" y2="258.162" gradientUnits="userSpaceOnUse">
<stop stop-color="#B3FFFF"/>
<stop offset="0.069" stop-color="#BDFFFF"/>
<stop offset="0.3065" stop-color="#DAFFFF"/>
<stop offset="0.5428" stop-color="#EEFFFF"/>
<stop offset="0.7755" stop-color="#FBFFFF"/>
<stop offset="1" stop-color="white"/>
</linearGradient>
<linearGradient id="paint5_linear" x1="1286.29" y1="128.729" x2="1286.29" y2="197.742" gradientUnits="userSpaceOnUse">
<stop stop-color="#B3FFFF"/>
<stop offset="0.069" stop-color="#BDFFFF"/>
<stop offset="0.3065" stop-color="#DAFFFF"/>
<stop offset="0.5428" stop-color="#EEFFFF"/>
<stop offset="0.7755" stop-color="#FBFFFF"/>
<stop offset="1" stop-color="white"/>
</linearGradient>
<linearGradient id="paint6_linear" x1="1368.33" y1="290.629" x2="1368.33" y2="350.324" gradientUnits="userSpaceOnUse">
<stop stop-color="#00E35E"/>
<stop offset="1" stop-color="#00B248"/>
</linearGradient>
<linearGradient id="paint7_linear" x1="1384.72" y1="268.402" x2="1384.72" y2="350.23" gradientUnits="userSpaceOnUse">
<stop stop-color="#00E35E"/>
<stop offset="1" stop-color="#00A332"/>
</linearGradient>
<linearGradient id="paint8_linear" x1="1396.69" y1="310.854" x2="1396.69" y2="350.719" gradientUnits="userSpaceOnUse">
<stop stop-color="#00E35E"/>
<stop offset="1" stop-color="#00B248"/>
</linearGradient>
<linearGradient id="paint9_linear" x1="1389.32" y1="311.05" x2="1389.32" y2="350.129" gradientUnits="userSpaceOnUse">
<stop stop-color="#304F26" stop-opacity="0"/>
<stop offset="0.2844" stop-color="#2C4D23" stop-opacity="0.0569"/>
<stop offset="0.579" stop-color="#1F4719" stop-opacity="0.1158"/>
<stop offset="0.8773" stop-color="#0B3E09" stop-opacity="0.1755"/>
<stop offset="1" stop-color="#003900" stop-opacity="0.2"/>
</linearGradient>
<linearGradient id="paint10_linear" x1="1333.7" y1="247.722" x2="1323.34" y2="188.936" gradientUnits="userSpaceOnUse">
<stop stop-color="#B6DD54"/>
<stop offset="0.143" stop-color="#B2DC54"/>
<stop offset="0.292" stop-color="#A5D753"/>
<stop offset="0.443" stop-color="#91D051"/>
<stop offset="0.595" stop-color="#74C64F"/>
<stop offset="0.749" stop-color="#4EB94D"/>
<stop offset="0.902" stop-color="#21A949"/>
<stop offset="1" stop-color="#009E47"/>
</linearGradient>
<linearGradient id="paint11_linear" x1="1374.01" y1="298.381" x2="1433.7" y2="298.381" gradientUnits="userSpaceOnUse">
<stop stop-color="#B6DD54"/>
<stop offset="0.143" stop-color="#B2DC54"/>
<stop offset="0.292" stop-color="#A5D753"/>
<stop offset="0.443" stop-color="#91D051"/>
<stop offset="0.595" stop-color="#74C64F"/>
<stop offset="0.749" stop-color="#4EB94D"/>
<stop offset="0.902" stop-color="#21A949"/>
<stop offset="1" stop-color="#009E47"/>
</linearGradient>
<linearGradient id="paint12_linear" x1="1294.62" y1="284.27" x2="1323.98" y2="308.343" gradientUnits="userSpaceOnUse">
<stop stop-color="#302926" stop-opacity="0"/>
<stop offset="0.388" stop-color="#2D2724" stop-opacity="0.027"/>
<stop offset="0.621" stop-color="#25201D" stop-opacity="0.043"/>
<stop offset="0.812" stop-color="#171412" stop-opacity="0.059"/>
<stop offset="0.981" stop-color="#030202" stop-opacity="0.071"/>
<stop offset="1" stop-opacity="0.071"/>
</linearGradient>
<linearGradient id="paint13_linear" x1="1318.62" y1="262.633" x2="1356.43" y2="295.193" gradientUnits="userSpaceOnUse">
<stop stop-color="#B6DD54"/>
<stop offset="1" stop-color="#009E47"/>
</linearGradient>
<linearGradient id="paint14_linear" x1="1371.93" y1="272.189" x2="1357.9" y2="301.333" gradientUnits="userSpaceOnUse">
<stop stop-color="#302926" stop-opacity="0"/>
<stop offset="0.388" stop-color="#2D2724" stop-opacity="0.027"/>
<stop offset="0.621" stop-color="#25201D" stop-opacity="0.043"/>
<stop offset="0.812" stop-color="#171412" stop-opacity="0.059"/>
<stop offset="0.981" stop-color="#030202" stop-opacity="0.071"/>
<stop offset="1" stop-opacity="0.071"/>
</linearGradient>
<linearGradient id="paint15_linear" x1="1369.03" y1="356.786" x2="1357.38" y2="356.786" gradientUnits="userSpaceOnUse">
<stop stop-color="#B16464"/>
<stop offset="0.59" stop-color="#9C6764"/>
<stop offset="1" stop-color="#936864"/>
</linearGradient>
<linearGradient id="paint16_linear" x1="1316.96" y1="247.723" x2="1306.6" y2="188.936" gradientUnits="userSpaceOnUse">
<stop stop-color="#B6DD54"/>
<stop offset="0.143" stop-color="#B2DC54"/>
<stop offset="0.292" stop-color="#A5D753"/>
<stop offset="0.443" stop-color="#91D051"/>
<stop offset="0.595" stop-color="#74C64F"/>
<stop offset="0.749" stop-color="#4EB94D"/>
<stop offset="0.902" stop-color="#21A949"/>
<stop offset="1" stop-color="#009E47"/>
</linearGradient>
<linearGradient id="paint17_linear" x1="1357.27" y1="298.381" x2="1416.97" y2="298.381" gradientUnits="userSpaceOnUse">
<stop stop-color="#B6DD54"/>
<stop offset="0.143" stop-color="#B2DC54"/>
<stop offset="0.292" stop-color="#A5D753"/>
<stop offset="0.443" stop-color="#91D051"/>
<stop offset="0.595" stop-color="#74C64F"/>
<stop offset="0.749" stop-color="#4EB94D"/>
<stop offset="0.902" stop-color="#21A949"/>
<stop offset="1" stop-color="#009E47"/>
</linearGradient>
<linearGradient id="paint18_linear" x1="1277.88" y1="284.271" x2="1307.25" y2="308.343" gradientUnits="userSpaceOnUse">
<stop stop-color="#302926" stop-opacity="0"/>
<stop offset="0.388" stop-color="#2D2724" stop-opacity="0.027"/>
<stop offset="0.621" stop-color="#25201D" stop-opacity="0.043"/>
<stop offset="0.812" stop-color="#171412" stop-opacity="0.059"/>
<stop offset="0.981" stop-color="#030202" stop-opacity="0.071"/>
<stop offset="1" stop-opacity="0.071"/>
</linearGradient>
<linearGradient id="paint19_linear" x1="1301.88" y1="262.633" x2="1339.69" y2="295.193" gradientUnits="userSpaceOnUse">
<stop stop-color="#B6DD54"/>
<stop offset="1" stop-color="#009E47"/>
</linearGradient>
<linearGradient id="paint20_linear" x1="1355.19" y1="272.189" x2="1341.17" y2="301.333" gradientUnits="userSpaceOnUse">
<stop stop-color="#302926" stop-opacity="0"/>
<stop offset="0.388" stop-color="#2D2724" stop-opacity="0.027"/>
<stop offset="0.621" stop-color="#25201D" stop-opacity="0.043"/>
<stop offset="0.812" stop-color="#171412" stop-opacity="0.059"/>
<stop offset="0.981" stop-color="#030202" stop-opacity="0.071"/>
<stop offset="1" stop-opacity="0.071"/>
</linearGradient>
<linearGradient id="paint21_linear" x1="1352.29" y1="356.786" x2="1340.64" y2="356.786" gradientUnits="userSpaceOnUse">
<stop stop-color="#B16464"/>
<stop offset="0.59" stop-color="#9C6764"/>
<stop offset="1" stop-color="#936864"/>
</linearGradient>
<linearGradient id="paint22_linear" x1="1275.45" y1="247.053" x2="1265.09" y2="188.266" gradientUnits="userSpaceOnUse">
<stop stop-color="#B6DD54"/>
<stop offset="0.143" stop-color="#B2DC54"/>
<stop offset="0.292" stop-color="#A5D753"/>
<stop offset="0.443" stop-color="#91D051"/>
<stop offset="0.595" stop-color="#74C64F"/>
<stop offset="0.749" stop-color="#4EB94D"/>
<stop offset="0.902" stop-color="#21A949"/>
<stop offset="1" stop-color="#009E47"/>
</linearGradient>
<linearGradient id="paint23_linear" x1="1315.76" y1="297.711" x2="1375.45" y2="297.711" gradientUnits="userSpaceOnUse">
<stop stop-color="#B6DD54"/>
<stop offset="0.143" stop-color="#B2DC54"/>
<stop offset="0.292" stop-color="#A5D753"/>
<stop offset="0.443" stop-color="#91D051"/>
<stop offset="0.595" stop-color="#74C64F"/>
<stop offset="0.749" stop-color="#4EB94D"/>
<stop offset="0.902" stop-color="#21A949"/>
<stop offset="1" stop-color="#009E47"/>
</linearGradient>
<linearGradient id="paint24_linear" x1="1236.37" y1="283.601" x2="1265.74" y2="307.673" gradientUnits="userSpaceOnUse">
<stop stop-color="#302926" stop-opacity="0"/>
<stop offset="0.388" stop-color="#2D2724" stop-opacity="0.027"/>
<stop offset="0.621" stop-color="#25201D" stop-opacity="0.043"/>
<stop offset="0.812" stop-color="#171412" stop-opacity="0.059"/>
<stop offset="0.981" stop-color="#030202" stop-opacity="0.071"/>
<stop offset="1" stop-opacity="0.071"/>
</linearGradient>
<linearGradient id="paint25_linear" x1="1260.37" y1="261.963" x2="1298.18" y2="294.523" gradientUnits="userSpaceOnUse">
<stop stop-color="#B6DD54"/>
<stop offset="1" stop-color="#009E47"/>
</linearGradient>
<linearGradient id="paint26_linear" x1="1313.68" y1="271.52" x2="1299.66" y2="300.664" gradientUnits="userSpaceOnUse">
<stop stop-color="#302926" stop-opacity="0"/>
<stop offset="0.388" stop-color="#2D2724" stop-opacity="0.027"/>
<stop offset="0.621" stop-color="#25201D" stop-opacity="0.043"/>
<stop offset="0.812" stop-color="#171412" stop-opacity="0.059"/>
<stop offset="0.981" stop-color="#030202" stop-opacity="0.071"/>
<stop offset="1" stop-opacity="0.071"/>
</linearGradient>
<linearGradient id="paint27_linear" x1="1310.78" y1="356.116" x2="1299.13" y2="356.116" gradientUnits="userSpaceOnUse">
<stop stop-color="#B16464"/>
<stop offset="0.59" stop-color="#9C6764"/>
<stop offset="1" stop-color="#936864"/>
</linearGradient>
<linearGradient id="paint28_linear" x1="232.202" y1="86.4635" x2="152.985" y2="220.597" gradientUnits="userSpaceOnUse">
<stop stop-color="#0A72B9"/>
<stop offset="0.2788" stop-color="#0A72B9"/>
<stop offset="0.7727" stop-color="#0C4D86"/>
<stop offset="1" stop-color="#0C4D86"/>
</linearGradient>
<linearGradient id="paint29_linear" x1="108.609" y1="251.799" x2="3.60267" y2="223.662" gradientUnits="userSpaceOnUse">
<stop stop-color="#0A72B9"/>
<stop offset="0.2788" stop-color="#0A72B9"/>
<stop offset="0.7727" stop-color="#0C4D86"/>
<stop offset="1" stop-color="#0C4D86"/>
</linearGradient>
<linearGradient id="paint30_linear" x1="231.681" y1="86.1556" x2="152.464" y2="220.288" gradientUnits="userSpaceOnUse">
<stop stop-color="#0A72B9"/>
<stop offset="0.2788" stop-color="#0A72B9"/>
<stop offset="0.7727" stop-color="#0C4D86"/>
<stop offset="1" stop-color="#0C4D86"/>
</linearGradient>
<linearGradient id="paint31_linear" x1="668.194" y1="10.5095" x2="731.608" y2="208.458" gradientUnits="userSpaceOnUse">
<stop stop-color="#0A72B9"/>
<stop offset="0.2788" stop-color="#0A72B9"/>
<stop offset="0.7727" stop-color="#0C4D86"/>
<stop offset="1" stop-color="#0C4D86"/>
</linearGradient>
<linearGradient id="paint32_linear" x1="758.08" y1="271.463" x2="885.662" y2="271.463" gradientUnits="userSpaceOnUse">
<stop stop-color="#0A72B9"/>
<stop offset="0.2788" stop-color="#0A72B9"/>
<stop offset="0.7727" stop-color="#0C4D86"/>
<stop offset="1" stop-color="#0C4D86"/>
</linearGradient>
<linearGradient id="paint33_linear" x1="668.878" y1="10.2907" x2="732.292" y2="208.238" gradientUnits="userSpaceOnUse">
<stop stop-color="#0A72B9"/>
<stop offset="0.2788" stop-color="#0A72B9"/>
<stop offset="0.7727" stop-color="#0C4D86"/>
<stop offset="1" stop-color="#0C4D86"/>
</linearGradient>
<linearGradient id="paint34_linear" x1="594.985" y1="288.175" x2="776.136" y2="288.175" gradientUnits="userSpaceOnUse">
<stop stop-color="#0A72B9"/>
<stop offset="0.2788" stop-color="#0A72B9"/>
<stop offset="0.7727" stop-color="#0C4D86"/>
<stop offset="1" stop-color="#0C4D86"/>
</linearGradient>
<linearGradient id="paint35_linear" x1="737.28" y1="262.736" x2="751.834" y2="262.736" gradientUnits="userSpaceOnUse">
<stop offset="0.2788" stop-color="white"/>
<stop offset="1" stop-color="#9FD8F0"/>
</linearGradient>
<linearGradient id="paint36_linear" x1="744.056" y1="259.523" x2="758.758" y2="259.523" gradientUnits="userSpaceOnUse">
<stop offset="0.2788" stop-color="white"/>
<stop offset="1" stop-color="#9FD8F0"/>
</linearGradient>
<linearGradient id="paint37_linear" x1="643.719" y1="256.608" x2="762.29" y2="271.147" gradientUnits="userSpaceOnUse">
<stop offset="0.2788" stop-color="white"/>
<stop offset="1" stop-color="#9FD8F0"/>
</linearGradient>
<linearGradient id="paint38_linear" x1="250.984" y1="287.175" x2="79.9956" y2="287.175" gradientUnits="userSpaceOnUse">
<stop stop-color="#46AE4D"/>
<stop offset="0.262" stop-color="#46AE4D"/>
<stop offset="0.7615" stop-color="#009045"/>
<stop offset="1" stop-color="#009045"/>
</linearGradient>
<linearGradient id="paint39_linear" x1="116.671" y1="262.472" x2="102.934" y2="262.472" gradientUnits="userSpaceOnUse">
<stop offset="0.2788" stop-color="white"/>
<stop offset="1" stop-color="#9FD8F0"/>
</linearGradient>
<linearGradient id="paint40_linear" x1="110.275" y1="259.351" x2="96.3981" y2="259.351" gradientUnits="userSpaceOnUse">
<stop offset="0.2788" stop-color="white"/>
<stop offset="1" stop-color="#9FD8F0"/>
</linearGradient>
<linearGradient id="paint41_linear" x1="204.984" y1="256.52" x2="92.9726" y2="269.87" gradientUnits="userSpaceOnUse">
<stop offset="0.2788" stop-color="white"/>
<stop offset="1" stop-color="#9FD8F0"/>
</linearGradient>
<linearGradient id="paint42_linear" x1="222.772" y1="310.769" x2="210.432" y2="313.767" gradientUnits="userSpaceOnUse">
<stop stop-color="#0A72B9"/>
<stop offset="0.2788" stop-color="#0A72B9"/>
<stop offset="0.7727" stop-color="#0C4D86"/>
<stop offset="1" stop-color="#0C4D86"/>
</linearGradient>
<linearGradient id="paint43_linear" x1="220.29" y1="300.553" x2="207.95" y2="303.551" gradientUnits="userSpaceOnUse">
<stop stop-color="#0A72B9"/>
<stop offset="0.2788" stop-color="#0A72B9"/>
<stop offset="0.7727" stop-color="#0C4D86"/>
<stop offset="1" stop-color="#0C4D86"/>
</linearGradient>
<linearGradient id="paint44_linear" x1="313.048" y1="223.379" x2="368.553" y2="223.379" gradientUnits="userSpaceOnUse">
<stop stop-color="#EB5B2D"/>
<stop offset="1" stop-color="#BF292E"/>
</linearGradient>
<linearGradient id="paint45_linear" x1="362.246" y1="-106.834" x2="448.03" y2="157.145" gradientUnits="userSpaceOnUse">
<stop stop-color="#0A72B9"/>
<stop offset="0.2788" stop-color="#0A72B9"/>
<stop offset="0.7727" stop-color="#0C4D86"/>
<stop offset="1" stop-color="#0C4D86"/>
</linearGradient>
<linearGradient id="paint46_linear" x1="481.001" y1="238.502" x2="631.008" y2="238.502" gradientUnits="userSpaceOnUse">
<stop stop-color="#0A72B9"/>
<stop offset="0.2788" stop-color="#0A72B9"/>
<stop offset="0.7727" stop-color="#0C4D86"/>
<stop offset="1" stop-color="#0C4D86"/>
</linearGradient>
<linearGradient id="paint47_linear" x1="362.973" y1="-106.36" x2="448.245" y2="157.109" gradientUnits="userSpaceOnUse">
<stop stop-color="#0A72B9"/>
<stop offset="0.2788" stop-color="#0A72B9"/>
<stop offset="0.7727" stop-color="#0C4D86"/>
<stop offset="1" stop-color="#0C4D86"/>
</linearGradient>
<linearGradient id="paint48_linear" x1="284.997" y1="277.612" x2="490.803" y2="277.612" gradientUnits="userSpaceOnUse">
<stop stop-color="#F39121"/>
<stop offset="0.2718" stop-color="#F39121"/>
<stop offset="0.9643" stop-color="#F8AE3C"/>
<stop offset="1" stop-color="#F8AE3C"/>
</linearGradient>
<linearGradient id="paint49_linear" x1="446.659" y1="247.878" x2="463.193" y2="247.878" gradientUnits="userSpaceOnUse">
<stop offset="0.2788" stop-color="white"/>
<stop offset="1" stop-color="#9FD8F0"/>
</linearGradient>
<linearGradient id="paint50_linear" x1="454.358" y1="244.122" x2="471.061" y2="244.122" gradientUnits="userSpaceOnUse">
<stop offset="0.2788" stop-color="white"/>
<stop offset="1" stop-color="#9FD8F0"/>
</linearGradient>
<linearGradient id="paint51_linear" x1="340.364" y1="240.715" x2="475.183" y2="256.783" gradientUnits="userSpaceOnUse">
<stop offset="0.2788" stop-color="white"/>
<stop offset="1" stop-color="#9FD8F0"/>
</linearGradient>
<linearGradient id="paint52_linear" x1="318.953" y1="306.01" x2="333.805" y2="309.619" gradientUnits="userSpaceOnUse">
<stop stop-color="#0A72B9"/>
<stop offset="0.2788" stop-color="#0A72B9"/>
<stop offset="0.7727" stop-color="#0C4D86"/>
<stop offset="1" stop-color="#0C4D86"/>
</linearGradient>
<linearGradient id="paint53_linear" x1="321.941" y1="293.715" x2="336.793" y2="297.324" gradientUnits="userSpaceOnUse">
<stop stop-color="#0A72B9"/>
<stop offset="0.2788" stop-color="#0A72B9"/>
<stop offset="0.7727" stop-color="#0C4D86"/>
<stop offset="1" stop-color="#0C4D86"/>
</linearGradient>
</defs>
</svg>
