<svg width="766" height="690" viewBox="0 0 766 690" fill="none" xmlns="http://www.w3.org/2000/svg">
<rect width="766" height="690" fill="#E5E5E5"/>
<rect x="-2" width="768" height="690" fill="#54A3FF"/>
<path opacity="0.05" d="M222.5 184C243.211 184 260 167.658 260 147.5C260 127.342 243.211 111 222.5 111C201.789 111 185 127.342 185 147.5C185 167.658 201.789 184 222.5 184Z" fill="white" stroke="white" stroke-width="2"/>
<path opacity="0.05" d="M428.5 190C516.589 190 588 118.589 588 30.5C588 -57.5894 516.589 -129 428.5 -129C340.411 -129 269 -57.5894 269 30.5C269 118.589 340.411 190 428.5 190Z" fill="white" stroke="white" stroke-width="2"/>
<path opacity="0.05" d="M32 162C89.4376 162 136 114.99 136 57C136 -0.989899 89.4376 -48 32 -48C-25.4376 -48 -72 -0.989899 -72 57C-72 114.99 -25.4376 162 32 162Z" fill="white" stroke="white" stroke-width="2"/>
<path d="M279.246 689.467L272.005 613.115H321.771V689.467H279.246Z" fill="url(#paint0_linear)" stroke="#968F8F"/>
<path d="M374.215 558.412L320.577 560.105V609.791H374.215V558.412Z" fill="url(#paint1_linear)"/>
<path d="M595.543 546.554V512.96L480.362 521.429L366.582 542.32L363.488 557.282L595.543 546.554Z" fill="url(#paint2_linear)"/>
<path d="M271.956 609.291V575.815L317.819 572.499V609.291H271.956Z" fill="url(#paint3_linear)" stroke="#968F8F"/>
<path d="M376.474 559.277L596.672 550.508V689.38L376.474 689.967V559.277Z" fill="#C4C4C4"/>
<path d="M596.672 550.507L691.527 564.622L686.728 689.966L596.672 689.379V550.507Z" fill="#CCCCCC"/>
<path d="M379.297 575.726L593.284 572.244V576.479L379.297 578.737V575.726Z" fill="#9C9A9A"/>
<path d="M379.297 582.501L593.284 579.02V583.254L379.297 585.513V582.501Z" fill="#9C9A9A"/>
<path d="M379.297 561.423L593.284 555.965V562.176L379.297 564.434V561.423Z" fill="#9C9A9A"/>
<path d="M379.297 568.386L593.284 564.904V569.139L379.297 571.397V568.386Z" fill="#9C9A9A"/>
<path d="M379.297 589.277L593.284 585.795V590.03L379.297 592.288V589.277Z" fill="#9C9A9A"/>
<path d="M379.297 596.052L593.284 592.57V596.805L379.297 599.063V596.052Z" fill="#9C9A9A"/>
<path d="M379.297 602.827L593.284 599.346V603.58L379.297 605.839V602.827Z" fill="#9C9A9A"/>
<path d="M379.297 609.603L593.284 606.121V610.356L379.297 612.614V609.603Z" fill="#9C9A9A"/>
<path d="M379.297 616.378L593.284 612.896V617.131L379.297 619.389V616.378Z" fill="#9C9A9A"/>
<path d="M379.297 623.153L593.284 619.671V623.906L379.297 626.164V623.153Z" fill="#9C9A9A"/>
<path d="M379.297 629.929L593.284 626.447V630.681L379.297 632.94V629.929Z" fill="#9C9A9A"/>
<path d="M379.297 637.834L593.284 634.352V638.587L379.297 640.845V637.834Z" fill="#9C9A9A"/>
<path d="M379.297 644.609L593.284 641.127V645.362L379.297 647.62V644.609Z" fill="#9C9A9A"/>
<path d="M379.297 651.384L593.284 647.902V652.137L379.297 654.395V651.384Z" fill="#9C9A9A"/>
<path d="M379.297 658.16L593.284 654.678V658.912L379.297 661.171V658.16Z" fill="#9C9A9A"/>
<path d="M379.297 664.934L593.284 661.453V665.687L379.297 667.946V664.934Z" fill="#9C9A9A"/>
<path d="M379.297 671.711L593.284 668.229V672.464L379.297 674.722V671.711Z" fill="#9C9A9A"/>
<path d="M379.297 678.485L593.284 675.003V679.238L379.297 681.496V678.485Z" fill="#9C9A9A"/>
<path d="M379.297 685.261L593.284 681.779V686.013L379.297 688.272V685.261Z" fill="#9C9A9A"/>
<path d="M599.494 550.943L602.601 551.418L601.526 687.708H599.494V550.943Z" fill="#B7B7B7"/>
<path d="M604.012 551.636L607.119 552.111L606.045 688.272H604.012V551.636Z" fill="#B7B7B7"/>
<path d="M608.529 552.201L611.636 552.674L610.562 688.272H608.529V552.201Z" fill="#B7B7B7"/>
<path d="M613.046 552.766L615.869 553.237L614.893 688.272H613.046V552.766Z" fill="#B7B7B7"/>
<path d="M616.998 553.33L619.821 553.799L618.845 688.272H616.998V553.33Z" fill="#B7B7B7"/>
<path d="M620.95 553.895L623.773 554.362L622.797 688.272H620.95V553.895Z" fill="#B7B7B7"/>
<path d="M624.903 554.459L627.161 554.924L626.38 688.272H624.903V554.459Z" fill="#B7B7B7"/>
<path d="M628.29 555.024L630.549 555.487L629.768 688.272H628.29V555.024Z" fill="#B7B7B7"/>
<path d="M631.678 555.588L633.937 556.052L633.156 688.837H631.678V555.588Z" fill="#B7B7B7"/>
<path d="M635.066 556.153L637.324 556.614L636.543 688.837H635.066V556.153Z" fill="#B7B7B7"/>
<path d="M638.453 556.717L640.712 557.177L639.931 688.836H638.453V556.717Z" fill="#B7B7B7"/>
<path d="M641.841 557.282L643.535 557.596L642.949 688.836H641.841V557.282Z" fill="#B7B7B7"/>
<path d="M644.664 557.847L646.358 558.159L645.773 688.837H644.664V557.847Z" fill="#B7B7B7"/>
<path d="M650.31 558.976L652.004 559.286L651.419 688.836H650.31V558.976Z" fill="#B7B7B7"/>
<path d="M647.487 558.412L649.181 558.723L648.596 688.837H647.487V558.412Z" fill="#B7B7B7"/>
<path d="M653.133 559.541L654.827 559.849L654.242 688.837H653.133V559.541Z" fill="#B7B7B7"/>
<path d="M655.956 559.541L657.65 559.85L657.064 689.401H655.956V559.541Z" fill="#B7B7B7"/>
<path d="M661.603 560.67L663.297 560.977L662.711 689.401H661.603V560.67Z" fill="#B7B7B7"/>
<path d="M664.426 561.234L665.555 561.449L665.017 689.401H664.426V561.234Z" fill="#B7B7B7"/>
<path d="M666.684 561.234L667.813 561.449L667.275 689.401H666.684V561.234Z" fill="#B7B7B7"/>
<path d="M668.943 561.799L670.072 562.013L669.534 689.401H668.943V561.799Z" fill="#B7B7B7"/>
<path d="M671.201 561.799L672.33 562.013L671.792 689.401H671.201V561.799Z" fill="#B7B7B7"/>
<path d="M673.459 562.363L674.589 562.576L674.051 689.401H673.459V562.363Z" fill="#B7B7B7"/>
<path d="M675.718 562.928L676.847 563.14L676.309 689.401H675.718V562.928Z" fill="#B7B7B7"/>
<path d="M677.976 562.928L679.106 563.14L678.567 689.401H677.976V562.928Z" fill="#B7B7B7"/>
<path d="M680.235 563.493L681.364 563.705L680.826 689.966H680.235V563.493Z" fill="#B7B7B7"/>
<path d="M682.493 563.493L683.622 563.705L683.084 689.966H682.493V563.493Z" fill="#B7B7B7"/>
<path d="M684.752 564.057L686.446 564.622L685.074 689.965H684.752V564.057Z" fill="#B7B7B7"/>
<path d="M658.779 560.105L660.473 560.414L659.888 689.401H658.779V560.105Z" fill="#B7B7B7"/>
<path d="M409.85 613.618V689.466H384.878V610.36L409.85 613.618Z" fill="#E6E6E6" stroke="#968F8F"/>
<path d="M649.463 557L596.108 513.243V546.294L649.463 557Z" fill="url(#paint4_linear)"/>
<rect x="318.819" y="612.115" width="39.652" height="1.82306" transform="rotate(-90 318.819 612.115)" fill="#C4C4C4" stroke="#968F8F"/>
<rect x="596.5" y="547.152" width="39.652" height="1.82306" transform="rotate(-90 596.5 547.152)" fill="#C4C4C4" stroke="#968F8F"/>
<path d="M374.151 610.42V557.782H375.974V610.42H374.151Z" fill="#C4C4C4" stroke="#968F8F"/>
<rect x="271.956" y="610.291" width="104.018" height="1.82306" fill="#C4C4C4" stroke="#968F8F"/>
<path d="M358.342 559.587V557.761L595.608 547.078V550.872L358.342 559.587Z" fill="#C4C4C4" stroke="#968F8F"/>
<path d="M596.608 550.835V547.149L672.98 560.334L674.31 561.663L596.608 550.835Z" fill="#C4C4C4" stroke="#968F8F"/>
<path d="M315.431 689.466V613.075L383.878 610.312V689.466H315.431Z" fill="#EDEDED" stroke="#968F8F"/>
<path d="M561.921 515.539L561.908 515.54L561.895 515.541L524.668 520.214L524.667 520.214L496.094 523.736L496.08 523.738L496.067 523.74L473.326 527.801L473.32 527.802L453.649 531.566L453.634 531.569L453.619 531.573L425.099 538.897L425.087 538.9L399.998 545.971L399.99 545.974L399.982 545.976L380.141 552.284L380.137 552.285L358.859 558.882L358.859 558.882L358.847 558.885L335.837 566.622L335.832 566.623L266.363 590.776L262.458 577.388L390.715 532.821L428.653 521.631L428.663 521.628L453.946 514.735L504.806 503.203L595.186 488.209L595.071 513.139L561.921 515.539Z" fill="#C4C4C4" stroke="#968F8F"/>
<path d="M596.043 513.291V488.694L674.763 561.359L648.829 557.654L596.043 513.291Z" fill="#DBDBDB" stroke="#968F8F"/>
<line x1="348.178" y1="629.552" x2="348.178" y2="687.707" stroke="black"/>
<line x1="382.697" y1="628.359" x2="316.638" y2="630.053" stroke="black"/>
<path d="M351.695 659.477C351.695 659.86 351.591 660.184 351.448 660.397C351.304 660.615 351.159 660.671 351.066 660.671C350.973 660.671 350.828 660.615 350.684 660.397C350.541 660.184 350.437 659.86 350.437 659.477C350.437 659.094 350.541 658.77 350.684 658.557C350.828 658.34 350.973 658.283 351.066 658.283C351.159 658.283 351.304 658.34 351.448 658.557C351.591 658.77 351.695 659.094 351.695 659.477Z" fill="#C4C4C4" stroke="black"/>
<path d="M320.871 618.414L323.315 618.371C324.428 618.352 325.238 618.497 325.745 618.807C326.255 619.113 326.516 619.612 326.528 620.303C326.537 620.772 326.432 621.158 326.216 621.463C326.002 621.768 325.714 621.953 325.35 622.021L325.351 622.074C325.85 622.177 326.212 622.378 326.436 622.679C326.663 622.979 326.781 623.382 326.79 623.886C326.802 624.603 326.552 625.166 326.04 625.576C325.532 625.986 324.834 626.198 323.946 626.214L321.008 626.265L320.871 618.414ZM322.59 621.494L323.557 621.477C324.008 621.469 324.332 621.394 324.531 621.251C324.732 621.108 324.83 620.875 324.825 620.553C324.819 620.252 324.705 620.039 324.48 619.914C324.26 619.785 323.911 619.725 323.435 619.733L322.56 619.749L322.59 621.494ZM322.613 622.815L322.649 624.861L323.734 624.842C324.192 624.834 324.529 624.741 324.744 624.561C324.959 624.382 325.064 624.112 325.058 623.75C325.046 623.099 324.575 622.781 323.644 622.797L322.613 622.815ZM328.067 618.584C328.058 618.05 328.35 617.778 328.945 617.768C329.539 617.758 329.841 618.019 329.85 618.552C329.854 618.807 329.783 619.007 329.635 619.153C329.49 619.295 329.27 619.368 328.973 619.374C328.378 619.384 328.076 619.121 328.067 618.584ZM329.907 626.11L328.269 626.138L328.164 620.134L329.802 620.106L329.907 626.11ZM334.031 621.085C333.683 621.091 333.413 621.207 333.22 621.432C333.027 621.654 332.92 621.967 332.898 622.372L335.197 622.332C335.182 621.928 335.071 621.618 334.863 621.403C334.655 621.185 334.378 621.079 334.031 621.085ZM334.35 626.14C333.383 626.157 332.623 625.903 332.07 625.379C331.516 624.855 331.231 624.104 331.214 623.127C331.196 622.121 331.433 621.34 331.925 620.783C332.42 620.223 333.112 619.935 333.999 619.92C334.848 619.905 335.513 620.135 335.994 620.61C336.475 621.085 336.723 621.749 336.738 622.601L336.751 623.396L332.879 623.463C332.905 623.928 333.05 624.289 333.312 624.546C333.574 624.803 333.938 624.927 334.404 624.919C334.765 624.913 335.107 624.869 335.427 624.789C335.748 624.708 336.083 624.582 336.431 624.411L336.453 625.679C336.169 625.827 335.865 625.938 335.54 626.011C335.216 626.089 334.819 626.131 334.35 626.14ZM343.671 625.87L342.033 625.898L341.972 622.391C341.964 621.958 341.881 621.635 341.724 621.423C341.566 621.208 341.319 621.103 340.982 621.109C340.524 621.117 340.195 621.276 339.997 621.588C339.798 621.896 339.705 622.404 339.717 623.113L339.766 625.938L338.129 625.966L338.024 619.962L339.275 619.94L339.509 620.705L339.6 620.703C339.777 620.41 340.024 620.187 340.34 620.035C340.66 619.879 341.024 619.797 341.432 619.79C342.13 619.778 342.663 619.958 343.031 620.332C343.4 620.701 343.59 621.242 343.602 621.955L343.671 625.87ZM346.785 625.815L344.393 619.851L346.106 619.821L347.326 623.222C347.462 623.653 347.55 624.061 347.589 624.447L347.621 624.447C347.633 624.103 347.706 623.692 347.841 623.213L348.936 619.772L350.649 619.742L348.466 625.786L346.785 625.815ZM354.019 620.736C353.671 620.742 353.401 620.858 353.208 621.083C353.015 621.305 352.908 621.618 352.886 622.024L355.185 621.983C355.17 621.579 355.059 621.269 354.852 621.055C354.644 620.836 354.366 620.73 354.019 620.736ZM354.338 625.791C353.371 625.808 352.611 625.554 352.058 625.03C351.504 624.506 351.219 623.756 351.202 622.778C351.184 621.772 351.421 620.991 351.913 620.434C352.408 619.874 353.1 619.586 353.988 619.571C354.836 619.556 355.501 619.786 355.982 620.261C356.463 620.736 356.711 621.4 356.726 622.252L356.74 623.047L352.868 623.114C352.894 623.579 353.038 623.94 353.3 624.197C353.563 624.454 353.926 624.579 354.392 624.57C354.753 624.564 355.095 624.521 355.416 624.44C355.736 624.359 356.071 624.233 356.419 624.062L356.441 625.33C356.157 625.478 355.853 625.589 355.528 625.663C355.204 625.74 354.807 625.783 354.338 625.791ZM363.659 625.521L362.021 625.549L361.96 622.042C361.952 621.609 361.87 621.287 361.712 621.074C361.554 620.859 361.307 620.754 360.97 620.76C360.512 620.768 360.184 620.927 359.985 621.239C359.786 621.547 359.693 622.055 359.705 622.764L359.755 625.589L358.117 625.617L358.012 619.613L359.263 619.592L359.497 620.356L359.588 620.354C359.766 620.061 360.012 619.838 360.328 619.686C360.648 619.53 361.012 619.448 361.42 619.441C362.118 619.429 362.651 619.609 363.02 619.983C363.388 620.352 363.578 620.893 363.591 621.606L363.659 625.521ZM369.598 625.417L369.365 624.653L369.279 624.654C369.108 624.937 368.863 625.158 368.544 625.317C368.224 625.473 367.858 625.555 367.447 625.562C366.741 625.574 366.207 625.396 365.842 625.026C365.477 624.653 365.289 624.112 365.276 623.403L365.208 619.488L366.846 619.459L366.907 622.966C366.915 623.399 366.997 623.724 367.155 623.939C367.313 624.151 367.56 624.255 367.897 624.249C368.355 624.241 368.683 624.083 368.882 623.775C369.081 623.463 369.174 622.953 369.162 622.244L369.112 619.42L370.75 619.391L370.855 625.395L369.598 625.417ZM374.974 620.37C374.626 620.376 374.356 620.492 374.163 620.717C373.97 620.939 373.863 621.253 373.841 621.658L376.139 621.618C376.125 621.213 376.014 620.904 375.806 620.689C375.598 620.47 375.321 620.364 374.974 620.37ZM375.293 625.425C374.326 625.442 373.566 625.188 373.013 624.664C372.459 624.14 372.174 623.39 372.157 622.412C372.139 621.406 372.376 620.625 372.868 620.069C373.363 619.508 374.055 619.221 374.942 619.205C375.791 619.19 376.456 619.42 376.937 619.895C377.418 620.371 377.666 621.034 377.681 621.886L377.694 622.681L373.822 622.749C373.848 623.214 373.993 623.575 374.255 623.832C374.517 624.088 374.881 624.213 375.347 624.205C375.708 624.198 376.049 624.155 376.37 624.074C376.691 623.993 377.026 623.867 377.374 623.697L377.396 624.964C377.112 625.112 376.808 625.223 376.483 625.297C376.159 625.374 375.762 625.417 375.293 625.425Z" fill="black"/>
<rect x="398.657" y="562.253" width="175.03" height="24.8429" transform="rotate(-1.5 398.657 562.253)" fill="#D9D7D7"/>
<g filter="url(#filter0_d)">
<path d="M416.3 566.143L416.674 580.405L413.579 580.486L406.297 570.081L406.575 580.669L403.48 580.75L403.107 566.489L407.153 566.383L413.441 575.231L413.206 566.224L416.3 566.143L416.3 566.143ZM430.735 574.226L430.757 575.055C430.729 575.293 430.734 575.49 430.739 575.688C430.711 575.886 430.716 576.084 430.72 576.242L421.233 576.49C421.381 576.961 421.73 577.308 422.247 577.531C422.763 577.755 423.514 577.854 424.5 577.828L425.147 577.811C425.417 577.764 425.69 577.757 425.996 577.749C426.267 577.703 426.573 577.695 426.913 577.686C427.218 577.638 427.524 577.63 427.83 577.622C428.576 577.561 429.324 577.502 430.071 577.445L430.128 579.618C429.485 579.753 428.842 579.888 428.199 580.024C427.657 580.117 427.047 580.212 426.403 580.308C425.759 580.404 425.147 580.42 424.569 580.435C423.379 580.467 422.358 580.454 421.537 580.317C420.718 580.22 420.031 579.961 419.511 579.619C418.991 579.237 418.604 578.733 418.382 578.067C418.126 577.402 418.002 576.535 417.974 575.469C417.946 574.402 418.025 573.53 418.245 572.852C418.432 572.175 418.791 571.612 419.292 571.244C419.792 570.835 420.464 570.541 421.278 570.401C422.091 570.261 423.108 570.155 424.299 570.124C425.251 570.099 426.137 570.155 426.922 570.253C427.674 570.352 428.36 570.572 428.912 570.873C429.465 571.214 429.919 571.638 430.239 572.182C430.526 572.728 430.713 573.396 430.735 574.226ZM427.5 574.112L427.488 573.678C427.455 573.555 427.406 573.437 427.343 573.326C427.272 573.209 427.133 573.094 426.893 573.022C426.686 572.948 426.379 572.876 425.969 572.848C425.437 572.809 424.903 572.797 424.369 572.811C423.315 572.838 422.536 572.977 422.032 573.228C421.528 573.478 421.232 573.881 421.145 574.437L427.504 574.27L427.5 574.112ZM437.32 580.101C436.47 580.124 435.755 580.103 435.105 579.962C434.455 579.86 433.904 579.598 433.487 579.253C433.034 578.869 432.715 578.364 432.459 577.699C432.238 577.032 432.113 576.166 432.085 575.099L431.954 570.122L435.049 570.041L435.179 575.018C435.19 575.413 435.266 575.727 435.341 576.002C435.415 576.237 435.557 576.431 435.697 576.586C435.883 576.749 436.108 576.865 436.352 576.924C436.591 576.958 436.898 576.989 437.238 576.98L437.817 576.965C438.02 576.96 438.19 576.916 438.393 576.91C438.562 576.867 438.801 576.861 439.003 576.816C439.241 576.81 439.512 576.763 439.852 576.714L439.674 569.919L442.768 569.838L443.015 579.28C442.575 579.37 442.169 579.46 441.729 579.55C441.323 579.64 440.883 579.731 440.442 579.782C439.968 579.874 439.493 579.925 438.985 580.018C438.476 580.071 437.932 580.085 437.32 580.101ZM450.595 571.176L450.668 573.941L447.573 574.022L447.719 579.592L444.59 579.674L444.404 572.563C444.372 571.338 444.412 570.27 444.558 569.356C444.671 568.444 444.958 567.686 445.451 567.04C445.911 566.435 446.579 565.943 447.489 565.603C448.366 565.304 449.552 565.114 451.048 565.075L451.898 565.053L451.973 567.897L451.088 567.92C450.374 567.939 449.764 568.034 449.326 568.204C448.888 568.373 448.52 568.62 448.256 568.904C447.992 569.227 447.83 569.547 447.705 569.946C447.613 570.344 447.557 570.78 447.535 571.255L450.595 571.175L450.595 571.176ZM461.015 579.244L455.909 568.782L456.186 579.37L453.092 579.451L452.718 565.19L456.968 565.078L461.714 574.758L465.979 564.842L470.196 564.732L470.569 578.993L467.475 579.074L467.198 568.487L462.646 579.201L461.015 579.244ZM478.16 568.714C479.385 568.682 480.373 568.735 481.192 568.832C482.011 568.929 482.698 569.188 483.219 569.57C483.738 569.912 484.127 570.455 484.348 571.121C484.604 571.787 484.729 572.653 484.757 573.72C484.785 574.786 484.706 575.659 484.485 576.336C484.299 577.013 483.938 577.536 483.438 577.945C482.937 578.314 482.264 578.608 481.451 578.748C480.64 578.927 479.655 578.993 478.43 579.025C477.241 579.056 476.219 579.043 475.399 578.907C474.58 578.81 473.927 578.55 473.407 578.208C472.887 577.826 472.499 577.322 472.278 576.656C472.022 575.99 471.897 575.124 471.869 574.057C471.841 572.991 471.921 572.119 472.141 571.441C472.327 570.764 472.687 570.201 473.188 569.833C473.688 569.424 474.326 569.13 475.139 568.991C475.952 568.851 476.971 568.745 478.16 568.713L478.16 568.714ZM478.349 575.904C478.995 575.887 479.504 575.834 479.911 575.784C480.318 575.734 480.656 575.646 480.89 575.482C481.125 575.357 481.254 575.116 481.35 574.876C481.445 574.597 481.47 574.241 481.458 573.806C481.446 573.332 481.403 572.977 481.293 572.704C481.184 572.43 481.043 572.236 480.802 572.123C480.56 571.972 480.217 571.902 479.807 571.833C479.399 571.805 478.888 571.818 478.242 571.835C477.63 571.851 477.086 571.865 476.679 571.915C476.273 572.005 475.969 572.092 475.735 572.256C475.5 572.381 475.336 572.583 475.241 572.862C475.159 573.226 475.123 573.599 475.133 573.972C475.145 574.407 475.222 574.76 475.297 575.035C475.406 575.269 475.582 575.502 475.823 575.614C476.065 575.766 476.373 575.837 476.783 575.866C477.192 575.895 477.737 575.92 478.349 575.904ZM489.144 568.426L486.039 569.417L486.279 578.582L489.408 578.5L489.144 568.426ZM488.926 565.308C488.931 565.506 488.903 565.744 488.806 565.944C488.743 566.144 488.646 566.304 488.548 566.465C488.421 566.619 488.262 566.744 488.081 566.833C487.914 566.956 487.745 567 487.541 567.006C487.337 567.011 487.166 566.976 486.993 566.862C486.808 566.782 486.642 566.665 486.508 566.519C486.401 566.363 486.295 566.208 486.222 566.012C486.115 565.817 486.075 565.581 486.07 565.384C486.063 565.146 486.092 564.948 486.189 564.748C486.252 564.548 486.349 564.349 486.447 564.187C486.579 564.066 486.747 563.943 486.913 563.819C487.081 563.736 487.25 563.692 487.454 563.687C487.658 563.682 487.829 563.717 488.001 563.791C488.174 563.905 488.348 564.019 488.487 564.134C488.593 564.29 488.7 564.484 488.773 564.68C488.88 564.875 488.92 565.072 488.926 565.308ZM498.188 568.189C499.413 568.157 500.401 568.21 501.22 568.308C502.073 568.403 502.726 568.663 503.247 569.045C503.766 569.387 504.155 569.931 504.377 570.597C504.632 571.262 504.757 572.129 504.785 573.195L504.913 578.095L501.615 578.181L501.486 573.282C501.474 572.808 501.431 572.453 501.322 572.179C501.29 572.053 501.229 571.935 501.144 571.835C501.059 571.734 500.951 571.654 500.83 571.599C500.588 571.447 500.246 571.377 499.835 571.309C499.427 571.28 498.916 571.294 498.27 571.311L497.488 571.331C497.183 571.378 496.877 571.386 496.537 571.395C496.232 571.443 495.859 571.492 495.519 571.501C495.18 571.55 494.84 571.558 494.535 571.606L494.712 578.361L491.618 578.442L491.359 568.566L493.603 568.507L493.991 569.011C494.428 568.801 495.035 568.588 495.78 568.45C496.574 568.297 497.379 568.21 498.188 568.189ZM517.284 574.924C517.3 575.517 517.21 575.993 517.016 576.394C516.823 576.833 516.458 577.16 515.954 577.41C515.45 577.66 514.809 577.875 513.961 577.976C513.148 578.115 512.128 578.142 510.904 578.174C510.428 578.187 509.951 578.16 509.44 578.134C508.962 578.067 508.519 578.039 508.074 577.972C507.631 577.944 507.255 577.875 506.88 577.845C506.538 577.775 506.265 577.743 506.06 577.708L506 575.417C506.681 575.439 507.328 575.461 507.94 575.445C508.485 575.47 509.03 575.496 509.575 575.482C510.005 575.5 510.437 575.502 510.868 575.487C511.548 575.47 512.093 575.494 512.501 575.484C512.908 575.434 513.248 575.425 513.451 575.38C513.607 575.352 513.756 575.295 513.889 575.211C513.955 575.13 514.02 575.009 514.018 574.93C514.015 574.812 514.013 574.733 513.942 574.656C513.844 574.607 513.74 574.57 513.633 574.545C513.419 574.502 513.202 574.468 512.984 574.443C512.712 574.451 512.371 574.42 511.928 574.392C510.599 574.308 509.506 574.179 508.686 574.042C507.832 573.906 507.18 573.686 506.731 573.461C506.248 573.197 505.934 572.889 505.753 572.498C505.573 572.107 505.493 571.635 505.479 571.122C505.465 570.568 505.554 570.092 505.748 569.691C505.974 569.251 506.306 568.925 506.81 568.675C507.313 568.385 507.988 568.17 508.802 568.07C509.615 567.929 510.634 567.864 511.892 567.831L513.528 567.906C514.018 567.964 514.508 568.031 514.996 568.105C515.508 568.171 515.986 568.237 516.431 568.344L516.493 570.714C516.142 570.675 515.789 570.644 515.436 570.624C515.027 570.595 514.619 570.605 514.176 570.577C513.732 570.549 513.325 570.56 512.916 570.532C512.507 570.542 512.167 570.512 511.894 570.519L510.262 570.561C509.943 570.567 509.625 570.602 509.312 570.665C509.075 570.711 508.94 570.754 508.841 570.836C508.773 570.914 508.739 571.014 508.745 571.115C508.747 571.194 508.784 571.272 508.82 571.35C508.889 571.388 508.958 571.426 509.129 571.461C509.266 571.497 509.471 571.531 509.743 571.524C510.106 571.563 510.47 571.593 510.834 571.614C512.163 571.697 513.255 571.788 514.11 571.963C514.93 572.1 515.582 572.319 516.066 572.584C516.514 572.809 516.862 573.116 517.009 573.508C517.189 573.899 517.27 574.371 517.284 574.924ZM518.43 570.624C518.398 569.4 518.472 568.33 518.619 567.417C518.765 566.504 519.085 565.744 519.579 565.099C520.039 564.494 520.741 564.001 521.651 563.701C522.562 563.361 523.782 563.171 525.244 563.132C525.924 563.115 526.604 563.097 527.252 563.159C527.933 563.18 528.547 563.244 529.092 563.268C529.673 563.333 530.185 563.398 530.628 563.466C531.073 563.533 531.415 563.603 531.688 563.636L531.764 566.559C531.628 566.523 531.389 566.529 531.013 566.46C530.638 566.431 530.16 566.364 529.581 566.339C529.002 566.315 528.354 566.253 527.604 566.233C526.89 566.212 526.108 566.232 525.292 566.254C524.442 566.276 523.764 566.373 523.259 566.584C522.787 566.794 522.421 567.08 522.192 567.443C521.964 567.843 521.84 568.282 521.785 568.797C521.731 569.313 521.712 569.906 521.729 570.538C521.745 571.17 521.795 571.762 521.876 572.274C521.957 572.785 522.105 573.216 522.352 573.566C522.6 573.915 522.981 574.182 523.462 574.367C523.979 574.591 524.661 574.651 525.511 574.629C526.429 574.605 527.244 574.545 528.025 574.485C528.806 574.425 529.518 574.327 530.095 574.272C530.807 574.174 531.451 574.078 532.026 573.945L532.102 576.868C531.867 576.954 531.528 577.002 531.088 577.093C530.582 577.195 530.073 577.288 529.563 577.37C528.988 577.464 528.342 577.52 527.698 577.577C527.02 577.673 526.34 577.691 525.625 577.71C524.163 577.748 522.936 577.662 522.009 577.37C521.083 577.078 520.358 576.662 519.865 576.042C519.34 575.463 518.979 574.682 518.785 573.778C518.591 572.873 518.461 571.809 518.43 570.624ZM536.627 567.736C536.998 567.608 537.37 567.519 537.776 567.429C538.114 567.342 538.521 567.291 538.961 567.201C539.436 567.148 539.877 567.098 540.387 567.084C541.577 567.053 542.599 567.105 543.418 567.203C544.238 567.299 544.925 567.558 545.411 567.941C545.931 568.283 546.319 568.826 546.541 569.493C546.797 570.158 546.921 571.025 546.949 572.091L547.077 576.991L543.813 577.076L543.685 572.177C543.672 571.703 543.629 571.348 543.52 571.074C543.411 570.8 543.236 570.607 542.995 570.495C542.752 570.343 542.444 570.272 542.034 570.204C541.625 570.175 541.081 570.19 540.469 570.206L539.687 570.226C539.382 570.273 539.076 570.281 538.736 570.29C538.397 570.339 538.058 570.387 537.718 570.396C537.345 570.445 537.004 570.454 536.699 570.501L536.876 577.257L533.782 577.338L533.409 563.077L536.503 562.996L536.627 567.736L536.627 567.736ZM560.969 570.815L560.991 571.645C560.997 571.881 560.968 572.08 560.973 572.277C560.979 572.475 560.949 572.674 560.954 572.832L551.467 573.08C551.615 573.551 551.964 573.897 552.481 574.121C552.997 574.345 553.748 574.443 554.734 574.417L555.38 574.401C555.652 574.354 555.923 574.347 556.229 574.339C556.5 574.292 556.807 574.284 557.146 574.276C557.452 574.228 557.792 574.219 558.064 574.212C558.777 574.154 559.524 574.094 560.305 574.035L560.361 576.208C559.719 576.342 559.11 576.477 558.467 576.613C557.857 576.712 557.247 576.807 556.637 576.898C555.993 576.994 555.381 577.01 554.802 577.025C553.613 577.056 552.591 577.043 551.771 576.907C550.952 576.81 550.265 576.551 549.745 576.209C549.225 575.827 548.837 575.323 548.615 574.657C548.36 573.991 548.235 573.125 548.207 572.058C548.18 570.992 548.259 570.12 548.479 569.442C548.666 568.765 549.025 568.202 549.526 567.834C550.026 567.425 550.699 567.131 551.511 566.991C552.324 566.851 553.343 566.745 554.532 566.714C555.485 566.689 556.371 566.745 557.156 566.843C557.941 566.94 558.593 567.161 559.146 567.463C559.699 567.804 560.152 568.227 560.473 568.772C560.793 569.317 560.947 569.985 560.969 570.815ZM557.733 570.702L557.722 570.268C557.719 570.149 557.648 570.032 557.577 569.916C557.506 569.799 557.367 569.684 557.16 569.61C556.85 569.516 556.528 569.458 556.203 569.437C555.671 569.398 555.137 569.386 554.603 569.4C553.549 569.428 552.77 569.567 552.266 569.817C551.762 570.068 551.467 570.471 551.379 571.026L557.737 570.86L557.733 570.702ZM562.371 567.181C562.844 567.05 563.352 566.957 563.927 566.824C564.469 566.73 565.046 566.676 565.622 566.581C566.199 566.527 566.81 566.471 567.421 566.416C568.032 566.361 568.61 566.345 569.222 566.329L569.29 568.937C568.644 568.954 568.102 569.047 567.627 569.098C567.187 569.189 566.782 569.279 566.477 569.327C566.105 569.415 565.801 569.503 565.53 569.588L565.712 576.502L562.617 576.583L562.371 567.181Z" fill="#E06329"/>
</g>
<path d="M730.024 689.753H711.684V627.005C711.684 621.754 715.79 617.498 720.854 617.498C725.918 617.498 730.024 621.754 730.024 627.005V689.753Z" fill="url(#paint5_linear)"/>
<path d="M740.696 591.242C746.59 591.242 751.369 596.332 751.369 602.609V689.753H730.023V602.609C730.023 596.331 734.802 591.242 740.696 591.242Z" fill="url(#paint6_linear)"/>
<path d="M755.177 642.452C761.21 642.452 766.101 647.535 766.101 653.804V689.753H744.254V653.804C744.254 647.534 749.145 642.452 755.177 642.452Z" fill="url(#paint7_linear)"/>
<path d="M751.369 642.452V643.114C747.962 644.647 744.555 648.866 744.555 653.804V689.753H741.147V653.804C741.147 647.542 746.258 642.452 751.369 642.452Z" fill="url(#paint8_linear)"/>
<path d="M716.374 606.77C705.501 609.828 695.743 615.951 688.274 624.404C680.805 632.857 675.943 643.28 674.275 654.416L673.866 657.131C673.806 657.528 673.847 657.933 673.985 658.31C674.123 658.687 674.353 659.023 674.655 659.288C674.957 659.553 675.321 659.739 675.713 659.827C676.105 659.916 676.514 659.906 676.901 659.797L679.551 659.052C690.424 655.995 700.182 649.871 707.651 641.418C715.12 632.965 719.982 622.543 721.65 611.406L722.61 605.018L716.374 606.77Z" fill="url(#paint9_linear)"/>
<path d="M680.884 656.864C679.761 645.625 675.425 634.952 668.398 626.129C661.37 617.305 651.95 610.708 641.272 607.131L638.67 606.257C638.289 606.129 637.883 606.099 637.488 606.169C637.093 606.24 636.722 606.408 636.409 606.66C636.095 606.911 635.849 607.237 635.694 607.608C635.538 607.979 635.477 608.383 635.517 608.783L635.791 611.523C636.913 622.761 641.25 633.434 648.277 642.257C655.305 651.081 664.725 657.678 675.403 661.255L681.527 663.31L680.884 656.864Z" fill="url(#paint10_linear)"/>
<path d="M665.526 644.96H650.871C642.284 635.663 636.985 623.745 635.804 611.073L635.517 608.466C635.468 607.891 635.572 607.313 635.819 606.793L665.526 644.96Z" fill="url(#paint11_linear)"/>
<path d="M688.941 645.307C693.508 629.357 687.051 607.494 674.591 596.727L666.084 589.376C665.788 589.119 665.432 588.942 665.051 588.861C664.67 588.78 664.275 588.797 663.901 588.91C663.528 589.024 663.189 589.231 662.915 589.512C662.64 589.793 662.44 590.139 662.331 590.519L659.213 601.41C654.646 617.36 661.102 639.223 673.562 649.989L684.816 659.714L688.941 645.307Z" fill="url(#paint12_linear)"/>
<path d="M698.68 628.35L697.097 616.877C704.207 608.45 713.937 602.117 724.764 598.87L726.986 598.168C727.478 598.024 727.989 598 728.466 598.098L698.68 628.35Z" fill="url(#paint13_linear)"/>
<path d="M671.342 690.111H690.87C694.106 690.111 690.64 687.275 690.108 686.059C690.19 684.198 687.958 682.817 687.958 680.184V660.329C687.958 657.696 687.912 655.171 687.83 653.309C687.747 651.447 687.636 650.401 687.52 650.401L676.837 654.453C676.721 654.461 675.298 654.619 675.216 656.479C675.134 658.34 674.369 657.701 674.369 660.329L673.283 680.184C671.989 683.628 671.26 684.198 671.342 686.059C671.424 687.921 669.077 690.111 671.342 690.111Z" fill="url(#paint14_linear)"/>
<path d="M686.113 606.769C675.241 609.827 665.482 615.95 658.013 624.403C650.544 632.856 645.683 643.279 644.014 654.416L643.605 657.13C643.546 657.527 643.587 657.932 643.725 658.309C643.863 658.686 644.093 659.022 644.395 659.287C644.697 659.552 645.06 659.738 645.453 659.827C645.845 659.915 646.254 659.905 646.641 659.796L649.291 659.051C660.164 655.994 669.922 649.87 677.391 641.417C684.86 632.964 689.721 622.542 691.39 611.405L692.35 605.017L686.113 606.769Z" fill="url(#paint15_linear)"/>
<path d="M650.624 656.863C649.501 645.625 645.165 634.952 638.137 626.128C631.11 617.305 621.69 610.708 611.012 607.13L608.41 606.256C608.029 606.129 607.623 606.099 607.228 606.169C606.833 606.239 606.462 606.408 606.148 606.659C605.835 606.91 605.589 607.236 605.434 607.607C605.278 607.978 605.217 608.382 605.257 608.783L605.531 611.522C606.653 622.76 610.989 633.434 618.017 642.257C625.045 651.08 634.465 657.678 645.142 661.255L651.266 663.31L650.624 656.863Z" fill="url(#paint16_linear)"/>
<path d="M635.266 644.96H620.611C612.024 635.662 606.725 623.745 605.543 611.073L605.257 608.466C605.208 607.891 605.312 607.313 605.559 606.792L635.266 644.96Z" fill="url(#paint17_linear)"/>
<path d="M658.68 645.306C663.248 629.356 656.791 607.493 644.331 596.726L635.824 589.375C635.527 589.118 635.172 588.941 634.791 588.86C634.409 588.779 634.014 588.796 633.641 588.909C633.268 589.023 632.929 589.23 632.654 589.511C632.38 589.792 632.179 590.138 632.07 590.518L628.952 601.409C624.385 617.359 630.842 639.222 643.302 649.988L654.555 659.713L658.68 645.306Z" fill="url(#paint18_linear)"/>
<path d="M668.42 628.349L666.837 616.875C673.946 608.449 683.676 602.116 694.503 598.868L696.726 598.167C697.218 598.023 697.729 597.998 698.205 598.096L668.42 628.349Z" fill="url(#paint19_linear)"/>
<path d="M641.082 690.11H660.61C663.846 690.11 660.38 687.274 659.848 686.058C659.93 684.197 657.698 682.816 657.698 680.183V660.328C657.698 657.695 657.652 655.17 657.57 653.308C657.487 651.446 657.376 650.4 657.26 650.4L646.576 654.452C646.46 654.46 645.038 654.618 644.956 656.478C644.874 658.339 644.109 657.7 644.109 660.328L643.023 680.183C641.729 683.627 641 684.197 641.082 686.058C641.164 687.92 638.817 690.11 641.082 690.11Z" fill="url(#paint20_linear)"/>
<path d="M645.868 605.96C634.995 609.017 625.237 615.141 617.768 623.594C610.299 632.047 605.438 642.469 603.769 653.606L603.36 656.321C603.3 656.718 603.342 657.123 603.479 657.5C603.617 657.876 603.848 658.213 604.15 658.478C604.451 658.743 604.815 658.928 605.207 659.017C605.6 659.106 606.008 659.095 606.396 658.986L609.046 658.242C619.919 655.184 629.677 649.061 637.146 640.608C644.615 632.154 649.476 621.732 651.145 610.595L652.105 604.208L645.868 605.96Z" fill="url(#paint21_linear)"/>
<path d="M610.379 656.054C609.256 644.815 604.92 634.142 597.892 625.319C590.864 616.495 581.445 609.898 570.767 606.321L568.164 605.447C567.784 605.319 567.378 605.289 566.983 605.359C566.588 605.43 566.216 605.598 565.903 605.85C565.59 606.101 565.344 606.427 565.188 606.798C565.033 607.169 564.972 607.573 565.012 607.973L565.285 610.712C566.408 621.951 570.744 632.624 577.772 641.447C584.8 650.271 594.219 656.868 604.897 660.445L611.021 662.5L610.379 656.054Z" fill="url(#paint22_linear)"/>
<path d="M595.02 644.15H580.366C571.779 634.853 566.48 622.935 565.298 610.263L565.012 607.656C564.963 607.081 565.067 606.503 565.314 605.983L595.02 644.15Z" fill="url(#paint23_linear)"/>
<path d="M618.435 644.496C623.002 628.546 616.545 606.683 604.085 595.917L595.579 588.565C595.282 588.309 594.927 588.132 594.545 588.051C594.164 587.969 593.769 587.986 593.396 588.1C593.022 588.213 592.683 588.42 592.409 588.701C592.135 588.982 591.934 589.328 591.825 589.708L588.707 600.599C584.14 616.549 590.597 638.412 603.057 649.179L614.31 658.903L618.435 644.496Z" fill="url(#paint24_linear)"/>
<path d="M628.174 627.539L626.591 616.066C633.701 607.639 643.431 601.306 654.258 598.059L656.481 597.357C656.972 597.213 657.483 597.189 657.96 597.287L628.174 627.539Z" fill="url(#paint25_linear)"/>
<path d="M600.836 689.301H620.364C623.6 689.301 620.135 686.464 619.603 685.249C619.685 683.387 617.452 682.006 617.452 679.373V659.518C617.452 656.885 617.406 654.36 617.324 652.499C617.242 650.637 617.13 649.591 617.014 649.591L606.331 653.643C606.215 653.651 604.792 653.808 604.71 655.669C604.628 657.53 603.863 656.891 603.863 659.518L602.778 679.373C601.483 682.818 600.754 683.387 600.836 685.249C600.918 687.111 598.571 689.301 600.836 689.301Z" fill="url(#paint26_linear)"/>
<path d="M106.875 577.88L111.245 571.69L105.055 567.32L105.745 559.77L98.1949 559.08L95.0249 552.2L88.1349 555.37L81.9449 551L77.5749 557.19L70.0249 556.5L69.3349 564.05L62.4549 567.23L65.6349 574.11L61.2549 580.3L67.4449 584.67L66.7549 592.22L74.3049 592.91L77.4849 599.79L84.3649 596.62L90.5549 600.99L94.9249 594.8L102.475 595.49L103.165 587.94L110.045 584.76L106.875 577.88Z" fill="url(#paint27_linear)"/>
<path d="M227.785 577.724C227.607 577.977 227.322 578.158 226.99 578.182C220.223 578.663 211.902 580.506 203.865 582.276C190.296 585.274 178.579 587.863 174.507 584.203C173.356 583.167 172.857 581.722 173.035 579.928C173.095 579.326 173.617 578.88 174.21 578.94C174.804 579 175.243 579.53 175.184 580.132C175.053 581.577 175.552 582.216 175.944 582.565C179.208 585.503 191.507 582.782 203.414 580.144C211.533 578.35 219.926 576.496 226.847 576.002C227.441 575.966 227.951 576.411 227.999 577.014C228.011 577.278 227.928 577.531 227.785 577.724Z" fill="url(#paint28_linear)"/>
<path d="M361.088 566.849C360.323 565.791 359.148 565.109 357.866 564.933C338.607 562.336 283.711 552.97 271.612 552.076C270.083 551.959 265.839 551.959 263.864 552.206C247.556 554.297 217.985 569.081 217.985 569.081C208.955 571.831 212.824 576.932 212.824 576.932L243.088 609.99C243.923 610.895 244.828 611.753 245.827 612.469C250.025 615.501 253.693 615.807 256.456 616.653L346.25 632.965C348.777 633.27 351.094 631.555 351.54 629.051L361.922 570.503C362.158 569.222 361.852 567.906 361.088 566.849ZM234.305 584.829C230.836 586.263 226.851 584.606 225.416 581.139C223.982 577.672 225.639 573.688 229.108 572.254C232.576 570.821 236.562 572.478 237.997 575.945C239.431 579.423 237.773 583.395 234.305 584.829Z" fill="url(#paint29_linear)"/>
<path d="M227.793 577.607C227.674 577.776 227.496 577.92 227.282 578.004C226.723 578.208 226.105 577.908 225.903 577.343C224.679 573.86 217.047 571.038 206.919 570.342C194.699 569.501 179.827 571.975 176.035 579.409C175.774 579.949 175.108 580.153 174.585 579.877C174.05 579.601 173.848 578.94 174.122 578.412C178.365 570.065 193.748 567.243 207.073 568.168C215.953 568.78 226.093 571.326 227.948 576.611C228.055 576.959 227.995 577.331 227.793 577.607Z" fill="url(#paint30_linear)"/>
<path d="M113.685 687.28C120.81 687.28 126.585 679.351 126.585 669.57C126.585 659.789 120.81 651.86 113.685 651.86C106.561 651.86 100.785 659.789 100.785 669.57C100.785 679.351 106.561 687.28 113.685 687.28Z" fill="#3E4039"/>
<path d="M124.195 669.51C124.195 677.37 121.235 683.74 117.575 683.74C113.925 683.74 110.955 677.37 110.955 669.51C110.955 661.65 113.915 655.28 117.575 655.28C121.235 655.28 124.195 661.65 124.195 669.51Z" fill="#D6E3DD"/>
<path d="M218.975 662.5C218.975 675.61 213.845 686.24 207.505 686.24C201.175 686.24 196.035 675.61 196.035 662.5C196.035 649.39 201.165 638.76 207.505 638.76C213.835 638.76 218.975 649.39 218.975 662.5Z" fill="#3E4039"/>
<path d="M216.825 663C216.825 671.77 214.805 678.88 212.305 678.88C209.815 678.88 207.785 671.77 207.785 663C207.785 654.23 209.805 647.12 212.305 647.12C214.805 647.12 216.825 654.23 216.825 663Z" fill="#D6E3DD"/>
<path d="M58.8849 690.24C69.0249 690.24 77.2449 678.957 77.2449 665.04C77.2449 651.122 69.0249 639.84 58.8849 639.84C48.745 639.84 40.5249 651.122 40.5249 665.04C40.5249 678.957 48.745 690.24 58.8849 690.24Z" fill="#3E4039"/>
<path d="M72.3149 663.09C72.3149 674.88 67.3749 684.44 61.2749 684.44C55.1749 684.44 50.2349 674.88 50.2349 663.09C50.2349 651.3 55.1749 641.74 61.2749 641.74C67.3749 641.74 72.3149 651.3 72.3149 663.09Z" fill="#D6E3DD"/>
<path d="M174.135 690.18C183.375 690.18 190.865 678.898 190.865 664.98C190.865 651.063 183.375 639.78 174.135 639.78C164.896 639.78 157.405 651.063 157.405 664.98C157.405 678.898 164.896 690.18 174.135 690.18Z" fill="#3E4039"/>
<path d="M188.305 664.86C188.305 674.75 184.675 682.77 180.195 682.77C175.715 682.77 172.085 674.75 172.085 664.86C172.085 654.97 175.715 646.95 180.195 646.95C184.675 646.95 188.305 654.96 188.305 664.86Z" fill="#D6E3DD"/>
<path d="M218.915 662.66C218.915 662.66 220.275 636.59 216.615 639.24C216.615 639.24 212.075 643.49 212.325 655.37C212.325 655.37 212.585 669.6 206.665 670.74L190.085 672.4C190.085 672.4 192.955 661.84 187.485 649.75C187.485 649.75 187.065 628.91 181.025 637.36C180.645 637.89 180.605 638.2 179.975 639.73C178.145 644.24 174.585 654.76 175.095 667.54L175.065 667.65C175.005 667.91 174.815 668.62 174.505 669.5L174.495 669.54C173.985 670.98 173.125 672.88 171.905 674.09C171.905 674.09 163.155 674.4 150.065 674.74C120.065 675.51 67.2551 676.4 44.6451 673.89C42.4851 673.66 40.6051 673.38 39.0451 673.08C39.0451 673.08 37.1851 670.11 36.3751 666.92C36.0951 665.82 35.9351 664.7 36.0251 663.68C36.0251 663.68 36.1051 640.75 41.8951 631.43C41.8951 631.43 41.3951 617.82 53.9951 614.05C53.9951 614.05 56.8351 611.36 61.0351 607.49C71.3551 597.97 89.9051 581.36 94.5551 580.28C94.5551 580.28 131.595 569.45 174.925 576.5C174.925 576.5 189.025 578.69 199.285 589.6C199.285 589.6 201.635 592.67 203.875 597.19C205.535 600.54 207.135 604.71 207.675 609C207.675 609 207.705 609.03 207.765 609.09C208.455 609.83 213.215 615.03 214.055 616.98C215.035 619.24 217.415 630.74 218.505 635.7C218.505 635.72 224.595 654.98 218.915 662.66Z" fill="url(#paint31_linear)"/>
<path d="M56.5752 606.91L56.5652 606.98C56.4652 607.17 56.1152 607.95 56.0752 609.59C56.0652 610.12 58.0952 610.27 58.0952 610.27L61.2052 607.49L66.4852 602.54C66.4752 602.54 60.5552 600.32 56.5752 606.91Z" fill="#F39121"/>
<path d="M181.665 593.65C181.665 593.65 180.835 584.62 184.295 584C184.295 584 187.025 583.69 187.425 584.36C190.675 589.79 194.745 598.77 196.465 609.94C196.465 609.94 188.965 613.92 186.005 611.29C183.055 608.67 181.665 593.65 181.665 593.65Z" fill="url(#paint32_linear)"/>
<path d="M189.285 583.73C189.285 583.73 200.535 589.94 203.565 603.97C203.565 603.97 198.025 606.07 197.435 605.57C196.845 605.07 192.735 590.54 188.865 585C188.865 584.99 187.855 583.48 189.285 583.73Z" fill="url(#paint33_linear)"/>
<path d="M73.6449 608.94C71.9749 608.97 71.1448 606.94 72.3548 605.79C79.1048 599.4 90.3048 586.91 95.9548 584.81C98.2948 584.35 119.245 580.41 140.755 580.41C152.855 580.41 162.915 581.64 170.715 584.06C171.465 584.29 171.975 585 171.985 585.78C172.065 592.52 168.905 604.18 168.145 607.38C167.955 608.2 167.205 608.76 166.365 608.76C161.105 608.74 143.585 608.67 124.495 608.67C98.0748 608.65 82.6849 608.77 73.6449 608.94Z" fill="url(#paint34_linear)"/>
<path d="M59.2148 621.51C56.6448 618.72 53.9948 614.05 53.9948 614.05C50.4648 615.11 47.9548 616.94 46.1848 619.03C41.6348 624.39 41.8948 631.43 41.8948 631.43C42.5748 632.26 45.2548 632.44 45.2548 632.44C48.6148 630.93 64.5748 634.29 64.5748 634.29C64.5748 634.29 64.0148 625.74 59.2148 621.51Z" fill="#D6E3DD"/>
<path d="M166.185 613.63C166.185 613.63 171.235 614.67 172.115 618.08C172.275 618.68 172.305 619.35 172.145 620.1C172.145 620.1 169.625 636.22 160.805 632.44C160.805 632.44 141.915 632.69 133.595 633.7C133.595 633.7 135.895 625.96 145.175 621.27C145.185 621.27 156.675 615.73 166.185 613.63Z" fill="#D6E3DD"/>
<path d="M122.025 658.56H70.7549C70.2049 658.56 69.7549 658.11 69.7549 657.56V646.02C69.7549 645.47 70.2049 645.02 70.7549 645.02H122.025C122.575 645.02 123.025 645.47 123.025 646.02V657.56C123.025 658.11 122.585 658.56 122.025 658.56Z" fill="white"/>
<path d="M80.045 647.92H79.095L78.475 650.12L77.815 647.92H76.865L77.955 651.42L76.855 655.13H77.795L78.475 652.62L79.195 655.13H80.145L78.985 651.4L80.045 647.92Z" fill="#979797"/>
<path d="M84.4649 647.92H83.5149L82.8949 650.12L82.2349 647.92H81.2849L82.3749 651.42L81.2749 655.13H82.2149L82.8949 652.62L83.6049 655.13H84.5649L83.4049 651.4L84.4649 647.92Z" fill="#979797"/>
<path d="M93.515 647.92H92.565L91.9449 650.12L91.285 647.92H90.3349L91.425 651.42L90.325 655.13H91.265L91.9449 652.62L92.6649 655.13H93.625L92.455 651.4L93.515 647.92Z" fill="#979797"/>
<path d="M97.9349 647.92H96.9849L96.3649 650.12L95.7049 647.92H94.7549L95.8449 651.42L94.7449 655.13H95.6849L96.3649 652.62L97.0849 655.13H98.0349L96.8749 651.4L97.9349 647.92Z" fill="#979797"/>
<path d="M102.355 647.92H101.405L100.785 650.12L100.125 647.92H99.175L100.265 651.42L99.165 655.13H100.105L100.785 652.62L101.495 655.13H102.455L101.295 651.4L102.355 647.92Z" fill="#979797"/>
<path d="M111.405 647.92H110.455L109.835 650.12L109.175 647.92H108.225L109.315 651.42L108.215 655.13H109.155L109.835 652.62L110.555 655.13H111.515L110.345 651.4L111.405 647.92Z" fill="#979797"/>
<path d="M114.765 651.41L115.825 647.92H114.875L114.255 650.12L113.595 647.92H112.645L113.735 651.42L112.635 655.13H113.575L114.255 652.62L114.975 655.13H115.935L114.765 651.41Z" fill="#979797"/>
<path d="M88.6449 651.1V651.95H86.2549V651.1H88.6449Z" fill="#979797"/>
<path d="M106.615 651.1V651.95H104.225V651.1H106.615Z" fill="#979797"/>
<path d="M73.8949 645.02H70.7549C70.2049 645.02 69.7549 645.47 69.7549 646.02V657.56C69.7549 658.11 70.2049 658.56 70.7549 658.56H73.8949V645.02Z" fill="url(#paint35_linear)"/>
<path d="M122.025 645.02H118.885V658.56H122.025C122.575 658.56 123.025 658.11 123.025 657.56V646.02C123.025 645.47 122.575 645.02 122.025 645.02Z" fill="url(#paint36_linear)"/>
<path d="M89.145 599.39C91.795 597.49 94.665 595.93 97.585 594.46C100.525 593.02 103.515 591.67 106.725 590.66C104.075 592.56 101.205 594.12 98.285 595.59C95.345 597.03 92.355 598.39 89.145 599.39Z" fill="#CAC9C9"/>
<path d="M107.705 600.27C110.355 598.37 113.225 596.81 116.145 595.34C119.085 593.9 122.075 592.55 125.285 591.54C122.635 593.44 119.765 595 116.845 596.47C113.905 597.9 110.915 599.26 107.705 600.27Z" fill="#CAC9C9"/>
<path d="M93.0552 602.01C97.3452 599.38 101.845 597.1 106.385 594.9C110.955 592.74 115.575 590.66 120.405 588.93C116.115 591.56 111.625 593.85 107.075 596.04C102.495 598.2 97.8752 600.28 93.0552 602.01Z" fill="#CAC9C9"/>
<path d="M182.505 610.52L183.565 613.54C183.565 613.54 200.825 615.51 205.315 610.01C205.315 610.01 206.495 597.5 187.845 601.7C185.795 602.16 187.765 610.1 187.765 610.1C187.765 610.1 184.355 611.11 182.505 610.52Z" fill="#F39121"/>
<path d="M246 579.26L247.78 576L258.92 577.93L257.14 581.19L246 579.26Z" fill="white"/>
<path d="M315.924 583.664C317.03 580.89 318.286 579.014 319.692 578.035C321.109 577.057 322.998 576.769 325.383 577.184C327.25 577.506 328.529 578.082 329.232 578.91C329.934 579.739 330.153 580.913 329.888 582.455C329.727 583.411 329.37 584.562 328.828 585.909C327.699 588.671 326.432 590.547 325.038 591.537C323.644 592.527 321.731 592.803 319.323 592.389C317.491 592.067 316.212 591.503 315.509 590.674C314.807 589.845 314.588 588.671 314.853 587.129C315.025 586.162 315.383 585.011 315.924 583.664ZM314 605.764L338.472 579.451L343 580.234L318.528 606.547L314 605.764ZM320.948 584.539C320.302 586.15 319.922 587.255 319.818 587.854C319.68 588.648 319.945 589.097 320.602 589.212C321.201 589.316 321.708 589.097 322.111 588.567C322.514 588.026 323.091 586.852 323.828 585.034C324.473 583.422 324.853 582.317 324.957 581.719C325.095 580.925 324.819 580.464 324.139 580.349C323.563 580.245 323.068 580.464 322.653 581.005C322.215 581.535 321.65 582.709 320.948 584.539ZM328.241 600.101C329.347 597.327 330.603 595.451 332.008 594.472C333.425 593.494 335.338 593.206 337.746 593.62C339.578 593.943 340.857 594.507 341.56 595.336C342.263 596.164 342.482 597.338 342.217 598.881C342.055 599.836 341.698 600.987 341.157 602.334C340.027 605.096 338.76 606.972 337.366 607.962C335.972 608.952 334.059 609.229 331.651 608.814C329.819 608.492 328.54 607.928 327.837 607.099C327.135 606.27 326.916 605.096 327.181 603.554C327.342 602.599 327.688 601.448 328.241 600.101ZM333.253 600.976C332.607 602.587 332.227 603.692 332.124 604.291C331.985 605.085 332.25 605.534 332.907 605.649C333.506 605.752 334.013 605.534 334.416 605.004C334.82 604.463 335.396 603.289 336.133 601.471C336.778 599.859 337.159 598.754 337.262 598.156C337.4 597.361 337.135 596.912 336.479 596.797C335.88 596.694 335.373 596.912 334.969 597.442C334.566 597.971 333.99 599.157 333.253 600.976Z" fill="white"/>
<path d="M77.5453 575.35C78.4853 577.5 77.4953 580.01 75.3453 580.94C73.1953 581.88 70.6853 580.89 69.7553 578.74C68.8153 576.59 69.8053 574.08 71.9553 573.15C74.1053 572.22 76.6153 573.2 77.5453 575.35Z" fill="white"/>
<path d="M72.8053 574.65C72.7453 574.67 72.6853 574.68 72.6253 574.71C71.3353 575.27 70.7453 576.78 71.3053 578.07C71.8653 579.36 73.3753 579.95 74.6653 579.39C75.9553 578.83 76.5453 577.32 75.9853 576.03C75.9153 575.88 75.8353 575.73 75.7453 575.6C74.4553 576.09 73.5053 575.55 72.8053 574.65Z" fill="#0C4D86"/>
<path d="M100.405 565.4C101.345 567.55 100.355 570.06 98.2052 570.99C96.0552 571.93 93.5452 570.94 92.6152 568.79C91.6752 566.64 92.6652 564.13 94.8152 563.2C96.9652 562.26 99.4652 563.25 100.405 565.4Z" fill="white"/>
<path d="M95.6654 564.7C95.6054 564.72 95.5454 564.73 95.4854 564.76C94.1954 565.32 93.6054 566.83 94.1654 568.12C94.7254 569.41 96.2354 570 97.5254 569.44C98.8154 568.88 99.4054 567.37 98.8454 566.08C98.7754 565.93 98.6954 565.78 98.6054 565.65C97.3154 566.14 96.3654 565.59 95.6654 564.7Z" fill="#0C4D86"/>
<path d="M86.9353 576.62C88.9553 575.74 89.4653 573.6 89.3353 572.21C89.2153 570.82 88.4053 571.18 88.4053 571.18L85.1753 572.59L81.9453 574C81.9453 574 81.1353 574.35 82.0653 575.39C82.9953 576.41 84.9153 577.5 86.9353 576.62Z" fill="white"/>
<path d="M284.618 590.273C284.571 590.472 284.488 590.86 284.571 590.99C284.723 591.225 285.276 591.295 285.676 591.378C285.97 591.436 285.37 594.305 285.158 595.281C284.958 596.221 284.618 597.844 284.324 597.785C283.63 597.644 283.595 597.585 283.242 597.761C283.007 597.914 283.03 598.032 282.972 598.326C282.572 600.254 282.36 601.229 281.984 603.005C281.867 603.545 280.526 603.322 279.245 603.052C278.257 602.84 275.271 602.111 275.389 601.57C275.753 599.842 275.812 599.548 276.212 597.679C276.271 597.385 276.435 596.856 276.365 596.48C276.235 596.139 275.577 596.057 275.083 595.951C273.555 595.633 268.429 594.552 266.901 594.234C266.654 594.187 266.254 594.152 266.149 593.87C266.019 593.482 266.16 593.094 266.243 592.706C266.642 590.778 266.583 591.084 266.995 589.156C267.113 588.615 267.183 588.274 267.418 587.651C267.618 587.181 267.877 586.722 268.1 586.358C272.121 580.198 275.542 574.743 280.091 568.277C280.597 567.56 281.267 567.336 284.477 568.018C288.027 568.77 289.073 569.135 288.979 569.629C287.075 578.587 286.51 581.303 284.618 590.273ZM278.093 588.744C279.151 584.183 279.069 584.371 280.127 579.798C280.232 579.304 280.479 578.375 280.232 578.328C279.892 578.258 279.551 579.116 279.339 579.633C278.187 582.173 277.482 583.313 276.282 585.841C276.024 586.358 275.93 586.534 275.718 587.063C275.601 587.392 275.518 587.486 275.448 587.827C275.26 588.721 275.365 588.227 275.307 588.521C275.189 589.062 275.389 588.85 275.542 589.132C275.612 589.297 275.506 589.285 276.2 589.426C276.894 589.567 277.54 589.661 277.764 589.603C277.975 589.544 278.011 589.144 278.093 588.744Z" fill="white"/>
<path d="M309.846 573.437C310.587 573.59 310.258 575.636 310.058 576.623C309.846 577.611 309.212 580.15 308.565 580.021C306.543 579.598 302.992 578.845 301.017 578.434C300.477 578.316 300.183 578.257 299.807 578.54C299.442 578.822 299.395 579.022 299.289 579.515C298.619 582.725 299.266 579.609 298.607 582.772C298.455 583.512 298.055 584.665 298.901 584.794C299.489 584.923 300.206 584.241 302.569 584.747C304.791 585.217 305.696 586.275 306.484 587.686C307.272 589.085 307.319 590.331 306.99 591.859C306.66 593.435 306.308 595.116 305.979 596.691C305.555 598.713 304.098 601.241 302.687 602.534C301.347 603.745 298.408 605.238 295.798 605.414C292.247 605.649 287.533 605.32 286.604 604.568C286.334 604.356 286.969 601.605 287.086 601.065C287.18 600.618 287.686 598.208 287.921 598.043C288.814 597.455 289.814 598.078 292.753 598.078C294.399 598.067 295.139 597.961 296.338 597.702C297.302 597.491 298.243 596.715 298.443 595.774C298.76 594.246 298.643 594.834 298.948 593.352C299.325 591.577 299.654 590.46 298.372 590.19C297.291 589.967 297.091 590.437 296.891 590.86C296.785 591.095 295.821 590.79 295.374 590.743C294.916 590.696 290.801 589.99 289.614 589.485C289.379 589.379 289.755 588.074 289.92 587.286C291.236 581.02 291.906 577.822 293.176 571.803C293.305 571.215 293.517 570.686 293.646 570.557C294.152 570.099 294.446 570.204 295.034 570.334C297.914 570.921 307.037 572.85 309.846 573.437Z" fill="white"/>
<path d="M349.15 455.895C349 456.105 348.76 456.255 348.48 456.275C342.78 456.675 335.77 458.205 329 459.675C317.57 462.165 307.7 464.315 304.27 461.275C303.3 460.415 302.88 459.215 303.03 457.725C303.08 457.225 303.52 456.855 304.02 456.905C304.52 456.955 304.89 457.395 304.84 457.895C304.73 459.095 305.15 459.625 305.48 459.915C308.23 462.355 318.59 460.095 328.62 457.905C335.46 456.415 342.53 454.875 348.36 454.465C348.86 454.435 349.29 454.805 349.33 455.305C349.34 455.525 349.27 455.735 349.15 455.895Z" fill="url(#paint37_linear)"/>
<path d="M462.88 446.635C462.23 445.735 461.23 445.155 460.14 445.005C443.76 442.795 397.07 434.825 386.78 434.065C385.48 433.965 381.87 433.965 380.19 434.175C366.32 435.955 341.17 448.535 341.17 448.535C333.49 450.875 336.78 455.215 336.78 455.215L362.52 483.345C363.23 484.115 364 484.845 364.85 485.455C368.42 488.035 371.54 488.295 373.89 489.015L450.26 502.895C452.41 503.155 454.38 501.695 454.76 499.565L463.59 449.745C463.79 448.655 463.53 447.535 462.88 446.635ZM355.05 461.935C352.1 463.155 348.71 461.745 347.49 458.795C346.27 455.845 347.68 452.455 350.63 451.235C353.58 450.015 356.97 451.425 358.19 454.375C359.41 457.335 358 460.715 355.05 461.935Z" fill="url(#paint38_linear)"/>
<path d="M349.15 455.895C349.05 456.035 348.9 456.155 348.72 456.225C348.25 456.395 347.73 456.145 347.56 455.675C346.53 452.775 340.11 450.425 331.59 449.845C321.31 449.145 308.8 451.205 305.61 457.395C305.39 457.845 304.83 458.015 304.39 457.785C303.94 457.555 303.77 457.005 304 456.565C307.57 449.615 320.51 447.265 331.72 448.035C339.19 448.545 347.72 450.665 349.28 455.065C349.37 455.355 349.32 455.665 349.15 455.895Z" fill="url(#paint39_linear)"/>
<path d="M424.16 460.665C425.12 458.255 426.21 456.625 427.43 455.775C428.66 454.925 430.3 454.675 432.37 455.035C433.99 455.315 435.1 455.815 435.71 456.535C436.32 457.255 436.51 458.275 436.28 459.615C436.14 460.445 435.83 461.445 435.36 462.615C434.38 465.015 433.28 466.645 432.07 467.505C430.86 468.365 429.2 468.605 427.11 468.245C425.52 467.965 424.41 467.475 423.8 466.755C423.19 466.035 423 465.015 423.23 463.675C423.38 462.835 423.69 461.835 424.16 460.665ZM422.49 479.865L443.73 457.005L447.66 457.685L426.42 480.545L422.49 479.865ZM428.52 461.425C427.96 462.825 427.63 463.785 427.54 464.305C427.42 464.995 427.65 465.385 428.22 465.485C428.74 465.575 429.18 465.385 429.53 464.925C429.88 464.455 430.38 463.435 431.02 461.855C431.58 460.455 431.91 459.495 432 458.975C432.12 458.285 431.88 457.885 431.29 457.785C430.79 457.695 430.36 457.885 430 458.355C429.62 458.815 429.13 459.835 428.52 461.425ZM434.85 474.945C435.81 472.535 436.9 470.905 438.12 470.055C439.35 469.205 441.01 468.955 443.1 469.315C444.69 469.595 445.8 470.085 446.41 470.805C447.02 471.525 447.21 472.545 446.98 473.885C446.84 474.715 446.53 475.715 446.06 476.885C445.08 479.285 443.98 480.915 442.77 481.775C441.56 482.635 439.9 482.875 437.81 482.515C436.22 482.235 435.11 481.745 434.5 481.025C433.89 480.305 433.7 479.285 433.93 477.945C434.07 477.115 434.37 476.115 434.85 474.945ZM439.2 475.705C438.64 477.105 438.31 478.065 438.22 478.585C438.1 479.275 438.33 479.665 438.9 479.765C439.42 479.855 439.86 479.665 440.21 479.205C440.56 478.735 441.06 477.715 441.7 476.135C442.26 474.735 442.59 473.775 442.68 473.255C442.8 472.565 442.57 472.175 442 472.075C441.48 471.985 441.04 472.175 440.69 472.635C440.34 473.095 439.84 474.125 439.2 475.705Z" fill="white"/>
<path d="M394.873 465.563C396.757 464.787 397.952 463.49 398.434 461.693C399.284 458.521 397.376 454.442 392.689 453.186C385.383 451.228 383.119 457.99 382.873 458.267L388.104 460.642C388.242 460.438 388.882 457.527 391.224 458.154C393.333 458.72 392.798 461.035 391.642 461.708C390.827 462.182 390.457 461.972 388.438 461.603L386.327 466.603C387.048 466.619 388.3 466.517 389.328 466.793C390.508 467.109 391.467 468.293 390.949 470.225C390.392 472.305 388.873 472.896 387.616 472.559C384.942 471.842 385.88 468.733 385.859 468.506L380.066 467.667C380.1 467.829 378.183 475.426 386.298 477.6C390.996 478.859 395.608 476.365 396.782 471.985C397.448 469.499 396.705 467.12 394.873 465.563Z" fill="white"/>
<path d="M410.034 479.772L416.473 455.74L411.778 454.482L411.486 454.903C410.712 456.019 409.581 456.895 408.125 457.509C406.618 458.146 405.28 458.5 404.148 458.561L403.619 458.59L402.176 463.977L403.184 463.919C405.045 463.814 406.816 463.42 408.469 462.747L404.317 478.24L410.034 479.772Z" fill="white"/>
<path d="M243.407 548.691C236.947 548.691 231.71 541.708 231.71 533.094C231.71 524.48 236.947 517.497 243.407 517.497C249.867 517.497 255.104 524.48 255.104 533.094C255.104 541.708 249.867 548.691 243.407 548.691Z" fill="#3E4039"/>
<path d="M252.945 533.053C252.945 539.974 250.258 545.583 246.947 545.583C243.635 545.583 240.949 539.974 240.949 533.053C240.949 526.132 243.635 520.523 246.947 520.523C250.258 520.509 252.945 526.118 252.945 533.053Z" fill="#D6E3DD"/>
<path d="M338.848 526.864C338.848 538.413 334.201 547.779 328.459 547.779C322.717 547.779 318.069 538.413 318.069 526.864C318.069 515.314 322.717 505.948 328.459 505.948C334.201 505.948 338.848 515.314 338.848 526.864Z" fill="#3E4039"/>
<path d="M336.901 527.306C336.901 535.028 335.068 541.3 332.808 541.3C330.548 541.3 328.715 535.028 328.715 527.306C328.715 519.583 330.548 513.311 332.808 513.311C335.082 513.311 336.901 519.583 336.901 527.306Z" fill="#D6E3DD"/>
<path d="M193.733 551.302C184.541 551.302 177.09 541.362 177.09 529.101C177.09 516.84 184.541 506.901 193.733 506.901C202.925 506.901 210.376 516.84 210.376 529.101C210.376 541.362 202.925 551.302 193.733 551.302Z" fill="#3E4039"/>
<path d="M205.914 527.389C205.914 537.778 201.437 546.191 195.908 546.191C190.379 546.191 185.902 537.764 185.902 527.389C185.902 517 190.379 508.587 195.908 508.587C201.423 508.587 205.914 517 205.914 527.389Z" fill="#D6E3DD"/>
<path d="M298.213 551.26C289.838 551.26 283.048 541.32 283.048 529.059C283.048 516.798 289.838 506.859 298.213 506.859C306.589 506.859 313.379 516.798 313.379 529.059C313.379 541.32 306.589 551.26 298.213 551.26Z" fill="#3E4039"/>
<path d="M311.062 528.949C311.062 537.666 307.764 544.726 303.714 544.726C299.649 544.726 296.366 537.666 296.366 528.949C296.366 520.232 299.663 513.172 303.714 513.172C307.764 513.159 311.062 520.232 311.062 528.949Z" fill="#D6E3DD"/>
<path d="M338.805 527.016C338.805 527.016 340.042 504.042 336.73 506.376C336.73 506.376 332.608 510.12 332.836 520.592C332.836 520.592 333.063 533.136 327.705 534.131L312.682 535.595C312.682 535.595 315.283 526.284 310.322 515.646C310.322 515.646 309.939 497.286 304.467 504.719C304.126 505.188 304.083 505.465 303.514 506.805C301.851 510.77 298.625 520.053 299.094 531.312L299.066 531.409C299.009 531.644 298.838 532.266 298.554 533.039L298.54 533.081C298.085 534.352 297.303 536.023 296.195 537.087C296.195 537.087 288.264 537.363 276.396 537.653C249.207 538.33 201.337 539.118 180.828 536.907C178.866 536.7 177.175 536.465 175.754 536.203C175.754 536.203 174.062 533.578 173.337 530.774C173.082 529.806 172.94 528.826 173.025 527.914C173.025 527.914 173.096 507.716 178.34 499.497C178.34 499.497 180.558 488.376 189.313 484.176C189.313 484.176 191.885 481.8 195.695 478.401C205.047 470.016 221.861 455.386 226.082 454.432C226.082 454.432 259.653 444.886 298.938 451.103C298.938 451.103 311.73 453.037 321.025 462.652C321.025 462.652 323.157 465.36 325.189 469.339C326.696 472.295 328.146 475.956 328.629 479.741C328.629 479.741 328.657 479.769 328.7 479.824C329.325 480.473 333.632 485.06 334.399 486.773C335.28 488.762 337.441 498.889 338.436 503.268C338.436 503.268 343.95 520.247 338.805 527.016Z" fill="url(#paint40_linear)"/>
<path d="M191.644 477.889L191.63 477.959C191.545 478.124 191.218 478.815 191.189 480.252C191.175 480.722 193.023 480.846 193.023 480.846L195.851 478.401L200.641 474.035C200.613 474.035 195.254 472.073 191.644 477.889Z" fill="#183964"/>
<path d="M305.035 466.202C305.035 466.202 304.282 458.245 307.423 457.692C307.423 457.692 309.896 457.416 310.265 458.01C313.207 462.79 316.903 470.706 318.466 480.542C318.466 480.542 311.658 484.051 308.986 481.73C306.3 479.437 305.035 466.202 305.035 466.202Z" fill="url(#paint41_linear)"/>
<path d="M311.942 457.471C311.942 457.471 322.147 462.942 324.89 475.306C324.89 475.306 319.859 477.157 319.333 476.715C318.807 476.273 315.069 463.467 311.573 458.59C311.559 458.576 310.649 457.25 311.942 457.471Z" fill="url(#paint42_linear)"/>
<path d="M207.108 479.672C205.601 479.7 204.834 477.904 205.942 476.895C212.054 471.272 222.216 460.262 227.333 458.411C229.465 458.01 248.453 454.529 267.953 454.529C278.926 454.529 288.036 455.606 295.115 457.748C295.797 457.955 296.252 458.577 296.266 459.267C296.337 465.208 293.48 475.472 292.784 478.304C292.613 479.023 291.931 479.52 291.178 479.52C286.416 479.506 270.526 479.437 253.229 479.437C229.266 479.423 215.309 479.534 207.108 479.672Z" fill="url(#paint43_linear)"/>
<path d="M194.032 490.752C191.701 488.293 189.299 484.176 189.299 484.176C186.101 485.115 183.827 486.718 182.221 488.569C178.099 493.294 178.326 499.496 178.326 499.496C178.938 500.229 181.368 500.381 181.368 500.381C184.41 499.054 198.878 502.011 198.878 502.011C198.878 502.011 198.381 494.482 194.032 490.752Z" fill="#D6E3DD"/>
<path d="M291.007 483.802C291.007 483.802 295.583 484.714 296.379 487.725C296.521 488.25 296.55 488.844 296.408 489.507C296.408 489.507 294.119 503.709 286.132 500.38C286.132 500.38 269.005 500.601 261.458 501.499C261.458 501.499 263.547 494.674 271.961 490.543C271.961 490.543 282.379 485.653 291.007 483.802Z" fill="#D6E3DD"/>
<path d="M249.974 523.397C250.457 523.397 250.841 522.996 250.841 522.513V512.345C250.841 511.862 250.457 511.461 249.974 511.461H205.274C204.791 511.461 204.407 511.862 204.407 512.345V522.513C204.407 522.996 204.791 523.397 205.274 523.397H249.974Z" fill="white"/>
<path d="M211.954 517.096L213.006 520.37H212.139L211.5 518.159L210.874 520.37H210.021L211.016 517.096L210.036 514.029H210.888L211.5 515.963L212.054 514.029H212.921L211.954 517.096Z" fill="#979797"/>
<path d="M215.962 517.096L217.014 520.37H216.147L215.493 518.159L214.882 520.37H214.029L215.024 517.096L214.044 514.029H214.896L215.493 515.963L216.062 514.029H216.929L215.962 517.096Z" fill="#979797"/>
<path d="M224.163 517.096L225.229 520.37H224.348L223.708 518.159L223.083 520.37H222.23L223.239 517.096L222.244 514.029H223.097L223.708 515.963L224.263 514.029H225.13L224.163 517.096Z" fill="#979797"/>
<path d="M228.171 517.096L229.223 520.37H228.356L227.717 518.159L227.091 520.37H226.238L227.248 517.096L226.253 514.029H227.105L227.717 515.963L228.271 514.029H229.138L228.171 517.096Z" fill="#979797"/>
<path d="M232.179 517.096L233.231 520.37H232.364L231.71 518.159L231.099 520.37H230.246L231.241 517.096L230.26 514.029H231.113L231.71 515.963L232.279 514.029H233.146L232.179 517.096Z" fill="#979797"/>
<path d="M240.38 517.096L241.446 520.37H240.565L239.925 518.159L239.3 520.37H238.447L239.456 517.096L238.461 514.029H239.328L239.925 515.963L240.494 514.029H241.346L240.38 517.096Z" fill="#979797"/>
<path d="M245.44 520.37H244.573L243.933 518.159L243.308 520.37H242.455L243.464 517.096L242.469 514.029H243.322L243.933 515.963L244.487 514.029H245.354L244.388 517.096L245.44 520.37Z" fill="#979797"/>
<path d="M218.55 516.819V517.565H220.71V516.819H218.55Z" fill="#979797"/>
<path d="M234.837 516.819V517.565H236.998V516.819H234.837Z" fill="#979797"/>
<path d="M207.335 523.395H204.493C203.995 523.395 203.583 522.994 203.583 522.497V512.191C203.583 511.694 203.995 511.293 204.493 511.293H207.335V523.395Z" fill="#183964"/>
<path d="M251.879 512.206V522.512C251.879 523.009 251.466 523.41 250.969 523.41H248.126V511.322H250.969C251.481 511.308 251.879 511.708 251.879 512.206Z" fill="#183964"/>
<path d="M221.164 471.259C224.078 470.375 226.778 469.173 229.45 467.916C232.094 466.617 234.695 465.249 237.097 463.578C234.183 464.462 231.468 465.664 228.81 466.921C226.167 468.219 223.566 469.587 221.164 471.259Z" fill="#CAC9C9"/>
<path d="M237.992 472.032C240.906 471.148 243.62 469.946 246.278 468.689C248.922 467.39 251.523 466.023 253.925 464.351C251.011 465.235 248.296 466.423 245.639 467.694C242.995 468.993 240.394 470.361 237.992 472.032Z" fill="#CAC9C9"/>
<path d="M224.704 473.566C229.081 472.046 233.26 470.209 237.41 468.302C241.532 466.368 245.611 464.351 249.491 462.03C245.114 463.55 240.921 465.387 236.785 467.294C232.677 469.242 228.598 471.259 224.704 473.566Z" fill="#CAC9C9"/>
<path d="M305.803 481.067L306.769 483.733C306.769 483.733 322.418 485.474 326.482 480.625C326.482 480.625 327.548 469.6 310.649 473.303C308.787 473.703 310.578 480.707 310.578 480.707C310.578 480.707 307.48 481.592 305.803 481.067Z" fill="#183964"/>
<path d="M146.665 425.148C146.609 425.349 146.468 425.53 146.26 425.623C142.034 427.506 137.123 430.611 132.379 433.605C124.371 438.665 117.457 443.035 114.005 441.671C113.028 441.286 112.377 440.489 112.078 439.314C111.978 438.919 112.21 438.516 112.604 438.415C112.999 438.315 113.402 438.547 113.502 438.942C113.751 439.885 114.217 440.172 114.549 440.301C117.317 441.396 124.574 436.808 131.6 432.363C136.392 429.335 141.345 426.205 145.668 424.279C146.04 424.117 146.469 424.28 146.638 424.649C146.707 424.814 146.712 424.993 146.665 425.148Z" fill="url(#paint44_linear)"/>
<path d="M230.64 386.604C229.896 386.1 228.974 385.935 228.103 386.123C215.027 388.978 177.293 395.844 169.253 398.116C168.236 398.4 165.489 399.4 164.269 400.025C154.208 405.22 138.554 421.758 138.554 421.758C133.359 425.666 137.064 428.057 137.064 428.057L164.441 442.333C165.194 442.722 165.982 443.064 166.798 443.293C170.229 444.267 172.675 443.601 174.663 443.498L236.618 432.909C238.326 432.511 239.421 430.855 239.12 429.129L232.041 388.774C231.892 387.889 231.384 387.109 230.64 386.604ZM152.827 428.11C150.92 429.856 147.95 429.722 146.205 427.815C144.46 425.908 144.594 422.938 146.501 421.193C148.407 419.447 151.377 419.581 153.123 421.488C154.871 423.403 154.734 426.365 152.827 428.11Z" fill="url(#paint45_linear)"/>
<path d="M146.665 425.148C146.628 425.282 146.547 425.415 146.429 425.518C146.119 425.778 145.654 425.731 145.394 425.421C143.807 423.499 138.271 423.489 131.628 425.408C123.612 427.722 114.663 432.754 113.95 438.348C113.907 438.751 113.528 439.035 113.13 438.982C112.724 438.932 112.442 438.561 112.495 438.162C113.287 431.885 122.482 426.513 131.225 423.994C137.051 422.313 144.128 421.564 146.534 424.48C146.683 424.676 146.731 424.926 146.665 425.148Z" fill="url(#paint46_linear)"/>
<path d="M205.063 408.003C205.126 405.904 205.504 404.362 206.197 403.377C206.897 402.389 208.076 401.745 209.751 401.446C211.061 401.21 212.044 401.283 212.707 401.662C213.371 402.041 213.798 402.765 213.994 403.848C214.118 404.518 214.159 405.365 214.125 406.385C214.044 408.483 213.658 410.028 212.976 411.017C212.293 412.007 211.097 412.649 209.407 412.954C208.119 413.182 207.139 413.116 206.475 412.737C205.812 412.358 205.385 411.635 205.189 410.551C205.07 409.871 205.029 409.024 205.063 408.003ZM209.109 423.076L218.94 399.799L222.119 399.228L212.288 422.505L209.109 423.076ZM208.591 407.374C208.552 408.595 208.567 409.416 208.643 409.837C208.742 410.395 209.025 410.628 209.487 410.547C209.907 410.471 210.19 410.205 210.329 409.758C210.465 409.303 210.563 408.389 210.612 407.009C210.651 405.789 210.636 404.967 210.56 404.546C210.46 403.988 210.167 403.75 209.69 403.837C209.285 403.907 209.01 404.171 208.867 404.628C208.705 405.084 208.615 405.995 208.591 407.374ZM217.152 415.909C217.215 413.809 217.593 412.267 218.286 411.282C218.986 410.295 220.18 409.645 221.87 409.34C223.157 409.113 224.138 409.178 224.801 409.557C225.465 409.936 225.892 410.659 226.088 411.743C226.211 412.413 226.253 413.26 226.219 414.28C226.138 416.378 225.752 417.923 225.07 418.912C224.387 419.902 223.191 420.544 221.501 420.849C220.213 421.076 219.233 421.011 218.569 420.632C217.906 420.253 217.479 419.53 217.283 418.446C217.159 417.776 217.111 416.932 217.152 415.909ZM220.672 415.282C220.634 416.503 220.649 417.325 220.724 417.745C220.824 418.303 221.107 418.537 221.568 418.455C221.989 418.379 222.271 418.113 222.41 417.666C222.546 417.211 222.644 416.297 222.694 414.917C222.732 413.697 222.717 412.875 222.642 412.454C222.542 411.896 222.259 411.663 221.797 411.745C221.377 411.82 221.095 412.087 220.956 412.534C220.817 412.981 220.722 413.903 220.672 415.282Z" fill="white"/>
<path d="M160.212 424.84L160.663 421.867L169.674 420.25L169.223 423.224L160.212 424.84Z" fill="white"/>
<path d="M184.428 412.516C183.944 409.771 181.491 407.346 177.103 408.12C173.186 408.811 171.248 411.21 171.498 415.059L171.535 415.633L176.239 415.269L176.176 414.687C175.956 412.671 176.829 412.24 177.712 412.085C178.913 411.873 179.629 412.375 179.841 413.576C180.461 417.091 172.896 421.193 173.323 427.818L173.364 428.451L186.82 426.079L186.05 421.715L179.66 422.842C181.289 420.245 185.222 417.017 184.428 412.516Z" fill="white"/>
<path d="M200.946 412.516C200.462 409.771 198.009 407.346 193.621 408.12C189.704 408.811 187.766 411.21 188.016 415.059L188.053 415.633L192.757 415.269L192.694 414.687C192.474 412.671 193.347 412.24 194.23 412.085C195.431 411.873 196.147 412.375 196.359 413.576C196.979 417.091 189.414 421.193 189.841 427.818L189.882 428.451L203.338 426.079L202.568 421.715L196.178 422.842C197.807 420.245 201.74 417.017 200.946 412.516Z" fill="white"/>
<path d="M92.4368 512.063C98.3552 512.063 103.153 505.476 103.153 497.35C103.153 489.225 98.3552 482.638 92.4368 482.638C86.5183 482.638 81.7205 489.225 81.7205 497.35C81.7205 505.476 86.5183 512.063 92.4368 512.063Z" fill="#3E4039"/>
<path d="M83.7026 497.286C83.7026 503.813 86.1682 509.114 89.1977 509.114C92.2273 509.114 94.6929 503.829 94.6929 497.286C94.6929 490.76 92.2273 485.458 89.1977 485.458C86.1682 485.474 83.7026 490.76 83.7026 497.286Z" fill="#D6E3DD"/>
<path d="M4.96582 491.47C4.96582 502.363 9.2362 511.194 14.4896 511.194C19.7591 511.194 24.0134 502.363 24.0134 491.47C24.0134 480.576 19.743 471.745 14.4896 471.745C9.22009 471.745 4.96582 480.576 4.96582 491.47Z" fill="#3E4039"/>
<path d="M6.73877 491.888C6.73877 499.172 8.4147 505.086 10.4935 505.086C12.5723 505.086 14.2482 499.172 14.2482 491.888C14.2482 484.605 12.5723 478.69 10.4935 478.69C8.43082 478.69 6.73877 484.605 6.73877 491.888Z" fill="#D6E3DD"/>
<path d="M137.977 514.514C146.405 514.514 153.237 505.141 153.237 493.58C153.237 482.02 146.405 472.647 137.977 472.647C129.548 472.647 122.716 482.02 122.716 493.58C122.716 505.141 129.548 514.514 137.977 514.514Z" fill="#3E4039"/>
<path d="M126.809 491.953C126.809 501.751 130.918 509.695 135.978 509.695C141.038 509.695 145.148 501.751 145.148 491.953C145.148 482.155 141.038 474.21 135.978 474.21C130.918 474.227 126.809 482.171 126.809 491.953Z" fill="#D6E3DD"/>
<path d="M42.2232 514.465C49.9038 514.465 56.1302 505.093 56.1302 493.532C56.1302 481.971 49.9038 472.599 42.2232 472.599C34.5425 472.599 28.3162 481.971 28.3162 493.532C28.3162 505.093 34.5425 514.465 42.2232 514.465Z" fill="#3E4039"/>
<path d="M30.4431 493.435C30.4431 501.653 33.4566 508.309 37.1791 508.309C40.9016 508.309 43.915 501.653 43.915 493.435C43.915 485.216 40.9016 478.561 37.1791 478.561C33.4566 478.545 30.4431 485.2 30.4431 493.435Z" fill="#D6E3DD"/>
<path d="M5.01422 491.598C5.01422 491.598 3.88618 469.94 6.91574 472.147C6.91574 472.147 10.6866 475.677 10.4771 485.539C10.4771 485.539 10.2676 497.367 15.1826 498.302L28.9607 499.688C28.9607 499.688 26.5757 490.905 31.1201 480.866C31.1201 480.866 31.4746 463.558 36.4863 470.568C36.7924 471.003 36.8408 471.261 37.3564 472.534C38.8873 476.273 41.8363 485.023 41.4174 495.643L41.4496 495.739C41.4979 495.965 41.6591 496.545 41.9169 497.286L41.933 497.319C42.352 498.511 43.0772 500.09 44.0763 501.09C44.0763 501.09 51.344 501.347 62.2215 501.621C87.1509 502.266 131.015 503.007 149.805 500.912C151.594 500.719 153.157 500.493 154.462 500.235C154.462 500.235 156.009 497.77 156.686 495.111C156.928 494.192 157.057 493.274 156.976 492.42C156.976 492.42 156.912 473.372 152.093 465.621C152.093 465.621 152.512 454.308 142.038 451.182C142.038 451.182 139.685 448.942 136.188 445.735C127.615 437.823 112.209 424.029 108.342 423.127C108.342 423.127 77.5627 414.118 41.5624 419.984C41.5624 419.984 29.847 421.805 21.3223 430.878C21.3223 430.878 19.3724 433.424 17.5031 437.179C16.1173 439.966 14.7958 443.431 14.3446 446.992C14.3446 446.992 14.3285 447.025 14.2802 447.073C13.7162 447.685 9.75194 452.004 9.059 453.632C8.25327 455.501 6.27115 465.057 5.35261 469.182C5.35261 469.215 0.292605 485.217 5.01422 491.598Z" fill="url(#paint47_linear)"/>
<path d="M139.894 445.284L139.91 445.349C139.991 445.51 140.281 446.155 140.313 447.508C140.329 447.943 138.637 448.072 138.637 448.072L136.043 445.768L131.659 441.659C131.659 441.659 136.574 439.805 139.894 445.284Z" fill="#036E33"/>
<path d="M35.954 434.262C35.954 434.262 36.6469 426.753 33.7624 426.237C33.7624 426.237 31.4902 425.979 31.1679 426.543C28.4606 431.055 25.0765 438.516 23.6584 447.799C23.6584 447.799 29.8948 451.102 32.3443 448.927C34.8098 446.735 35.954 434.262 35.954 434.262Z" fill="url(#paint48_linear)"/>
<path d="M29.6216 426.027C29.6216 426.027 20.2751 431.184 17.7612 442.851C17.7612 442.851 22.37 444.592 22.8535 444.173C23.3369 443.754 26.7532 431.684 29.9762 427.075C29.9762 427.075 30.8141 425.818 29.6216 426.027Z" fill="url(#paint49_linear)"/>
<path d="M125.714 446.976C127.099 447.008 127.792 445.316 126.793 444.35C121.185 439.048 111.887 428.67 107.182 426.913C105.232 426.527 87.8278 423.255 69.9566 423.255C59.901 423.255 51.5536 424.271 45.0594 426.285C44.4309 426.478 44.0119 427.058 44.0119 427.719C43.9474 433.311 46.5741 442.996 47.2026 445.671C47.3638 446.348 47.9761 446.815 48.6852 446.815C53.0523 446.799 67.62 446.735 83.4769 446.735C105.409 446.735 118.188 446.831 125.714 446.976Z" fill="url(#paint50_linear)"/>
<path d="M137.703 457.419C139.846 455.099 142.038 451.215 142.038 451.215C144.971 452.101 147.049 453.616 148.532 455.356C152.303 459.804 152.093 465.654 152.093 465.654C151.529 466.347 149.305 466.492 149.305 466.492C146.518 465.235 133.255 468.023 133.255 468.023C133.255 468.023 133.706 460.932 137.703 457.419Z" fill="#D6E3DD"/>
<path d="M48.8137 450.86C48.8137 450.86 44.6239 451.73 43.8826 454.566C43.7537 455.066 43.7215 455.63 43.8504 456.242C43.8504 456.242 45.9453 469.634 53.2614 466.491C53.2614 466.491 68.9571 466.701 75.8703 467.539C75.8703 467.539 73.9527 461.109 66.2499 457.209C66.266 457.209 56.726 452.616 48.8137 450.86Z" fill="#D6E3DD"/>
<path d="M85.5064 488.198C85.0552 488.198 84.6685 487.827 84.6685 487.36V477.772C84.6685 477.32 85.0391 476.934 85.5064 476.934H128.114C128.581 476.934 128.952 477.304 128.952 477.772V487.36C128.952 487.827 128.581 488.198 128.114 488.198H85.5064Z" fill="white"/>
<path d="M121.266 482.252L120.3 485.346H121.105L121.702 483.267L122.266 485.346H123.039L122.12 482.252L123.039 479.352H122.249L121.702 481.189L121.17 479.352H120.38L121.266 482.252Z" fill="#979797"/>
<path d="M117.591 482.252L116.625 485.346H117.43L118.026 483.267L118.591 485.346H119.364L118.445 482.252L119.364 479.352H118.574L118.026 481.189L117.511 479.352H116.721L117.591 482.252Z" fill="#979797"/>
<path d="M110.083 482.252L109.116 485.346H109.906L110.502 483.267L111.066 485.346H111.855L110.937 482.252L111.839 479.352H111.05L110.502 481.189L109.986 479.352H109.197L110.083 482.252Z" fill="#979797"/>
<path d="M106.408 482.252L105.441 485.346H106.231L106.827 483.267L107.391 485.346H108.181L107.262 482.252L108.165 479.352H107.375L106.827 481.189L106.312 479.352H105.522L106.408 482.252Z" fill="#979797"/>
<path d="M102.734 482.252L101.767 485.346H102.557L103.153 483.267L103.717 485.346H104.507L103.588 482.252L104.491 479.352H103.701L103.153 481.189L102.638 479.352H101.848L102.734 482.252Z" fill="#979797"/>
<path d="M95.2083 482.252L94.2415 485.346H95.0472L95.6273 483.267L96.2075 485.346H96.981L96.0624 482.252L96.981 479.352H96.1913L95.6273 481.189L95.1117 479.352H94.322L95.2083 482.252Z" fill="#979797"/>
<path d="M90.5674 485.347H91.3731L91.9694 483.268L92.5334 485.347H93.3069L92.3884 482.253L93.3069 479.352H92.5173L91.9694 481.189L91.4537 479.352H90.6641L91.5343 482.253L90.5674 485.347Z" fill="#979797"/>
<path d="M115.239 481.994V482.703H113.257V481.994H115.239Z" fill="#979797"/>
<path d="M100.3 481.994V482.703H98.3181V481.994H100.3Z" fill="#979797"/>
<path d="M125.503 488.198H128.114C128.581 488.198 128.952 487.828 128.952 487.36V477.772C128.952 477.321 128.581 476.934 128.114 476.934H125.503V488.198Z" fill="url(#paint51_linear)"/>
<path d="M84.6685 477.773V487.361C84.6685 487.828 85.0391 488.199 85.5064 488.199H88.117V476.951H85.5064C85.0552 476.951 84.6685 477.321 84.6685 477.773Z" fill="url(#paint52_linear)"/>
<path d="M112.821 439.032C110.162 438.194 107.665 437.066 105.231 435.873C102.814 434.649 100.429 433.36 98.2214 431.78C100.88 432.618 103.378 433.746 105.811 434.939C108.245 436.163 110.63 437.453 112.821 439.032Z" fill="#CAC9C9"/>
<path d="M97.4159 439.757C94.7569 438.92 92.2591 437.792 89.8258 436.599C87.3925 435.374 85.0236 434.085 82.8159 432.506C85.491 433.344 87.9726 434.472 90.4059 435.664C92.8231 436.889 95.2081 438.178 97.4159 439.757Z" fill="#CAC9C9"/>
<path d="M109.583 441.208C105.57 439.773 101.735 438.049 97.9319 436.244C94.145 434.423 90.4224 432.522 86.8611 430.33C90.8736 431.764 94.7089 433.489 98.512 435.293C102.283 437.13 106.021 439.032 109.583 441.208Z" fill="#CAC9C9"/>
<path d="M35.2612 448.282L34.3749 450.796C34.3749 450.796 20.0328 452.44 16.3103 447.863C16.3103 447.863 15.3273 437.469 30.8297 440.95C32.5378 441.337 30.8941 447.928 30.8941 447.928C30.8941 447.928 33.7142 448.766 35.2612 448.282Z" fill="#036E33"/>
<path d="M365 461.26L366.78 458L377.92 459.93L376.14 463.19L365 461.26Z" fill="white"/>
<path d="M736.5 -115C606.437 -115 501 -9.3392 501 121C501 251.339 606.437 357 736.5 357C866.563 357 972 251.339 972 121C972 -9.3392 866.563 -115 736.5 -115Z" fill="url(#paint53_linear)"/>
<defs>
<filter id="filter0_d" x="399.107" y="562.996" width="174.184" height="25.7546" filterUnits="userSpaceOnUse" color-interpolation-filters="sRGB">
<feFlood flood-opacity="0" result="BackgroundImageFix"/>
<feColorMatrix in="SourceAlpha" type="matrix" values="0 0 0 0 0 0 0 0 0 0 0 0 0 0 0 0 0 0 127 0"/>
<feOffset dy="4"/>
<feGaussianBlur stdDeviation="2"/>
<feColorMatrix type="matrix" values="0 0 0 0 0 0 0 0 0 0 0 0 0 0 0 0 0 0 0.25 0"/>
<feBlend mode="normal" in2="BackgroundImageFix" result="effect1_dropShadow"/>
<feBlend mode="normal" in="SourceGraphic" in2="effect1_dropShadow" result="shape"/>
</filter>
<linearGradient id="paint0_linear" x1="298.275" y1="612.615" x2="298.275" y2="692.75" gradientUnits="userSpaceOnUse">
<stop stop-color="#B3FFFF"/>
<stop offset="0.069" stop-color="#BDFFFF"/>
<stop offset="0.3065" stop-color="#DAFFFF"/>
<stop offset="0.5428" stop-color="#EEFFFF"/>
<stop offset="0.7755" stop-color="#FBFFFF"/>
<stop offset="1" stop-color="white"/>
</linearGradient>
<linearGradient id="paint1_linear" x1="348.96" y1="560.105" x2="348.96" y2="608.87" gradientUnits="userSpaceOnUse">
<stop stop-color="#B3FFFF"/>
<stop offset="0.069" stop-color="#BDFFFF"/>
<stop offset="0.3065" stop-color="#DAFFFF"/>
<stop offset="0.5428" stop-color="#EEFFFF"/>
<stop offset="0.7755" stop-color="#FBFFFF"/>
<stop offset="1" stop-color="white"/>
</linearGradient>
<linearGradient id="paint2_linear" x1="490.039" y1="521.711" x2="490.039" y2="545.54" gradientUnits="userSpaceOnUse">
<stop stop-color="#B3FFFF"/>
<stop offset="0.069" stop-color="#BDFFFF"/>
<stop offset="0.3065" stop-color="#DAFFFF"/>
<stop offset="0.5428" stop-color="#EEFFFF"/>
<stop offset="0.7755" stop-color="#FBFFFF"/>
<stop offset="1" stop-color="white"/>
</linearGradient>
<linearGradient id="paint3_linear" x1="296.787" y1="573.656" x2="296.787" y2="609.121" gradientUnits="userSpaceOnUse">
<stop stop-color="#B3FFFF"/>
<stop offset="0.069" stop-color="#BDFFFF"/>
<stop offset="0.3065" stop-color="#DAFFFF"/>
<stop offset="0.5428" stop-color="#EEFFFF"/>
<stop offset="0.7755" stop-color="#FBFFFF"/>
<stop offset="1" stop-color="white"/>
</linearGradient>
<linearGradient id="paint4_linear" x1="620.268" y1="495.705" x2="620.268" y2="556.178" gradientUnits="userSpaceOnUse">
<stop stop-color="#B3FFFF"/>
<stop offset="0.069" stop-color="#BDFFFF"/>
<stop offset="0.3065" stop-color="#DAFFFF"/>
<stop offset="0.5428" stop-color="#EEFFFF"/>
<stop offset="0.7755" stop-color="#FBFFFF"/>
<stop offset="1" stop-color="white"/>
</linearGradient>
<linearGradient id="paint5_linear" x1="720.854" y1="617.735" x2="720.854" y2="689.99" gradientUnits="userSpaceOnUse">
<stop stop-color="#00E35E"/>
<stop offset="1" stop-color="#00B248"/>
</linearGradient>
<linearGradient id="paint6_linear" x1="740.696" y1="590.831" x2="740.696" y2="689.875" gradientUnits="userSpaceOnUse">
<stop stop-color="#00E35E"/>
<stop offset="1" stop-color="#00A332"/>
</linearGradient>
<linearGradient id="paint7_linear" x1="755.177" y1="642.215" x2="755.177" y2="690.468" gradientUnits="userSpaceOnUse">
<stop stop-color="#00E35E"/>
<stop offset="1" stop-color="#00B248"/>
</linearGradient>
<linearGradient id="paint8_linear" x1="746.258" y1="642.452" x2="746.258" y2="689.753" gradientUnits="userSpaceOnUse">
<stop stop-color="#304F26" stop-opacity="0"/>
<stop offset="0.2844" stop-color="#2C4D23" stop-opacity="0.0569"/>
<stop offset="0.579" stop-color="#1F4719" stop-opacity="0.1158"/>
<stop offset="0.8773" stop-color="#0B3E09" stop-opacity="0.1755"/>
<stop offset="1" stop-color="#003900" stop-opacity="0.2"/>
</linearGradient>
<linearGradient id="paint9_linear" x1="678.943" y1="565.8" x2="666.397" y2="494.645" gradientUnits="userSpaceOnUse">
<stop stop-color="#B6DD54"/>
<stop offset="0.143" stop-color="#B2DC54"/>
<stop offset="0.292" stop-color="#A5D753"/>
<stop offset="0.443" stop-color="#91D051"/>
<stop offset="0.595" stop-color="#74C64F"/>
<stop offset="0.749" stop-color="#4EB94D"/>
<stop offset="0.902" stop-color="#21A949"/>
<stop offset="1" stop-color="#009E47"/>
</linearGradient>
<linearGradient id="paint10_linear" x1="727.732" y1="627.117" x2="799.985" y2="627.117" gradientUnits="userSpaceOnUse">
<stop stop-color="#B6DD54"/>
<stop offset="0.143" stop-color="#B2DC54"/>
<stop offset="0.292" stop-color="#A5D753"/>
<stop offset="0.443" stop-color="#91D051"/>
<stop offset="0.595" stop-color="#74C64F"/>
<stop offset="0.749" stop-color="#4EB94D"/>
<stop offset="0.902" stop-color="#21A949"/>
<stop offset="1" stop-color="#009E47"/>
</linearGradient>
<linearGradient id="paint11_linear" x1="631.633" y1="610.037" x2="667.18" y2="639.175" gradientUnits="userSpaceOnUse">
<stop stop-color="#302926" stop-opacity="0"/>
<stop offset="0.388" stop-color="#2D2724" stop-opacity="0.027"/>
<stop offset="0.621" stop-color="#25201D" stop-opacity="0.043"/>
<stop offset="0.812" stop-color="#171412" stop-opacity="0.059"/>
<stop offset="0.981" stop-color="#030202" stop-opacity="0.071"/>
<stop offset="1" stop-opacity="0.071"/>
</linearGradient>
<linearGradient id="paint12_linear" x1="660.685" y1="583.847" x2="706.454" y2="623.259" gradientUnits="userSpaceOnUse">
<stop stop-color="#B6DD54"/>
<stop offset="1" stop-color="#009E47"/>
</linearGradient>
<linearGradient id="paint13_linear" x1="725.209" y1="595.415" x2="708.237" y2="630.691" gradientUnits="userSpaceOnUse">
<stop stop-color="#302926" stop-opacity="0"/>
<stop offset="0.388" stop-color="#2D2724" stop-opacity="0.027"/>
<stop offset="0.621" stop-color="#25201D" stop-opacity="0.043"/>
<stop offset="0.812" stop-color="#171412" stop-opacity="0.059"/>
<stop offset="0.981" stop-color="#030202" stop-opacity="0.071"/>
<stop offset="1" stop-opacity="0.071"/>
</linearGradient>
<linearGradient id="paint14_linear" x1="721.702" y1="697.81" x2="707.597" y2="697.81" gradientUnits="userSpaceOnUse">
<stop stop-color="#B16464"/>
<stop offset="0.59" stop-color="#9C6764"/>
<stop offset="1" stop-color="#936864"/>
</linearGradient>
<linearGradient id="paint15_linear" x1="648.683" y1="565.799" x2="636.136" y2="494.644" gradientUnits="userSpaceOnUse">
<stop stop-color="#B6DD54"/>
<stop offset="0.143" stop-color="#B2DC54"/>
<stop offset="0.292" stop-color="#A5D753"/>
<stop offset="0.443" stop-color="#91D051"/>
<stop offset="0.595" stop-color="#74C64F"/>
<stop offset="0.749" stop-color="#4EB94D"/>
<stop offset="0.902" stop-color="#21A949"/>
<stop offset="1" stop-color="#009E47"/>
</linearGradient>
<linearGradient id="paint16_linear" x1="697.472" y1="627.116" x2="769.725" y2="627.116" gradientUnits="userSpaceOnUse">
<stop stop-color="#B6DD54"/>
<stop offset="0.143" stop-color="#B2DC54"/>
<stop offset="0.292" stop-color="#A5D753"/>
<stop offset="0.443" stop-color="#91D051"/>
<stop offset="0.595" stop-color="#74C64F"/>
<stop offset="0.749" stop-color="#4EB94D"/>
<stop offset="0.902" stop-color="#21A949"/>
<stop offset="1" stop-color="#009E47"/>
</linearGradient>
<linearGradient id="paint17_linear" x1="601.373" y1="610.037" x2="636.92" y2="639.174" gradientUnits="userSpaceOnUse">
<stop stop-color="#302926" stop-opacity="0"/>
<stop offset="0.388" stop-color="#2D2724" stop-opacity="0.027"/>
<stop offset="0.621" stop-color="#25201D" stop-opacity="0.043"/>
<stop offset="0.812" stop-color="#171412" stop-opacity="0.059"/>
<stop offset="0.981" stop-color="#030202" stop-opacity="0.071"/>
<stop offset="1" stop-opacity="0.071"/>
</linearGradient>
<linearGradient id="paint18_linear" x1="630.425" y1="583.846" x2="676.194" y2="623.258" gradientUnits="userSpaceOnUse">
<stop stop-color="#B6DD54"/>
<stop offset="1" stop-color="#009E47"/>
</linearGradient>
<linearGradient id="paint19_linear" x1="694.948" y1="595.413" x2="677.976" y2="630.689" gradientUnits="userSpaceOnUse">
<stop stop-color="#302926" stop-opacity="0"/>
<stop offset="0.388" stop-color="#2D2724" stop-opacity="0.027"/>
<stop offset="0.621" stop-color="#25201D" stop-opacity="0.043"/>
<stop offset="0.812" stop-color="#171412" stop-opacity="0.059"/>
<stop offset="0.981" stop-color="#030202" stop-opacity="0.071"/>
<stop offset="1" stop-opacity="0.071"/>
</linearGradient>
<linearGradient id="paint20_linear" x1="691.442" y1="697.809" x2="677.337" y2="697.809" gradientUnits="userSpaceOnUse">
<stop stop-color="#B16464"/>
<stop offset="0.59" stop-color="#9C6764"/>
<stop offset="1" stop-color="#936864"/>
</linearGradient>
<linearGradient id="paint21_linear" x1="608.438" y1="564.989" x2="595.891" y2="493.834" gradientUnits="userSpaceOnUse">
<stop stop-color="#B6DD54"/>
<stop offset="0.143" stop-color="#B2DC54"/>
<stop offset="0.292" stop-color="#A5D753"/>
<stop offset="0.443" stop-color="#91D051"/>
<stop offset="0.595" stop-color="#74C64F"/>
<stop offset="0.749" stop-color="#4EB94D"/>
<stop offset="0.902" stop-color="#21A949"/>
<stop offset="1" stop-color="#009E47"/>
</linearGradient>
<linearGradient id="paint22_linear" x1="657.226" y1="626.307" x2="729.479" y2="626.307" gradientUnits="userSpaceOnUse">
<stop stop-color="#B6DD54"/>
<stop offset="0.143" stop-color="#B2DC54"/>
<stop offset="0.292" stop-color="#A5D753"/>
<stop offset="0.443" stop-color="#91D051"/>
<stop offset="0.595" stop-color="#74C64F"/>
<stop offset="0.749" stop-color="#4EB94D"/>
<stop offset="0.902" stop-color="#21A949"/>
<stop offset="1" stop-color="#009E47"/>
</linearGradient>
<linearGradient id="paint23_linear" x1="561.127" y1="609.227" x2="596.674" y2="638.365" gradientUnits="userSpaceOnUse">
<stop stop-color="#302926" stop-opacity="0"/>
<stop offset="0.388" stop-color="#2D2724" stop-opacity="0.027"/>
<stop offset="0.621" stop-color="#25201D" stop-opacity="0.043"/>
<stop offset="0.812" stop-color="#171412" stop-opacity="0.059"/>
<stop offset="0.981" stop-color="#030202" stop-opacity="0.071"/>
<stop offset="1" stop-opacity="0.071"/>
</linearGradient>
<linearGradient id="paint24_linear" x1="590.179" y1="583.037" x2="635.948" y2="622.448" gradientUnits="userSpaceOnUse">
<stop stop-color="#B6DD54"/>
<stop offset="1" stop-color="#009E47"/>
</linearGradient>
<linearGradient id="paint25_linear" x1="654.703" y1="594.604" x2="637.731" y2="629.88" gradientUnits="userSpaceOnUse">
<stop stop-color="#302926" stop-opacity="0"/>
<stop offset="0.388" stop-color="#2D2724" stop-opacity="0.027"/>
<stop offset="0.621" stop-color="#25201D" stop-opacity="0.043"/>
<stop offset="0.812" stop-color="#171412" stop-opacity="0.059"/>
<stop offset="0.981" stop-color="#030202" stop-opacity="0.071"/>
<stop offset="1" stop-opacity="0.071"/>
</linearGradient>
<linearGradient id="paint26_linear" x1="651.197" y1="697" x2="637.091" y2="697" gradientUnits="userSpaceOnUse">
<stop stop-color="#B16464"/>
<stop offset="0.59" stop-color="#9C6764"/>
<stop offset="1" stop-color="#936864"/>
</linearGradient>
<linearGradient id="paint27_linear" x1="61.2588" y1="575.995" x2="111.244" y2="575.995" gradientUnits="userSpaceOnUse">
<stop stop-color="#EB5B2D"/>
<stop offset="1" stop-color="#BF292E"/>
</linearGradient>
<linearGradient id="paint28_linear" x1="105.564" y1="278.621" x2="182.817" y2="516.347" gradientUnits="userSpaceOnUse">
<stop stop-color="#0A72B9"/>
<stop offset="0.2788" stop-color="#0A72B9"/>
<stop offset="0.7727" stop-color="#0C4D86"/>
<stop offset="1" stop-color="#0C4D86"/>
</linearGradient>
<linearGradient id="paint29_linear" x1="212.001" y1="592.502" x2="362.008" y2="592.502" gradientUnits="userSpaceOnUse">
<stop stop-color="#0A72B9"/>
<stop offset="0.2788" stop-color="#0A72B9"/>
<stop offset="0.7727" stop-color="#0C4D86"/>
<stop offset="1" stop-color="#0C4D86"/>
</linearGradient>
<linearGradient id="paint30_linear" x1="106.219" y1="279.047" x2="183.011" y2="516.315" gradientUnits="userSpaceOnUse">
<stop stop-color="#0A72B9"/>
<stop offset="0.2788" stop-color="#0A72B9"/>
<stop offset="0.7727" stop-color="#0C4D86"/>
<stop offset="1" stop-color="#0C4D86"/>
</linearGradient>
<linearGradient id="paint31_linear" x1="35.9977" y1="624.834" x2="221.336" y2="624.834" gradientUnits="userSpaceOnUse">
<stop stop-color="#F39121"/>
<stop offset="0.2718" stop-color="#F39121"/>
<stop offset="0.9643" stop-color="#F8AE3C"/>
<stop offset="1" stop-color="#F8AE3C"/>
</linearGradient>
<linearGradient id="paint32_linear" x1="181.582" y1="598.057" x2="196.473" y2="598.057" gradientUnits="userSpaceOnUse">
<stop offset="0.2788" stop-color="white"/>
<stop offset="1" stop-color="#9FD8F0"/>
</linearGradient>
<linearGradient id="paint33_linear" x1="188.516" y1="594.675" x2="203.558" y2="594.675" gradientUnits="userSpaceOnUse">
<stop offset="0.2788" stop-color="white"/>
<stop offset="1" stop-color="#9FD8F0"/>
</linearGradient>
<linearGradient id="paint34_linear" x1="85.8579" y1="591.607" x2="207.27" y2="606.077" gradientUnits="userSpaceOnUse">
<stop offset="0.2788" stop-color="white"/>
<stop offset="1" stop-color="#9FD8F0"/>
</linearGradient>
<linearGradient id="paint35_linear" x1="66.5769" y1="650.408" x2="79.9519" y2="653.658" gradientUnits="userSpaceOnUse">
<stop stop-color="#0A72B9"/>
<stop offset="0.2788" stop-color="#0A72B9"/>
<stop offset="0.7727" stop-color="#0C4D86"/>
<stop offset="1" stop-color="#0C4D86"/>
</linearGradient>
<linearGradient id="paint36_linear" x1="69.2672" y1="639.336" x2="82.6422" y2="642.586" gradientUnits="userSpaceOnUse">
<stop stop-color="#0A72B9"/>
<stop offset="0.2788" stop-color="#0A72B9"/>
<stop offset="0.7727" stop-color="#0C4D86"/>
<stop offset="1" stop-color="#0C4D86"/>
</linearGradient>
<linearGradient id="paint37_linear" x1="246.194" y1="207.51" x2="309.608" y2="405.458" gradientUnits="userSpaceOnUse">
<stop stop-color="#0A72B9"/>
<stop offset="0.2788" stop-color="#0A72B9"/>
<stop offset="0.7727" stop-color="#0C4D86"/>
<stop offset="1" stop-color="#0C4D86"/>
</linearGradient>
<linearGradient id="paint38_linear" x1="336.08" y1="468.464" x2="463.662" y2="468.464" gradientUnits="userSpaceOnUse">
<stop stop-color="#0A72B9"/>
<stop offset="0.2788" stop-color="#0A72B9"/>
<stop offset="0.7727" stop-color="#0C4D86"/>
<stop offset="1" stop-color="#0C4D86"/>
</linearGradient>
<linearGradient id="paint39_linear" x1="246.878" y1="207.291" x2="310.292" y2="405.238" gradientUnits="userSpaceOnUse">
<stop stop-color="#0A72B9"/>
<stop offset="0.2788" stop-color="#0A72B9"/>
<stop offset="0.7727" stop-color="#0C4D86"/>
<stop offset="1" stop-color="#0C4D86"/>
</linearGradient>
<linearGradient id="paint40_linear" x1="172.986" y1="493.681" x2="340.998" y2="493.681" gradientUnits="userSpaceOnUse">
<stop stop-color="#0A72B9"/>
<stop offset="0.2788" stop-color="#0A72B9"/>
<stop offset="0.7727" stop-color="#0C4D86"/>
<stop offset="1" stop-color="#0C4D86"/>
</linearGradient>
<linearGradient id="paint41_linear" x1="304.961" y1="470.087" x2="318.459" y2="470.087" gradientUnits="userSpaceOnUse">
<stop offset="0.2788" stop-color="white"/>
<stop offset="1" stop-color="#9FD8F0"/>
</linearGradient>
<linearGradient id="paint42_linear" x1="311.246" y1="467.107" x2="324.881" y2="467.107" gradientUnits="userSpaceOnUse">
<stop offset="0.2788" stop-color="white"/>
<stop offset="1" stop-color="#9FD8F0"/>
</linearGradient>
<linearGradient id="paint43_linear" x1="218.186" y1="464.404" x2="328.157" y2="477.888" gradientUnits="userSpaceOnUse">
<stop offset="0.2788" stop-color="white"/>
<stop offset="1" stop-color="#9FD8F0"/>
</linearGradient>
<linearGradient id="paint44_linear" x1="-0.467087" y1="264.661" x2="102.608" y2="397.721" gradientUnits="userSpaceOnUse">
<stop stop-color="#0A72B9"/>
<stop offset="0.2788" stop-color="#0A72B9"/>
<stop offset="0.7727" stop-color="#0C4D86"/>
<stop offset="1" stop-color="#0C4D86"/>
</linearGradient>
<linearGradient id="paint45_linear" x1="140.201" y1="438.332" x2="237.281" y2="402.998" gradientUnits="userSpaceOnUse">
<stop stop-color="#0A72B9"/>
<stop offset="0.2788" stop-color="#0A72B9"/>
<stop offset="0.7727" stop-color="#0C4D86"/>
<stop offset="1" stop-color="#0C4D86"/>
</linearGradient>
<linearGradient id="paint46_linear" x1="-0.00662882" y1="264.305" x2="103.068" y2="397.364" gradientUnits="userSpaceOnUse">
<stop stop-color="#0A72B9"/>
<stop offset="0.2788" stop-color="#0A72B9"/>
<stop offset="0.7727" stop-color="#0C4D86"/>
<stop offset="1" stop-color="#0C4D86"/>
</linearGradient>
<linearGradient id="paint47_linear" x1="156.986" y1="460.174" x2="2.99601" y2="460.174" gradientUnits="userSpaceOnUse">
<stop stop-color="#46AE4D"/>
<stop offset="0.262" stop-color="#46AE4D"/>
<stop offset="0.7615" stop-color="#009045"/>
<stop offset="1" stop-color="#009045"/>
</linearGradient>
<linearGradient id="paint48_linear" x1="36.0251" y1="437.927" x2="23.6535" y2="437.927" gradientUnits="userSpaceOnUse">
<stop offset="0.2788" stop-color="white"/>
<stop offset="1" stop-color="#9FD8F0"/>
</linearGradient>
<linearGradient id="paint49_linear" x1="30.2654" y1="435.116" x2="17.7678" y2="435.116" gradientUnits="userSpaceOnUse">
<stop offset="0.2788" stop-color="white"/>
<stop offset="1" stop-color="#9FD8F0"/>
</linearGradient>
<linearGradient id="paint50_linear" x1="115.559" y1="432.566" x2="14.6831" y2="444.589" gradientUnits="userSpaceOnUse">
<stop offset="0.2788" stop-color="white"/>
<stop offset="1" stop-color="#9FD8F0"/>
</linearGradient>
<linearGradient id="paint51_linear" x1="131.578" y1="481.422" x2="120.465" y2="484.123" gradientUnits="userSpaceOnUse">
<stop stop-color="#0A72B9"/>
<stop offset="0.2788" stop-color="#0A72B9"/>
<stop offset="0.7727" stop-color="#0C4D86"/>
<stop offset="1" stop-color="#0C4D86"/>
</linearGradient>
<linearGradient id="paint52_linear" x1="129.342" y1="472.223" x2="118.23" y2="474.924" gradientUnits="userSpaceOnUse">
<stop stop-color="#0A72B9"/>
<stop offset="0.2788" stop-color="#0A72B9"/>
<stop offset="0.7727" stop-color="#0C4D86"/>
<stop offset="1" stop-color="#0C4D86"/>
</linearGradient>
<linearGradient id="paint53_linear" x1="544.31" y1="313.597" x2="930.459" y2="-71.733" gradientUnits="userSpaceOnUse">
<stop stop-color="#FFDC2E"/>
<stop offset="0.0902" stop-color="#FFE359"/>
<stop offset="0.1987" stop-color="#FFEA84"/>
<stop offset="0.3124" stop-color="#FFF1AA"/>
<stop offset="0.4299" stop-color="#FFF6C9"/>
<stop offset="0.5524" stop-color="#FFFAE1"/>
<stop offset="0.682" stop-color="#FFFDF2"/>
<stop offset="0.8237" stop-color="#FFFEFC"/>
<stop offset="1" stop-color="white"/>
</linearGradient>
</defs>
</svg>
