<svg width="46" height="46" viewBox="0 0 46 46" fill="none" xmlns="http://www.w3.org/2000/svg">
<rect x="46" y="46" width="46" height="46" rx="23" transform="rotate(-180 46 46)" fill="#009D76"/>
<path d="M21.8398 16.0703C21.4883 16.4219 21.5234 16.9492 21.8398 17.3008L26.0938 21.3437L15.9688 21.3437C15.5117 21.3437 15.125 21.6953 15.125 22.1875L15.125 23.3125C15.125 23.7695 15.5117 24.1562 15.9688 24.1562L26.0938 24.1562L21.8398 28.1641C21.5234 28.5156 21.4883 29.043 21.8398 29.3945L22.6133 30.168C22.9297 30.4844 23.4922 30.4844 23.8086 30.168L30.6289 23.3125C30.9805 22.9961 30.9805 22.4687 30.6289 22.1523L23.8086 15.2969C23.4922 14.9805 22.9648 14.9805 22.6133 15.2969L21.8398 16.0703Z" fill="white"/>
</svg>
