<svg width="46" height="46" viewBox="0 0 46 46" fill="none" xmlns="http://www.w3.org/2000/svg">
<rect width="46" height="46" rx="23" fill="#009D76"/>
<path d="M24.1602 29.9297C24.5117 29.5781 24.4766 29.0508 24.1602 28.6992L19.9062 24.6562H30.0312C30.4883 24.6562 30.875 24.3047 30.875 23.8125V22.6875C30.875 22.2305 30.4883 21.8438 30.0312 21.8438H19.9062L24.1602 17.8359C24.4766 17.4844 24.5117 16.957 24.1602 16.6055L23.3867 15.832C23.0703 15.5156 22.5078 15.5156 22.1914 15.832L15.3711 22.6875C15.0195 23.0039 15.0195 23.5312 15.3711 23.8477L22.1914 30.7031C22.5078 31.0195 23.0352 31.0195 23.3867 30.7031L24.1602 29.9297Z" fill="white"/>
</svg>
